*
*
G04 PADS 9.5 Build Number: 522968 generated Gerber (RS-274-X) file*
G04 PC Version=2.1*
*
%IN "MT-ACDC-A.pcb"*%
*
%MOIN*%
*
%FSLAX35Y35*%
*
*
*
*
G04 PC Standard Apertures*
*
*
G04 Thermal Relief Aperture macro.*
%AMTER*
1,1,$1,0,0*
1,0,$1-$2,0,0*
21,0,$3,$4,0,0,45*
21,0,$3,$4,0,0,135*
%
*
*
G04 Annular Aperture macro.*
%AMANN*
1,1,$1,0,0*
1,0,$2,0,0*
%
*
*
G04 Odd Aperture macro.*
%AMODD*
1,1,$1,0,0*
1,0,$1-0.005,0,0*
%
*
*
G04 PC Custom Aperture Macros*
*
*
*
*
*
*
G04 PC Aperture Table*
*
%ADD010C,0.01*%
%ADD024C,0.001*%
*
*
*
*
G04 PC Circuitry*
G04 Layer Name MT-ACDC-A.pcb - circuitry*
%LPD*%
*
*
G04 PC Custom Flashes*
G04 Layer Name MT-ACDC-A.pcb - flashes*
%LPD*%
*
*
G04 PC Circuitry*
G04 Layer Name MT-ACDC-A.pcb - circuitry*
%LPD*%
*
G54D10*
G01X1999677Y1606625D02*
X2007677D01*
X1999677Y1614625*
X2007677*
X1999677Y1606625*
Y1586625D02*
X2007677D01*
X1999677Y1594625*
X2007677*
X1999677Y1586625*
Y1566625D02*
X2007677D01*
X1999677Y1574625*
X2007677*
X1999677Y1566625*
Y1546625D02*
X2007677D01*
X1999677Y1554625*
X2007677*
X1999677Y1546625*
X2031677Y1533125D02*
X2039677Y1541125D01*
Y1533125*
X2031677Y1541125*
Y1533125*
Y1553125D02*
X2039677Y1561125D01*
Y1553125*
X2031677Y1561125*
Y1553125*
X2223677Y1517125D02*
X2231677Y1525125D01*
Y1517125*
X2223677Y1525125*
Y1517125*
Y1537125D02*
X2231677Y1545125D01*
Y1537125*
X2223677Y1545125*
Y1537125*
X2027646Y1615889D02*
X2035646D01*
X2031646Y1611889D02*
Y1619889D01*
X2034555Y1621170D02*
X2033646Y1617889D01*
X2034555Y1621170D02*
X2035464Y1617889D01*
X2033987Y1618983D02*
X2035123D01*
X2023709Y1586361D02*
X2031709D01*
X2027709Y1582361D02*
Y1590361D01*
X2030618Y1591642D02*
X2029709Y1588361D01*
X2030618Y1591642D02*
X2031527Y1588361D01*
X2030050Y1589455D02*
X2031186D01*
X2067677Y1611424D02*
X2075677D01*
X2071677Y1607424D02*
Y1615424D01*
X2073677Y1616705D02*
Y1613424D01*
Y1616705D02*
X2074700D01*
X2075041Y1616549*
X2075154Y1616393*
X2075268Y1616080*
Y1615768*
X2075154Y1615455*
X2075041Y1615299*
X2074700Y1615143*
X2073677D02*
X2074700D01*
X2075041Y1614987*
X2075154Y1614830*
X2075268Y1614518*
Y1614049*
X2075154Y1613737*
X2075041Y1613580*
X2074700Y1613424*
X2073677*
X2067677Y1590558D02*
X2075677D01*
X2071677Y1586558D02*
Y1594558D01*
X2073677Y1595839D02*
Y1592558D01*
Y1595839D02*
X2074700D01*
X2075041Y1595683*
X2075154Y1595527*
X2075268Y1595214*
Y1594902*
X2075154Y1594589*
X2075041Y1594433*
X2074700Y1594277*
X2073677D02*
X2074700D01*
X2075041Y1594121*
X2075154Y1593964*
X2075268Y1593652*
Y1593183*
X2075154Y1592871*
X2075041Y1592714*
X2074700Y1592558*
X2073677*
X2067677Y1569692D02*
X2075677D01*
X2071677Y1565692D02*
Y1573692D01*
X2073677Y1574973D02*
Y1571692D01*
Y1574973D02*
X2074700D01*
X2075041Y1574817*
X2075154Y1574661*
X2075268Y1574348*
Y1574036*
X2075154Y1573723*
X2075041Y1573567*
X2074700Y1573411*
X2073677D02*
X2074700D01*
X2075041Y1573254*
X2075154Y1573098*
X2075268Y1572786*
Y1572317*
X2075154Y1572004*
X2075041Y1571848*
X2074700Y1571692*
X2073677*
X2067677Y1548826D02*
X2075677D01*
X2071677Y1544826D02*
Y1552826D01*
X2073677Y1554107D02*
Y1550826D01*
Y1554107D02*
X2074700D01*
X2075041Y1553951*
X2075154Y1553795*
X2075268Y1553482*
Y1553170*
X2075154Y1552857*
X2075041Y1552701*
X2074700Y1552545*
X2073677D02*
X2074700D01*
X2075041Y1552388*
X2075154Y1552232*
X2075268Y1551920*
Y1551451*
X2075154Y1551138*
X2075041Y1550982*
X2074700Y1550826*
X2073677*
X2118677Y1516361D02*
X2126677D01*
X2122677Y1512361D02*
Y1520361D01*
X2126382Y1520861D02*
X2126268Y1521174D01*
X2126041Y1521486*
X2125814Y1521642*
X2125359*
X2125132Y1521486*
X2124904Y1521174*
X2124791Y1520861*
X2124677Y1520392*
Y1519611*
X2124791Y1519142*
X2124904Y1518830*
X2125132Y1518517*
X2125359Y1518361*
X2125814*
X2126041Y1518517*
X2126268Y1518830*
X2126382Y1519142*
X2118677Y1545889D02*
X2126677D01*
X2122677Y1541889D02*
Y1549889D01*
X2126382Y1550389D02*
X2126268Y1550701D01*
X2126041Y1551014*
X2125814Y1551170*
X2125359*
X2125132Y1551014*
X2124904Y1550701*
X2124791Y1550389*
X2124677Y1549920*
Y1549139*
X2124791Y1548670*
X2124904Y1548358*
X2125132Y1548045*
X2125359Y1547889*
X2125814*
X2126041Y1548045*
X2126268Y1548358*
X2126382Y1548670*
X2118677Y1614361D02*
X2126677D01*
X2122677Y1610361D02*
Y1618361D01*
X2126382Y1618861D02*
X2126268Y1619174D01*
X2126041Y1619486*
X2125814Y1619642*
X2125359*
X2125132Y1619486*
X2124904Y1619174*
X2124791Y1618861*
X2124677Y1618392*
Y1617611*
X2124791Y1617142*
X2124904Y1616830*
X2125132Y1616517*
X2125359Y1616361*
X2125814*
X2126041Y1616517*
X2126268Y1616830*
X2126382Y1617142*
X2118677Y1643889D02*
X2126677D01*
X2122677Y1639889D02*
Y1647889D01*
X2126382Y1648389D02*
X2126268Y1648701D01*
X2126041Y1649014*
X2125814Y1649170*
X2125359*
X2125132Y1649014*
X2124904Y1648701*
X2124791Y1648389*
X2124677Y1647920*
Y1647139*
X2124791Y1646670*
X2124904Y1646358*
X2125132Y1646045*
X2125359Y1645889*
X2125814*
X2126041Y1646045*
X2126268Y1646358*
X2126382Y1646670*
X2255677Y1595125D02*
X2263677D01*
X2259677Y1591125D02*
Y1599125D01*
X2261677Y1600406D02*
Y1597125D01*
Y1600406D02*
X2262473D01*
X2262814Y1600250*
X2263041Y1599938*
X2263154Y1599625*
X2263268Y1599156*
Y1598375*
X2263154Y1597906*
X2263041Y1597594*
X2262814Y1597281*
X2262473Y1597125*
X2261677*
X2255677Y1495125D02*
X2263677D01*
X2259677Y1491125D02*
Y1499125D01*
X2261677Y1500406D02*
Y1497125D01*
Y1500406D02*
X2262473D01*
X2262814Y1500250*
X2263041Y1499938*
X2263154Y1499625*
X2263268Y1499156*
Y1498375*
X2263154Y1497906*
X2263041Y1497594*
X2262814Y1497281*
X2262473Y1497125*
X2261677*
X2195677Y1491755D02*
X2203677D01*
X2199677Y1487755D02*
Y1495755D01*
X2201677Y1497036D02*
Y1493755D01*
Y1497036D02*
X2203154D01*
X2201677Y1495474D02*
X2202586D01*
X2201677Y1493755D02*
X2203154D01*
X2195677Y1570495D02*
X2203677D01*
X2199677Y1566495D02*
Y1574495D01*
X2201677Y1575776D02*
Y1572495D01*
Y1575776D02*
X2203154D01*
X2201677Y1574214D02*
X2202586D01*
X2201677Y1572495D02*
X2203154D01*
X2167677Y1491755D02*
X2175677D01*
X2171677Y1487755D02*
Y1495755D01*
X2173677Y1497036D02*
Y1493755D01*
Y1497036D02*
X2175154D01*
X2173677Y1495474D02*
X2174586D01*
X2173677Y1493755D02*
X2175154D01*
X2167677Y1570495D02*
X2175677D01*
X2171677Y1566495D02*
Y1574495D01*
X2173677Y1575776D02*
Y1572495D01*
Y1575776D02*
X2175154D01*
X2173677Y1574214D02*
X2174586D01*
X2173677Y1572495D02*
X2175154D01*
X2167677Y1582755D02*
X2175677D01*
X2171677Y1578755D02*
Y1586755D01*
X2173677Y1588036D02*
Y1584755D01*
Y1588036D02*
X2175154D01*
X2173677Y1586474D02*
X2174586D01*
X2173677Y1584755D02*
X2175154D01*
X2167677Y1661495D02*
X2175677D01*
X2171677Y1657495D02*
Y1665495D01*
X2173677Y1666776D02*
Y1663495D01*
Y1666776D02*
X2175154D01*
X2173677Y1665214D02*
X2174586D01*
X2173677Y1663495D02*
X2175154D01*
X2195677Y1582755D02*
X2203677D01*
X2199677Y1578755D02*
Y1586755D01*
X2201677Y1588036D02*
Y1584755D01*
Y1588036D02*
X2203154D01*
X2201677Y1586474D02*
X2202586D01*
X2201677Y1584755D02*
X2203154D01*
X2195677Y1661495D02*
X2203677D01*
X2199677Y1657495D02*
Y1665495D01*
X2201677Y1666776D02*
Y1663495D01*
Y1666776D02*
X2203154D01*
X2201677Y1665214D02*
X2202586D01*
X2201677Y1663495D02*
X2203154D01*
X2293677Y1606625D02*
X2301677D01*
X2293677Y1614625*
X2301677*
X2293677Y1606625*
Y1586625D02*
X2301677D01*
X2293677Y1594625*
X2301677*
X2293677Y1586625*
Y1566625D02*
X2301677D01*
X2293677Y1574625*
X2301677*
X2293677Y1566625*
Y1546625D02*
X2301677D01*
X2293677Y1554625*
X2301677*
X2293677Y1546625*
X2293638Y1659290D02*
X2301638D01*
X2297638Y1655290D02*
Y1663290D01*
X2299638Y1664572D02*
Y1661290D01*
Y1664572D02*
X2301115D01*
X2299638Y1663009D02*
X2300547D01*
X1998362Y1659290D02*
X2006362D01*
X2002362Y1655290D02*
Y1663290D01*
X2004362Y1664572D02*
Y1661290D01*
Y1664572D02*
X2005839D01*
X2004362Y1663009D02*
X2005271D01*
X1998362Y1501810D02*
X2006362D01*
X2002362Y1497810D02*
Y1505810D01*
X2004362Y1507091D02*
Y1503810D01*
Y1507091D02*
X2005839D01*
X2004362Y1505529D02*
X2005271D01*
X2293638Y1501810D02*
X2301638D01*
X2297638Y1497810D02*
Y1505810D01*
X2299638Y1507091D02*
Y1503810D01*
Y1507091D02*
X2301115D01*
X2299638Y1505529D02*
X2300547D01*
X1990551Y1678975D02*
G75*
G03X1982677Y1671101I0J-7874D01*
G01X1990551Y1678975D02*
X2309449D01*
X2317323Y1671101D02*
G03X2309449Y1678975I-7874J0D01*
G01X2317323Y1671101D02*
Y1489999D01*
X2309449Y1482125D02*
G03X2317323Y1489999I-0J7874D01*
G01X2309449Y1482125D02*
X1990551D01*
X1982677Y1489999D02*
G03X1990551Y1482125I7874J0D01*
G01X1982677Y1489999D02*
Y1671101D01*
X2011417Y1501810D02*
G03X2011417I-9055J0D01*
G01Y1659290D02*
G03X2011417I-9055J0D01*
G01X2306693D02*
G03X2306693I-9055J0D01*
G01Y1501810D02*
G03X2306693I-9055J0D01*
G01X1904362Y1482125D02*
Y1573800D01*
Y1482125D02*
X1901862Y1492125D01*
X1906862*
X1904362Y1482125*
Y1678975D02*
Y1587300D01*
Y1678975D02*
X1906862Y1668975D01*
X1901862*
X1904362Y1678975*
X1977677Y1482125D02*
X1899362D01*
X1977677Y1678975D02*
X1899362D01*
X1891635Y1583363D02*
X1889362D01*
X1889135Y1580550*
X1889362Y1580863*
X1890044Y1581175*
X1890726*
X1891408Y1580863*
X1891862Y1580238*
X1892089Y1579300*
X1891862Y1578675*
X1891635Y1577738*
X1891180Y1577113*
X1890499Y1576800*
X1889817*
X1889135Y1577113*
X1888908Y1577425*
X1888680Y1578050*
X1895499Y1583363D02*
X1894817Y1583050D01*
X1894362Y1582113*
X1894135Y1580550*
Y1579613*
X1894362Y1578050*
X1894817Y1577113*
X1895499Y1576800*
X1895953*
X1896635Y1577113*
X1897089Y1578050*
X1897317Y1579613*
Y1580550*
X1897089Y1582113*
X1896635Y1583050*
X1895953Y1583363*
X1895499*
X1899589Y1577425D02*
X1899362Y1577113D01*
X1899589Y1576800*
X1899817Y1577113*
X1899589Y1577425*
X1903226Y1583363D02*
X1902544Y1583050D01*
X1902089Y1582113*
X1901862Y1580550*
Y1579613*
X1902089Y1578050*
X1902544Y1577113*
X1903226Y1576800*
X1903680*
X1904362Y1577113*
X1904817Y1578050*
X1905044Y1579613*
Y1580550*
X1904817Y1582113*
X1904362Y1583050*
X1903680Y1583363*
X1903226*
X1907089Y1581175D02*
Y1576800D01*
Y1579925D02*
X1907771Y1580863D01*
X1908226Y1581175*
X1908908*
X1909362Y1580863*
X1909589Y1579925*
Y1576800*
Y1579925D02*
X1910271Y1580863D01*
X1910726Y1581175*
X1911408*
X1911862Y1580863*
X1912089Y1579925*
Y1576800*
X1914135Y1581175D02*
Y1576800D01*
Y1579925D02*
X1914817Y1580863D01*
X1915271Y1581175*
X1915953*
X1916408Y1580863*
X1916635Y1579925*
Y1576800*
Y1579925D02*
X1917317Y1580863D01*
X1917771Y1581175*
X1918453*
X1918908Y1580863*
X1919135Y1579925*
Y1576800*
X1982677Y1711625D02*
X2131318D01*
X1982677D02*
X1992677Y1714125D01*
Y1709125*
X1982677Y1711625*
X2317323D02*
X2168682D01*
X2317323D02*
X2307323Y1709125D01*
Y1714125*
X2317323Y1711625*
X1982677Y1683975D02*
Y1716625D01*
X2317323Y1683975D02*
Y1716625D01*
X2135455Y1714438D02*
X2134773Y1714125D01*
X2134545Y1713500*
Y1712875*
X2134773Y1712250*
X2135227Y1711938*
X2136136Y1711625*
X2136818Y1711313*
X2137273Y1710688*
X2137500Y1710063*
Y1709125*
X2137273Y1708500*
X2137045Y1708188*
X2136364Y1707875*
X2135455*
X2134773Y1708188*
X2134545Y1708500*
X2134318Y1709125*
Y1710063*
X2134545Y1710688*
X2135000Y1711313*
X2135682Y1711625*
X2136591Y1711938*
X2137045Y1712250*
X2137273Y1712875*
Y1713500*
X2137045Y1714125*
X2136364Y1714438*
X2135455*
X2142500D02*
X2140227D01*
X2140000Y1711625*
X2140227Y1711938*
X2140909Y1712250*
X2141591*
X2142273Y1711938*
X2142727Y1711313*
X2142955Y1710375*
X2142727Y1709750*
X2142500Y1708813*
X2142045Y1708188*
X2141364Y1707875*
X2140682*
X2140000Y1708188*
X2139773Y1708500*
X2139545Y1709125*
X2145227Y1708500D02*
X2145000Y1708188D01*
X2145227Y1707875*
X2145455Y1708188*
X2145227Y1708500*
X2148864Y1714438D02*
X2148182Y1714125D01*
X2147727Y1713188*
X2147500Y1711625*
Y1710688*
X2147727Y1709125*
X2148182Y1708188*
X2148864Y1707875*
X2149318*
X2150000Y1708188*
X2150455Y1709125*
X2150682Y1710688*
Y1711625*
X2150455Y1713188*
X2150000Y1714125*
X2149318Y1714438*
X2148864*
X2152727Y1712250D02*
Y1707875D01*
Y1711000D02*
X2153409Y1711938D01*
X2153864Y1712250*
X2154545*
X2155000Y1711938*
X2155227Y1711000*
Y1707875*
Y1711000D02*
X2155909Y1711938D01*
X2156364Y1712250*
X2157045*
X2157500Y1711938*
X2157727Y1711000*
Y1707875*
X2159773Y1712250D02*
Y1707875D01*
Y1711000D02*
X2160455Y1711938D01*
X2160909Y1712250*
X2161591*
X2162045Y1711938*
X2162273Y1711000*
Y1707875*
Y1711000D02*
X2162955Y1711938D01*
X2163409Y1712250*
X2164091*
X2164545Y1711938*
X2164773Y1711000*
Y1707875*
X1682677Y1698125D02*
X1940677D01*
X1682677Y1674125D02*
X1940677D01*
X1682677Y1650125D02*
X1940677D01*
X1682677Y1626125D02*
X1940677D01*
X1682677Y1602125D02*
X1940677D01*
X1682677Y1578125D02*
X1940677D01*
X1682677Y1554125D02*
X1940677D01*
X1682677Y1530125D02*
X1940677D01*
X1682677Y1506125D02*
X1940677D01*
X1682677Y1482125D02*
X1940677D01*
X1682677Y1698125D02*
Y1482125D01*
X1766677Y1698125D02*
Y1482125D01*
X1802677Y1698125D02*
Y1482125D01*
X1838677Y1698125D02*
Y1482125D01*
X1892677Y1698125D02*
Y1482125D01*
X1940677Y1698125D02*
Y1482125D01*
X1909359Y1688000D02*
Y1680125D01*
X1907450Y1688000D02*
X1911268D01*
X1915359D02*
X1914814Y1687625D01*
X1914268Y1686875*
X1913995Y1686125*
X1913723Y1685000*
Y1683125*
X1913995Y1682000*
X1914268Y1681250*
X1914814Y1680500*
X1915359Y1680125*
X1916450*
X1916995Y1680500*
X1917541Y1681250*
X1917814Y1682000*
X1918086Y1683125*
Y1685000*
X1917814Y1686125*
X1917541Y1686875*
X1916995Y1687625*
X1916450Y1688000*
X1915359*
X1920541D02*
Y1680125D01*
X1923814*
X1692223Y1664000D02*
X1689495D01*
X1689223Y1660625*
X1689495Y1661000*
X1690314Y1661375*
X1691132*
X1691950Y1661000*
X1692495Y1660250*
X1692768Y1659125*
X1692495Y1658375*
X1692223Y1657250*
X1691677Y1656500*
X1690859Y1656125*
X1690041*
X1689223Y1656500*
X1688950Y1656875*
X1688677Y1657625*
X1698768Y1664000D02*
X1696041D01*
X1695768Y1660625*
X1696041Y1661000*
X1696859Y1661375*
X1697677*
X1698495Y1661000*
X1699041Y1660250*
X1699314Y1659125*
X1699041Y1658375*
X1698768Y1657250*
X1698223Y1656500*
X1697404Y1656125*
X1696586*
X1695768Y1656500*
X1695495Y1656875*
X1695223Y1657625*
X1702041Y1656875D02*
X1701768Y1656500D01*
X1702041Y1656125*
X1702314Y1656500*
X1702041Y1656875*
X1704768Y1662500D02*
X1705314Y1662875D01*
X1706132Y1664000*
Y1656125*
X1708859Y1662125D02*
Y1662500D01*
X1709132Y1663250*
X1709404Y1663625*
X1709950Y1664000*
X1711041*
X1711586Y1663625*
X1711859Y1663250*
X1712132Y1662500*
Y1661750*
X1711859Y1661000*
X1711314Y1659875*
X1708586Y1656125*
X1712404*
X1783086Y1664000D02*
X1782268Y1663625D01*
X1781995Y1662875*
Y1662125*
X1782268Y1661375*
X1782814Y1661000*
X1783904Y1660625*
X1784723Y1660250*
X1785268Y1659500*
X1785541Y1658750*
Y1657625*
X1785268Y1656875*
X1784995Y1656500*
X1784177Y1656125*
X1783086*
X1782268Y1656500*
X1781995Y1656875*
X1781723Y1657625*
Y1658750*
X1781995Y1659500*
X1782541Y1660250*
X1783359Y1660625*
X1784450Y1661000*
X1784995Y1661375*
X1785268Y1662125*
Y1662875*
X1784995Y1663625*
X1784177Y1664000*
X1783086*
X1814677Y1656125D02*
X1826677D01*
X1814677Y1668125*
X1826677*
X1814677Y1656125*
X1847314Y1664000D02*
X1849495Y1660250D01*
Y1656125*
X1851677Y1664000D02*
X1849495Y1660250D01*
X1854132Y1664000D02*
Y1656125D01*
Y1664000D02*
X1857677D01*
X1854132Y1660250D02*
X1856314D01*
X1854132Y1656125D02*
X1857677D01*
X1863950Y1662875D02*
X1863404Y1663625D01*
X1862586Y1664000*
X1861495*
X1860677Y1663625*
X1860132Y1662875*
Y1662125*
X1860404Y1661375*
X1860677Y1661000*
X1861223Y1660625*
X1862859Y1659875*
X1863404Y1659500*
X1863677Y1659125*
X1863950Y1658375*
Y1657250*
X1863404Y1656500*
X1862586Y1656125*
X1861495*
X1860677Y1656500*
X1860132Y1657250*
X1900495Y1662875D02*
Y1656125D01*
X1898041Y1659500D02*
X1902950D01*
X1910314Y1665500D02*
X1905404Y1653500D01*
X1912768Y1659500D02*
X1917677D01*
X1921768Y1664000D02*
X1920950Y1663625D01*
X1920404Y1662500*
X1920132Y1660625*
Y1659500*
X1920404Y1657625*
X1920950Y1656500*
X1921768Y1656125*
X1922314*
X1923132Y1656500*
X1923677Y1657625*
X1923950Y1659500*
Y1660625*
X1923677Y1662500*
X1923132Y1663625*
X1922314Y1664000*
X1921768*
X1926677Y1656875D02*
X1926404Y1656500D01*
X1926677Y1656125*
X1926950Y1656500*
X1926677Y1656875*
X1931041Y1664000D02*
X1930223Y1663625D01*
X1929677Y1662500*
X1929404Y1660625*
Y1659500*
X1929677Y1657625*
X1930223Y1656500*
X1931041Y1656125*
X1931586*
X1932404Y1656500*
X1932950Y1657625*
X1933223Y1659500*
Y1660625*
X1932950Y1662500*
X1932404Y1663625*
X1931586Y1664000*
X1931041*
X1689223Y1640000D02*
X1692223D01*
X1690586Y1637000*
X1691404*
X1691950Y1636625*
X1692223Y1636250*
X1692495Y1635125*
Y1634375*
X1692223Y1633250*
X1691677Y1632500*
X1690859Y1632125*
X1690041*
X1689223Y1632500*
X1688950Y1632875*
X1688677Y1633625*
X1694950Y1638500D02*
X1695495Y1638875D01*
X1696314Y1640000*
Y1632125*
X1699041Y1632875D02*
X1698768Y1632500D01*
X1699041Y1632125*
X1699314Y1632500*
X1699041Y1632875*
X1705314Y1640000D02*
X1702586D01*
X1702314Y1636625*
X1702586Y1637000*
X1703404Y1637375*
X1704223*
X1705041Y1637000*
X1705586Y1636250*
X1705859Y1635125*
X1705586Y1634375*
X1705314Y1633250*
X1704768Y1632500*
X1703950Y1632125*
X1703132*
X1702314Y1632500*
X1702041Y1632875*
X1701768Y1633625*
X1784314Y1640000D02*
X1781586Y1634750D01*
X1785677*
X1784314Y1640000D02*
Y1632125D01*
X1814677D02*
X1826677Y1644125D01*
Y1632125*
X1814677Y1644125*
Y1632125*
X1847314Y1640000D02*
X1849495Y1636250D01*
Y1632125*
X1851677Y1640000D02*
X1849495Y1636250D01*
X1854132Y1640000D02*
Y1632125D01*
Y1640000D02*
X1857677D01*
X1854132Y1636250D02*
X1856314D01*
X1854132Y1632125D02*
X1857677D01*
X1863950Y1638875D02*
X1863404Y1639625D01*
X1862586Y1640000*
X1861495*
X1860677Y1639625*
X1860132Y1638875*
Y1638125*
X1860404Y1637375*
X1860677Y1637000*
X1861223Y1636625*
X1862859Y1635875*
X1863404Y1635500*
X1863677Y1635125*
X1863950Y1634375*
Y1633250*
X1863404Y1632500*
X1862586Y1632125*
X1861495*
X1860677Y1632500*
X1860132Y1633250*
X1900495Y1638875D02*
Y1632125D01*
X1898041Y1635500D02*
X1902950D01*
X1910314Y1641500D02*
X1905404Y1629500D01*
X1912768Y1635500D02*
X1917677D01*
X1921768Y1640000D02*
X1920950Y1639625D01*
X1920404Y1638500*
X1920132Y1636625*
Y1635500*
X1920404Y1633625*
X1920950Y1632500*
X1921768Y1632125*
X1922314*
X1923132Y1632500*
X1923677Y1633625*
X1923950Y1635500*
Y1636625*
X1923677Y1638500*
X1923132Y1639625*
X1922314Y1640000*
X1921768*
X1926677Y1632875D02*
X1926404Y1632500D01*
X1926677Y1632125*
X1926950Y1632500*
X1926677Y1632875*
X1931041Y1640000D02*
X1930223Y1639625D01*
X1929677Y1638500*
X1929404Y1636625*
Y1635500*
X1929677Y1633625*
X1930223Y1632500*
X1931041Y1632125*
X1931586*
X1932404Y1632500*
X1932950Y1633625*
X1933223Y1635500*
Y1636625*
X1932950Y1638500*
X1932404Y1639625*
X1931586Y1640000*
X1931041*
X1689223Y1616000D02*
X1692223D01*
X1690586Y1613000*
X1691404*
X1691950Y1612625*
X1692223Y1612250*
X1692495Y1611125*
Y1610375*
X1692223Y1609250*
X1691677Y1608500*
X1690859Y1608125*
X1690041*
X1689223Y1608500*
X1688950Y1608875*
X1688677Y1609625*
X1698495Y1613375D02*
X1698223Y1612250D01*
X1697677Y1611500*
X1696859Y1611125*
X1696586*
X1695768Y1611500*
X1695223Y1612250*
X1694950Y1613375*
Y1613750*
X1695223Y1614875*
X1695768Y1615625*
X1696586Y1616000*
X1696859*
X1697677Y1615625*
X1698223Y1614875*
X1698495Y1613375*
Y1611500*
X1698223Y1609625*
X1697677Y1608500*
X1696859Y1608125*
X1696314*
X1695495Y1608500*
X1695223Y1609250*
X1701223Y1608875D02*
X1700950Y1608500D01*
X1701223Y1608125*
X1701495Y1608500*
X1701223Y1608875*
X1704495Y1616000D02*
X1707495D01*
X1705859Y1613000*
X1706677*
X1707223Y1612625*
X1707495Y1612250*
X1707768Y1611125*
Y1610375*
X1707495Y1609250*
X1706950Y1608500*
X1706132Y1608125*
X1705314*
X1704495Y1608500*
X1704223Y1608875*
X1703950Y1609625*
X1714041Y1616000D02*
X1711314Y1608125D01*
X1710223Y1616000D02*
X1714041D01*
X1781995Y1614125D02*
Y1614500D01*
X1782268Y1615250*
X1782541Y1615625*
X1783086Y1616000*
X1784177*
X1784723Y1615625*
X1784995Y1615250*
X1785268Y1614500*
Y1613750*
X1784995Y1613000*
X1784450Y1611875*
X1781723Y1608125*
X1785541*
X1814677Y1614125D02*
X1826677D01*
X1820677Y1608125D02*
Y1620125D01*
X1825423Y1623425D02*
X1823677Y1617125D01*
X1825423Y1623425D02*
X1827168Y1617125D01*
X1824332Y1619225D02*
X1826514D01*
X1847314Y1616000D02*
X1849495Y1612250D01*
Y1608125*
X1851677Y1616000D02*
X1849495Y1612250D01*
X1854132Y1616000D02*
Y1608125D01*
Y1616000D02*
X1857677D01*
X1854132Y1612250D02*
X1856314D01*
X1854132Y1608125D02*
X1857677D01*
X1863950Y1614875D02*
X1863404Y1615625D01*
X1862586Y1616000*
X1861495*
X1860677Y1615625*
X1860132Y1614875*
Y1614125*
X1860404Y1613375*
X1860677Y1613000*
X1861223Y1612625*
X1862859Y1611875*
X1863404Y1611500*
X1863677Y1611125*
X1863950Y1610375*
Y1609250*
X1863404Y1608500*
X1862586Y1608125*
X1861495*
X1860677Y1608500*
X1860132Y1609250*
X1900495Y1614875D02*
Y1608125D01*
X1898041Y1611500D02*
X1902950D01*
X1910314Y1617500D02*
X1905404Y1605500D01*
X1912768Y1611500D02*
X1917677D01*
X1921768Y1616000D02*
X1920950Y1615625D01*
X1920404Y1614500*
X1920132Y1612625*
Y1611500*
X1920404Y1609625*
X1920950Y1608500*
X1921768Y1608125*
X1922314*
X1923132Y1608500*
X1923677Y1609625*
X1923950Y1611500*
Y1612625*
X1923677Y1614500*
X1923132Y1615625*
X1922314Y1616000*
X1921768*
X1926677Y1608875D02*
X1926404Y1608500D01*
X1926677Y1608125*
X1926950Y1608500*
X1926677Y1608875*
X1931041Y1616000D02*
X1930223Y1615625D01*
X1929677Y1614500*
X1929404Y1612625*
Y1611500*
X1929677Y1609625*
X1930223Y1608500*
X1931041Y1608125*
X1931586*
X1932404Y1608500*
X1932950Y1609625*
X1933223Y1611500*
Y1612625*
X1932950Y1614500*
X1932404Y1615625*
X1931586Y1616000*
X1931041*
X1692223Y1592000D02*
X1689495D01*
X1689223Y1588625*
X1689495Y1589000*
X1690314Y1589375*
X1691132*
X1691950Y1589000*
X1692495Y1588250*
X1692768Y1587125*
X1692495Y1586375*
X1692223Y1585250*
X1691677Y1584500*
X1690859Y1584125*
X1690041*
X1689223Y1584500*
X1688950Y1584875*
X1688677Y1585625*
X1695768Y1592000D02*
X1698768D01*
X1697132Y1589000*
X1697950*
X1698495Y1588625*
X1698768Y1588250*
X1699041Y1587125*
Y1586375*
X1698768Y1585250*
X1698223Y1584500*
X1697404Y1584125*
X1696586*
X1695768Y1584500*
X1695495Y1584875*
X1695223Y1585625*
X1701768Y1584875D02*
X1701495Y1584500D01*
X1701768Y1584125*
X1702041Y1584500*
X1701768Y1584875*
X1704495Y1590500D02*
X1705041Y1590875D01*
X1705859Y1592000*
Y1584125*
X1711859Y1592000D02*
X1709132D01*
X1708859Y1588625*
X1709132Y1589000*
X1709950Y1589375*
X1710768*
X1711586Y1589000*
X1712132Y1588250*
X1712404Y1587125*
X1712132Y1586375*
X1711859Y1585250*
X1711314Y1584500*
X1710495Y1584125*
X1709677*
X1708859Y1584500*
X1708586Y1584875*
X1708314Y1585625*
X1784314Y1592000D02*
X1781586Y1586750D01*
X1785677*
X1784314Y1592000D02*
Y1584125D01*
X1814677Y1590125D02*
X1826677D01*
X1820677Y1584125D02*
Y1596125D01*
X1823677Y1599425D02*
Y1593125D01*
Y1599425D02*
X1825641D01*
X1826295Y1599125*
X1826514Y1598825*
X1826732Y1598225*
Y1597625*
X1826514Y1597025*
X1826295Y1596725*
X1825641Y1596425*
X1823677D02*
X1825641D01*
X1826295Y1596125*
X1826514Y1595825*
X1826732Y1595225*
Y1594325*
X1826514Y1593725*
X1826295Y1593425*
X1825641Y1593125*
X1823677*
X1847314Y1592000D02*
X1849495Y1588250D01*
Y1584125*
X1851677Y1592000D02*
X1849495Y1588250D01*
X1854132Y1592000D02*
Y1584125D01*
Y1592000D02*
X1857677D01*
X1854132Y1588250D02*
X1856314D01*
X1854132Y1584125D02*
X1857677D01*
X1863950Y1590875D02*
X1863404Y1591625D01*
X1862586Y1592000*
X1861495*
X1860677Y1591625*
X1860132Y1590875*
Y1590125*
X1860404Y1589375*
X1860677Y1589000*
X1861223Y1588625*
X1862859Y1587875*
X1863404Y1587500*
X1863677Y1587125*
X1863950Y1586375*
Y1585250*
X1863404Y1584500*
X1862586Y1584125*
X1861495*
X1860677Y1584500*
X1860132Y1585250*
X1900495Y1590875D02*
Y1584125D01*
X1898041Y1587500D02*
X1902950D01*
X1910314Y1593500D02*
X1905404Y1581500D01*
X1912768Y1587500D02*
X1917677D01*
X1921768Y1592000D02*
X1920950Y1591625D01*
X1920404Y1590500*
X1920132Y1588625*
Y1587500*
X1920404Y1585625*
X1920950Y1584500*
X1921768Y1584125*
X1922314*
X1923132Y1584500*
X1923677Y1585625*
X1923950Y1587500*
Y1588625*
X1923677Y1590500*
X1923132Y1591625*
X1922314Y1592000*
X1921768*
X1926677Y1584875D02*
X1926404Y1584500D01*
X1926677Y1584125*
X1926950Y1584500*
X1926677Y1584875*
X1931041Y1592000D02*
X1930223Y1591625D01*
X1929677Y1590500*
X1929404Y1588625*
Y1587500*
X1929677Y1585625*
X1930223Y1584500*
X1931041Y1584125*
X1931586*
X1932404Y1584500*
X1932950Y1585625*
X1933223Y1587500*
Y1588625*
X1932950Y1590500*
X1932404Y1591625*
X1931586Y1592000*
X1931041*
X1689223Y1568000D02*
X1692223D01*
X1690586Y1565000*
X1691404*
X1691950Y1564625*
X1692223Y1564250*
X1692495Y1563125*
Y1562375*
X1692223Y1561250*
X1691677Y1560500*
X1690859Y1560125*
X1690041*
X1689223Y1560500*
X1688950Y1560875*
X1688677Y1561625*
X1695495Y1568000D02*
X1698495D01*
X1696859Y1565000*
X1697677*
X1698223Y1564625*
X1698495Y1564250*
X1698768Y1563125*
Y1562375*
X1698495Y1561250*
X1697950Y1560500*
X1697132Y1560125*
X1696314*
X1695495Y1560500*
X1695223Y1560875*
X1694950Y1561625*
X1701495Y1560875D02*
X1701223Y1560500D01*
X1701495Y1560125*
X1701768Y1560500*
X1701495Y1560875*
X1706950Y1568000D02*
X1704223Y1562750D01*
X1708314*
X1706950Y1568000D02*
Y1560125D01*
X1714041Y1566875D02*
X1713768Y1567625D01*
X1712950Y1568000*
X1712404*
X1711586Y1567625*
X1711041Y1566500*
X1710768Y1564625*
Y1562750*
X1711041Y1561250*
X1711586Y1560500*
X1712404Y1560125*
X1712677*
X1713495Y1560500*
X1714041Y1561250*
X1714314Y1562375*
Y1562750*
X1714041Y1563875*
X1713495Y1564625*
X1712677Y1565000*
X1712404*
X1711586Y1564625*
X1711041Y1563875*
X1710768Y1562750*
X1784314Y1568000D02*
X1781586Y1562750D01*
X1785677*
X1784314Y1568000D02*
Y1560125D01*
X1814677Y1566125D02*
X1826677D01*
X1820677Y1560125D02*
Y1572125D01*
X1826950Y1573925D02*
X1826732Y1574525D01*
X1826295Y1575125*
X1825859Y1575425*
X1824986*
X1824550Y1575125*
X1824114Y1574525*
X1823895Y1573925*
X1823677Y1573025*
Y1571525*
X1823895Y1570625*
X1824114Y1570025*
X1824550Y1569425*
X1824986Y1569125*
X1825859*
X1826295Y1569425*
X1826732Y1570025*
X1826950Y1570625*
X1847314Y1568000D02*
X1849495Y1564250D01*
Y1560125*
X1851677Y1568000D02*
X1849495Y1564250D01*
X1854132Y1568000D02*
Y1560125D01*
Y1568000D02*
X1857677D01*
X1854132Y1564250D02*
X1856314D01*
X1854132Y1560125D02*
X1857677D01*
X1863950Y1566875D02*
X1863404Y1567625D01*
X1862586Y1568000*
X1861495*
X1860677Y1567625*
X1860132Y1566875*
Y1566125*
X1860404Y1565375*
X1860677Y1565000*
X1861223Y1564625*
X1862859Y1563875*
X1863404Y1563500*
X1863677Y1563125*
X1863950Y1562375*
Y1561250*
X1863404Y1560500*
X1862586Y1560125*
X1861495*
X1860677Y1560500*
X1860132Y1561250*
X1900495Y1566875D02*
Y1560125D01*
X1898041Y1563500D02*
X1902950D01*
X1910314Y1569500D02*
X1905404Y1557500D01*
X1912768Y1563500D02*
X1917677D01*
X1921768Y1568000D02*
X1920950Y1567625D01*
X1920404Y1566500*
X1920132Y1564625*
Y1563500*
X1920404Y1561625*
X1920950Y1560500*
X1921768Y1560125*
X1922314*
X1923132Y1560500*
X1923677Y1561625*
X1923950Y1563500*
Y1564625*
X1923677Y1566500*
X1923132Y1567625*
X1922314Y1568000*
X1921768*
X1926677Y1560875D02*
X1926404Y1560500D01*
X1926677Y1560125*
X1926950Y1560500*
X1926677Y1560875*
X1931041Y1568000D02*
X1930223Y1567625D01*
X1929677Y1566500*
X1929404Y1564625*
Y1563500*
X1929677Y1561625*
X1930223Y1560500*
X1931041Y1560125*
X1931586*
X1932404Y1560500*
X1932950Y1561625*
X1933223Y1563500*
Y1564625*
X1932950Y1566500*
X1932404Y1567625*
X1931586Y1568000*
X1931041*
X1692223Y1544000D02*
X1689495D01*
X1689223Y1540625*
X1689495Y1541000*
X1690314Y1541375*
X1691132*
X1691950Y1541000*
X1692495Y1540250*
X1692768Y1539125*
X1692495Y1538375*
X1692223Y1537250*
X1691677Y1536500*
X1690859Y1536125*
X1690041*
X1689223Y1536500*
X1688950Y1536875*
X1688677Y1537625*
X1698768Y1544000D02*
X1696041D01*
X1695768Y1540625*
X1696041Y1541000*
X1696859Y1541375*
X1697677*
X1698495Y1541000*
X1699041Y1540250*
X1699314Y1539125*
X1699041Y1538375*
X1698768Y1537250*
X1698223Y1536500*
X1697404Y1536125*
X1696586*
X1695768Y1536500*
X1695495Y1536875*
X1695223Y1537625*
X1702041Y1536875D02*
X1701768Y1536500D01*
X1702041Y1536125*
X1702314Y1536500*
X1702041Y1536875*
X1704768Y1542500D02*
X1705314Y1542875D01*
X1706132Y1544000*
Y1536125*
X1708859Y1542125D02*
Y1542500D01*
X1709132Y1543250*
X1709404Y1543625*
X1709950Y1544000*
X1711041*
X1711586Y1543625*
X1711859Y1543250*
X1712132Y1542500*
Y1541750*
X1711859Y1541000*
X1711314Y1539875*
X1708586Y1536125*
X1712404*
X1781995Y1542125D02*
Y1542500D01*
X1782268Y1543250*
X1782541Y1543625*
X1783086Y1544000*
X1784177*
X1784723Y1543625*
X1784995Y1543250*
X1785268Y1542500*
Y1541750*
X1784995Y1541000*
X1784450Y1539875*
X1781723Y1536125*
X1785541*
X1814677Y1542125D02*
X1826677D01*
X1820677Y1536125D02*
Y1548125D01*
X1823677Y1551425D02*
Y1545125D01*
Y1551425D02*
X1825204D01*
X1825859Y1551125*
X1826295Y1550525*
X1826514Y1549925*
X1826732Y1549025*
Y1547525*
X1826514Y1546625*
X1826295Y1546025*
X1825859Y1545425*
X1825204Y1545125*
X1823677*
X1847314Y1544000D02*
X1849495Y1540250D01*
Y1536125*
X1851677Y1544000D02*
X1849495Y1540250D01*
X1854132Y1544000D02*
Y1536125D01*
Y1544000D02*
X1857677D01*
X1854132Y1540250D02*
X1856314D01*
X1854132Y1536125D02*
X1857677D01*
X1863950Y1542875D02*
X1863404Y1543625D01*
X1862586Y1544000*
X1861495*
X1860677Y1543625*
X1860132Y1542875*
Y1542125*
X1860404Y1541375*
X1860677Y1541000*
X1861223Y1540625*
X1862859Y1539875*
X1863404Y1539500*
X1863677Y1539125*
X1863950Y1538375*
Y1537250*
X1863404Y1536500*
X1862586Y1536125*
X1861495*
X1860677Y1536500*
X1860132Y1537250*
X1900495Y1542875D02*
Y1536125D01*
X1898041Y1539500D02*
X1902950D01*
X1910314Y1545500D02*
X1905404Y1533500D01*
X1912768Y1539500D02*
X1917677D01*
X1921768Y1544000D02*
X1920950Y1543625D01*
X1920404Y1542500*
X1920132Y1540625*
Y1539500*
X1920404Y1537625*
X1920950Y1536500*
X1921768Y1536125*
X1922314*
X1923132Y1536500*
X1923677Y1537625*
X1923950Y1539500*
Y1540625*
X1923677Y1542500*
X1923132Y1543625*
X1922314Y1544000*
X1921768*
X1926677Y1536875D02*
X1926404Y1536500D01*
X1926677Y1536125*
X1926950Y1536500*
X1926677Y1536875*
X1931041Y1544000D02*
X1930223Y1543625D01*
X1929677Y1542500*
X1929404Y1540625*
Y1539500*
X1929677Y1537625*
X1930223Y1536500*
X1931041Y1536125*
X1931586*
X1932404Y1536500*
X1932950Y1537625*
X1933223Y1539500*
Y1540625*
X1932950Y1542500*
X1932404Y1543625*
X1931586Y1544000*
X1931041*
X1689223Y1520000D02*
X1692223D01*
X1690586Y1517000*
X1691404*
X1691950Y1516625*
X1692223Y1516250*
X1692495Y1515125*
Y1514375*
X1692223Y1513250*
X1691677Y1512500*
X1690859Y1512125*
X1690041*
X1689223Y1512500*
X1688950Y1512875*
X1688677Y1513625*
X1695495Y1520000D02*
X1698495D01*
X1696859Y1517000*
X1697677*
X1698223Y1516625*
X1698495Y1516250*
X1698768Y1515125*
Y1514375*
X1698495Y1513250*
X1697950Y1512500*
X1697132Y1512125*
X1696314*
X1695495Y1512500*
X1695223Y1512875*
X1694950Y1513625*
X1701495Y1512875D02*
X1701223Y1512500D01*
X1701495Y1512125*
X1701768Y1512500*
X1701495Y1512875*
X1706950Y1520000D02*
X1704223Y1514750D01*
X1708314*
X1706950Y1520000D02*
Y1512125D01*
X1714041Y1518875D02*
X1713768Y1519625D01*
X1712950Y1520000*
X1712404*
X1711586Y1519625*
X1711041Y1518500*
X1710768Y1516625*
Y1514750*
X1711041Y1513250*
X1711586Y1512500*
X1712404Y1512125*
X1712677*
X1713495Y1512500*
X1714041Y1513250*
X1714314Y1514375*
Y1514750*
X1714041Y1515875*
X1713495Y1516625*
X1712677Y1517000*
X1712404*
X1711586Y1516625*
X1711041Y1515875*
X1710768Y1514750*
X1783086Y1520000D02*
X1782268Y1519625D01*
X1781995Y1518875*
Y1518125*
X1782268Y1517375*
X1782814Y1517000*
X1783904Y1516625*
X1784723Y1516250*
X1785268Y1515500*
X1785541Y1514750*
Y1513625*
X1785268Y1512875*
X1784995Y1512500*
X1784177Y1512125*
X1783086*
X1782268Y1512500*
X1781995Y1512875*
X1781723Y1513625*
Y1514750*
X1781995Y1515500*
X1782541Y1516250*
X1783359Y1516625*
X1784450Y1517000*
X1784995Y1517375*
X1785268Y1518125*
Y1518875*
X1784995Y1519625*
X1784177Y1520000*
X1783086*
X1814677Y1518125D02*
X1826677D01*
X1820677Y1512125D02*
Y1524125D01*
X1823677Y1527425D02*
Y1521125D01*
Y1527425D02*
X1826514D01*
X1823677Y1524425D02*
X1825423D01*
X1823677Y1521125D02*
X1826514D01*
X1847314Y1520000D02*
X1849495Y1516250D01*
Y1512125*
X1851677Y1520000D02*
X1849495Y1516250D01*
X1854132Y1520000D02*
Y1512125D01*
Y1520000D02*
X1857677D01*
X1854132Y1516250D02*
X1856314D01*
X1854132Y1512125D02*
X1857677D01*
X1863950Y1518875D02*
X1863404Y1519625D01*
X1862586Y1520000*
X1861495*
X1860677Y1519625*
X1860132Y1518875*
Y1518125*
X1860404Y1517375*
X1860677Y1517000*
X1861223Y1516625*
X1862859Y1515875*
X1863404Y1515500*
X1863677Y1515125*
X1863950Y1514375*
Y1513250*
X1863404Y1512500*
X1862586Y1512125*
X1861495*
X1860677Y1512500*
X1860132Y1513250*
X1900495Y1518875D02*
Y1512125D01*
X1898041Y1515500D02*
X1902950D01*
X1910314Y1521500D02*
X1905404Y1509500D01*
X1912768Y1515500D02*
X1917677D01*
X1921768Y1520000D02*
X1920950Y1519625D01*
X1920404Y1518500*
X1920132Y1516625*
Y1515500*
X1920404Y1513625*
X1920950Y1512500*
X1921768Y1512125*
X1922314*
X1923132Y1512500*
X1923677Y1513625*
X1923950Y1515500*
Y1516625*
X1923677Y1518500*
X1923132Y1519625*
X1922314Y1520000*
X1921768*
X1926677Y1512875D02*
X1926404Y1512500D01*
X1926677Y1512125*
X1926950Y1512500*
X1926677Y1512875*
X1931041Y1520000D02*
X1930223Y1519625D01*
X1929677Y1518500*
X1929404Y1516625*
Y1515500*
X1929677Y1513625*
X1930223Y1512500*
X1931041Y1512125*
X1931586*
X1932404Y1512500*
X1932950Y1513625*
X1933223Y1515500*
Y1516625*
X1932950Y1518500*
X1932404Y1519625*
X1931586Y1520000*
X1931041*
X1688677Y1494500D02*
X1689223Y1494875D01*
X1690041Y1496000*
Y1488125*
X1696314Y1496000D02*
X1693586Y1488125D01*
X1692495Y1496000D02*
X1696314D01*
X1702586D02*
X1699859Y1488125D01*
X1698768Y1496000D02*
X1702586D01*
X1705314Y1488875D02*
X1705041Y1488500D01*
X1705314Y1488125*
X1705586Y1488500*
X1705314Y1488875*
X1708041Y1494500D02*
X1708586Y1494875D01*
X1709404Y1496000*
Y1488125*
X1715677Y1496000D02*
X1712950Y1488125D01*
X1711859Y1496000D02*
X1715677D01*
X1784314D02*
X1781586Y1490750D01*
X1785677*
X1784314Y1496000D02*
Y1488125D01*
X1814677Y1494125D02*
X1826677D01*
X1820677Y1488125D02*
Y1500125D01*
X1823677Y1503425D02*
Y1497125D01*
Y1503425D02*
X1826514D01*
X1823677Y1500425D02*
X1825423D01*
X1847314Y1496000D02*
X1849495Y1492250D01*
Y1488125*
X1851677Y1496000D02*
X1849495Y1492250D01*
X1854132Y1496000D02*
Y1488125D01*
Y1496000D02*
X1857677D01*
X1854132Y1492250D02*
X1856314D01*
X1854132Y1488125D02*
X1857677D01*
X1863950Y1494875D02*
X1863404Y1495625D01*
X1862586Y1496000*
X1861495*
X1860677Y1495625*
X1860132Y1494875*
Y1494125*
X1860404Y1493375*
X1860677Y1493000*
X1861223Y1492625*
X1862859Y1491875*
X1863404Y1491500*
X1863677Y1491125*
X1863950Y1490375*
Y1489250*
X1863404Y1488500*
X1862586Y1488125*
X1861495*
X1860677Y1488500*
X1860132Y1489250*
X1900495Y1494875D02*
Y1488125D01*
X1898041Y1491500D02*
X1902950D01*
X1910314Y1497500D02*
X1905404Y1485500D01*
X1912768Y1491500D02*
X1917677D01*
X1921768Y1496000D02*
X1920950Y1495625D01*
X1920404Y1494500*
X1920132Y1492625*
Y1491500*
X1920404Y1489625*
X1920950Y1488500*
X1921768Y1488125*
X1922314*
X1923132Y1488500*
X1923677Y1489625*
X1923950Y1491500*
Y1492625*
X1923677Y1494500*
X1923132Y1495625*
X1922314Y1496000*
X1921768*
X1926677Y1488875D02*
X1926404Y1488500D01*
X1926677Y1488125*
X1926950Y1488500*
X1926677Y1488875*
X1931041Y1496000D02*
X1930223Y1495625D01*
X1929677Y1494500*
X1929404Y1492625*
Y1491500*
X1929677Y1489625*
X1930223Y1488500*
X1931041Y1488125*
X1931586*
X1932404Y1488500*
X1932950Y1489625*
X1933223Y1491500*
Y1492625*
X1932950Y1494500*
X1932404Y1495625*
X1931586Y1496000*
X1931041*
G54D24*
X1982677Y1482125D02*
X1982680D01*
X1982677Y1678975D02*
X1982680D01*
X1982677D02*
X1982680D01*
X2317323D02*
X2317325D01*
G74*
X0Y0D02*
M02*
