%
T1C.0315F197S55
X0053Y0055
X0053Y0075
X0245Y0059
X0245Y0039
T2C.03346F197S55
X0189Y000963
X0189Y008837
X0189Y010063
X0217Y000963
X0217Y008837
X0217Y010063
X0217Y017937
X0189Y017937
T3C.03346F197S55
X014Y003424
X014Y006376
X014Y013224
X014Y016176
T4C.03937F197S55
X004503Y010424
X004897Y013376
T5C.05315F107S55
X0089Y00667
X0089Y010843
X0089Y008757
X0089Y01293
T6C.05512F107S55
X0021Y00685
X0021Y00885
X0021Y01085
X0315Y01085
X0315Y00885
X0315Y00685
X0315Y01285
X0021Y01285
T7C.05512F107S55
X0277Y0013
X0277Y0113
T8C.17717F035S1033
X001969Y001969
X031496Y001969
X031496Y017717
X001969Y017717
M30
