*
*
G04 PADS 9.5 Build Number: 522968 generated Gerber (RS-274-X) file*
G04 PC Version=2.1*
*
%IN "MT-Baseboard V1.2.0 (3)"*%
*
%MOIN*%
*
%FSLAX35Y35*%
*
*
*
*
G04 PC Standard Apertures*
*
*
G04 Thermal Relief Aperture macro.*
%AMTER*
1,1,$1,0,0*
1,0,$1-$2,0,0*
21,0,$3,$4,0,0,45*
21,0,$3,$4,0,0,135*
%
*
*
G04 Annular Aperture macro.*
%AMANN*
1,1,$1,0,0*
1,0,$2,0,0*
%
*
*
G04 Odd Aperture macro.*
%AMODD*
1,1,$1,0,0*
1,0,$1-0.005,0,0*
%
*
*
G04 PC Custom Aperture Macros*
*
*
*
*
*
*
G04 PC Aperture Table*
*
%ADD010C,0.01*%
%ADD012C,0.001*%
%ADD020R,0.03937X0.03937*%
%ADD044R,0.0315X0.0315*%
%ADD100R,0.03858X0.03661*%
%ADD101R,0.02559X0.02362*%
%ADD102O,0.04528X0.00984*%
%ADD103O,0.00984X0.04528*%
%ADD104R,0.12992X0.12992*%
%ADD105R,0.02559X0.02362*%
%ADD106R,0.01575X0.0315*%
%ADD107R,0.01969X0.0315*%
%ADD108R,0.04567X0.05787*%
%ADD109R,0.02362X0.02559*%
%ADD110R,0.01969X0.12598*%
%ADD111R,0.07087X0.12598*%
%ADD116O,0.01X0.065*%
%ADD117R,0.05787X0.04567*%
%ADD119R,0.07874X0.07874*%
%ADD120R,0.02362X0.02559*%
%ADD121R,0.04567X0.10709*%
%ADD122R,0.11811X0.09843*%
%ADD131O,0.009X0.06*%
%ADD132R,0.11811X0.11811*%
%ADD133R,0.0315X0.01575*%
%ADD134R,0.0315X0.01969*%
%ADD135R,0.03661X0.03858*%
%ADD136O,0.024X0.074*%
%ADD137R,0.10799X0.085*%
%ADD138O,0.03937X0.07874*%
%ADD142R,0.11811X0.097*%
%ADD146R,0.036X0.036*%
%ADD147R,0.036X0.05*%
%ADD154R,0.14961X0.11811*%
%ADD157R,0.02756X0.04921*%
%ADD159R,0.04528X0.10039*%
%ADD160R,0.07874X0.08661*%
%ADD162O,0.02559X0.12205*%
%ADD163R,0.10709X0.04567*%
%ADD164R,0.11811X0.09449*%
%ADD169R,0.03346X0.01181*%
%ADD170R,0.01181X0.03346*%
%ADD175R,0.097X0.11811*%
%ADD180R,0.02X0.12*%
%ADD181R,0.08X0.1*%
%ADD182R,0.05512X0.04528*%
%ADD184R,0.04724X0.11024*%
%ADD188R,0.01181X0.04724*%
%ADD189R,0.04724X0.01181*%
%ADD190R,0.09842X0.07874*%
%ADD191R,0.05906X0.02362*%
%ADD192R,0.04724X0.02362*%
%ADD193R,0.07874X0.07874*%
%ADD199R,0.11811X0.14961*%
%ADD201R,0.07087X0.07874*%
%ADD202C,0.00039*%
%ADD208C,0.00787*%
%ADD325R,0.03937X0.12205*%
%ADD326O,0.03937X0.12205*%
%ADD327R,0.37402X0.23622*%
%ADD328O,0.14X0.2*%
%ADD329R,0.11X0.15*%
%ADD331R,0.04449X0.07087*%
%ADD332R,0.09843X0.11811*%
%ADD333R,0.085X0.10799*%
%ADD334R,0.02756X0.05906*%
%ADD335R,0.04724X0.07874*%
%ADD336O,0.02756X0.07087*%
%ADD337R,0.02756X0.07087*%
%ADD354R,0.03543X0.07874*%
*
*
*
*
G04 PC Circuitry*
G04 Layer Name MT-Baseboard V1.2.0 (3) - circuitry*
%LPD*%
*
*
G04 PC Custom Flashes*
G04 Layer Name MT-Baseboard V1.2.0 (3) - flashes*
%LPD*%
*
*
G04 PC Circuitry*
G04 Layer Name MT-Baseboard V1.2.0 (3) - circuitry*
%LPD*%
*
G54D10*
G01X2359218Y1444925D02*
X2360772D01*
X2361464Y1444234*
Y1437955*
X2360772Y1437264*
X2359218*
X2358527Y1437955*
Y1444234*
X2359218Y1444925*
X2358527Y1438094D02*
X2361464D01*
X2358527Y1439094D02*
X2361464D01*
X2358527Y1440094D02*
X2361464D01*
X2358527Y1441094D02*
X2361464D01*
X2358527Y1442094D02*
X2361464D01*
X2358527Y1443094D02*
X2361464D01*
X2358527Y1444094D02*
X2361464D01*
X2358984Y1437498D02*
Y1444691D01*
X2359984Y1437264D02*
Y1444925D01*
X2360984Y1437476D02*
Y1444713D01*
X2347407Y1444925D02*
X2348961D01*
X2349653Y1444234*
Y1437955*
X2348961Y1437264*
X2347407*
X2346716Y1437955*
Y1444234*
X2347407Y1444925*
X2346716Y1438094D02*
X2349653D01*
X2346716Y1439094D02*
X2349653D01*
X2346716Y1440094D02*
X2349653D01*
X2346716Y1441094D02*
X2349653D01*
X2346716Y1442094D02*
X2349653D01*
X2346716Y1443094D02*
X2349653D01*
X2346716Y1444094D02*
X2349653D01*
X2346984Y1437687D02*
Y1444502D01*
X2347984Y1437264D02*
Y1444925D01*
X2348984Y1437287D02*
Y1444902D01*
X2359218Y1514925D02*
X2360772D01*
X2361464Y1514234*
Y1507955*
X2360772Y1507264*
X2359218*
X2358527Y1507955*
Y1514234*
X2359218Y1514925*
X2358527Y1508094D02*
X2361464D01*
X2358527Y1509094D02*
X2361464D01*
X2358527Y1510094D02*
X2361464D01*
X2358527Y1511094D02*
X2361464D01*
X2358527Y1512094D02*
X2361464D01*
X2358527Y1513094D02*
X2361464D01*
X2358527Y1514094D02*
X2361464D01*
X2358984Y1507498D02*
Y1514691D01*
X2359984Y1507264D02*
Y1514925D01*
X2360984Y1507476D02*
Y1514713D01*
X2347407Y1514925D02*
X2348961D01*
X2349653Y1514234*
Y1507955*
X2348961Y1507264*
X2347407*
X2346716Y1507955*
Y1514234*
X2347407Y1514925*
X2346716Y1508094D02*
X2349653D01*
X2346716Y1509094D02*
X2349653D01*
X2346716Y1510094D02*
X2349653D01*
X2346716Y1511094D02*
X2349653D01*
X2346716Y1512094D02*
X2349653D01*
X2346716Y1513094D02*
X2349653D01*
X2346716Y1514094D02*
X2349653D01*
X2346984Y1507687D02*
Y1514502D01*
X2347984Y1507264D02*
Y1514925D01*
X2348984Y1507287D02*
Y1514902D01*
G54D12*
G54D20*
X2354184Y1447594D03*
Y1517594D03*
G54D44*
X2082784Y1690144D03*
Y1696444D03*
X2010984Y1585244D03*
Y1578944D03*
X2003984Y1585244D03*
Y1578944D03*
X2017984Y1585244D03*
Y1578944D03*
X2024984Y1585244D03*
Y1578944D03*
X2059984Y1585244D03*
Y1578944D03*
X2067184Y1585244D03*
Y1578944D03*
X2073984Y1585244D03*
Y1578944D03*
X2080984Y1585244D03*
Y1578944D03*
X2038984Y1585244D03*
Y1578944D03*
X2031984Y1585244D03*
Y1578944D03*
X2045984Y1585244D03*
Y1578944D03*
X2052984Y1585244D03*
Y1578944D03*
X1834984Y1724944D03*
Y1731244D03*
X2076384Y1745244D03*
Y1738944D03*
X2082784Y1690144D03*
Y1696444D03*
X2010984Y1585244D03*
Y1578944D03*
X2003984Y1585244D03*
Y1578944D03*
X2017984Y1585244D03*
Y1578944D03*
X2024984Y1585244D03*
Y1578944D03*
X2059984Y1585244D03*
Y1578944D03*
X2067184Y1585244D03*
Y1578944D03*
X2073984Y1585244D03*
Y1578944D03*
X2080984Y1585244D03*
Y1578944D03*
X2038984Y1585244D03*
Y1578944D03*
X2031984Y1585244D03*
Y1578944D03*
X2045984Y1585244D03*
Y1578944D03*
X2052984Y1585244D03*
Y1578944D03*
X1834984Y1724944D03*
Y1731244D03*
X2076384Y1745244D03*
Y1738944D03*
G54D100*
X2015984Y1802126D03*
Y1796063D03*
X1995984Y1802126D03*
Y1796063D03*
X2142484Y1736563D03*
Y1742626D03*
X1940984Y1501063D03*
Y1507126D03*
X1989984Y1453063D03*
Y1459126D03*
X2041184Y1719926D03*
Y1713863D03*
X2040784Y1501563D03*
Y1507626D03*
X2173984Y1501563D03*
Y1507626D03*
X1738384Y1403126D03*
Y1397063D03*
X1899184Y1439063D03*
Y1445126D03*
X2049184Y1713863D03*
Y1719926D03*
X2311984Y1508126D03*
Y1502063D03*
X2212984Y1610063D03*
Y1616126D03*
X1926984Y1507126D03*
Y1501063D03*
X1940984Y1439063D03*
Y1445126D03*
X1842984Y1502063D03*
Y1508126D03*
X2075984Y1802126D03*
Y1796063D03*
X2095984Y1802126D03*
Y1796063D03*
X2035984Y1802126D03*
Y1796063D03*
X2055984Y1802126D03*
Y1796063D03*
X2117984Y1501563D03*
Y1507626D03*
X1947984Y1445126D03*
Y1439063D03*
X1933984Y1507126D03*
Y1501063D03*
X2147184Y1655126D03*
Y1649063D03*
X2155184Y1599463D03*
Y1605526D03*
X2154784Y1622326D03*
Y1616263D03*
X2092784Y1623526D03*
Y1617463D03*
Y1606726D03*
Y1600663D03*
G54D101*
X1795953Y1477094D03*
X1792016D03*
X1890016Y1470094D03*
X1893953D03*
X2017553Y1682494D03*
X2013616D03*
X1855016Y1456094D03*
X1858953D03*
X1659016Y1449694D03*
X1662953D03*
X1795953Y1484094D03*
X1792016D03*
X1890016Y1491094D03*
X1893953D03*
X1956953Y1477594D03*
X1953016D03*
X1893953Y1477094D03*
X1890016D03*
Y1463094D03*
X1893953D03*
X1658816Y1436894D03*
X1662753D03*
X1659016Y1443294D03*
X1662953D03*
X2184016Y1404094D03*
X2187953D03*
X2142016D03*
X2145953D03*
X2017553Y1675994D03*
X2013616D03*
X1795953Y1463094D03*
X1792016D03*
X1795953Y1456094D03*
X1792016D03*
X1855016Y1470094D03*
X1858953D03*
X1855016Y1477094D03*
X1858953D03*
X1855016Y1491094D03*
X1858953D03*
X1956953Y1470594D03*
X1953016D03*
G54D102*
X1810075Y1484969D03*
Y1483000D03*
Y1481031D03*
Y1479063D03*
Y1477094D03*
Y1475126D03*
Y1473157D03*
Y1471189D03*
Y1469220D03*
X1833894D03*
Y1471189D03*
Y1473157D03*
Y1475126D03*
Y1477094D03*
Y1479063D03*
Y1481031D03*
Y1483000D03*
Y1484969D03*
G54D103*
X1814110Y1465185D03*
X1816079D03*
X1818047D03*
X1820016D03*
X1821984D03*
X1823953D03*
X1825921D03*
X1827890D03*
X1829858D03*
Y1489004D03*
X1827890D03*
X1825921D03*
X1823953D03*
X1821984D03*
X1820016D03*
X1818047D03*
X1816079D03*
X1814110D03*
G54D104*
X1821984Y1477094D03*
G54D105*
X2056784Y1718063D03*
Y1714126D03*
X1707184Y1722463D03*
Y1718526D03*
X1689184Y1398126D03*
Y1402063D03*
X1703184D03*
Y1398126D03*
X1746184Y1441963D03*
Y1438026D03*
X1682384Y1398126D03*
Y1402063D03*
X2131984Y1800863D03*
Y1796926D03*
X2032384Y1426126D03*
Y1430063D03*
X1793384Y1777726D03*
Y1781663D03*
X1717184Y1398126D03*
Y1402063D03*
X1731184D03*
Y1398126D03*
X2242184Y1635726D03*
Y1639663D03*
X2024984Y1426126D03*
Y1430063D03*
X1786384Y1777726D03*
Y1781663D03*
X1778984Y1777726D03*
Y1781663D03*
X1752184Y1441963D03*
Y1438026D03*
X1869584Y1726926D03*
Y1730863D03*
X2017984Y1430063D03*
Y1426126D03*
X2010984D03*
Y1430063D03*
X2003984Y1486063D03*
Y1482126D03*
X1828984Y1440126D03*
Y1444063D03*
X1786984Y1507063D03*
Y1503126D03*
X1793984Y1507063D03*
Y1503126D03*
X1821984D03*
Y1507063D03*
X2233984Y1635726D03*
Y1639663D03*
X1793184Y1726926D03*
Y1730863D03*
X1771984Y1781663D03*
Y1777726D03*
X1836184Y1440126D03*
Y1444063D03*
X1821984Y1440126D03*
Y1444063D03*
X1849984Y1507063D03*
Y1503126D03*
X1730784Y1780063D03*
Y1776126D03*
X1752184Y1451026D03*
Y1454963D03*
X1982784Y1455326D03*
Y1459263D03*
X2233984Y1629263D03*
Y1625326D03*
X2075984Y1692126D03*
Y1696063D03*
G54D106*
X1809896Y1444915D03*
X1805959D03*
X2187896Y1395915D03*
X2183959D03*
X1884296Y1430915D03*
X1880359D03*
X1873296D03*
X1869359D03*
X2145896Y1395915D03*
X2141959D03*
X2084072Y1390274D03*
X2088009D03*
X2107072D03*
X2111009D03*
G54D107*
X1807928Y1439009D03*
X2185928Y1390009D03*
X1882328Y1425009D03*
X1871328D03*
X2143928Y1390009D03*
X2086041Y1396180D03*
X2109041D03*
G54D108*
X2051980Y1478594D03*
X2058988D03*
X1954488Y1724094D03*
X1947480D03*
X2184980Y1478594D03*
X2191988D03*
X2129480D03*
X2136488D03*
X2301480Y1652094D03*
X2308488D03*
G54D109*
X2304984Y1507063D03*
Y1503126D03*
X1891984Y1502126D03*
Y1506063D03*
X1879184Y1444063D03*
Y1440126D03*
X2075984Y1684063D03*
Y1680126D03*
X2045984Y1570063D03*
Y1566126D03*
X2052984Y1570063D03*
Y1566126D03*
X2031984Y1570063D03*
Y1566126D03*
X1918784Y1568063D03*
Y1564126D03*
X2076384Y1732563D03*
Y1728626D03*
X1828784Y1730863D03*
Y1726926D03*
X1906784Y1730863D03*
Y1726926D03*
X2082784Y1680126D03*
Y1684063D03*
X1701184Y1455263D03*
Y1451326D03*
X1749984Y1402063D03*
Y1398126D03*
X1713584Y1718526D03*
Y1722463D03*
X2073984Y1570063D03*
Y1566126D03*
X1866384Y1444063D03*
Y1440126D03*
X1948984Y1502126D03*
Y1506063D03*
X2159984Y1472926D03*
Y1476863D03*
X2297984Y1507063D03*
Y1503126D03*
X2283984Y1507063D03*
Y1503126D03*
X2290984Y1507063D03*
Y1503126D03*
X2248984Y1507063D03*
Y1503126D03*
X2079984Y1517126D03*
Y1521063D03*
X2088984Y1461126D03*
Y1465063D03*
X2101984Y1405126D03*
Y1409063D03*
X2010984Y1570063D03*
Y1566126D03*
X2202984Y1692126D03*
Y1696063D03*
X2196984Y1692126D03*
Y1696063D03*
X2017984Y1570063D03*
Y1566126D03*
X2003984Y1570063D03*
Y1566126D03*
X2024984Y1570063D03*
Y1566126D03*
X2038984Y1570063D03*
Y1566126D03*
X2221184Y1612126D03*
Y1616063D03*
X2242784Y1660463D03*
Y1656526D03*
X2242384Y1625326D03*
Y1629263D03*
X2221184Y1639663D03*
Y1635726D03*
X1745584Y1450926D03*
Y1454863D03*
X1898984Y1502126D03*
Y1506063D03*
X1905984Y1502126D03*
Y1506063D03*
X1724184Y1398126D03*
Y1402063D03*
X2005984Y1740126D03*
Y1744063D03*
X1985984Y1740126D03*
Y1744063D03*
X2172984Y1692126D03*
Y1696063D03*
X2166984Y1692126D03*
Y1696063D03*
X2142984Y1691126D03*
Y1695063D03*
X2136984Y1691126D03*
Y1695063D03*
X2232984Y1692126D03*
Y1696063D03*
X2287984Y1691526D03*
Y1695463D03*
X2263984Y1692126D03*
Y1696063D03*
X2257984Y1692126D03*
Y1696063D03*
X2293984Y1691526D03*
Y1695463D03*
X2226984Y1692126D03*
Y1696063D03*
X2346984Y1629126D03*
Y1633063D03*
X2347184Y1584063D03*
Y1580126D03*
X2353984D03*
Y1584063D03*
X1737984Y1776126D03*
Y1780063D03*
X1723984D03*
Y1776126D03*
X1913984Y1730863D03*
Y1726926D03*
X1921484Y1730863D03*
Y1726926D03*
X1841184Y1730863D03*
Y1726926D03*
X1848384Y1730863D03*
Y1726926D03*
X1855184Y1730863D03*
Y1726926D03*
X1885984Y1730863D03*
Y1726926D03*
X1892984Y1730863D03*
Y1726926D03*
X1862384Y1730863D03*
Y1726926D03*
X1899584Y1730863D03*
Y1726926D03*
X2115984Y1465063D03*
Y1461126D03*
X2108984D03*
Y1465063D03*
X2087984Y1405126D03*
Y1409063D03*
X2080984Y1405126D03*
Y1409063D03*
X2094984Y1405126D03*
Y1409063D03*
X2108984Y1405126D03*
Y1409063D03*
X2116484Y1405126D03*
Y1409063D03*
X2087984Y1517126D03*
Y1521063D03*
X2201584Y1472926D03*
Y1476863D03*
X1814784Y1726926D03*
Y1730863D03*
X1821984Y1726926D03*
Y1730863D03*
X2221184Y1625326D03*
Y1629263D03*
X2318984Y1580126D03*
Y1584063D03*
X2059984Y1570063D03*
Y1566126D03*
X2067184Y1570063D03*
Y1566126D03*
X2080984Y1570063D03*
Y1566126D03*
X1828984Y1503126D03*
Y1507063D03*
X1835984Y1503126D03*
Y1507063D03*
X1800984Y1444063D03*
Y1440126D03*
X1814984Y1444063D03*
Y1440126D03*
X1779984Y1503126D03*
Y1507063D03*
X1856984D03*
Y1503126D03*
X1885584Y1444063D03*
Y1440126D03*
X1891984Y1444063D03*
Y1440126D03*
X1954984Y1502126D03*
Y1506063D03*
X1913384Y1439726D03*
Y1443663D03*
X1920384Y1439726D03*
Y1443663D03*
X1906384Y1439726D03*
Y1443663D03*
X1927384Y1439726D03*
Y1443663D03*
X1912984Y1502126D03*
Y1506063D03*
X1919984D03*
Y1502126D03*
X1663184Y1657326D03*
Y1661263D03*
Y1671263D03*
Y1667326D03*
Y1599326D03*
Y1603263D03*
X1872784Y1444063D03*
Y1440126D03*
X1933984D03*
Y1444063D03*
X2085984Y1740126D03*
Y1744063D03*
X2065984Y1740126D03*
Y1744063D03*
X2045984Y1740126D03*
Y1744063D03*
X2025984Y1740126D03*
Y1744063D03*
X2080784Y1461126D03*
Y1465063D03*
X1710184Y1398126D03*
Y1402063D03*
X1696184Y1398126D03*
Y1402063D03*
G54D110*
X2318797Y1559875D03*
X2317222Y1533891D03*
X2315647Y1559875D03*
X2314072Y1533891D03*
X2312497Y1559875D03*
X2310923Y1533891D03*
X2309348Y1559875D03*
X2307773Y1533891D03*
X2306198Y1559875D03*
X2304623Y1533891D03*
X2303049Y1559875D03*
X2301474Y1533891D03*
X2299899Y1559875D03*
X2298324Y1533891D03*
X2296749Y1559875D03*
X2295175Y1533891D03*
X2281001Y1559875D03*
X2279427Y1533891D03*
X2277852Y1559875D03*
X2276277Y1533891D03*
X2274702Y1559875D03*
X2273127Y1533891D03*
X2271552Y1559875D03*
X2269978Y1533891D03*
X2268403Y1559875D03*
X2266828Y1533891D03*
X2265253Y1559875D03*
X2263678Y1533891D03*
X2262104Y1559875D03*
X2260529Y1533891D03*
X2258954Y1559875D03*
X2257379Y1533891D03*
X2255804Y1559875D03*
X2254230Y1533891D03*
X2252655Y1559875D03*
X2251080Y1533891D03*
X2249505Y1559875D03*
X2247930Y1533891D03*
X2246356Y1559875D03*
X2244781Y1533891D03*
X2243206Y1559875D03*
X2241631Y1533891D03*
X2240056Y1559875D03*
X2238482Y1533891D03*
X2236907Y1559875D03*
X2235332Y1533891D03*
X2233757Y1559875D03*
X2232182Y1533891D03*
X2230608Y1559875D03*
X2229033Y1533891D03*
X2227458Y1559875D03*
X2225883Y1533891D03*
G54D111*
X2328639Y1559875D03*
X2215647D03*
G54D116*
X1732444Y1442844D03*
X1730484D03*
X1728524D03*
X1726564D03*
X1724604D03*
X1722644D03*
X1720684D03*
X1718724D03*
X1716764D03*
X1714804D03*
X1712844D03*
X1710884D03*
X1708924D03*
X1706964D03*
X1705004D03*
X1703044D03*
X1701084D03*
X1699124D03*
X1697164D03*
X1695204D03*
X1693244D03*
X1691284D03*
X1689324D03*
X1687364D03*
X1685404D03*
X1683444D03*
X1681484D03*
X1679524D03*
Y1413344D03*
X1681484D03*
X1683444D03*
X1685404D03*
X1687364D03*
X1689324D03*
X1691284D03*
X1693244D03*
X1695204D03*
X1697164D03*
X1699124D03*
X1701084D03*
X1703044D03*
X1705004D03*
X1706964D03*
X1708924D03*
X1710884D03*
X1712844D03*
X1714804D03*
X1716764D03*
X1718724D03*
X1720684D03*
X1722644D03*
X1724604D03*
X1726564D03*
X1728524D03*
X1730484D03*
X1732444D03*
G54D117*
X2315984Y1727591D03*
Y1734598D03*
X2075984Y1713598D03*
Y1706591D03*
X1842984Y1438591D03*
Y1445598D03*
X1857184Y1418991D03*
Y1425998D03*
Y1445598D03*
Y1438591D03*
X2123184Y1802398D03*
Y1795391D03*
X1760184Y1451491D03*
Y1458498D03*
G54D119*
X1919984Y1477094D03*
X1919984D03*
G54D120*
X1858953Y1463094D03*
X1855016D03*
X1893953Y1484094D03*
X1890016D03*
X1956953Y1484594D03*
X1953016D03*
X1792016Y1470094D03*
X1795953D03*
X1890016Y1456594D03*
X1893953D03*
X2053516Y1506094D03*
X2057453D03*
X2186516D03*
X2190453D03*
X1792016Y1491094D03*
X1795953D03*
X1858953Y1484094D03*
X1855016D03*
X1956953Y1491594D03*
X1953016D03*
X2348953Y1596094D03*
X2345016D03*
X1953016Y1456594D03*
X1956953D03*
X1953016Y1463594D03*
X1956953D03*
X2131016Y1506094D03*
X2134953D03*
G54D121*
X2127177Y1492594D03*
X2138791D03*
X2049677D03*
X2061291D03*
X2182677D03*
X2194291D03*
G54D122*
X2125984Y1639083D03*
Y1662706D03*
G54D131*
X1651430Y1471693D03*
X1653399D03*
X1655367D03*
X1657336D03*
X1659304D03*
X1661273D03*
X1663241D03*
X1665210D03*
X1667178D03*
X1669147D03*
X1671115D03*
X1673084D03*
X1675052D03*
X1677021D03*
X1678989D03*
X1680958D03*
X1682926D03*
X1684895D03*
X1686863D03*
X1688832D03*
X1690800D03*
X1692769D03*
X1694737D03*
X1696706D03*
X1698674D03*
X1700643D03*
X1702611D03*
X1704580D03*
X1706548D03*
X1708517D03*
X1710485D03*
X1712454D03*
X1714422D03*
X1716391D03*
X1718359D03*
X1720328D03*
X1722296D03*
X1724265D03*
X1726233D03*
X1728202D03*
X1730170D03*
X1732139D03*
X1734107D03*
X1736076D03*
X1738045D03*
X1740013D03*
X1741982D03*
X1743950D03*
X1745919D03*
X1747887D03*
X1749856D03*
X1751824D03*
X1753793D03*
X1755761D03*
G54D132*
X1640643Y1483161D03*
X1767927D03*
G54D133*
X1785604Y1457782D03*
Y1461719D03*
G54D134*
X1779699Y1459751D03*
G54D135*
X2012553Y1699494D03*
X2018616D03*
X2012553Y1689994D03*
X2018616D03*
G54D136*
X1730484Y1744094D03*
X1735484D03*
X1740484D03*
X1745484D03*
Y1764094D03*
X1740484D03*
X1735484D03*
X1730484D03*
X2007484Y1445094D03*
X2012484D03*
X2017484D03*
X2022484D03*
X2027484D03*
X2032484D03*
X2037484D03*
X2042484D03*
Y1467094D03*
X2037484D03*
X2032484D03*
X2027484D03*
X2022484D03*
X2017484D03*
X2012484D03*
X2007484D03*
X1797084Y1765094D03*
X1792084D03*
X1787084D03*
X1782084D03*
X1777084D03*
X1772084D03*
X1767084D03*
X1762084D03*
Y1743094D03*
X1767084D03*
X1772084D03*
X1777084D03*
X1782084D03*
X1787084D03*
X1792084D03*
X1797084D03*
X2088484Y1502394D03*
X2083484D03*
X2078484D03*
X2073484D03*
Y1479794D03*
X2078484D03*
X2083484D03*
X2088484D03*
X2116484Y1446394D03*
X2111484D03*
X2106484D03*
X2101484D03*
Y1423794D03*
X2106484D03*
X2111484D03*
X2116484D03*
X2085484Y1446394D03*
X2080484D03*
X2075484D03*
X2070484D03*
Y1423794D03*
X2075484D03*
X2080484D03*
X2085484D03*
X2109484Y1502394D03*
X2104484D03*
X2099484D03*
X2094484D03*
Y1479794D03*
X2099484D03*
X2104484D03*
X2109484D03*
G54D137*
X2035484Y1391394D03*
Y1408795D03*
X2315984Y1768150D03*
Y1750039D03*
X2059984Y1391394D03*
Y1408795D03*
X1989484Y1391394D03*
Y1408795D03*
X2014484Y1391394D03*
Y1408795D03*
X2221984Y1649639D03*
Y1667750D03*
G54D138*
X1995984Y1784094D03*
X1985984D03*
Y1760472D03*
X1995984D03*
X2075984Y1784094D03*
X2065984D03*
Y1760472D03*
X2075984D03*
X2035984Y1784094D03*
X2025984D03*
Y1760472D03*
X2035984D03*
X2095984Y1784094D03*
X2085984D03*
Y1760472D03*
X2095984D03*
X2055984Y1784094D03*
X2045984D03*
Y1760472D03*
X2055984D03*
X2015984Y1784094D03*
X2005984D03*
Y1760472D03*
X2015984D03*
G54D142*
X2187184Y1667780D03*
Y1628409D03*
G54D146*
X2166234Y1704844D03*
X2173734D03*
X1807734Y1732744D03*
X1800234D03*
X2287234Y1704244D03*
X2294734D03*
X1927434Y1724244D03*
X1934934D03*
X2090634Y1687844D03*
X2098134D03*
X2196234Y1704844D03*
X2203734D03*
X2136234Y1703844D03*
X2143734D03*
X2257234Y1704844D03*
X2264734D03*
X2226234Y1703844D03*
X2233734D03*
G54D147*
X2169984Y1713544D03*
X1803984Y1724044D03*
X2290984Y1712944D03*
X1931184Y1732944D03*
X2094384Y1696544D03*
X2199984Y1713544D03*
X2139984Y1712544D03*
X2260984Y1713544D03*
X2229984Y1712544D03*
G54D154*
X2323299Y1704094D03*
X2362669D03*
G54D157*
X1713724Y1783015D03*
X1706244D03*
X1709984Y1773173D03*
G54D159*
X1837575Y1746094D03*
X1847378D03*
X1861378D03*
X1867378D03*
X1877378D03*
X1887378D03*
X1896789Y1746097D03*
X1903378Y1746094D03*
X1828165D03*
X1915984D03*
X1853378D03*
G54D160*
X1920856Y1835894D03*
X1806856Y1832394D03*
G54D162*
X1938484Y1704036D03*
X1938471Y1686122D03*
X1933484Y1704036D03*
X1933471Y1686122D03*
X1928484Y1704036D03*
X1928471Y1686122D03*
X1923484Y1704036D03*
X1923471Y1686122D03*
X1918484Y1704036D03*
X1918471Y1686122D03*
X1913484Y1704036D03*
X1913471Y1686122D03*
X1908484Y1704036D03*
X1908471Y1686122D03*
X1903484Y1704036D03*
X1903471Y1686122D03*
X1898484Y1704036D03*
X1898471Y1686122D03*
X1893484Y1704036D03*
X1893471Y1686122D03*
X1888484Y1704036D03*
X1888471Y1686122D03*
X1883484Y1704036D03*
X1883471Y1686122D03*
X1878484Y1704036D03*
X1878471Y1686122D03*
X1873484Y1704036D03*
X1873471Y1686122D03*
X1868484Y1704036D03*
X1868471Y1686122D03*
X1863484Y1704036D03*
X1863471Y1686122D03*
X1858484Y1704036D03*
X1858471Y1686122D03*
X1853484Y1704036D03*
X1853471Y1686122D03*
X1848484Y1704036D03*
X1848471Y1686122D03*
X1843484Y1704036D03*
X1843471Y1686122D03*
X1838484Y1704036D03*
X1838471Y1686122D03*
X1833484Y1704036D03*
X1833471Y1686122D03*
X1828484Y1704036D03*
X1828471Y1686122D03*
X1823484Y1704036D03*
X1823471Y1686122D03*
X1818484Y1704036D03*
X1818471Y1686122D03*
X1813484Y1704036D03*
X1813471Y1686122D03*
X1808484Y1704036D03*
X1808471Y1686122D03*
X1803484Y1704036D03*
X1803471Y1686122D03*
X1798484Y1704036D03*
X1798471Y1686122D03*
X1793484Y1704036D03*
X1793471Y1686122D03*
X1788484Y1704036D03*
X1788471Y1686122D03*
X1783484Y1704036D03*
X1783471Y1686122D03*
X1778484Y1704036D03*
X1778471Y1686122D03*
X1773484Y1704036D03*
X1773471Y1686122D03*
X1768484Y1704036D03*
X1768471Y1686122D03*
X1763484Y1704036D03*
X1763471Y1686122D03*
X1758484Y1704036D03*
X1758471Y1686122D03*
X1753484Y1704036D03*
X1753471Y1686122D03*
X1748484Y1704036D03*
X1748471Y1686122D03*
X1743484Y1704036D03*
X1743471Y1686122D03*
X1738484Y1704036D03*
X1738471Y1686122D03*
X1733484Y1704036D03*
X1733471Y1686122D03*
X1728484Y1704036D03*
X1728471Y1686122D03*
X1723484Y1704036D03*
X1723471Y1686122D03*
X1718484Y1704036D03*
X1718471Y1686122D03*
X1713484Y1704036D03*
X1713471Y1686122D03*
X1708484Y1704036D03*
X1708471Y1686122D03*
X1703484Y1704036D03*
X1703471Y1686122D03*
X1698484Y1704036D03*
X1698471Y1686122D03*
X1693484Y1704036D03*
X1693471Y1686122D03*
X1938484Y1550493D03*
X1938471Y1532579D03*
X1933484Y1550493D03*
X1933471Y1532579D03*
X1928484Y1550493D03*
X1928471Y1532579D03*
X1923484Y1550493D03*
X1923471Y1532579D03*
X1918484Y1550493D03*
X1918471Y1532579D03*
X1913484Y1550493D03*
X1913471Y1532579D03*
X1908484Y1550493D03*
X1908471Y1532579D03*
X1903484Y1550493D03*
X1903471Y1532579D03*
X1898484Y1550493D03*
X1898471Y1532579D03*
X1893484Y1550493D03*
X1893471Y1532579D03*
X1888484Y1550493D03*
X1888471Y1532579D03*
X1883484Y1550493D03*
X1883471Y1532579D03*
X1878484Y1550493D03*
X1878471Y1532579D03*
X1873484Y1550493D03*
X1873471Y1532579D03*
X1868484Y1550493D03*
X1868471Y1532579D03*
X1863484Y1550493D03*
X1863471Y1532579D03*
X1858484Y1550493D03*
X1858471Y1532579D03*
X1853484Y1550493D03*
X1853471Y1532579D03*
X1848484Y1550493D03*
X1848471Y1532579D03*
X1843484Y1550493D03*
X1843471Y1532579D03*
X1838484Y1550493D03*
X1838471Y1532579D03*
X1833484Y1550493D03*
X1833471Y1532579D03*
X1828484Y1550493D03*
X1828471Y1532579D03*
X1823484Y1550493D03*
X1823471Y1532579D03*
X1818484Y1550493D03*
X1818471Y1532579D03*
X1813484Y1550493D03*
X1813471Y1532579D03*
X1808484Y1550493D03*
X1808471Y1532579D03*
X1803484Y1550493D03*
X1803471Y1532579D03*
X1798484Y1550493D03*
X1798471Y1532579D03*
X1793484Y1550493D03*
X1793471Y1532579D03*
X1788484Y1550493D03*
X1788471Y1532579D03*
X1783484Y1550493D03*
X1783471Y1532579D03*
X1778484Y1550493D03*
X1778471Y1532579D03*
X1773484Y1550493D03*
X1773471Y1532579D03*
X1768484Y1550493D03*
X1768471Y1532579D03*
X1763484Y1550493D03*
X1763471Y1532579D03*
X1758484Y1550493D03*
X1758471Y1532579D03*
X1753484Y1550493D03*
X1753471Y1532579D03*
X1748484Y1550493D03*
X1748471Y1532579D03*
X1743484Y1550493D03*
X1743471Y1532579D03*
X1738484Y1550493D03*
X1738471Y1532579D03*
X1733484Y1550493D03*
X1733471Y1532579D03*
X1728484Y1550493D03*
X1728471Y1532579D03*
X1723484Y1550493D03*
X1723471Y1532579D03*
X1718484Y1550493D03*
X1718471Y1532579D03*
X1713484Y1550493D03*
X1713471Y1532579D03*
X1708484Y1550493D03*
X1708471Y1532579D03*
X1703484Y1550493D03*
X1703471Y1532579D03*
X1698484Y1550493D03*
X1698471Y1532579D03*
X1693484Y1550493D03*
X1693471Y1532579D03*
G54D163*
X2109984Y1804702D03*
Y1793087D03*
X2309984Y1676902D03*
Y1665287D03*
G54D164*
X2236984Y1589311D03*
Y1613878D03*
X2353984Y1559378D03*
Y1534811D03*
G54D169*
X1927465Y1472173D03*
Y1474142D03*
Y1476110D03*
Y1478079D03*
Y1480047D03*
Y1482016D03*
X1912504D03*
Y1480047D03*
Y1478079D03*
Y1476110D03*
Y1474142D03*
Y1472173D03*
G54D170*
X1924906Y1484575D03*
X1922937D03*
X1920969D03*
X1919000D03*
X1917031D03*
X1915063D03*
Y1469614D03*
X1917031D03*
X1919000D03*
X1920969D03*
X1922937D03*
X1924906D03*
G54D175*
X2261299Y1596094D03*
X2300669D03*
X2326299Y1662094D03*
X2365669D03*
G54D180*
X1867685Y1379114D03*
X1870835Y1379094D03*
X1873984D03*
X1877134D03*
X1880283D03*
G54D181*
X1856386Y1374290D03*
X1891386D03*
X1856563Y1353818D03*
X1891602D03*
G54D182*
X1812315Y1508244D03*
X1803654D03*
Y1501945D03*
X1812315D03*
G54D184*
X2332283Y1784094D03*
X2319685D03*
G54D188*
X2058950Y1705735D03*
X2056982D03*
X2055013D03*
X2053045D03*
X2051076D03*
X2049108D03*
X2047139D03*
X2045171D03*
X2043202D03*
X2041234D03*
X2039265D03*
X2037297D03*
Y1672270D03*
X2039265D03*
X2041234D03*
X2043202D03*
X2045171D03*
X2047139D03*
X2049108D03*
X2051076D03*
X2053045D03*
X2055013D03*
X2056982D03*
X2058950D03*
G54D189*
X2064856Y1678176D03*
Y1680144D03*
Y1682113D03*
Y1684081D03*
Y1686050D03*
Y1688018D03*
Y1689987D03*
Y1691955D03*
Y1693924D03*
Y1695892D03*
Y1697861D03*
Y1699829D03*
X2031391D03*
Y1697861D03*
Y1695892D03*
Y1693924D03*
Y1691955D03*
Y1689987D03*
Y1688018D03*
Y1686050D03*
Y1684081D03*
Y1682113D03*
Y1680144D03*
Y1678176D03*
G54D190*
X1992984Y1491968D03*
X1972984D03*
Y1476220D03*
X1992984D03*
G54D191*
X2358402Y1604594D03*
Y1609594D03*
Y1614594D03*
Y1619594D03*
X2335567D03*
Y1614594D03*
Y1609594D03*
Y1604594D03*
X2258567Y1666594D03*
Y1661594D03*
Y1656594D03*
Y1651594D03*
X2281402D03*
Y1656594D03*
Y1661594D03*
Y1666594D03*
G54D192*
X2346984Y1612094D03*
X2269984Y1659094D03*
G54D193*
X2184984Y1711756D03*
Y1694433D03*
X2154984Y1711756D03*
Y1694433D03*
X2214984Y1711756D03*
Y1694433D03*
X2275984Y1711156D03*
Y1693833D03*
X2245984Y1711756D03*
Y1694433D03*
X2124984Y1710756D03*
Y1693433D03*
G54D199*
X2187184Y1604980D03*
Y1565609D03*
G54D201*
X2158984Y1454583D03*
X2148984D03*
X2138984D03*
X2128984D03*
Y1415606D03*
X2138984D03*
X2148984D03*
X2158984D03*
X2200984Y1454583D03*
X2190984D03*
X2180984D03*
X2170984D03*
Y1415606D03*
X2180984D03*
X2190984D03*
X2200984D03*
G54D202*
X2341886Y1606012D02*
X2350716D01*
X2352083Y1607378*
Y1618177*
X2341886*
Y1606012*
Y1618177*
X2341906Y1606012D02*
Y1618177D01*
X2341925Y1606012D02*
Y1618177D01*
X2341945Y1606012D02*
Y1618177D01*
X2341965Y1606012D02*
Y1618177D01*
X2341984Y1606012D02*
Y1618177D01*
X2342004Y1606012D02*
Y1618177D01*
X2342024Y1606012D02*
Y1618177D01*
X2342043Y1606012D02*
Y1618177D01*
X2342063Y1606012D02*
Y1618177D01*
X2342083Y1606012D02*
Y1618177D01*
X2342102Y1606012D02*
Y1618177D01*
X2342122Y1606012D02*
Y1618177D01*
X2342142Y1606012D02*
Y1618177D01*
X2342161Y1606012D02*
Y1618177D01*
X2342181Y1606012D02*
Y1618177D01*
X2342201Y1606012D02*
Y1618177D01*
X2342220Y1606012D02*
Y1618177D01*
X2342240Y1606012D02*
Y1618177D01*
X2342260Y1606012D02*
Y1618177D01*
X2342280Y1606012D02*
Y1618177D01*
X2342299Y1606012D02*
Y1618177D01*
X2342319Y1606012D02*
Y1618177D01*
X2342339Y1606012D02*
Y1618177D01*
X2342358Y1606012D02*
Y1618177D01*
X2342378Y1606012D02*
Y1618177D01*
X2342398Y1606012D02*
Y1618177D01*
X2342417Y1606012D02*
Y1618177D01*
X2342437Y1606012D02*
Y1618177D01*
X2342457Y1606012D02*
Y1618177D01*
X2342476Y1606012D02*
Y1618177D01*
X2342496Y1606012D02*
Y1618177D01*
X2342516Y1606012D02*
Y1618177D01*
X2342535Y1606012D02*
Y1618177D01*
X2342555Y1606012D02*
Y1618177D01*
X2342575Y1606012D02*
Y1618177D01*
X2342594Y1606012D02*
Y1618177D01*
X2342614Y1606012D02*
Y1618177D01*
X2342634Y1606012D02*
Y1618177D01*
X2342654Y1606012D02*
Y1618177D01*
X2342673Y1606012D02*
Y1618177D01*
X2342693Y1606012D02*
Y1618177D01*
X2342713Y1606012D02*
Y1618177D01*
X2342732Y1606012D02*
Y1618177D01*
X2342752Y1606012D02*
Y1618177D01*
X2342772Y1606012D02*
Y1618177D01*
X2342791Y1606012D02*
Y1618177D01*
X2342811Y1606012D02*
Y1618177D01*
X2342831Y1606012D02*
Y1618177D01*
X2342850Y1606012D02*
Y1618177D01*
X2342870Y1606012D02*
Y1618177D01*
X2342890Y1606012D02*
Y1618177D01*
X2342909Y1606012D02*
Y1618177D01*
X2342929Y1606012D02*
Y1618177D01*
X2342949Y1606012D02*
Y1618177D01*
X2342969Y1606012D02*
Y1618177D01*
X2342988Y1606012D02*
Y1618177D01*
X2343008Y1606012D02*
Y1618177D01*
X2343028Y1606012D02*
Y1618177D01*
X2343047Y1606012D02*
Y1618177D01*
X2343067Y1606012D02*
Y1618177D01*
X2343087Y1606012D02*
Y1618177D01*
X2343106Y1606012D02*
Y1618177D01*
X2343126Y1606012D02*
Y1618177D01*
X2343146Y1606012D02*
Y1618177D01*
X2343165Y1606012D02*
Y1618177D01*
X2343185Y1606012D02*
Y1618177D01*
X2343205Y1606012D02*
Y1618177D01*
X2343224Y1606012D02*
Y1618177D01*
X2343244Y1606012D02*
Y1618177D01*
X2343264Y1606012D02*
Y1618177D01*
X2343283Y1606012D02*
Y1618177D01*
X2343303Y1606012D02*
Y1618177D01*
X2343323Y1606012D02*
Y1618177D01*
X2343343Y1606012D02*
Y1618177D01*
X2343362Y1606012D02*
Y1618177D01*
X2343382Y1606012D02*
Y1618177D01*
X2343402Y1606012D02*
Y1618177D01*
X2343421Y1606012D02*
Y1618177D01*
X2343441Y1606012D02*
Y1618177D01*
X2343461Y1606012D02*
Y1618177D01*
X2343480Y1606012D02*
Y1618177D01*
X2343500Y1606012D02*
Y1618177D01*
X2343520Y1606012D02*
Y1618177D01*
X2343539Y1606012D02*
Y1618177D01*
X2343559Y1606012D02*
Y1618177D01*
X2343579Y1606012D02*
Y1618177D01*
X2343598Y1606012D02*
Y1618177D01*
X2343618Y1606012D02*
Y1618177D01*
X2343638Y1606012D02*
Y1618177D01*
X2343657Y1606012D02*
Y1618177D01*
X2343677Y1606012D02*
Y1618177D01*
X2343697Y1606012D02*
Y1618177D01*
X2343717Y1606012D02*
Y1618177D01*
X2343736Y1606012D02*
Y1618177D01*
X2343756Y1606012D02*
Y1618177D01*
X2343776Y1606012D02*
Y1618177D01*
X2343795Y1606012D02*
Y1618177D01*
X2343815Y1606012D02*
Y1618177D01*
X2343835Y1606012D02*
Y1618177D01*
X2343854Y1606012D02*
Y1618177D01*
X2343874Y1606012D02*
Y1618177D01*
X2343894Y1606012D02*
Y1618177D01*
X2343913Y1606012D02*
Y1618177D01*
X2343933Y1606012D02*
Y1618177D01*
X2343953Y1606012D02*
Y1618177D01*
X2343972Y1606012D02*
Y1618177D01*
X2343992Y1606012D02*
Y1618177D01*
X2344012Y1606012D02*
Y1618177D01*
X2344031Y1606012D02*
Y1618177D01*
X2344051Y1606012D02*
Y1618177D01*
X2344071Y1606012D02*
Y1618177D01*
X2344091Y1606012D02*
Y1618177D01*
X2344110Y1606012D02*
Y1618177D01*
X2344130Y1606012D02*
Y1618177D01*
X2344150Y1606012D02*
Y1618177D01*
X2344169Y1606012D02*
Y1618177D01*
X2344189Y1606012D02*
Y1618177D01*
X2344209Y1606012D02*
Y1618177D01*
X2344228Y1606012D02*
Y1618177D01*
X2344248Y1606012D02*
Y1618177D01*
X2344268Y1606012D02*
Y1618177D01*
X2344287Y1606012D02*
Y1618177D01*
X2344307Y1606012D02*
Y1618177D01*
X2344327Y1606012D02*
Y1618177D01*
X2344346Y1606012D02*
Y1618177D01*
X2344366Y1606012D02*
Y1618177D01*
X2344386Y1606012D02*
Y1618177D01*
X2344406Y1606012D02*
Y1618177D01*
X2344425Y1606012D02*
Y1618177D01*
X2344445Y1606012D02*
Y1618177D01*
X2344465Y1606012D02*
Y1618177D01*
X2344484Y1606012D02*
Y1618177D01*
X2344504Y1606012D02*
Y1618177D01*
X2344524Y1606012D02*
Y1618177D01*
X2344543Y1606012D02*
Y1618177D01*
X2344563Y1606012D02*
Y1618177D01*
X2344583Y1606012D02*
Y1618177D01*
X2344602Y1606012D02*
Y1618177D01*
X2344622Y1606012D02*
Y1618177D01*
X2344642Y1606012D02*
Y1618177D01*
X2344661Y1606012D02*
Y1618177D01*
X2344681Y1606012D02*
Y1618177D01*
X2344701Y1606012D02*
Y1618177D01*
X2344720Y1606012D02*
Y1618177D01*
X2344740Y1606012D02*
Y1618177D01*
X2344760Y1606012D02*
Y1618177D01*
X2344780Y1606012D02*
Y1618177D01*
X2344799Y1606012D02*
Y1618177D01*
X2344819Y1606012D02*
Y1618177D01*
X2344839Y1606012D02*
Y1618177D01*
X2344858Y1606012D02*
Y1618177D01*
X2344878Y1606012D02*
Y1618177D01*
X2344898Y1606012D02*
Y1618177D01*
X2344917Y1606012D02*
Y1618177D01*
X2344937Y1606012D02*
Y1618177D01*
X2344957Y1606012D02*
Y1618177D01*
X2344976Y1606012D02*
Y1618177D01*
X2344996Y1606012D02*
Y1618177D01*
X2345016Y1606012D02*
Y1618177D01*
X2345035Y1606012D02*
Y1618177D01*
X2345055Y1606012D02*
Y1618177D01*
X2345075Y1606012D02*
Y1618177D01*
X2345094Y1606012D02*
Y1618177D01*
X2345114Y1606012D02*
Y1618177D01*
X2345134Y1606012D02*
Y1618177D01*
X2345154Y1606012D02*
Y1618177D01*
X2345173Y1606012D02*
Y1618177D01*
X2345193Y1606012D02*
Y1618177D01*
X2345213Y1606012D02*
Y1618177D01*
X2345232Y1606012D02*
Y1618177D01*
X2345252Y1606012D02*
Y1618177D01*
X2345272Y1606012D02*
Y1618177D01*
X2345291Y1606012D02*
Y1618177D01*
X2345311Y1606012D02*
Y1618177D01*
X2345331Y1606012D02*
Y1618177D01*
X2345350Y1606012D02*
Y1618177D01*
X2345370Y1606012D02*
Y1618177D01*
X2345390Y1606012D02*
Y1618177D01*
X2345409Y1606012D02*
Y1618177D01*
X2345429Y1606012D02*
Y1618177D01*
X2345449Y1606012D02*
Y1618177D01*
X2345469Y1606012D02*
Y1618177D01*
X2345488Y1606012D02*
Y1618177D01*
X2345508Y1606012D02*
Y1618177D01*
X2345528Y1606012D02*
Y1618177D01*
X2345547Y1606012D02*
Y1618177D01*
X2345567Y1606012D02*
Y1618177D01*
X2345587Y1606012D02*
Y1618177D01*
X2345606Y1606012D02*
Y1618177D01*
X2345626Y1606012D02*
Y1618177D01*
X2345646Y1606012D02*
Y1618177D01*
X2345665Y1606012D02*
Y1618177D01*
X2345685Y1606012D02*
Y1618177D01*
X2345705Y1606012D02*
Y1618177D01*
X2345724Y1606012D02*
Y1618177D01*
X2345744Y1606012D02*
Y1618177D01*
X2345764Y1606012D02*
Y1618177D01*
X2345783Y1606012D02*
Y1618177D01*
X2345803Y1606012D02*
Y1618177D01*
X2345823Y1606012D02*
Y1618177D01*
X2345843Y1606012D02*
Y1618177D01*
X2345862Y1606012D02*
Y1618177D01*
X2345882Y1606012D02*
Y1618177D01*
X2345902Y1606012D02*
Y1618177D01*
X2345921Y1606012D02*
Y1618177D01*
X2345941Y1606012D02*
Y1618177D01*
X2345961Y1606012D02*
Y1618177D01*
X2345980Y1606012D02*
Y1618177D01*
X2346000Y1606012D02*
Y1618177D01*
X2346020Y1606012D02*
Y1618177D01*
X2346039Y1606012D02*
Y1618177D01*
X2346059Y1606012D02*
Y1618177D01*
X2346079Y1606012D02*
Y1618177D01*
X2346098Y1606012D02*
Y1618177D01*
X2346118Y1606012D02*
Y1618177D01*
X2346138Y1606012D02*
Y1618177D01*
X2346157Y1606012D02*
Y1618177D01*
X2346177Y1606012D02*
Y1618177D01*
X2346197Y1606012D02*
Y1618177D01*
X2346217Y1606012D02*
Y1618177D01*
X2346236Y1606012D02*
Y1618177D01*
X2346256Y1606012D02*
Y1618177D01*
X2346276Y1606012D02*
Y1618177D01*
X2346295Y1606012D02*
Y1618177D01*
X2346315Y1606012D02*
Y1618177D01*
X2346335Y1606012D02*
Y1618177D01*
X2346354Y1606012D02*
Y1618177D01*
X2346374Y1606012D02*
Y1618177D01*
X2346394Y1606012D02*
Y1618177D01*
X2346413Y1606012D02*
Y1618177D01*
X2346433Y1606012D02*
Y1618177D01*
X2346453Y1606012D02*
Y1618177D01*
X2346472Y1606012D02*
Y1618177D01*
X2346492Y1606012D02*
Y1618177D01*
X2346512Y1606012D02*
Y1618177D01*
X2346531Y1606012D02*
Y1618177D01*
X2346551Y1606012D02*
Y1618177D01*
X2346571Y1606012D02*
Y1618177D01*
X2346591Y1606012D02*
Y1618177D01*
X2346610Y1606012D02*
Y1618177D01*
X2346630Y1606012D02*
Y1618177D01*
X2346650Y1606012D02*
Y1618177D01*
X2346669Y1606012D02*
Y1618177D01*
X2346689Y1606012D02*
Y1618177D01*
X2346709Y1606012D02*
Y1618177D01*
X2346728Y1606012D02*
Y1618177D01*
X2346748Y1606012D02*
Y1618177D01*
X2346768Y1606012D02*
Y1618177D01*
X2346787Y1606012D02*
Y1618177D01*
X2346807Y1606012D02*
Y1618177D01*
X2346827Y1606012D02*
Y1618177D01*
X2346846Y1606012D02*
Y1618177D01*
X2346866Y1606012D02*
Y1618177D01*
X2346886Y1606012D02*
Y1618177D01*
X2346906Y1606012D02*
Y1618177D01*
X2346925Y1606012D02*
Y1618177D01*
X2346945Y1606012D02*
Y1618177D01*
X2346965Y1606012D02*
Y1618177D01*
X2346984Y1606012D02*
Y1618177D01*
X2347004Y1606012D02*
Y1618177D01*
X2347024Y1606012D02*
Y1618177D01*
X2347043Y1606012D02*
Y1618177D01*
X2347063Y1606012D02*
Y1618177D01*
X2347083Y1606012D02*
Y1618177D01*
X2347102Y1606012D02*
Y1618177D01*
X2347122Y1606012D02*
Y1618177D01*
X2347142Y1606012D02*
Y1618177D01*
X2347161Y1606012D02*
Y1618177D01*
X2347181Y1606012D02*
Y1618177D01*
X2347201Y1606012D02*
Y1618177D01*
X2347220Y1606012D02*
Y1618177D01*
X2347240Y1606012D02*
Y1618177D01*
X2347260Y1606012D02*
Y1618177D01*
X2347280Y1606012D02*
Y1618177D01*
X2347299Y1606012D02*
Y1618177D01*
X2347319Y1606012D02*
Y1618177D01*
X2347339Y1606012D02*
Y1618177D01*
X2347358Y1606012D02*
Y1618177D01*
X2347378Y1606012D02*
Y1618177D01*
X2347398Y1606012D02*
Y1618177D01*
X2347417Y1606012D02*
Y1618177D01*
X2347437Y1606012D02*
Y1618177D01*
X2347457Y1606012D02*
Y1618177D01*
X2347476Y1606012D02*
Y1618177D01*
X2347496Y1606012D02*
Y1618177D01*
X2347516Y1606012D02*
Y1618177D01*
X2347535Y1606012D02*
Y1618177D01*
X2347555Y1606012D02*
Y1618177D01*
X2347575Y1606012D02*
Y1618177D01*
X2347594Y1606012D02*
Y1618177D01*
X2347614Y1606012D02*
Y1618177D01*
X2347634Y1606012D02*
Y1618177D01*
X2347654Y1606012D02*
Y1618177D01*
X2347673Y1606012D02*
Y1618177D01*
X2347693Y1606012D02*
Y1618177D01*
X2347713Y1606012D02*
Y1618177D01*
X2347732Y1606012D02*
Y1618177D01*
X2347752Y1606012D02*
Y1618177D01*
X2347772Y1606012D02*
Y1618177D01*
X2347791Y1606012D02*
Y1618177D01*
X2347811Y1606012D02*
Y1618177D01*
X2347831Y1606012D02*
Y1618177D01*
X2347850Y1606012D02*
Y1618177D01*
X2347870Y1606012D02*
Y1618177D01*
X2347890Y1606012D02*
Y1618177D01*
X2347909Y1606012D02*
Y1618177D01*
X2347929Y1606012D02*
Y1618177D01*
X2347949Y1606012D02*
Y1618177D01*
X2347969Y1606012D02*
Y1618177D01*
X2347988Y1606012D02*
Y1618177D01*
X2348008Y1606012D02*
Y1618177D01*
X2348028Y1606012D02*
Y1618177D01*
X2348047Y1606012D02*
Y1618177D01*
X2348067Y1606012D02*
Y1618177D01*
X2348087Y1606012D02*
Y1618177D01*
X2348106Y1606012D02*
Y1618177D01*
X2348126Y1606012D02*
Y1618177D01*
X2348146Y1606012D02*
Y1618177D01*
X2348165Y1606012D02*
Y1618177D01*
X2348185Y1606012D02*
Y1618177D01*
X2348205Y1606012D02*
Y1618177D01*
X2348224Y1606012D02*
Y1618177D01*
X2348244Y1606012D02*
Y1618177D01*
X2348264Y1606012D02*
Y1618177D01*
X2348283Y1606012D02*
Y1618177D01*
X2348303Y1606012D02*
Y1618177D01*
X2348323Y1606012D02*
Y1618177D01*
X2348343Y1606012D02*
Y1618177D01*
X2348362Y1606012D02*
Y1618177D01*
X2348382Y1606012D02*
Y1618177D01*
X2348402Y1606012D02*
Y1618177D01*
X2348421Y1606012D02*
Y1618177D01*
X2348441Y1606012D02*
Y1618177D01*
X2348461Y1606012D02*
Y1618177D01*
X2348480Y1606012D02*
Y1618177D01*
X2348500Y1606012D02*
Y1618177D01*
X2348520Y1606012D02*
Y1618177D01*
X2348539Y1606012D02*
Y1618177D01*
X2348559Y1606012D02*
Y1618177D01*
X2348579Y1606012D02*
Y1618177D01*
X2348598Y1606012D02*
Y1618177D01*
X2348618Y1606012D02*
Y1618177D01*
X2348638Y1606012D02*
Y1618177D01*
X2348657Y1606012D02*
Y1618177D01*
X2348677Y1606012D02*
Y1618177D01*
X2348697Y1606012D02*
Y1618177D01*
X2348717Y1606012D02*
Y1618177D01*
X2348736Y1606012D02*
Y1618177D01*
X2348756Y1606012D02*
Y1618177D01*
X2348776Y1606012D02*
Y1618177D01*
X2348795Y1606012D02*
Y1618177D01*
X2348815Y1606012D02*
Y1618177D01*
X2348835Y1606012D02*
Y1618177D01*
X2348854Y1606012D02*
Y1618177D01*
X2348874Y1606012D02*
Y1618177D01*
X2348894Y1606012D02*
Y1618177D01*
X2348913Y1606012D02*
Y1618177D01*
X2348933Y1606012D02*
Y1618177D01*
X2348953Y1606012D02*
Y1618177D01*
X2348972Y1606012D02*
Y1618177D01*
X2348992Y1606012D02*
Y1618177D01*
X2349012Y1606012D02*
Y1618177D01*
X2349031Y1606012D02*
Y1618177D01*
X2349051Y1606012D02*
Y1618177D01*
X2349071Y1606012D02*
Y1618177D01*
X2349091Y1606012D02*
Y1618177D01*
X2349110Y1606012D02*
Y1618177D01*
X2349130Y1606012D02*
Y1618177D01*
X2349150Y1606012D02*
Y1618177D01*
X2349169Y1606012D02*
Y1618177D01*
X2349189Y1606012D02*
Y1618177D01*
X2349209Y1606012D02*
Y1618177D01*
X2349228Y1606012D02*
Y1618177D01*
X2349248Y1606012D02*
Y1618177D01*
X2349268Y1606012D02*
Y1618177D01*
X2349287Y1606012D02*
Y1618177D01*
X2349307Y1606012D02*
Y1618177D01*
X2349327Y1606012D02*
Y1618177D01*
X2349346Y1606012D02*
Y1618177D01*
X2349366Y1606012D02*
Y1618177D01*
X2349386Y1606012D02*
Y1618177D01*
X2349406Y1606012D02*
Y1618177D01*
X2349425Y1606012D02*
Y1618177D01*
X2349445Y1606012D02*
Y1618177D01*
X2349465Y1606012D02*
Y1618177D01*
X2349484Y1606012D02*
Y1618177D01*
X2349504Y1606012D02*
Y1618177D01*
X2349524Y1606012D02*
Y1618177D01*
X2349543Y1606012D02*
Y1618177D01*
X2349563Y1606012D02*
Y1618177D01*
X2349583Y1606012D02*
Y1618177D01*
X2349602Y1606012D02*
Y1618177D01*
X2349622Y1606012D02*
Y1618177D01*
X2349642Y1606012D02*
Y1618177D01*
X2349661Y1606012D02*
Y1618177D01*
X2349681Y1606012D02*
Y1618177D01*
X2349701Y1606012D02*
Y1618177D01*
X2349720Y1606012D02*
Y1618177D01*
X2349740Y1606012D02*
Y1618177D01*
X2349760Y1606012D02*
Y1618177D01*
X2349780Y1606012D02*
Y1618177D01*
X2349799Y1606012D02*
Y1618177D01*
X2349819Y1606012D02*
Y1618177D01*
X2349839Y1606012D02*
Y1618177D01*
X2349858Y1606012D02*
Y1618177D01*
X2349878Y1606012D02*
Y1618177D01*
X2349898Y1606012D02*
Y1618177D01*
X2349917Y1606012D02*
Y1618177D01*
X2349937Y1606012D02*
Y1618177D01*
X2349957Y1606012D02*
Y1618177D01*
X2349976Y1606012D02*
Y1618177D01*
X2349996Y1606012D02*
Y1618177D01*
X2350016Y1606012D02*
Y1618177D01*
X2350035Y1606012D02*
Y1618177D01*
X2350055Y1606012D02*
Y1618177D01*
X2350075Y1606012D02*
Y1618177D01*
X2350094Y1606012D02*
Y1618177D01*
X2350114Y1606012D02*
Y1618177D01*
X2350134Y1606012D02*
Y1618177D01*
X2350154Y1606012D02*
Y1618177D01*
X2350173Y1606012D02*
Y1618177D01*
X2350193Y1606012D02*
Y1618177D01*
X2350213Y1606012D02*
Y1618177D01*
X2350232Y1606012D02*
Y1618177D01*
X2350252Y1606012D02*
Y1618177D01*
X2350272Y1606012D02*
Y1618177D01*
X2350291Y1606012D02*
Y1618177D01*
X2350311Y1606012D02*
Y1618177D01*
X2350331Y1606012D02*
Y1618177D01*
X2350350Y1606012D02*
Y1618177D01*
X2350370Y1606012D02*
Y1618177D01*
X2350390Y1606012D02*
Y1618177D01*
X2350409Y1606012D02*
Y1618177D01*
X2350429Y1606012D02*
Y1618177D01*
X2350449Y1606012D02*
Y1618177D01*
X2350469Y1606012D02*
Y1618177D01*
X2350488Y1606012D02*
Y1618177D01*
X2350508Y1606012D02*
Y1618177D01*
X2350528Y1606012D02*
Y1618177D01*
X2350547Y1606012D02*
Y1618177D01*
X2350567Y1606012D02*
Y1618177D01*
X2350587Y1606012D02*
Y1618177D01*
X2350606Y1606012D02*
Y1618177D01*
X2350626Y1606012D02*
Y1618177D01*
X2350646Y1606012D02*
Y1618177D01*
X2350665Y1606012D02*
Y1618177D01*
X2350685Y1606012D02*
Y1618177D01*
X2350705Y1606012D02*
Y1618177D01*
X2350724Y1606020D02*
Y1618177D01*
X2350744Y1606040D02*
Y1618177D01*
X2350764Y1606059D02*
Y1618177D01*
X2350783Y1606079D02*
Y1618177D01*
X2350803Y1606099D02*
Y1618177D01*
X2350823Y1606118D02*
Y1618177D01*
X2350843Y1606138D02*
Y1618177D01*
X2350862Y1606158D02*
Y1618177D01*
X2350882Y1606177D02*
Y1618177D01*
X2350902Y1606197D02*
Y1618177D01*
X2350921Y1606217D02*
Y1618177D01*
X2350941Y1606236D02*
Y1618177D01*
X2350961Y1606256D02*
Y1618177D01*
X2350980Y1606276D02*
Y1618177D01*
X2351000Y1606296D02*
Y1618177D01*
X2351020Y1606315D02*
Y1618177D01*
X2351039Y1606335D02*
Y1618177D01*
X2351059Y1606355D02*
Y1618177D01*
X2351079Y1606374D02*
Y1618177D01*
X2351098Y1606394D02*
Y1618177D01*
X2351118Y1606414D02*
Y1618177D01*
X2351138Y1606433D02*
Y1618177D01*
X2351157Y1606453D02*
Y1618177D01*
X2351177Y1606473D02*
Y1618177D01*
X2351197Y1606492D02*
Y1618177D01*
X2351217Y1606512D02*
Y1618177D01*
X2351236Y1606532D02*
Y1618177D01*
X2351256Y1606551D02*
Y1618177D01*
X2351276Y1606571D02*
Y1618177D01*
X2351295Y1606591D02*
Y1618177D01*
X2351315Y1606611D02*
Y1618177D01*
X2351335Y1606630D02*
Y1618177D01*
X2351354Y1606650D02*
Y1618177D01*
X2351374Y1606670D02*
Y1618177D01*
X2351394Y1606689D02*
Y1618177D01*
X2351413Y1606709D02*
Y1618177D01*
X2351433Y1606729D02*
Y1618177D01*
X2351453Y1606748D02*
Y1618177D01*
X2351472Y1606768D02*
Y1618177D01*
X2351492Y1606788D02*
Y1618177D01*
X2351512Y1606807D02*
Y1618177D01*
X2351531Y1606827D02*
Y1618177D01*
X2351551Y1606847D02*
Y1618177D01*
X2351571Y1606866D02*
Y1618177D01*
X2351591Y1606886D02*
Y1618177D01*
X2351610Y1606906D02*
Y1618177D01*
X2351630Y1606925D02*
Y1618177D01*
X2351650Y1606945D02*
Y1618177D01*
X2351669Y1606965D02*
Y1618177D01*
X2351689Y1606985D02*
Y1618177D01*
X2351709Y1607004D02*
Y1618177D01*
X2351728Y1607024D02*
Y1618177D01*
X2351748Y1607044D02*
Y1618177D01*
X2351768Y1607063D02*
Y1618177D01*
X2351787Y1607083D02*
Y1618177D01*
X2351807Y1607103D02*
Y1618177D01*
X2351827Y1607122D02*
Y1618177D01*
X2351846Y1607142D02*
Y1618177D01*
X2351866Y1607162D02*
Y1618177D01*
X2351886Y1607181D02*
Y1618177D01*
X2351906Y1607201D02*
Y1618177D01*
X2351925Y1607221D02*
Y1618177D01*
X2351945Y1607240D02*
Y1618177D01*
X2351965Y1607260D02*
Y1618177D01*
X2351984Y1607280D02*
Y1618177D01*
X2352004Y1607299D02*
Y1618177D01*
X2352024Y1607319D02*
Y1618177D01*
X2352043Y1607339D02*
Y1618177D01*
X2352063Y1607359D02*
Y1618177D01*
X2275083Y1665177D02*
X2266252D01*
X2264886Y1663811*
Y1653012*
X2275083*
Y1665177*
X2264886Y1653012D02*
Y1663811D01*
X2264906Y1653012D02*
Y1663830D01*
X2264925Y1653012D02*
Y1663850D01*
X2264945Y1653012D02*
Y1663870D01*
X2264965Y1653012D02*
Y1663889D01*
X2264984Y1653012D02*
Y1663909D01*
X2265004Y1653012D02*
Y1663929D01*
X2265024Y1653012D02*
Y1663949D01*
X2265043Y1653012D02*
Y1663968D01*
X2265063Y1653012D02*
Y1663988D01*
X2265083Y1653012D02*
Y1664008D01*
X2265102Y1653012D02*
Y1664027D01*
X2265122Y1653012D02*
Y1664047D01*
X2265142Y1653012D02*
Y1664067D01*
X2265161Y1653012D02*
Y1664086D01*
X2265181Y1653012D02*
Y1664106D01*
X2265201Y1653012D02*
Y1664126D01*
X2265220Y1653012D02*
Y1664145D01*
X2265240Y1653012D02*
Y1664165D01*
X2265260Y1653012D02*
Y1664185D01*
X2265280Y1653012D02*
Y1664204D01*
X2265299Y1653012D02*
Y1664224D01*
X2265319Y1653012D02*
Y1664244D01*
X2265339Y1653012D02*
Y1664264D01*
X2265358Y1653012D02*
Y1664283D01*
X2265378Y1653012D02*
Y1664303D01*
X2265398Y1653012D02*
Y1664323D01*
X2265417Y1653012D02*
Y1664342D01*
X2265437Y1653012D02*
Y1664362D01*
X2265457Y1653012D02*
Y1664382D01*
X2265476Y1653012D02*
Y1664401D01*
X2265496Y1653012D02*
Y1664421D01*
X2265516Y1653012D02*
Y1664441D01*
X2265535Y1653012D02*
Y1664460D01*
X2265555Y1653012D02*
Y1664480D01*
X2265575Y1653012D02*
Y1664500D01*
X2265594Y1653012D02*
Y1664519D01*
X2265614Y1653012D02*
Y1664539D01*
X2265634Y1653012D02*
Y1664559D01*
X2265654Y1653012D02*
Y1664578D01*
X2265673Y1653012D02*
Y1664598D01*
X2265693Y1653012D02*
Y1664618D01*
X2265713Y1653012D02*
Y1664638D01*
X2265732Y1653012D02*
Y1664657D01*
X2265752Y1653012D02*
Y1664677D01*
X2265772Y1653012D02*
Y1664697D01*
X2265791Y1653012D02*
Y1664716D01*
X2265811Y1653012D02*
Y1664736D01*
X2265831Y1653012D02*
Y1664756D01*
X2265850Y1653012D02*
Y1664775D01*
X2265870Y1653012D02*
Y1664795D01*
X2265890Y1653012D02*
Y1664815D01*
X2265909Y1653012D02*
Y1664834D01*
X2265929Y1653012D02*
Y1664854D01*
X2265949Y1653012D02*
Y1664874D01*
X2265969Y1653012D02*
Y1664893D01*
X2265988Y1653012D02*
Y1664913D01*
X2266008Y1653012D02*
Y1664933D01*
X2266028Y1653012D02*
Y1664952D01*
X2266047Y1653012D02*
Y1664972D01*
X2266067Y1653012D02*
Y1664992D01*
X2266087Y1653012D02*
Y1665012D01*
X2266106Y1653012D02*
Y1665031D01*
X2266126Y1653012D02*
Y1665051D01*
X2266146Y1653012D02*
Y1665071D01*
X2266165Y1653012D02*
Y1665090D01*
X2266185Y1653012D02*
Y1665110D01*
X2266205Y1653012D02*
Y1665130D01*
X2266224Y1653012D02*
Y1665149D01*
X2266244Y1653012D02*
Y1665169D01*
X2266264Y1653012D02*
Y1665177D01*
X2266283Y1653012D02*
Y1665177D01*
X2266303Y1653012D02*
Y1665177D01*
X2266323Y1653012D02*
Y1665177D01*
X2266343Y1653012D02*
Y1665177D01*
X2266362Y1653012D02*
Y1665177D01*
X2266382Y1653012D02*
Y1665177D01*
X2266402Y1653012D02*
Y1665177D01*
X2266421Y1653012D02*
Y1665177D01*
X2266441Y1653012D02*
Y1665177D01*
X2266461Y1653012D02*
Y1665177D01*
X2266480Y1653012D02*
Y1665177D01*
X2266500Y1653012D02*
Y1665177D01*
X2266520Y1653012D02*
Y1665177D01*
X2266539Y1653012D02*
Y1665177D01*
X2266559Y1653012D02*
Y1665177D01*
X2266579Y1653012D02*
Y1665177D01*
X2266598Y1653012D02*
Y1665177D01*
X2266618Y1653012D02*
Y1665177D01*
X2266638Y1653012D02*
Y1665177D01*
X2266657Y1653012D02*
Y1665177D01*
X2266677Y1653012D02*
Y1665177D01*
X2266697Y1653012D02*
Y1665177D01*
X2266717Y1653012D02*
Y1665177D01*
X2266736Y1653012D02*
Y1665177D01*
X2266756Y1653012D02*
Y1665177D01*
X2266776Y1653012D02*
Y1665177D01*
X2266795Y1653012D02*
Y1665177D01*
X2266815Y1653012D02*
Y1665177D01*
X2266835Y1653012D02*
Y1665177D01*
X2266854Y1653012D02*
Y1665177D01*
X2266874Y1653012D02*
Y1665177D01*
X2266894Y1653012D02*
Y1665177D01*
X2266913Y1653012D02*
Y1665177D01*
X2266933Y1653012D02*
Y1665177D01*
X2266953Y1653012D02*
Y1665177D01*
X2266972Y1653012D02*
Y1665177D01*
X2266992Y1653012D02*
Y1665177D01*
X2267012Y1653012D02*
Y1665177D01*
X2267031Y1653012D02*
Y1665177D01*
X2267051Y1653012D02*
Y1665177D01*
X2267071Y1653012D02*
Y1665177D01*
X2267091Y1653012D02*
Y1665177D01*
X2267110Y1653012D02*
Y1665177D01*
X2267130Y1653012D02*
Y1665177D01*
X2267150Y1653012D02*
Y1665177D01*
X2267169Y1653012D02*
Y1665177D01*
X2267189Y1653012D02*
Y1665177D01*
X2267209Y1653012D02*
Y1665177D01*
X2267228Y1653012D02*
Y1665177D01*
X2267248Y1653012D02*
Y1665177D01*
X2267268Y1653012D02*
Y1665177D01*
X2267287Y1653012D02*
Y1665177D01*
X2267307Y1653012D02*
Y1665177D01*
X2267327Y1653012D02*
Y1665177D01*
X2267346Y1653012D02*
Y1665177D01*
X2267366Y1653012D02*
Y1665177D01*
X2267386Y1653012D02*
Y1665177D01*
X2267406Y1653012D02*
Y1665177D01*
X2267425Y1653012D02*
Y1665177D01*
X2267445Y1653012D02*
Y1665177D01*
X2267465Y1653012D02*
Y1665177D01*
X2267484Y1653012D02*
Y1665177D01*
X2267504Y1653012D02*
Y1665177D01*
X2267524Y1653012D02*
Y1665177D01*
X2267543Y1653012D02*
Y1665177D01*
X2267563Y1653012D02*
Y1665177D01*
X2267583Y1653012D02*
Y1665177D01*
X2267602Y1653012D02*
Y1665177D01*
X2267622Y1653012D02*
Y1665177D01*
X2267642Y1653012D02*
Y1665177D01*
X2267661Y1653012D02*
Y1665177D01*
X2267681Y1653012D02*
Y1665177D01*
X2267701Y1653012D02*
Y1665177D01*
X2267720Y1653012D02*
Y1665177D01*
X2267740Y1653012D02*
Y1665177D01*
X2267760Y1653012D02*
Y1665177D01*
X2267780Y1653012D02*
Y1665177D01*
X2267799Y1653012D02*
Y1665177D01*
X2267819Y1653012D02*
Y1665177D01*
X2267839Y1653012D02*
Y1665177D01*
X2267858Y1653012D02*
Y1665177D01*
X2267878Y1653012D02*
Y1665177D01*
X2267898Y1653012D02*
Y1665177D01*
X2267917Y1653012D02*
Y1665177D01*
X2267937Y1653012D02*
Y1665177D01*
X2267957Y1653012D02*
Y1665177D01*
X2267976Y1653012D02*
Y1665177D01*
X2267996Y1653012D02*
Y1665177D01*
X2268016Y1653012D02*
Y1665177D01*
X2268035Y1653012D02*
Y1665177D01*
X2268055Y1653012D02*
Y1665177D01*
X2268075Y1653012D02*
Y1665177D01*
X2268094Y1653012D02*
Y1665177D01*
X2268114Y1653012D02*
Y1665177D01*
X2268134Y1653012D02*
Y1665177D01*
X2268154Y1653012D02*
Y1665177D01*
X2268173Y1653012D02*
Y1665177D01*
X2268193Y1653012D02*
Y1665177D01*
X2268213Y1653012D02*
Y1665177D01*
X2268232Y1653012D02*
Y1665177D01*
X2268252Y1653012D02*
Y1665177D01*
X2268272Y1653012D02*
Y1665177D01*
X2268291Y1653012D02*
Y1665177D01*
X2268311Y1653012D02*
Y1665177D01*
X2268331Y1653012D02*
Y1665177D01*
X2268350Y1653012D02*
Y1665177D01*
X2268370Y1653012D02*
Y1665177D01*
X2268390Y1653012D02*
Y1665177D01*
X2268409Y1653012D02*
Y1665177D01*
X2268429Y1653012D02*
Y1665177D01*
X2268449Y1653012D02*
Y1665177D01*
X2268469Y1653012D02*
Y1665177D01*
X2268488Y1653012D02*
Y1665177D01*
X2268508Y1653012D02*
Y1665177D01*
X2268528Y1653012D02*
Y1665177D01*
X2268547Y1653012D02*
Y1665177D01*
X2268567Y1653012D02*
Y1665177D01*
X2268587Y1653012D02*
Y1665177D01*
X2268606Y1653012D02*
Y1665177D01*
X2268626Y1653012D02*
Y1665177D01*
X2268646Y1653012D02*
Y1665177D01*
X2268665Y1653012D02*
Y1665177D01*
X2268685Y1653012D02*
Y1665177D01*
X2268705Y1653012D02*
Y1665177D01*
X2268724Y1653012D02*
Y1665177D01*
X2268744Y1653012D02*
Y1665177D01*
X2268764Y1653012D02*
Y1665177D01*
X2268783Y1653012D02*
Y1665177D01*
X2268803Y1653012D02*
Y1665177D01*
X2268823Y1653012D02*
Y1665177D01*
X2268843Y1653012D02*
Y1665177D01*
X2268862Y1653012D02*
Y1665177D01*
X2268882Y1653012D02*
Y1665177D01*
X2268902Y1653012D02*
Y1665177D01*
X2268921Y1653012D02*
Y1665177D01*
X2268941Y1653012D02*
Y1665177D01*
X2268961Y1653012D02*
Y1665177D01*
X2268980Y1653012D02*
Y1665177D01*
X2269000Y1653012D02*
Y1665177D01*
X2269020Y1653012D02*
Y1665177D01*
X2269039Y1653012D02*
Y1665177D01*
X2269059Y1653012D02*
Y1665177D01*
X2269079Y1653012D02*
Y1665177D01*
X2269098Y1653012D02*
Y1665177D01*
X2269118Y1653012D02*
Y1665177D01*
X2269138Y1653012D02*
Y1665177D01*
X2269157Y1653012D02*
Y1665177D01*
X2269177Y1653012D02*
Y1665177D01*
X2269197Y1653012D02*
Y1665177D01*
X2269217Y1653012D02*
Y1665177D01*
X2269236Y1653012D02*
Y1665177D01*
X2269256Y1653012D02*
Y1665177D01*
X2269276Y1653012D02*
Y1665177D01*
X2269295Y1653012D02*
Y1665177D01*
X2269315Y1653012D02*
Y1665177D01*
X2269335Y1653012D02*
Y1665177D01*
X2269354Y1653012D02*
Y1665177D01*
X2269374Y1653012D02*
Y1665177D01*
X2269394Y1653012D02*
Y1665177D01*
X2269413Y1653012D02*
Y1665177D01*
X2269433Y1653012D02*
Y1665177D01*
X2269453Y1653012D02*
Y1665177D01*
X2269472Y1653012D02*
Y1665177D01*
X2269492Y1653012D02*
Y1665177D01*
X2269512Y1653012D02*
Y1665177D01*
X2269531Y1653012D02*
Y1665177D01*
X2269551Y1653012D02*
Y1665177D01*
X2269571Y1653012D02*
Y1665177D01*
X2269591Y1653012D02*
Y1665177D01*
X2269610Y1653012D02*
Y1665177D01*
X2269630Y1653012D02*
Y1665177D01*
X2269650Y1653012D02*
Y1665177D01*
X2269669Y1653012D02*
Y1665177D01*
X2269689Y1653012D02*
Y1665177D01*
X2269709Y1653012D02*
Y1665177D01*
X2269728Y1653012D02*
Y1665177D01*
X2269748Y1653012D02*
Y1665177D01*
X2269768Y1653012D02*
Y1665177D01*
X2269787Y1653012D02*
Y1665177D01*
X2269807Y1653012D02*
Y1665177D01*
X2269827Y1653012D02*
Y1665177D01*
X2269846Y1653012D02*
Y1665177D01*
X2269866Y1653012D02*
Y1665177D01*
X2269886Y1653012D02*
Y1665177D01*
X2269906Y1653012D02*
Y1665177D01*
X2269925Y1653012D02*
Y1665177D01*
X2269945Y1653012D02*
Y1665177D01*
X2269965Y1653012D02*
Y1665177D01*
X2269984Y1653012D02*
Y1665177D01*
X2270004Y1653012D02*
Y1665177D01*
X2270024Y1653012D02*
Y1665177D01*
X2270043Y1653012D02*
Y1665177D01*
X2270063Y1653012D02*
Y1665177D01*
X2270083Y1653012D02*
Y1665177D01*
X2270102Y1653012D02*
Y1665177D01*
X2270122Y1653012D02*
Y1665177D01*
X2270142Y1653012D02*
Y1665177D01*
X2270161Y1653012D02*
Y1665177D01*
X2270181Y1653012D02*
Y1665177D01*
X2270201Y1653012D02*
Y1665177D01*
X2270220Y1653012D02*
Y1665177D01*
X2270240Y1653012D02*
Y1665177D01*
X2270260Y1653012D02*
Y1665177D01*
X2270280Y1653012D02*
Y1665177D01*
X2270299Y1653012D02*
Y1665177D01*
X2270319Y1653012D02*
Y1665177D01*
X2270339Y1653012D02*
Y1665177D01*
X2270358Y1653012D02*
Y1665177D01*
X2270378Y1653012D02*
Y1665177D01*
X2270398Y1653012D02*
Y1665177D01*
X2270417Y1653012D02*
Y1665177D01*
X2270437Y1653012D02*
Y1665177D01*
X2270457Y1653012D02*
Y1665177D01*
X2270476Y1653012D02*
Y1665177D01*
X2270496Y1653012D02*
Y1665177D01*
X2270516Y1653012D02*
Y1665177D01*
X2270535Y1653012D02*
Y1665177D01*
X2270555Y1653012D02*
Y1665177D01*
X2270575Y1653012D02*
Y1665177D01*
X2270594Y1653012D02*
Y1665177D01*
X2270614Y1653012D02*
Y1665177D01*
X2270634Y1653012D02*
Y1665177D01*
X2270654Y1653012D02*
Y1665177D01*
X2270673Y1653012D02*
Y1665177D01*
X2270693Y1653012D02*
Y1665177D01*
X2270713Y1653012D02*
Y1665177D01*
X2270732Y1653012D02*
Y1665177D01*
X2270752Y1653012D02*
Y1665177D01*
X2270772Y1653012D02*
Y1665177D01*
X2270791Y1653012D02*
Y1665177D01*
X2270811Y1653012D02*
Y1665177D01*
X2270831Y1653012D02*
Y1665177D01*
X2270850Y1653012D02*
Y1665177D01*
X2270870Y1653012D02*
Y1665177D01*
X2270890Y1653012D02*
Y1665177D01*
X2270909Y1653012D02*
Y1665177D01*
X2270929Y1653012D02*
Y1665177D01*
X2270949Y1653012D02*
Y1665177D01*
X2270969Y1653012D02*
Y1665177D01*
X2270988Y1653012D02*
Y1665177D01*
X2271008Y1653012D02*
Y1665177D01*
X2271028Y1653012D02*
Y1665177D01*
X2271047Y1653012D02*
Y1665177D01*
X2271067Y1653012D02*
Y1665177D01*
X2271087Y1653012D02*
Y1665177D01*
X2271106Y1653012D02*
Y1665177D01*
X2271126Y1653012D02*
Y1665177D01*
X2271146Y1653012D02*
Y1665177D01*
X2271165Y1653012D02*
Y1665177D01*
X2271185Y1653012D02*
Y1665177D01*
X2271205Y1653012D02*
Y1665177D01*
X2271224Y1653012D02*
Y1665177D01*
X2271244Y1653012D02*
Y1665177D01*
X2271264Y1653012D02*
Y1665177D01*
X2271283Y1653012D02*
Y1665177D01*
X2271303Y1653012D02*
Y1665177D01*
X2271323Y1653012D02*
Y1665177D01*
X2271343Y1653012D02*
Y1665177D01*
X2271362Y1653012D02*
Y1665177D01*
X2271382Y1653012D02*
Y1665177D01*
X2271402Y1653012D02*
Y1665177D01*
X2271421Y1653012D02*
Y1665177D01*
X2271441Y1653012D02*
Y1665177D01*
X2271461Y1653012D02*
Y1665177D01*
X2271480Y1653012D02*
Y1665177D01*
X2271500Y1653012D02*
Y1665177D01*
X2271520Y1653012D02*
Y1665177D01*
X2271539Y1653012D02*
Y1665177D01*
X2271559Y1653012D02*
Y1665177D01*
X2271579Y1653012D02*
Y1665177D01*
X2271598Y1653012D02*
Y1665177D01*
X2271618Y1653012D02*
Y1665177D01*
X2271638Y1653012D02*
Y1665177D01*
X2271657Y1653012D02*
Y1665177D01*
X2271677Y1653012D02*
Y1665177D01*
X2271697Y1653012D02*
Y1665177D01*
X2271717Y1653012D02*
Y1665177D01*
X2271736Y1653012D02*
Y1665177D01*
X2271756Y1653012D02*
Y1665177D01*
X2271776Y1653012D02*
Y1665177D01*
X2271795Y1653012D02*
Y1665177D01*
X2271815Y1653012D02*
Y1665177D01*
X2271835Y1653012D02*
Y1665177D01*
X2271854Y1653012D02*
Y1665177D01*
X2271874Y1653012D02*
Y1665177D01*
X2271894Y1653012D02*
Y1665177D01*
X2271913Y1653012D02*
Y1665177D01*
X2271933Y1653012D02*
Y1665177D01*
X2271953Y1653012D02*
Y1665177D01*
X2271972Y1653012D02*
Y1665177D01*
X2271992Y1653012D02*
Y1665177D01*
X2272012Y1653012D02*
Y1665177D01*
X2272031Y1653012D02*
Y1665177D01*
X2272051Y1653012D02*
Y1665177D01*
X2272071Y1653012D02*
Y1665177D01*
X2272091Y1653012D02*
Y1665177D01*
X2272110Y1653012D02*
Y1665177D01*
X2272130Y1653012D02*
Y1665177D01*
X2272150Y1653012D02*
Y1665177D01*
X2272169Y1653012D02*
Y1665177D01*
X2272189Y1653012D02*
Y1665177D01*
X2272209Y1653012D02*
Y1665177D01*
X2272228Y1653012D02*
Y1665177D01*
X2272248Y1653012D02*
Y1665177D01*
X2272268Y1653012D02*
Y1665177D01*
X2272287Y1653012D02*
Y1665177D01*
X2272307Y1653012D02*
Y1665177D01*
X2272327Y1653012D02*
Y1665177D01*
X2272346Y1653012D02*
Y1665177D01*
X2272366Y1653012D02*
Y1665177D01*
X2272386Y1653012D02*
Y1665177D01*
X2272406Y1653012D02*
Y1665177D01*
X2272425Y1653012D02*
Y1665177D01*
X2272445Y1653012D02*
Y1665177D01*
X2272465Y1653012D02*
Y1665177D01*
X2272484Y1653012D02*
Y1665177D01*
X2272504Y1653012D02*
Y1665177D01*
X2272524Y1653012D02*
Y1665177D01*
X2272543Y1653012D02*
Y1665177D01*
X2272563Y1653012D02*
Y1665177D01*
X2272583Y1653012D02*
Y1665177D01*
X2272602Y1653012D02*
Y1665177D01*
X2272622Y1653012D02*
Y1665177D01*
X2272642Y1653012D02*
Y1665177D01*
X2272661Y1653012D02*
Y1665177D01*
X2272681Y1653012D02*
Y1665177D01*
X2272701Y1653012D02*
Y1665177D01*
X2272720Y1653012D02*
Y1665177D01*
X2272740Y1653012D02*
Y1665177D01*
X2272760Y1653012D02*
Y1665177D01*
X2272780Y1653012D02*
Y1665177D01*
X2272799Y1653012D02*
Y1665177D01*
X2272819Y1653012D02*
Y1665177D01*
X2272839Y1653012D02*
Y1665177D01*
X2272858Y1653012D02*
Y1665177D01*
X2272878Y1653012D02*
Y1665177D01*
X2272898Y1653012D02*
Y1665177D01*
X2272917Y1653012D02*
Y1665177D01*
X2272937Y1653012D02*
Y1665177D01*
X2272957Y1653012D02*
Y1665177D01*
X2272976Y1653012D02*
Y1665177D01*
X2272996Y1653012D02*
Y1665177D01*
X2273016Y1653012D02*
Y1665177D01*
X2273035Y1653012D02*
Y1665177D01*
X2273055Y1653012D02*
Y1665177D01*
X2273075Y1653012D02*
Y1665177D01*
X2273094Y1653012D02*
Y1665177D01*
X2273114Y1653012D02*
Y1665177D01*
X2273134Y1653012D02*
Y1665177D01*
X2273154Y1653012D02*
Y1665177D01*
X2273173Y1653012D02*
Y1665177D01*
X2273193Y1653012D02*
Y1665177D01*
X2273213Y1653012D02*
Y1665177D01*
X2273232Y1653012D02*
Y1665177D01*
X2273252Y1653012D02*
Y1665177D01*
X2273272Y1653012D02*
Y1665177D01*
X2273291Y1653012D02*
Y1665177D01*
X2273311Y1653012D02*
Y1665177D01*
X2273331Y1653012D02*
Y1665177D01*
X2273350Y1653012D02*
Y1665177D01*
X2273370Y1653012D02*
Y1665177D01*
X2273390Y1653012D02*
Y1665177D01*
X2273409Y1653012D02*
Y1665177D01*
X2273429Y1653012D02*
Y1665177D01*
X2273449Y1653012D02*
Y1665177D01*
X2273469Y1653012D02*
Y1665177D01*
X2273488Y1653012D02*
Y1665177D01*
X2273508Y1653012D02*
Y1665177D01*
X2273528Y1653012D02*
Y1665177D01*
X2273547Y1653012D02*
Y1665177D01*
X2273567Y1653012D02*
Y1665177D01*
X2273587Y1653012D02*
Y1665177D01*
X2273606Y1653012D02*
Y1665177D01*
X2273626Y1653012D02*
Y1665177D01*
X2273646Y1653012D02*
Y1665177D01*
X2273665Y1653012D02*
Y1665177D01*
X2273685Y1653012D02*
Y1665177D01*
X2273705Y1653012D02*
Y1665177D01*
X2273724Y1653012D02*
Y1665177D01*
X2273744Y1653012D02*
Y1665177D01*
X2273764Y1653012D02*
Y1665177D01*
X2273783Y1653012D02*
Y1665177D01*
X2273803Y1653012D02*
Y1665177D01*
X2273823Y1653012D02*
Y1665177D01*
X2273843Y1653012D02*
Y1665177D01*
X2273862Y1653012D02*
Y1665177D01*
X2273882Y1653012D02*
Y1665177D01*
X2273902Y1653012D02*
Y1665177D01*
X2273921Y1653012D02*
Y1665177D01*
X2273941Y1653012D02*
Y1665177D01*
X2273961Y1653012D02*
Y1665177D01*
X2273980Y1653012D02*
Y1665177D01*
X2274000Y1653012D02*
Y1665177D01*
X2274020Y1653012D02*
Y1665177D01*
X2274039Y1653012D02*
Y1665177D01*
X2274059Y1653012D02*
Y1665177D01*
X2274079Y1653012D02*
Y1665177D01*
X2274098Y1653012D02*
Y1665177D01*
X2274118Y1653012D02*
Y1665177D01*
X2274138Y1653012D02*
Y1665177D01*
X2274157Y1653012D02*
Y1665177D01*
X2274177Y1653012D02*
Y1665177D01*
X2274197Y1653012D02*
Y1665177D01*
X2274217Y1653012D02*
Y1665177D01*
X2274236Y1653012D02*
Y1665177D01*
X2274256Y1653012D02*
Y1665177D01*
X2274276Y1653012D02*
Y1665177D01*
X2274295Y1653012D02*
Y1665177D01*
X2274315Y1653012D02*
Y1665177D01*
X2274335Y1653012D02*
Y1665177D01*
X2274354Y1653012D02*
Y1665177D01*
X2274374Y1653012D02*
Y1665177D01*
X2274394Y1653012D02*
Y1665177D01*
X2274413Y1653012D02*
Y1665177D01*
X2274433Y1653012D02*
Y1665177D01*
X2274453Y1653012D02*
Y1665177D01*
X2274472Y1653012D02*
Y1665177D01*
X2274492Y1653012D02*
Y1665177D01*
X2274512Y1653012D02*
Y1665177D01*
X2274531Y1653012D02*
Y1665177D01*
X2274551Y1653012D02*
Y1665177D01*
X2274571Y1653012D02*
Y1665177D01*
X2274591Y1653012D02*
Y1665177D01*
X2274610Y1653012D02*
Y1665177D01*
X2274630Y1653012D02*
Y1665177D01*
X2274650Y1653012D02*
Y1665177D01*
X2274669Y1653012D02*
Y1665177D01*
X2274689Y1653012D02*
Y1665177D01*
X2274709Y1653012D02*
Y1665177D01*
X2274728Y1653012D02*
Y1665177D01*
X2274748Y1653012D02*
Y1665177D01*
X2274768Y1653012D02*
Y1665177D01*
X2274787Y1653012D02*
Y1665177D01*
X2274807Y1653012D02*
Y1665177D01*
X2274827Y1653012D02*
Y1665177D01*
X2274846Y1653012D02*
Y1665177D01*
X2274866Y1653012D02*
Y1665177D01*
X2274886Y1653012D02*
Y1665177D01*
X2274906Y1653012D02*
Y1665177D01*
X2274925Y1653012D02*
Y1665177D01*
X2274945Y1653012D02*
Y1665177D01*
X2274965Y1653012D02*
Y1665177D01*
X2274984Y1653012D02*
Y1665177D01*
X2275004Y1653012D02*
Y1665177D01*
X2275024Y1653012D02*
Y1665177D01*
X2275043Y1653012D02*
Y1665177D01*
X2275063Y1653012D02*
Y1665177D01*
X2341886Y1606012D02*
X2350716D01*
X2352083Y1607378*
Y1618177*
X2341886*
Y1606012*
Y1618177*
X2341906Y1606012D02*
Y1618177D01*
X2341925Y1606012D02*
Y1618177D01*
X2341945Y1606012D02*
Y1618177D01*
X2341965Y1606012D02*
Y1618177D01*
X2341984Y1606012D02*
Y1618177D01*
X2342004Y1606012D02*
Y1618177D01*
X2342024Y1606012D02*
Y1618177D01*
X2342043Y1606012D02*
Y1618177D01*
X2342063Y1606012D02*
Y1618177D01*
X2342083Y1606012D02*
Y1618177D01*
X2342102Y1606012D02*
Y1618177D01*
X2342122Y1606012D02*
Y1618177D01*
X2342142Y1606012D02*
Y1618177D01*
X2342161Y1606012D02*
Y1618177D01*
X2342181Y1606012D02*
Y1618177D01*
X2342201Y1606012D02*
Y1618177D01*
X2342220Y1606012D02*
Y1618177D01*
X2342240Y1606012D02*
Y1618177D01*
X2342260Y1606012D02*
Y1618177D01*
X2342280Y1606012D02*
Y1618177D01*
X2342299Y1606012D02*
Y1618177D01*
X2342319Y1606012D02*
Y1618177D01*
X2342339Y1606012D02*
Y1618177D01*
X2342358Y1606012D02*
Y1618177D01*
X2342378Y1606012D02*
Y1618177D01*
X2342398Y1606012D02*
Y1618177D01*
X2342417Y1606012D02*
Y1618177D01*
X2342437Y1606012D02*
Y1618177D01*
X2342457Y1606012D02*
Y1618177D01*
X2342476Y1606012D02*
Y1618177D01*
X2342496Y1606012D02*
Y1618177D01*
X2342516Y1606012D02*
Y1618177D01*
X2342535Y1606012D02*
Y1618177D01*
X2342555Y1606012D02*
Y1618177D01*
X2342575Y1606012D02*
Y1618177D01*
X2342594Y1606012D02*
Y1618177D01*
X2342614Y1606012D02*
Y1618177D01*
X2342634Y1606012D02*
Y1618177D01*
X2342654Y1606012D02*
Y1618177D01*
X2342673Y1606012D02*
Y1618177D01*
X2342693Y1606012D02*
Y1618177D01*
X2342713Y1606012D02*
Y1618177D01*
X2342732Y1606012D02*
Y1618177D01*
X2342752Y1606012D02*
Y1618177D01*
X2342772Y1606012D02*
Y1618177D01*
X2342791Y1606012D02*
Y1618177D01*
X2342811Y1606012D02*
Y1618177D01*
X2342831Y1606012D02*
Y1618177D01*
X2342850Y1606012D02*
Y1618177D01*
X2342870Y1606012D02*
Y1618177D01*
X2342890Y1606012D02*
Y1618177D01*
X2342909Y1606012D02*
Y1618177D01*
X2342929Y1606012D02*
Y1618177D01*
X2342949Y1606012D02*
Y1618177D01*
X2342969Y1606012D02*
Y1618177D01*
X2342988Y1606012D02*
Y1618177D01*
X2343008Y1606012D02*
Y1618177D01*
X2343028Y1606012D02*
Y1618177D01*
X2343047Y1606012D02*
Y1618177D01*
X2343067Y1606012D02*
Y1618177D01*
X2343087Y1606012D02*
Y1618177D01*
X2343106Y1606012D02*
Y1618177D01*
X2343126Y1606012D02*
Y1618177D01*
X2343146Y1606012D02*
Y1618177D01*
X2343165Y1606012D02*
Y1618177D01*
X2343185Y1606012D02*
Y1618177D01*
X2343205Y1606012D02*
Y1618177D01*
X2343224Y1606012D02*
Y1618177D01*
X2343244Y1606012D02*
Y1618177D01*
X2343264Y1606012D02*
Y1618177D01*
X2343283Y1606012D02*
Y1618177D01*
X2343303Y1606012D02*
Y1618177D01*
X2343323Y1606012D02*
Y1618177D01*
X2343343Y1606012D02*
Y1618177D01*
X2343362Y1606012D02*
Y1618177D01*
X2343382Y1606012D02*
Y1618177D01*
X2343402Y1606012D02*
Y1618177D01*
X2343421Y1606012D02*
Y1618177D01*
X2343441Y1606012D02*
Y1618177D01*
X2343461Y1606012D02*
Y1618177D01*
X2343480Y1606012D02*
Y1618177D01*
X2343500Y1606012D02*
Y1618177D01*
X2343520Y1606012D02*
Y1618177D01*
X2343539Y1606012D02*
Y1618177D01*
X2343559Y1606012D02*
Y1618177D01*
X2343579Y1606012D02*
Y1618177D01*
X2343598Y1606012D02*
Y1618177D01*
X2343618Y1606012D02*
Y1618177D01*
X2343638Y1606012D02*
Y1618177D01*
X2343657Y1606012D02*
Y1618177D01*
X2343677Y1606012D02*
Y1618177D01*
X2343697Y1606012D02*
Y1618177D01*
X2343717Y1606012D02*
Y1618177D01*
X2343736Y1606012D02*
Y1618177D01*
X2343756Y1606012D02*
Y1618177D01*
X2343776Y1606012D02*
Y1618177D01*
X2343795Y1606012D02*
Y1618177D01*
X2343815Y1606012D02*
Y1618177D01*
X2343835Y1606012D02*
Y1618177D01*
X2343854Y1606012D02*
Y1618177D01*
X2343874Y1606012D02*
Y1618177D01*
X2343894Y1606012D02*
Y1618177D01*
X2343913Y1606012D02*
Y1618177D01*
X2343933Y1606012D02*
Y1618177D01*
X2343953Y1606012D02*
Y1618177D01*
X2343972Y1606012D02*
Y1618177D01*
X2343992Y1606012D02*
Y1618177D01*
X2344012Y1606012D02*
Y1618177D01*
X2344031Y1606012D02*
Y1618177D01*
X2344051Y1606012D02*
Y1618177D01*
X2344071Y1606012D02*
Y1618177D01*
X2344091Y1606012D02*
Y1618177D01*
X2344110Y1606012D02*
Y1618177D01*
X2344130Y1606012D02*
Y1618177D01*
X2344150Y1606012D02*
Y1618177D01*
X2344169Y1606012D02*
Y1618177D01*
X2344189Y1606012D02*
Y1618177D01*
X2344209Y1606012D02*
Y1618177D01*
X2344228Y1606012D02*
Y1618177D01*
X2344248Y1606012D02*
Y1618177D01*
X2344268Y1606012D02*
Y1618177D01*
X2344287Y1606012D02*
Y1618177D01*
X2344307Y1606012D02*
Y1618177D01*
X2344327Y1606012D02*
Y1618177D01*
X2344346Y1606012D02*
Y1618177D01*
X2344366Y1606012D02*
Y1618177D01*
X2344386Y1606012D02*
Y1618177D01*
X2344406Y1606012D02*
Y1618177D01*
X2344425Y1606012D02*
Y1618177D01*
X2344445Y1606012D02*
Y1618177D01*
X2344465Y1606012D02*
Y1618177D01*
X2344484Y1606012D02*
Y1618177D01*
X2344504Y1606012D02*
Y1618177D01*
X2344524Y1606012D02*
Y1618177D01*
X2344543Y1606012D02*
Y1618177D01*
X2344563Y1606012D02*
Y1618177D01*
X2344583Y1606012D02*
Y1618177D01*
X2344602Y1606012D02*
Y1618177D01*
X2344622Y1606012D02*
Y1618177D01*
X2344642Y1606012D02*
Y1618177D01*
X2344661Y1606012D02*
Y1618177D01*
X2344681Y1606012D02*
Y1618177D01*
X2344701Y1606012D02*
Y1618177D01*
X2344720Y1606012D02*
Y1618177D01*
X2344740Y1606012D02*
Y1618177D01*
X2344760Y1606012D02*
Y1618177D01*
X2344780Y1606012D02*
Y1618177D01*
X2344799Y1606012D02*
Y1618177D01*
X2344819Y1606012D02*
Y1618177D01*
X2344839Y1606012D02*
Y1618177D01*
X2344858Y1606012D02*
Y1618177D01*
X2344878Y1606012D02*
Y1618177D01*
X2344898Y1606012D02*
Y1618177D01*
X2344917Y1606012D02*
Y1618177D01*
X2344937Y1606012D02*
Y1618177D01*
X2344957Y1606012D02*
Y1618177D01*
X2344976Y1606012D02*
Y1618177D01*
X2344996Y1606012D02*
Y1618177D01*
X2345016Y1606012D02*
Y1618177D01*
X2345035Y1606012D02*
Y1618177D01*
X2345055Y1606012D02*
Y1618177D01*
X2345075Y1606012D02*
Y1618177D01*
X2345094Y1606012D02*
Y1618177D01*
X2345114Y1606012D02*
Y1618177D01*
X2345134Y1606012D02*
Y1618177D01*
X2345154Y1606012D02*
Y1618177D01*
X2345173Y1606012D02*
Y1618177D01*
X2345193Y1606012D02*
Y1618177D01*
X2345213Y1606012D02*
Y1618177D01*
X2345232Y1606012D02*
Y1618177D01*
X2345252Y1606012D02*
Y1618177D01*
X2345272Y1606012D02*
Y1618177D01*
X2345291Y1606012D02*
Y1618177D01*
X2345311Y1606012D02*
Y1618177D01*
X2345331Y1606012D02*
Y1618177D01*
X2345350Y1606012D02*
Y1618177D01*
X2345370Y1606012D02*
Y1618177D01*
X2345390Y1606012D02*
Y1618177D01*
X2345409Y1606012D02*
Y1618177D01*
X2345429Y1606012D02*
Y1618177D01*
X2345449Y1606012D02*
Y1618177D01*
X2345469Y1606012D02*
Y1618177D01*
X2345488Y1606012D02*
Y1618177D01*
X2345508Y1606012D02*
Y1618177D01*
X2345528Y1606012D02*
Y1618177D01*
X2345547Y1606012D02*
Y1618177D01*
X2345567Y1606012D02*
Y1618177D01*
X2345587Y1606012D02*
Y1618177D01*
X2345606Y1606012D02*
Y1618177D01*
X2345626Y1606012D02*
Y1618177D01*
X2345646Y1606012D02*
Y1618177D01*
X2345665Y1606012D02*
Y1618177D01*
X2345685Y1606012D02*
Y1618177D01*
X2345705Y1606012D02*
Y1618177D01*
X2345724Y1606012D02*
Y1618177D01*
X2345744Y1606012D02*
Y1618177D01*
X2345764Y1606012D02*
Y1618177D01*
X2345783Y1606012D02*
Y1618177D01*
X2345803Y1606012D02*
Y1618177D01*
X2345823Y1606012D02*
Y1618177D01*
X2345843Y1606012D02*
Y1618177D01*
X2345862Y1606012D02*
Y1618177D01*
X2345882Y1606012D02*
Y1618177D01*
X2345902Y1606012D02*
Y1618177D01*
X2345921Y1606012D02*
Y1618177D01*
X2345941Y1606012D02*
Y1618177D01*
X2345961Y1606012D02*
Y1618177D01*
X2345980Y1606012D02*
Y1618177D01*
X2346000Y1606012D02*
Y1618177D01*
X2346020Y1606012D02*
Y1618177D01*
X2346039Y1606012D02*
Y1618177D01*
X2346059Y1606012D02*
Y1618177D01*
X2346079Y1606012D02*
Y1618177D01*
X2346098Y1606012D02*
Y1618177D01*
X2346118Y1606012D02*
Y1618177D01*
X2346138Y1606012D02*
Y1618177D01*
X2346157Y1606012D02*
Y1618177D01*
X2346177Y1606012D02*
Y1618177D01*
X2346197Y1606012D02*
Y1618177D01*
X2346217Y1606012D02*
Y1618177D01*
X2346236Y1606012D02*
Y1618177D01*
X2346256Y1606012D02*
Y1618177D01*
X2346276Y1606012D02*
Y1618177D01*
X2346295Y1606012D02*
Y1618177D01*
X2346315Y1606012D02*
Y1618177D01*
X2346335Y1606012D02*
Y1618177D01*
X2346354Y1606012D02*
Y1618177D01*
X2346374Y1606012D02*
Y1618177D01*
X2346394Y1606012D02*
Y1618177D01*
X2346413Y1606012D02*
Y1618177D01*
X2346433Y1606012D02*
Y1618177D01*
X2346453Y1606012D02*
Y1618177D01*
X2346472Y1606012D02*
Y1618177D01*
X2346492Y1606012D02*
Y1618177D01*
X2346512Y1606012D02*
Y1618177D01*
X2346531Y1606012D02*
Y1618177D01*
X2346551Y1606012D02*
Y1618177D01*
X2346571Y1606012D02*
Y1618177D01*
X2346591Y1606012D02*
Y1618177D01*
X2346610Y1606012D02*
Y1618177D01*
X2346630Y1606012D02*
Y1618177D01*
X2346650Y1606012D02*
Y1618177D01*
X2346669Y1606012D02*
Y1618177D01*
X2346689Y1606012D02*
Y1618177D01*
X2346709Y1606012D02*
Y1618177D01*
X2346728Y1606012D02*
Y1618177D01*
X2346748Y1606012D02*
Y1618177D01*
X2346768Y1606012D02*
Y1618177D01*
X2346787Y1606012D02*
Y1618177D01*
X2346807Y1606012D02*
Y1618177D01*
X2346827Y1606012D02*
Y1618177D01*
X2346846Y1606012D02*
Y1618177D01*
X2346866Y1606012D02*
Y1618177D01*
X2346886Y1606012D02*
Y1618177D01*
X2346906Y1606012D02*
Y1618177D01*
X2346925Y1606012D02*
Y1618177D01*
X2346945Y1606012D02*
Y1618177D01*
X2346965Y1606012D02*
Y1618177D01*
X2346984Y1606012D02*
Y1618177D01*
X2347004Y1606012D02*
Y1618177D01*
X2347024Y1606012D02*
Y1618177D01*
X2347043Y1606012D02*
Y1618177D01*
X2347063Y1606012D02*
Y1618177D01*
X2347083Y1606012D02*
Y1618177D01*
X2347102Y1606012D02*
Y1618177D01*
X2347122Y1606012D02*
Y1618177D01*
X2347142Y1606012D02*
Y1618177D01*
X2347161Y1606012D02*
Y1618177D01*
X2347181Y1606012D02*
Y1618177D01*
X2347201Y1606012D02*
Y1618177D01*
X2347220Y1606012D02*
Y1618177D01*
X2347240Y1606012D02*
Y1618177D01*
X2347260Y1606012D02*
Y1618177D01*
X2347280Y1606012D02*
Y1618177D01*
X2347299Y1606012D02*
Y1618177D01*
X2347319Y1606012D02*
Y1618177D01*
X2347339Y1606012D02*
Y1618177D01*
X2347358Y1606012D02*
Y1618177D01*
X2347378Y1606012D02*
Y1618177D01*
X2347398Y1606012D02*
Y1618177D01*
X2347417Y1606012D02*
Y1618177D01*
X2347437Y1606012D02*
Y1618177D01*
X2347457Y1606012D02*
Y1618177D01*
X2347476Y1606012D02*
Y1618177D01*
X2347496Y1606012D02*
Y1618177D01*
X2347516Y1606012D02*
Y1618177D01*
X2347535Y1606012D02*
Y1618177D01*
X2347555Y1606012D02*
Y1618177D01*
X2347575Y1606012D02*
Y1618177D01*
X2347594Y1606012D02*
Y1618177D01*
X2347614Y1606012D02*
Y1618177D01*
X2347634Y1606012D02*
Y1618177D01*
X2347654Y1606012D02*
Y1618177D01*
X2347673Y1606012D02*
Y1618177D01*
X2347693Y1606012D02*
Y1618177D01*
X2347713Y1606012D02*
Y1618177D01*
X2347732Y1606012D02*
Y1618177D01*
X2347752Y1606012D02*
Y1618177D01*
X2347772Y1606012D02*
Y1618177D01*
X2347791Y1606012D02*
Y1618177D01*
X2347811Y1606012D02*
Y1618177D01*
X2347831Y1606012D02*
Y1618177D01*
X2347850Y1606012D02*
Y1618177D01*
X2347870Y1606012D02*
Y1618177D01*
X2347890Y1606012D02*
Y1618177D01*
X2347909Y1606012D02*
Y1618177D01*
X2347929Y1606012D02*
Y1618177D01*
X2347949Y1606012D02*
Y1618177D01*
X2347969Y1606012D02*
Y1618177D01*
X2347988Y1606012D02*
Y1618177D01*
X2348008Y1606012D02*
Y1618177D01*
X2348028Y1606012D02*
Y1618177D01*
X2348047Y1606012D02*
Y1618177D01*
X2348067Y1606012D02*
Y1618177D01*
X2348087Y1606012D02*
Y1618177D01*
X2348106Y1606012D02*
Y1618177D01*
X2348126Y1606012D02*
Y1618177D01*
X2348146Y1606012D02*
Y1618177D01*
X2348165Y1606012D02*
Y1618177D01*
X2348185Y1606012D02*
Y1618177D01*
X2348205Y1606012D02*
Y1618177D01*
X2348224Y1606012D02*
Y1618177D01*
X2348244Y1606012D02*
Y1618177D01*
X2348264Y1606012D02*
Y1618177D01*
X2348283Y1606012D02*
Y1618177D01*
X2348303Y1606012D02*
Y1618177D01*
X2348323Y1606012D02*
Y1618177D01*
X2348343Y1606012D02*
Y1618177D01*
X2348362Y1606012D02*
Y1618177D01*
X2348382Y1606012D02*
Y1618177D01*
X2348402Y1606012D02*
Y1618177D01*
X2348421Y1606012D02*
Y1618177D01*
X2348441Y1606012D02*
Y1618177D01*
X2348461Y1606012D02*
Y1618177D01*
X2348480Y1606012D02*
Y1618177D01*
X2348500Y1606012D02*
Y1618177D01*
X2348520Y1606012D02*
Y1618177D01*
X2348539Y1606012D02*
Y1618177D01*
X2348559Y1606012D02*
Y1618177D01*
X2348579Y1606012D02*
Y1618177D01*
X2348598Y1606012D02*
Y1618177D01*
X2348618Y1606012D02*
Y1618177D01*
X2348638Y1606012D02*
Y1618177D01*
X2348657Y1606012D02*
Y1618177D01*
X2348677Y1606012D02*
Y1618177D01*
X2348697Y1606012D02*
Y1618177D01*
X2348717Y1606012D02*
Y1618177D01*
X2348736Y1606012D02*
Y1618177D01*
X2348756Y1606012D02*
Y1618177D01*
X2348776Y1606012D02*
Y1618177D01*
X2348795Y1606012D02*
Y1618177D01*
X2348815Y1606012D02*
Y1618177D01*
X2348835Y1606012D02*
Y1618177D01*
X2348854Y1606012D02*
Y1618177D01*
X2348874Y1606012D02*
Y1618177D01*
X2348894Y1606012D02*
Y1618177D01*
X2348913Y1606012D02*
Y1618177D01*
X2348933Y1606012D02*
Y1618177D01*
X2348953Y1606012D02*
Y1618177D01*
X2348972Y1606012D02*
Y1618177D01*
X2348992Y1606012D02*
Y1618177D01*
X2349012Y1606012D02*
Y1618177D01*
X2349031Y1606012D02*
Y1618177D01*
X2349051Y1606012D02*
Y1618177D01*
X2349071Y1606012D02*
Y1618177D01*
X2349091Y1606012D02*
Y1618177D01*
X2349110Y1606012D02*
Y1618177D01*
X2349130Y1606012D02*
Y1618177D01*
X2349150Y1606012D02*
Y1618177D01*
X2349169Y1606012D02*
Y1618177D01*
X2349189Y1606012D02*
Y1618177D01*
X2349209Y1606012D02*
Y1618177D01*
X2349228Y1606012D02*
Y1618177D01*
X2349248Y1606012D02*
Y1618177D01*
X2349268Y1606012D02*
Y1618177D01*
X2349287Y1606012D02*
Y1618177D01*
X2349307Y1606012D02*
Y1618177D01*
X2349327Y1606012D02*
Y1618177D01*
X2349346Y1606012D02*
Y1618177D01*
X2349366Y1606012D02*
Y1618177D01*
X2349386Y1606012D02*
Y1618177D01*
X2349406Y1606012D02*
Y1618177D01*
X2349425Y1606012D02*
Y1618177D01*
X2349445Y1606012D02*
Y1618177D01*
X2349465Y1606012D02*
Y1618177D01*
X2349484Y1606012D02*
Y1618177D01*
X2349504Y1606012D02*
Y1618177D01*
X2349524Y1606012D02*
Y1618177D01*
X2349543Y1606012D02*
Y1618177D01*
X2349563Y1606012D02*
Y1618177D01*
X2349583Y1606012D02*
Y1618177D01*
X2349602Y1606012D02*
Y1618177D01*
X2349622Y1606012D02*
Y1618177D01*
X2349642Y1606012D02*
Y1618177D01*
X2349661Y1606012D02*
Y1618177D01*
X2349681Y1606012D02*
Y1618177D01*
X2349701Y1606012D02*
Y1618177D01*
X2349720Y1606012D02*
Y1618177D01*
X2349740Y1606012D02*
Y1618177D01*
X2349760Y1606012D02*
Y1618177D01*
X2349780Y1606012D02*
Y1618177D01*
X2349799Y1606012D02*
Y1618177D01*
X2349819Y1606012D02*
Y1618177D01*
X2349839Y1606012D02*
Y1618177D01*
X2349858Y1606012D02*
Y1618177D01*
X2349878Y1606012D02*
Y1618177D01*
X2349898Y1606012D02*
Y1618177D01*
X2349917Y1606012D02*
Y1618177D01*
X2349937Y1606012D02*
Y1618177D01*
X2349957Y1606012D02*
Y1618177D01*
X2349976Y1606012D02*
Y1618177D01*
X2349996Y1606012D02*
Y1618177D01*
X2350016Y1606012D02*
Y1618177D01*
X2350035Y1606012D02*
Y1618177D01*
X2350055Y1606012D02*
Y1618177D01*
X2350075Y1606012D02*
Y1618177D01*
X2350094Y1606012D02*
Y1618177D01*
X2350114Y1606012D02*
Y1618177D01*
X2350134Y1606012D02*
Y1618177D01*
X2350154Y1606012D02*
Y1618177D01*
X2350173Y1606012D02*
Y1618177D01*
X2350193Y1606012D02*
Y1618177D01*
X2350213Y1606012D02*
Y1618177D01*
X2350232Y1606012D02*
Y1618177D01*
X2350252Y1606012D02*
Y1618177D01*
X2350272Y1606012D02*
Y1618177D01*
X2350291Y1606012D02*
Y1618177D01*
X2350311Y1606012D02*
Y1618177D01*
X2350331Y1606012D02*
Y1618177D01*
X2350350Y1606012D02*
Y1618177D01*
X2350370Y1606012D02*
Y1618177D01*
X2350390Y1606012D02*
Y1618177D01*
X2350409Y1606012D02*
Y1618177D01*
X2350429Y1606012D02*
Y1618177D01*
X2350449Y1606012D02*
Y1618177D01*
X2350469Y1606012D02*
Y1618177D01*
X2350488Y1606012D02*
Y1618177D01*
X2350508Y1606012D02*
Y1618177D01*
X2350528Y1606012D02*
Y1618177D01*
X2350547Y1606012D02*
Y1618177D01*
X2350567Y1606012D02*
Y1618177D01*
X2350587Y1606012D02*
Y1618177D01*
X2350606Y1606012D02*
Y1618177D01*
X2350626Y1606012D02*
Y1618177D01*
X2350646Y1606012D02*
Y1618177D01*
X2350665Y1606012D02*
Y1618177D01*
X2350685Y1606012D02*
Y1618177D01*
X2350705Y1606012D02*
Y1618177D01*
X2350724Y1606020D02*
Y1618177D01*
X2350744Y1606040D02*
Y1618177D01*
X2350764Y1606059D02*
Y1618177D01*
X2350783Y1606079D02*
Y1618177D01*
X2350803Y1606099D02*
Y1618177D01*
X2350823Y1606118D02*
Y1618177D01*
X2350843Y1606138D02*
Y1618177D01*
X2350862Y1606158D02*
Y1618177D01*
X2350882Y1606177D02*
Y1618177D01*
X2350902Y1606197D02*
Y1618177D01*
X2350921Y1606217D02*
Y1618177D01*
X2350941Y1606236D02*
Y1618177D01*
X2350961Y1606256D02*
Y1618177D01*
X2350980Y1606276D02*
Y1618177D01*
X2351000Y1606296D02*
Y1618177D01*
X2351020Y1606315D02*
Y1618177D01*
X2351039Y1606335D02*
Y1618177D01*
X2351059Y1606355D02*
Y1618177D01*
X2351079Y1606374D02*
Y1618177D01*
X2351098Y1606394D02*
Y1618177D01*
X2351118Y1606414D02*
Y1618177D01*
X2351138Y1606433D02*
Y1618177D01*
X2351157Y1606453D02*
Y1618177D01*
X2351177Y1606473D02*
Y1618177D01*
X2351197Y1606492D02*
Y1618177D01*
X2351217Y1606512D02*
Y1618177D01*
X2351236Y1606532D02*
Y1618177D01*
X2351256Y1606551D02*
Y1618177D01*
X2351276Y1606571D02*
Y1618177D01*
X2351295Y1606591D02*
Y1618177D01*
X2351315Y1606611D02*
Y1618177D01*
X2351335Y1606630D02*
Y1618177D01*
X2351354Y1606650D02*
Y1618177D01*
X2351374Y1606670D02*
Y1618177D01*
X2351394Y1606689D02*
Y1618177D01*
X2351413Y1606709D02*
Y1618177D01*
X2351433Y1606729D02*
Y1618177D01*
X2351453Y1606748D02*
Y1618177D01*
X2351472Y1606768D02*
Y1618177D01*
X2351492Y1606788D02*
Y1618177D01*
X2351512Y1606807D02*
Y1618177D01*
X2351531Y1606827D02*
Y1618177D01*
X2351551Y1606847D02*
Y1618177D01*
X2351571Y1606866D02*
Y1618177D01*
X2351591Y1606886D02*
Y1618177D01*
X2351610Y1606906D02*
Y1618177D01*
X2351630Y1606925D02*
Y1618177D01*
X2351650Y1606945D02*
Y1618177D01*
X2351669Y1606965D02*
Y1618177D01*
X2351689Y1606985D02*
Y1618177D01*
X2351709Y1607004D02*
Y1618177D01*
X2351728Y1607024D02*
Y1618177D01*
X2351748Y1607044D02*
Y1618177D01*
X2351768Y1607063D02*
Y1618177D01*
X2351787Y1607083D02*
Y1618177D01*
X2351807Y1607103D02*
Y1618177D01*
X2351827Y1607122D02*
Y1618177D01*
X2351846Y1607142D02*
Y1618177D01*
X2351866Y1607162D02*
Y1618177D01*
X2351886Y1607181D02*
Y1618177D01*
X2351906Y1607201D02*
Y1618177D01*
X2351925Y1607221D02*
Y1618177D01*
X2351945Y1607240D02*
Y1618177D01*
X2351965Y1607260D02*
Y1618177D01*
X2351984Y1607280D02*
Y1618177D01*
X2352004Y1607299D02*
Y1618177D01*
X2352024Y1607319D02*
Y1618177D01*
X2352043Y1607339D02*
Y1618177D01*
X2352063Y1607359D02*
Y1618177D01*
X2275083Y1665177D02*
X2266252D01*
X2264886Y1663811*
Y1653012*
X2275083*
Y1665177*
X2264886Y1653012D02*
Y1663811D01*
X2264906Y1653012D02*
Y1663830D01*
X2264925Y1653012D02*
Y1663850D01*
X2264945Y1653012D02*
Y1663870D01*
X2264965Y1653012D02*
Y1663889D01*
X2264984Y1653012D02*
Y1663909D01*
X2265004Y1653012D02*
Y1663929D01*
X2265024Y1653012D02*
Y1663949D01*
X2265043Y1653012D02*
Y1663968D01*
X2265063Y1653012D02*
Y1663988D01*
X2265083Y1653012D02*
Y1664008D01*
X2265102Y1653012D02*
Y1664027D01*
X2265122Y1653012D02*
Y1664047D01*
X2265142Y1653012D02*
Y1664067D01*
X2265161Y1653012D02*
Y1664086D01*
X2265181Y1653012D02*
Y1664106D01*
X2265201Y1653012D02*
Y1664126D01*
X2265220Y1653012D02*
Y1664145D01*
X2265240Y1653012D02*
Y1664165D01*
X2265260Y1653012D02*
Y1664185D01*
X2265280Y1653012D02*
Y1664204D01*
X2265299Y1653012D02*
Y1664224D01*
X2265319Y1653012D02*
Y1664244D01*
X2265339Y1653012D02*
Y1664264D01*
X2265358Y1653012D02*
Y1664283D01*
X2265378Y1653012D02*
Y1664303D01*
X2265398Y1653012D02*
Y1664323D01*
X2265417Y1653012D02*
Y1664342D01*
X2265437Y1653012D02*
Y1664362D01*
X2265457Y1653012D02*
Y1664382D01*
X2265476Y1653012D02*
Y1664401D01*
X2265496Y1653012D02*
Y1664421D01*
X2265516Y1653012D02*
Y1664441D01*
X2265535Y1653012D02*
Y1664460D01*
X2265555Y1653012D02*
Y1664480D01*
X2265575Y1653012D02*
Y1664500D01*
X2265594Y1653012D02*
Y1664519D01*
X2265614Y1653012D02*
Y1664539D01*
X2265634Y1653012D02*
Y1664559D01*
X2265654Y1653012D02*
Y1664578D01*
X2265673Y1653012D02*
Y1664598D01*
X2265693Y1653012D02*
Y1664618D01*
X2265713Y1653012D02*
Y1664638D01*
X2265732Y1653012D02*
Y1664657D01*
X2265752Y1653012D02*
Y1664677D01*
X2265772Y1653012D02*
Y1664697D01*
X2265791Y1653012D02*
Y1664716D01*
X2265811Y1653012D02*
Y1664736D01*
X2265831Y1653012D02*
Y1664756D01*
X2265850Y1653012D02*
Y1664775D01*
X2265870Y1653012D02*
Y1664795D01*
X2265890Y1653012D02*
Y1664815D01*
X2265909Y1653012D02*
Y1664834D01*
X2265929Y1653012D02*
Y1664854D01*
X2265949Y1653012D02*
Y1664874D01*
X2265969Y1653012D02*
Y1664893D01*
X2265988Y1653012D02*
Y1664913D01*
X2266008Y1653012D02*
Y1664933D01*
X2266028Y1653012D02*
Y1664952D01*
X2266047Y1653012D02*
Y1664972D01*
X2266067Y1653012D02*
Y1664992D01*
X2266087Y1653012D02*
Y1665012D01*
X2266106Y1653012D02*
Y1665031D01*
X2266126Y1653012D02*
Y1665051D01*
X2266146Y1653012D02*
Y1665071D01*
X2266165Y1653012D02*
Y1665090D01*
X2266185Y1653012D02*
Y1665110D01*
X2266205Y1653012D02*
Y1665130D01*
X2266224Y1653012D02*
Y1665149D01*
X2266244Y1653012D02*
Y1665169D01*
X2266264Y1653012D02*
Y1665177D01*
X2266283Y1653012D02*
Y1665177D01*
X2266303Y1653012D02*
Y1665177D01*
X2266323Y1653012D02*
Y1665177D01*
X2266343Y1653012D02*
Y1665177D01*
X2266362Y1653012D02*
Y1665177D01*
X2266382Y1653012D02*
Y1665177D01*
X2266402Y1653012D02*
Y1665177D01*
X2266421Y1653012D02*
Y1665177D01*
X2266441Y1653012D02*
Y1665177D01*
X2266461Y1653012D02*
Y1665177D01*
X2266480Y1653012D02*
Y1665177D01*
X2266500Y1653012D02*
Y1665177D01*
X2266520Y1653012D02*
Y1665177D01*
X2266539Y1653012D02*
Y1665177D01*
X2266559Y1653012D02*
Y1665177D01*
X2266579Y1653012D02*
Y1665177D01*
X2266598Y1653012D02*
Y1665177D01*
X2266618Y1653012D02*
Y1665177D01*
X2266638Y1653012D02*
Y1665177D01*
X2266657Y1653012D02*
Y1665177D01*
X2266677Y1653012D02*
Y1665177D01*
X2266697Y1653012D02*
Y1665177D01*
X2266717Y1653012D02*
Y1665177D01*
X2266736Y1653012D02*
Y1665177D01*
X2266756Y1653012D02*
Y1665177D01*
X2266776Y1653012D02*
Y1665177D01*
X2266795Y1653012D02*
Y1665177D01*
X2266815Y1653012D02*
Y1665177D01*
X2266835Y1653012D02*
Y1665177D01*
X2266854Y1653012D02*
Y1665177D01*
X2266874Y1653012D02*
Y1665177D01*
X2266894Y1653012D02*
Y1665177D01*
X2266913Y1653012D02*
Y1665177D01*
X2266933Y1653012D02*
Y1665177D01*
X2266953Y1653012D02*
Y1665177D01*
X2266972Y1653012D02*
Y1665177D01*
X2266992Y1653012D02*
Y1665177D01*
X2267012Y1653012D02*
Y1665177D01*
X2267031Y1653012D02*
Y1665177D01*
X2267051Y1653012D02*
Y1665177D01*
X2267071Y1653012D02*
Y1665177D01*
X2267091Y1653012D02*
Y1665177D01*
X2267110Y1653012D02*
Y1665177D01*
X2267130Y1653012D02*
Y1665177D01*
X2267150Y1653012D02*
Y1665177D01*
X2267169Y1653012D02*
Y1665177D01*
X2267189Y1653012D02*
Y1665177D01*
X2267209Y1653012D02*
Y1665177D01*
X2267228Y1653012D02*
Y1665177D01*
X2267248Y1653012D02*
Y1665177D01*
X2267268Y1653012D02*
Y1665177D01*
X2267287Y1653012D02*
Y1665177D01*
X2267307Y1653012D02*
Y1665177D01*
X2267327Y1653012D02*
Y1665177D01*
X2267346Y1653012D02*
Y1665177D01*
X2267366Y1653012D02*
Y1665177D01*
X2267386Y1653012D02*
Y1665177D01*
X2267406Y1653012D02*
Y1665177D01*
X2267425Y1653012D02*
Y1665177D01*
X2267445Y1653012D02*
Y1665177D01*
X2267465Y1653012D02*
Y1665177D01*
X2267484Y1653012D02*
Y1665177D01*
X2267504Y1653012D02*
Y1665177D01*
X2267524Y1653012D02*
Y1665177D01*
X2267543Y1653012D02*
Y1665177D01*
X2267563Y1653012D02*
Y1665177D01*
X2267583Y1653012D02*
Y1665177D01*
X2267602Y1653012D02*
Y1665177D01*
X2267622Y1653012D02*
Y1665177D01*
X2267642Y1653012D02*
Y1665177D01*
X2267661Y1653012D02*
Y1665177D01*
X2267681Y1653012D02*
Y1665177D01*
X2267701Y1653012D02*
Y1665177D01*
X2267720Y1653012D02*
Y1665177D01*
X2267740Y1653012D02*
Y1665177D01*
X2267760Y1653012D02*
Y1665177D01*
X2267780Y1653012D02*
Y1665177D01*
X2267799Y1653012D02*
Y1665177D01*
X2267819Y1653012D02*
Y1665177D01*
X2267839Y1653012D02*
Y1665177D01*
X2267858Y1653012D02*
Y1665177D01*
X2267878Y1653012D02*
Y1665177D01*
X2267898Y1653012D02*
Y1665177D01*
X2267917Y1653012D02*
Y1665177D01*
X2267937Y1653012D02*
Y1665177D01*
X2267957Y1653012D02*
Y1665177D01*
X2267976Y1653012D02*
Y1665177D01*
X2267996Y1653012D02*
Y1665177D01*
X2268016Y1653012D02*
Y1665177D01*
X2268035Y1653012D02*
Y1665177D01*
X2268055Y1653012D02*
Y1665177D01*
X2268075Y1653012D02*
Y1665177D01*
X2268094Y1653012D02*
Y1665177D01*
X2268114Y1653012D02*
Y1665177D01*
X2268134Y1653012D02*
Y1665177D01*
X2268154Y1653012D02*
Y1665177D01*
X2268173Y1653012D02*
Y1665177D01*
X2268193Y1653012D02*
Y1665177D01*
X2268213Y1653012D02*
Y1665177D01*
X2268232Y1653012D02*
Y1665177D01*
X2268252Y1653012D02*
Y1665177D01*
X2268272Y1653012D02*
Y1665177D01*
X2268291Y1653012D02*
Y1665177D01*
X2268311Y1653012D02*
Y1665177D01*
X2268331Y1653012D02*
Y1665177D01*
X2268350Y1653012D02*
Y1665177D01*
X2268370Y1653012D02*
Y1665177D01*
X2268390Y1653012D02*
Y1665177D01*
X2268409Y1653012D02*
Y1665177D01*
X2268429Y1653012D02*
Y1665177D01*
X2268449Y1653012D02*
Y1665177D01*
X2268469Y1653012D02*
Y1665177D01*
X2268488Y1653012D02*
Y1665177D01*
X2268508Y1653012D02*
Y1665177D01*
X2268528Y1653012D02*
Y1665177D01*
X2268547Y1653012D02*
Y1665177D01*
X2268567Y1653012D02*
Y1665177D01*
X2268587Y1653012D02*
Y1665177D01*
X2268606Y1653012D02*
Y1665177D01*
X2268626Y1653012D02*
Y1665177D01*
X2268646Y1653012D02*
Y1665177D01*
X2268665Y1653012D02*
Y1665177D01*
X2268685Y1653012D02*
Y1665177D01*
X2268705Y1653012D02*
Y1665177D01*
X2268724Y1653012D02*
Y1665177D01*
X2268744Y1653012D02*
Y1665177D01*
X2268764Y1653012D02*
Y1665177D01*
X2268783Y1653012D02*
Y1665177D01*
X2268803Y1653012D02*
Y1665177D01*
X2268823Y1653012D02*
Y1665177D01*
X2268843Y1653012D02*
Y1665177D01*
X2268862Y1653012D02*
Y1665177D01*
X2268882Y1653012D02*
Y1665177D01*
X2268902Y1653012D02*
Y1665177D01*
X2268921Y1653012D02*
Y1665177D01*
X2268941Y1653012D02*
Y1665177D01*
X2268961Y1653012D02*
Y1665177D01*
X2268980Y1653012D02*
Y1665177D01*
X2269000Y1653012D02*
Y1665177D01*
X2269020Y1653012D02*
Y1665177D01*
X2269039Y1653012D02*
Y1665177D01*
X2269059Y1653012D02*
Y1665177D01*
X2269079Y1653012D02*
Y1665177D01*
X2269098Y1653012D02*
Y1665177D01*
X2269118Y1653012D02*
Y1665177D01*
X2269138Y1653012D02*
Y1665177D01*
X2269157Y1653012D02*
Y1665177D01*
X2269177Y1653012D02*
Y1665177D01*
X2269197Y1653012D02*
Y1665177D01*
X2269217Y1653012D02*
Y1665177D01*
X2269236Y1653012D02*
Y1665177D01*
X2269256Y1653012D02*
Y1665177D01*
X2269276Y1653012D02*
Y1665177D01*
X2269295Y1653012D02*
Y1665177D01*
X2269315Y1653012D02*
Y1665177D01*
X2269335Y1653012D02*
Y1665177D01*
X2269354Y1653012D02*
Y1665177D01*
X2269374Y1653012D02*
Y1665177D01*
X2269394Y1653012D02*
Y1665177D01*
X2269413Y1653012D02*
Y1665177D01*
X2269433Y1653012D02*
Y1665177D01*
X2269453Y1653012D02*
Y1665177D01*
X2269472Y1653012D02*
Y1665177D01*
X2269492Y1653012D02*
Y1665177D01*
X2269512Y1653012D02*
Y1665177D01*
X2269531Y1653012D02*
Y1665177D01*
X2269551Y1653012D02*
Y1665177D01*
X2269571Y1653012D02*
Y1665177D01*
X2269591Y1653012D02*
Y1665177D01*
X2269610Y1653012D02*
Y1665177D01*
X2269630Y1653012D02*
Y1665177D01*
X2269650Y1653012D02*
Y1665177D01*
X2269669Y1653012D02*
Y1665177D01*
X2269689Y1653012D02*
Y1665177D01*
X2269709Y1653012D02*
Y1665177D01*
X2269728Y1653012D02*
Y1665177D01*
X2269748Y1653012D02*
Y1665177D01*
X2269768Y1653012D02*
Y1665177D01*
X2269787Y1653012D02*
Y1665177D01*
X2269807Y1653012D02*
Y1665177D01*
X2269827Y1653012D02*
Y1665177D01*
X2269846Y1653012D02*
Y1665177D01*
X2269866Y1653012D02*
Y1665177D01*
X2269886Y1653012D02*
Y1665177D01*
X2269906Y1653012D02*
Y1665177D01*
X2269925Y1653012D02*
Y1665177D01*
X2269945Y1653012D02*
Y1665177D01*
X2269965Y1653012D02*
Y1665177D01*
X2269984Y1653012D02*
Y1665177D01*
X2270004Y1653012D02*
Y1665177D01*
X2270024Y1653012D02*
Y1665177D01*
X2270043Y1653012D02*
Y1665177D01*
X2270063Y1653012D02*
Y1665177D01*
X2270083Y1653012D02*
Y1665177D01*
X2270102Y1653012D02*
Y1665177D01*
X2270122Y1653012D02*
Y1665177D01*
X2270142Y1653012D02*
Y1665177D01*
X2270161Y1653012D02*
Y1665177D01*
X2270181Y1653012D02*
Y1665177D01*
X2270201Y1653012D02*
Y1665177D01*
X2270220Y1653012D02*
Y1665177D01*
X2270240Y1653012D02*
Y1665177D01*
X2270260Y1653012D02*
Y1665177D01*
X2270280Y1653012D02*
Y1665177D01*
X2270299Y1653012D02*
Y1665177D01*
X2270319Y1653012D02*
Y1665177D01*
X2270339Y1653012D02*
Y1665177D01*
X2270358Y1653012D02*
Y1665177D01*
X2270378Y1653012D02*
Y1665177D01*
X2270398Y1653012D02*
Y1665177D01*
X2270417Y1653012D02*
Y1665177D01*
X2270437Y1653012D02*
Y1665177D01*
X2270457Y1653012D02*
Y1665177D01*
X2270476Y1653012D02*
Y1665177D01*
X2270496Y1653012D02*
Y1665177D01*
X2270516Y1653012D02*
Y1665177D01*
X2270535Y1653012D02*
Y1665177D01*
X2270555Y1653012D02*
Y1665177D01*
X2270575Y1653012D02*
Y1665177D01*
X2270594Y1653012D02*
Y1665177D01*
X2270614Y1653012D02*
Y1665177D01*
X2270634Y1653012D02*
Y1665177D01*
X2270654Y1653012D02*
Y1665177D01*
X2270673Y1653012D02*
Y1665177D01*
X2270693Y1653012D02*
Y1665177D01*
X2270713Y1653012D02*
Y1665177D01*
X2270732Y1653012D02*
Y1665177D01*
X2270752Y1653012D02*
Y1665177D01*
X2270772Y1653012D02*
Y1665177D01*
X2270791Y1653012D02*
Y1665177D01*
X2270811Y1653012D02*
Y1665177D01*
X2270831Y1653012D02*
Y1665177D01*
X2270850Y1653012D02*
Y1665177D01*
X2270870Y1653012D02*
Y1665177D01*
X2270890Y1653012D02*
Y1665177D01*
X2270909Y1653012D02*
Y1665177D01*
X2270929Y1653012D02*
Y1665177D01*
X2270949Y1653012D02*
Y1665177D01*
X2270969Y1653012D02*
Y1665177D01*
X2270988Y1653012D02*
Y1665177D01*
X2271008Y1653012D02*
Y1665177D01*
X2271028Y1653012D02*
Y1665177D01*
X2271047Y1653012D02*
Y1665177D01*
X2271067Y1653012D02*
Y1665177D01*
X2271087Y1653012D02*
Y1665177D01*
X2271106Y1653012D02*
Y1665177D01*
X2271126Y1653012D02*
Y1665177D01*
X2271146Y1653012D02*
Y1665177D01*
X2271165Y1653012D02*
Y1665177D01*
X2271185Y1653012D02*
Y1665177D01*
X2271205Y1653012D02*
Y1665177D01*
X2271224Y1653012D02*
Y1665177D01*
X2271244Y1653012D02*
Y1665177D01*
X2271264Y1653012D02*
Y1665177D01*
X2271283Y1653012D02*
Y1665177D01*
X2271303Y1653012D02*
Y1665177D01*
X2271323Y1653012D02*
Y1665177D01*
X2271343Y1653012D02*
Y1665177D01*
X2271362Y1653012D02*
Y1665177D01*
X2271382Y1653012D02*
Y1665177D01*
X2271402Y1653012D02*
Y1665177D01*
X2271421Y1653012D02*
Y1665177D01*
X2271441Y1653012D02*
Y1665177D01*
X2271461Y1653012D02*
Y1665177D01*
X2271480Y1653012D02*
Y1665177D01*
X2271500Y1653012D02*
Y1665177D01*
X2271520Y1653012D02*
Y1665177D01*
X2271539Y1653012D02*
Y1665177D01*
X2271559Y1653012D02*
Y1665177D01*
X2271579Y1653012D02*
Y1665177D01*
X2271598Y1653012D02*
Y1665177D01*
X2271618Y1653012D02*
Y1665177D01*
X2271638Y1653012D02*
Y1665177D01*
X2271657Y1653012D02*
Y1665177D01*
X2271677Y1653012D02*
Y1665177D01*
X2271697Y1653012D02*
Y1665177D01*
X2271717Y1653012D02*
Y1665177D01*
X2271736Y1653012D02*
Y1665177D01*
X2271756Y1653012D02*
Y1665177D01*
X2271776Y1653012D02*
Y1665177D01*
X2271795Y1653012D02*
Y1665177D01*
X2271815Y1653012D02*
Y1665177D01*
X2271835Y1653012D02*
Y1665177D01*
X2271854Y1653012D02*
Y1665177D01*
X2271874Y1653012D02*
Y1665177D01*
X2271894Y1653012D02*
Y1665177D01*
X2271913Y1653012D02*
Y1665177D01*
X2271933Y1653012D02*
Y1665177D01*
X2271953Y1653012D02*
Y1665177D01*
X2271972Y1653012D02*
Y1665177D01*
X2271992Y1653012D02*
Y1665177D01*
X2272012Y1653012D02*
Y1665177D01*
X2272031Y1653012D02*
Y1665177D01*
X2272051Y1653012D02*
Y1665177D01*
X2272071Y1653012D02*
Y1665177D01*
X2272091Y1653012D02*
Y1665177D01*
X2272110Y1653012D02*
Y1665177D01*
X2272130Y1653012D02*
Y1665177D01*
X2272150Y1653012D02*
Y1665177D01*
X2272169Y1653012D02*
Y1665177D01*
X2272189Y1653012D02*
Y1665177D01*
X2272209Y1653012D02*
Y1665177D01*
X2272228Y1653012D02*
Y1665177D01*
X2272248Y1653012D02*
Y1665177D01*
X2272268Y1653012D02*
Y1665177D01*
X2272287Y1653012D02*
Y1665177D01*
X2272307Y1653012D02*
Y1665177D01*
X2272327Y1653012D02*
Y1665177D01*
X2272346Y1653012D02*
Y1665177D01*
X2272366Y1653012D02*
Y1665177D01*
X2272386Y1653012D02*
Y1665177D01*
X2272406Y1653012D02*
Y1665177D01*
X2272425Y1653012D02*
Y1665177D01*
X2272445Y1653012D02*
Y1665177D01*
X2272465Y1653012D02*
Y1665177D01*
X2272484Y1653012D02*
Y1665177D01*
X2272504Y1653012D02*
Y1665177D01*
X2272524Y1653012D02*
Y1665177D01*
X2272543Y1653012D02*
Y1665177D01*
X2272563Y1653012D02*
Y1665177D01*
X2272583Y1653012D02*
Y1665177D01*
X2272602Y1653012D02*
Y1665177D01*
X2272622Y1653012D02*
Y1665177D01*
X2272642Y1653012D02*
Y1665177D01*
X2272661Y1653012D02*
Y1665177D01*
X2272681Y1653012D02*
Y1665177D01*
X2272701Y1653012D02*
Y1665177D01*
X2272720Y1653012D02*
Y1665177D01*
X2272740Y1653012D02*
Y1665177D01*
X2272760Y1653012D02*
Y1665177D01*
X2272780Y1653012D02*
Y1665177D01*
X2272799Y1653012D02*
Y1665177D01*
X2272819Y1653012D02*
Y1665177D01*
X2272839Y1653012D02*
Y1665177D01*
X2272858Y1653012D02*
Y1665177D01*
X2272878Y1653012D02*
Y1665177D01*
X2272898Y1653012D02*
Y1665177D01*
X2272917Y1653012D02*
Y1665177D01*
X2272937Y1653012D02*
Y1665177D01*
X2272957Y1653012D02*
Y1665177D01*
X2272976Y1653012D02*
Y1665177D01*
X2272996Y1653012D02*
Y1665177D01*
X2273016Y1653012D02*
Y1665177D01*
X2273035Y1653012D02*
Y1665177D01*
X2273055Y1653012D02*
Y1665177D01*
X2273075Y1653012D02*
Y1665177D01*
X2273094Y1653012D02*
Y1665177D01*
X2273114Y1653012D02*
Y1665177D01*
X2273134Y1653012D02*
Y1665177D01*
X2273154Y1653012D02*
Y1665177D01*
X2273173Y1653012D02*
Y1665177D01*
X2273193Y1653012D02*
Y1665177D01*
X2273213Y1653012D02*
Y1665177D01*
X2273232Y1653012D02*
Y1665177D01*
X2273252Y1653012D02*
Y1665177D01*
X2273272Y1653012D02*
Y1665177D01*
X2273291Y1653012D02*
Y1665177D01*
X2273311Y1653012D02*
Y1665177D01*
X2273331Y1653012D02*
Y1665177D01*
X2273350Y1653012D02*
Y1665177D01*
X2273370Y1653012D02*
Y1665177D01*
X2273390Y1653012D02*
Y1665177D01*
X2273409Y1653012D02*
Y1665177D01*
X2273429Y1653012D02*
Y1665177D01*
X2273449Y1653012D02*
Y1665177D01*
X2273469Y1653012D02*
Y1665177D01*
X2273488Y1653012D02*
Y1665177D01*
X2273508Y1653012D02*
Y1665177D01*
X2273528Y1653012D02*
Y1665177D01*
X2273547Y1653012D02*
Y1665177D01*
X2273567Y1653012D02*
Y1665177D01*
X2273587Y1653012D02*
Y1665177D01*
X2273606Y1653012D02*
Y1665177D01*
X2273626Y1653012D02*
Y1665177D01*
X2273646Y1653012D02*
Y1665177D01*
X2273665Y1653012D02*
Y1665177D01*
X2273685Y1653012D02*
Y1665177D01*
X2273705Y1653012D02*
Y1665177D01*
X2273724Y1653012D02*
Y1665177D01*
X2273744Y1653012D02*
Y1665177D01*
X2273764Y1653012D02*
Y1665177D01*
X2273783Y1653012D02*
Y1665177D01*
X2273803Y1653012D02*
Y1665177D01*
X2273823Y1653012D02*
Y1665177D01*
X2273843Y1653012D02*
Y1665177D01*
X2273862Y1653012D02*
Y1665177D01*
X2273882Y1653012D02*
Y1665177D01*
X2273902Y1653012D02*
Y1665177D01*
X2273921Y1653012D02*
Y1665177D01*
X2273941Y1653012D02*
Y1665177D01*
X2273961Y1653012D02*
Y1665177D01*
X2273980Y1653012D02*
Y1665177D01*
X2274000Y1653012D02*
Y1665177D01*
X2274020Y1653012D02*
Y1665177D01*
X2274039Y1653012D02*
Y1665177D01*
X2274059Y1653012D02*
Y1665177D01*
X2274079Y1653012D02*
Y1665177D01*
X2274098Y1653012D02*
Y1665177D01*
X2274118Y1653012D02*
Y1665177D01*
X2274138Y1653012D02*
Y1665177D01*
X2274157Y1653012D02*
Y1665177D01*
X2274177Y1653012D02*
Y1665177D01*
X2274197Y1653012D02*
Y1665177D01*
X2274217Y1653012D02*
Y1665177D01*
X2274236Y1653012D02*
Y1665177D01*
X2274256Y1653012D02*
Y1665177D01*
X2274276Y1653012D02*
Y1665177D01*
X2274295Y1653012D02*
Y1665177D01*
X2274315Y1653012D02*
Y1665177D01*
X2274335Y1653012D02*
Y1665177D01*
X2274354Y1653012D02*
Y1665177D01*
X2274374Y1653012D02*
Y1665177D01*
X2274394Y1653012D02*
Y1665177D01*
X2274413Y1653012D02*
Y1665177D01*
X2274433Y1653012D02*
Y1665177D01*
X2274453Y1653012D02*
Y1665177D01*
X2274472Y1653012D02*
Y1665177D01*
X2274492Y1653012D02*
Y1665177D01*
X2274512Y1653012D02*
Y1665177D01*
X2274531Y1653012D02*
Y1665177D01*
X2274551Y1653012D02*
Y1665177D01*
X2274571Y1653012D02*
Y1665177D01*
X2274591Y1653012D02*
Y1665177D01*
X2274610Y1653012D02*
Y1665177D01*
X2274630Y1653012D02*
Y1665177D01*
X2274650Y1653012D02*
Y1665177D01*
X2274669Y1653012D02*
Y1665177D01*
X2274689Y1653012D02*
Y1665177D01*
X2274709Y1653012D02*
Y1665177D01*
X2274728Y1653012D02*
Y1665177D01*
X2274748Y1653012D02*
Y1665177D01*
X2274768Y1653012D02*
Y1665177D01*
X2274787Y1653012D02*
Y1665177D01*
X2274807Y1653012D02*
Y1665177D01*
X2274827Y1653012D02*
Y1665177D01*
X2274846Y1653012D02*
Y1665177D01*
X2274866Y1653012D02*
Y1665177D01*
X2274886Y1653012D02*
Y1665177D01*
X2274906Y1653012D02*
Y1665177D01*
X2274925Y1653012D02*
Y1665177D01*
X2274945Y1653012D02*
Y1665177D01*
X2274965Y1653012D02*
Y1665177D01*
X2274984Y1653012D02*
Y1665177D01*
X2275004Y1653012D02*
Y1665177D01*
X2275024Y1653012D02*
Y1665177D01*
X2275043Y1653012D02*
Y1665177D01*
X2275063Y1653012D02*
Y1665177D01*
G54D208*
X2374016Y1344094D02*
X1625984D01*
Y1855906*
X2374016*
Y1344094*
X2302409Y1461294D02*
G75*
G03X2302409I-3225J0D01*
G01X2247209D02*
G03X2247209I-3225J0D01*
G54D325*
G01X2139386Y1620494D03*
G54D326*
X2132685D03*
X2125984D03*
X2119283D03*
X2112583D03*
G54D327*
X2125984Y1568526D03*
G54D328*
X1660984Y1785094D03*
Y1725094D03*
G54D329*
X2334417Y1740094D03*
X2363551D03*
G54D331*
X2331850Y1799094D03*
X2320118D03*
G54D332*
X2316795Y1631094D03*
X2293173D03*
G54D333*
X2279039D03*
X2260929D03*
G54D334*
X1716484Y1763594D03*
Y1736094D03*
X1704484Y1763594D03*
Y1736094D03*
G54D335*
X2311476Y1399508D03*
X2231476D03*
G54D336*
X2258984Y1484094D03*
X2263984D03*
X2268984D03*
X2273984D03*
X2278984D03*
X2288984D03*
G54D337*
X2283984D03*
G54D354*
X2354090Y1434594D03*
Y1504594D03*
G74*
X0Y0D02*
M02*
