%
T1C.012F095S3
X0037Y03735
X0043Y0394
X00365Y04025
X00755Y0516
X0072Y0536
X0081Y05935
X00735Y0601
X00675Y06085
X0085Y06085
X00735Y061
X00915Y0614
X01125Y061
X0129Y0576
X0126Y0576
X017Y0574
X017Y0567
X0163Y0556
X0171Y0556
X0174Y0521
X01135Y04965
X01175Y04935
X01705Y0481
X0176Y04805
X01715Y0473
X01775Y04725
X0143Y0462
X0176Y0456
X0142Y04555
X01695Y0452
X01755Y04515
X0229Y0411
X02185Y0432
X0227Y0438
X02265Y04455
X0212Y04515
X023Y0455
X0211Y04555
X0212Y0466
X02Y04665
X0212Y04695
X0212Y0473
X0212Y0477
X0212Y04805
X0182Y04805
X0212Y0484
X01915Y0487
X01845Y04875
X02075Y04885
X0204Y05025
X02135Y05045
X0212Y0586
X02265Y0608
X02015Y0621
X02055Y06555
X02225Y0656
X0219Y0656
X02094Y06561
X0215Y06561
X02225Y06655
X021Y06665
X0219Y067
X01925Y06705
X0228Y06795
X0222Y06801
X02334Y06447
X027224Y063403
X027225Y062803
X027225Y062203
X027225Y061602
X0247Y0601
X0262Y0601
X02541Y0597
X0262Y0595
X0241Y0586
X0238Y0557
X0251Y0544
X02511Y05395
X02448Y05394
X0279Y05285
X02571Y0528
X02634Y05259
X02775Y0525
X02545Y0521
X02631Y05208
X02403Y05202
X02675Y05065
X02575Y05065
X0279Y05043
X0261Y05022
X02643Y05007
X02517Y04881
X02562Y04881
X02335Y0449
X02415Y04365
X02541Y04215
X02481Y04194
X02649Y04107
X02721Y0408
X02523Y0405
X0246Y0391
X02715Y0359
X02645Y0274
X02625Y02705
X02665Y0267
X0273Y02625
X02535Y025212
X027875Y02355
X03Y01505
X02835Y0239
X0283Y02625
X0326Y03765
X0328Y0391
X02862Y04047
X0299Y04155
X03175Y04225
X03015Y0426
X0311Y0451
X03105Y0466
X03165Y0468
X03275Y04895
X0328Y04955
X0296Y0502
X0314Y0519
X03085Y0529
X03105Y05325
X02838Y0552
X02853Y05556
X03065Y06035
X033Y0721
X03075Y07325
X0337Y07225
X03585Y0627
X034Y0598
X03315Y0478
X03315Y047102
X0341Y0448
T2C.016F095S3
X00225Y0358
X00615Y0372
X0061Y0393
X00345Y03935
X00255Y0449
X0025Y0455
X005Y0512
X0045Y0535
X00665Y0558
X00595Y0596
X00585Y0624
X00915Y06285
X01565Y0584
X01065Y0576
X0097Y05755
X01745Y056
X0085Y0548
X018Y05415
X0101Y0516
X0083Y0367
X0172Y03625
X0172Y0353
X0103Y0336
X00819Y0333
X01895Y01495
X0204Y01665
X02215Y02325
X01905Y02448
X01875Y0372
X02Y03955
X02295Y03985
X0218Y0411
X0199Y0438
X0199Y04585
X02305Y0479
X0188Y049925
X0188Y051
X0213Y06275
X0201Y063
X02205Y06345
X0205Y0636
X026Y0709
X0251Y0706
X026Y0701
X026Y06915
X0233Y0663
X02535Y06485
X0232Y0465
X02709Y04179
X02395Y04045
X02385Y0344
X02665Y0278
X0255Y02635
X0248Y024
X02675Y02325
X0238Y02265
X02685Y0166
X028Y0134
X0295Y0123
X03065Y0129
X03Y013
X03065Y01405
X0329Y01495
X03215Y015
X03252Y01617
X0316Y0165
X031Y0225
X0286Y02265
X03065Y02325
X029Y026
X02967Y03864
X02855Y0422
X0323Y0451
X03215Y04955
X02832Y05235
X02895Y05425
X02955Y05585
X03205Y0581
X032Y06265
X02975Y0631
X03114Y06384
X033Y065
X02945Y06825
X0281Y0708
X0332Y06835
X03501Y06432
X03585Y058
X0366Y0562
X03705Y0487
X03485Y0471
X0377Y02465
X03375Y0238
X0378Y0235
X0368Y0163
X03475Y01615
X03795Y0159
X03795Y015275
X03645Y01525
X03345Y01465
X0364Y0143
X0363Y0114
X03575Y0099
X03755Y00845
X0374Y0071
X03865Y01095
T3C.02F197S55
X018958Y047779
X018948Y048299
T4C.025F197S55
X0022Y028
X0016Y028
X0008Y0282
X0016Y0286
X0022Y0286
X0008Y029
X0016Y0292
X0016Y0298
X0008Y0298
X0022Y03
X0016Y0304
X0008Y0306
X0024Y0306
X0012Y045
X002Y0454
X0012Y0458
X0022Y0464
X0012Y0464
X0012Y047
X0022Y047
X0022Y0476
X00123Y04761
X0012Y0482
X0022Y0482
X0022Y0488
X0012Y0488
X0022Y0494
X0012Y0494
X0022Y05
X00123Y05004
X00085Y0577
X0008Y0586
X0016Y0586
X0026Y0586
X003Y063
X0006Y0632
X0018Y0632
X005Y071
X005Y07
X0052Y0656
X005Y0642
X0046Y063
X005Y0604
X005Y0596
X005Y0588
X005Y0452
X0048Y0444
X0046Y0434
X0036Y0434
X0036Y0424
X0046Y0424
X0032Y0366
X0042Y03645
X0051Y03624
X00417Y03534
X00513Y03534
X00417Y03435
X0051Y03435
X0048Y0338
X0042Y03312
X00516Y03303
X0046Y0324
X00417Y03186
X0051Y03177
X0048Y0306
X0042Y0306
X0054Y0306
X0032Y0306
X0032Y0282
X0042Y0282
X0052Y0282
X006Y0318
X006Y0328
X007Y036
X00615Y03624
X00726Y03654
X0066Y037
X00723Y0375
X0076Y0386
X007Y0386
X0072Y0392
X0078Y0392
X0066Y0392
X0072Y04
X0066Y04
X006Y04
X0078Y04
X0056Y0424
X0056Y0436
X0056Y0446
X0064Y0452
X0056Y0456
X0062Y0462
X00735Y0467
X00755Y0495
X0066Y0568
X0058Y0604
X0062Y0642
X008Y065
X0058Y0668
X008Y067
X007Y067
X008Y068
X007Y068
X0056Y0686
X006Y0696
X007Y0696
X0078Y0704
X0068Y0706
X006Y0708
X0078Y0712
X0068Y0716
X0078Y0724
X0066Y0726
X0066Y0736
X0078Y0736
X0078Y0744
X00789Y07521
X0092Y0752
X0102Y0752
X0102Y0744
X0092Y0744
X0102Y0736
X0092Y0736
X0102Y0724
X0092Y0724
X0102Y0712
X0092Y0712
X0102Y0704
X0092Y0704
X0098Y0696
X0086Y0696
X01Y068
X009Y068
X009Y067
X01Y067
X0086Y0658
X0096Y0658
X01Y065
X0082Y05705
X0082Y05585
X00897Y04554
X0099Y04551
X0099Y0444
X00891Y04437
X0099Y04332
X00897Y04329
X00903Y04227
X0099Y04221
X0083Y0407
X0094Y0407
X0102Y0396
X0096Y0396
X0096Y0388
X0102Y0388
X0082Y0374
X0082Y036
X0114Y03755
X0108Y0388
X0114Y0388
X0114Y0396
X0108Y0396
X01293Y04242
X01092Y04248
X01191Y04251
X01086Y04329
X01185Y04332
X0129Y04332
X01284Y04431
X01188Y04434
X01083Y04434
X01284Y04542
X01173Y04548
X0108Y04548
X01175Y0517
X0111Y0536
X01235Y0536
X0117Y0536
X013Y0602
X0126Y0608
X0106Y0608
X013Y0614
X013Y0622
X0128Y064
X012Y0648
X0112Y0658
X011Y067
X0122Y067
X0122Y068
X011Y068
X0122Y0692
X0112Y0694
X0112Y0704
X0124Y0704
X0112Y0714
X0122Y0714
X0122Y0724
X0112Y0724
X0122Y0736
X0112Y0736
X0122Y0744
X0112Y0744
X0112Y0752
X0122Y0752
X0132Y0752
X0132Y0744
X0132Y0736
X0146Y0732
X0132Y0724
X0148Y072
X0132Y0714
X0152Y0712
X0134Y0704
X0146Y0704
X0136Y0692
X0146Y0692
X015Y0686
X0132Y068
X0144Y068
X0152Y0674
X0132Y067
X0144Y067
X0152Y0662
X0142Y0654
X0148Y0646
X014Y0642
X0148Y0634
X014Y063
X0148Y0624
X0138Y0624
X014Y0618
X015Y0616
X0134Y0608
X0142Y0608
X015Y0608
X0154Y0606
X0154Y0602
X0138Y0602
X0146Y0602
X01374Y03753
X01335Y0348
X01415Y03375
X01335Y03375
X01335Y0328
X0146Y01785
X01805Y01635
X01737Y02673
X0177Y03085
X01614Y03492
X01617Y03603
X01629Y03705
X01629Y03792
X01655Y04065
X01655Y0417
X0176Y0422
X0176Y043
X0176Y0436
X0176Y0442
X0162Y0506
X0158Y0514
X0162Y0518
X0162Y058
X0162Y0588
X0156Y0588
X0168Y0588
X0162Y0602
X0172Y0604
X0162Y0608
X0178Y0608
X017Y0612
X0158Y0618
X017Y062
X016Y0626
X0168Y063
X0156Y063
X0162Y0634
X017Y064
X0156Y0642
X0176Y065
X0164Y065
X0156Y0654
X017Y0656
X016Y0662
X0156Y067
X016Y0674
X0156Y068
X0164Y068
X016Y0686
X0156Y0692
X0164Y0692
X0156Y0704
X0156Y072
X0156Y0732
X0178Y0758
X02Y0758
X0194Y0758
X0186Y0758
X0216Y0758
X0208Y0758
X0224Y0758
X0216Y075
X0224Y075
X02Y0742
X0206Y0742
X0206Y0736
X02Y0736
X0206Y073
X02Y073
X0206Y0724
X02Y0724
X0206Y0718
X02Y0718
X02301Y06267
X02238Y06267
X02307Y06192
X02235Y06192
X02238Y06129
X0206Y0604
X0194Y06
X02151Y05949
X0206Y0586
X0218Y0556
X0212Y0556
X0218Y0548
X0212Y0548
X0218Y0542
X0212Y0542
X0202Y05355
X0212Y0534
X0218Y0534
X02215Y0514
X02028Y04962
X0194Y0442
X0196Y0434
X0222Y0426
X0212Y0422
X019Y040075
X0222Y0376
X0218Y037
X0226Y037
X0208Y0354
X0228Y0354
X0218Y0354
X0214Y03445
X0216Y03035
X02275Y0245
X02225Y01555
X0184Y01455
X0239Y0134
X02514Y01554
X0252Y0171
X02365Y0245
X0249Y02765
X024Y0354
X024Y0366
X0233Y0416
X0276Y04205
X0276Y04415
X02382Y04416
X0276Y045
X027Y045
X0264Y045
X0246Y0456
X0252Y0456
X0258Y0456
X0264Y0456
X027Y0456
X0276Y0456
X0246Y0462
X0276Y0462
X0258Y0462
X027Y0462
X0252Y0462
X0264Y0462
X0252Y0468
X027Y0468
X0258Y0468
X0264Y0468
X0276Y0468
X0246Y0468
X0258Y0474
X0252Y0474
X0246Y0474
X0276Y0474
X027Y0474
X0264Y0474
X0252Y048
X0246Y048
X0258Y048
X027Y048
X0276Y048
X0264Y048
X02385Y0493
X0252Y0562
X02675Y059
X0231Y06135
X02376Y06141
X02373Y06201
X02367Y06264
X0278Y06395
X0248Y0684
X0244Y069
X0252Y069
X0246Y0704
X028Y0732
X028Y0738
X0264Y0742
X0258Y0742
X028Y0746
X028Y0752
X028Y0758
X03Y0736
X03Y073
X03Y0722
X0302Y0682
X0302Y0654
X03015Y06395
X0304Y0598
X0304Y0588
X0304Y0576
X02895Y0524
X0286Y04955
X0288Y048
X0282Y048
X0288Y0474
X0282Y0474
X0294Y0474
X0294Y0468
X0288Y0468
X0282Y0468
X0282Y0462
X0288Y0462
X0295Y0459
X0282Y0456
X0288Y0456
X0288Y045
X0282Y045
X02811Y0327
X0281Y0292
X03027Y0243
X0289Y015525
X03365Y00375
X0327Y0241
X0354Y0382
X0348Y039
X0354Y039
X0348Y0396
X0354Y0396
X0354Y0402
X0348Y0402
X0312Y0426
X0308Y0432
X0314Y0432
X0354Y045
X0312Y0459
X031Y0572
X0318Y0574
X031Y0582
X0318Y0588
X031Y0594
X0346Y0596
X0352Y0602
X0346Y0608
X0354Y0608
X0312Y0654
X0336Y0654
X0322Y0654
X0316Y066
X033Y066
X0344Y0694
X0352Y07
X0352Y0706
X0352Y0712
X0352Y0718
X035Y07245
X0358Y0718
X0358Y0712
X0374Y071
X0366Y071
X0358Y0706
X0364Y0702
X0364Y0694
X0356Y0694
X0359Y06825
X0362Y0604
X0366Y0464
X036Y0464
X036Y0458
X0366Y0458
X0372Y0456
X0366Y045
X038Y045
X036Y045
X0372Y0448
X0356Y0444
X0364Y0444
X036Y044
X0372Y0438
X0364Y0436
X0356Y0436
X0378Y0422
X0378Y0416
X0378Y0408
X036Y0402
X0378Y0402
X0378Y0396
X036Y0396
X036Y039
X0378Y039
X0373Y025755
X03705Y00635
X0384Y024
X0384Y025
X0386Y0692
X0386Y0698
X0386Y0706
X0382Y071
T5C.02756F197S55
X027Y0094
X03Y0094
X029Y0094
X03Y0114
X029Y0114
X027Y0114
X031Y0114
X031Y0094
T6C.03F197S55
X020002Y036196
X037898Y043854
X037898Y045604
T7C.0315F197S55
X023152Y036196
X034748Y043854
X034748Y045604
T8C.0315F197S55
X00375Y0048
X00575Y0048
X020248Y069103
X019248Y069103
X018248Y069103
X018748Y070103
X019748Y070103
X021748Y070103
X020748Y070103
X021248Y069103
X0368Y041946
X036831Y038954
T9C.032F197S55
X03015Y03085
X03215Y03085
X03115Y03085
X03015Y03685
X03215Y03685
X03115Y03685
X03415Y03685
X03315Y03685
T10C.03346F197S55
X0248Y005266
X03Y005266
X03Y007234
X0248Y007234
T11C.035F197S55
X02415Y07525
X02515Y07525
X02615Y07525
X02715Y07525
X0293Y07525
X0303Y07525
X0313Y07525
X0323Y07525
X0333Y07525
X0343Y07525
X0377Y0554
X0377Y0544
X0377Y0534
X0377Y0524
X0377Y0514
X0377Y0504
T12C.03543F197S55
X001922Y038022
X001922Y039006
X001922Y039794
X001922Y040778
X017378Y074198
X018362Y074198
X021591Y074198
X022575Y074198
T13C.039F197S55
X015312Y056518
T14C.03937F197S55
X015976Y004603
X013024Y004997
T15C.04724F139S55
X0187Y0107
X0217Y0107
T16C.05118F107S55
X0217Y0047
X0187Y0057
T17C.05512F107S55
X012276Y002362
X014276Y002362
X016276Y002362
X018276Y002362
T18C.05905F107S55
X002263Y008102
X009153Y008102
X003247Y029362
X005216Y029362
X007184Y029362
X009153Y029362
X002945Y066054
X000997Y066054
X001971Y067028
X000997Y068003
X002945Y068003
X011121Y029362
X01309Y029362
X016043Y008102
T19C.05906F107S55
X005512Y002362
X00748Y002362
X009449Y002362
T20C.06F089S55
X005469Y056518
T21C.064F089S55
X023047Y071363
T22C.065F089S55
X016945Y071363
T23C.06693F089S55
X02295Y002
X02445Y002
X02595Y002
X02745Y002
X03745Y0698
X03745Y0683
X03745Y0668
X03745Y0653
X03745Y06255
X03745Y06105
X03745Y05955
X03745Y05805
X03745Y03605
X03745Y03455
X03745Y03305
X03745Y03155
X03345Y002
X03195Y002
X03045Y002
X02895Y002
T24C.09843F066S55
X000978Y036813
X000978Y041987
T25C.13F035S794
X017748Y072584
X022248Y072584
T26C.14961F035S9
X00562Y075475
X015162Y075475
T27C.17717F035S1033
X001964Y002069
X037419Y002069
X037419Y074762
X001964Y074762
M30
