%
T1C.012F095S3
X0054Y00445
X00445Y0045
X00735Y0061
X00725Y0066
X0064Y00695
X00685Y00745
X00695Y0078
X0067Y00845
X00595Y0115
X00555Y0115
X00748Y01204
X00515Y01235
X00556Y01244
X00668Y01276
X0028Y0129
X00624Y01304
X00775Y01395
X00596Y01396
X00636Y01404
X00668Y01428
X007Y0146
X00596Y01492
X00776Y01496
X0054Y01635
X00572Y01676
X00475Y017
X00555Y01715
X00455Y01735
X0044Y0178
X0024Y02916
X00728Y02948
X00308Y0298
X00728Y03044
X00616Y0306
X00616Y03772
X0071Y0527
X00676Y053
X0076Y05332
X00755Y05405
X00655Y055
X00852Y05472
X00815Y05455
X0089Y05455
X0095Y05125
X00968Y0478
X01015Y0439
X00852Y02976
X00932Y02948
X00895Y01495
X00835Y01495
X00965Y01485
X00868Y0146
X00925Y0146
X00805Y0146
X00804Y0136
X00824Y0132
X00868Y0132
X00948Y0128
X00872Y0128
X00892Y01088
X00948Y01084
X0098Y00925
X009Y00915
X00875Y00775
X00835Y0077
X00865Y00728
X0112Y00585
X0105Y00585
X01192Y00944
X01156Y01035
X0109Y01045
X0104Y0105
X0106Y0121
X0122Y0128
X01156Y01312
X01128Y0134
X01112Y01468
X0107Y01505
X0111Y0151
X01075Y01635
X01095Y01665
X01148Y01692
X01096Y01704
X01064Y0286
X01068Y03456
X01128Y03456
X01068Y03516
X01052Y03596
X0112Y04344
X01164Y0438
X0105Y0449
X01092Y04532
X01168Y04576
X01088Y046
X012Y04628
X0113Y04765
X0125Y04765
X0121Y04765
X0117Y04765
X0117Y0483
X0113Y0483
X0121Y0483
X0125Y0483
X01175Y04895
X0125Y04895
X01215Y04895
X01135Y04895
X011Y0501
X0118Y0504
X012Y0517
X011Y0519
X01216Y05468
X01092Y05624
X0129Y05635
X0138Y05456
X0176Y0525
X01675Y05205
X01764Y05072
X01732Y05072
X017Y05072
X01668Y05072
X01632Y05072
X01764Y05028
X01728Y05028
X01696Y05028
X01664Y05028
X01632Y05028
X01532Y04932
X01568Y0488
X01676Y0488
X01725Y04875
X01584Y04768
X01525Y0471
X0149Y0459
X01764Y04352
X0158Y0428
X013Y03925
X014Y0392
X016Y03915
X01588Y03164
X01516Y03164
X01644Y03016
X01764Y02876
X01744Y02836
X01632Y02764
X014Y02584
X01352Y0258
X0172Y02288
X01672Y02288
X01632Y02244
X0172Y02144
X01592Y01584
X01724Y01324
X0156Y0112
X01445Y0109
X01565Y0107
X0175Y00915
X0182Y01132
X0179Y01415
X0205Y0148
X01852Y01512
X02196Y01956
X0216Y01964
X02116Y0208
X0208Y02108
X02244Y02148
X01836Y02176
X02208Y02316
X0218Y02344
X02268Y02376
X02228Y023891
X022Y0256
X02152Y0258
X02001Y02585
X02101Y02585
X0183Y02755
X02008Y03
X02052Y03
X01992Y0304
X0208Y03304
X01912Y03368
X01968Y03852
X0198Y03888
X0191Y03915
X0202Y04112
X0218Y04112
X018988Y041228
X0195Y04125
X021Y04296
X01908Y04316
X01936Y04348
X01868Y04396
X0183Y0519
X0191Y05365
X02545Y0475
X02428Y04748
X02675Y0464
X02625Y0464
X02735Y0439
X02535Y0439
X0247Y04365
X02424Y04328
X023Y04305
X026Y04105
X0255Y04105
X02488Y02936
X02416Y02872
X02384Y02796
X02476Y02776
X02352Y0276
X02524Y02584
X02424Y0258
X02384Y02576
X023Y02572
X02672Y02568
X02752Y02564
X0254Y02404
X02472Y02404
X02624Y02396
X0258Y02392
X02744Y02176
X02664Y02148
X02672Y02096
X02724Y02092
X02444Y01928
X023Y0191
X0244Y01884
X023Y0186
X02448Y01828
X02545Y0171
X025Y01684
X0246Y01684
X02756Y01488
X02376Y0144
X02745Y01135
X028Y0092
X0287Y00925
X028Y0108
X028Y01515
X028Y01732
X0316Y01816
X03044Y01824
X03084Y01828
X02792Y02096
X02952Y02164
X03024Y02176
X02888Y024
X02852Y02404
X02952Y02404
X03Y02405
X028Y02564
X02888Y02572
X03Y02572
X0285Y02575
X03251Y02576
X02952Y0258
X03051Y0258
X028Y02764
X03075Y0283
X0285Y03855
X02865Y039
X02856Y043
X02975Y04665
X0291Y05125
X03628Y04988
X03705Y04985
X03755Y04985
X03705Y04825
X03755Y04825
X03655Y028
X03645Y027
X0364Y0264
X03645Y02585
X03324Y0258
X0353Y02535
X03776Y02464
X03635Y02464
X03296Y0236
X03292Y02312
X03412Y01876
X0344Y01844
X03708Y01564
X0374Y01528
X03735Y01155
X0371Y0109
X0378Y0092
X0371Y00915
X0384Y02328
X03808Y02372
X03932Y02412
X03812Y02448
X03936Y02452
X03884Y02468
X0393Y02625
X039952Y026798
X03985Y028
X04212Y02844
X0418Y0291
X0393Y0292
X0423Y0309
X0404Y0313
X0407Y0453
X03796Y04765
X03796Y04824
X046939Y0482
X046175Y039275
X0467Y03895
X046Y03865
X04525Y03835
X047Y03805
X0463Y03775
X047Y03725
X0466Y03725
X04695Y0368
X04685Y0318
X0477Y03025
X04605Y03
X04568Y02932
X04375Y02855
X04425Y02855
X04524Y02676
X0446Y02644
X0476Y025
X04528Y02464
X0462Y02436
X04784Y01952
X04752Y01916
X04712Y01904
X04784Y0124
X04565Y0121
X04615Y0089
X04585Y00835
X04856Y01912
X04816Y01912
X0528Y01988
X04836Y024
X04888Y02408
X04936Y02416
X04864Y02472
X04818Y02474
X0512Y0272
X05065Y0283
X0483Y02895
X05105Y03075
X0513Y0311
X05036Y03392
X04885Y03415
X05005Y03425
X05005Y03515
X05035Y03535
X04975Y0358
X0527Y0367
X05135Y03745
X05225Y03755
X0498Y03855
X0499Y0389
X05095Y0399
X04912Y0482
X05512Y04992
X05412Y04952
X05412Y04892
X05412Y04844
X05472Y04416
X05528Y03688
X05588Y03684
X0532Y03668
X05492Y03384
X0536Y02588
X05328Y02572
X0529Y02545
X05524Y02528
X05464Y02416
X05536Y02416
X05416Y02024
X053099Y020101
X05424Y01972
X0536Y0159
X05645Y01165
X05395Y0116
X05356Y01092
X05636Y01092
X05576Y00672
X05295Y00665
X0563Y00625
X05355Y0061
X05668Y005
X05392Y00496
X05352Y0038
X056545Y00356
X06335Y0039
X06512Y01912
X06056Y01932
X05984Y01932
X06376Y02596
X0644Y02596
X0644Y02652
X06495Y0299
X0634Y03396
X05935Y0348
X06332Y03508
X06264Y03888
X0592Y03955
X06264Y03968
X05995Y04255
X0618Y0438
X0618Y0458
X06176Y04764
X06172Y0496
X06932Y038
X06836Y03692
X06596Y03684
X0672Y0368
X06664Y03596
X06792Y03588
X06812Y03456
X067Y03416
X06828Y03244
X06732Y03044
X0682Y0302
X06605Y02995
X0658Y01912
X0659Y0117
X07068Y02092
X07048Y02164
X07192Y02344
X07164Y0286
X07908Y04524
X0868Y0491
X08564Y0472
X08416Y04716
X085Y04292
X08468Y04252
X08812Y04196
X08676Y03896
X08676Y03804
X0846Y03168
X098Y0155
X09724Y01836
X0996Y01968
X09764Y02036
X10028Y0214
X0988Y02156
X09984Y02264
X09884Y02376
X09884Y02696
X0904Y03904
X09096Y03904
X09175Y0415
X091Y0415
X10164Y02332
X101Y0226
X10184Y02032
X10085Y01545
T2C.015F095S3
X0219Y015
T3C.016F095S3
X0028Y0004
X0022Y0004
X0016Y0004
X001Y0004
X0004Y0004
X0028Y001
X0022Y001
X0016Y001
X001Y001
X0004Y001
X0022Y0016
X001Y0016
X0016Y0016
X0004Y0016
X0016Y0022
X001Y0022
X0004Y0022
X0016Y0028
X001Y0028
X0004Y0028
X0028Y0034
X0022Y0034
X0016Y0034
X001Y0034
X0004Y0034
X0004Y004
X001Y004
X0016Y004
X0022Y004
X0028Y004
X0028Y0046
X0022Y0046
X0016Y0046
X001Y0046
X0004Y0046
X0028Y0052
X0022Y0052
X0016Y0052
X001Y0052
X0004Y0052
X00096Y01492
X00184Y015
X00035Y01775
X0018Y018
X00035Y0184
X0018Y0186
X00035Y01895
X0018Y0192
X00035Y01955
X0018Y0198
X00035Y0202
X0018Y0204
X00035Y0208
X0018Y021
X00035Y0214
X0018Y0216
X00035Y02195
X0018Y0222
X00035Y02265
X0018Y0228
X00035Y02325
X0018Y0234
X00035Y0238
X0018Y024
X00035Y02445
X0018Y0246
X00035Y02495
X0018Y0252
X00035Y0256
X0018Y0258
X00035Y02635
X0018Y0264
X00035Y02695
X0018Y027
X00035Y02745
X0018Y0276
X00035Y0281
X0018Y0282
X00035Y0287
X0018Y0288
X00035Y0293
X0018Y0294
X00035Y0298
X0018Y03
X00035Y0305
X0018Y0306
X00035Y0311
X0018Y0312
X00035Y03165
X0028Y0378
X0028Y0384
X0028Y039
X0028Y0396
X00035Y0402
X001Y0402
X0028Y0402
X0028Y0408
X001Y0408
X0004Y0408
X0028Y0414
X001Y0414
X0004Y0414
X001Y042
X0004Y042
X001Y0426
X0004Y0426
X001Y0432
X0004Y0432
X001Y0438
X0004Y0438
X001Y0444
X0004Y0444
X001Y045
X0004Y045
X001Y0456
X0004Y0456
X001Y0462
X0004Y0462
X001Y0468
X0004Y0468
X00272Y0474
X001Y0474
X0004Y0474
X001Y048
X0004Y048
X001Y0486
X0004Y0486
X001Y0492
X0004Y0492
X001Y0498
X0004Y0498
X001Y0504
X0004Y0504
X001Y051
X0004Y051
X0004Y05165
X00095Y05165
X00045Y05225
X00095Y05225
X0026Y0578
X0036Y0586
X005Y0574
X005Y0568
X0042Y0564
X0038Y045
X00384Y03884
X00332Y03632
X0036Y0344
X003Y0338
X0034Y03272
X0036Y0314
X0048Y015
X00332Y015
X0034Y014
X0048Y0138
X0048Y0108
X0044Y005
X003Y0028
X003Y0022
X0036Y0016
X003Y0016
X0052Y0016
X0052Y001
X0034Y001
X0052Y0004
X004Y0004
X0046Y0004
X0034Y0004
X0076Y0004
X007Y0004
X0064Y0004
X0058Y0004
X007Y001
X0064Y001
X0058Y001
X007Y0016
X0064Y0016
X0058Y0016
X0066Y0048
X0054Y0052
X0066Y0062
X0054Y0084
X0054Y009
X0066Y0114
X0064Y0118
X00724Y01636
X006Y0206
X007Y0222
X0074Y0226
X006Y0226
X0076Y023
X006Y0234
X0078Y0234
X0072Y0242
X006Y0242
X006Y0248
X0072Y0248
X0072Y0254
X006Y0254
X0072Y026
X006Y026
X0072Y0266
X006Y0266
X0072Y0272
X006Y0272
X006Y0278
X0072Y0278
X0056Y0306
X0068Y0324
X0056Y0324
X0068Y0338
X0054Y0338
X0068Y0344
X0054Y0344
X0054Y0352
X0068Y0352
X0054Y0362
X0068Y0362
X0054Y0368
X0068Y0368
X0068Y038
X0054Y038
X0066Y0386
X0054Y0386
X0054Y0392
X0078Y0396
X0054Y0398
X0076Y0402
X0054Y0404
X0054Y041
X0076Y0414
X0054Y0416
X0076Y0422
X0076Y0428
X0056Y0428
X0056Y0434
X0076Y0434
X0054Y0442
X0076Y0444
X0078Y0456
X0056Y046
X0078Y0472
X0056Y0472
X0056Y0484
X0056Y0496
X007Y0504
X007Y051
X007Y0516
X0059Y05215
X007Y0522
X006Y0542
X0054Y0542
X00856Y05356
X009Y05356
X0086Y0512
X0086Y0506
X00988Y04896
X0082Y04875
X00864Y04804
X0092Y0462
X0082Y0462
X009Y0444
X0082Y0444
X0088Y0434
X0088Y0428
X0088Y0394
X009Y039
X009Y0384
X009Y0378
X0094Y036
X0082Y036
X0084Y0352
X0096Y0352
X0084Y0338
X0096Y0338
X0086Y0322
X0098Y0322
X009Y0278
X0084Y0278
X0084Y0272
X0084Y0266
X0084Y0248
X0084Y0242
X009Y0234
X0088Y023
X00924Y01628
X0102Y0078
X0102Y0072
X00945Y0061
X0088Y0004
X0094Y0004
X0082Y0004
X01Y0004
X0124Y0004
X0118Y0004
X0112Y0004
X0106Y0004
X0148Y0004
X0142Y0004
X0136Y0004
X013Y0004
X0126Y0008
X015Y0008
X0144Y0008
X0138Y0008
X0132Y0008
X0142Y0058
X0122Y006
X01416Y00672
X01416Y0074
X012Y0078
X0112Y008
X0142Y0082
X0142Y0094
X01424Y0102
X01205Y01075
X01224Y01204
X01396Y01376
X012Y01692
X0138Y0178
X01452Y01828
X0138Y019
X01448Y0192
X0148Y0202
X0118Y028
X0124Y028
X0148Y028
X0142Y028
X0136Y028
X013Y028
X012Y0288
X0126Y0288
X015Y0288
X0144Y0288
X0138Y0288
X0132Y0288
X014Y0318
X011Y0322
X013Y0322
X0122Y0322
X014Y033
X013Y0334
X0122Y0336
X014Y0342
X013Y0346
X0122Y0348
X014Y0354
X013Y0358
X014Y0366
X013Y037
X014Y0378
X013Y0382
X014Y039
X0134Y04492
X01396Y04608
X01344Y04608
X0126Y04632
X0131Y05035
X0114Y05165
X0126Y05465
X0176Y039
X016Y0388
X0176Y0384
X016Y0382
X0176Y0378
X016Y0376
X0176Y0372
X016Y037
X0176Y0366
X016Y0364
X0176Y036
X016Y0358
X0176Y0354
X016Y0352
X0176Y0348
X016Y0346
X0176Y0342
X016Y034
X0176Y0336
X016Y0334
X0176Y033
X016Y0328
X0176Y0324
X016Y0322
X0162Y0312
X0156Y0288
X016Y028
X0154Y028
X0166Y021
X016Y0204
X0172Y0202
X0158Y0194
X01752Y019
X01724Y01832
X0158Y0182
X0158Y017
X0154Y0096
X0162Y0008
X0174Y0008
X0168Y0008
X0156Y0008
X0178Y0004
X016Y0004
X0154Y0004
X0166Y0004
X0172Y0004
X0196Y0004
X019Y0004
X0184Y0004
X0202Y0004
X018Y0008
X0198Y0008
X0192Y0008
X0186Y0008
X02028Y01032
X0194Y0124
X019Y0134
X01888Y01592
X0188Y0176
X0184Y01836
X01824Y01932
X0194Y0194
X0198Y02096
X02028Y021
X0192Y021
X0186Y021
X01952Y02752
X01995Y028
X01895Y02805
X01945Y02865
X01885Y0287
X01995Y02875
X01955Y0299
X019Y033
X0192Y034
X0192Y0346
X0192Y0352
X0192Y0358
X0192Y0364
X0192Y037
X0192Y0376
X0192Y0382
X01936Y05252
X0202Y0584
X0226Y0584
X0214Y0584
X0216Y057
X0216Y0558
X0214Y055
X02165Y03885
X02188Y03848
X02225Y0365
X02275Y0316
X02125Y0288
X0212Y0279
X0218Y02396
X0222Y0186
X021Y0186
X0216Y0186
X0208Y017
X0222Y0168
X0216Y0168
X02116Y01188
X022Y0106
X02172Y00828
X0208Y00828
X0206Y0044
X0212Y0044
X02528Y00444
X02528Y00564
X0242Y0057
X02285Y006
X02528Y00684
X02528Y00804
X024Y0094
X0248Y0102
X0248Y0114
X02365Y0149
X02305Y0157
X02404Y01612
X02295Y01615
X023Y0278
X02415Y02945
X0232Y02945
X0251Y03165
X0241Y03165
X0237Y03295
X0247Y03295
X025Y03535
X02345Y0355
X023Y0456
X0242Y0584
X0272Y0584
X0258Y0584
X0272Y0564
X0258Y0564
X02732Y05168
X0268Y03535
X02745Y03295
X02595Y0329
X02615Y03155
X0275Y0315
X02752Y02812
X02724Y024
X0254Y0214
X02624Y0214
X02612Y0206
X0266Y01728
X02732Y01728
X02612Y0154
X02616Y01472
X02712Y01196
X026Y0114
X0254Y0114
X0268Y0112
X0266Y0104
X02732Y01032
X026Y0102
X0254Y0102
X0286Y0014
X0298Y0014
X0322Y0014
X031Y0014
X0294Y002
X03Y003
X03Y0036
X03Y0042
X03Y0048
X0312Y0082
X0312Y0088
X0308Y0092
X0298Y00948
X02836Y01
X02972Y01012
X03215Y0107
X03215Y0118
X0328Y01208
X0286Y0138
X0286Y0142
X03168Y01432
X03148Y01616
X0308Y01744
X0301Y01745
X03Y02764
X03232Y02796
X03275Y03125
X03105Y03135
X02945Y0315
X03215Y0327
X03025Y0328
X02905Y03285
X0314Y03535
X02895Y03545
X03015Y03545
X029Y0461
X03056Y04664
X02924Y04668
X03092Y04724
X03036Y04728
X0288Y0562
X0306Y0562
X0322Y0562
X029Y0584
X0306Y0584
X0322Y0584
X0352Y0584
X0336Y0584
X0352Y0562
X0334Y0562
X0334Y04544
X0334Y04484
X0336Y03545
X0351Y03545
X03468Y0328
X0336Y03275
X03495Y03125
X03425Y02485
X03505Y0247
X0343Y0241
X0352Y024
X03352Y0238
X0344Y01596
X0342Y0114
X033Y0114
X0342Y0108
X033Y0102
X0342Y0096
X033Y009
X0342Y0084
X033Y0078
X0342Y0072
X0336Y0042
X0336Y003
X0336Y0018
X0398Y0014
X039Y0014
X037Y0016
X0382Y0016
X0368Y0028
X0388Y0036
X0382Y0038
X0368Y0042
X0388Y0048
X0382Y005
X0356Y0054
X0368Y0054
X0398Y007
X0402Y0078
X0402Y0084
X0396Y0084
X039Y0084
X04Y0094
X03748Y01
X04Y01
X03884Y01016
X0364Y01036
X03572Y0104
X03992Y01048
X03852Y01064
X0364Y0116
X0358Y0116
X03656Y01208
X0384Y0138
X0384Y0142
X03584Y01472
X0396Y0152
X0362Y01568
X0396Y0158
X0402Y0158
X0372Y0162
X0378Y0162
X0399Y0168
X03955Y0178
X03775Y0182
X03615Y02395
X03685Y03125
X03825Y0313
X0371Y03285
X0358Y03285
X0381Y03285
X03645Y0355
X03825Y03555
X0392Y0454
X0385Y0455
X0402Y0522
X0368Y0562
X0388Y0566
X0388Y0584
X0368Y0584
X0422Y0584
X041Y0584
X0412Y0566
X0424Y0564
X0416Y054
X0404Y054
X0428Y0522
X0416Y0522
X04235Y0446
X04275Y0421
X04115Y042
X0412Y0403
X04085Y0394
X0428Y039
X0424Y0194
X0424Y017
X0408Y0158
X04148Y01572
X04148Y01208
X0424Y012
X0428Y0098
X0424Y0088
X0424Y0076
X0408Y0014
X0436Y007
X0436Y0082
X0436Y0094
X0436Y0106
X04516Y011
X0444Y0114
X04525Y01405
X0436Y015
X0448Y017
X0442Y017
X043Y017
X0436Y017
X0442Y0182
X043Y0182
X0448Y0194
X0436Y0194
X04415Y03895
X045Y0421
X04305Y0446
X04524Y0446
X04375Y0446
X0448Y04544
X0442Y0522
X0446Y0538
X0432Y054
X0434Y0564
X0446Y0566
X0434Y0584
X0446Y0584
X0474Y0584
X046Y0584
X0496Y0584
X0486Y0584
X047Y0568
X0482Y0568
X0458Y0564
X0478Y054
X0462Y054
X0494Y054
X0478Y0522
X046Y0522
X049Y0522
X0464Y0453
X04792Y0446
X04972Y0442
X0469Y042
X0462Y0406
X05005Y0347
X04624Y02608
X04576Y02608
X0466Y0194
X0454Y0182
X0454Y017
X0488Y016
X04556Y01556
X0488Y0148
X0492Y014
X0488Y0136
X049Y0124
X0492Y0114
X05032Y01084
X05032Y00964
X0482Y0086
X0488Y0086
X05032Y00844
X04648Y00752
X04545Y00395
X0545Y0144
X05396Y01504
X0542Y0162
X0542Y0174
X055Y0202
X05128Y0242
X05144Y0248
X05476Y0274
X05396Y02784
X0552Y0288
X0542Y0288
X0534Y0288
X055Y0298
X0542Y03
X0534Y03
X0518Y03355
X0521Y03665
X05416Y03812
X0546Y03876
X05368Y03884
X05465Y0401
X055Y0432
X0546Y0454
X05435Y0502
X05495Y05555
X0533Y05555
X051Y0584
X0563Y05545
X0554Y0454
X0576Y0454
X0568Y0454
X0558Y0432
X0574Y0432
X0566Y0432
X05704Y03908
X05584Y0388
X05648Y03744
X05568Y03744
X0572Y0374
X05684Y03672
X05604Y03424
X0564Y0338
X0564Y0298
X0574Y0298
X0574Y0288
X0564Y0288
X0554Y028
X0564Y0276
X0574Y0276
X0578Y0246
X0562Y0202
X0578Y0202
X0566Y0196
X0554Y0196
X0554Y0174
X0554Y0162
X0562Y01592
X05644Y015
X05772Y01484
X05956Y00388
X06032Y00388
X0623Y0039
X0588Y0102
X06168Y0118
X0626Y0126
X0618Y01316
X0608Y015
X0608Y0156
X0608Y0162
X0596Y0162
X0608Y0172
X0596Y0172
X0616Y0196
X0584Y0196
X062Y0202
X0608Y0202
X059Y0202
X05945Y02445
X0618Y02455
X06135Y02575
X06125Y02735
X0622Y0302
X0612Y0302
X0622Y031
X0612Y0312
X0624Y0318
X0612Y0322
X0618Y0324
X0626Y0326
X05852Y03372
X0624Y035
X05876Y03684
X05815Y0402
X05872Y0402
X05955Y0415
X06Y0432
X059Y0432
X0582Y0432
X0592Y0454
X0584Y0454
X05985Y049
X05985Y0503
X05915Y0553
X06075Y05565
X0628Y05565
X06475Y05565
X0644Y0498
X0672Y0498
X0658Y0498
X065Y0488
X0672Y0488
X0664Y0488
X0644Y0478
X0672Y0478
X0658Y0478
X0652Y0466
X0644Y0466
X0674Y0466
X0666Y0466
X065Y0452
X067Y0452
X066Y0452
X0642Y0452
X066Y0444
X065Y0444
X0642Y0444
X067Y0442
X067Y0434
X0678Y0424
X0678Y0414
X0678Y0406
X067Y0352
X0646Y035
X0642Y0324
X0634Y0318
X0676Y0316
X0632Y0308
X0642Y0308
X06665Y02535
X064Y0244
X0675Y0244
X063Y0202
X0672Y0202
X0642Y0202
X066Y0202
X0638Y0196
X065Y0196
X067Y0192
X0672Y0172
X066Y0172
X0672Y016
X066Y016
X0668Y015
X0664Y0136
X066Y01308
X064Y01305
X06288Y01176
X06796Y0056
X07025Y0056
X06808Y007
X0685Y0084
X06988Y0084
X06912Y01248
X06888Y01352
X0692Y015
X068Y015
X0696Y016
X0684Y016
X0684Y0172
X0696Y0172
X0696Y0192
X0682Y0192
X0684Y0202
X06915Y025
X068Y0255
X06925Y02695
X0697Y02865
X07Y0416
X0682Y0434
X0682Y0442
X0682Y045
X0702Y045
X0684Y0466
X0702Y0476
X0684Y0478
X0684Y0486
X0682Y0498
X0702Y0502
X0702Y0522
X069Y0552
X0682Y0552
X07Y0572
X0688Y0572
X0712Y0572
X0726Y0572
X0748Y0572
X074Y0572
X0712Y0552
X0726Y0552
X0748Y0552
X0736Y0552
X0724Y0524
X0742Y0524
X0724Y0516
X07444Y05156
X07456Y05048
X0736Y0504
X0724Y0504
X0742Y0496
X073Y0496
X0734Y04884
X0742Y0484
X0724Y0484
X07328Y04788
X0723Y0472
X07336Y0458
X0732Y0414
X0732Y0396
X0732Y0376
X0732Y0362
X0732Y0346
X0732Y0326
X0704Y015
X0708Y0136
X07528Y0136
X07352Y01356
X073Y013
X0746Y013
X07528Y0124
X0708Y0124
X07352Y01236
X0746Y0118
X073Y0118
X0714Y01084
X07352Y01076
X0705Y007
X0729Y0053
X07085Y0053
X0756Y00475
X0777Y0048
X07772Y0108
X0756Y01084
X0772Y0118
X07776Y0124
X0772Y013
X07776Y0136
X0774Y015
X0768Y015
X07588Y02184
X07656Y02184
X0759Y02285
X0778Y029
X0762Y0346
X0762Y0362
X0762Y0376
X0764Y0392
X0772Y0488
X0772Y0508
X07708Y05208
X0766Y0552
X0774Y0552
X076Y0552
X0764Y0572
X0772Y0572
X0756Y0572
X0798Y0572
X0784Y0572
X0798Y0552
X079Y0552
X0782Y0552
X0802Y0528
X0785Y05205
X08Y051
X0786Y0505
X0785Y0491
X08Y0488
X07932Y0446
X0798Y0392
X0782Y0392
X0784Y0376
X0798Y0374
X078Y0362
X0798Y0362
X0798Y0346
X078Y0346
X0788Y0152
X08Y0152
X079Y0146
X08Y014
X0788Y0128
X0794Y0122
X08004Y01192
X0798Y0108
X0798Y00475
X0819Y0047
X085Y0102
X0844Y0102
X0834Y0108
X08192Y01084
X0846Y01144
X0853Y01145
X0849Y0119
X08456Y01192
X0822Y0122
X081Y0122
X0836Y0122
X0846Y0123
X0832Y01428
X0832Y01548
X08084Y0222
X084Y02632
X08364Y02796
X0824Y0416
X081Y0424
X0822Y0432
X081Y0438
X08324Y0466
X0822Y0488
X08048Y04984
X08455Y0503
X0832Y0508
X08435Y0521
X0828Y0528
X0822Y0552
X0812Y0552
X083Y0552
X085Y0552
X0842Y0552
X082Y0572
X0872Y0584
X0862Y0584
X0892Y0584
X0882Y0584
X09Y0584
X089Y0578
X0882Y0578
X09Y0576
X0872Y0574
X0862Y0574
X0892Y057
X0882Y057
X0872Y0566
X09Y0566
X089Y0564
X0862Y0562
X0882Y056
X09Y0558
X087Y0558
X089Y0556
X087Y0552
X0898Y0552
X0884Y0552
X0858Y055
X0876Y055
X0886Y0528
X0858Y0528
X09005Y05215
X0869Y0518
X0887Y0517
X0864Y0508
X0894Y0504
X08995Y0489
X08895Y04885
X09Y0478
X08875Y04735
X0888Y0462
X09Y046
X0894Y0442
X08925Y04245
X08908Y03612
X08772Y01988
X08768Y01928
X0896Y01556
X0868Y01556
X0878Y0142
X0866Y014
X0856Y0102
X0862Y0102
X0904Y0106
X0916Y0124
X0928Y0124
X0944Y0124
X0906Y0142
X0952Y01556
X0924Y0156
X0926Y0194
X0936Y0212
X0936Y0224
X0936Y0236
X0948Y03285
X09495Y0348
X09405Y03585
X0948Y03915
X0927Y04305
X09045Y04425
X0927Y04515
X0927Y0466
X09465Y04665
X09465Y0477
X093Y0486
X0936Y0496
X09275Y05205
X0926Y0536
X093Y0542
X092Y0546
X0938Y0548
X0912Y0552
X0926Y0552
X0938Y0558
X0908Y0562
X0918Y0562
X0946Y0564
X0908Y0568
X0952Y0574
X0908Y0576
X095Y0582
X0908Y0584
X0998Y0584
X0988Y0584
X096Y0582
X0968Y0582
X0978Y0582
X096Y0574
X09696Y05392
X099Y0539
X1Y05335
X099Y05325
X09592Y05296
X09704Y05184
X09872Y05132
X0966Y0477
X09885Y0429
X0975Y0429
X0996Y04215
X09825Y04215
X09675Y04215
X099Y04095
X0984Y04035
X09825Y0357
X0994Y0352
X09825Y03465
X0966Y0345
X09825Y03345
X09885Y02805
X0974Y0226
X09905Y01425
X1Y0124
X0988Y0124
X0974Y0124
X0988Y0112
X0974Y0112
X1Y0112
X101Y0102
X1022Y0102
X10315Y0108
X10315Y0116
X1019Y0119
X10315Y0132
X10315Y01465
X10315Y016
X10315Y01725
X10315Y01845
X10315Y01965
X10088Y01996
X10315Y02085
X10315Y02205
X10315Y02325
X10315Y02445
X10315Y02565
X10315Y02685
X10315Y02805
X10275Y0291
X10035Y03555
X1011Y03555
X10215Y03555
X102Y0387
X10095Y03885
X10095Y03975
X10095Y04065
X10305Y0423
X10305Y0441
X10305Y04575
X10305Y04755
X1029Y0492
X1008Y04995
X1008Y05085
X10268Y0514
X1032Y0519
X1008Y0519
X10155Y0519
X1018Y0582
X1032Y0582
X101Y0584
T4C.01969F095S3
X001269Y006872
X000647Y007159
X00191Y007169
X002113Y007721
X000424Y007721
X001877Y008303
X00066Y008308
X001273Y008561
X001269Y054092
X000647Y054379
X00191Y054389
X000424Y054941
X002113Y054941
X001877Y055523
X00066Y055528
X001273Y055781
X102683Y055781
X10207Y055528
X101834Y054941
X102057Y054379
X102679Y054092
X102683Y008561
X10207Y008308
X101834Y007721
X102057Y007159
X102679Y006872
X10332Y007169
X103523Y007721
X103287Y008303
X10332Y054389
X103523Y054941
X103287Y055523
T5C.02677F197S55
X01148Y002152
X011Y00265
X012Y00265
X012Y00365
X011Y00365
X0115Y004152
X0874Y0114
X0874Y0104
X0897Y0104
X0921Y0104
X0945Y0104
X0969Y0104
X0945Y0114
X0921Y0114
X0969Y0114
X0897Y0114
X0994Y0114
X0994Y0104
T6C.03F197S55
X0126Y00736
X0126Y0145
X0126Y0149
X00872Y05568
X00812Y05572
X01448Y0128
X02105Y01045
X0278Y00072
X0264Y00072
X02716Y00072
X04655Y0151
X03295Y04485
X07324Y01824
X0696Y0097
X07015Y0097
X064Y00824
X08528Y01192
X08104Y01416
X0816Y01432
X0816Y01488
X09856Y0476
X09984Y0476
X1008Y04756
T7C.0315F197S55
X0012Y010745
X0012Y013855
X0519Y0575
X0529Y0575
X0539Y0575
X0549Y0575
X0519Y0565
X0529Y0565
X0539Y0565
X0549Y0565
X0559Y0565
X0569Y0565
X0599Y0565
X0579Y0565
X0589Y0565
X0619Y0565
X0609Y0565
X0589Y0575
X0559Y0575
X0599Y0575
X0619Y0575
X0569Y0575
X0609Y0575
X0579Y0575
X0629Y0575
X0639Y0575
X0649Y0575
X0669Y0575
X0659Y0575
X0639Y0565
X0659Y0565
X0669Y0565
X0649Y0565
X0629Y0565
T8C.0315F197S55
X000783Y032504
X00157Y032504
X00157Y033291
X000783Y033291
X00157Y034079
X000783Y034079
X00157Y034866
X000783Y034866
X00157Y035653
X000783Y035653
X000783Y036441
X00157Y036441
X00157Y037228
X000783Y037228
X00157Y038016
X000783Y038016
X00157Y038803
X000783Y038803
X00157Y03959
X000783Y03959
X016323Y053717G85X016677Y053717
X017075Y055173G85X017429Y055173
X016323Y056G85X016677Y056
X017075Y057417G85X017429Y057417
X016323Y058323G85X016677Y058323
T9C.035F197S55
X0045Y0024
X005252Y0024
X006004Y0024
X006756Y0024
X007508Y0024
X0045Y00315
X006004Y00315
X006756Y00315
X007508Y00315
X005252Y00315
X006756Y0039
X007508Y0039
X0045Y0039
X005252Y0039
X006004Y0039
X006906Y058111
X005906Y058111
X004906Y058111
X009906Y058111
X008906Y058111
X007906Y058111
X010906Y058111
X011906Y058111
X009012Y0039
X00826Y0039
X009752Y0039
X009752Y00315
X00826Y00315
X009012Y00315
X00826Y0024
X009012Y0024
X009752Y0024
X0177Y0462
X01895Y0462
X02225Y0462
X021Y0462
X013906Y058111
X012906Y058111
X0424Y0357
X0404Y0357
X0414Y035699
X0404Y032708
X0414Y032708
X0424Y032708
X045Y032708
X0434Y032708
X047Y032708
X046Y032708
X048Y032708
X046Y035699
X0434Y0357
X045Y0357
X047Y0357
X048Y0357
T10C.03543F197S55
X008487Y0411G85X00829Y0411
X008487Y025746G85X00829Y025746
T11C.037F197S55
X02914Y05329
X03022Y05329
X02968Y05443
X03076Y05443
X03184Y05443
X03292Y05443
X0313Y05329
X03346Y05329
X03238Y05329
T12C.037F197S55
X021924Y002335
X023656Y002335
T13C.039F197S55
X00123Y05845
X003Y05845
T14C.03937F197S55
X093325Y038721
T15C.03937F197S55
X018Y0048
X018Y0056
X018Y0064
X018Y0072
X0028Y046008
X0028Y049
X0282Y007596
X0292Y007596
X0302Y007596
X0277Y0066
X0297Y0066
X0287Y0066
X0307Y0066
X0378Y0066
X0368Y0066
X0358Y0066
X0388Y0066
X0312Y007596
X0363Y007596
X0373Y007596
X0393Y007596
X0383Y007596
X049Y0168
X05Y0168
X051Y0168
X052Y0168
X0559Y0168
X0569Y0168
X0579Y0168
X0589Y0168
X0614Y0168
X0624Y0168
X0634Y0168
X0644Y0168
X068Y0127
X068Y0117
X068Y0107
X068Y0097
X08742Y0044
X08972Y0044
X09212Y0044
X0874Y0064
X0921Y0064
X0897Y0064
X0945Y0064
X0969Y0064
X0994Y0064
X09692Y0044
X09452Y0044
X09942Y0044
T16C.04724F139S55
X027846Y002301
X026846Y002301
X031161Y002301
X032161Y002301
X034946Y002301
X035946Y002301
X039261Y002301
X040261Y002301
X043016Y002407
X044516Y002407
X046016Y002407
X047516Y002407
X049016Y002407
X050516Y002407
X053545Y002411
X055045Y002411
X056545Y002411
X058045Y002411
X061945Y002411
X060445Y002411
X063445Y002411
X064945Y002411
X067324Y002412
X068824Y002412
X070324Y002412
X071824Y002412
X073324Y002412
X074824Y002412
X076324Y002412
X077824Y002412
X079324Y002412
X080824Y002412
X082324Y002412
X083824Y002412
X086224Y002412
X087724Y002412
X089224Y002412
X092224Y002412
X090724Y002412
X09695Y05725
X09995Y05725
X09845Y05725
X093724Y002412
X098224Y002412
X099724Y002412
X095224Y002412
X096724Y002412
X102724Y002412
X101224Y002412
X10056Y017913
X10056Y025
T17C.051F107S55
X00074Y05747
X00349Y05747
T18C.05118F107S55
X034227Y0411G85X03403Y0411
X034227Y025746G85X03403Y025746
T19C.05315F107S55
X01695Y0047
X0191Y0047
X01695Y00745
X0191Y00745
T20C.05512F107S55
X083392Y038721
T21C.05512F107S55
X0683Y0563
X0703Y0563
X0703Y0583
X0683Y0583
X0718Y0583
X0753Y0583
X0738Y0583
X0773Y0583
X0738Y0563
X0718Y0563
X0753Y0563
X0773Y0563
X0788Y0563
X0808Y0563
X0788Y0583
X0808Y0583
T22C.05512F107S55
X0393Y0406
X0423Y0406
T23C.06693F089S55
X039949Y05653
X049449Y05653
T24C.07087F081S55
X032566Y005281
X040666Y005281
T25C.07087F081S55
X026464Y005281
X034564Y005281
T26C.07598F081S55
X0045Y001101
X012Y001101
X002201Y0024
X014299Y0024
T27C.12F035S794
X0263Y05386
X0363Y05386
T28C.12598F035S794
X00127Y00772
X00127Y05494
X10268Y05494
X10268Y00772
T29C.12795F035S794
X027263Y0041
X031763Y0041
X035363Y0041
X039863Y0041
T30C.14961F035S9
X083719Y057619
X093168Y057619
M30
