*
*
G04 PADS 9.5 Build Number: 522968 generated Gerber (RS-274-X) file*
G04 PC Version=2.1*
*
%IN "MT-Baseboard V1.0.0.pcb"*%
*
%MOIN*%
*
%FSLAX35Y35*%
*
*
*
*
G04 PC Standard Apertures*
*
*
G04 Thermal Relief Aperture macro.*
%AMTER*
1,1,$1,0,0*
1,0,$1-$2,0,0*
21,0,$3,$4,0,0,45*
21,0,$3,$4,0,0,135*
%
*
*
G04 Annular Aperture macro.*
%AMANN*
1,1,$1,0,0*
1,0,$2,0,0*
%
*
*
G04 Odd Aperture macro.*
%AMODD*
1,1,$1,0,0*
1,0,$1-0.005,0,0*
%
*
*
G04 PC Custom Aperture Macros*
*
*
*
*
*
*
G04 PC Aperture Table*
*
%ADD010C,0.01*%
%ADD011C,0.006*%
%ADD012C,0.001*%
%ADD021R,0.065X0.065*%
%ADD040C,0.08*%
%ADD058C,0.002*%
%ADD068C,0.065*%
%ADD091R,0.0365X0.0365*%
%ADD095C,0.09161*%
%ADD118C,0.075*%
%ADD202C,0.00039*%
%ADD220R,0.04358X0.04161*%
%ADD221R,0.03059X0.02862*%
%ADD222O,0.05028X0.01484*%
%ADD223O,0.01484X0.05028*%
%ADD224R,0.13492X0.13492*%
%ADD225R,0.03059X0.02862*%
%ADD226R,0.02075X0.0365*%
%ADD227R,0.02469X0.0365*%
%ADD228R,0.05067X0.06287*%
%ADD229R,0.02862X0.03059*%
%ADD230R,0.02469X0.13098*%
%ADD231R,0.07587X0.13098*%
%ADD232C,0.24122*%
%ADD233C,0.06012*%
%ADD234C,0.04437*%
%ADD235R,0.08374X0.10342*%
%ADD236O,0.015X0.07*%
%ADD237R,0.06287X0.05067*%
%ADD238R,0.08374X0.08374*%
%ADD239C,0.08374*%
%ADD240R,0.02862X0.03059*%
%ADD241R,0.05067X0.11209*%
%ADD242R,0.12311X0.10343*%
%ADD243R,0.12705X0.04437*%
%ADD244O,0.12705X0.04437*%
%ADD245R,0.24122X0.37902*%
%ADD246R,0.0365X0.04437*%
%ADD247R,0.04437X0.07587*%
%ADD248R,0.01681X0.04437*%
%ADD249R,0.04437X0.01681*%
%ADD250C,0.09949*%
%ADD251O,0.014X0.065*%
%ADD252R,0.12311X0.12311*%
%ADD253R,0.0365X0.02075*%
%ADD254R,0.0365X0.02469*%
%ADD255R,0.04161X0.04358*%
%ADD256O,0.029X0.079*%
%ADD257R,0.11299X0.09*%
%ADD258O,0.04437X0.08374*%
%ADD259C,0.09358*%
%ADD260R,0.07193X0.07193*%
%ADD261C,0.07193*%
%ADD262R,0.12311X0.102*%
%ADD263C,0.06799*%
%ADD264C,0.1113*%
%ADD265C,0.07193*%
%ADD266R,0.041X0.041*%
%ADD267R,0.041X0.055*%
%ADD268R,0.04043X0.01681*%
%ADD269R,0.01681X0.04043*%
%ADD270R,0.17035X0.17035*%
%ADD271R,0.10736X0.07587*%
%ADD272R,0.04437X0.09161*%
%ADD273R,0.1428X0.09161*%
%ADD274R,0.15461X0.12311*%
%ADD275O,0.205X0.145*%
%ADD276R,0.055X0.041*%
%ADD277R,0.03256X0.05421*%
%ADD278R,0.03492X0.05618*%
%ADD279R,0.05028X0.10539*%
%ADD280R,0.08374X0.09161*%
%ADD281O,0.006X0.006*%
%ADD282O,0.03059X0.12705*%
%ADD283R,0.11209X0.05067*%
%ADD284R,0.12311X0.09949*%
%ADD285C,0.182*%
%ADD286O,0.11524X0.07587*%
%ADD287C,0.05224*%
%ADD288C,0.105*%
%ADD289R,0.03846X0.01681*%
%ADD290R,0.01681X0.03846*%
%ADD291R,0.155X0.115*%
%ADD292R,0.06406X0.06406*%
%ADD293O,0.06406X0.06406*%
%ADD294O,0.05618X0.04831*%
%ADD295R,0.102X0.12311*%
%ADD296R,0.04437X0.03768*%
%ADD297R,0.03256X0.06406*%
%ADD298R,0.06406X0.03256*%
%ADD299R,0.06012X0.09555*%
%ADD300R,0.025X0.125*%
%ADD301R,0.085X0.105*%
%ADD302R,0.06012X0.05028*%
%ADD303R,0.07193X0.07193*%
%ADD304R,0.05224X0.11524*%
%ADD305C,0.21366*%
%ADD306O,0.065X0.08374*%
%ADD307O,0.04437X0.04437*%
%ADD308R,0.01681X0.05224*%
%ADD309R,0.05224X0.01681*%
%ADD310R,0.10342X0.08374*%
%ADD311R,0.06406X0.02862*%
%ADD312R,0.05224X0.02862*%
%ADD313R,0.08374X0.08374*%
%ADD314R,0.07587X0.04949*%
%ADD315R,0.10343X0.10343*%
%ADD316C,0.10343*%
%ADD317O,0.06996X0.03059*%
%ADD318O,0.03059X0.06996*%
%ADD319R,0.12311X0.15461*%
%ADD321R,0.07587X0.08374*%
*
*
*
*
G04 PC Circuitry*
G04 Layer Name MT-Baseboard V1.0.0.pcb - circuitry*
%LPD*%
*
*
G04 PC Custom Flashes*
G04 Layer Name MT-Baseboard V1.0.0.pcb - flashes*
%LPD*%
*
*
G04 PC Circuitry*
G04 Layer Name MT-Baseboard V1.0.0.pcb - circuitry*
%LPD*%
*
G54D10*
G01X1469201Y1327224D02*
Y1615750D01*
Y1327224D02*
X1466701Y1337224D01*
X1471701*
X1469201Y1327224*
Y1917776D02*
Y1629250D01*
Y1917776D02*
X1471701Y1907776D01*
X1466701*
X1469201Y1917776*
X1503701Y1327224D02*
X1464201D01*
X1503701Y1917776D02*
X1464201D01*
X1451929Y1624063D02*
X1452383Y1624375D01*
X1453065Y1625313*
X1453065D02*
Y1618750D01*
X1458065Y1625313D02*
X1455792D01*
X1455792D02*
X1455565Y1622500D01*
X1455792Y1622813*
X1455792D02*
X1456474Y1623125D01*
X1457156*
X1457838Y1622813*
X1457838D02*
X1458292Y1622188D01*
X1458292D02*
X1458520Y1621250D01*
X1458292Y1620625*
X1458065Y1619688*
X1458065D02*
X1457610Y1619063D01*
X1457610D02*
X1456929Y1618750D01*
X1456247*
X1455565Y1619063*
X1455565D02*
X1455338Y1619375D01*
X1455110Y1620000*
X1461929Y1625313D02*
X1461247Y1625000D01*
X1460792Y1624063*
X1460792D02*
X1460565Y1622500D01*
Y1621563*
X1460565D02*
X1460792Y1620000D01*
X1461247Y1619063*
X1461247D02*
X1461929Y1618750D01*
X1462383*
X1463065Y1619063*
X1463065D02*
X1463520Y1620000D01*
X1463747Y1621563*
X1463747D02*
Y1622500D01*
X1463520Y1624063*
X1463520D02*
X1463065Y1625000D01*
X1462383Y1625313*
X1462383D02*
X1461929D01*
X1466020Y1619375D02*
X1465792Y1619063D01*
X1465792D02*
X1466020Y1618750D01*
X1466247Y1619063*
X1466247D02*
X1466020Y1619375D01*
X1469656Y1625313D02*
X1468974Y1625000D01*
X1468520Y1624063*
X1468520D02*
X1468292Y1622500D01*
Y1621563*
X1468292D02*
X1468520Y1620000D01*
X1468974Y1619063*
X1468974D02*
X1469656Y1618750D01*
X1470110*
X1470792Y1619063*
X1470792D02*
X1471247Y1620000D01*
X1471474Y1621563*
X1471474D02*
Y1622500D01*
X1471247Y1624063*
X1471247D02*
X1470792Y1625000D01*
X1470110Y1625313*
X1470110D02*
X1469656D01*
X1473520Y1623125D02*
Y1618750D01*
Y1621875D02*
X1474201Y1622813D01*
X1474201D02*
X1474656Y1623125D01*
X1475338*
X1475792Y1622813*
X1475792D02*
X1476020Y1621875D01*
Y1618750*
Y1621875D02*
X1476701Y1622813D01*
X1476701D02*
X1477156Y1623125D01*
X1477838*
X1478292Y1622813*
X1478292D02*
X1478520Y1621875D01*
Y1618750*
X1480565Y1623125D02*
Y1618750D01*
Y1621875D02*
X1481247Y1622813D01*
X1481247D02*
X1481701Y1623125D01*
X1482383*
X1482838Y1622813*
X1482838D02*
X1483065Y1621875D01*
Y1618750*
Y1621875D02*
X1483747Y1622813D01*
X1483747D02*
X1484201Y1623125D01*
X1484883*
X1485338Y1622813*
X1485338D02*
X1485565Y1621875D01*
Y1618750*
X2548071Y1287224D02*
X2049568D01*
X2548071D02*
X2538071Y1284724D01*
Y1289724*
X2548071Y1287224*
X1508701D02*
X2007205D01*
X1508701D02*
X1518701Y1289724D01*
Y1284724*
X1508701Y1287224*
X2548071Y1322224D02*
Y1282224D01*
X1508701Y1322224D02*
Y1282224D01*
X2010432Y1288474D02*
Y1288787D01*
X2010659Y1289412*
X2010886Y1289724*
X2011341Y1290037*
X2012250*
X2012705Y1289724*
X2012932Y1289412*
X2013159Y1288787*
Y1288162*
X2012932Y1287537*
X2012477Y1286599*
X2010205Y1283474*
X2013386*
X2018159Y1289099D02*
X2017932Y1289724D01*
X2017250Y1290037*
X2016795*
X2016114Y1289724*
X2015659Y1288787*
X2015432Y1287224*
Y1285662*
X2015659Y1284412*
X2016114Y1283787*
X2016795Y1283474*
X2017023*
X2017705Y1283787*
X2018159Y1284412*
X2018386Y1285349*
Y1285662*
X2018159Y1286599*
X2017705Y1287224*
X2017023Y1287537*
X2016795*
X2016114Y1287224*
X2015659Y1286599*
X2015432Y1285662*
X2022705Y1290037D02*
X2020432Y1285662D01*
X2023841*
X2022705Y1290037D02*
Y1283474D01*
X2026114Y1284099D02*
X2025886Y1283787D01*
X2026114Y1283474*
X2026341Y1283787*
X2026114Y1284099*
X2029750Y1290037D02*
X2029068Y1289724D01*
X2028614Y1288787*
X2028386Y1287224*
Y1286287*
X2028614Y1284724*
X2029068Y1283787*
X2029750Y1283474*
X2030205*
X2030886Y1283787*
X2031341Y1284724*
X2031568Y1286287*
Y1287224*
X2031341Y1288787*
X2030886Y1289724*
X2030205Y1290037*
X2029750*
X2033614Y1287849D02*
Y1283474D01*
Y1286599D02*
X2034295Y1287537D01*
X2034750Y1287849*
X2035432*
X2035886Y1287537*
X2036114Y1286599*
Y1283474*
Y1286599D02*
X2036795Y1287537D01*
X2037250Y1287849*
X2037932*
X2038386Y1287537*
X2038614Y1286599*
Y1283474*
X2040659Y1287849D02*
Y1283474D01*
Y1286599D02*
X2041341Y1287537D01*
X2041795Y1287849*
X2042477*
X2042932Y1287537*
X2043159Y1286599*
Y1283474*
Y1286599D02*
X2043841Y1287537D01*
X2044295Y1287849*
X2044977*
X2045432Y1287537*
X2045659Y1286599*
Y1283474*
G54D11*
X1862331Y1368224D03*
X1907331D03*
X1901701Y1733224D03*
X1931701D03*
X1908195Y1892524D03*
X2003195D03*
X1781331Y1368224D03*
X1826331D03*
X1745264Y1350578D03*
X1727941D03*
G54D12*
X1508701Y1327224D02*
X1508704D01*
X1508701Y1917776D02*
X1508704D01*
X2548071Y1327224D02*
X2548074D01*
X1508701D02*
X1508704D01*
G54D21*
X1685701Y1789224D03*
X1718701D03*
X1647762Y1908337D03*
G54D40*
X1543601Y1901924D03*
X1516101D03*
G54D58*
X1508701Y1331161D02*
G75*
G03X1512638Y1327224I3937J0D01*
G01X1508701Y1331161D02*
Y1913839D01*
X1512638Y1917776D02*
G03X1508701Y1913839I0J-3937D01*
G01X1512638Y1917776D02*
X2544134D01*
X2548071Y1913839D02*
G03X2544134Y1917776I-3937J-0D01*
G01X2548071Y1913839D02*
Y1331161D01*
X2544134Y1327224D02*
G03X2548071Y1331161I0J3937D01*
G01X2544134Y1327224D02*
X1512638D01*
G54D68*
X1538701Y1911724D03*
X1521001D03*
X1698201Y1789224D03*
X1731201D03*
X1637762Y1908337D03*
X1627762D03*
X1617762D03*
X1607762D03*
X1597762D03*
X1587762D03*
X1577762D03*
X1567762D03*
X1557762D03*
G54D91*
X2033701Y1653074D03*
Y1659374D03*
X2100201Y1821074D03*
Y1827374D03*
G54D95*
X1553701Y1338232D03*
X1628701D03*
G54D118*
X1800101Y1860124D03*
X1810901D03*
X1821701D03*
X1832501D03*
X1843301D03*
X1805501Y1871524D03*
X1816301D03*
X1827101D03*
X1837901D03*
G54D202*
X2490353Y1727122D02*
X2490354Y1727099D01*
X2490357Y1727077*
X2490363Y1727055*
X2490370Y1727034*
X2490380Y1727013*
X2490392Y1726994*
X2490405Y1726976*
X2490420Y1726959*
X2490437Y1726944*
X2490455Y1726931*
X2490475Y1726919*
X2490495Y1726909*
X2490516Y1726902*
X2490538Y1726896*
X2490561Y1726893*
X2490583Y1726892*
X2499441*
X2499464Y1726893*
X2499486Y1726896*
X2499508Y1726902*
X2499530Y1726909*
X2499550Y1726919*
X2499569Y1726931*
X2499588Y1726944*
X2499604Y1726959*
X2500982Y1728337*
X2500997Y1728354*
X2501011Y1728372*
X2501023Y1728391*
X2501032Y1728412*
X2501040Y1728433*
X2501045Y1728455*
X2501049Y1728477*
X2501050Y1728500*
Y1739327*
X2501049Y1739349*
X2501045Y1739372*
X2501040Y1739394*
X2501032Y1739415*
X2501023Y1739435*
X2501011Y1739455*
X2500997Y1739473*
X2500982Y1739490*
X2500966Y1739505*
X2500947Y1739518*
X2500928Y1739530*
X2500908Y1739540*
X2500886Y1739547*
X2500864Y1739553*
X2500842Y1739556*
X2500819Y1739557*
X2490583*
X2490561Y1739556*
X2490538Y1739553*
X2490516Y1739547*
X2490495Y1739540*
X2490475Y1739530*
X2490455Y1739518*
X2490437Y1739505*
X2490420Y1739490*
X2490405Y1739473*
X2490392Y1739455*
X2490380Y1739435*
X2490370Y1739415*
X2490363Y1739394*
X2490357Y1739372*
X2490354Y1739349*
X2490353Y1739327*
Y1727122*
X2490367Y1727044D02*
Y1739404D01*
X2490386Y1727003D02*
Y1739446D01*
X2490406Y1726975D02*
Y1739474D01*
X2490426Y1726954D02*
Y1739495D01*
X2490445Y1726938D02*
Y1739511D01*
X2490465Y1726925D02*
Y1739524D01*
X2490485Y1726914D02*
Y1739535D01*
X2490504Y1726906D02*
Y1739543D01*
X2490524Y1726900D02*
Y1739549D01*
X2490544Y1726895D02*
Y1739553D01*
X2490564Y1726893D02*
Y1739556D01*
X2490583Y1726892D02*
Y1739557D01*
X2490603Y1726892D02*
Y1739557D01*
X2490623Y1726892D02*
Y1739557D01*
X2490642Y1726892D02*
Y1739557D01*
X2490662Y1726892D02*
Y1739557D01*
X2490682Y1726892D02*
Y1739557D01*
X2490701Y1726892D02*
Y1739557D01*
X2490721Y1726892D02*
Y1739557D01*
X2490741Y1726892D02*
Y1739557D01*
X2490760Y1726892D02*
Y1739557D01*
X2490780Y1726892D02*
Y1739557D01*
X2490800Y1726892D02*
Y1739557D01*
X2490819Y1726892D02*
Y1739557D01*
X2490839Y1726892D02*
Y1739557D01*
X2490859Y1726892D02*
Y1739557D01*
X2490878Y1726892D02*
Y1739557D01*
X2490898Y1726892D02*
Y1739557D01*
X2490918Y1726892D02*
Y1739557D01*
X2490938Y1726892D02*
Y1739557D01*
X2490957Y1726892D02*
Y1739557D01*
X2490977Y1726892D02*
Y1739557D01*
X2490997Y1726892D02*
Y1739557D01*
X2491016Y1726892D02*
Y1739557D01*
X2491036Y1726892D02*
Y1739557D01*
X2491056Y1726892D02*
Y1739557D01*
X2491075Y1726892D02*
Y1739557D01*
X2491095Y1726892D02*
Y1739557D01*
X2491115Y1726892D02*
Y1739557D01*
X2491134Y1726892D02*
Y1739557D01*
X2491154Y1726892D02*
Y1739557D01*
X2491174Y1726892D02*
Y1739557D01*
X2491193Y1726892D02*
Y1739557D01*
X2491213Y1726892D02*
Y1739557D01*
X2491233Y1726892D02*
Y1739557D01*
X2491253Y1726892D02*
Y1739557D01*
X2491272Y1726892D02*
Y1739557D01*
X2491292Y1726892D02*
Y1739557D01*
X2491312Y1726892D02*
Y1739557D01*
X2491331Y1726892D02*
Y1739557D01*
X2491351Y1726892D02*
Y1739557D01*
X2491371Y1726892D02*
Y1739557D01*
X2491390Y1726892D02*
Y1739557D01*
X2491410Y1726892D02*
Y1739557D01*
X2491430Y1726892D02*
Y1739557D01*
X2491449Y1726892D02*
Y1739557D01*
X2491469Y1726892D02*
Y1739557D01*
X2491489Y1726892D02*
Y1739557D01*
X2491508Y1726892D02*
Y1739557D01*
X2491528Y1726892D02*
Y1739557D01*
X2491548Y1726892D02*
Y1739557D01*
X2491567Y1726892D02*
Y1739557D01*
X2491587Y1726892D02*
Y1739557D01*
X2491607Y1726892D02*
Y1739557D01*
X2491627Y1726892D02*
Y1739557D01*
X2491646Y1726892D02*
Y1739557D01*
X2491666Y1726892D02*
Y1739557D01*
X2491686Y1726892D02*
Y1739557D01*
X2491705Y1726892D02*
Y1739557D01*
X2491725Y1726892D02*
Y1739557D01*
X2491745Y1726892D02*
Y1739557D01*
X2491764Y1726892D02*
Y1739557D01*
X2491784Y1726892D02*
Y1739557D01*
X2491804Y1726892D02*
Y1739557D01*
X2491823Y1726892D02*
Y1739557D01*
X2491843Y1726892D02*
Y1739557D01*
X2491863Y1726892D02*
Y1739557D01*
X2491882Y1726892D02*
Y1739557D01*
X2491902Y1726892D02*
Y1739557D01*
X2491922Y1726892D02*
Y1739557D01*
X2491941Y1726892D02*
Y1739557D01*
X2491961Y1726892D02*
Y1739557D01*
X2491981Y1726892D02*
Y1739557D01*
X2492001Y1726892D02*
Y1739557D01*
X2492020Y1726892D02*
Y1739557D01*
X2492040Y1726892D02*
Y1739557D01*
X2492060Y1726892D02*
Y1739557D01*
X2492079Y1726892D02*
Y1739557D01*
X2492099Y1726892D02*
Y1739557D01*
X2492119Y1726892D02*
Y1739557D01*
X2492138Y1726892D02*
Y1739557D01*
X2492158Y1726892D02*
Y1739557D01*
X2492178Y1726892D02*
Y1739557D01*
X2492197Y1726892D02*
Y1739557D01*
X2492217Y1726892D02*
Y1739557D01*
X2492237Y1726892D02*
Y1739557D01*
X2492256Y1726892D02*
Y1739557D01*
X2492276Y1726892D02*
Y1739557D01*
X2492296Y1726892D02*
Y1739557D01*
X2492315Y1726892D02*
Y1739557D01*
X2492335Y1726892D02*
Y1739557D01*
X2492355Y1726892D02*
Y1739557D01*
X2492375Y1726892D02*
Y1739557D01*
X2492394Y1726892D02*
Y1739557D01*
X2492414Y1726892D02*
Y1739557D01*
X2492434Y1726892D02*
Y1739557D01*
X2492453Y1726892D02*
Y1739557D01*
X2492473Y1726892D02*
Y1739557D01*
X2492493Y1726892D02*
Y1739557D01*
X2492512Y1726892D02*
Y1739557D01*
X2492532Y1726892D02*
Y1739557D01*
X2492552Y1726892D02*
Y1739557D01*
X2492571Y1726892D02*
Y1739557D01*
X2492591Y1726892D02*
Y1739557D01*
X2492611Y1726892D02*
Y1739557D01*
X2492630Y1726892D02*
Y1739557D01*
X2492650Y1726892D02*
Y1739557D01*
X2492670Y1726892D02*
Y1739557D01*
X2492690Y1726892D02*
Y1739557D01*
X2492709Y1726892D02*
Y1739557D01*
X2492729Y1726892D02*
Y1739557D01*
X2492749Y1726892D02*
Y1739557D01*
X2492768Y1726892D02*
Y1739557D01*
X2492788Y1726892D02*
Y1739557D01*
X2492808Y1726892D02*
Y1739557D01*
X2492827Y1726892D02*
Y1739557D01*
X2492847Y1726892D02*
Y1739557D01*
X2492867Y1726892D02*
Y1739557D01*
X2492886Y1726892D02*
Y1739557D01*
X2492906Y1726892D02*
Y1739557D01*
X2492926Y1726892D02*
Y1739557D01*
X2492945Y1726892D02*
Y1739557D01*
X2492965Y1726892D02*
Y1739557D01*
X2492985Y1726892D02*
Y1739557D01*
X2493004Y1726892D02*
Y1739557D01*
X2493024Y1726892D02*
Y1739557D01*
X2493044Y1726892D02*
Y1739557D01*
X2493064Y1726892D02*
Y1739557D01*
X2493083Y1726892D02*
Y1739557D01*
X2493103Y1726892D02*
Y1739557D01*
X2493123Y1726892D02*
Y1739557D01*
X2493142Y1726892D02*
Y1739557D01*
X2493162Y1726892D02*
Y1739557D01*
X2493182Y1726892D02*
Y1739557D01*
X2493201Y1726892D02*
Y1739557D01*
X2493221Y1726892D02*
Y1739557D01*
X2493241Y1726892D02*
Y1739557D01*
X2493260Y1726892D02*
Y1739557D01*
X2493280Y1726892D02*
Y1739557D01*
X2493300Y1726892D02*
Y1739557D01*
X2493319Y1726892D02*
Y1739557D01*
X2493339Y1726892D02*
Y1739557D01*
X2493359Y1726892D02*
Y1739557D01*
X2493378Y1726892D02*
Y1739557D01*
X2493398Y1726892D02*
Y1739557D01*
X2493418Y1726892D02*
Y1739557D01*
X2493438Y1726892D02*
Y1739557D01*
X2493457Y1726892D02*
Y1739557D01*
X2493477Y1726892D02*
Y1739557D01*
X2493497Y1726892D02*
Y1739557D01*
X2493516Y1726892D02*
Y1739557D01*
X2493536Y1726892D02*
Y1739557D01*
X2493556Y1726892D02*
Y1739557D01*
X2493575Y1726892D02*
Y1739557D01*
X2493595Y1726892D02*
Y1739557D01*
X2493615Y1726892D02*
Y1739557D01*
X2493634Y1726892D02*
Y1739557D01*
X2493654Y1726892D02*
Y1739557D01*
X2493674Y1726892D02*
Y1739557D01*
X2493693Y1726892D02*
Y1739557D01*
X2493713Y1726892D02*
Y1739557D01*
X2493733Y1726892D02*
Y1739557D01*
X2493753Y1726892D02*
Y1739557D01*
X2493772Y1726892D02*
Y1739557D01*
X2493792Y1726892D02*
Y1739557D01*
X2493812Y1726892D02*
Y1739557D01*
X2493831Y1726892D02*
Y1739557D01*
X2493851Y1726892D02*
Y1739557D01*
X2493871Y1726892D02*
Y1739557D01*
X2493890Y1726892D02*
Y1739557D01*
X2493910Y1726892D02*
Y1739557D01*
X2493930Y1726892D02*
Y1739557D01*
X2493949Y1726892D02*
Y1739557D01*
X2493969Y1726892D02*
Y1739557D01*
X2493989Y1726892D02*
Y1739557D01*
X2494008Y1726892D02*
Y1739557D01*
X2494028Y1726892D02*
Y1739557D01*
X2494048Y1726892D02*
Y1739557D01*
X2494067Y1726892D02*
Y1739557D01*
X2494087Y1726892D02*
Y1739557D01*
X2494107Y1726892D02*
Y1739557D01*
X2494127Y1726892D02*
Y1739557D01*
X2494146Y1726892D02*
Y1739557D01*
X2494166Y1726892D02*
Y1739557D01*
X2494186Y1726892D02*
Y1739557D01*
X2494205Y1726892D02*
Y1739557D01*
X2494225Y1726892D02*
Y1739557D01*
X2494245Y1726892D02*
Y1739557D01*
X2494264Y1726892D02*
Y1739557D01*
X2494284Y1726892D02*
Y1739557D01*
X2494304Y1726892D02*
Y1739557D01*
X2494323Y1726892D02*
Y1739557D01*
X2494343Y1726892D02*
Y1739557D01*
X2494363Y1726892D02*
Y1739557D01*
X2494382Y1726892D02*
Y1739557D01*
X2494402Y1726892D02*
Y1739557D01*
X2494422Y1726892D02*
Y1739557D01*
X2494441Y1726892D02*
Y1739557D01*
X2494461Y1726892D02*
Y1739557D01*
X2494481Y1726892D02*
Y1739557D01*
X2494501Y1726892D02*
Y1739557D01*
X2494520Y1726892D02*
Y1739557D01*
X2494540Y1726892D02*
Y1739557D01*
X2494560Y1726892D02*
Y1739557D01*
X2494579Y1726892D02*
Y1739557D01*
X2494599Y1726892D02*
Y1739557D01*
X2494619Y1726892D02*
Y1739557D01*
X2494638Y1726892D02*
Y1739557D01*
X2494658Y1726892D02*
Y1739557D01*
X2494678Y1726892D02*
Y1739557D01*
X2494697Y1726892D02*
Y1739557D01*
X2494717Y1726892D02*
Y1739557D01*
X2494737Y1726892D02*
Y1739557D01*
X2494756Y1726892D02*
Y1739557D01*
X2494776Y1726892D02*
Y1739557D01*
X2494796Y1726892D02*
Y1739557D01*
X2494815Y1726892D02*
Y1739557D01*
X2494835Y1726892D02*
Y1739557D01*
X2494855Y1726892D02*
Y1739557D01*
X2494875Y1726892D02*
Y1739557D01*
X2494894Y1726892D02*
Y1739557D01*
X2494914Y1726892D02*
Y1739557D01*
X2494934Y1726892D02*
Y1739557D01*
X2494953Y1726892D02*
Y1739557D01*
X2494973Y1726892D02*
Y1739557D01*
X2494993Y1726892D02*
Y1739557D01*
X2495012Y1726892D02*
Y1739557D01*
X2495032Y1726892D02*
Y1739557D01*
X2495052Y1726892D02*
Y1739557D01*
X2495071Y1726892D02*
Y1739557D01*
X2495091Y1726892D02*
Y1739557D01*
X2495111Y1726892D02*
Y1739557D01*
X2495130Y1726892D02*
Y1739557D01*
X2495150Y1726892D02*
Y1739557D01*
X2495170Y1726892D02*
Y1739557D01*
X2495190Y1726892D02*
Y1739557D01*
X2495209Y1726892D02*
Y1739557D01*
X2495229Y1726892D02*
Y1739557D01*
X2495249Y1726892D02*
Y1739557D01*
X2495268Y1726892D02*
Y1739557D01*
X2495288Y1726892D02*
Y1739557D01*
X2495308Y1726892D02*
Y1739557D01*
X2495327Y1726892D02*
Y1739557D01*
X2495347Y1726892D02*
Y1739557D01*
X2495367Y1726892D02*
Y1739557D01*
X2495386Y1726892D02*
Y1739557D01*
X2495406Y1726892D02*
Y1739557D01*
X2495426Y1726892D02*
Y1739557D01*
X2495445Y1726892D02*
Y1739557D01*
X2495465Y1726892D02*
Y1739557D01*
X2495485Y1726892D02*
Y1739557D01*
X2495504Y1726892D02*
Y1739557D01*
X2495524Y1726892D02*
Y1739557D01*
X2495544Y1726892D02*
Y1739557D01*
X2495564Y1726892D02*
Y1739557D01*
X2495583Y1726892D02*
Y1739557D01*
X2495603Y1726892D02*
Y1739557D01*
X2495623Y1726892D02*
Y1739557D01*
X2495642Y1726892D02*
Y1739557D01*
X2495662Y1726892D02*
Y1739557D01*
X2495682Y1726892D02*
Y1739557D01*
X2495701Y1726892D02*
Y1739557D01*
X2495721Y1726892D02*
Y1739557D01*
X2495741Y1726892D02*
Y1739557D01*
X2495760Y1726892D02*
Y1739557D01*
X2495780Y1726892D02*
Y1739557D01*
X2495800Y1726892D02*
Y1739557D01*
X2495819Y1726892D02*
Y1739557D01*
X2495839Y1726892D02*
Y1739557D01*
X2495859Y1726892D02*
Y1739557D01*
X2495878Y1726892D02*
Y1739557D01*
X2495898Y1726892D02*
Y1739557D01*
X2495918Y1726892D02*
Y1739557D01*
X2495938Y1726892D02*
Y1739557D01*
X2495957Y1726892D02*
Y1739557D01*
X2495977Y1726892D02*
Y1739557D01*
X2495997Y1726892D02*
Y1739557D01*
X2496016Y1726892D02*
Y1739557D01*
X2496036Y1726892D02*
Y1739557D01*
X2496056Y1726892D02*
Y1739557D01*
X2496075Y1726892D02*
Y1739557D01*
X2496095Y1726892D02*
Y1739557D01*
X2496115Y1726892D02*
Y1739557D01*
X2496134Y1726892D02*
Y1739557D01*
X2496154Y1726892D02*
Y1739557D01*
X2496174Y1726892D02*
Y1739557D01*
X2496193Y1726892D02*
Y1739557D01*
X2496213Y1726892D02*
Y1739557D01*
X2496233Y1726892D02*
Y1739557D01*
X2496253Y1726892D02*
Y1739557D01*
X2496272Y1726892D02*
Y1739557D01*
X2496292Y1726892D02*
Y1739557D01*
X2496312Y1726892D02*
Y1739557D01*
X2496331Y1726892D02*
Y1739557D01*
X2496351Y1726892D02*
Y1739557D01*
X2496371Y1726892D02*
Y1739557D01*
X2496390Y1726892D02*
Y1739557D01*
X2496410Y1726892D02*
Y1739557D01*
X2496430Y1726892D02*
Y1739557D01*
X2496449Y1726892D02*
Y1739557D01*
X2496469Y1726892D02*
Y1739557D01*
X2496489Y1726892D02*
Y1739557D01*
X2496508Y1726892D02*
Y1739557D01*
X2496528Y1726892D02*
Y1739557D01*
X2496548Y1726892D02*
Y1739557D01*
X2496567Y1726892D02*
Y1739557D01*
X2496587Y1726892D02*
Y1739557D01*
X2496607Y1726892D02*
Y1739557D01*
X2496627Y1726892D02*
Y1739557D01*
X2496646Y1726892D02*
Y1739557D01*
X2496666Y1726892D02*
Y1739557D01*
X2496686Y1726892D02*
Y1739557D01*
X2496705Y1726892D02*
Y1739557D01*
X2496725Y1726892D02*
Y1739557D01*
X2496745Y1726892D02*
Y1739557D01*
X2496764Y1726892D02*
Y1739557D01*
X2496784Y1726892D02*
Y1739557D01*
X2496804Y1726892D02*
Y1739557D01*
X2496823Y1726892D02*
Y1739557D01*
X2496843Y1726892D02*
Y1739557D01*
X2496863Y1726892D02*
Y1739557D01*
X2496882Y1726892D02*
Y1739557D01*
X2496902Y1726892D02*
Y1739557D01*
X2496922Y1726892D02*
Y1739557D01*
X2496941Y1726892D02*
Y1739557D01*
X2496961Y1726892D02*
Y1739557D01*
X2496981Y1726892D02*
Y1739557D01*
X2497001Y1726892D02*
Y1739557D01*
X2497020Y1726892D02*
Y1739557D01*
X2497040Y1726892D02*
Y1739557D01*
X2497060Y1726892D02*
Y1739557D01*
X2497079Y1726892D02*
Y1739557D01*
X2497099Y1726892D02*
Y1739557D01*
X2497119Y1726892D02*
Y1739557D01*
X2497138Y1726892D02*
Y1739557D01*
X2497158Y1726892D02*
Y1739557D01*
X2497178Y1726892D02*
Y1739557D01*
X2497197Y1726892D02*
Y1739557D01*
X2497217Y1726892D02*
Y1739557D01*
X2497237Y1726892D02*
Y1739557D01*
X2497256Y1726892D02*
Y1739557D01*
X2497276Y1726892D02*
Y1739557D01*
X2497296Y1726892D02*
Y1739557D01*
X2497315Y1726892D02*
Y1739557D01*
X2497335Y1726892D02*
Y1739557D01*
X2497355Y1726892D02*
Y1739557D01*
X2497375Y1726892D02*
Y1739557D01*
X2497394Y1726892D02*
Y1739557D01*
X2497414Y1726892D02*
Y1739557D01*
X2497434Y1726892D02*
Y1739557D01*
X2497453Y1726892D02*
Y1739557D01*
X2497473Y1726892D02*
Y1739557D01*
X2497493Y1726892D02*
Y1739557D01*
X2497512Y1726892D02*
Y1739557D01*
X2497532Y1726892D02*
Y1739557D01*
X2497552Y1726892D02*
Y1739557D01*
X2497571Y1726892D02*
Y1739557D01*
X2497591Y1726892D02*
Y1739557D01*
X2497611Y1726892D02*
Y1739557D01*
X2497630Y1726892D02*
Y1739557D01*
X2497650Y1726892D02*
Y1739557D01*
X2497670Y1726892D02*
Y1739557D01*
X2497690Y1726892D02*
Y1739557D01*
X2497709Y1726892D02*
Y1739557D01*
X2497729Y1726892D02*
Y1739557D01*
X2497749Y1726892D02*
Y1739557D01*
X2497768Y1726892D02*
Y1739557D01*
X2497788Y1726892D02*
Y1739557D01*
X2497808Y1726892D02*
Y1739557D01*
X2497827Y1726892D02*
Y1739557D01*
X2497847Y1726892D02*
Y1739557D01*
X2497867Y1726892D02*
Y1739557D01*
X2497886Y1726892D02*
Y1739557D01*
X2497906Y1726892D02*
Y1739557D01*
X2497926Y1726892D02*
Y1739557D01*
X2497945Y1726892D02*
Y1739557D01*
X2497965Y1726892D02*
Y1739557D01*
X2497985Y1726892D02*
Y1739557D01*
X2498004Y1726892D02*
Y1739557D01*
X2498024Y1726892D02*
Y1739557D01*
X2498044Y1726892D02*
Y1739557D01*
X2498064Y1726892D02*
Y1739557D01*
X2498083Y1726892D02*
Y1739557D01*
X2498103Y1726892D02*
Y1739557D01*
X2498123Y1726892D02*
Y1739557D01*
X2498142Y1726892D02*
Y1739557D01*
X2498162Y1726892D02*
Y1739557D01*
X2498182Y1726892D02*
Y1739557D01*
X2498201Y1726892D02*
Y1739557D01*
X2498221Y1726892D02*
Y1739557D01*
X2498241Y1726892D02*
Y1739557D01*
X2498260Y1726892D02*
Y1739557D01*
X2498280Y1726892D02*
Y1739557D01*
X2498300Y1726892D02*
Y1739557D01*
X2498319Y1726892D02*
Y1739557D01*
X2498339Y1726892D02*
Y1739557D01*
X2498359Y1726892D02*
Y1739557D01*
X2498378Y1726892D02*
Y1739557D01*
X2498398Y1726892D02*
Y1739557D01*
X2498418Y1726892D02*
Y1739557D01*
X2498438Y1726892D02*
Y1739557D01*
X2498457Y1726892D02*
Y1739557D01*
X2498477Y1726892D02*
Y1739557D01*
X2498497Y1726892D02*
Y1739557D01*
X2498516Y1726892D02*
Y1739557D01*
X2498536Y1726892D02*
Y1739557D01*
X2498556Y1726892D02*
Y1739557D01*
X2498575Y1726892D02*
Y1739557D01*
X2498595Y1726892D02*
Y1739557D01*
X2498615Y1726892D02*
Y1739557D01*
X2498634Y1726892D02*
Y1739557D01*
X2498654Y1726892D02*
Y1739557D01*
X2498674Y1726892D02*
Y1739557D01*
X2498693Y1726892D02*
Y1739557D01*
X2498713Y1726892D02*
Y1739557D01*
X2498733Y1726892D02*
Y1739557D01*
X2498753Y1726892D02*
Y1739557D01*
X2498772Y1726892D02*
Y1739557D01*
X2498792Y1726892D02*
Y1739557D01*
X2498812Y1726892D02*
Y1739557D01*
X2498831Y1726892D02*
Y1739557D01*
X2498851Y1726892D02*
Y1739557D01*
X2498871Y1726892D02*
Y1739557D01*
X2498890Y1726892D02*
Y1739557D01*
X2498910Y1726892D02*
Y1739557D01*
X2498930Y1726892D02*
Y1739557D01*
X2498949Y1726892D02*
Y1739557D01*
X2498969Y1726892D02*
Y1739557D01*
X2498989Y1726892D02*
Y1739557D01*
X2499008Y1726892D02*
Y1739557D01*
X2499028Y1726892D02*
Y1739557D01*
X2499048Y1726892D02*
Y1739557D01*
X2499067Y1726892D02*
Y1739557D01*
X2499087Y1726892D02*
Y1739557D01*
X2499107Y1726892D02*
Y1739557D01*
X2499127Y1726892D02*
Y1739557D01*
X2499146Y1726892D02*
Y1739557D01*
X2499166Y1726892D02*
Y1739557D01*
X2499186Y1726892D02*
Y1739557D01*
X2499205Y1726892D02*
Y1739557D01*
X2499225Y1726892D02*
Y1739557D01*
X2499245Y1726892D02*
Y1739557D01*
X2499264Y1726892D02*
Y1739557D01*
X2499284Y1726892D02*
Y1739557D01*
X2499304Y1726892D02*
Y1739557D01*
X2499323Y1726892D02*
Y1739557D01*
X2499343Y1726892D02*
Y1739557D01*
X2499363Y1726892D02*
Y1739557D01*
X2499382Y1726892D02*
Y1739557D01*
X2499402Y1726892D02*
Y1739557D01*
X2499422Y1726892D02*
Y1739557D01*
X2499441Y1726892D02*
Y1739557D01*
X2499461Y1726893D02*
Y1739557D01*
X2499481Y1726895D02*
Y1739557D01*
X2499501Y1726900D02*
Y1739557D01*
X2499520Y1726906D02*
Y1739557D01*
X2499540Y1726914D02*
Y1739557D01*
X2499560Y1726925D02*
Y1739557D01*
X2499579Y1726938D02*
Y1739557D01*
X2499599Y1726954D02*
Y1739557D01*
X2499619Y1726973D02*
Y1739557D01*
X2499638Y1726993D02*
Y1739557D01*
X2499658Y1727013D02*
Y1739557D01*
X2499678Y1727033D02*
Y1739557D01*
X2499697Y1727052D02*
Y1739557D01*
X2499717Y1727072D02*
Y1739557D01*
X2499737Y1727092D02*
Y1739557D01*
X2499756Y1727111D02*
Y1739557D01*
X2499776Y1727131D02*
Y1739557D01*
X2499796Y1727151D02*
Y1739557D01*
X2499815Y1727170D02*
Y1739557D01*
X2499835Y1727190D02*
Y1739557D01*
X2499855Y1727210D02*
Y1739557D01*
X2499875Y1727229D02*
Y1739557D01*
X2499894Y1727249D02*
Y1739557D01*
X2499914Y1727269D02*
Y1739557D01*
X2499934Y1727288D02*
Y1739557D01*
X2499953Y1727308D02*
Y1739557D01*
X2499973Y1727328D02*
Y1739557D01*
X2499993Y1727348D02*
Y1739557D01*
X2500012Y1727367D02*
Y1739557D01*
X2500032Y1727387D02*
Y1739557D01*
X2500052Y1727407D02*
Y1739557D01*
X2500071Y1727426D02*
Y1739557D01*
X2500091Y1727446D02*
Y1739557D01*
X2500111Y1727466D02*
Y1739557D01*
X2500130Y1727485D02*
Y1739557D01*
X2500150Y1727505D02*
Y1739557D01*
X2500170Y1727525D02*
Y1739557D01*
X2500190Y1727544D02*
Y1739557D01*
X2500209Y1727564D02*
Y1739557D01*
X2500229Y1727584D02*
Y1739557D01*
X2500249Y1727603D02*
Y1739557D01*
X2500268Y1727623D02*
Y1739557D01*
X2500288Y1727643D02*
Y1739557D01*
X2500308Y1727662D02*
Y1739557D01*
X2500327Y1727682D02*
Y1739557D01*
X2500347Y1727702D02*
Y1739557D01*
X2500367Y1727722D02*
Y1739557D01*
X2500386Y1727741D02*
Y1739557D01*
X2500406Y1727761D02*
Y1739557D01*
X2500426Y1727781D02*
Y1739557D01*
X2500445Y1727800D02*
Y1739557D01*
X2500465Y1727820D02*
Y1739557D01*
X2500485Y1727840D02*
Y1739557D01*
X2500504Y1727859D02*
Y1739557D01*
X2500524Y1727879D02*
Y1739557D01*
X2500544Y1727899D02*
Y1739557D01*
X2500564Y1727918D02*
Y1739557D01*
X2500583Y1727938D02*
Y1739557D01*
X2500603Y1727958D02*
Y1739557D01*
X2500623Y1727977D02*
Y1739557D01*
X2500642Y1727997D02*
Y1739557D01*
X2500662Y1728017D02*
Y1739557D01*
X2500682Y1728036D02*
Y1739557D01*
X2500701Y1728056D02*
Y1739557D01*
X2500721Y1728076D02*
Y1739557D01*
X2500741Y1728096D02*
Y1739557D01*
X2500760Y1728115D02*
Y1739557D01*
X2500780Y1728135D02*
Y1739557D01*
X2500800Y1728155D02*
Y1739557D01*
X2500819Y1728174D02*
Y1739557D01*
X2500839Y1728194D02*
Y1739556D01*
X2500859Y1728214D02*
Y1739553D01*
X2500878Y1728233D02*
Y1739549D01*
X2500898Y1728253D02*
Y1739543D01*
X2500918Y1728273D02*
Y1739535D01*
X2500938Y1728292D02*
Y1739524D01*
X2500957Y1728312D02*
Y1739511D01*
X2500977Y1728332D02*
Y1739495D01*
X2500997Y1728353D02*
Y1739474D01*
X2501016Y1728381D02*
Y1739446D01*
X2501036Y1728422D02*
Y1739404D01*
X2357353Y1608122D02*
X2357354Y1608099D01*
X2357357Y1608077*
X2357363Y1608055*
X2357370Y1608034*
X2357380Y1608013*
X2357392Y1607994*
X2357405Y1607976*
X2357420Y1607959*
X2357437Y1607944*
X2357455Y1607931*
X2357475Y1607919*
X2357495Y1607909*
X2357516Y1607902*
X2357538Y1607896*
X2357561Y1607893*
X2357583Y1607892*
X2366441*
X2366464Y1607893*
X2366486Y1607896*
X2366508Y1607902*
X2366530Y1607909*
X2366550Y1607919*
X2366569Y1607931*
X2366588Y1607944*
X2366604Y1607959*
X2367982Y1609337*
X2367997Y1609354*
X2368011Y1609372*
X2368023Y1609391*
X2368032Y1609412*
X2368040Y1609433*
X2368045Y1609455*
X2368049Y1609477*
X2368050Y1609500*
Y1620327*
X2368049Y1620349*
X2368045Y1620372*
X2368040Y1620394*
X2368032Y1620415*
X2368023Y1620435*
X2368011Y1620455*
X2367997Y1620473*
X2367982Y1620490*
X2367966Y1620505*
X2367947Y1620518*
X2367928Y1620530*
X2367908Y1620540*
X2367886Y1620547*
X2367864Y1620553*
X2367842Y1620556*
X2367819Y1620557*
X2357583*
X2357561Y1620556*
X2357538Y1620553*
X2357516Y1620547*
X2357495Y1620540*
X2357475Y1620530*
X2357455Y1620518*
X2357437Y1620505*
X2357420Y1620490*
X2357405Y1620473*
X2357392Y1620455*
X2357380Y1620435*
X2357370Y1620415*
X2357363Y1620394*
X2357357Y1620372*
X2357354Y1620349*
X2357353Y1620327*
Y1608122*
X2357367Y1608044D02*
Y1620404D01*
X2357386Y1608003D02*
Y1620446D01*
X2357406Y1607975D02*
Y1620474D01*
X2357426Y1607954D02*
Y1620495D01*
X2357445Y1607938D02*
Y1620511D01*
X2357465Y1607925D02*
Y1620524D01*
X2357485Y1607914D02*
Y1620535D01*
X2357504Y1607906D02*
Y1620543D01*
X2357524Y1607900D02*
Y1620549D01*
X2357544Y1607895D02*
Y1620553D01*
X2357564Y1607893D02*
Y1620556D01*
X2357583Y1607892D02*
Y1620557D01*
X2357603Y1607892D02*
Y1620557D01*
X2357623Y1607892D02*
Y1620557D01*
X2357642Y1607892D02*
Y1620557D01*
X2357662Y1607892D02*
Y1620557D01*
X2357682Y1607892D02*
Y1620557D01*
X2357701Y1607892D02*
Y1620557D01*
X2357721Y1607892D02*
Y1620557D01*
X2357741Y1607892D02*
Y1620557D01*
X2357760Y1607892D02*
Y1620557D01*
X2357780Y1607892D02*
Y1620557D01*
X2357800Y1607892D02*
Y1620557D01*
X2357819Y1607892D02*
Y1620557D01*
X2357839Y1607892D02*
Y1620557D01*
X2357859Y1607892D02*
Y1620557D01*
X2357878Y1607892D02*
Y1620557D01*
X2357898Y1607892D02*
Y1620557D01*
X2357918Y1607892D02*
Y1620557D01*
X2357938Y1607892D02*
Y1620557D01*
X2357957Y1607892D02*
Y1620557D01*
X2357977Y1607892D02*
Y1620557D01*
X2357997Y1607892D02*
Y1620557D01*
X2358016Y1607892D02*
Y1620557D01*
X2358036Y1607892D02*
Y1620557D01*
X2358056Y1607892D02*
Y1620557D01*
X2358075Y1607892D02*
Y1620557D01*
X2358095Y1607892D02*
Y1620557D01*
X2358115Y1607892D02*
Y1620557D01*
X2358134Y1607892D02*
Y1620557D01*
X2358154Y1607892D02*
Y1620557D01*
X2358174Y1607892D02*
Y1620557D01*
X2358193Y1607892D02*
Y1620557D01*
X2358213Y1607892D02*
Y1620557D01*
X2358233Y1607892D02*
Y1620557D01*
X2358253Y1607892D02*
Y1620557D01*
X2358272Y1607892D02*
Y1620557D01*
X2358292Y1607892D02*
Y1620557D01*
X2358312Y1607892D02*
Y1620557D01*
X2358331Y1607892D02*
Y1620557D01*
X2358351Y1607892D02*
Y1620557D01*
X2358371Y1607892D02*
Y1620557D01*
X2358390Y1607892D02*
Y1620557D01*
X2358410Y1607892D02*
Y1620557D01*
X2358430Y1607892D02*
Y1620557D01*
X2358449Y1607892D02*
Y1620557D01*
X2358469Y1607892D02*
Y1620557D01*
X2358489Y1607892D02*
Y1620557D01*
X2358508Y1607892D02*
Y1620557D01*
X2358528Y1607892D02*
Y1620557D01*
X2358548Y1607892D02*
Y1620557D01*
X2358567Y1607892D02*
Y1620557D01*
X2358587Y1607892D02*
Y1620557D01*
X2358607Y1607892D02*
Y1620557D01*
X2358627Y1607892D02*
Y1620557D01*
X2358646Y1607892D02*
Y1620557D01*
X2358666Y1607892D02*
Y1620557D01*
X2358686Y1607892D02*
Y1620557D01*
X2358705Y1607892D02*
Y1620557D01*
X2358725Y1607892D02*
Y1620557D01*
X2358745Y1607892D02*
Y1620557D01*
X2358764Y1607892D02*
Y1620557D01*
X2358784Y1607892D02*
Y1620557D01*
X2358804Y1607892D02*
Y1620557D01*
X2358823Y1607892D02*
Y1620557D01*
X2358843Y1607892D02*
Y1620557D01*
X2358863Y1607892D02*
Y1620557D01*
X2358882Y1607892D02*
Y1620557D01*
X2358902Y1607892D02*
Y1620557D01*
X2358922Y1607892D02*
Y1620557D01*
X2358941Y1607892D02*
Y1620557D01*
X2358961Y1607892D02*
Y1620557D01*
X2358981Y1607892D02*
Y1620557D01*
X2359001Y1607892D02*
Y1620557D01*
X2359020Y1607892D02*
Y1620557D01*
X2359040Y1607892D02*
Y1620557D01*
X2359060Y1607892D02*
Y1620557D01*
X2359079Y1607892D02*
Y1620557D01*
X2359099Y1607892D02*
Y1620557D01*
X2359119Y1607892D02*
Y1620557D01*
X2359138Y1607892D02*
Y1620557D01*
X2359158Y1607892D02*
Y1620557D01*
X2359178Y1607892D02*
Y1620557D01*
X2359197Y1607892D02*
Y1620557D01*
X2359217Y1607892D02*
Y1620557D01*
X2359237Y1607892D02*
Y1620557D01*
X2359256Y1607892D02*
Y1620557D01*
X2359276Y1607892D02*
Y1620557D01*
X2359296Y1607892D02*
Y1620557D01*
X2359315Y1607892D02*
Y1620557D01*
X2359335Y1607892D02*
Y1620557D01*
X2359355Y1607892D02*
Y1620557D01*
X2359375Y1607892D02*
Y1620557D01*
X2359394Y1607892D02*
Y1620557D01*
X2359414Y1607892D02*
Y1620557D01*
X2359434Y1607892D02*
Y1620557D01*
X2359453Y1607892D02*
Y1620557D01*
X2359473Y1607892D02*
Y1620557D01*
X2359493Y1607892D02*
Y1620557D01*
X2359512Y1607892D02*
Y1620557D01*
X2359532Y1607892D02*
Y1620557D01*
X2359552Y1607892D02*
Y1620557D01*
X2359571Y1607892D02*
Y1620557D01*
X2359591Y1607892D02*
Y1620557D01*
X2359611Y1607892D02*
Y1620557D01*
X2359630Y1607892D02*
Y1620557D01*
X2359650Y1607892D02*
Y1620557D01*
X2359670Y1607892D02*
Y1620557D01*
X2359690Y1607892D02*
Y1620557D01*
X2359709Y1607892D02*
Y1620557D01*
X2359729Y1607892D02*
Y1620557D01*
X2359749Y1607892D02*
Y1620557D01*
X2359768Y1607892D02*
Y1620557D01*
X2359788Y1607892D02*
Y1620557D01*
X2359808Y1607892D02*
Y1620557D01*
X2359827Y1607892D02*
Y1620557D01*
X2359847Y1607892D02*
Y1620557D01*
X2359867Y1607892D02*
Y1620557D01*
X2359886Y1607892D02*
Y1620557D01*
X2359906Y1607892D02*
Y1620557D01*
X2359926Y1607892D02*
Y1620557D01*
X2359945Y1607892D02*
Y1620557D01*
X2359965Y1607892D02*
Y1620557D01*
X2359985Y1607892D02*
Y1620557D01*
X2360004Y1607892D02*
Y1620557D01*
X2360024Y1607892D02*
Y1620557D01*
X2360044Y1607892D02*
Y1620557D01*
X2360064Y1607892D02*
Y1620557D01*
X2360083Y1607892D02*
Y1620557D01*
X2360103Y1607892D02*
Y1620557D01*
X2360123Y1607892D02*
Y1620557D01*
X2360142Y1607892D02*
Y1620557D01*
X2360162Y1607892D02*
Y1620557D01*
X2360182Y1607892D02*
Y1620557D01*
X2360201Y1607892D02*
Y1620557D01*
X2360221Y1607892D02*
Y1620557D01*
X2360241Y1607892D02*
Y1620557D01*
X2360260Y1607892D02*
Y1620557D01*
X2360280Y1607892D02*
Y1620557D01*
X2360300Y1607892D02*
Y1620557D01*
X2360319Y1607892D02*
Y1620557D01*
X2360339Y1607892D02*
Y1620557D01*
X2360359Y1607892D02*
Y1620557D01*
X2360378Y1607892D02*
Y1620557D01*
X2360398Y1607892D02*
Y1620557D01*
X2360418Y1607892D02*
Y1620557D01*
X2360438Y1607892D02*
Y1620557D01*
X2360457Y1607892D02*
Y1620557D01*
X2360477Y1607892D02*
Y1620557D01*
X2360497Y1607892D02*
Y1620557D01*
X2360516Y1607892D02*
Y1620557D01*
X2360536Y1607892D02*
Y1620557D01*
X2360556Y1607892D02*
Y1620557D01*
X2360575Y1607892D02*
Y1620557D01*
X2360595Y1607892D02*
Y1620557D01*
X2360615Y1607892D02*
Y1620557D01*
X2360634Y1607892D02*
Y1620557D01*
X2360654Y1607892D02*
Y1620557D01*
X2360674Y1607892D02*
Y1620557D01*
X2360693Y1607892D02*
Y1620557D01*
X2360713Y1607892D02*
Y1620557D01*
X2360733Y1607892D02*
Y1620557D01*
X2360753Y1607892D02*
Y1620557D01*
X2360772Y1607892D02*
Y1620557D01*
X2360792Y1607892D02*
Y1620557D01*
X2360812Y1607892D02*
Y1620557D01*
X2360831Y1607892D02*
Y1620557D01*
X2360851Y1607892D02*
Y1620557D01*
X2360871Y1607892D02*
Y1620557D01*
X2360890Y1607892D02*
Y1620557D01*
X2360910Y1607892D02*
Y1620557D01*
X2360930Y1607892D02*
Y1620557D01*
X2360949Y1607892D02*
Y1620557D01*
X2360969Y1607892D02*
Y1620557D01*
X2360989Y1607892D02*
Y1620557D01*
X2361008Y1607892D02*
Y1620557D01*
X2361028Y1607892D02*
Y1620557D01*
X2361048Y1607892D02*
Y1620557D01*
X2361067Y1607892D02*
Y1620557D01*
X2361087Y1607892D02*
Y1620557D01*
X2361107Y1607892D02*
Y1620557D01*
X2361127Y1607892D02*
Y1620557D01*
X2361146Y1607892D02*
Y1620557D01*
X2361166Y1607892D02*
Y1620557D01*
X2361186Y1607892D02*
Y1620557D01*
X2361205Y1607892D02*
Y1620557D01*
X2361225Y1607892D02*
Y1620557D01*
X2361245Y1607892D02*
Y1620557D01*
X2361264Y1607892D02*
Y1620557D01*
X2361284Y1607892D02*
Y1620557D01*
X2361304Y1607892D02*
Y1620557D01*
X2361323Y1607892D02*
Y1620557D01*
X2361343Y1607892D02*
Y1620557D01*
X2361363Y1607892D02*
Y1620557D01*
X2361382Y1607892D02*
Y1620557D01*
X2361402Y1607892D02*
Y1620557D01*
X2361422Y1607892D02*
Y1620557D01*
X2361441Y1607892D02*
Y1620557D01*
X2361461Y1607892D02*
Y1620557D01*
X2361481Y1607892D02*
Y1620557D01*
X2361501Y1607892D02*
Y1620557D01*
X2361520Y1607892D02*
Y1620557D01*
X2361540Y1607892D02*
Y1620557D01*
X2361560Y1607892D02*
Y1620557D01*
X2361579Y1607892D02*
Y1620557D01*
X2361599Y1607892D02*
Y1620557D01*
X2361619Y1607892D02*
Y1620557D01*
X2361638Y1607892D02*
Y1620557D01*
X2361658Y1607892D02*
Y1620557D01*
X2361678Y1607892D02*
Y1620557D01*
X2361697Y1607892D02*
Y1620557D01*
X2361717Y1607892D02*
Y1620557D01*
X2361737Y1607892D02*
Y1620557D01*
X2361756Y1607892D02*
Y1620557D01*
X2361776Y1607892D02*
Y1620557D01*
X2361796Y1607892D02*
Y1620557D01*
X2361815Y1607892D02*
Y1620557D01*
X2361835Y1607892D02*
Y1620557D01*
X2361855Y1607892D02*
Y1620557D01*
X2361875Y1607892D02*
Y1620557D01*
X2361894Y1607892D02*
Y1620557D01*
X2361914Y1607892D02*
Y1620557D01*
X2361934Y1607892D02*
Y1620557D01*
X2361953Y1607892D02*
Y1620557D01*
X2361973Y1607892D02*
Y1620557D01*
X2361993Y1607892D02*
Y1620557D01*
X2362012Y1607892D02*
Y1620557D01*
X2362032Y1607892D02*
Y1620557D01*
X2362052Y1607892D02*
Y1620557D01*
X2362071Y1607892D02*
Y1620557D01*
X2362091Y1607892D02*
Y1620557D01*
X2362111Y1607892D02*
Y1620557D01*
X2362130Y1607892D02*
Y1620557D01*
X2362150Y1607892D02*
Y1620557D01*
X2362170Y1607892D02*
Y1620557D01*
X2362190Y1607892D02*
Y1620557D01*
X2362209Y1607892D02*
Y1620557D01*
X2362229Y1607892D02*
Y1620557D01*
X2362249Y1607892D02*
Y1620557D01*
X2362268Y1607892D02*
Y1620557D01*
X2362288Y1607892D02*
Y1620557D01*
X2362308Y1607892D02*
Y1620557D01*
X2362327Y1607892D02*
Y1620557D01*
X2362347Y1607892D02*
Y1620557D01*
X2362367Y1607892D02*
Y1620557D01*
X2362386Y1607892D02*
Y1620557D01*
X2362406Y1607892D02*
Y1620557D01*
X2362426Y1607892D02*
Y1620557D01*
X2362445Y1607892D02*
Y1620557D01*
X2362465Y1607892D02*
Y1620557D01*
X2362485Y1607892D02*
Y1620557D01*
X2362504Y1607892D02*
Y1620557D01*
X2362524Y1607892D02*
Y1620557D01*
X2362544Y1607892D02*
Y1620557D01*
X2362564Y1607892D02*
Y1620557D01*
X2362583Y1607892D02*
Y1620557D01*
X2362603Y1607892D02*
Y1620557D01*
X2362623Y1607892D02*
Y1620557D01*
X2362642Y1607892D02*
Y1620557D01*
X2362662Y1607892D02*
Y1620557D01*
X2362682Y1607892D02*
Y1620557D01*
X2362701Y1607892D02*
Y1620557D01*
X2362721Y1607892D02*
Y1620557D01*
X2362741Y1607892D02*
Y1620557D01*
X2362760Y1607892D02*
Y1620557D01*
X2362780Y1607892D02*
Y1620557D01*
X2362800Y1607892D02*
Y1620557D01*
X2362819Y1607892D02*
Y1620557D01*
X2362839Y1607892D02*
Y1620557D01*
X2362859Y1607892D02*
Y1620557D01*
X2362878Y1607892D02*
Y1620557D01*
X2362898Y1607892D02*
Y1620557D01*
X2362918Y1607892D02*
Y1620557D01*
X2362938Y1607892D02*
Y1620557D01*
X2362957Y1607892D02*
Y1620557D01*
X2362977Y1607892D02*
Y1620557D01*
X2362997Y1607892D02*
Y1620557D01*
X2363016Y1607892D02*
Y1620557D01*
X2363036Y1607892D02*
Y1620557D01*
X2363056Y1607892D02*
Y1620557D01*
X2363075Y1607892D02*
Y1620557D01*
X2363095Y1607892D02*
Y1620557D01*
X2363115Y1607892D02*
Y1620557D01*
X2363134Y1607892D02*
Y1620557D01*
X2363154Y1607892D02*
Y1620557D01*
X2363174Y1607892D02*
Y1620557D01*
X2363193Y1607892D02*
Y1620557D01*
X2363213Y1607892D02*
Y1620557D01*
X2363233Y1607892D02*
Y1620557D01*
X2363253Y1607892D02*
Y1620557D01*
X2363272Y1607892D02*
Y1620557D01*
X2363292Y1607892D02*
Y1620557D01*
X2363312Y1607892D02*
Y1620557D01*
X2363331Y1607892D02*
Y1620557D01*
X2363351Y1607892D02*
Y1620557D01*
X2363371Y1607892D02*
Y1620557D01*
X2363390Y1607892D02*
Y1620557D01*
X2363410Y1607892D02*
Y1620557D01*
X2363430Y1607892D02*
Y1620557D01*
X2363449Y1607892D02*
Y1620557D01*
X2363469Y1607892D02*
Y1620557D01*
X2363489Y1607892D02*
Y1620557D01*
X2363508Y1607892D02*
Y1620557D01*
X2363528Y1607892D02*
Y1620557D01*
X2363548Y1607892D02*
Y1620557D01*
X2363567Y1607892D02*
Y1620557D01*
X2363587Y1607892D02*
Y1620557D01*
X2363607Y1607892D02*
Y1620557D01*
X2363627Y1607892D02*
Y1620557D01*
X2363646Y1607892D02*
Y1620557D01*
X2363666Y1607892D02*
Y1620557D01*
X2363686Y1607892D02*
Y1620557D01*
X2363705Y1607892D02*
Y1620557D01*
X2363725Y1607892D02*
Y1620557D01*
X2363745Y1607892D02*
Y1620557D01*
X2363764Y1607892D02*
Y1620557D01*
X2363784Y1607892D02*
Y1620557D01*
X2363804Y1607892D02*
Y1620557D01*
X2363823Y1607892D02*
Y1620557D01*
X2363843Y1607892D02*
Y1620557D01*
X2363863Y1607892D02*
Y1620557D01*
X2363882Y1607892D02*
Y1620557D01*
X2363902Y1607892D02*
Y1620557D01*
X2363922Y1607892D02*
Y1620557D01*
X2363941Y1607892D02*
Y1620557D01*
X2363961Y1607892D02*
Y1620557D01*
X2363981Y1607892D02*
Y1620557D01*
X2364001Y1607892D02*
Y1620557D01*
X2364020Y1607892D02*
Y1620557D01*
X2364040Y1607892D02*
Y1620557D01*
X2364060Y1607892D02*
Y1620557D01*
X2364079Y1607892D02*
Y1620557D01*
X2364099Y1607892D02*
Y1620557D01*
X2364119Y1607892D02*
Y1620557D01*
X2364138Y1607892D02*
Y1620557D01*
X2364158Y1607892D02*
Y1620557D01*
X2364178Y1607892D02*
Y1620557D01*
X2364197Y1607892D02*
Y1620557D01*
X2364217Y1607892D02*
Y1620557D01*
X2364237Y1607892D02*
Y1620557D01*
X2364256Y1607892D02*
Y1620557D01*
X2364276Y1607892D02*
Y1620557D01*
X2364296Y1607892D02*
Y1620557D01*
X2364315Y1607892D02*
Y1620557D01*
X2364335Y1607892D02*
Y1620557D01*
X2364355Y1607892D02*
Y1620557D01*
X2364375Y1607892D02*
Y1620557D01*
X2364394Y1607892D02*
Y1620557D01*
X2364414Y1607892D02*
Y1620557D01*
X2364434Y1607892D02*
Y1620557D01*
X2364453Y1607892D02*
Y1620557D01*
X2364473Y1607892D02*
Y1620557D01*
X2364493Y1607892D02*
Y1620557D01*
X2364512Y1607892D02*
Y1620557D01*
X2364532Y1607892D02*
Y1620557D01*
X2364552Y1607892D02*
Y1620557D01*
X2364571Y1607892D02*
Y1620557D01*
X2364591Y1607892D02*
Y1620557D01*
X2364611Y1607892D02*
Y1620557D01*
X2364630Y1607892D02*
Y1620557D01*
X2364650Y1607892D02*
Y1620557D01*
X2364670Y1607892D02*
Y1620557D01*
X2364690Y1607892D02*
Y1620557D01*
X2364709Y1607892D02*
Y1620557D01*
X2364729Y1607892D02*
Y1620557D01*
X2364749Y1607892D02*
Y1620557D01*
X2364768Y1607892D02*
Y1620557D01*
X2364788Y1607892D02*
Y1620557D01*
X2364808Y1607892D02*
Y1620557D01*
X2364827Y1607892D02*
Y1620557D01*
X2364847Y1607892D02*
Y1620557D01*
X2364867Y1607892D02*
Y1620557D01*
X2364886Y1607892D02*
Y1620557D01*
X2364906Y1607892D02*
Y1620557D01*
X2364926Y1607892D02*
Y1620557D01*
X2364945Y1607892D02*
Y1620557D01*
X2364965Y1607892D02*
Y1620557D01*
X2364985Y1607892D02*
Y1620557D01*
X2365004Y1607892D02*
Y1620557D01*
X2365024Y1607892D02*
Y1620557D01*
X2365044Y1607892D02*
Y1620557D01*
X2365064Y1607892D02*
Y1620557D01*
X2365083Y1607892D02*
Y1620557D01*
X2365103Y1607892D02*
Y1620557D01*
X2365123Y1607892D02*
Y1620557D01*
X2365142Y1607892D02*
Y1620557D01*
X2365162Y1607892D02*
Y1620557D01*
X2365182Y1607892D02*
Y1620557D01*
X2365201Y1607892D02*
Y1620557D01*
X2365221Y1607892D02*
Y1620557D01*
X2365241Y1607892D02*
Y1620557D01*
X2365260Y1607892D02*
Y1620557D01*
X2365280Y1607892D02*
Y1620557D01*
X2365300Y1607892D02*
Y1620557D01*
X2365319Y1607892D02*
Y1620557D01*
X2365339Y1607892D02*
Y1620557D01*
X2365359Y1607892D02*
Y1620557D01*
X2365378Y1607892D02*
Y1620557D01*
X2365398Y1607892D02*
Y1620557D01*
X2365418Y1607892D02*
Y1620557D01*
X2365438Y1607892D02*
Y1620557D01*
X2365457Y1607892D02*
Y1620557D01*
X2365477Y1607892D02*
Y1620557D01*
X2365497Y1607892D02*
Y1620557D01*
X2365516Y1607892D02*
Y1620557D01*
X2365536Y1607892D02*
Y1620557D01*
X2365556Y1607892D02*
Y1620557D01*
X2365575Y1607892D02*
Y1620557D01*
X2365595Y1607892D02*
Y1620557D01*
X2365615Y1607892D02*
Y1620557D01*
X2365634Y1607892D02*
Y1620557D01*
X2365654Y1607892D02*
Y1620557D01*
X2365674Y1607892D02*
Y1620557D01*
X2365693Y1607892D02*
Y1620557D01*
X2365713Y1607892D02*
Y1620557D01*
X2365733Y1607892D02*
Y1620557D01*
X2365753Y1607892D02*
Y1620557D01*
X2365772Y1607892D02*
Y1620557D01*
X2365792Y1607892D02*
Y1620557D01*
X2365812Y1607892D02*
Y1620557D01*
X2365831Y1607892D02*
Y1620557D01*
X2365851Y1607892D02*
Y1620557D01*
X2365871Y1607892D02*
Y1620557D01*
X2365890Y1607892D02*
Y1620557D01*
X2365910Y1607892D02*
Y1620557D01*
X2365930Y1607892D02*
Y1620557D01*
X2365949Y1607892D02*
Y1620557D01*
X2365969Y1607892D02*
Y1620557D01*
X2365989Y1607892D02*
Y1620557D01*
X2366008Y1607892D02*
Y1620557D01*
X2366028Y1607892D02*
Y1620557D01*
X2366048Y1607892D02*
Y1620557D01*
X2366067Y1607892D02*
Y1620557D01*
X2366087Y1607892D02*
Y1620557D01*
X2366107Y1607892D02*
Y1620557D01*
X2366127Y1607892D02*
Y1620557D01*
X2366146Y1607892D02*
Y1620557D01*
X2366166Y1607892D02*
Y1620557D01*
X2366186Y1607892D02*
Y1620557D01*
X2366205Y1607892D02*
Y1620557D01*
X2366225Y1607892D02*
Y1620557D01*
X2366245Y1607892D02*
Y1620557D01*
X2366264Y1607892D02*
Y1620557D01*
X2366284Y1607892D02*
Y1620557D01*
X2366304Y1607892D02*
Y1620557D01*
X2366323Y1607892D02*
Y1620557D01*
X2366343Y1607892D02*
Y1620557D01*
X2366363Y1607892D02*
Y1620557D01*
X2366382Y1607892D02*
Y1620557D01*
X2366402Y1607892D02*
Y1620557D01*
X2366422Y1607892D02*
Y1620557D01*
X2366441Y1607892D02*
Y1620557D01*
X2366461Y1607893D02*
Y1620557D01*
X2366481Y1607895D02*
Y1620557D01*
X2366501Y1607900D02*
Y1620557D01*
X2366520Y1607906D02*
Y1620557D01*
X2366540Y1607914D02*
Y1620557D01*
X2366560Y1607925D02*
Y1620557D01*
X2366579Y1607938D02*
Y1620557D01*
X2366599Y1607954D02*
Y1620557D01*
X2366619Y1607973D02*
Y1620557D01*
X2366638Y1607993D02*
Y1620557D01*
X2366658Y1608013D02*
Y1620557D01*
X2366678Y1608033D02*
Y1620557D01*
X2366697Y1608052D02*
Y1620557D01*
X2366717Y1608072D02*
Y1620557D01*
X2366737Y1608092D02*
Y1620557D01*
X2366756Y1608111D02*
Y1620557D01*
X2366776Y1608131D02*
Y1620557D01*
X2366796Y1608151D02*
Y1620557D01*
X2366815Y1608170D02*
Y1620557D01*
X2366835Y1608190D02*
Y1620557D01*
X2366855Y1608210D02*
Y1620557D01*
X2366875Y1608229D02*
Y1620557D01*
X2366894Y1608249D02*
Y1620557D01*
X2366914Y1608269D02*
Y1620557D01*
X2366934Y1608288D02*
Y1620557D01*
X2366953Y1608308D02*
Y1620557D01*
X2366973Y1608328D02*
Y1620557D01*
X2366993Y1608348D02*
Y1620557D01*
X2367012Y1608367D02*
Y1620557D01*
X2367032Y1608387D02*
Y1620557D01*
X2367052Y1608407D02*
Y1620557D01*
X2367071Y1608426D02*
Y1620557D01*
X2367091Y1608446D02*
Y1620557D01*
X2367111Y1608466D02*
Y1620557D01*
X2367130Y1608485D02*
Y1620557D01*
X2367150Y1608505D02*
Y1620557D01*
X2367170Y1608525D02*
Y1620557D01*
X2367190Y1608544D02*
Y1620557D01*
X2367209Y1608564D02*
Y1620557D01*
X2367229Y1608584D02*
Y1620557D01*
X2367249Y1608603D02*
Y1620557D01*
X2367268Y1608623D02*
Y1620557D01*
X2367288Y1608643D02*
Y1620557D01*
X2367308Y1608662D02*
Y1620557D01*
X2367327Y1608682D02*
Y1620557D01*
X2367347Y1608702D02*
Y1620557D01*
X2367367Y1608722D02*
Y1620557D01*
X2367386Y1608741D02*
Y1620557D01*
X2367406Y1608761D02*
Y1620557D01*
X2367426Y1608781D02*
Y1620557D01*
X2367445Y1608800D02*
Y1620557D01*
X2367465Y1608820D02*
Y1620557D01*
X2367485Y1608840D02*
Y1620557D01*
X2367504Y1608859D02*
Y1620557D01*
X2367524Y1608879D02*
Y1620557D01*
X2367544Y1608899D02*
Y1620557D01*
X2367564Y1608918D02*
Y1620557D01*
X2367583Y1608938D02*
Y1620557D01*
X2367603Y1608958D02*
Y1620557D01*
X2367623Y1608977D02*
Y1620557D01*
X2367642Y1608997D02*
Y1620557D01*
X2367662Y1609017D02*
Y1620557D01*
X2367682Y1609036D02*
Y1620557D01*
X2367701Y1609056D02*
Y1620557D01*
X2367721Y1609076D02*
Y1620557D01*
X2367741Y1609096D02*
Y1620557D01*
X2367760Y1609115D02*
Y1620557D01*
X2367780Y1609135D02*
Y1620557D01*
X2367800Y1609155D02*
Y1620557D01*
X2367819Y1609174D02*
Y1620557D01*
X2367839Y1609194D02*
Y1620556D01*
X2367859Y1609214D02*
Y1620553D01*
X2367878Y1609233D02*
Y1620549D01*
X2367898Y1609253D02*
Y1620543D01*
X2367918Y1609273D02*
Y1620535D01*
X2367938Y1609292D02*
Y1620524D01*
X2367957Y1609312D02*
Y1620511D01*
X2367977Y1609332D02*
Y1620495D01*
X2367997Y1609353D02*
Y1620474D01*
X2368016Y1609381D02*
Y1620446D01*
X2368036Y1609422D02*
Y1620404D01*
X2280353Y1552122D02*
X2280354Y1552099D01*
X2280357Y1552077*
X2280363Y1552055*
X2280370Y1552034*
X2280380Y1552013*
X2280392Y1551994*
X2280405Y1551976*
X2280420Y1551959*
X2280437Y1551944*
X2280455Y1551931*
X2280475Y1551919*
X2280495Y1551909*
X2280516Y1551902*
X2280538Y1551896*
X2280561Y1551893*
X2280583Y1551892*
X2289441*
X2289464Y1551893*
X2289486Y1551896*
X2289508Y1551902*
X2289530Y1551909*
X2289550Y1551919*
X2289569Y1551931*
X2289588Y1551944*
X2289604Y1551959*
X2290982Y1553337*
X2290997Y1553354*
X2291011Y1553372*
X2291023Y1553391*
X2291032Y1553412*
X2291040Y1553433*
X2291045Y1553455*
X2291049Y1553477*
X2291050Y1553500*
Y1564327*
X2291049Y1564349*
X2291045Y1564372*
X2291040Y1564394*
X2291032Y1564415*
X2291023Y1564435*
X2291011Y1564455*
X2290997Y1564473*
X2290982Y1564490*
X2290966Y1564505*
X2290947Y1564518*
X2290928Y1564530*
X2290908Y1564540*
X2290886Y1564547*
X2290864Y1564553*
X2290842Y1564556*
X2290819Y1564557*
X2280583*
X2280561Y1564556*
X2280538Y1564553*
X2280516Y1564547*
X2280495Y1564540*
X2280475Y1564530*
X2280455Y1564518*
X2280437Y1564505*
X2280420Y1564490*
X2280405Y1564473*
X2280392Y1564455*
X2280380Y1564435*
X2280370Y1564415*
X2280363Y1564394*
X2280357Y1564372*
X2280354Y1564349*
X2280353Y1564327*
Y1552122*
X2280367Y1552044D02*
Y1564404D01*
X2280386Y1552003D02*
Y1564446D01*
X2280406Y1551975D02*
Y1564474D01*
X2280426Y1551954D02*
Y1564495D01*
X2280445Y1551938D02*
Y1564511D01*
X2280465Y1551925D02*
Y1564524D01*
X2280485Y1551914D02*
Y1564535D01*
X2280504Y1551906D02*
Y1564543D01*
X2280524Y1551900D02*
Y1564549D01*
X2280544Y1551895D02*
Y1564553D01*
X2280564Y1551893D02*
Y1564556D01*
X2280583Y1551892D02*
Y1564557D01*
X2280603Y1551892D02*
Y1564557D01*
X2280623Y1551892D02*
Y1564557D01*
X2280642Y1551892D02*
Y1564557D01*
X2280662Y1551892D02*
Y1564557D01*
X2280682Y1551892D02*
Y1564557D01*
X2280701Y1551892D02*
Y1564557D01*
X2280721Y1551892D02*
Y1564557D01*
X2280741Y1551892D02*
Y1564557D01*
X2280760Y1551892D02*
Y1564557D01*
X2280780Y1551892D02*
Y1564557D01*
X2280800Y1551892D02*
Y1564557D01*
X2280819Y1551892D02*
Y1564557D01*
X2280839Y1551892D02*
Y1564557D01*
X2280859Y1551892D02*
Y1564557D01*
X2280878Y1551892D02*
Y1564557D01*
X2280898Y1551892D02*
Y1564557D01*
X2280918Y1551892D02*
Y1564557D01*
X2280938Y1551892D02*
Y1564557D01*
X2280957Y1551892D02*
Y1564557D01*
X2280977Y1551892D02*
Y1564557D01*
X2280997Y1551892D02*
Y1564557D01*
X2281016Y1551892D02*
Y1564557D01*
X2281036Y1551892D02*
Y1564557D01*
X2281056Y1551892D02*
Y1564557D01*
X2281075Y1551892D02*
Y1564557D01*
X2281095Y1551892D02*
Y1564557D01*
X2281115Y1551892D02*
Y1564557D01*
X2281134Y1551892D02*
Y1564557D01*
X2281154Y1551892D02*
Y1564557D01*
X2281174Y1551892D02*
Y1564557D01*
X2281193Y1551892D02*
Y1564557D01*
X2281213Y1551892D02*
Y1564557D01*
X2281233Y1551892D02*
Y1564557D01*
X2281253Y1551892D02*
Y1564557D01*
X2281272Y1551892D02*
Y1564557D01*
X2281292Y1551892D02*
Y1564557D01*
X2281312Y1551892D02*
Y1564557D01*
X2281331Y1551892D02*
Y1564557D01*
X2281351Y1551892D02*
Y1564557D01*
X2281371Y1551892D02*
Y1564557D01*
X2281390Y1551892D02*
Y1564557D01*
X2281410Y1551892D02*
Y1564557D01*
X2281430Y1551892D02*
Y1564557D01*
X2281449Y1551892D02*
Y1564557D01*
X2281469Y1551892D02*
Y1564557D01*
X2281489Y1551892D02*
Y1564557D01*
X2281508Y1551892D02*
Y1564557D01*
X2281528Y1551892D02*
Y1564557D01*
X2281548Y1551892D02*
Y1564557D01*
X2281567Y1551892D02*
Y1564557D01*
X2281587Y1551892D02*
Y1564557D01*
X2281607Y1551892D02*
Y1564557D01*
X2281627Y1551892D02*
Y1564557D01*
X2281646Y1551892D02*
Y1564557D01*
X2281666Y1551892D02*
Y1564557D01*
X2281686Y1551892D02*
Y1564557D01*
X2281705Y1551892D02*
Y1564557D01*
X2281725Y1551892D02*
Y1564557D01*
X2281745Y1551892D02*
Y1564557D01*
X2281764Y1551892D02*
Y1564557D01*
X2281784Y1551892D02*
Y1564557D01*
X2281804Y1551892D02*
Y1564557D01*
X2281823Y1551892D02*
Y1564557D01*
X2281843Y1551892D02*
Y1564557D01*
X2281863Y1551892D02*
Y1564557D01*
X2281882Y1551892D02*
Y1564557D01*
X2281902Y1551892D02*
Y1564557D01*
X2281922Y1551892D02*
Y1564557D01*
X2281941Y1551892D02*
Y1564557D01*
X2281961Y1551892D02*
Y1564557D01*
X2281981Y1551892D02*
Y1564557D01*
X2282001Y1551892D02*
Y1564557D01*
X2282020Y1551892D02*
Y1564557D01*
X2282040Y1551892D02*
Y1564557D01*
X2282060Y1551892D02*
Y1564557D01*
X2282079Y1551892D02*
Y1564557D01*
X2282099Y1551892D02*
Y1564557D01*
X2282119Y1551892D02*
Y1564557D01*
X2282138Y1551892D02*
Y1564557D01*
X2282158Y1551892D02*
Y1564557D01*
X2282178Y1551892D02*
Y1564557D01*
X2282197Y1551892D02*
Y1564557D01*
X2282217Y1551892D02*
Y1564557D01*
X2282237Y1551892D02*
Y1564557D01*
X2282256Y1551892D02*
Y1564557D01*
X2282276Y1551892D02*
Y1564557D01*
X2282296Y1551892D02*
Y1564557D01*
X2282315Y1551892D02*
Y1564557D01*
X2282335Y1551892D02*
Y1564557D01*
X2282355Y1551892D02*
Y1564557D01*
X2282375Y1551892D02*
Y1564557D01*
X2282394Y1551892D02*
Y1564557D01*
X2282414Y1551892D02*
Y1564557D01*
X2282434Y1551892D02*
Y1564557D01*
X2282453Y1551892D02*
Y1564557D01*
X2282473Y1551892D02*
Y1564557D01*
X2282493Y1551892D02*
Y1564557D01*
X2282512Y1551892D02*
Y1564557D01*
X2282532Y1551892D02*
Y1564557D01*
X2282552Y1551892D02*
Y1564557D01*
X2282571Y1551892D02*
Y1564557D01*
X2282591Y1551892D02*
Y1564557D01*
X2282611Y1551892D02*
Y1564557D01*
X2282630Y1551892D02*
Y1564557D01*
X2282650Y1551892D02*
Y1564557D01*
X2282670Y1551892D02*
Y1564557D01*
X2282690Y1551892D02*
Y1564557D01*
X2282709Y1551892D02*
Y1564557D01*
X2282729Y1551892D02*
Y1564557D01*
X2282749Y1551892D02*
Y1564557D01*
X2282768Y1551892D02*
Y1564557D01*
X2282788Y1551892D02*
Y1564557D01*
X2282808Y1551892D02*
Y1564557D01*
X2282827Y1551892D02*
Y1564557D01*
X2282847Y1551892D02*
Y1564557D01*
X2282867Y1551892D02*
Y1564557D01*
X2282886Y1551892D02*
Y1564557D01*
X2282906Y1551892D02*
Y1564557D01*
X2282926Y1551892D02*
Y1564557D01*
X2282945Y1551892D02*
Y1564557D01*
X2282965Y1551892D02*
Y1564557D01*
X2282985Y1551892D02*
Y1564557D01*
X2283004Y1551892D02*
Y1564557D01*
X2283024Y1551892D02*
Y1564557D01*
X2283044Y1551892D02*
Y1564557D01*
X2283064Y1551892D02*
Y1564557D01*
X2283083Y1551892D02*
Y1564557D01*
X2283103Y1551892D02*
Y1564557D01*
X2283123Y1551892D02*
Y1564557D01*
X2283142Y1551892D02*
Y1564557D01*
X2283162Y1551892D02*
Y1564557D01*
X2283182Y1551892D02*
Y1564557D01*
X2283201Y1551892D02*
Y1564557D01*
X2283221Y1551892D02*
Y1564557D01*
X2283241Y1551892D02*
Y1564557D01*
X2283260Y1551892D02*
Y1564557D01*
X2283280Y1551892D02*
Y1564557D01*
X2283300Y1551892D02*
Y1564557D01*
X2283319Y1551892D02*
Y1564557D01*
X2283339Y1551892D02*
Y1564557D01*
X2283359Y1551892D02*
Y1564557D01*
X2283378Y1551892D02*
Y1564557D01*
X2283398Y1551892D02*
Y1564557D01*
X2283418Y1551892D02*
Y1564557D01*
X2283438Y1551892D02*
Y1564557D01*
X2283457Y1551892D02*
Y1564557D01*
X2283477Y1551892D02*
Y1564557D01*
X2283497Y1551892D02*
Y1564557D01*
X2283516Y1551892D02*
Y1564557D01*
X2283536Y1551892D02*
Y1564557D01*
X2283556Y1551892D02*
Y1564557D01*
X2283575Y1551892D02*
Y1564557D01*
X2283595Y1551892D02*
Y1564557D01*
X2283615Y1551892D02*
Y1564557D01*
X2283634Y1551892D02*
Y1564557D01*
X2283654Y1551892D02*
Y1564557D01*
X2283674Y1551892D02*
Y1564557D01*
X2283693Y1551892D02*
Y1564557D01*
X2283713Y1551892D02*
Y1564557D01*
X2283733Y1551892D02*
Y1564557D01*
X2283753Y1551892D02*
Y1564557D01*
X2283772Y1551892D02*
Y1564557D01*
X2283792Y1551892D02*
Y1564557D01*
X2283812Y1551892D02*
Y1564557D01*
X2283831Y1551892D02*
Y1564557D01*
X2283851Y1551892D02*
Y1564557D01*
X2283871Y1551892D02*
Y1564557D01*
X2283890Y1551892D02*
Y1564557D01*
X2283910Y1551892D02*
Y1564557D01*
X2283930Y1551892D02*
Y1564557D01*
X2283949Y1551892D02*
Y1564557D01*
X2283969Y1551892D02*
Y1564557D01*
X2283989Y1551892D02*
Y1564557D01*
X2284008Y1551892D02*
Y1564557D01*
X2284028Y1551892D02*
Y1564557D01*
X2284048Y1551892D02*
Y1564557D01*
X2284067Y1551892D02*
Y1564557D01*
X2284087Y1551892D02*
Y1564557D01*
X2284107Y1551892D02*
Y1564557D01*
X2284127Y1551892D02*
Y1564557D01*
X2284146Y1551892D02*
Y1564557D01*
X2284166Y1551892D02*
Y1564557D01*
X2284186Y1551892D02*
Y1564557D01*
X2284205Y1551892D02*
Y1564557D01*
X2284225Y1551892D02*
Y1564557D01*
X2284245Y1551892D02*
Y1564557D01*
X2284264Y1551892D02*
Y1564557D01*
X2284284Y1551892D02*
Y1564557D01*
X2284304Y1551892D02*
Y1564557D01*
X2284323Y1551892D02*
Y1564557D01*
X2284343Y1551892D02*
Y1564557D01*
X2284363Y1551892D02*
Y1564557D01*
X2284382Y1551892D02*
Y1564557D01*
X2284402Y1551892D02*
Y1564557D01*
X2284422Y1551892D02*
Y1564557D01*
X2284441Y1551892D02*
Y1564557D01*
X2284461Y1551892D02*
Y1564557D01*
X2284481Y1551892D02*
Y1564557D01*
X2284501Y1551892D02*
Y1564557D01*
X2284520Y1551892D02*
Y1564557D01*
X2284540Y1551892D02*
Y1564557D01*
X2284560Y1551892D02*
Y1564557D01*
X2284579Y1551892D02*
Y1564557D01*
X2284599Y1551892D02*
Y1564557D01*
X2284619Y1551892D02*
Y1564557D01*
X2284638Y1551892D02*
Y1564557D01*
X2284658Y1551892D02*
Y1564557D01*
X2284678Y1551892D02*
Y1564557D01*
X2284697Y1551892D02*
Y1564557D01*
X2284717Y1551892D02*
Y1564557D01*
X2284737Y1551892D02*
Y1564557D01*
X2284756Y1551892D02*
Y1564557D01*
X2284776Y1551892D02*
Y1564557D01*
X2284796Y1551892D02*
Y1564557D01*
X2284815Y1551892D02*
Y1564557D01*
X2284835Y1551892D02*
Y1564557D01*
X2284855Y1551892D02*
Y1564557D01*
X2284875Y1551892D02*
Y1564557D01*
X2284894Y1551892D02*
Y1564557D01*
X2284914Y1551892D02*
Y1564557D01*
X2284934Y1551892D02*
Y1564557D01*
X2284953Y1551892D02*
Y1564557D01*
X2284973Y1551892D02*
Y1564557D01*
X2284993Y1551892D02*
Y1564557D01*
X2285012Y1551892D02*
Y1564557D01*
X2285032Y1551892D02*
Y1564557D01*
X2285052Y1551892D02*
Y1564557D01*
X2285071Y1551892D02*
Y1564557D01*
X2285091Y1551892D02*
Y1564557D01*
X2285111Y1551892D02*
Y1564557D01*
X2285130Y1551892D02*
Y1564557D01*
X2285150Y1551892D02*
Y1564557D01*
X2285170Y1551892D02*
Y1564557D01*
X2285190Y1551892D02*
Y1564557D01*
X2285209Y1551892D02*
Y1564557D01*
X2285229Y1551892D02*
Y1564557D01*
X2285249Y1551892D02*
Y1564557D01*
X2285268Y1551892D02*
Y1564557D01*
X2285288Y1551892D02*
Y1564557D01*
X2285308Y1551892D02*
Y1564557D01*
X2285327Y1551892D02*
Y1564557D01*
X2285347Y1551892D02*
Y1564557D01*
X2285367Y1551892D02*
Y1564557D01*
X2285386Y1551892D02*
Y1564557D01*
X2285406Y1551892D02*
Y1564557D01*
X2285426Y1551892D02*
Y1564557D01*
X2285445Y1551892D02*
Y1564557D01*
X2285465Y1551892D02*
Y1564557D01*
X2285485Y1551892D02*
Y1564557D01*
X2285504Y1551892D02*
Y1564557D01*
X2285524Y1551892D02*
Y1564557D01*
X2285544Y1551892D02*
Y1564557D01*
X2285564Y1551892D02*
Y1564557D01*
X2285583Y1551892D02*
Y1564557D01*
X2285603Y1551892D02*
Y1564557D01*
X2285623Y1551892D02*
Y1564557D01*
X2285642Y1551892D02*
Y1564557D01*
X2285662Y1551892D02*
Y1564557D01*
X2285682Y1551892D02*
Y1564557D01*
X2285701Y1551892D02*
Y1564557D01*
X2285721Y1551892D02*
Y1564557D01*
X2285741Y1551892D02*
Y1564557D01*
X2285760Y1551892D02*
Y1564557D01*
X2285780Y1551892D02*
Y1564557D01*
X2285800Y1551892D02*
Y1564557D01*
X2285819Y1551892D02*
Y1564557D01*
X2285839Y1551892D02*
Y1564557D01*
X2285859Y1551892D02*
Y1564557D01*
X2285878Y1551892D02*
Y1564557D01*
X2285898Y1551892D02*
Y1564557D01*
X2285918Y1551892D02*
Y1564557D01*
X2285938Y1551892D02*
Y1564557D01*
X2285957Y1551892D02*
Y1564557D01*
X2285977Y1551892D02*
Y1564557D01*
X2285997Y1551892D02*
Y1564557D01*
X2286016Y1551892D02*
Y1564557D01*
X2286036Y1551892D02*
Y1564557D01*
X2286056Y1551892D02*
Y1564557D01*
X2286075Y1551892D02*
Y1564557D01*
X2286095Y1551892D02*
Y1564557D01*
X2286115Y1551892D02*
Y1564557D01*
X2286134Y1551892D02*
Y1564557D01*
X2286154Y1551892D02*
Y1564557D01*
X2286174Y1551892D02*
Y1564557D01*
X2286193Y1551892D02*
Y1564557D01*
X2286213Y1551892D02*
Y1564557D01*
X2286233Y1551892D02*
Y1564557D01*
X2286253Y1551892D02*
Y1564557D01*
X2286272Y1551892D02*
Y1564557D01*
X2286292Y1551892D02*
Y1564557D01*
X2286312Y1551892D02*
Y1564557D01*
X2286331Y1551892D02*
Y1564557D01*
X2286351Y1551892D02*
Y1564557D01*
X2286371Y1551892D02*
Y1564557D01*
X2286390Y1551892D02*
Y1564557D01*
X2286410Y1551892D02*
Y1564557D01*
X2286430Y1551892D02*
Y1564557D01*
X2286449Y1551892D02*
Y1564557D01*
X2286469Y1551892D02*
Y1564557D01*
X2286489Y1551892D02*
Y1564557D01*
X2286508Y1551892D02*
Y1564557D01*
X2286528Y1551892D02*
Y1564557D01*
X2286548Y1551892D02*
Y1564557D01*
X2286567Y1551892D02*
Y1564557D01*
X2286587Y1551892D02*
Y1564557D01*
X2286607Y1551892D02*
Y1564557D01*
X2286627Y1551892D02*
Y1564557D01*
X2286646Y1551892D02*
Y1564557D01*
X2286666Y1551892D02*
Y1564557D01*
X2286686Y1551892D02*
Y1564557D01*
X2286705Y1551892D02*
Y1564557D01*
X2286725Y1551892D02*
Y1564557D01*
X2286745Y1551892D02*
Y1564557D01*
X2286764Y1551892D02*
Y1564557D01*
X2286784Y1551892D02*
Y1564557D01*
X2286804Y1551892D02*
Y1564557D01*
X2286823Y1551892D02*
Y1564557D01*
X2286843Y1551892D02*
Y1564557D01*
X2286863Y1551892D02*
Y1564557D01*
X2286882Y1551892D02*
Y1564557D01*
X2286902Y1551892D02*
Y1564557D01*
X2286922Y1551892D02*
Y1564557D01*
X2286941Y1551892D02*
Y1564557D01*
X2286961Y1551892D02*
Y1564557D01*
X2286981Y1551892D02*
Y1564557D01*
X2287001Y1551892D02*
Y1564557D01*
X2287020Y1551892D02*
Y1564557D01*
X2287040Y1551892D02*
Y1564557D01*
X2287060Y1551892D02*
Y1564557D01*
X2287079Y1551892D02*
Y1564557D01*
X2287099Y1551892D02*
Y1564557D01*
X2287119Y1551892D02*
Y1564557D01*
X2287138Y1551892D02*
Y1564557D01*
X2287158Y1551892D02*
Y1564557D01*
X2287178Y1551892D02*
Y1564557D01*
X2287197Y1551892D02*
Y1564557D01*
X2287217Y1551892D02*
Y1564557D01*
X2287237Y1551892D02*
Y1564557D01*
X2287256Y1551892D02*
Y1564557D01*
X2287276Y1551892D02*
Y1564557D01*
X2287296Y1551892D02*
Y1564557D01*
X2287315Y1551892D02*
Y1564557D01*
X2287335Y1551892D02*
Y1564557D01*
X2287355Y1551892D02*
Y1564557D01*
X2287375Y1551892D02*
Y1564557D01*
X2287394Y1551892D02*
Y1564557D01*
X2287414Y1551892D02*
Y1564557D01*
X2287434Y1551892D02*
Y1564557D01*
X2287453Y1551892D02*
Y1564557D01*
X2287473Y1551892D02*
Y1564557D01*
X2287493Y1551892D02*
Y1564557D01*
X2287512Y1551892D02*
Y1564557D01*
X2287532Y1551892D02*
Y1564557D01*
X2287552Y1551892D02*
Y1564557D01*
X2287571Y1551892D02*
Y1564557D01*
X2287591Y1551892D02*
Y1564557D01*
X2287611Y1551892D02*
Y1564557D01*
X2287630Y1551892D02*
Y1564557D01*
X2287650Y1551892D02*
Y1564557D01*
X2287670Y1551892D02*
Y1564557D01*
X2287690Y1551892D02*
Y1564557D01*
X2287709Y1551892D02*
Y1564557D01*
X2287729Y1551892D02*
Y1564557D01*
X2287749Y1551892D02*
Y1564557D01*
X2287768Y1551892D02*
Y1564557D01*
X2287788Y1551892D02*
Y1564557D01*
X2287808Y1551892D02*
Y1564557D01*
X2287827Y1551892D02*
Y1564557D01*
X2287847Y1551892D02*
Y1564557D01*
X2287867Y1551892D02*
Y1564557D01*
X2287886Y1551892D02*
Y1564557D01*
X2287906Y1551892D02*
Y1564557D01*
X2287926Y1551892D02*
Y1564557D01*
X2287945Y1551892D02*
Y1564557D01*
X2287965Y1551892D02*
Y1564557D01*
X2287985Y1551892D02*
Y1564557D01*
X2288004Y1551892D02*
Y1564557D01*
X2288024Y1551892D02*
Y1564557D01*
X2288044Y1551892D02*
Y1564557D01*
X2288064Y1551892D02*
Y1564557D01*
X2288083Y1551892D02*
Y1564557D01*
X2288103Y1551892D02*
Y1564557D01*
X2288123Y1551892D02*
Y1564557D01*
X2288142Y1551892D02*
Y1564557D01*
X2288162Y1551892D02*
Y1564557D01*
X2288182Y1551892D02*
Y1564557D01*
X2288201Y1551892D02*
Y1564557D01*
X2288221Y1551892D02*
Y1564557D01*
X2288241Y1551892D02*
Y1564557D01*
X2288260Y1551892D02*
Y1564557D01*
X2288280Y1551892D02*
Y1564557D01*
X2288300Y1551892D02*
Y1564557D01*
X2288319Y1551892D02*
Y1564557D01*
X2288339Y1551892D02*
Y1564557D01*
X2288359Y1551892D02*
Y1564557D01*
X2288378Y1551892D02*
Y1564557D01*
X2288398Y1551892D02*
Y1564557D01*
X2288418Y1551892D02*
Y1564557D01*
X2288438Y1551892D02*
Y1564557D01*
X2288457Y1551892D02*
Y1564557D01*
X2288477Y1551892D02*
Y1564557D01*
X2288497Y1551892D02*
Y1564557D01*
X2288516Y1551892D02*
Y1564557D01*
X2288536Y1551892D02*
Y1564557D01*
X2288556Y1551892D02*
Y1564557D01*
X2288575Y1551892D02*
Y1564557D01*
X2288595Y1551892D02*
Y1564557D01*
X2288615Y1551892D02*
Y1564557D01*
X2288634Y1551892D02*
Y1564557D01*
X2288654Y1551892D02*
Y1564557D01*
X2288674Y1551892D02*
Y1564557D01*
X2288693Y1551892D02*
Y1564557D01*
X2288713Y1551892D02*
Y1564557D01*
X2288733Y1551892D02*
Y1564557D01*
X2288753Y1551892D02*
Y1564557D01*
X2288772Y1551892D02*
Y1564557D01*
X2288792Y1551892D02*
Y1564557D01*
X2288812Y1551892D02*
Y1564557D01*
X2288831Y1551892D02*
Y1564557D01*
X2288851Y1551892D02*
Y1564557D01*
X2288871Y1551892D02*
Y1564557D01*
X2288890Y1551892D02*
Y1564557D01*
X2288910Y1551892D02*
Y1564557D01*
X2288930Y1551892D02*
Y1564557D01*
X2288949Y1551892D02*
Y1564557D01*
X2288969Y1551892D02*
Y1564557D01*
X2288989Y1551892D02*
Y1564557D01*
X2289008Y1551892D02*
Y1564557D01*
X2289028Y1551892D02*
Y1564557D01*
X2289048Y1551892D02*
Y1564557D01*
X2289067Y1551892D02*
Y1564557D01*
X2289087Y1551892D02*
Y1564557D01*
X2289107Y1551892D02*
Y1564557D01*
X2289127Y1551892D02*
Y1564557D01*
X2289146Y1551892D02*
Y1564557D01*
X2289166Y1551892D02*
Y1564557D01*
X2289186Y1551892D02*
Y1564557D01*
X2289205Y1551892D02*
Y1564557D01*
X2289225Y1551892D02*
Y1564557D01*
X2289245Y1551892D02*
Y1564557D01*
X2289264Y1551892D02*
Y1564557D01*
X2289284Y1551892D02*
Y1564557D01*
X2289304Y1551892D02*
Y1564557D01*
X2289323Y1551892D02*
Y1564557D01*
X2289343Y1551892D02*
Y1564557D01*
X2289363Y1551892D02*
Y1564557D01*
X2289382Y1551892D02*
Y1564557D01*
X2289402Y1551892D02*
Y1564557D01*
X2289422Y1551892D02*
Y1564557D01*
X2289441Y1551892D02*
Y1564557D01*
X2289461Y1551893D02*
Y1564557D01*
X2289481Y1551895D02*
Y1564557D01*
X2289501Y1551900D02*
Y1564557D01*
X2289520Y1551906D02*
Y1564557D01*
X2289540Y1551914D02*
Y1564557D01*
X2289560Y1551925D02*
Y1564557D01*
X2289579Y1551938D02*
Y1564557D01*
X2289599Y1551954D02*
Y1564557D01*
X2289619Y1551973D02*
Y1564557D01*
X2289638Y1551993D02*
Y1564557D01*
X2289658Y1552013D02*
Y1564557D01*
X2289678Y1552033D02*
Y1564557D01*
X2289697Y1552052D02*
Y1564557D01*
X2289717Y1552072D02*
Y1564557D01*
X2289737Y1552092D02*
Y1564557D01*
X2289756Y1552111D02*
Y1564557D01*
X2289776Y1552131D02*
Y1564557D01*
X2289796Y1552151D02*
Y1564557D01*
X2289815Y1552170D02*
Y1564557D01*
X2289835Y1552190D02*
Y1564557D01*
X2289855Y1552210D02*
Y1564557D01*
X2289875Y1552229D02*
Y1564557D01*
X2289894Y1552249D02*
Y1564557D01*
X2289914Y1552269D02*
Y1564557D01*
X2289934Y1552288D02*
Y1564557D01*
X2289953Y1552308D02*
Y1564557D01*
X2289973Y1552328D02*
Y1564557D01*
X2289993Y1552348D02*
Y1564557D01*
X2290012Y1552367D02*
Y1564557D01*
X2290032Y1552387D02*
Y1564557D01*
X2290052Y1552407D02*
Y1564557D01*
X2290071Y1552426D02*
Y1564557D01*
X2290091Y1552446D02*
Y1564557D01*
X2290111Y1552466D02*
Y1564557D01*
X2290130Y1552485D02*
Y1564557D01*
X2290150Y1552505D02*
Y1564557D01*
X2290170Y1552525D02*
Y1564557D01*
X2290190Y1552544D02*
Y1564557D01*
X2290209Y1552564D02*
Y1564557D01*
X2290229Y1552584D02*
Y1564557D01*
X2290249Y1552603D02*
Y1564557D01*
X2290268Y1552623D02*
Y1564557D01*
X2290288Y1552643D02*
Y1564557D01*
X2290308Y1552662D02*
Y1564557D01*
X2290327Y1552682D02*
Y1564557D01*
X2290347Y1552702D02*
Y1564557D01*
X2290367Y1552722D02*
Y1564557D01*
X2290386Y1552741D02*
Y1564557D01*
X2290406Y1552761D02*
Y1564557D01*
X2290426Y1552781D02*
Y1564557D01*
X2290445Y1552800D02*
Y1564557D01*
X2290465Y1552820D02*
Y1564557D01*
X2290485Y1552840D02*
Y1564557D01*
X2290504Y1552859D02*
Y1564557D01*
X2290524Y1552879D02*
Y1564557D01*
X2290544Y1552899D02*
Y1564557D01*
X2290564Y1552918D02*
Y1564557D01*
X2290583Y1552938D02*
Y1564557D01*
X2290603Y1552958D02*
Y1564557D01*
X2290623Y1552977D02*
Y1564557D01*
X2290642Y1552997D02*
Y1564557D01*
X2290662Y1553017D02*
Y1564557D01*
X2290682Y1553036D02*
Y1564557D01*
X2290701Y1553056D02*
Y1564557D01*
X2290721Y1553076D02*
Y1564557D01*
X2290741Y1553096D02*
Y1564557D01*
X2290760Y1553115D02*
Y1564557D01*
X2290780Y1553135D02*
Y1564557D01*
X2290800Y1553155D02*
Y1564557D01*
X2290819Y1553174D02*
Y1564557D01*
X2290839Y1553194D02*
Y1564556D01*
X2290859Y1553214D02*
Y1564553D01*
X2290878Y1553233D02*
Y1564549D01*
X2290898Y1553253D02*
Y1564543D01*
X2290918Y1553273D02*
Y1564535D01*
X2290938Y1553292D02*
Y1564524D01*
X2290957Y1553312D02*
Y1564511D01*
X2290977Y1553332D02*
Y1564495D01*
X2290997Y1553353D02*
Y1564474D01*
X2291016Y1553381D02*
Y1564446D01*
X2291036Y1553422D02*
Y1564404D01*
G54D220*
X2243701Y1380193D03*
Y1386256D03*
X2222701Y1380193D03*
Y1386256D03*
X1578701Y1877193D03*
Y1883256D03*
X2177701Y1456256D03*
Y1450193D03*
X2025701Y1624256D03*
Y1618193D03*
X1907701Y1442256D03*
Y1436193D03*
X1823701Y1492193D03*
Y1498256D03*
X1893701Y1422193D03*
Y1428256D03*
X1809701Y1422193D03*
Y1428256D03*
X2034201Y1680193D03*
Y1686256D03*
X2079201Y1814256D03*
Y1808193D03*
X2072201Y1814256D03*
Y1808193D03*
X2100201Y1813256D03*
Y1807193D03*
X2369701Y1813256D03*
Y1807193D03*
X1980701Y1618193D03*
Y1624256D03*
X1920701Y1618193D03*
Y1624256D03*
X2086201Y1723193D03*
Y1729256D03*
X2215701Y1679256D03*
Y1673193D03*
Y1709256D03*
Y1703193D03*
X1634701Y1393256D03*
Y1387193D03*
X2026701Y1569193D03*
Y1575256D03*
X2068301Y1568993D03*
Y1575056D03*
X2025701Y1638256D03*
Y1632193D03*
X1802701Y1422193D03*
Y1428256D03*
X2072701Y1653193D03*
Y1659256D03*
X2079201Y1729256D03*
Y1723193D03*
X2051501Y1728256D03*
Y1722193D03*
X2376701Y1813256D03*
Y1807193D03*
Y1744193D03*
Y1750256D03*
X2341701Y1653193D03*
Y1659256D03*
X1809701Y1498256D03*
Y1492193D03*
X1802701Y1436193D03*
Y1442256D03*
X1900701Y1422193D03*
Y1428256D03*
X2061101Y1568993D03*
Y1575056D03*
X1606701Y1839756D03*
Y1833693D03*
X1716701Y1485693D03*
Y1491756D03*
X2306701Y1380193D03*
Y1386256D03*
X2327701Y1380193D03*
Y1386256D03*
X2264701Y1380193D03*
Y1386256D03*
X2285701Y1380193D03*
Y1386256D03*
X1900701Y1436193D03*
Y1442256D03*
X1893701Y1505256D03*
Y1499193D03*
X1907701D03*
Y1505256D03*
X1900701Y1499193D03*
Y1505256D03*
X1809701Y1442256D03*
Y1436193D03*
X1816701Y1498256D03*
Y1492193D03*
X2429501Y1521393D03*
Y1527456D03*
X2420501Y1521393D03*
Y1527456D03*
X2429501Y1549393D03*
Y1555456D03*
X2420501D03*
Y1549393D03*
G54D221*
X1671670Y1453724D03*
X1667733D03*
X1772733Y1460224D03*
X1776670D03*
X1723733Y1439224D03*
X1727670D03*
X1819733Y1610224D03*
X1823670D03*
X1799733Y1767224D03*
X1803670D03*
X1539733Y1456224D03*
X1543670D03*
X1653733Y1798224D03*
X1657670D03*
X1653733Y1788724D03*
X1657670D03*
X1870733Y1467224D03*
X1874670D03*
X1923670D03*
X1919733D03*
X1671670Y1460224D03*
X1667733D03*
X1772733Y1481224D03*
X1776670D03*
X2119733Y1453224D03*
X2123670D03*
X2042733Y1481224D03*
X2046670D03*
X1923670Y1460224D03*
X1919733D03*
X1825670D03*
X1821733D03*
X1776670Y1467224D03*
X1772733D03*
Y1453224D03*
X1776670D03*
X1539733Y1450224D03*
X1543670D03*
X1539733Y1444224D03*
X1543670D03*
X2246233Y1441224D03*
X2250170D03*
X2225233D03*
X2229170D03*
X2471870Y1740624D03*
X2467933D03*
X2178733Y1726224D03*
X2182670D03*
X2066733Y1481224D03*
X2070670D03*
X2164733Y1453224D03*
X2168670D03*
X2149733Y1383224D03*
X2153670D03*
X2108733D03*
X2112670D03*
X2178733Y1719224D03*
X2182670D03*
X1702733Y1809224D03*
X1706670D03*
X1685670D03*
X1681733D03*
X1671670Y1439724D03*
X1667733D03*
X1671670Y1433224D03*
X1667733D03*
X1723733Y1453224D03*
X1727670D03*
X1723733Y1460224D03*
X1727670D03*
X1671670Y1474224D03*
X1667733D03*
X1723733D03*
X1727670D03*
X1825670Y1453224D03*
X1821733D03*
X1870733Y1460224D03*
X1874670D03*
X1870733Y1474224D03*
X1874670D03*
Y1488224D03*
X1870733D03*
X2330233Y1441224D03*
X2334170D03*
X2309233D03*
X2313170D03*
X2288233D03*
X2292170D03*
X2267233D03*
X2271170D03*
G54D222*
X1686792Y1464498D03*
Y1462530D03*
Y1460561D03*
Y1458593D03*
Y1456624D03*
Y1454656D03*
Y1452687D03*
Y1450719D03*
Y1448750D03*
X1710611D03*
Y1450719D03*
Y1452687D03*
Y1454656D03*
Y1456624D03*
Y1458593D03*
Y1460561D03*
Y1462530D03*
Y1464498D03*
G54D223*
X1690827Y1444715D03*
X1692796D03*
X1694764D03*
X1696733D03*
X1698701D03*
X1700670D03*
X1702638D03*
X1704607D03*
X1706575D03*
Y1468534D03*
X1704607D03*
X1702638D03*
X1700670D03*
X1698701D03*
X1696733D03*
X1694764D03*
X1692796D03*
X1690827D03*
G54D224*
X1698701Y1456624D03*
G54D225*
X1636701Y1838693D03*
Y1834756D03*
X2026701Y1682256D03*
Y1686193D03*
X1642701Y1780256D03*
Y1784193D03*
X1606701Y1770193D03*
Y1766256D03*
X1585701Y1388256D03*
Y1392193D03*
X1599701D03*
Y1388256D03*
X1624701Y1469256D03*
Y1473193D03*
X2313748Y1563242D03*
Y1567179D03*
X1921201Y1441193D03*
Y1437256D03*
X1914701Y1441193D03*
Y1437256D03*
X1984701Y1402256D03*
Y1406193D03*
X1802701Y1835756D03*
Y1839693D03*
X1613701Y1388256D03*
Y1392193D03*
X1627701D03*
Y1388256D03*
X2086701Y1658193D03*
Y1654256D03*
X2138654Y1591301D03*
Y1595238D03*
X2390701Y1619256D03*
Y1623193D03*
X1578701Y1868193D03*
Y1864256D03*
X1969201Y1624193D03*
Y1620256D03*
X1977701Y1402256D03*
Y1406193D03*
X1795701Y1836256D03*
Y1840193D03*
X1788701Y1836256D03*
Y1840193D03*
X1634701Y1455193D03*
Y1451256D03*
X1622701Y1838693D03*
Y1834756D03*
X1956701Y1773256D03*
Y1777193D03*
X1970701Y1406193D03*
Y1402256D03*
X1963701D03*
Y1406193D03*
X1964301Y1471593D03*
Y1467656D03*
X1704701Y1423256D03*
Y1427193D03*
X1676701Y1490193D03*
Y1486256D03*
X1701201D03*
Y1490193D03*
X2397679Y1619232D03*
Y1623169D03*
X2320725Y1563218D03*
Y1567155D03*
X1781701Y1840193D03*
Y1836256D03*
X1711701Y1423256D03*
Y1427193D03*
X1697701Y1423256D03*
Y1427193D03*
X1723701Y1490693D03*
Y1486756D03*
X1900701Y1777193D03*
Y1773256D03*
X1629701Y1838693D03*
Y1834756D03*
X1634701Y1464256D03*
Y1468193D03*
X1648201Y1780256D03*
Y1784193D03*
X1830201Y1437756D03*
Y1441693D03*
X2348701Y1640256D03*
Y1644193D03*
X2250701Y1563256D03*
Y1567193D03*
X2026701Y1654856D03*
Y1658793D03*
X1817201Y1441193D03*
Y1437256D03*
X1823701Y1441193D03*
Y1437256D03*
X1643701Y1838693D03*
Y1834756D03*
G54D226*
X1636613Y1883045D03*
X1632676D03*
X1685613Y1428045D03*
X1681676D03*
X2146613Y1372045D03*
X2142676D03*
X1752613Y1393045D03*
X1748676D03*
X1741613D03*
X1737676D03*
X2116613Y1372045D03*
X2112676D03*
G54D227*
X1634645Y1877139D03*
X1683645Y1422139D03*
X2144645Y1366139D03*
X1750645Y1387139D03*
X1739645D03*
X2114645Y1366139D03*
G54D228*
X2016197Y1453224D03*
X2023205D03*
X1575197Y1818224D03*
X1582205D03*
X1838205Y1767224D03*
X1831197D03*
X2141197Y1453224D03*
X2148205D03*
X2492205Y1866224D03*
X2485197D03*
X2093197Y1453224D03*
X2100205D03*
X2198197Y1383224D03*
X2205205D03*
G54D229*
X2348701Y1745256D03*
Y1749193D03*
X1774701Y1493256D03*
Y1497193D03*
X1741701Y1406193D03*
Y1402256D03*
X2065201Y1724256D03*
Y1728193D03*
X2065701Y1654256D03*
Y1658193D03*
X1606701Y1784193D03*
Y1780256D03*
X1613701Y1784193D03*
Y1780256D03*
X2173701Y1871256D03*
Y1875193D03*
X2145701D03*
Y1871256D03*
X2152701Y1875193D03*
Y1871256D03*
X2131701Y1875193D03*
Y1871256D03*
X1585701Y1878256D03*
Y1882193D03*
X2033701Y1875193D03*
Y1871256D03*
X2026701Y1875193D03*
Y1871256D03*
X1914701Y1591256D03*
Y1595193D03*
X2058701Y1658193D03*
Y1654256D03*
X1598701Y1455193D03*
Y1451256D03*
X1648201Y1455193D03*
Y1451256D03*
X1592701Y1878256D03*
Y1882193D03*
X2107201Y1826193D03*
Y1822256D03*
X1613701Y1766256D03*
Y1770193D03*
X2047701Y1875193D03*
Y1871256D03*
X1716701Y1406193D03*
Y1402256D03*
X1830701Y1493256D03*
Y1497193D03*
X2180701Y1871256D03*
Y1875193D03*
X2355701Y1745256D03*
Y1749193D03*
X2369701Y1745256D03*
Y1749193D03*
X2362701Y1745256D03*
Y1749193D03*
X2418701Y1745256D03*
Y1749193D03*
X1641701Y1878256D03*
Y1882193D03*
X2320701Y1549256D03*
Y1553193D03*
X2313701Y1549256D03*
Y1553193D03*
X1991701Y1633256D03*
Y1637193D03*
X1907701Y1633256D03*
Y1637193D03*
X1921701Y1591256D03*
Y1595193D03*
X2040701Y1432256D03*
Y1436193D03*
X2061701Y1381256D03*
Y1385193D03*
X2110701Y1875193D03*
Y1871256D03*
X2499201Y1473756D03*
Y1477693D03*
X2506201D03*
Y1473756D03*
X2082701Y1875193D03*
Y1871256D03*
X2103701Y1875193D03*
Y1871256D03*
X2089701Y1875193D03*
Y1871256D03*
X2124701Y1875193D03*
Y1871256D03*
X1907701Y1619256D03*
Y1623193D03*
X2348701Y1672193D03*
Y1668256D03*
X2390701Y1605256D03*
Y1609193D03*
X2341701Y1644193D03*
Y1640256D03*
X2397701Y1605256D03*
Y1609193D03*
X2257701Y1567193D03*
Y1563256D03*
X1642201Y1451256D03*
Y1455193D03*
X1781701Y1493256D03*
Y1497193D03*
X1788701Y1493256D03*
Y1497193D03*
X1886701Y1504193D03*
Y1500256D03*
X1872701Y1423256D03*
Y1427193D03*
X1879701Y1423256D03*
Y1427193D03*
X1865701Y1423256D03*
Y1427193D03*
X1886701Y1423256D03*
Y1427193D03*
X1620701Y1388256D03*
Y1392193D03*
X2471201Y1473756D03*
Y1477693D03*
X2478201D03*
Y1473756D03*
X2443201D03*
Y1477693D03*
X2450201D03*
Y1473756D03*
X2359201D03*
Y1477693D03*
X2422201D03*
Y1473756D03*
X2387201D03*
Y1477693D03*
X2394201D03*
Y1473756D03*
X2415201D03*
Y1477693D03*
X2366201D03*
Y1473756D03*
X2530701Y1728193D03*
Y1724256D03*
Y1742193D03*
Y1738256D03*
X1893701Y1773256D03*
Y1777193D03*
X1921701Y1773256D03*
Y1777193D03*
X1540701Y1751756D03*
Y1755693D03*
X1547201Y1751756D03*
Y1755693D03*
X1928701Y1777193D03*
Y1773256D03*
X1935701Y1777193D03*
Y1773256D03*
X1942701Y1777193D03*
Y1773256D03*
X1984701Y1777193D03*
Y1773256D03*
X1991701Y1777193D03*
Y1773256D03*
X1949701Y1777193D03*
Y1773256D03*
X2005701Y1777193D03*
Y1773256D03*
X2075701Y1436193D03*
Y1432256D03*
X2068701D03*
Y1436193D03*
X2040701Y1381256D03*
Y1385193D03*
X2033701D03*
Y1381256D03*
X2047701D03*
Y1385193D03*
X2068701Y1381256D03*
Y1385193D03*
X2075701Y1381256D03*
Y1385193D03*
X1991701Y1619256D03*
Y1623193D03*
X2058201Y1724256D03*
Y1728193D03*
X2107201Y1808256D03*
Y1812193D03*
X2219701Y1598256D03*
Y1602193D03*
X2045701Y1570256D03*
Y1574193D03*
X2093701Y1654256D03*
Y1658193D03*
X2215701Y1664193D03*
Y1660256D03*
Y1694193D03*
Y1690256D03*
X2212701Y1598256D03*
Y1602193D03*
X2383701Y1812193D03*
Y1808256D03*
X2079201Y1825693D03*
Y1821756D03*
X2348701Y1658193D03*
Y1654256D03*
X2341701Y1672193D03*
Y1668256D03*
X1599701Y1878256D03*
Y1882193D03*
X2061701Y1875193D03*
Y1871256D03*
X2068701Y1875193D03*
Y1871256D03*
X2054701Y1875193D03*
Y1871256D03*
X1704701Y1500756D03*
Y1504693D03*
X1711701Y1500756D03*
Y1504693D03*
X1676701Y1427193D03*
Y1423256D03*
X1690701Y1427193D03*
Y1423256D03*
X1730701Y1490693D03*
Y1486756D03*
X1748201Y1406193D03*
Y1402256D03*
X1755201Y1406193D03*
Y1402256D03*
X1837701Y1493256D03*
Y1497193D03*
X2093201Y1812193D03*
Y1808256D03*
X1781701Y1423256D03*
Y1427193D03*
X1788701Y1423256D03*
Y1427193D03*
X1774701Y1423256D03*
Y1427193D03*
X1795701Y1423256D03*
Y1427193D03*
Y1493256D03*
Y1497193D03*
X1802701D03*
Y1493256D03*
X1872701Y1500256D03*
Y1504193D03*
X1879701Y1500256D03*
Y1504193D03*
X1914701Y1500256D03*
Y1504193D03*
X1921701Y1500256D03*
Y1504193D03*
X1893701Y1437256D03*
Y1441193D03*
X1547101Y1694393D03*
Y1690456D03*
Y1707656D03*
Y1711593D03*
Y1654393D03*
Y1650456D03*
X1725701Y1406193D03*
Y1402256D03*
X1795701Y1437256D03*
Y1441193D03*
X1648701Y1882193D03*
Y1878256D03*
X1627701Y1882193D03*
Y1878256D03*
X2047701Y1436193D03*
Y1432256D03*
X1606701Y1388256D03*
Y1392193D03*
X1620701Y1882193D03*
Y1878256D03*
X1592701Y1388256D03*
Y1392193D03*
G54D230*
X2345889Y1701444D03*
X2347464Y1727428D03*
X2349039Y1701444D03*
X2350613Y1727428D03*
X2352188Y1701444D03*
X2353763Y1727428D03*
X2355338Y1701444D03*
X2356913Y1727428D03*
X2358487Y1701444D03*
X2360062Y1727428D03*
X2361637Y1701444D03*
X2363212Y1727428D03*
X2364787Y1701444D03*
X2366361Y1727428D03*
X2367936Y1701444D03*
X2369511Y1727428D03*
X2383684Y1701444D03*
X2385259Y1727428D03*
X2386834Y1701444D03*
X2388409Y1727428D03*
X2389983Y1701444D03*
X2391558Y1727428D03*
X2393133Y1701444D03*
X2394708Y1727428D03*
X2396283Y1701444D03*
X2397857Y1727428D03*
X2399432Y1701444D03*
X2401007Y1727428D03*
X2402582Y1701444D03*
X2404157Y1727428D03*
X2405732Y1701444D03*
X2407306Y1727428D03*
X2408881Y1701444D03*
X2410456Y1727428D03*
X2412031Y1701444D03*
X2413606Y1727428D03*
X2415180Y1701444D03*
X2416755Y1727428D03*
X2418330Y1701444D03*
X2419905Y1727428D03*
X2421480Y1701444D03*
X2423054Y1727428D03*
X2424629Y1701444D03*
X2426204Y1727428D03*
X2427779Y1701444D03*
X2429354Y1727428D03*
X2430928Y1701444D03*
X2432503Y1727428D03*
X2434078Y1701444D03*
X2435653Y1727428D03*
X2437228Y1701444D03*
X2438802Y1727428D03*
G54D231*
X2336046Y1701444D03*
X2449039D03*
G54D232*
X2345889Y1903412D03*
X2440377D03*
G54D233*
X2342621Y1714436D03*
G54D234*
X2441952D03*
X1618701Y1363724D03*
X1628701D03*
X1618701Y1353724D03*
X1628701D03*
X1623701Y1368744D03*
X1623501Y1348744D03*
X1521433Y1885031D03*
X1529833Y1876632D03*
X1521388Y1868141D03*
X1512943Y1876632D03*
X1527473Y1882458D03*
X1515306Y1882502D03*
X1515169Y1871015D03*
X1527797Y1871115D03*
X1521433Y1412831D03*
X1529833Y1404432D03*
X1521388Y1395941D03*
X1512943Y1404432D03*
X1527473Y1410258D03*
X1515306Y1410302D03*
X1515169Y1398815D03*
X1527797Y1398915D03*
X2535533Y1412831D03*
X2543933Y1404432D03*
X2535488Y1395941D03*
X2527043Y1404432D03*
X2541573Y1410258D03*
X2529406Y1410302D03*
X2529269Y1398815D03*
X2541897Y1398915D03*
X2535533Y1885031D03*
X2543933Y1876632D03*
X2535488Y1868141D03*
X2527043Y1876632D03*
X2541573Y1882458D03*
X2529406Y1882502D03*
X2529269Y1871015D03*
X2541897Y1871115D03*
G54D235*
X1852575Y1451224D03*
Y1471224D03*
X1836827D03*
Y1451224D03*
X1579327Y1800224D03*
Y1780224D03*
X1595075D03*
Y1800224D03*
G54D236*
X1631161Y1440974D03*
X1629201D03*
X1627241D03*
X1625281D03*
X1623321D03*
X1621361D03*
X1619401D03*
X1617441D03*
X1615481D03*
X1613521D03*
X1611561D03*
X1609601D03*
X1607641D03*
X1605681D03*
X1603721D03*
X1601761D03*
X1599801D03*
X1597841D03*
X1595881D03*
X1593921D03*
X1591961D03*
X1590001D03*
X1588041D03*
X1586081D03*
X1584121D03*
X1582161D03*
X1580201D03*
X1578241D03*
Y1411474D03*
X1580201D03*
X1582161D03*
X1584121D03*
X1586081D03*
X1588041D03*
X1590001D03*
X1591961D03*
X1593921D03*
X1595881D03*
X1597841D03*
X1599801D03*
X1601761D03*
X1603721D03*
X1605681D03*
X1607641D03*
X1609601D03*
X1611561D03*
X1613521D03*
X1615481D03*
X1617441D03*
X1619401D03*
X1621361D03*
X1623321D03*
X1625281D03*
X1627241D03*
X1629201D03*
X1631161D03*
G54D237*
X1635701Y1778720D03*
Y1785728D03*
X2474701Y1582728D03*
Y1575720D03*
X2043201Y1679720D03*
Y1686728D03*
X1719201Y1419720D03*
Y1426728D03*
X1567701Y1836720D03*
Y1843728D03*
X1725701Y1386720D03*
Y1393728D03*
X1716701Y1386720D03*
Y1393728D03*
X1642701Y1464720D03*
Y1471728D03*
X1615701Y1840228D03*
Y1833220D03*
X1558701Y1836720D03*
Y1843728D03*
X2467701Y1722720D03*
Y1729728D03*
X2053101Y1568920D03*
Y1575928D03*
X2034701Y1568720D03*
Y1575728D03*
X2016701Y1624728D03*
Y1617720D03*
X2095201Y1722720D03*
Y1729728D03*
G54D238*
X1938858Y1351294D03*
X1596701Y1860224D03*
X2113156Y1351336D03*
X2044156D03*
X2370940Y1351343D03*
X2181940D03*
X1893701Y1467224D03*
X1795701D03*
X2508201Y1899724D03*
G54D239*
X1953858Y1351294D03*
X1968858D03*
X1983858D03*
X1998858D03*
X2013858D03*
X2128156Y1351336D03*
X2143156D03*
X2158156D03*
X1868158Y1350232D03*
X1858158D03*
X1901308D03*
X1911308D03*
X2059156Y1351336D03*
X2074156D03*
X2089156D03*
X2385940Y1351343D03*
X2400940D03*
X2415940D03*
X2430940D03*
X2445940D03*
X2460940D03*
X2475940D03*
X2490940D03*
X2505940D03*
X2520940D03*
X2535940D03*
X2196940D03*
X2211940D03*
X2226940D03*
X2241940D03*
X2256940D03*
X2271940D03*
X2286940D03*
X2301940D03*
X2316940D03*
X2331940D03*
X2346940D03*
X1787158Y1350232D03*
X1777158D03*
X1820308D03*
X1830308D03*
X2493201Y1899724D03*
X2478201D03*
G54D240*
X1727670Y1446224D03*
X1723733D03*
X1564233Y1439224D03*
X1568170D03*
X1874670Y1481224D03*
X1870733D03*
X1776670Y1474224D03*
X1772733D03*
X2199733Y1411224D03*
X2203670D03*
X1923670Y1481224D03*
X1919733D03*
X1825670Y1467224D03*
X1821733D03*
X1667733Y1446724D03*
X1671670D03*
X1665733Y1809224D03*
X1669670D03*
X1699670Y1859224D03*
X1695733D03*
X1677233Y1852224D03*
X1681170D03*
X1772733Y1446724D03*
X1776670D03*
X2017733Y1481224D03*
X2021670D03*
X2142733D03*
X2146670D03*
X1667733D03*
X1671670D03*
X1801733Y1788224D03*
X1805670D03*
X1923670Y1474224D03*
X1919733D03*
Y1453224D03*
X1923670D03*
X1870233D03*
X1874170D03*
X1590733Y1818224D03*
X1594670D03*
X1590733Y1811224D03*
X1594670D03*
X1653733Y1818724D03*
X1657670D03*
X1665733Y1795224D03*
X1669670D03*
X1699670Y1901224D03*
X1695733D03*
X1667733Y1467224D03*
X1671670D03*
X1727670D03*
X1723733D03*
X1653733Y1825224D03*
X1657670D03*
X1653733Y1812224D03*
X1657670D03*
X1653733Y1805224D03*
X1657670D03*
X1825670Y1473724D03*
X1821733D03*
X2497470Y1716424D03*
X2493533D03*
X1695733Y1908224D03*
X1699670D03*
X1695733Y1852224D03*
X1699670D03*
X2094733Y1481224D03*
X2098670D03*
G54D241*
X2090894Y1467224D03*
X2102508D03*
X2195894Y1397224D03*
X2207508D03*
X2013894Y1467224D03*
X2025508D03*
X2138894D03*
X2150508D03*
X2244894Y1551224D03*
X2256508D03*
G54D242*
X2425701Y1574413D03*
Y1598035D03*
X2467701Y1770413D03*
Y1794035D03*
G54D243*
X2401501Y1525023D03*
G54D244*
Y1531724D03*
Y1538424D03*
Y1545125D03*
Y1551826D03*
G54D245*
X2349533Y1538424D03*
G54D246*
X2059701Y1816213D03*
X2020701Y1605736D03*
X2152701Y1598736D03*
G54D247*
X2065607Y1821724D03*
X2053796D03*
X2014796Y1600224D03*
X2026607D03*
X2146796Y1593224D03*
X2158607D03*
G54D248*
X1591780Y1852350D03*
X1593749D03*
X1595717D03*
X1597686D03*
X1599654D03*
X1601623D03*
Y1868098D03*
X1599654D03*
X1597686D03*
X1595717D03*
X1593749D03*
X1591780D03*
G54D249*
X1604575Y1855303D03*
Y1857272D03*
Y1859240D03*
Y1861209D03*
Y1863177D03*
Y1865146D03*
X1588827D03*
Y1863177D03*
Y1861209D03*
Y1859240D03*
Y1857272D03*
Y1855303D03*
G54D250*
X2261701Y1890224D03*
X2281701D03*
Y1910224D03*
X2261701D03*
X2191701Y1890224D03*
X2211701D03*
Y1910224D03*
X2191701D03*
X2296701Y1890224D03*
X2316701D03*
Y1910224D03*
X2296701D03*
X2226701Y1890224D03*
X2246701D03*
Y1910224D03*
X2226701D03*
G54D251*
X1534147Y1484823D03*
X1536116D03*
X1538084D03*
X1540053D03*
X1542021D03*
X1543990D03*
X1545958D03*
X1547927D03*
X1549895D03*
X1551864D03*
X1553832D03*
X1555801D03*
X1557769D03*
X1559738D03*
X1561706D03*
X1563675D03*
X1565643D03*
X1567612D03*
X1569580D03*
X1571549D03*
X1573517D03*
X1575486D03*
X1577454D03*
X1579423D03*
X1581391D03*
X1583360D03*
X1585329D03*
X1587297D03*
X1589266D03*
X1591234D03*
X1593203D03*
X1595171D03*
X1597140D03*
X1599108D03*
X1601077D03*
X1603045D03*
X1605014D03*
X1606982D03*
X1608951D03*
X1610919D03*
X1612888D03*
X1614856D03*
X1616825D03*
X1618793D03*
X1620762D03*
X1622730D03*
X1624699D03*
X1626667D03*
X1628636D03*
X1630604D03*
X1632573D03*
X1634541D03*
X1636510D03*
X1638478D03*
G54D252*
X1523360Y1496291D03*
X1650644D03*
G54D253*
X1671381Y1804136D03*
Y1800199D03*
X2041522Y1367312D03*
Y1371249D03*
X2071522Y1367312D03*
Y1371249D03*
X1662522Y1434312D03*
Y1438249D03*
G54D254*
X1677287Y1802168D03*
X2035616Y1369281D03*
X2065616D03*
X1656616Y1436281D03*
G54D255*
X2169733Y1726224D03*
X2163670D03*
X2002670Y1481224D03*
X2008733D03*
X2126670Y1483224D03*
X2132733D03*
X2056670Y1808724D03*
X2062733D03*
X2085733Y1481224D03*
X2079670D03*
X2426533Y1538424D03*
X2420470D03*
G54D256*
X2380201Y1793224D03*
X2375201D03*
X2370201D03*
X2365201D03*
X2360201D03*
X2355201D03*
X2350201D03*
X2345201D03*
Y1771224D03*
X2350201D03*
X2355201D03*
X2360201D03*
X2365201D03*
X2370201D03*
X2375201D03*
X2380201D03*
X1971201Y1604224D03*
X1966201D03*
X1961201D03*
X1956201D03*
X1951201D03*
X1946201D03*
X1941201D03*
X1936201D03*
Y1582224D03*
X1941201D03*
X1946201D03*
X1951201D03*
X1956201D03*
X1961201D03*
X1966201D03*
X1971201D03*
X1882701Y1782724D03*
X1877701D03*
X1872701D03*
X1867701D03*
Y1762724D03*
X1872701D03*
X1877701D03*
X1882701D03*
X1960201Y1421224D03*
X1965201D03*
X1970201D03*
X1975201D03*
X1980201D03*
X1985201D03*
X1990201D03*
X1995201D03*
Y1443224D03*
X1990201D03*
X1985201D03*
X1980201D03*
X1975201D03*
X1970201D03*
X1965201D03*
X1960201D03*
X1806201Y1821224D03*
X1801201D03*
X1796201D03*
X1791201D03*
X1786201D03*
X1781201D03*
X1776201D03*
X1771201D03*
Y1799224D03*
X1776201D03*
X1781201D03*
X1786201D03*
X1791201D03*
X1796201D03*
X1801201D03*
X1806201D03*
X2048201Y1471524D03*
X2043201D03*
X2038201D03*
X2033201D03*
Y1448924D03*
X2038201D03*
X2043201D03*
X2048201D03*
X2076201Y1422524D03*
X2071201D03*
X2066201D03*
X2061201D03*
Y1399924D03*
X2066201D03*
X2071201D03*
X2076201D03*
X1686201Y1842524D03*
X1681201D03*
X1676201D03*
X1671201D03*
Y1819924D03*
X1676201D03*
X1681201D03*
X1686201D03*
X2048201Y1422524D03*
X2043201D03*
X2038201D03*
X2033201D03*
Y1399924D03*
X2038201D03*
X2043201D03*
X2048201D03*
X2073201Y1471524D03*
X2068201D03*
X2063201D03*
X2058201D03*
Y1448924D03*
X2063201D03*
X2068201D03*
X2073201D03*
G54D257*
X2327901Y1609480D03*
Y1591369D03*
X2474701Y1598169D03*
Y1616280D03*
X1984701Y1373524D03*
Y1390925D03*
X2467701Y1882280D03*
Y1864169D03*
X2009201Y1373524D03*
Y1390925D03*
X1938701Y1373524D03*
Y1390925D03*
X1963701Y1373524D03*
Y1390925D03*
X2474701Y1682169D03*
Y1700280D03*
X2369701Y1570169D03*
Y1588280D03*
G54D258*
X2222701Y1405224D03*
X2232701D03*
Y1428846D03*
X2222701D03*
X2306701Y1405224D03*
X2316701D03*
Y1428846D03*
X2306701D03*
X2264701Y1405224D03*
X2274701D03*
Y1428846D03*
X2264701D03*
X2327701Y1405224D03*
X2337701D03*
Y1428846D03*
X2327701D03*
X2285701Y1405224D03*
X2295701D03*
Y1428846D03*
X2285701D03*
X2243701Y1405224D03*
X2253701D03*
Y1428846D03*
X2243701D03*
G54D259*
X1678201Y1401724D03*
X1699701Y1374224D03*
X1678201D03*
X1699701Y1401724D03*
G54D260*
X1688701Y1375224D03*
G54D261*
Y1383224D03*
Y1391224D03*
Y1399224D03*
G54D262*
X2518701Y1703909D03*
Y1664539D03*
X2425701Y1629539D03*
Y1668909D03*
X2516701Y1794909D03*
Y1755539D03*
G54D263*
X1520701Y1465776D03*
Y1434673D03*
G54D264*
X1854339Y1380035D03*
X1915363D03*
X1773339D03*
X1834363D03*
G54D265*
X1866701Y1393224D03*
X1871701Y1403185D03*
X1876701Y1393224D03*
X1881701Y1403185D03*
X1886701Y1393224D03*
X1891701Y1403185D03*
X1896701Y1393224D03*
X1901701Y1403185D03*
X1785701Y1393224D03*
X1790701Y1403185D03*
X1795701Y1393224D03*
X1800701Y1403185D03*
X1805701Y1393224D03*
X1810701Y1403185D03*
X1815701Y1393224D03*
X1820701Y1403185D03*
X1536701Y1787303D03*
X2067701Y1495224D03*
X2077701D03*
X2087701D03*
X2097701D03*
X1998701D03*
X2008701D03*
X2018701D03*
X2028701D03*
X2122701D03*
X2132701D03*
X2142701D03*
X2152701D03*
X2188701Y1454224D03*
Y1444224D03*
Y1434224D03*
Y1424224D03*
G54D266*
X2478451Y1464474D03*
X2470951D03*
X2211951Y1609974D03*
X2219451D03*
X2190451Y1726474D03*
Y1718974D03*
X2422451Y1464474D03*
X2414951D03*
X1547451Y1764474D03*
Y1771974D03*
X2050951Y1652474D03*
Y1659974D03*
X2085951Y1819974D03*
X2093451D03*
X2506451Y1464474D03*
X2498951D03*
X2450451D03*
X2442951D03*
X2394451D03*
X2386951D03*
X2366451D03*
X2358951D03*
G54D267*
X2474701Y1455774D03*
X2215701Y1618674D03*
X2418701Y1455774D03*
X2089701Y1828674D03*
X2502701Y1455774D03*
X2446701D03*
X2390701D03*
X2362701D03*
G54D268*
X1641481Y1799398D03*
Y1801366D03*
Y1803335D03*
Y1805303D03*
Y1807272D03*
Y1809240D03*
Y1811209D03*
Y1813177D03*
Y1815146D03*
Y1817114D03*
Y1819083D03*
Y1821051D03*
X1613922D03*
Y1819083D03*
Y1817114D03*
Y1815146D03*
Y1813177D03*
Y1811209D03*
Y1809240D03*
Y1807272D03*
Y1805303D03*
Y1803335D03*
Y1801366D03*
Y1799398D03*
G54D269*
X1638528Y1824004D03*
X1636560D03*
X1634591D03*
X1632623D03*
X1630654D03*
X1628686D03*
X1626717D03*
X1624749D03*
X1622780D03*
X1620812D03*
X1618843D03*
X1616875D03*
Y1796445D03*
X1618843D03*
X1620812D03*
X1622780D03*
X1624749D03*
X1626717D03*
X1628686D03*
X1630654D03*
X1632623D03*
X1634591D03*
X1636560D03*
X1638528D03*
G54D270*
X1627701Y1810224D03*
G54D271*
X1641701Y1853319D03*
Y1865130D03*
X1627701Y1853319D03*
Y1865130D03*
G54D272*
X1549646Y1856413D03*
X1558701D03*
X1567756D03*
G54D273*
X1558701Y1880035D03*
G54D274*
X1748386Y1838224D03*
X1709016D03*
X1745386Y1887224D03*
X1706016D03*
X2496016Y1831224D03*
X2535386D03*
G54D275*
X1886701Y1733224D03*
X1946701D03*
G54D276*
X2199151Y1722724D03*
X1538751Y1768224D03*
X2042251Y1656224D03*
G54D277*
X1984441Y1640145D03*
X1976961D03*
X1980701Y1630303D03*
X1924441Y1640145D03*
X1916961D03*
X1920701Y1630303D03*
X1907461Y1770303D03*
X1914941D03*
X1911201Y1780145D03*
G54D278*
X2107701Y1796224D03*
X2103371D03*
X2099040D03*
X2094709D03*
X2090378D03*
X2086048D03*
X2081717D03*
X2068725D03*
X2064394D03*
X2060064D03*
X2055733D03*
X2051402D03*
X2051796Y1748193D03*
X2056127D03*
X2060457D03*
X2064788D03*
X2069119D03*
X2082323D03*
X2086654D03*
X2090985D03*
X2095315D03*
X2099646D03*
X2103977D03*
X2108308D03*
G54D279*
X1928292Y1794224D03*
X1938095D03*
X1952095D03*
X1958095D03*
X1968095D03*
X1978095D03*
X1987506Y1794227D03*
X1994095Y1794224D03*
X1918882D03*
X2006701D03*
X1944095D03*
G54D280*
X2011573Y1884024D03*
X1897573Y1880524D03*
G54D281*
X1849989Y1738223D03*
X1592587D03*
X1849989Y1584680D03*
X1592587D03*
G54D282*
X1843801Y1747180D03*
X1843788Y1729266D03*
X1838801Y1747180D03*
X1838788Y1729266D03*
X1833801Y1747180D03*
X1833788Y1729266D03*
X1828801Y1747180D03*
X1828788Y1729266D03*
X1823801Y1747180D03*
X1823788Y1729266D03*
X1818801Y1747180D03*
X1818788Y1729266D03*
X1813801Y1747180D03*
X1813788Y1729266D03*
X1808801Y1747180D03*
X1808788Y1729266D03*
X1803801Y1747180D03*
X1803788Y1729266D03*
X1798801Y1747180D03*
X1798788Y1729266D03*
X1793801Y1747180D03*
X1793788Y1729266D03*
X1788801Y1747180D03*
X1788788Y1729266D03*
X1783801Y1747180D03*
X1783788Y1729266D03*
X1778801Y1747180D03*
X1778788Y1729266D03*
X1773801Y1747180D03*
X1773788Y1729266D03*
X1768801Y1747180D03*
X1768788Y1729266D03*
X1763801Y1747180D03*
X1763788Y1729266D03*
X1758801Y1747180D03*
X1758788Y1729266D03*
X1753801Y1747180D03*
X1753788Y1729266D03*
X1748801Y1747180D03*
X1748788Y1729266D03*
X1743801Y1747180D03*
X1743788Y1729266D03*
X1738801Y1747180D03*
X1738788Y1729266D03*
X1733801Y1747180D03*
X1733788Y1729266D03*
X1728801Y1747180D03*
X1728788Y1729266D03*
X1723801Y1747180D03*
X1723788Y1729266D03*
X1718801Y1747180D03*
X1718788Y1729266D03*
X1713801Y1747180D03*
X1713788Y1729266D03*
X1708801Y1747180D03*
X1708788Y1729266D03*
X1703801Y1747180D03*
X1703788Y1729266D03*
X1698801Y1747180D03*
X1698788Y1729266D03*
X1693801Y1747180D03*
X1693788Y1729266D03*
X1688801Y1747180D03*
X1688788Y1729266D03*
X1683801Y1747180D03*
X1683788Y1729266D03*
X1678801Y1747180D03*
X1678788Y1729266D03*
X1673801Y1747180D03*
X1673788Y1729266D03*
X1668801Y1747180D03*
X1668788Y1729266D03*
X1663801Y1747180D03*
X1663788Y1729266D03*
X1658801Y1747180D03*
X1658788Y1729266D03*
X1653801Y1747180D03*
X1653788Y1729266D03*
X1648801Y1747180D03*
X1648788Y1729266D03*
X1643801Y1747180D03*
X1643788Y1729266D03*
X1638801Y1747180D03*
X1638788Y1729266D03*
X1633801Y1747180D03*
X1633788Y1729266D03*
X1628801Y1747180D03*
X1628788Y1729266D03*
X1623801Y1747180D03*
X1623788Y1729266D03*
X1618801Y1747180D03*
X1618788Y1729266D03*
X1613801Y1747180D03*
X1613788Y1729266D03*
X1608801Y1747180D03*
X1608788Y1729266D03*
X1603801Y1747180D03*
X1603788Y1729266D03*
X1598801Y1747180D03*
X1598788Y1729266D03*
X1843801Y1593637D03*
X1843788Y1575723D03*
X1838801Y1593637D03*
X1838788Y1575723D03*
X1833801Y1593637D03*
X1833788Y1575723D03*
X1828801Y1593637D03*
X1828788Y1575723D03*
X1823801Y1593637D03*
X1823788Y1575723D03*
X1818801Y1593637D03*
X1818788Y1575723D03*
X1813801Y1593637D03*
X1813788Y1575723D03*
X1808801Y1593637D03*
X1808788Y1575723D03*
X1803801Y1593637D03*
X1803788Y1575723D03*
X1798801Y1593637D03*
X1798788Y1575723D03*
X1793801Y1593637D03*
X1793788Y1575723D03*
X1788801Y1593637D03*
X1788788Y1575723D03*
X1783801Y1593637D03*
X1783788Y1575723D03*
X1778801Y1593637D03*
X1778788Y1575723D03*
X1773801Y1593637D03*
X1773788Y1575723D03*
X1768801Y1593637D03*
X1768788Y1575723D03*
X1763801Y1593637D03*
X1763788Y1575723D03*
X1758801Y1593637D03*
X1758788Y1575723D03*
X1753801Y1593637D03*
X1753788Y1575723D03*
X1748801Y1593637D03*
X1748788Y1575723D03*
X1743801Y1593637D03*
X1743788Y1575723D03*
X1738801Y1593637D03*
X1738788Y1575723D03*
X1733801Y1593637D03*
X1733788Y1575723D03*
X1728801Y1593637D03*
X1728788Y1575723D03*
X1723801Y1593637D03*
X1723788Y1575723D03*
X1718801Y1593637D03*
X1718788Y1575723D03*
X1713801Y1593637D03*
X1713788Y1575723D03*
X1708801Y1593637D03*
X1708788Y1575723D03*
X1703801Y1593637D03*
X1703788Y1575723D03*
X1698801Y1593637D03*
X1698788Y1575723D03*
X1693801Y1593637D03*
X1693788Y1575723D03*
X1688801Y1593637D03*
X1688788Y1575723D03*
X1683801Y1593637D03*
X1683788Y1575723D03*
X1678801Y1593637D03*
X1678788Y1575723D03*
X1673801Y1593637D03*
X1673788Y1575723D03*
X1668801Y1593637D03*
X1668788Y1575723D03*
X1663801Y1593637D03*
X1663788Y1575723D03*
X1658801Y1593637D03*
X1658788Y1575723D03*
X1653801Y1593637D03*
X1653788Y1575723D03*
X1648801Y1593637D03*
X1648788Y1575723D03*
X1643801Y1593637D03*
X1643788Y1575723D03*
X1638801Y1593637D03*
X1638788Y1575723D03*
X1633801Y1593637D03*
X1633788Y1575723D03*
X1628801Y1593637D03*
X1628788Y1575723D03*
X1623801Y1593637D03*
X1623788Y1575723D03*
X1618801Y1593637D03*
X1618788Y1575723D03*
X1613801Y1593637D03*
X1613788Y1575723D03*
X1608801Y1593637D03*
X1608788Y1575723D03*
X1603801Y1593637D03*
X1603788Y1575723D03*
X1598801Y1593637D03*
X1598788Y1575723D03*
G54D283*
X2348701Y1573417D03*
Y1585031D03*
G54D284*
X2376701Y1643941D03*
Y1668508D03*
X2243701Y1587941D03*
Y1612508D03*
X2474701Y1636941D03*
Y1661508D03*
G54D285*
X1871701Y1865824D03*
X1771701D03*
G54D286*
X1673701Y1864390D03*
X1681221Y1878957D03*
X1673701Y1887224D03*
X1681221Y1901398D03*
X1673701Y1910453D03*
G54D287*
X1553701Y1366224D03*
X1561221D03*
X1568741D03*
X1576260D03*
X1583780D03*
X1591300D03*
X1598819D03*
X1561221Y1358724D03*
X1568741D03*
X1576260D03*
X1583780D03*
X1591300D03*
X1598819D03*
X1606221D03*
X1553701Y1351224D03*
X1561221D03*
X1568741D03*
X1576260D03*
X1583780D03*
X1591300D03*
X1598819D03*
X1606221D03*
X1553701Y1358724D03*
X1606221Y1366224D03*
G54D288*
X1530709Y1351224D03*
X1651693D03*
G54D289*
X1901182Y1462303D03*
Y1464272D03*
Y1466240D03*
Y1468209D03*
Y1470177D03*
Y1472146D03*
X1886221D03*
Y1470177D03*
Y1468209D03*
Y1466240D03*
Y1464272D03*
Y1462303D03*
X1803182D03*
Y1464272D03*
Y1466240D03*
Y1468209D03*
Y1470177D03*
Y1472146D03*
X1788221D03*
Y1470177D03*
Y1468209D03*
Y1466240D03*
Y1464272D03*
Y1462303D03*
G54D290*
X1898623Y1474705D03*
X1896654D03*
X1894686D03*
X1892717D03*
X1890749D03*
X1888780D03*
Y1459744D03*
X1890749D03*
X1892717D03*
X1894686D03*
X1896654D03*
X1898623D03*
X1800623Y1474705D03*
X1798654D03*
X1796686D03*
X1794717D03*
X1792749D03*
X1790780D03*
Y1459744D03*
X1792749D03*
X1794717D03*
X1796686D03*
X1798654D03*
X1800623D03*
G54D291*
X2467701Y1845791D03*
Y1816657D03*
G54D292*
X2067701Y1902224D03*
X2087701D03*
X2127701D03*
X2167701D03*
X2147701D03*
X2027701D03*
X2107701D03*
X2047701D03*
G54D293*
X2077701D03*
X2067701Y1892224D03*
X2077701D03*
X2097701Y1902224D03*
X2087701Y1892224D03*
X2097701D03*
X2137701Y1902224D03*
X2127701Y1892224D03*
X2137701D03*
X2177701Y1902224D03*
X2167701Y1892224D03*
X2177701D03*
X2157701Y1902224D03*
X2147701Y1892224D03*
X2157701D03*
X2037701Y1902224D03*
X2027701Y1892224D03*
X2037701D03*
X2117701Y1902224D03*
X2107701Y1892224D03*
X2117701D03*
X2057701Y1902224D03*
X2047701Y1892224D03*
X2057701D03*
X2382701Y1391224D03*
X2382901Y1371224D03*
X2502701Y1391224D03*
X2502901Y1371224D03*
X2477701Y1391224D03*
X2477901Y1371224D03*
X2453701Y1391224D03*
X2453901Y1371224D03*
X2429701Y1391224D03*
X2429901Y1371224D03*
X2405701Y1391224D03*
X2405901Y1371224D03*
G54D294*
X1524401Y1652263D03*
X1516527D03*
X1524401Y1660137D03*
X1516527D03*
X1524401Y1668011D03*
X1516527D03*
X1524401Y1675885D03*
X1516527D03*
X1524401Y1683759D03*
X1516527D03*
X1524401Y1691633D03*
X1516527D03*
X1524401Y1699507D03*
X1516527D03*
X1524401Y1707381D03*
X1516527D03*
X1524401Y1715255D03*
X1516527D03*
X1524401Y1723129D03*
X1516527D03*
G54D295*
X2305386Y1600224D03*
X2266016D03*
G54D296*
X1922347Y1607224D03*
X1913056D03*
G54D297*
X2038977Y1593224D03*
X2043308D03*
X2047638D03*
X2051969D03*
X2056300D03*
X2060630D03*
X2064961D03*
X2069292D03*
X2073623D03*
X2077953D03*
X2082284D03*
X2086615D03*
Y1640469D03*
X2082284D03*
X2077953D03*
X2073623D03*
X2069292D03*
X2064961D03*
X2060630D03*
X2056300D03*
X2051969D03*
X2047638D03*
X2038977D03*
G54D298*
X2093701Y1603854D03*
Y1608185D03*
Y1612516D03*
Y1616846D03*
Y1621177D03*
Y1625508D03*
Y1629839D03*
G54D299*
X2286969Y1770768D03*
X2276969D03*
X2266969D03*
X2238150D03*
X2286969Y1862106D03*
X2276969D03*
X2266969D03*
X2238150D03*
X2270434Y1737681D03*
X2280434D03*
X2290434D03*
X2319253D03*
X2270434Y1646343D03*
X2280434D03*
X2290434D03*
X2319253D03*
X2174969Y1749768D03*
X2164969D03*
X2154969D03*
X2126150D03*
X2174969Y1841106D03*
X2164969D03*
X2154969D03*
X2126150D03*
G54D300*
X1730402Y1365244D03*
X1733552Y1365224D03*
X1736701D03*
X1739851D03*
X1743001D03*
G54D301*
X1719103Y1360420D03*
X1754103D03*
X1719280Y1339948D03*
X1754319D03*
G54D302*
X1693032Y1492874D03*
X1684371D03*
Y1486575D03*
X1693032D03*
G54D303*
X1536701Y1817224D03*
G54D304*
X2495001Y1880224D03*
X2482402D03*
G54D305*
X1521401Y1876624D03*
Y1404424D03*
X2535501D03*
Y1876624D03*
G54D306*
X1988701Y1684224D03*
X1978701D03*
X1968701Y1684213D03*
X1958701Y1684224D03*
Y1654303D03*
X1968701D03*
X1978701D03*
X1988701D03*
X1942701Y1684224D03*
X1932701D03*
X1922701Y1684213D03*
X1912701Y1684224D03*
Y1654303D03*
X1922701D03*
X1932701D03*
X1942701D03*
G54D307*
X2382701Y1441224D03*
Y1431224D03*
X2502701Y1441224D03*
Y1431224D03*
X2477701Y1441224D03*
Y1431224D03*
X2453701Y1441224D03*
Y1431224D03*
X2429701Y1441224D03*
Y1431224D03*
X2405701Y1441224D03*
Y1431224D03*
G54D308*
X2061382Y1675453D03*
X2063351D03*
X2065319D03*
X2067288D03*
X2069256D03*
X2071225D03*
X2073193D03*
X2075162D03*
X2077130D03*
X2079099D03*
X2081067D03*
X2083036D03*
Y1708917D03*
X2081067D03*
X2079099D03*
X2077130D03*
X2075162D03*
X2073193D03*
X2071225D03*
X2069256D03*
X2067288D03*
X2065319D03*
X2063351D03*
X2061382D03*
G54D309*
X2088941Y1681358D03*
Y1683327D03*
Y1685295D03*
Y1687264D03*
Y1689232D03*
Y1691201D03*
Y1693169D03*
Y1695138D03*
Y1697106D03*
Y1699075D03*
Y1701043D03*
Y1703012D03*
X2055477D03*
Y1701043D03*
Y1699075D03*
Y1697106D03*
Y1695138D03*
Y1693169D03*
Y1691201D03*
Y1689232D03*
Y1687264D03*
Y1685295D03*
Y1683327D03*
Y1681358D03*
G54D310*
X1954701Y1483498D03*
X1934701D03*
Y1467750D03*
X1954701D03*
X1958701Y1636098D03*
X1938701D03*
Y1620350D03*
X1958701D03*
G54D311*
X2507119Y1725724D03*
Y1730724D03*
Y1735724D03*
Y1740724D03*
X2484284D03*
Y1735724D03*
Y1730724D03*
Y1725724D03*
X2374119Y1606724D03*
Y1611724D03*
Y1616724D03*
Y1621724D03*
X2351284D03*
Y1616724D03*
Y1611724D03*
Y1606724D03*
X2297119Y1550724D03*
Y1555724D03*
Y1560724D03*
Y1565724D03*
X2274284D03*
Y1560724D03*
Y1555724D03*
Y1550724D03*
G54D312*
X2495701Y1733224D03*
X2362701Y1614224D03*
X2285701Y1558224D03*
G54D313*
X2516701Y1458563D03*
Y1475886D03*
X2488701Y1458563D03*
Y1475886D03*
X2376701Y1458563D03*
Y1475886D03*
X2432701Y1458563D03*
Y1475886D03*
X2404701Y1458563D03*
Y1475886D03*
X2460701Y1458563D03*
Y1475886D03*
G54D314*
X2508701Y1867358D03*
Y1879091D03*
G54D315*
X2514301Y1577224D03*
G54D316*
Y1506358D03*
G54D317*
X2201701Y1628224D03*
Y1632161D03*
Y1636098D03*
Y1640298D03*
Y1643972D03*
Y1647909D03*
Y1651846D03*
Y1655783D03*
Y1659720D03*
Y1663657D03*
Y1667594D03*
Y1671531D03*
Y1675469D03*
Y1679406D03*
Y1683343D03*
Y1687280D03*
Y1691217D03*
X2107213D03*
Y1687280D03*
Y1683343D03*
Y1679406D03*
Y1675469D03*
Y1671531D03*
Y1667594D03*
Y1663657D03*
Y1659720D03*
Y1655783D03*
Y1651846D03*
Y1647909D03*
Y1643972D03*
Y1640035D03*
Y1636098D03*
Y1632161D03*
Y1628224D03*
G54D318*
X2185953Y1706965D03*
X2182016D03*
X2178079D03*
X2174142D03*
X2170205D03*
X2166268D03*
X2162331D03*
X2158394D03*
X2154457D03*
X2150520D03*
X2146583D03*
X2142646D03*
X2138709D03*
X2134772D03*
X2130835D03*
X2126898D03*
X2122961D03*
Y1612476D03*
X2126898D03*
X2130835D03*
X2134772D03*
X2138709D03*
X2142646D03*
X2146583D03*
X2150520D03*
X2154457D03*
X2158394D03*
X2162331D03*
X2166268D03*
X2170205D03*
X2174142D03*
X2178079D03*
X2182016D03*
X2185953D03*
G54D319*
X2518701Y1647909D03*
Y1608539D03*
G54D321*
X2125701Y1437713D03*
X2115701D03*
X2105701D03*
X2095701D03*
Y1398736D03*
X2105701D03*
X2115701D03*
X2125701D03*
X2167701Y1437713D03*
X2157701D03*
X2147701D03*
X2137701D03*
Y1398736D03*
X2147701D03*
X2157701D03*
X2167701D03*
G74*
X0Y0D02*
M02*
