*
*
G04 PADS 9.5 Build Number: 522968 generated Gerber (RS-274-X) file*
G04 PC Version=2.1*
*
%IN "MT-Baseboard V1.0.000.p"*%
*
%MOIN*%
*
%FSLAX35Y35*%
*
*
*
*
G04 PC Standard Apertures*
*
*
G04 Thermal Relief Aperture macro.*
%AMTER*
1,1,$1,0,0*
1,0,$1-$2,0,0*
21,0,$3,$4,0,0,45*
21,0,$3,$4,0,0,135*
%
*
*
G04 Annular Aperture macro.*
%AMANN*
1,1,$1,0,0*
1,0,$2,0,0*
%
*
*
G04 Odd Aperture macro.*
%AMODD*
1,1,$1,0,0*
1,0,$1-0.005,0,0*
%
*
*
G04 PC Custom Aperture Macros*
*
*
*
*
*
*
G04 PC Aperture Table*
*
%ADD012C,0.001*%
%ADD044R,0.0315X0.0315*%
%ADD058C,0.002*%
%ADD100R,0.03858X0.03661*%
%ADD101R,0.02559X0.02362*%
%ADD102O,0.04528X0.00984*%
%ADD103O,0.00984X0.04528*%
%ADD104R,0.12992X0.12992*%
%ADD105R,0.02559X0.02362*%
%ADD106R,0.01575X0.0315*%
%ADD107R,0.01969X0.0315*%
%ADD108R,0.04567X0.05787*%
%ADD109R,0.02362X0.02559*%
%ADD110R,0.01969X0.12598*%
%ADD111R,0.07087X0.12598*%
%ADD115R,0.07874X0.09842*%
%ADD116O,0.01X0.065*%
%ADD117R,0.05787X0.04567*%
%ADD119R,0.07874X0.07874*%
%ADD120R,0.02362X0.02559*%
%ADD121R,0.04567X0.10709*%
%ADD122R,0.11811X0.09843*%
%ADD123R,0.12205X0.03937*%
%ADD124O,0.12205X0.03937*%
%ADD125R,0.23622X0.37402*%
%ADD126R,0.0315X0.03937*%
%ADD127R,0.03937X0.07087*%
%ADD128R,0.01181X0.03937*%
%ADD129R,0.03937X0.01181*%
%ADD131O,0.009X0.06*%
%ADD132R,0.11811X0.11811*%
%ADD133R,0.0315X0.01575*%
%ADD134R,0.0315X0.01969*%
%ADD135R,0.03661X0.03858*%
%ADD136O,0.024X0.074*%
%ADD137R,0.10799X0.085*%
%ADD138O,0.03937X0.07874*%
%ADD142R,0.11811X0.097*%
%ADD146R,0.036X0.036*%
%ADD147R,0.036X0.05*%
%ADD148R,0.03543X0.01181*%
%ADD149R,0.01181X0.03543*%
%ADD150R,0.16535X0.16535*%
%ADD151R,0.10236X0.07087*%
%ADD152R,0.03937X0.08661*%
%ADD153R,0.1378X0.08661*%
%ADD154R,0.14961X0.11811*%
%ADD155O,0.2X0.14*%
%ADD156R,0.05X0.036*%
%ADD157R,0.02756X0.04921*%
%ADD158R,0.02992X0.05118*%
%ADD159R,0.04528X0.10039*%
%ADD160R,0.07874X0.08661*%
%ADD162O,0.02559X0.12205*%
%ADD163R,0.10709X0.04567*%
%ADD164R,0.11811X0.09449*%
%ADD169R,0.03346X0.01181*%
%ADD170R,0.01181X0.03346*%
%ADD171R,0.15X0.11*%
%ADD175R,0.097X0.11811*%
%ADD176R,0.03937X0.03268*%
%ADD177R,0.02756X0.05906*%
%ADD178R,0.05906X0.02756*%
%ADD179R,0.05512X0.09055*%
%ADD180R,0.02X0.12*%
%ADD181R,0.08X0.1*%
%ADD182R,0.05512X0.04528*%
%ADD184R,0.04724X0.11024*%
%ADD188R,0.01181X0.04724*%
%ADD189R,0.04724X0.01181*%
%ADD190R,0.09842X0.07874*%
%ADD191R,0.05906X0.02362*%
%ADD192R,0.04724X0.02362*%
%ADD193R,0.07874X0.07874*%
%ADD194R,0.07087X0.04449*%
%ADD197O,0.06496X0.02559*%
%ADD198O,0.02559X0.06496*%
%ADD199R,0.11811X0.14961*%
%ADD200O,0.074X0.024*%
%ADD201R,0.07087X0.07874*%
%ADD202C,0.00039*%
*
*
*
*
G04 PC Circuitry*
G04 Layer Name MT-Baseboard V1.0.000.p - circuitry*
%LPD*%
*
*
G04 PC Custom Flashes*
G04 Layer Name MT-Baseboard V1.0.000.p - flashes*
%LPD*%
*
*
G04 PC Circuitry*
G04 Layer Name MT-Baseboard V1.0.000.p - circuitry*
%LPD*%
*
G54D12*
G54D44*
G01X2005315Y1630574D03*
Y1636874D03*
X2071815Y1798574D03*
Y1804874D03*
X2005315Y1630574D03*
Y1636874D03*
X2071815Y1798574D03*
Y1804874D03*
G54D58*
X1480315Y1308661D02*
G75*
G03X1484252Y1304724I3937J0D01*
G01X1480315Y1308661D02*
Y1891339D01*
X1484252Y1895276D02*
G03X1480315Y1891339I-0J-3937D01*
G01X1484252Y1895276D02*
X2515748D01*
X2519685Y1891339D02*
G03X2515748Y1895276I-3937J-0D01*
G01X2519685Y1891339D02*
Y1308661D01*
X2515748Y1304724D02*
G03X2519685Y1308661I0J3937D01*
G01X2515748Y1304724D02*
X1484252D01*
G54D100*
X2215315Y1357693D03*
Y1363756D03*
X2194315Y1357693D03*
Y1363756D03*
X1550315Y1854693D03*
Y1860756D03*
X2149315Y1433756D03*
Y1427693D03*
X1997315Y1601756D03*
Y1595693D03*
X1879315Y1419756D03*
Y1413693D03*
X1795315Y1469693D03*
Y1475756D03*
X1865315Y1399693D03*
Y1405756D03*
X1781315Y1399693D03*
Y1405756D03*
X2005815Y1657693D03*
Y1663756D03*
X2050815Y1791756D03*
Y1785693D03*
X2043815Y1791756D03*
Y1785693D03*
X2071815Y1790756D03*
Y1784693D03*
X2341315Y1790756D03*
Y1784693D03*
X1952315Y1595693D03*
Y1601756D03*
X1892315Y1595693D03*
Y1601756D03*
X2057815Y1700693D03*
Y1706756D03*
X2187315Y1656756D03*
Y1650693D03*
Y1686756D03*
Y1680693D03*
X1606315Y1370756D03*
Y1364693D03*
X1998315Y1546693D03*
Y1552756D03*
X2039915Y1546493D03*
Y1552556D03*
X1997315Y1615756D03*
Y1609693D03*
X1774315Y1399693D03*
Y1405756D03*
X2044315Y1630693D03*
Y1636756D03*
X2050815Y1706756D03*
Y1700693D03*
X2023115Y1705756D03*
Y1699693D03*
X2348315Y1790756D03*
Y1784693D03*
Y1721693D03*
Y1727756D03*
X2313315Y1630693D03*
Y1636756D03*
X1781315Y1475756D03*
Y1469693D03*
X1774315Y1413693D03*
Y1419756D03*
X1872315Y1399693D03*
Y1405756D03*
X2032715Y1546493D03*
Y1552556D03*
X1578315Y1817256D03*
Y1811193D03*
X1688315Y1463193D03*
Y1469256D03*
X2278315Y1357693D03*
Y1363756D03*
X2299315Y1357693D03*
Y1363756D03*
X2236315Y1357693D03*
Y1363756D03*
X2257315Y1357693D03*
Y1363756D03*
X1872315Y1413693D03*
Y1419756D03*
X1865315Y1482756D03*
Y1476693D03*
X1879315D03*
Y1482756D03*
X1872315Y1476693D03*
Y1482756D03*
X1781315Y1419756D03*
Y1413693D03*
X1788315Y1475756D03*
Y1469693D03*
X2401115Y1498893D03*
Y1504956D03*
X2392115Y1498893D03*
Y1504956D03*
X2401115Y1526893D03*
Y1532956D03*
X2392115D03*
Y1526893D03*
G54D101*
X1643283Y1431224D03*
X1639346D03*
X1744346Y1437724D03*
X1748283D03*
X1695346Y1416724D03*
X1699283D03*
X1791346Y1587724D03*
X1795283D03*
X1771346Y1744724D03*
X1775283D03*
X1511346Y1433724D03*
X1515283D03*
X1625346Y1775724D03*
X1629283D03*
X1625346Y1766224D03*
X1629283D03*
X1842346Y1444724D03*
X1846283D03*
X1895283D03*
X1891346D03*
X1643283Y1437724D03*
X1639346D03*
X1744346Y1458724D03*
X1748283D03*
X2091346Y1430724D03*
X2095283D03*
X2014346Y1458724D03*
X2018283D03*
X1895283Y1437724D03*
X1891346D03*
X1797283D03*
X1793346D03*
X1748283Y1444724D03*
X1744346D03*
Y1430724D03*
X1748283D03*
X1511346Y1427724D03*
X1515283D03*
X1511346Y1421724D03*
X1515283D03*
X2217846Y1418724D03*
X2221783D03*
X2196846D03*
X2200783D03*
X2443483Y1718124D03*
X2439546D03*
X2150346Y1703724D03*
X2154283D03*
X2038346Y1458724D03*
X2042283D03*
X2136346Y1430724D03*
X2140283D03*
X2121346Y1360724D03*
X2125283D03*
X2080346D03*
X2084283D03*
X2150346Y1696724D03*
X2154283D03*
X1643283Y1417224D03*
X1639346D03*
X1643283Y1410724D03*
X1639346D03*
X1695346Y1430724D03*
X1699283D03*
X1695346Y1437724D03*
X1699283D03*
X1643283Y1451724D03*
X1639346D03*
X1695346D03*
X1699283D03*
X1797283Y1430724D03*
X1793346D03*
X1842346Y1437724D03*
X1846283D03*
X1842346Y1451724D03*
X1846283D03*
Y1465724D03*
X1842346D03*
X2301846Y1418724D03*
X2305783D03*
X2280846D03*
X2284783D03*
X2259846D03*
X2263783D03*
X2238846D03*
X2242783D03*
G54D102*
X1658406Y1441998D03*
Y1440030D03*
Y1438061D03*
Y1436093D03*
Y1434124D03*
Y1432156D03*
Y1430187D03*
Y1428219D03*
Y1426250D03*
X1682224D03*
Y1428219D03*
Y1430187D03*
Y1432156D03*
Y1434124D03*
Y1436093D03*
Y1438061D03*
Y1440030D03*
Y1441998D03*
G54D103*
X1662441Y1422215D03*
X1664409D03*
X1666378D03*
X1668346D03*
X1670315D03*
X1672283D03*
X1674252D03*
X1676220D03*
X1678189D03*
Y1446034D03*
X1676220D03*
X1674252D03*
X1672283D03*
X1670315D03*
X1668346D03*
X1666378D03*
X1664409D03*
X1662441D03*
G54D104*
X1670315Y1434124D03*
G54D105*
X1608315Y1816193D03*
Y1812256D03*
X1998315Y1659756D03*
Y1663693D03*
X1614315Y1757756D03*
Y1761693D03*
X1578315Y1747693D03*
Y1743756D03*
X1557315Y1365756D03*
Y1369693D03*
X1571315D03*
Y1365756D03*
X1596315Y1446756D03*
Y1450693D03*
X2285361Y1540742D03*
Y1544679D03*
X1892815Y1418693D03*
Y1414756D03*
X1886315Y1418693D03*
Y1414756D03*
X1956315Y1379756D03*
Y1383693D03*
X1774315Y1813256D03*
Y1817193D03*
X1585315Y1365756D03*
Y1369693D03*
X1599315D03*
Y1365756D03*
X2058315Y1635693D03*
Y1631756D03*
X2110268Y1568801D03*
Y1572738D03*
X2362315Y1596756D03*
Y1600693D03*
X1550315Y1845693D03*
Y1841756D03*
X1940815Y1601693D03*
Y1597756D03*
X1949315Y1379756D03*
Y1383693D03*
X1767315Y1813756D03*
Y1817693D03*
X1760315Y1813756D03*
Y1817693D03*
X1606315Y1432693D03*
Y1428756D03*
X1594315Y1816193D03*
Y1812256D03*
X1928315Y1750756D03*
Y1754693D03*
X1942315Y1383693D03*
Y1379756D03*
X1935315D03*
Y1383693D03*
X1935915Y1449093D03*
Y1445156D03*
X1676315Y1400756D03*
Y1404693D03*
X1648315Y1467693D03*
Y1463756D03*
X1672815D03*
Y1467693D03*
X2369293Y1596732D03*
Y1600669D03*
X2292339Y1540718D03*
Y1544655D03*
X1753315Y1817693D03*
Y1813756D03*
X1683315Y1400756D03*
Y1404693D03*
X1669315Y1400756D03*
Y1404693D03*
X1695315Y1468193D03*
Y1464256D03*
X1872315Y1754693D03*
Y1750756D03*
X1601315Y1816193D03*
Y1812256D03*
X1606315Y1441756D03*
Y1445693D03*
X1619815Y1757756D03*
Y1761693D03*
X1801815Y1415256D03*
Y1419193D03*
X2320315Y1617756D03*
Y1621693D03*
X2222315Y1540756D03*
Y1544693D03*
X1998315Y1632356D03*
Y1636293D03*
X1788815Y1418693D03*
Y1414756D03*
X1795315Y1418693D03*
Y1414756D03*
X1615315Y1816193D03*
Y1812256D03*
G54D106*
X1608227Y1860545D03*
X1604290D03*
X1657227Y1405545D03*
X1653290D03*
X2118227Y1349545D03*
X2114290D03*
X1724227Y1370545D03*
X1720290D03*
X1713227D03*
X1709290D03*
X2088227Y1349545D03*
X2084290D03*
G54D107*
X1606259Y1854639D03*
X1655259Y1399639D03*
X2116259Y1343639D03*
X1722259Y1364639D03*
X1711259D03*
X2086259Y1343639D03*
G54D108*
X1987811Y1430724D03*
X1994819D03*
X1546811Y1795724D03*
X1553819D03*
X1809819Y1744724D03*
X1802811D03*
X2112811Y1430724D03*
X2119819D03*
X2463819Y1843724D03*
X2456811D03*
X2064811Y1430724D03*
X2071819D03*
X2169811Y1360724D03*
X2176819D03*
G54D109*
X2320315Y1722756D03*
Y1726693D03*
X1746315Y1470756D03*
Y1474693D03*
X1713315Y1383693D03*
Y1379756D03*
X2036815Y1701756D03*
Y1705693D03*
X2037315Y1631756D03*
Y1635693D03*
X1578315Y1761693D03*
Y1757756D03*
X1585315Y1761693D03*
Y1757756D03*
X2145315Y1848756D03*
Y1852693D03*
X2117315D03*
Y1848756D03*
X2124315Y1852693D03*
Y1848756D03*
X2103315Y1852693D03*
Y1848756D03*
X1557315Y1855756D03*
Y1859693D03*
X2005315Y1852693D03*
Y1848756D03*
X1998315Y1852693D03*
Y1848756D03*
X1886315Y1568756D03*
Y1572693D03*
X2030315Y1635693D03*
Y1631756D03*
X1570315Y1432693D03*
Y1428756D03*
X1619815Y1432693D03*
Y1428756D03*
X1564315Y1855756D03*
Y1859693D03*
X2078815Y1803693D03*
Y1799756D03*
X1585315Y1743756D03*
Y1747693D03*
X2019315Y1852693D03*
Y1848756D03*
X1688315Y1383693D03*
Y1379756D03*
X1802315Y1470756D03*
Y1474693D03*
X2152315Y1848756D03*
Y1852693D03*
X2327315Y1722756D03*
Y1726693D03*
X2341315Y1722756D03*
Y1726693D03*
X2334315Y1722756D03*
Y1726693D03*
X2390315Y1722756D03*
Y1726693D03*
X1613315Y1855756D03*
Y1859693D03*
X2292315Y1526756D03*
Y1530693D03*
X2285315Y1526756D03*
Y1530693D03*
X1963315Y1610756D03*
Y1614693D03*
X1879315Y1610756D03*
Y1614693D03*
X1893315Y1568756D03*
Y1572693D03*
X2012315Y1409756D03*
Y1413693D03*
X2033315Y1358756D03*
Y1362693D03*
X2082315Y1852693D03*
Y1848756D03*
X2470815Y1451256D03*
Y1455193D03*
X2477815D03*
Y1451256D03*
X2054315Y1852693D03*
Y1848756D03*
X2075315Y1852693D03*
Y1848756D03*
X2061315Y1852693D03*
Y1848756D03*
X2096315Y1852693D03*
Y1848756D03*
X1879315Y1596756D03*
Y1600693D03*
X2320315Y1649693D03*
Y1645756D03*
X2362315Y1582756D03*
Y1586693D03*
X2313315Y1621693D03*
Y1617756D03*
X2369315Y1582756D03*
Y1586693D03*
X2229315Y1544693D03*
Y1540756D03*
X1613815Y1428756D03*
Y1432693D03*
X1753315Y1470756D03*
Y1474693D03*
X1760315Y1470756D03*
Y1474693D03*
X1858315Y1481693D03*
Y1477756D03*
X1844315Y1400756D03*
Y1404693D03*
X1851315Y1400756D03*
Y1404693D03*
X1837315Y1400756D03*
Y1404693D03*
X1858315Y1400756D03*
Y1404693D03*
X1592315Y1365756D03*
Y1369693D03*
X2442815Y1451256D03*
Y1455193D03*
X2449815D03*
Y1451256D03*
X2414815D03*
Y1455193D03*
X2421815D03*
Y1451256D03*
X2330815D03*
Y1455193D03*
X2393815D03*
Y1451256D03*
X2358815D03*
Y1455193D03*
X2365815D03*
Y1451256D03*
X2386815D03*
Y1455193D03*
X2337815D03*
Y1451256D03*
X2502315Y1705693D03*
Y1701756D03*
Y1719693D03*
Y1715756D03*
X1865315Y1750756D03*
Y1754693D03*
X1893315Y1750756D03*
Y1754693D03*
X1512315Y1729256D03*
Y1733193D03*
X1518815Y1729256D03*
Y1733193D03*
X1900315Y1754693D03*
Y1750756D03*
X1907315Y1754693D03*
Y1750756D03*
X1914315Y1754693D03*
Y1750756D03*
X1956315Y1754693D03*
Y1750756D03*
X1963315Y1754693D03*
Y1750756D03*
X1921315Y1754693D03*
Y1750756D03*
X1977315Y1754693D03*
Y1750756D03*
X2047315Y1413693D03*
Y1409756D03*
X2040315D03*
Y1413693D03*
X2012315Y1358756D03*
Y1362693D03*
X2005315D03*
Y1358756D03*
X2019315D03*
Y1362693D03*
X2040315Y1358756D03*
Y1362693D03*
X2047315Y1358756D03*
Y1362693D03*
X1963315Y1596756D03*
Y1600693D03*
X2029815Y1701756D03*
Y1705693D03*
X2078815Y1785756D03*
Y1789693D03*
X2191315Y1575756D03*
Y1579693D03*
X2017315Y1547756D03*
Y1551693D03*
X2065315Y1631756D03*
Y1635693D03*
X2187315Y1641693D03*
Y1637756D03*
Y1671693D03*
Y1667756D03*
X2184315Y1575756D03*
Y1579693D03*
X1655315Y1796693D03*
Y1792756D03*
X2355315Y1789693D03*
Y1785756D03*
X1662315Y1792756D03*
Y1796693D03*
X2050815Y1803193D03*
Y1799256D03*
X2320315Y1635693D03*
Y1631756D03*
X2313315Y1649693D03*
Y1645756D03*
X1571315Y1855756D03*
Y1859693D03*
X2033315Y1852693D03*
Y1848756D03*
X2040315Y1852693D03*
Y1848756D03*
X2026315Y1852693D03*
Y1848756D03*
X1676315Y1478256D03*
Y1482193D03*
X1683315Y1478256D03*
Y1482193D03*
X1648315Y1404693D03*
Y1400756D03*
X1662315Y1404693D03*
Y1400756D03*
X1702315Y1468193D03*
Y1464256D03*
X1719815Y1383693D03*
Y1379756D03*
X1726815Y1383693D03*
Y1379756D03*
X1809315Y1470756D03*
Y1474693D03*
X2064815Y1789693D03*
Y1785756D03*
X1753315Y1400756D03*
Y1404693D03*
X1760315Y1400756D03*
Y1404693D03*
X1746315Y1400756D03*
Y1404693D03*
X1767315Y1400756D03*
Y1404693D03*
Y1470756D03*
Y1474693D03*
X1774315D03*
Y1470756D03*
X1844315Y1477756D03*
Y1481693D03*
X1851315Y1477756D03*
Y1481693D03*
X1886315Y1477756D03*
Y1481693D03*
X1893315Y1477756D03*
Y1481693D03*
X1865315Y1414756D03*
Y1418693D03*
X1518715Y1671893D03*
Y1667956D03*
Y1685156D03*
Y1689093D03*
Y1631893D03*
Y1627956D03*
X1697315Y1383693D03*
Y1379756D03*
X1767315Y1414756D03*
Y1418693D03*
X1620315Y1859693D03*
Y1855756D03*
X1599315Y1859693D03*
Y1855756D03*
X2019315Y1413693D03*
Y1409756D03*
X1578315Y1365756D03*
Y1369693D03*
X1592315Y1859693D03*
Y1855756D03*
X1564315Y1365756D03*
Y1369693D03*
G54D110*
X2317503Y1678944D03*
X2319077Y1704928D03*
X2320652Y1678944D03*
X2322227Y1704928D03*
X2323802Y1678944D03*
X2325377Y1704928D03*
X2326951Y1678944D03*
X2328526Y1704928D03*
X2330101Y1678944D03*
X2331676Y1704928D03*
X2333251Y1678944D03*
X2334825Y1704928D03*
X2336400Y1678944D03*
X2337975Y1704928D03*
X2339550Y1678944D03*
X2341125Y1704928D03*
X2355298Y1678944D03*
X2356873Y1704928D03*
X2358448Y1678944D03*
X2360022Y1704928D03*
X2361597Y1678944D03*
X2363172Y1704928D03*
X2364747Y1678944D03*
X2366322Y1704928D03*
X2367896Y1678944D03*
X2369471Y1704928D03*
X2371046Y1678944D03*
X2372621Y1704928D03*
X2374196Y1678944D03*
X2375770Y1704928D03*
X2377345Y1678944D03*
X2378920Y1704928D03*
X2380495Y1678944D03*
X2382070Y1704928D03*
X2383644Y1678944D03*
X2385219Y1704928D03*
X2386794Y1678944D03*
X2388369Y1704928D03*
X2389944Y1678944D03*
X2391518Y1704928D03*
X2393093Y1678944D03*
X2394668Y1704928D03*
X2396243Y1678944D03*
X2397818Y1704928D03*
X2399392Y1678944D03*
X2400967Y1704928D03*
X2402542Y1678944D03*
X2404117Y1704928D03*
X2405692Y1678944D03*
X2407266Y1704928D03*
X2408841Y1678944D03*
X2410416Y1704928D03*
G54D111*
X2307660Y1678944D03*
X2420652D03*
G54D115*
X1824189Y1428724D03*
Y1448724D03*
X1808441D03*
Y1428724D03*
X1550941Y1777724D03*
Y1757724D03*
X1566689D03*
Y1777724D03*
G54D116*
X1602775Y1418474D03*
X1600815D03*
X1598855D03*
X1596895D03*
X1594935D03*
X1592975D03*
X1591015D03*
X1589055D03*
X1587095D03*
X1585135D03*
X1583175D03*
X1581215D03*
X1579255D03*
X1577295D03*
X1575335D03*
X1573375D03*
X1571415D03*
X1569455D03*
X1567495D03*
X1565535D03*
X1563575D03*
X1561615D03*
X1559655D03*
X1557695D03*
X1555735D03*
X1553775D03*
X1551815D03*
X1549855D03*
Y1388974D03*
X1551815D03*
X1553775D03*
X1555735D03*
X1557695D03*
X1559655D03*
X1561615D03*
X1563575D03*
X1565535D03*
X1567495D03*
X1569455D03*
X1571415D03*
X1573375D03*
X1575335D03*
X1577295D03*
X1579255D03*
X1581215D03*
X1583175D03*
X1585135D03*
X1587095D03*
X1589055D03*
X1591015D03*
X1592975D03*
X1594935D03*
X1596895D03*
X1598855D03*
X1600815D03*
X1602775D03*
G54D117*
X1607315Y1756220D03*
Y1763228D03*
X2446315Y1560228D03*
Y1553220D03*
X2014815Y1657220D03*
Y1664228D03*
X1690815Y1397220D03*
Y1404228D03*
X1539315Y1814220D03*
Y1821228D03*
X1697315Y1364220D03*
Y1371228D03*
X1688315Y1364220D03*
Y1371228D03*
X1614315Y1442220D03*
Y1449228D03*
X1587315Y1817728D03*
Y1810720D03*
X1530315Y1814220D03*
Y1821228D03*
X2439315Y1700220D03*
Y1707228D03*
X2024715Y1546420D03*
Y1553428D03*
X2006315Y1546220D03*
Y1553228D03*
X1988315Y1602228D03*
Y1595220D03*
X2066815Y1700220D03*
Y1707228D03*
G54D119*
X1568315Y1837724D03*
X1865315Y1444724D03*
X1767315D03*
X1865315D03*
X1767315D03*
G54D120*
X1699283Y1423724D03*
X1695346D03*
X1535846Y1416724D03*
X1539783D03*
X1846283Y1458724D03*
X1842346D03*
X1748283Y1451724D03*
X1744346D03*
X2171346Y1388724D03*
X2175283D03*
X1895283Y1458724D03*
X1891346D03*
X1797283Y1444724D03*
X1793346D03*
X1639346Y1424224D03*
X1643283D03*
X1638346Y1789724D03*
X1642283D03*
X1671283Y1836724D03*
X1667346D03*
X1656783Y1830224D03*
X1652846D03*
X1744346Y1424224D03*
X1748283D03*
X1989346Y1458724D03*
X1993283D03*
X2114346D03*
X2118283D03*
X1639346D03*
X1643283D03*
X1773346Y1765724D03*
X1777283D03*
X1895283Y1451724D03*
X1891346D03*
Y1430724D03*
X1895283D03*
X1841846D03*
X1845783D03*
X1562346Y1795724D03*
X1566283D03*
X1562346Y1788724D03*
X1566283D03*
X1625346Y1796224D03*
X1629283D03*
X1638846Y1775724D03*
X1642783D03*
X1671283Y1878724D03*
X1667346D03*
X1639346Y1444724D03*
X1643283D03*
X1699283D03*
X1695346D03*
X1625346Y1802724D03*
X1629283D03*
X1625346Y1789724D03*
X1629283D03*
X1625346Y1782724D03*
X1629283D03*
X1797283Y1451224D03*
X1793346D03*
X2469083Y1693924D03*
X2465146D03*
X1667346Y1885724D03*
X1671283D03*
X1667346Y1829724D03*
X1671283D03*
X2066346Y1458724D03*
X2070283D03*
G54D121*
X2062508Y1444724D03*
X2074122D03*
X2167508Y1374724D03*
X2179122D03*
X1985508Y1444724D03*
X1997122D03*
X2110508D03*
X2122122D03*
X2216508Y1528724D03*
X2228122D03*
G54D122*
X2397315Y1551913D03*
Y1575535D03*
X2439315Y1747913D03*
Y1771535D03*
G54D123*
X2373115Y1502523D03*
G54D124*
Y1509224D03*
Y1515924D03*
Y1522625D03*
Y1529326D03*
G54D125*
X2321146Y1515924D03*
G54D126*
X2031315Y1793713D03*
X1992315Y1583236D03*
X2124315Y1576236D03*
G54D127*
X2037220Y1799224D03*
X2025409D03*
X1986409Y1577724D03*
X1998220D03*
X2118409Y1570724D03*
X2130220D03*
G54D128*
X1563394Y1829850D03*
X1565362D03*
X1567331D03*
X1569299D03*
X1571268D03*
X1573236D03*
Y1845598D03*
X1571268D03*
X1569299D03*
X1567331D03*
X1565362D03*
X1563394D03*
G54D129*
X1576189Y1832803D03*
Y1834772D03*
Y1836740D03*
Y1838709D03*
Y1840677D03*
Y1842646D03*
X1560441D03*
Y1840677D03*
Y1838709D03*
Y1836740D03*
Y1834772D03*
Y1832803D03*
G54D131*
X1505761Y1462323D03*
X1507730D03*
X1509698D03*
X1511667D03*
X1513635D03*
X1515604D03*
X1517572D03*
X1519541D03*
X1521509D03*
X1523478D03*
X1525446D03*
X1527415D03*
X1529383D03*
X1531352D03*
X1533320D03*
X1535289D03*
X1537257D03*
X1539226D03*
X1541194D03*
X1543163D03*
X1545131D03*
X1547100D03*
X1549068D03*
X1551037D03*
X1553005D03*
X1554974D03*
X1556942D03*
X1558911D03*
X1560879D03*
X1562848D03*
X1564816D03*
X1566785D03*
X1568753D03*
X1570722D03*
X1572690D03*
X1574659D03*
X1576627D03*
X1578596D03*
X1580564D03*
X1582533D03*
X1584501D03*
X1586470D03*
X1588438D03*
X1590407D03*
X1592375D03*
X1594344D03*
X1596312D03*
X1598281D03*
X1600249D03*
X1602218D03*
X1604186D03*
X1606155D03*
X1608123D03*
X1610092D03*
G54D132*
X1494974Y1473791D03*
X1622257D03*
G54D133*
X1638495Y1784636D03*
Y1780699D03*
X2013135Y1344812D03*
Y1348749D03*
X2043135Y1344812D03*
Y1348749D03*
X1634135Y1411812D03*
Y1415749D03*
G54D134*
X1644400Y1782668D03*
X2007230Y1346781D03*
X2037230D03*
X1628230Y1413781D03*
G54D135*
X2141346Y1703724D03*
X2135283D03*
X1974283Y1458724D03*
X1980346D03*
X2098283Y1460724D03*
X2104346D03*
X2028283Y1786224D03*
X2034346D03*
X2057346Y1458724D03*
X2051283D03*
X2398146Y1515924D03*
X2392083D03*
G54D136*
X2351815Y1770724D03*
X2346815D03*
X2341815D03*
X2336815D03*
X2331815D03*
X2326815D03*
X2321815D03*
X2316815D03*
Y1748724D03*
X2321815D03*
X2326815D03*
X2331815D03*
X2336815D03*
X2341815D03*
X2346815D03*
X2351815D03*
X1942815Y1581724D03*
X1937815D03*
X1932815D03*
X1927815D03*
X1922815D03*
X1917815D03*
X1912815D03*
X1907815D03*
Y1559724D03*
X1912815D03*
X1917815D03*
X1922815D03*
X1927815D03*
X1932815D03*
X1937815D03*
X1942815D03*
X1854315Y1760224D03*
X1849315D03*
X1844315D03*
X1839315D03*
Y1740224D03*
X1844315D03*
X1849315D03*
X1854315D03*
X1931815Y1398724D03*
X1936815D03*
X1941815D03*
X1946815D03*
X1951815D03*
X1956815D03*
X1961815D03*
X1966815D03*
Y1420724D03*
X1961815D03*
X1956815D03*
X1951815D03*
X1946815D03*
X1941815D03*
X1936815D03*
X1931815D03*
X1777815Y1798724D03*
X1772815D03*
X1767815D03*
X1762815D03*
X1757815D03*
X1752815D03*
X1747815D03*
X1742815D03*
Y1776724D03*
X1747815D03*
X1752815D03*
X1757815D03*
X1762815D03*
X1767815D03*
X1772815D03*
X1777815D03*
X2019815Y1449024D03*
X2014815D03*
X2009815D03*
X2004815D03*
Y1426424D03*
X2009815D03*
X2014815D03*
X2019815D03*
X2047815Y1400024D03*
X2042815D03*
X2037815D03*
X2032815D03*
Y1377424D03*
X2037815D03*
X2042815D03*
X2047815D03*
X2019815Y1400024D03*
X2014815D03*
X2009815D03*
X2004815D03*
Y1377424D03*
X2009815D03*
X2014815D03*
X2019815D03*
X2044815Y1449024D03*
X2039815D03*
X2034815D03*
X2029815D03*
Y1426424D03*
X2034815D03*
X2039815D03*
X2044815D03*
G54D137*
X2299515Y1586980D03*
Y1568869D03*
X2446315Y1575669D03*
Y1593780D03*
X1956315Y1351024D03*
Y1368425D03*
X2439315Y1859780D03*
Y1841669D03*
X1980815Y1351024D03*
Y1368425D03*
X1910315Y1351024D03*
Y1368425D03*
X1935315Y1351024D03*
Y1368425D03*
X2446315Y1659669D03*
Y1677780D03*
X2341315Y1547669D03*
Y1565780D03*
G54D138*
X2194315Y1382724D03*
X2204315D03*
Y1406346D03*
X2194315D03*
X2278315Y1382724D03*
X2288315D03*
Y1406346D03*
X2278315D03*
X2236315Y1382724D03*
X2246315D03*
Y1406346D03*
X2236315D03*
X2299315Y1382724D03*
X2309315D03*
Y1406346D03*
X2299315D03*
X2257315Y1382724D03*
X2267315D03*
Y1406346D03*
X2257315D03*
X2215315Y1382724D03*
X2225315D03*
Y1406346D03*
X2215315D03*
G54D142*
X2490315Y1681409D03*
Y1642039D03*
X2397315Y1607039D03*
Y1646409D03*
X2488315Y1772409D03*
Y1733039D03*
G54D146*
X2450065Y1441974D03*
X2442565D03*
X2183565Y1587474D03*
X2191065D03*
X2162065Y1703974D03*
Y1696474D03*
X2394065Y1441974D03*
X2386565D03*
X1519065Y1741974D03*
Y1749474D03*
X2022565Y1629974D03*
Y1637474D03*
X2057565Y1797474D03*
X2065065D03*
X2478065Y1441974D03*
X2470565D03*
X2422065D03*
X2414565D03*
X2366065D03*
X2358565D03*
X2338065D03*
X2330565D03*
G54D147*
X2446315Y1433274D03*
X2187315Y1596174D03*
X2390315Y1433274D03*
X2061315Y1806174D03*
X2474315Y1433274D03*
X2418315D03*
X2362315D03*
X2334315D03*
G54D148*
X1613094Y1776898D03*
Y1778866D03*
Y1780835D03*
Y1782803D03*
Y1784772D03*
Y1786740D03*
Y1788709D03*
Y1790677D03*
Y1792646D03*
Y1794614D03*
Y1796583D03*
Y1798551D03*
X1585535D03*
Y1796583D03*
Y1794614D03*
Y1792646D03*
Y1790677D03*
Y1788709D03*
Y1786740D03*
Y1784772D03*
Y1782803D03*
Y1780835D03*
Y1778866D03*
Y1776898D03*
G54D149*
X1610142Y1801504D03*
X1608173D03*
X1606205D03*
X1604236D03*
X1602268D03*
X1600299D03*
X1598331D03*
X1596362D03*
X1594394D03*
X1592425D03*
X1590457D03*
X1588488D03*
Y1773945D03*
X1590457D03*
X1592425D03*
X1594394D03*
X1596362D03*
X1598331D03*
X1600299D03*
X1602268D03*
X1604236D03*
X1606205D03*
X1608173D03*
X1610142D03*
G54D150*
X1599315Y1787724D03*
G54D151*
X1613315Y1830819D03*
Y1842630D03*
X1599315Y1830819D03*
Y1842630D03*
G54D152*
X1521260Y1833913D03*
X1530315D03*
X1539370D03*
G54D153*
X1530315Y1857535D03*
G54D154*
X1720000Y1815724D03*
X1680630D03*
X1717000Y1864724D03*
X1677630D03*
X2467630Y1808724D03*
X2507000D03*
G54D155*
X1858315Y1710724D03*
X1918315D03*
G54D156*
X2170765Y1700224D03*
X1510365Y1745724D03*
X2013865Y1633724D03*
G54D157*
X1956055Y1617645D03*
X1948575D03*
X1952315Y1607803D03*
X1896055Y1617645D03*
X1888575D03*
X1892315Y1607803D03*
X1879075Y1747803D03*
X1886555D03*
X1882815Y1757645D03*
G54D158*
X2079315Y1773724D03*
X2074984D03*
X2070654D03*
X2066323D03*
X2061992D03*
X2057661D03*
X2053331D03*
X2040339D03*
X2036008D03*
X2031677D03*
X2027346D03*
X2023016D03*
X2023409Y1725693D03*
X2027740D03*
X2032071D03*
X2036402D03*
X2040732D03*
X2053937D03*
X2058268D03*
X2062598D03*
X2066929D03*
X2071260D03*
X2075591D03*
X2079921D03*
G54D159*
X1899906Y1771724D03*
X1909709D03*
X1923709D03*
X1929709D03*
X1939709D03*
X1949709D03*
X1959120Y1771727D03*
X1965709Y1771724D03*
X1890496D03*
X1978315D03*
X1915709D03*
G54D160*
X1983187Y1861524D03*
X1869187Y1858024D03*
G54D162*
X1815415Y1724680D03*
X1815402Y1706766D03*
X1810415Y1724680D03*
X1810402Y1706766D03*
X1805415Y1724680D03*
X1805402Y1706766D03*
X1800415Y1724680D03*
X1800402Y1706766D03*
X1795415Y1724680D03*
X1795402Y1706766D03*
X1790415Y1724680D03*
X1790402Y1706766D03*
X1785415Y1724680D03*
X1785402Y1706766D03*
X1780415Y1724680D03*
X1780402Y1706766D03*
X1775415Y1724680D03*
X1775402Y1706766D03*
X1770415Y1724680D03*
X1770402Y1706766D03*
X1765415Y1724680D03*
X1765402Y1706766D03*
X1760415Y1724680D03*
X1760402Y1706766D03*
X1755415Y1724680D03*
X1755402Y1706766D03*
X1750415Y1724680D03*
X1750402Y1706766D03*
X1745415Y1724680D03*
X1745402Y1706766D03*
X1740415Y1724680D03*
X1740402Y1706766D03*
X1735415Y1724680D03*
X1735402Y1706766D03*
X1730415Y1724680D03*
X1730402Y1706766D03*
X1725415Y1724680D03*
X1725402Y1706766D03*
X1720415Y1724680D03*
X1720402Y1706766D03*
X1715415Y1724680D03*
X1715402Y1706766D03*
X1710415Y1724680D03*
X1710402Y1706766D03*
X1705415Y1724680D03*
X1705402Y1706766D03*
X1700415Y1724680D03*
X1700402Y1706766D03*
X1695415Y1724680D03*
X1695402Y1706766D03*
X1690415Y1724680D03*
X1690402Y1706766D03*
X1685415Y1724680D03*
X1685402Y1706766D03*
X1680415Y1724680D03*
X1680402Y1706766D03*
X1675415Y1724680D03*
X1675402Y1706766D03*
X1670415Y1724680D03*
X1670402Y1706766D03*
X1665415Y1724680D03*
X1665402Y1706766D03*
X1660415Y1724680D03*
X1660402Y1706766D03*
X1655415Y1724680D03*
X1655402Y1706766D03*
X1650415Y1724680D03*
X1650402Y1706766D03*
X1645415Y1724680D03*
X1645402Y1706766D03*
X1640415Y1724680D03*
X1640402Y1706766D03*
X1635415Y1724680D03*
X1635402Y1706766D03*
X1630415Y1724680D03*
X1630402Y1706766D03*
X1625415Y1724680D03*
X1625402Y1706766D03*
X1620415Y1724680D03*
X1620402Y1706766D03*
X1615415Y1724680D03*
X1615402Y1706766D03*
X1610415Y1724680D03*
X1610402Y1706766D03*
X1605415Y1724680D03*
X1605402Y1706766D03*
X1600415Y1724680D03*
X1600402Y1706766D03*
X1595415Y1724680D03*
X1595402Y1706766D03*
X1590415Y1724680D03*
X1590402Y1706766D03*
X1585415Y1724680D03*
X1585402Y1706766D03*
X1580415Y1724680D03*
X1580402Y1706766D03*
X1575415Y1724680D03*
X1575402Y1706766D03*
X1570415Y1724680D03*
X1570402Y1706766D03*
X1815415Y1571137D03*
X1815402Y1553223D03*
X1810415Y1571137D03*
X1810402Y1553223D03*
X1805415Y1571137D03*
X1805402Y1553223D03*
X1800415Y1571137D03*
X1800402Y1553223D03*
X1795415Y1571137D03*
X1795402Y1553223D03*
X1790415Y1571137D03*
X1790402Y1553223D03*
X1785415Y1571137D03*
X1785402Y1553223D03*
X1780415Y1571137D03*
X1780402Y1553223D03*
X1775415Y1571137D03*
X1775402Y1553223D03*
X1770415Y1571137D03*
X1770402Y1553223D03*
X1765415Y1571137D03*
X1765402Y1553223D03*
X1760415Y1571137D03*
X1760402Y1553223D03*
X1755415Y1571137D03*
X1755402Y1553223D03*
X1750415Y1571137D03*
X1750402Y1553223D03*
X1745415Y1571137D03*
X1745402Y1553223D03*
X1740415Y1571137D03*
X1740402Y1553223D03*
X1735415Y1571137D03*
X1735402Y1553223D03*
X1730415Y1571137D03*
X1730402Y1553223D03*
X1725415Y1571137D03*
X1725402Y1553223D03*
X1720415Y1571137D03*
X1720402Y1553223D03*
X1715415Y1571137D03*
X1715402Y1553223D03*
X1710415Y1571137D03*
X1710402Y1553223D03*
X1705415Y1571137D03*
X1705402Y1553223D03*
X1700415Y1571137D03*
X1700402Y1553223D03*
X1695415Y1571137D03*
X1695402Y1553223D03*
X1690415Y1571137D03*
X1690402Y1553223D03*
X1685415Y1571137D03*
X1685402Y1553223D03*
X1680415Y1571137D03*
X1680402Y1553223D03*
X1675415Y1571137D03*
X1675402Y1553223D03*
X1670415Y1571137D03*
X1670402Y1553223D03*
X1665415Y1571137D03*
X1665402Y1553223D03*
X1660415Y1571137D03*
X1660402Y1553223D03*
X1655415Y1571137D03*
X1655402Y1553223D03*
X1650415Y1571137D03*
X1650402Y1553223D03*
X1645415Y1571137D03*
X1645402Y1553223D03*
X1640415Y1571137D03*
X1640402Y1553223D03*
X1635415Y1571137D03*
X1635402Y1553223D03*
X1630415Y1571137D03*
X1630402Y1553223D03*
X1625415Y1571137D03*
X1625402Y1553223D03*
X1620415Y1571137D03*
X1620402Y1553223D03*
X1615415Y1571137D03*
X1615402Y1553223D03*
X1610415Y1571137D03*
X1610402Y1553223D03*
X1605415Y1571137D03*
X1605402Y1553223D03*
X1600415Y1571137D03*
X1600402Y1553223D03*
X1595415Y1571137D03*
X1595402Y1553223D03*
X1590415Y1571137D03*
X1590402Y1553223D03*
X1585415Y1571137D03*
X1585402Y1553223D03*
X1580415Y1571137D03*
X1580402Y1553223D03*
X1575415Y1571137D03*
X1575402Y1553223D03*
X1570415Y1571137D03*
X1570402Y1553223D03*
G54D163*
X2320315Y1550917D03*
Y1562531D03*
G54D164*
X2348315Y1621441D03*
Y1646008D03*
X2215315Y1565441D03*
Y1590008D03*
X2446315Y1614441D03*
Y1639008D03*
G54D169*
X1872795Y1439803D03*
Y1441772D03*
Y1443740D03*
Y1445709D03*
Y1447677D03*
Y1449646D03*
X1857835D03*
Y1447677D03*
Y1445709D03*
Y1443740D03*
Y1441772D03*
Y1439803D03*
X1774795D03*
Y1441772D03*
Y1443740D03*
Y1445709D03*
Y1447677D03*
Y1449646D03*
X1759835D03*
Y1447677D03*
Y1445709D03*
Y1443740D03*
Y1441772D03*
Y1439803D03*
G54D170*
X1870236Y1452205D03*
X1868268D03*
X1866299D03*
X1864331D03*
X1862362D03*
X1860394D03*
Y1437244D03*
X1862362D03*
X1864331D03*
X1866299D03*
X1868268D03*
X1870236D03*
X1772236Y1452205D03*
X1770268D03*
X1768299D03*
X1766331D03*
X1764362D03*
X1762394D03*
Y1437244D03*
X1764362D03*
X1766331D03*
X1768299D03*
X1770268D03*
X1772236D03*
G54D171*
X2439315Y1823291D03*
Y1794157D03*
G54D175*
X2277000Y1577724D03*
X2237630D03*
G54D176*
X1893961Y1584724D03*
X1884669D03*
G54D177*
X2010591Y1570724D03*
X2014921D03*
X2019252D03*
X2023583D03*
X2027913D03*
X2032244D03*
X2036575D03*
X2040906D03*
X2045236D03*
X2049567D03*
X2053898D03*
X2058228D03*
Y1617969D03*
X2053898D03*
X2049567D03*
X2045236D03*
X2040906D03*
X2036575D03*
X2032244D03*
X2027913D03*
X2023583D03*
X2019252D03*
X2010591D03*
G54D178*
X2065315Y1581354D03*
Y1585685D03*
Y1590016D03*
Y1594346D03*
Y1598677D03*
Y1603008D03*
Y1607339D03*
G54D179*
X2258583Y1748268D03*
X2248583D03*
X2238583D03*
X2209764D03*
X2258583Y1839606D03*
X2248583D03*
X2238583D03*
X2209764D03*
X2242047Y1715181D03*
X2252047D03*
X2262047D03*
X2290866D03*
X2242047Y1623843D03*
X2252047D03*
X2262047D03*
X2290866D03*
X2146583Y1727268D03*
X2136583D03*
X2126583D03*
X2097764D03*
X2146583Y1818606D03*
X2136583D03*
X2126583D03*
X2097764D03*
G54D180*
X1702016Y1342744D03*
X1705165Y1342724D03*
X1708315D03*
X1711465D03*
X1714614D03*
G54D181*
X1690717Y1337920D03*
X1725717D03*
X1690894Y1317448D03*
X1725933D03*
G54D182*
X1664646Y1470374D03*
X1655984D03*
Y1464075D03*
X1664646D03*
G54D184*
X2466614Y1857724D03*
X2454016D03*
G54D188*
X2032996Y1652953D03*
X2034965D03*
X2036933D03*
X2038902D03*
X2040870D03*
X2042839D03*
X2044807D03*
X2046776D03*
X2048744D03*
X2050713D03*
X2052681D03*
X2054650D03*
Y1686417D03*
X2052681D03*
X2050713D03*
X2048744D03*
X2046776D03*
X2044807D03*
X2042839D03*
X2040870D03*
X2038902D03*
X2036933D03*
X2034965D03*
X2032996D03*
G54D189*
X2060555Y1658858D03*
Y1660827D03*
Y1662795D03*
Y1664764D03*
Y1666732D03*
Y1668701D03*
Y1670669D03*
Y1672638D03*
Y1674606D03*
Y1676575D03*
Y1678543D03*
Y1680512D03*
X2027091D03*
Y1678543D03*
Y1676575D03*
Y1674606D03*
Y1672638D03*
Y1670669D03*
Y1668701D03*
Y1666732D03*
Y1664764D03*
Y1662795D03*
Y1660827D03*
Y1658858D03*
G54D190*
X1926315Y1460998D03*
X1906315D03*
Y1445250D03*
X1926315D03*
X1930315Y1613598D03*
X1910315D03*
Y1597850D03*
X1930315D03*
G54D191*
X2478732Y1703224D03*
Y1708224D03*
Y1713224D03*
Y1718224D03*
X2455898D03*
Y1713224D03*
Y1708224D03*
Y1703224D03*
X2345732Y1584224D03*
Y1589224D03*
Y1594224D03*
Y1599224D03*
X2322898D03*
Y1594224D03*
Y1589224D03*
Y1584224D03*
X2268732Y1528224D03*
Y1533224D03*
Y1538224D03*
Y1543224D03*
X2245898D03*
Y1538224D03*
Y1533224D03*
Y1528224D03*
G54D192*
X2467315Y1710724D03*
X2334315Y1591724D03*
X2257315Y1535724D03*
G54D193*
X2488315Y1436063D03*
Y1453386D03*
X2460315Y1436063D03*
Y1453386D03*
X2348315Y1436063D03*
Y1453386D03*
X2404315Y1436063D03*
Y1453386D03*
X2376315Y1436063D03*
Y1453386D03*
X2432315Y1436063D03*
Y1453386D03*
G54D194*
X2480315Y1844858D03*
Y1856591D03*
G54D197*
X2173315Y1605724D03*
Y1609661D03*
Y1613598D03*
Y1617798D03*
Y1621472D03*
Y1625409D03*
Y1629346D03*
Y1633283D03*
Y1637220D03*
Y1641157D03*
Y1645094D03*
Y1649031D03*
Y1652969D03*
Y1656906D03*
Y1660843D03*
Y1664780D03*
Y1668717D03*
X2078827D03*
Y1664780D03*
Y1660843D03*
Y1656906D03*
Y1652969D03*
Y1649031D03*
Y1645094D03*
Y1641157D03*
Y1637220D03*
Y1633283D03*
Y1629346D03*
Y1625409D03*
Y1621472D03*
Y1617535D03*
Y1613598D03*
Y1609661D03*
Y1605724D03*
G54D198*
X2157567Y1684465D03*
X2153630D03*
X2149693D03*
X2145756D03*
X2141819D03*
X2137882D03*
X2133945D03*
X2130008D03*
X2126071D03*
X2122134D03*
X2118197D03*
X2114260D03*
X2110323D03*
X2106386D03*
X2102449D03*
X2098512D03*
X2094575D03*
Y1589976D03*
X2098512D03*
X2102449D03*
X2106386D03*
X2110323D03*
X2114260D03*
X2118197D03*
X2122134D03*
X2126071D03*
X2130008D03*
X2133945D03*
X2137882D03*
X2141819D03*
X2145756D03*
X2149693D03*
X2153630D03*
X2157567D03*
G54D199*
X2490315Y1625409D03*
Y1586039D03*
G54D200*
X1659615Y1808224D03*
Y1813224D03*
Y1818224D03*
Y1823224D03*
X1637015D03*
Y1818224D03*
Y1813224D03*
Y1808224D03*
G54D201*
X2097315Y1415213D03*
X2087315D03*
X2077315D03*
X2067315D03*
Y1376236D03*
X2077315D03*
X2087315D03*
X2097315D03*
X2139315Y1415213D03*
X2129315D03*
X2119315D03*
X2109315D03*
Y1376236D03*
X2119315D03*
X2129315D03*
X2139315D03*
G54D202*
X2462217Y1704642D02*
X2471047D01*
X2472413Y1706008*
Y1716807*
X2462217*
Y1704642*
Y1716807*
X2462236Y1704642D02*
Y1716807D01*
X2462256Y1704642D02*
Y1716807D01*
X2462276Y1704642D02*
Y1716807D01*
X2462295Y1704642D02*
Y1716807D01*
X2462315Y1704642D02*
Y1716807D01*
X2462335Y1704642D02*
Y1716807D01*
X2462354Y1704642D02*
Y1716807D01*
X2462374Y1704642D02*
Y1716807D01*
X2462394Y1704642D02*
Y1716807D01*
X2462413Y1704642D02*
Y1716807D01*
X2462433Y1704642D02*
Y1716807D01*
X2462453Y1704642D02*
Y1716807D01*
X2462472Y1704642D02*
Y1716807D01*
X2462492Y1704642D02*
Y1716807D01*
X2462512Y1704642D02*
Y1716807D01*
X2462531Y1704642D02*
Y1716807D01*
X2462551Y1704642D02*
Y1716807D01*
X2462571Y1704642D02*
Y1716807D01*
X2462591Y1704642D02*
Y1716807D01*
X2462610Y1704642D02*
Y1716807D01*
X2462630Y1704642D02*
Y1716807D01*
X2462650Y1704642D02*
Y1716807D01*
X2462669Y1704642D02*
Y1716807D01*
X2462689Y1704642D02*
Y1716807D01*
X2462709Y1704642D02*
Y1716807D01*
X2462728Y1704642D02*
Y1716807D01*
X2462748Y1704642D02*
Y1716807D01*
X2462768Y1704642D02*
Y1716807D01*
X2462787Y1704642D02*
Y1716807D01*
X2462807Y1704642D02*
Y1716807D01*
X2462827Y1704642D02*
Y1716807D01*
X2462846Y1704642D02*
Y1716807D01*
X2462866Y1704642D02*
Y1716807D01*
X2462886Y1704642D02*
Y1716807D01*
X2462906Y1704642D02*
Y1716807D01*
X2462925Y1704642D02*
Y1716807D01*
X2462945Y1704642D02*
Y1716807D01*
X2462965Y1704642D02*
Y1716807D01*
X2462984Y1704642D02*
Y1716807D01*
X2463004Y1704642D02*
Y1716807D01*
X2463024Y1704642D02*
Y1716807D01*
X2463043Y1704642D02*
Y1716807D01*
X2463063Y1704642D02*
Y1716807D01*
X2463083Y1704642D02*
Y1716807D01*
X2463102Y1704642D02*
Y1716807D01*
X2463122Y1704642D02*
Y1716807D01*
X2463142Y1704642D02*
Y1716807D01*
X2463161Y1704642D02*
Y1716807D01*
X2463181Y1704642D02*
Y1716807D01*
X2463201Y1704642D02*
Y1716807D01*
X2463220Y1704642D02*
Y1716807D01*
X2463240Y1704642D02*
Y1716807D01*
X2463260Y1704642D02*
Y1716807D01*
X2463280Y1704642D02*
Y1716807D01*
X2463299Y1704642D02*
Y1716807D01*
X2463319Y1704642D02*
Y1716807D01*
X2463339Y1704642D02*
Y1716807D01*
X2463358Y1704642D02*
Y1716807D01*
X2463378Y1704642D02*
Y1716807D01*
X2463398Y1704642D02*
Y1716807D01*
X2463417Y1704642D02*
Y1716807D01*
X2463437Y1704642D02*
Y1716807D01*
X2463457Y1704642D02*
Y1716807D01*
X2463476Y1704642D02*
Y1716807D01*
X2463496Y1704642D02*
Y1716807D01*
X2463516Y1704642D02*
Y1716807D01*
X2463535Y1704642D02*
Y1716807D01*
X2463555Y1704642D02*
Y1716807D01*
X2463575Y1704642D02*
Y1716807D01*
X2463594Y1704642D02*
Y1716807D01*
X2463614Y1704642D02*
Y1716807D01*
X2463634Y1704642D02*
Y1716807D01*
X2463654Y1704642D02*
Y1716807D01*
X2463673Y1704642D02*
Y1716807D01*
X2463693Y1704642D02*
Y1716807D01*
X2463713Y1704642D02*
Y1716807D01*
X2463732Y1704642D02*
Y1716807D01*
X2463752Y1704642D02*
Y1716807D01*
X2463772Y1704642D02*
Y1716807D01*
X2463791Y1704642D02*
Y1716807D01*
X2463811Y1704642D02*
Y1716807D01*
X2463831Y1704642D02*
Y1716807D01*
X2463850Y1704642D02*
Y1716807D01*
X2463870Y1704642D02*
Y1716807D01*
X2463890Y1704642D02*
Y1716807D01*
X2463909Y1704642D02*
Y1716807D01*
X2463929Y1704642D02*
Y1716807D01*
X2463949Y1704642D02*
Y1716807D01*
X2463969Y1704642D02*
Y1716807D01*
X2463988Y1704642D02*
Y1716807D01*
X2464008Y1704642D02*
Y1716807D01*
X2464028Y1704642D02*
Y1716807D01*
X2464047Y1704642D02*
Y1716807D01*
X2464067Y1704642D02*
Y1716807D01*
X2464087Y1704642D02*
Y1716807D01*
X2464106Y1704642D02*
Y1716807D01*
X2464126Y1704642D02*
Y1716807D01*
X2464146Y1704642D02*
Y1716807D01*
X2464165Y1704642D02*
Y1716807D01*
X2464185Y1704642D02*
Y1716807D01*
X2464205Y1704642D02*
Y1716807D01*
X2464224Y1704642D02*
Y1716807D01*
X2464244Y1704642D02*
Y1716807D01*
X2464264Y1704642D02*
Y1716807D01*
X2464283Y1704642D02*
Y1716807D01*
X2464303Y1704642D02*
Y1716807D01*
X2464323Y1704642D02*
Y1716807D01*
X2464343Y1704642D02*
Y1716807D01*
X2464362Y1704642D02*
Y1716807D01*
X2464382Y1704642D02*
Y1716807D01*
X2464402Y1704642D02*
Y1716807D01*
X2464421Y1704642D02*
Y1716807D01*
X2464441Y1704642D02*
Y1716807D01*
X2464461Y1704642D02*
Y1716807D01*
X2464480Y1704642D02*
Y1716807D01*
X2464500Y1704642D02*
Y1716807D01*
X2464520Y1704642D02*
Y1716807D01*
X2464539Y1704642D02*
Y1716807D01*
X2464559Y1704642D02*
Y1716807D01*
X2464579Y1704642D02*
Y1716807D01*
X2464598Y1704642D02*
Y1716807D01*
X2464618Y1704642D02*
Y1716807D01*
X2464638Y1704642D02*
Y1716807D01*
X2464657Y1704642D02*
Y1716807D01*
X2464677Y1704642D02*
Y1716807D01*
X2464697Y1704642D02*
Y1716807D01*
X2464717Y1704642D02*
Y1716807D01*
X2464736Y1704642D02*
Y1716807D01*
X2464756Y1704642D02*
Y1716807D01*
X2464776Y1704642D02*
Y1716807D01*
X2464795Y1704642D02*
Y1716807D01*
X2464815Y1704642D02*
Y1716807D01*
X2464835Y1704642D02*
Y1716807D01*
X2464854Y1704642D02*
Y1716807D01*
X2464874Y1704642D02*
Y1716807D01*
X2464894Y1704642D02*
Y1716807D01*
X2464913Y1704642D02*
Y1716807D01*
X2464933Y1704642D02*
Y1716807D01*
X2464953Y1704642D02*
Y1716807D01*
X2464972Y1704642D02*
Y1716807D01*
X2464992Y1704642D02*
Y1716807D01*
X2465012Y1704642D02*
Y1716807D01*
X2465031Y1704642D02*
Y1716807D01*
X2465051Y1704642D02*
Y1716807D01*
X2465071Y1704642D02*
Y1716807D01*
X2465091Y1704642D02*
Y1716807D01*
X2465110Y1704642D02*
Y1716807D01*
X2465130Y1704642D02*
Y1716807D01*
X2465150Y1704642D02*
Y1716807D01*
X2465169Y1704642D02*
Y1716807D01*
X2465189Y1704642D02*
Y1716807D01*
X2465209Y1704642D02*
Y1716807D01*
X2465228Y1704642D02*
Y1716807D01*
X2465248Y1704642D02*
Y1716807D01*
X2465268Y1704642D02*
Y1716807D01*
X2465287Y1704642D02*
Y1716807D01*
X2465307Y1704642D02*
Y1716807D01*
X2465327Y1704642D02*
Y1716807D01*
X2465346Y1704642D02*
Y1716807D01*
X2465366Y1704642D02*
Y1716807D01*
X2465386Y1704642D02*
Y1716807D01*
X2465406Y1704642D02*
Y1716807D01*
X2465425Y1704642D02*
Y1716807D01*
X2465445Y1704642D02*
Y1716807D01*
X2465465Y1704642D02*
Y1716807D01*
X2465484Y1704642D02*
Y1716807D01*
X2465504Y1704642D02*
Y1716807D01*
X2465524Y1704642D02*
Y1716807D01*
X2465543Y1704642D02*
Y1716807D01*
X2465563Y1704642D02*
Y1716807D01*
X2465583Y1704642D02*
Y1716807D01*
X2465602Y1704642D02*
Y1716807D01*
X2465622Y1704642D02*
Y1716807D01*
X2465642Y1704642D02*
Y1716807D01*
X2465661Y1704642D02*
Y1716807D01*
X2465681Y1704642D02*
Y1716807D01*
X2465701Y1704642D02*
Y1716807D01*
X2465720Y1704642D02*
Y1716807D01*
X2465740Y1704642D02*
Y1716807D01*
X2465760Y1704642D02*
Y1716807D01*
X2465780Y1704642D02*
Y1716807D01*
X2465799Y1704642D02*
Y1716807D01*
X2465819Y1704642D02*
Y1716807D01*
X2465839Y1704642D02*
Y1716807D01*
X2465858Y1704642D02*
Y1716807D01*
X2465878Y1704642D02*
Y1716807D01*
X2465898Y1704642D02*
Y1716807D01*
X2465917Y1704642D02*
Y1716807D01*
X2465937Y1704642D02*
Y1716807D01*
X2465957Y1704642D02*
Y1716807D01*
X2465976Y1704642D02*
Y1716807D01*
X2465996Y1704642D02*
Y1716807D01*
X2466016Y1704642D02*
Y1716807D01*
X2466035Y1704642D02*
Y1716807D01*
X2466055Y1704642D02*
Y1716807D01*
X2466075Y1704642D02*
Y1716807D01*
X2466094Y1704642D02*
Y1716807D01*
X2466114Y1704642D02*
Y1716807D01*
X2466134Y1704642D02*
Y1716807D01*
X2466154Y1704642D02*
Y1716807D01*
X2466173Y1704642D02*
Y1716807D01*
X2466193Y1704642D02*
Y1716807D01*
X2466213Y1704642D02*
Y1716807D01*
X2466232Y1704642D02*
Y1716807D01*
X2466252Y1704642D02*
Y1716807D01*
X2466272Y1704642D02*
Y1716807D01*
X2466291Y1704642D02*
Y1716807D01*
X2466311Y1704642D02*
Y1716807D01*
X2466331Y1704642D02*
Y1716807D01*
X2466350Y1704642D02*
Y1716807D01*
X2466370Y1704642D02*
Y1716807D01*
X2466390Y1704642D02*
Y1716807D01*
X2466409Y1704642D02*
Y1716807D01*
X2466429Y1704642D02*
Y1716807D01*
X2466449Y1704642D02*
Y1716807D01*
X2466469Y1704642D02*
Y1716807D01*
X2466488Y1704642D02*
Y1716807D01*
X2466508Y1704642D02*
Y1716807D01*
X2466528Y1704642D02*
Y1716807D01*
X2466547Y1704642D02*
Y1716807D01*
X2466567Y1704642D02*
Y1716807D01*
X2466587Y1704642D02*
Y1716807D01*
X2466606Y1704642D02*
Y1716807D01*
X2466626Y1704642D02*
Y1716807D01*
X2466646Y1704642D02*
Y1716807D01*
X2466665Y1704642D02*
Y1716807D01*
X2466685Y1704642D02*
Y1716807D01*
X2466705Y1704642D02*
Y1716807D01*
X2466724Y1704642D02*
Y1716807D01*
X2466744Y1704642D02*
Y1716807D01*
X2466764Y1704642D02*
Y1716807D01*
X2466783Y1704642D02*
Y1716807D01*
X2466803Y1704642D02*
Y1716807D01*
X2466823Y1704642D02*
Y1716807D01*
X2466843Y1704642D02*
Y1716807D01*
X2466862Y1704642D02*
Y1716807D01*
X2466882Y1704642D02*
Y1716807D01*
X2466902Y1704642D02*
Y1716807D01*
X2466921Y1704642D02*
Y1716807D01*
X2466941Y1704642D02*
Y1716807D01*
X2466961Y1704642D02*
Y1716807D01*
X2466980Y1704642D02*
Y1716807D01*
X2467000Y1704642D02*
Y1716807D01*
X2467020Y1704642D02*
Y1716807D01*
X2467039Y1704642D02*
Y1716807D01*
X2467059Y1704642D02*
Y1716807D01*
X2467079Y1704642D02*
Y1716807D01*
X2467098Y1704642D02*
Y1716807D01*
X2467118Y1704642D02*
Y1716807D01*
X2467138Y1704642D02*
Y1716807D01*
X2467157Y1704642D02*
Y1716807D01*
X2467177Y1704642D02*
Y1716807D01*
X2467197Y1704642D02*
Y1716807D01*
X2467217Y1704642D02*
Y1716807D01*
X2467236Y1704642D02*
Y1716807D01*
X2467256Y1704642D02*
Y1716807D01*
X2467276Y1704642D02*
Y1716807D01*
X2467295Y1704642D02*
Y1716807D01*
X2467315Y1704642D02*
Y1716807D01*
X2467335Y1704642D02*
Y1716807D01*
X2467354Y1704642D02*
Y1716807D01*
X2467374Y1704642D02*
Y1716807D01*
X2467394Y1704642D02*
Y1716807D01*
X2467413Y1704642D02*
Y1716807D01*
X2467433Y1704642D02*
Y1716807D01*
X2467453Y1704642D02*
Y1716807D01*
X2467472Y1704642D02*
Y1716807D01*
X2467492Y1704642D02*
Y1716807D01*
X2467512Y1704642D02*
Y1716807D01*
X2467531Y1704642D02*
Y1716807D01*
X2467551Y1704642D02*
Y1716807D01*
X2467571Y1704642D02*
Y1716807D01*
X2467591Y1704642D02*
Y1716807D01*
X2467610Y1704642D02*
Y1716807D01*
X2467630Y1704642D02*
Y1716807D01*
X2467650Y1704642D02*
Y1716807D01*
X2467669Y1704642D02*
Y1716807D01*
X2467689Y1704642D02*
Y1716807D01*
X2467709Y1704642D02*
Y1716807D01*
X2467728Y1704642D02*
Y1716807D01*
X2467748Y1704642D02*
Y1716807D01*
X2467768Y1704642D02*
Y1716807D01*
X2467787Y1704642D02*
Y1716807D01*
X2467807Y1704642D02*
Y1716807D01*
X2467827Y1704642D02*
Y1716807D01*
X2467846Y1704642D02*
Y1716807D01*
X2467866Y1704642D02*
Y1716807D01*
X2467886Y1704642D02*
Y1716807D01*
X2467906Y1704642D02*
Y1716807D01*
X2467925Y1704642D02*
Y1716807D01*
X2467945Y1704642D02*
Y1716807D01*
X2467965Y1704642D02*
Y1716807D01*
X2467984Y1704642D02*
Y1716807D01*
X2468004Y1704642D02*
Y1716807D01*
X2468024Y1704642D02*
Y1716807D01*
X2468043Y1704642D02*
Y1716807D01*
X2468063Y1704642D02*
Y1716807D01*
X2468083Y1704642D02*
Y1716807D01*
X2468102Y1704642D02*
Y1716807D01*
X2468122Y1704642D02*
Y1716807D01*
X2468142Y1704642D02*
Y1716807D01*
X2468161Y1704642D02*
Y1716807D01*
X2468181Y1704642D02*
Y1716807D01*
X2468201Y1704642D02*
Y1716807D01*
X2468220Y1704642D02*
Y1716807D01*
X2468240Y1704642D02*
Y1716807D01*
X2468260Y1704642D02*
Y1716807D01*
X2468280Y1704642D02*
Y1716807D01*
X2468299Y1704642D02*
Y1716807D01*
X2468319Y1704642D02*
Y1716807D01*
X2468339Y1704642D02*
Y1716807D01*
X2468358Y1704642D02*
Y1716807D01*
X2468378Y1704642D02*
Y1716807D01*
X2468398Y1704642D02*
Y1716807D01*
X2468417Y1704642D02*
Y1716807D01*
X2468437Y1704642D02*
Y1716807D01*
X2468457Y1704642D02*
Y1716807D01*
X2468476Y1704642D02*
Y1716807D01*
X2468496Y1704642D02*
Y1716807D01*
X2468516Y1704642D02*
Y1716807D01*
X2468535Y1704642D02*
Y1716807D01*
X2468555Y1704642D02*
Y1716807D01*
X2468575Y1704642D02*
Y1716807D01*
X2468594Y1704642D02*
Y1716807D01*
X2468614Y1704642D02*
Y1716807D01*
X2468634Y1704642D02*
Y1716807D01*
X2468654Y1704642D02*
Y1716807D01*
X2468673Y1704642D02*
Y1716807D01*
X2468693Y1704642D02*
Y1716807D01*
X2468713Y1704642D02*
Y1716807D01*
X2468732Y1704642D02*
Y1716807D01*
X2468752Y1704642D02*
Y1716807D01*
X2468772Y1704642D02*
Y1716807D01*
X2468791Y1704642D02*
Y1716807D01*
X2468811Y1704642D02*
Y1716807D01*
X2468831Y1704642D02*
Y1716807D01*
X2468850Y1704642D02*
Y1716807D01*
X2468870Y1704642D02*
Y1716807D01*
X2468890Y1704642D02*
Y1716807D01*
X2468909Y1704642D02*
Y1716807D01*
X2468929Y1704642D02*
Y1716807D01*
X2468949Y1704642D02*
Y1716807D01*
X2468969Y1704642D02*
Y1716807D01*
X2468988Y1704642D02*
Y1716807D01*
X2469008Y1704642D02*
Y1716807D01*
X2469028Y1704642D02*
Y1716807D01*
X2469047Y1704642D02*
Y1716807D01*
X2469067Y1704642D02*
Y1716807D01*
X2469087Y1704642D02*
Y1716807D01*
X2469106Y1704642D02*
Y1716807D01*
X2469126Y1704642D02*
Y1716807D01*
X2469146Y1704642D02*
Y1716807D01*
X2469165Y1704642D02*
Y1716807D01*
X2469185Y1704642D02*
Y1716807D01*
X2469205Y1704642D02*
Y1716807D01*
X2469224Y1704642D02*
Y1716807D01*
X2469244Y1704642D02*
Y1716807D01*
X2469264Y1704642D02*
Y1716807D01*
X2469283Y1704642D02*
Y1716807D01*
X2469303Y1704642D02*
Y1716807D01*
X2469323Y1704642D02*
Y1716807D01*
X2469343Y1704642D02*
Y1716807D01*
X2469362Y1704642D02*
Y1716807D01*
X2469382Y1704642D02*
Y1716807D01*
X2469402Y1704642D02*
Y1716807D01*
X2469421Y1704642D02*
Y1716807D01*
X2469441Y1704642D02*
Y1716807D01*
X2469461Y1704642D02*
Y1716807D01*
X2469480Y1704642D02*
Y1716807D01*
X2469500Y1704642D02*
Y1716807D01*
X2469520Y1704642D02*
Y1716807D01*
X2469539Y1704642D02*
Y1716807D01*
X2469559Y1704642D02*
Y1716807D01*
X2469579Y1704642D02*
Y1716807D01*
X2469598Y1704642D02*
Y1716807D01*
X2469618Y1704642D02*
Y1716807D01*
X2469638Y1704642D02*
Y1716807D01*
X2469657Y1704642D02*
Y1716807D01*
X2469677Y1704642D02*
Y1716807D01*
X2469697Y1704642D02*
Y1716807D01*
X2469717Y1704642D02*
Y1716807D01*
X2469736Y1704642D02*
Y1716807D01*
X2469756Y1704642D02*
Y1716807D01*
X2469776Y1704642D02*
Y1716807D01*
X2469795Y1704642D02*
Y1716807D01*
X2469815Y1704642D02*
Y1716807D01*
X2469835Y1704642D02*
Y1716807D01*
X2469854Y1704642D02*
Y1716807D01*
X2469874Y1704642D02*
Y1716807D01*
X2469894Y1704642D02*
Y1716807D01*
X2469913Y1704642D02*
Y1716807D01*
X2469933Y1704642D02*
Y1716807D01*
X2469953Y1704642D02*
Y1716807D01*
X2469972Y1704642D02*
Y1716807D01*
X2469992Y1704642D02*
Y1716807D01*
X2470012Y1704642D02*
Y1716807D01*
X2470031Y1704642D02*
Y1716807D01*
X2470051Y1704642D02*
Y1716807D01*
X2470071Y1704642D02*
Y1716807D01*
X2470091Y1704642D02*
Y1716807D01*
X2470110Y1704642D02*
Y1716807D01*
X2470130Y1704642D02*
Y1716807D01*
X2470150Y1704642D02*
Y1716807D01*
X2470169Y1704642D02*
Y1716807D01*
X2470189Y1704642D02*
Y1716807D01*
X2470209Y1704642D02*
Y1716807D01*
X2470228Y1704642D02*
Y1716807D01*
X2470248Y1704642D02*
Y1716807D01*
X2470268Y1704642D02*
Y1716807D01*
X2470287Y1704642D02*
Y1716807D01*
X2470307Y1704642D02*
Y1716807D01*
X2470327Y1704642D02*
Y1716807D01*
X2470346Y1704642D02*
Y1716807D01*
X2470366Y1704642D02*
Y1716807D01*
X2470386Y1704642D02*
Y1716807D01*
X2470406Y1704642D02*
Y1716807D01*
X2470425Y1704642D02*
Y1716807D01*
X2470445Y1704642D02*
Y1716807D01*
X2470465Y1704642D02*
Y1716807D01*
X2470484Y1704642D02*
Y1716807D01*
X2470504Y1704642D02*
Y1716807D01*
X2470524Y1704642D02*
Y1716807D01*
X2470543Y1704642D02*
Y1716807D01*
X2470563Y1704642D02*
Y1716807D01*
X2470583Y1704642D02*
Y1716807D01*
X2470602Y1704642D02*
Y1716807D01*
X2470622Y1704642D02*
Y1716807D01*
X2470642Y1704642D02*
Y1716807D01*
X2470661Y1704642D02*
Y1716807D01*
X2470681Y1704642D02*
Y1716807D01*
X2470701Y1704642D02*
Y1716807D01*
X2470720Y1704642D02*
Y1716807D01*
X2470740Y1704642D02*
Y1716807D01*
X2470760Y1704642D02*
Y1716807D01*
X2470780Y1704642D02*
Y1716807D01*
X2470799Y1704642D02*
Y1716807D01*
X2470819Y1704642D02*
Y1716807D01*
X2470839Y1704642D02*
Y1716807D01*
X2470858Y1704642D02*
Y1716807D01*
X2470878Y1704642D02*
Y1716807D01*
X2470898Y1704642D02*
Y1716807D01*
X2470917Y1704642D02*
Y1716807D01*
X2470937Y1704642D02*
Y1716807D01*
X2470957Y1704642D02*
Y1716807D01*
X2470976Y1704642D02*
Y1716807D01*
X2470996Y1704642D02*
Y1716807D01*
X2471016Y1704642D02*
Y1716807D01*
X2471035Y1704642D02*
Y1716807D01*
X2471055Y1704650D02*
Y1716807D01*
X2471075Y1704670D02*
Y1716807D01*
X2471094Y1704689D02*
Y1716807D01*
X2471114Y1704709D02*
Y1716807D01*
X2471134Y1704729D02*
Y1716807D01*
X2471154Y1704748D02*
Y1716807D01*
X2471173Y1704768D02*
Y1716807D01*
X2471193Y1704788D02*
Y1716807D01*
X2471213Y1704807D02*
Y1716807D01*
X2471232Y1704827D02*
Y1716807D01*
X2471252Y1704847D02*
Y1716807D01*
X2471272Y1704866D02*
Y1716807D01*
X2471291Y1704886D02*
Y1716807D01*
X2471311Y1704906D02*
Y1716807D01*
X2471331Y1704925D02*
Y1716807D01*
X2471350Y1704945D02*
Y1716807D01*
X2471370Y1704965D02*
Y1716807D01*
X2471390Y1704985D02*
Y1716807D01*
X2471409Y1705004D02*
Y1716807D01*
X2471429Y1705024D02*
Y1716807D01*
X2471449Y1705044D02*
Y1716807D01*
X2471469Y1705063D02*
Y1716807D01*
X2471488Y1705083D02*
Y1716807D01*
X2471508Y1705103D02*
Y1716807D01*
X2471528Y1705122D02*
Y1716807D01*
X2471547Y1705142D02*
Y1716807D01*
X2471567Y1705162D02*
Y1716807D01*
X2471587Y1705181D02*
Y1716807D01*
X2471606Y1705201D02*
Y1716807D01*
X2471626Y1705221D02*
Y1716807D01*
X2471646Y1705240D02*
Y1716807D01*
X2471665Y1705260D02*
Y1716807D01*
X2471685Y1705280D02*
Y1716807D01*
X2471705Y1705299D02*
Y1716807D01*
X2471724Y1705319D02*
Y1716807D01*
X2471744Y1705339D02*
Y1716807D01*
X2471764Y1705359D02*
Y1716807D01*
X2471783Y1705378D02*
Y1716807D01*
X2471803Y1705398D02*
Y1716807D01*
X2471823Y1705418D02*
Y1716807D01*
X2471843Y1705437D02*
Y1716807D01*
X2471862Y1705457D02*
Y1716807D01*
X2471882Y1705477D02*
Y1716807D01*
X2471902Y1705496D02*
Y1716807D01*
X2471921Y1705516D02*
Y1716807D01*
X2471941Y1705536D02*
Y1716807D01*
X2471961Y1705555D02*
Y1716807D01*
X2471980Y1705575D02*
Y1716807D01*
X2472000Y1705595D02*
Y1716807D01*
X2472020Y1705614D02*
Y1716807D01*
X2472039Y1705634D02*
Y1716807D01*
X2472059Y1705654D02*
Y1716807D01*
X2472079Y1705674D02*
Y1716807D01*
X2472098Y1705693D02*
Y1716807D01*
X2472118Y1705713D02*
Y1716807D01*
X2472138Y1705733D02*
Y1716807D01*
X2472157Y1705752D02*
Y1716807D01*
X2472177Y1705772D02*
Y1716807D01*
X2472197Y1705792D02*
Y1716807D01*
X2472217Y1705811D02*
Y1716807D01*
X2472236Y1705831D02*
Y1716807D01*
X2472256Y1705851D02*
Y1716807D01*
X2472276Y1705870D02*
Y1716807D01*
X2472295Y1705890D02*
Y1716807D01*
X2472315Y1705910D02*
Y1716807D01*
X2472335Y1705929D02*
Y1716807D01*
X2472354Y1705949D02*
Y1716807D01*
X2472374Y1705969D02*
Y1716807D01*
X2472394Y1705988D02*
Y1716807D01*
X2329217Y1585642D02*
X2338047D01*
X2339413Y1587008*
Y1597807*
X2329217*
Y1585642*
Y1597807*
X2329236Y1585642D02*
Y1597807D01*
X2329256Y1585642D02*
Y1597807D01*
X2329276Y1585642D02*
Y1597807D01*
X2329295Y1585642D02*
Y1597807D01*
X2329315Y1585642D02*
Y1597807D01*
X2329335Y1585642D02*
Y1597807D01*
X2329354Y1585642D02*
Y1597807D01*
X2329374Y1585642D02*
Y1597807D01*
X2329394Y1585642D02*
Y1597807D01*
X2329413Y1585642D02*
Y1597807D01*
X2329433Y1585642D02*
Y1597807D01*
X2329453Y1585642D02*
Y1597807D01*
X2329472Y1585642D02*
Y1597807D01*
X2329492Y1585642D02*
Y1597807D01*
X2329512Y1585642D02*
Y1597807D01*
X2329531Y1585642D02*
Y1597807D01*
X2329551Y1585642D02*
Y1597807D01*
X2329571Y1585642D02*
Y1597807D01*
X2329591Y1585642D02*
Y1597807D01*
X2329610Y1585642D02*
Y1597807D01*
X2329630Y1585642D02*
Y1597807D01*
X2329650Y1585642D02*
Y1597807D01*
X2329669Y1585642D02*
Y1597807D01*
X2329689Y1585642D02*
Y1597807D01*
X2329709Y1585642D02*
Y1597807D01*
X2329728Y1585642D02*
Y1597807D01*
X2329748Y1585642D02*
Y1597807D01*
X2329768Y1585642D02*
Y1597807D01*
X2329787Y1585642D02*
Y1597807D01*
X2329807Y1585642D02*
Y1597807D01*
X2329827Y1585642D02*
Y1597807D01*
X2329846Y1585642D02*
Y1597807D01*
X2329866Y1585642D02*
Y1597807D01*
X2329886Y1585642D02*
Y1597807D01*
X2329906Y1585642D02*
Y1597807D01*
X2329925Y1585642D02*
Y1597807D01*
X2329945Y1585642D02*
Y1597807D01*
X2329965Y1585642D02*
Y1597807D01*
X2329984Y1585642D02*
Y1597807D01*
X2330004Y1585642D02*
Y1597807D01*
X2330024Y1585642D02*
Y1597807D01*
X2330043Y1585642D02*
Y1597807D01*
X2330063Y1585642D02*
Y1597807D01*
X2330083Y1585642D02*
Y1597807D01*
X2330102Y1585642D02*
Y1597807D01*
X2330122Y1585642D02*
Y1597807D01*
X2330142Y1585642D02*
Y1597807D01*
X2330161Y1585642D02*
Y1597807D01*
X2330181Y1585642D02*
Y1597807D01*
X2330201Y1585642D02*
Y1597807D01*
X2330220Y1585642D02*
Y1597807D01*
X2330240Y1585642D02*
Y1597807D01*
X2330260Y1585642D02*
Y1597807D01*
X2330280Y1585642D02*
Y1597807D01*
X2330299Y1585642D02*
Y1597807D01*
X2330319Y1585642D02*
Y1597807D01*
X2330339Y1585642D02*
Y1597807D01*
X2330358Y1585642D02*
Y1597807D01*
X2330378Y1585642D02*
Y1597807D01*
X2330398Y1585642D02*
Y1597807D01*
X2330417Y1585642D02*
Y1597807D01*
X2330437Y1585642D02*
Y1597807D01*
X2330457Y1585642D02*
Y1597807D01*
X2330476Y1585642D02*
Y1597807D01*
X2330496Y1585642D02*
Y1597807D01*
X2330516Y1585642D02*
Y1597807D01*
X2330535Y1585642D02*
Y1597807D01*
X2330555Y1585642D02*
Y1597807D01*
X2330575Y1585642D02*
Y1597807D01*
X2330594Y1585642D02*
Y1597807D01*
X2330614Y1585642D02*
Y1597807D01*
X2330634Y1585642D02*
Y1597807D01*
X2330654Y1585642D02*
Y1597807D01*
X2330673Y1585642D02*
Y1597807D01*
X2330693Y1585642D02*
Y1597807D01*
X2330713Y1585642D02*
Y1597807D01*
X2330732Y1585642D02*
Y1597807D01*
X2330752Y1585642D02*
Y1597807D01*
X2330772Y1585642D02*
Y1597807D01*
X2330791Y1585642D02*
Y1597807D01*
X2330811Y1585642D02*
Y1597807D01*
X2330831Y1585642D02*
Y1597807D01*
X2330850Y1585642D02*
Y1597807D01*
X2330870Y1585642D02*
Y1597807D01*
X2330890Y1585642D02*
Y1597807D01*
X2330909Y1585642D02*
Y1597807D01*
X2330929Y1585642D02*
Y1597807D01*
X2330949Y1585642D02*
Y1597807D01*
X2330969Y1585642D02*
Y1597807D01*
X2330988Y1585642D02*
Y1597807D01*
X2331008Y1585642D02*
Y1597807D01*
X2331028Y1585642D02*
Y1597807D01*
X2331047Y1585642D02*
Y1597807D01*
X2331067Y1585642D02*
Y1597807D01*
X2331087Y1585642D02*
Y1597807D01*
X2331106Y1585642D02*
Y1597807D01*
X2331126Y1585642D02*
Y1597807D01*
X2331146Y1585642D02*
Y1597807D01*
X2331165Y1585642D02*
Y1597807D01*
X2331185Y1585642D02*
Y1597807D01*
X2331205Y1585642D02*
Y1597807D01*
X2331224Y1585642D02*
Y1597807D01*
X2331244Y1585642D02*
Y1597807D01*
X2331264Y1585642D02*
Y1597807D01*
X2331283Y1585642D02*
Y1597807D01*
X2331303Y1585642D02*
Y1597807D01*
X2331323Y1585642D02*
Y1597807D01*
X2331343Y1585642D02*
Y1597807D01*
X2331362Y1585642D02*
Y1597807D01*
X2331382Y1585642D02*
Y1597807D01*
X2331402Y1585642D02*
Y1597807D01*
X2331421Y1585642D02*
Y1597807D01*
X2331441Y1585642D02*
Y1597807D01*
X2331461Y1585642D02*
Y1597807D01*
X2331480Y1585642D02*
Y1597807D01*
X2331500Y1585642D02*
Y1597807D01*
X2331520Y1585642D02*
Y1597807D01*
X2331539Y1585642D02*
Y1597807D01*
X2331559Y1585642D02*
Y1597807D01*
X2331579Y1585642D02*
Y1597807D01*
X2331598Y1585642D02*
Y1597807D01*
X2331618Y1585642D02*
Y1597807D01*
X2331638Y1585642D02*
Y1597807D01*
X2331657Y1585642D02*
Y1597807D01*
X2331677Y1585642D02*
Y1597807D01*
X2331697Y1585642D02*
Y1597807D01*
X2331717Y1585642D02*
Y1597807D01*
X2331736Y1585642D02*
Y1597807D01*
X2331756Y1585642D02*
Y1597807D01*
X2331776Y1585642D02*
Y1597807D01*
X2331795Y1585642D02*
Y1597807D01*
X2331815Y1585642D02*
Y1597807D01*
X2331835Y1585642D02*
Y1597807D01*
X2331854Y1585642D02*
Y1597807D01*
X2331874Y1585642D02*
Y1597807D01*
X2331894Y1585642D02*
Y1597807D01*
X2331913Y1585642D02*
Y1597807D01*
X2331933Y1585642D02*
Y1597807D01*
X2331953Y1585642D02*
Y1597807D01*
X2331972Y1585642D02*
Y1597807D01*
X2331992Y1585642D02*
Y1597807D01*
X2332012Y1585642D02*
Y1597807D01*
X2332031Y1585642D02*
Y1597807D01*
X2332051Y1585642D02*
Y1597807D01*
X2332071Y1585642D02*
Y1597807D01*
X2332091Y1585642D02*
Y1597807D01*
X2332110Y1585642D02*
Y1597807D01*
X2332130Y1585642D02*
Y1597807D01*
X2332150Y1585642D02*
Y1597807D01*
X2332169Y1585642D02*
Y1597807D01*
X2332189Y1585642D02*
Y1597807D01*
X2332209Y1585642D02*
Y1597807D01*
X2332228Y1585642D02*
Y1597807D01*
X2332248Y1585642D02*
Y1597807D01*
X2332268Y1585642D02*
Y1597807D01*
X2332287Y1585642D02*
Y1597807D01*
X2332307Y1585642D02*
Y1597807D01*
X2332327Y1585642D02*
Y1597807D01*
X2332346Y1585642D02*
Y1597807D01*
X2332366Y1585642D02*
Y1597807D01*
X2332386Y1585642D02*
Y1597807D01*
X2332406Y1585642D02*
Y1597807D01*
X2332425Y1585642D02*
Y1597807D01*
X2332445Y1585642D02*
Y1597807D01*
X2332465Y1585642D02*
Y1597807D01*
X2332484Y1585642D02*
Y1597807D01*
X2332504Y1585642D02*
Y1597807D01*
X2332524Y1585642D02*
Y1597807D01*
X2332543Y1585642D02*
Y1597807D01*
X2332563Y1585642D02*
Y1597807D01*
X2332583Y1585642D02*
Y1597807D01*
X2332602Y1585642D02*
Y1597807D01*
X2332622Y1585642D02*
Y1597807D01*
X2332642Y1585642D02*
Y1597807D01*
X2332661Y1585642D02*
Y1597807D01*
X2332681Y1585642D02*
Y1597807D01*
X2332701Y1585642D02*
Y1597807D01*
X2332720Y1585642D02*
Y1597807D01*
X2332740Y1585642D02*
Y1597807D01*
X2332760Y1585642D02*
Y1597807D01*
X2332780Y1585642D02*
Y1597807D01*
X2332799Y1585642D02*
Y1597807D01*
X2332819Y1585642D02*
Y1597807D01*
X2332839Y1585642D02*
Y1597807D01*
X2332858Y1585642D02*
Y1597807D01*
X2332878Y1585642D02*
Y1597807D01*
X2332898Y1585642D02*
Y1597807D01*
X2332917Y1585642D02*
Y1597807D01*
X2332937Y1585642D02*
Y1597807D01*
X2332957Y1585642D02*
Y1597807D01*
X2332976Y1585642D02*
Y1597807D01*
X2332996Y1585642D02*
Y1597807D01*
X2333016Y1585642D02*
Y1597807D01*
X2333035Y1585642D02*
Y1597807D01*
X2333055Y1585642D02*
Y1597807D01*
X2333075Y1585642D02*
Y1597807D01*
X2333094Y1585642D02*
Y1597807D01*
X2333114Y1585642D02*
Y1597807D01*
X2333134Y1585642D02*
Y1597807D01*
X2333154Y1585642D02*
Y1597807D01*
X2333173Y1585642D02*
Y1597807D01*
X2333193Y1585642D02*
Y1597807D01*
X2333213Y1585642D02*
Y1597807D01*
X2333232Y1585642D02*
Y1597807D01*
X2333252Y1585642D02*
Y1597807D01*
X2333272Y1585642D02*
Y1597807D01*
X2333291Y1585642D02*
Y1597807D01*
X2333311Y1585642D02*
Y1597807D01*
X2333331Y1585642D02*
Y1597807D01*
X2333350Y1585642D02*
Y1597807D01*
X2333370Y1585642D02*
Y1597807D01*
X2333390Y1585642D02*
Y1597807D01*
X2333409Y1585642D02*
Y1597807D01*
X2333429Y1585642D02*
Y1597807D01*
X2333449Y1585642D02*
Y1597807D01*
X2333469Y1585642D02*
Y1597807D01*
X2333488Y1585642D02*
Y1597807D01*
X2333508Y1585642D02*
Y1597807D01*
X2333528Y1585642D02*
Y1597807D01*
X2333547Y1585642D02*
Y1597807D01*
X2333567Y1585642D02*
Y1597807D01*
X2333587Y1585642D02*
Y1597807D01*
X2333606Y1585642D02*
Y1597807D01*
X2333626Y1585642D02*
Y1597807D01*
X2333646Y1585642D02*
Y1597807D01*
X2333665Y1585642D02*
Y1597807D01*
X2333685Y1585642D02*
Y1597807D01*
X2333705Y1585642D02*
Y1597807D01*
X2333724Y1585642D02*
Y1597807D01*
X2333744Y1585642D02*
Y1597807D01*
X2333764Y1585642D02*
Y1597807D01*
X2333783Y1585642D02*
Y1597807D01*
X2333803Y1585642D02*
Y1597807D01*
X2333823Y1585642D02*
Y1597807D01*
X2333843Y1585642D02*
Y1597807D01*
X2333862Y1585642D02*
Y1597807D01*
X2333882Y1585642D02*
Y1597807D01*
X2333902Y1585642D02*
Y1597807D01*
X2333921Y1585642D02*
Y1597807D01*
X2333941Y1585642D02*
Y1597807D01*
X2333961Y1585642D02*
Y1597807D01*
X2333980Y1585642D02*
Y1597807D01*
X2334000Y1585642D02*
Y1597807D01*
X2334020Y1585642D02*
Y1597807D01*
X2334039Y1585642D02*
Y1597807D01*
X2334059Y1585642D02*
Y1597807D01*
X2334079Y1585642D02*
Y1597807D01*
X2334098Y1585642D02*
Y1597807D01*
X2334118Y1585642D02*
Y1597807D01*
X2334138Y1585642D02*
Y1597807D01*
X2334157Y1585642D02*
Y1597807D01*
X2334177Y1585642D02*
Y1597807D01*
X2334197Y1585642D02*
Y1597807D01*
X2334217Y1585642D02*
Y1597807D01*
X2334236Y1585642D02*
Y1597807D01*
X2334256Y1585642D02*
Y1597807D01*
X2334276Y1585642D02*
Y1597807D01*
X2334295Y1585642D02*
Y1597807D01*
X2334315Y1585642D02*
Y1597807D01*
X2334335Y1585642D02*
Y1597807D01*
X2334354Y1585642D02*
Y1597807D01*
X2334374Y1585642D02*
Y1597807D01*
X2334394Y1585642D02*
Y1597807D01*
X2334413Y1585642D02*
Y1597807D01*
X2334433Y1585642D02*
Y1597807D01*
X2334453Y1585642D02*
Y1597807D01*
X2334472Y1585642D02*
Y1597807D01*
X2334492Y1585642D02*
Y1597807D01*
X2334512Y1585642D02*
Y1597807D01*
X2334531Y1585642D02*
Y1597807D01*
X2334551Y1585642D02*
Y1597807D01*
X2334571Y1585642D02*
Y1597807D01*
X2334591Y1585642D02*
Y1597807D01*
X2334610Y1585642D02*
Y1597807D01*
X2334630Y1585642D02*
Y1597807D01*
X2334650Y1585642D02*
Y1597807D01*
X2334669Y1585642D02*
Y1597807D01*
X2334689Y1585642D02*
Y1597807D01*
X2334709Y1585642D02*
Y1597807D01*
X2334728Y1585642D02*
Y1597807D01*
X2334748Y1585642D02*
Y1597807D01*
X2334768Y1585642D02*
Y1597807D01*
X2334787Y1585642D02*
Y1597807D01*
X2334807Y1585642D02*
Y1597807D01*
X2334827Y1585642D02*
Y1597807D01*
X2334846Y1585642D02*
Y1597807D01*
X2334866Y1585642D02*
Y1597807D01*
X2334886Y1585642D02*
Y1597807D01*
X2334906Y1585642D02*
Y1597807D01*
X2334925Y1585642D02*
Y1597807D01*
X2334945Y1585642D02*
Y1597807D01*
X2334965Y1585642D02*
Y1597807D01*
X2334984Y1585642D02*
Y1597807D01*
X2335004Y1585642D02*
Y1597807D01*
X2335024Y1585642D02*
Y1597807D01*
X2335043Y1585642D02*
Y1597807D01*
X2335063Y1585642D02*
Y1597807D01*
X2335083Y1585642D02*
Y1597807D01*
X2335102Y1585642D02*
Y1597807D01*
X2335122Y1585642D02*
Y1597807D01*
X2335142Y1585642D02*
Y1597807D01*
X2335161Y1585642D02*
Y1597807D01*
X2335181Y1585642D02*
Y1597807D01*
X2335201Y1585642D02*
Y1597807D01*
X2335220Y1585642D02*
Y1597807D01*
X2335240Y1585642D02*
Y1597807D01*
X2335260Y1585642D02*
Y1597807D01*
X2335280Y1585642D02*
Y1597807D01*
X2335299Y1585642D02*
Y1597807D01*
X2335319Y1585642D02*
Y1597807D01*
X2335339Y1585642D02*
Y1597807D01*
X2335358Y1585642D02*
Y1597807D01*
X2335378Y1585642D02*
Y1597807D01*
X2335398Y1585642D02*
Y1597807D01*
X2335417Y1585642D02*
Y1597807D01*
X2335437Y1585642D02*
Y1597807D01*
X2335457Y1585642D02*
Y1597807D01*
X2335476Y1585642D02*
Y1597807D01*
X2335496Y1585642D02*
Y1597807D01*
X2335516Y1585642D02*
Y1597807D01*
X2335535Y1585642D02*
Y1597807D01*
X2335555Y1585642D02*
Y1597807D01*
X2335575Y1585642D02*
Y1597807D01*
X2335594Y1585642D02*
Y1597807D01*
X2335614Y1585642D02*
Y1597807D01*
X2335634Y1585642D02*
Y1597807D01*
X2335654Y1585642D02*
Y1597807D01*
X2335673Y1585642D02*
Y1597807D01*
X2335693Y1585642D02*
Y1597807D01*
X2335713Y1585642D02*
Y1597807D01*
X2335732Y1585642D02*
Y1597807D01*
X2335752Y1585642D02*
Y1597807D01*
X2335772Y1585642D02*
Y1597807D01*
X2335791Y1585642D02*
Y1597807D01*
X2335811Y1585642D02*
Y1597807D01*
X2335831Y1585642D02*
Y1597807D01*
X2335850Y1585642D02*
Y1597807D01*
X2335870Y1585642D02*
Y1597807D01*
X2335890Y1585642D02*
Y1597807D01*
X2335909Y1585642D02*
Y1597807D01*
X2335929Y1585642D02*
Y1597807D01*
X2335949Y1585642D02*
Y1597807D01*
X2335969Y1585642D02*
Y1597807D01*
X2335988Y1585642D02*
Y1597807D01*
X2336008Y1585642D02*
Y1597807D01*
X2336028Y1585642D02*
Y1597807D01*
X2336047Y1585642D02*
Y1597807D01*
X2336067Y1585642D02*
Y1597807D01*
X2336087Y1585642D02*
Y1597807D01*
X2336106Y1585642D02*
Y1597807D01*
X2336126Y1585642D02*
Y1597807D01*
X2336146Y1585642D02*
Y1597807D01*
X2336165Y1585642D02*
Y1597807D01*
X2336185Y1585642D02*
Y1597807D01*
X2336205Y1585642D02*
Y1597807D01*
X2336224Y1585642D02*
Y1597807D01*
X2336244Y1585642D02*
Y1597807D01*
X2336264Y1585642D02*
Y1597807D01*
X2336283Y1585642D02*
Y1597807D01*
X2336303Y1585642D02*
Y1597807D01*
X2336323Y1585642D02*
Y1597807D01*
X2336343Y1585642D02*
Y1597807D01*
X2336362Y1585642D02*
Y1597807D01*
X2336382Y1585642D02*
Y1597807D01*
X2336402Y1585642D02*
Y1597807D01*
X2336421Y1585642D02*
Y1597807D01*
X2336441Y1585642D02*
Y1597807D01*
X2336461Y1585642D02*
Y1597807D01*
X2336480Y1585642D02*
Y1597807D01*
X2336500Y1585642D02*
Y1597807D01*
X2336520Y1585642D02*
Y1597807D01*
X2336539Y1585642D02*
Y1597807D01*
X2336559Y1585642D02*
Y1597807D01*
X2336579Y1585642D02*
Y1597807D01*
X2336598Y1585642D02*
Y1597807D01*
X2336618Y1585642D02*
Y1597807D01*
X2336638Y1585642D02*
Y1597807D01*
X2336657Y1585642D02*
Y1597807D01*
X2336677Y1585642D02*
Y1597807D01*
X2336697Y1585642D02*
Y1597807D01*
X2336717Y1585642D02*
Y1597807D01*
X2336736Y1585642D02*
Y1597807D01*
X2336756Y1585642D02*
Y1597807D01*
X2336776Y1585642D02*
Y1597807D01*
X2336795Y1585642D02*
Y1597807D01*
X2336815Y1585642D02*
Y1597807D01*
X2336835Y1585642D02*
Y1597807D01*
X2336854Y1585642D02*
Y1597807D01*
X2336874Y1585642D02*
Y1597807D01*
X2336894Y1585642D02*
Y1597807D01*
X2336913Y1585642D02*
Y1597807D01*
X2336933Y1585642D02*
Y1597807D01*
X2336953Y1585642D02*
Y1597807D01*
X2336972Y1585642D02*
Y1597807D01*
X2336992Y1585642D02*
Y1597807D01*
X2337012Y1585642D02*
Y1597807D01*
X2337031Y1585642D02*
Y1597807D01*
X2337051Y1585642D02*
Y1597807D01*
X2337071Y1585642D02*
Y1597807D01*
X2337091Y1585642D02*
Y1597807D01*
X2337110Y1585642D02*
Y1597807D01*
X2337130Y1585642D02*
Y1597807D01*
X2337150Y1585642D02*
Y1597807D01*
X2337169Y1585642D02*
Y1597807D01*
X2337189Y1585642D02*
Y1597807D01*
X2337209Y1585642D02*
Y1597807D01*
X2337228Y1585642D02*
Y1597807D01*
X2337248Y1585642D02*
Y1597807D01*
X2337268Y1585642D02*
Y1597807D01*
X2337287Y1585642D02*
Y1597807D01*
X2337307Y1585642D02*
Y1597807D01*
X2337327Y1585642D02*
Y1597807D01*
X2337346Y1585642D02*
Y1597807D01*
X2337366Y1585642D02*
Y1597807D01*
X2337386Y1585642D02*
Y1597807D01*
X2337406Y1585642D02*
Y1597807D01*
X2337425Y1585642D02*
Y1597807D01*
X2337445Y1585642D02*
Y1597807D01*
X2337465Y1585642D02*
Y1597807D01*
X2337484Y1585642D02*
Y1597807D01*
X2337504Y1585642D02*
Y1597807D01*
X2337524Y1585642D02*
Y1597807D01*
X2337543Y1585642D02*
Y1597807D01*
X2337563Y1585642D02*
Y1597807D01*
X2337583Y1585642D02*
Y1597807D01*
X2337602Y1585642D02*
Y1597807D01*
X2337622Y1585642D02*
Y1597807D01*
X2337642Y1585642D02*
Y1597807D01*
X2337661Y1585642D02*
Y1597807D01*
X2337681Y1585642D02*
Y1597807D01*
X2337701Y1585642D02*
Y1597807D01*
X2337720Y1585642D02*
Y1597807D01*
X2337740Y1585642D02*
Y1597807D01*
X2337760Y1585642D02*
Y1597807D01*
X2337780Y1585642D02*
Y1597807D01*
X2337799Y1585642D02*
Y1597807D01*
X2337819Y1585642D02*
Y1597807D01*
X2337839Y1585642D02*
Y1597807D01*
X2337858Y1585642D02*
Y1597807D01*
X2337878Y1585642D02*
Y1597807D01*
X2337898Y1585642D02*
Y1597807D01*
X2337917Y1585642D02*
Y1597807D01*
X2337937Y1585642D02*
Y1597807D01*
X2337957Y1585642D02*
Y1597807D01*
X2337976Y1585642D02*
Y1597807D01*
X2337996Y1585642D02*
Y1597807D01*
X2338016Y1585642D02*
Y1597807D01*
X2338035Y1585642D02*
Y1597807D01*
X2338055Y1585650D02*
Y1597807D01*
X2338075Y1585670D02*
Y1597807D01*
X2338094Y1585689D02*
Y1597807D01*
X2338114Y1585709D02*
Y1597807D01*
X2338134Y1585729D02*
Y1597807D01*
X2338154Y1585748D02*
Y1597807D01*
X2338173Y1585768D02*
Y1597807D01*
X2338193Y1585788D02*
Y1597807D01*
X2338213Y1585807D02*
Y1597807D01*
X2338232Y1585827D02*
Y1597807D01*
X2338252Y1585847D02*
Y1597807D01*
X2338272Y1585866D02*
Y1597807D01*
X2338291Y1585886D02*
Y1597807D01*
X2338311Y1585906D02*
Y1597807D01*
X2338331Y1585925D02*
Y1597807D01*
X2338350Y1585945D02*
Y1597807D01*
X2338370Y1585965D02*
Y1597807D01*
X2338390Y1585985D02*
Y1597807D01*
X2338409Y1586004D02*
Y1597807D01*
X2338429Y1586024D02*
Y1597807D01*
X2338449Y1586044D02*
Y1597807D01*
X2338469Y1586063D02*
Y1597807D01*
X2338488Y1586083D02*
Y1597807D01*
X2338508Y1586103D02*
Y1597807D01*
X2338528Y1586122D02*
Y1597807D01*
X2338547Y1586142D02*
Y1597807D01*
X2338567Y1586162D02*
Y1597807D01*
X2338587Y1586181D02*
Y1597807D01*
X2338606Y1586201D02*
Y1597807D01*
X2338626Y1586221D02*
Y1597807D01*
X2338646Y1586240D02*
Y1597807D01*
X2338665Y1586260D02*
Y1597807D01*
X2338685Y1586280D02*
Y1597807D01*
X2338705Y1586299D02*
Y1597807D01*
X2338724Y1586319D02*
Y1597807D01*
X2338744Y1586339D02*
Y1597807D01*
X2338764Y1586359D02*
Y1597807D01*
X2338783Y1586378D02*
Y1597807D01*
X2338803Y1586398D02*
Y1597807D01*
X2338823Y1586418D02*
Y1597807D01*
X2338843Y1586437D02*
Y1597807D01*
X2338862Y1586457D02*
Y1597807D01*
X2338882Y1586477D02*
Y1597807D01*
X2338902Y1586496D02*
Y1597807D01*
X2338921Y1586516D02*
Y1597807D01*
X2338941Y1586536D02*
Y1597807D01*
X2338961Y1586555D02*
Y1597807D01*
X2338980Y1586575D02*
Y1597807D01*
X2339000Y1586595D02*
Y1597807D01*
X2339020Y1586614D02*
Y1597807D01*
X2339039Y1586634D02*
Y1597807D01*
X2339059Y1586654D02*
Y1597807D01*
X2339079Y1586674D02*
Y1597807D01*
X2339098Y1586693D02*
Y1597807D01*
X2339118Y1586713D02*
Y1597807D01*
X2339138Y1586733D02*
Y1597807D01*
X2339157Y1586752D02*
Y1597807D01*
X2339177Y1586772D02*
Y1597807D01*
X2339197Y1586792D02*
Y1597807D01*
X2339217Y1586811D02*
Y1597807D01*
X2339236Y1586831D02*
Y1597807D01*
X2339256Y1586851D02*
Y1597807D01*
X2339276Y1586870D02*
Y1597807D01*
X2339295Y1586890D02*
Y1597807D01*
X2339315Y1586910D02*
Y1597807D01*
X2339335Y1586929D02*
Y1597807D01*
X2339354Y1586949D02*
Y1597807D01*
X2339374Y1586969D02*
Y1597807D01*
X2339394Y1586988D02*
Y1597807D01*
X2252217Y1529642D02*
X2261047D01*
X2262413Y1531008*
Y1541807*
X2252217*
Y1529642*
Y1541807*
X2252236Y1529642D02*
Y1541807D01*
X2252256Y1529642D02*
Y1541807D01*
X2252276Y1529642D02*
Y1541807D01*
X2252295Y1529642D02*
Y1541807D01*
X2252315Y1529642D02*
Y1541807D01*
X2252335Y1529642D02*
Y1541807D01*
X2252354Y1529642D02*
Y1541807D01*
X2252374Y1529642D02*
Y1541807D01*
X2252394Y1529642D02*
Y1541807D01*
X2252413Y1529642D02*
Y1541807D01*
X2252433Y1529642D02*
Y1541807D01*
X2252453Y1529642D02*
Y1541807D01*
X2252472Y1529642D02*
Y1541807D01*
X2252492Y1529642D02*
Y1541807D01*
X2252512Y1529642D02*
Y1541807D01*
X2252531Y1529642D02*
Y1541807D01*
X2252551Y1529642D02*
Y1541807D01*
X2252571Y1529642D02*
Y1541807D01*
X2252591Y1529642D02*
Y1541807D01*
X2252610Y1529642D02*
Y1541807D01*
X2252630Y1529642D02*
Y1541807D01*
X2252650Y1529642D02*
Y1541807D01*
X2252669Y1529642D02*
Y1541807D01*
X2252689Y1529642D02*
Y1541807D01*
X2252709Y1529642D02*
Y1541807D01*
X2252728Y1529642D02*
Y1541807D01*
X2252748Y1529642D02*
Y1541807D01*
X2252768Y1529642D02*
Y1541807D01*
X2252787Y1529642D02*
Y1541807D01*
X2252807Y1529642D02*
Y1541807D01*
X2252827Y1529642D02*
Y1541807D01*
X2252846Y1529642D02*
Y1541807D01*
X2252866Y1529642D02*
Y1541807D01*
X2252886Y1529642D02*
Y1541807D01*
X2252906Y1529642D02*
Y1541807D01*
X2252925Y1529642D02*
Y1541807D01*
X2252945Y1529642D02*
Y1541807D01*
X2252965Y1529642D02*
Y1541807D01*
X2252984Y1529642D02*
Y1541807D01*
X2253004Y1529642D02*
Y1541807D01*
X2253024Y1529642D02*
Y1541807D01*
X2253043Y1529642D02*
Y1541807D01*
X2253063Y1529642D02*
Y1541807D01*
X2253083Y1529642D02*
Y1541807D01*
X2253102Y1529642D02*
Y1541807D01*
X2253122Y1529642D02*
Y1541807D01*
X2253142Y1529642D02*
Y1541807D01*
X2253161Y1529642D02*
Y1541807D01*
X2253181Y1529642D02*
Y1541807D01*
X2253201Y1529642D02*
Y1541807D01*
X2253220Y1529642D02*
Y1541807D01*
X2253240Y1529642D02*
Y1541807D01*
X2253260Y1529642D02*
Y1541807D01*
X2253280Y1529642D02*
Y1541807D01*
X2253299Y1529642D02*
Y1541807D01*
X2253319Y1529642D02*
Y1541807D01*
X2253339Y1529642D02*
Y1541807D01*
X2253358Y1529642D02*
Y1541807D01*
X2253378Y1529642D02*
Y1541807D01*
X2253398Y1529642D02*
Y1541807D01*
X2253417Y1529642D02*
Y1541807D01*
X2253437Y1529642D02*
Y1541807D01*
X2253457Y1529642D02*
Y1541807D01*
X2253476Y1529642D02*
Y1541807D01*
X2253496Y1529642D02*
Y1541807D01*
X2253516Y1529642D02*
Y1541807D01*
X2253535Y1529642D02*
Y1541807D01*
X2253555Y1529642D02*
Y1541807D01*
X2253575Y1529642D02*
Y1541807D01*
X2253594Y1529642D02*
Y1541807D01*
X2253614Y1529642D02*
Y1541807D01*
X2253634Y1529642D02*
Y1541807D01*
X2253654Y1529642D02*
Y1541807D01*
X2253673Y1529642D02*
Y1541807D01*
X2253693Y1529642D02*
Y1541807D01*
X2253713Y1529642D02*
Y1541807D01*
X2253732Y1529642D02*
Y1541807D01*
X2253752Y1529642D02*
Y1541807D01*
X2253772Y1529642D02*
Y1541807D01*
X2253791Y1529642D02*
Y1541807D01*
X2253811Y1529642D02*
Y1541807D01*
X2253831Y1529642D02*
Y1541807D01*
X2253850Y1529642D02*
Y1541807D01*
X2253870Y1529642D02*
Y1541807D01*
X2253890Y1529642D02*
Y1541807D01*
X2253909Y1529642D02*
Y1541807D01*
X2253929Y1529642D02*
Y1541807D01*
X2253949Y1529642D02*
Y1541807D01*
X2253969Y1529642D02*
Y1541807D01*
X2253988Y1529642D02*
Y1541807D01*
X2254008Y1529642D02*
Y1541807D01*
X2254028Y1529642D02*
Y1541807D01*
X2254047Y1529642D02*
Y1541807D01*
X2254067Y1529642D02*
Y1541807D01*
X2254087Y1529642D02*
Y1541807D01*
X2254106Y1529642D02*
Y1541807D01*
X2254126Y1529642D02*
Y1541807D01*
X2254146Y1529642D02*
Y1541807D01*
X2254165Y1529642D02*
Y1541807D01*
X2254185Y1529642D02*
Y1541807D01*
X2254205Y1529642D02*
Y1541807D01*
X2254224Y1529642D02*
Y1541807D01*
X2254244Y1529642D02*
Y1541807D01*
X2254264Y1529642D02*
Y1541807D01*
X2254283Y1529642D02*
Y1541807D01*
X2254303Y1529642D02*
Y1541807D01*
X2254323Y1529642D02*
Y1541807D01*
X2254343Y1529642D02*
Y1541807D01*
X2254362Y1529642D02*
Y1541807D01*
X2254382Y1529642D02*
Y1541807D01*
X2254402Y1529642D02*
Y1541807D01*
X2254421Y1529642D02*
Y1541807D01*
X2254441Y1529642D02*
Y1541807D01*
X2254461Y1529642D02*
Y1541807D01*
X2254480Y1529642D02*
Y1541807D01*
X2254500Y1529642D02*
Y1541807D01*
X2254520Y1529642D02*
Y1541807D01*
X2254539Y1529642D02*
Y1541807D01*
X2254559Y1529642D02*
Y1541807D01*
X2254579Y1529642D02*
Y1541807D01*
X2254598Y1529642D02*
Y1541807D01*
X2254618Y1529642D02*
Y1541807D01*
X2254638Y1529642D02*
Y1541807D01*
X2254657Y1529642D02*
Y1541807D01*
X2254677Y1529642D02*
Y1541807D01*
X2254697Y1529642D02*
Y1541807D01*
X2254717Y1529642D02*
Y1541807D01*
X2254736Y1529642D02*
Y1541807D01*
X2254756Y1529642D02*
Y1541807D01*
X2254776Y1529642D02*
Y1541807D01*
X2254795Y1529642D02*
Y1541807D01*
X2254815Y1529642D02*
Y1541807D01*
X2254835Y1529642D02*
Y1541807D01*
X2254854Y1529642D02*
Y1541807D01*
X2254874Y1529642D02*
Y1541807D01*
X2254894Y1529642D02*
Y1541807D01*
X2254913Y1529642D02*
Y1541807D01*
X2254933Y1529642D02*
Y1541807D01*
X2254953Y1529642D02*
Y1541807D01*
X2254972Y1529642D02*
Y1541807D01*
X2254992Y1529642D02*
Y1541807D01*
X2255012Y1529642D02*
Y1541807D01*
X2255031Y1529642D02*
Y1541807D01*
X2255051Y1529642D02*
Y1541807D01*
X2255071Y1529642D02*
Y1541807D01*
X2255091Y1529642D02*
Y1541807D01*
X2255110Y1529642D02*
Y1541807D01*
X2255130Y1529642D02*
Y1541807D01*
X2255150Y1529642D02*
Y1541807D01*
X2255169Y1529642D02*
Y1541807D01*
X2255189Y1529642D02*
Y1541807D01*
X2255209Y1529642D02*
Y1541807D01*
X2255228Y1529642D02*
Y1541807D01*
X2255248Y1529642D02*
Y1541807D01*
X2255268Y1529642D02*
Y1541807D01*
X2255287Y1529642D02*
Y1541807D01*
X2255307Y1529642D02*
Y1541807D01*
X2255327Y1529642D02*
Y1541807D01*
X2255346Y1529642D02*
Y1541807D01*
X2255366Y1529642D02*
Y1541807D01*
X2255386Y1529642D02*
Y1541807D01*
X2255406Y1529642D02*
Y1541807D01*
X2255425Y1529642D02*
Y1541807D01*
X2255445Y1529642D02*
Y1541807D01*
X2255465Y1529642D02*
Y1541807D01*
X2255484Y1529642D02*
Y1541807D01*
X2255504Y1529642D02*
Y1541807D01*
X2255524Y1529642D02*
Y1541807D01*
X2255543Y1529642D02*
Y1541807D01*
X2255563Y1529642D02*
Y1541807D01*
X2255583Y1529642D02*
Y1541807D01*
X2255602Y1529642D02*
Y1541807D01*
X2255622Y1529642D02*
Y1541807D01*
X2255642Y1529642D02*
Y1541807D01*
X2255661Y1529642D02*
Y1541807D01*
X2255681Y1529642D02*
Y1541807D01*
X2255701Y1529642D02*
Y1541807D01*
X2255720Y1529642D02*
Y1541807D01*
X2255740Y1529642D02*
Y1541807D01*
X2255760Y1529642D02*
Y1541807D01*
X2255780Y1529642D02*
Y1541807D01*
X2255799Y1529642D02*
Y1541807D01*
X2255819Y1529642D02*
Y1541807D01*
X2255839Y1529642D02*
Y1541807D01*
X2255858Y1529642D02*
Y1541807D01*
X2255878Y1529642D02*
Y1541807D01*
X2255898Y1529642D02*
Y1541807D01*
X2255917Y1529642D02*
Y1541807D01*
X2255937Y1529642D02*
Y1541807D01*
X2255957Y1529642D02*
Y1541807D01*
X2255976Y1529642D02*
Y1541807D01*
X2255996Y1529642D02*
Y1541807D01*
X2256016Y1529642D02*
Y1541807D01*
X2256035Y1529642D02*
Y1541807D01*
X2256055Y1529642D02*
Y1541807D01*
X2256075Y1529642D02*
Y1541807D01*
X2256094Y1529642D02*
Y1541807D01*
X2256114Y1529642D02*
Y1541807D01*
X2256134Y1529642D02*
Y1541807D01*
X2256154Y1529642D02*
Y1541807D01*
X2256173Y1529642D02*
Y1541807D01*
X2256193Y1529642D02*
Y1541807D01*
X2256213Y1529642D02*
Y1541807D01*
X2256232Y1529642D02*
Y1541807D01*
X2256252Y1529642D02*
Y1541807D01*
X2256272Y1529642D02*
Y1541807D01*
X2256291Y1529642D02*
Y1541807D01*
X2256311Y1529642D02*
Y1541807D01*
X2256331Y1529642D02*
Y1541807D01*
X2256350Y1529642D02*
Y1541807D01*
X2256370Y1529642D02*
Y1541807D01*
X2256390Y1529642D02*
Y1541807D01*
X2256409Y1529642D02*
Y1541807D01*
X2256429Y1529642D02*
Y1541807D01*
X2256449Y1529642D02*
Y1541807D01*
X2256469Y1529642D02*
Y1541807D01*
X2256488Y1529642D02*
Y1541807D01*
X2256508Y1529642D02*
Y1541807D01*
X2256528Y1529642D02*
Y1541807D01*
X2256547Y1529642D02*
Y1541807D01*
X2256567Y1529642D02*
Y1541807D01*
X2256587Y1529642D02*
Y1541807D01*
X2256606Y1529642D02*
Y1541807D01*
X2256626Y1529642D02*
Y1541807D01*
X2256646Y1529642D02*
Y1541807D01*
X2256665Y1529642D02*
Y1541807D01*
X2256685Y1529642D02*
Y1541807D01*
X2256705Y1529642D02*
Y1541807D01*
X2256724Y1529642D02*
Y1541807D01*
X2256744Y1529642D02*
Y1541807D01*
X2256764Y1529642D02*
Y1541807D01*
X2256783Y1529642D02*
Y1541807D01*
X2256803Y1529642D02*
Y1541807D01*
X2256823Y1529642D02*
Y1541807D01*
X2256843Y1529642D02*
Y1541807D01*
X2256862Y1529642D02*
Y1541807D01*
X2256882Y1529642D02*
Y1541807D01*
X2256902Y1529642D02*
Y1541807D01*
X2256921Y1529642D02*
Y1541807D01*
X2256941Y1529642D02*
Y1541807D01*
X2256961Y1529642D02*
Y1541807D01*
X2256980Y1529642D02*
Y1541807D01*
X2257000Y1529642D02*
Y1541807D01*
X2257020Y1529642D02*
Y1541807D01*
X2257039Y1529642D02*
Y1541807D01*
X2257059Y1529642D02*
Y1541807D01*
X2257079Y1529642D02*
Y1541807D01*
X2257098Y1529642D02*
Y1541807D01*
X2257118Y1529642D02*
Y1541807D01*
X2257138Y1529642D02*
Y1541807D01*
X2257157Y1529642D02*
Y1541807D01*
X2257177Y1529642D02*
Y1541807D01*
X2257197Y1529642D02*
Y1541807D01*
X2257217Y1529642D02*
Y1541807D01*
X2257236Y1529642D02*
Y1541807D01*
X2257256Y1529642D02*
Y1541807D01*
X2257276Y1529642D02*
Y1541807D01*
X2257295Y1529642D02*
Y1541807D01*
X2257315Y1529642D02*
Y1541807D01*
X2257335Y1529642D02*
Y1541807D01*
X2257354Y1529642D02*
Y1541807D01*
X2257374Y1529642D02*
Y1541807D01*
X2257394Y1529642D02*
Y1541807D01*
X2257413Y1529642D02*
Y1541807D01*
X2257433Y1529642D02*
Y1541807D01*
X2257453Y1529642D02*
Y1541807D01*
X2257472Y1529642D02*
Y1541807D01*
X2257492Y1529642D02*
Y1541807D01*
X2257512Y1529642D02*
Y1541807D01*
X2257531Y1529642D02*
Y1541807D01*
X2257551Y1529642D02*
Y1541807D01*
X2257571Y1529642D02*
Y1541807D01*
X2257591Y1529642D02*
Y1541807D01*
X2257610Y1529642D02*
Y1541807D01*
X2257630Y1529642D02*
Y1541807D01*
X2257650Y1529642D02*
Y1541807D01*
X2257669Y1529642D02*
Y1541807D01*
X2257689Y1529642D02*
Y1541807D01*
X2257709Y1529642D02*
Y1541807D01*
X2257728Y1529642D02*
Y1541807D01*
X2257748Y1529642D02*
Y1541807D01*
X2257768Y1529642D02*
Y1541807D01*
X2257787Y1529642D02*
Y1541807D01*
X2257807Y1529642D02*
Y1541807D01*
X2257827Y1529642D02*
Y1541807D01*
X2257846Y1529642D02*
Y1541807D01*
X2257866Y1529642D02*
Y1541807D01*
X2257886Y1529642D02*
Y1541807D01*
X2257906Y1529642D02*
Y1541807D01*
X2257925Y1529642D02*
Y1541807D01*
X2257945Y1529642D02*
Y1541807D01*
X2257965Y1529642D02*
Y1541807D01*
X2257984Y1529642D02*
Y1541807D01*
X2258004Y1529642D02*
Y1541807D01*
X2258024Y1529642D02*
Y1541807D01*
X2258043Y1529642D02*
Y1541807D01*
X2258063Y1529642D02*
Y1541807D01*
X2258083Y1529642D02*
Y1541807D01*
X2258102Y1529642D02*
Y1541807D01*
X2258122Y1529642D02*
Y1541807D01*
X2258142Y1529642D02*
Y1541807D01*
X2258161Y1529642D02*
Y1541807D01*
X2258181Y1529642D02*
Y1541807D01*
X2258201Y1529642D02*
Y1541807D01*
X2258220Y1529642D02*
Y1541807D01*
X2258240Y1529642D02*
Y1541807D01*
X2258260Y1529642D02*
Y1541807D01*
X2258280Y1529642D02*
Y1541807D01*
X2258299Y1529642D02*
Y1541807D01*
X2258319Y1529642D02*
Y1541807D01*
X2258339Y1529642D02*
Y1541807D01*
X2258358Y1529642D02*
Y1541807D01*
X2258378Y1529642D02*
Y1541807D01*
X2258398Y1529642D02*
Y1541807D01*
X2258417Y1529642D02*
Y1541807D01*
X2258437Y1529642D02*
Y1541807D01*
X2258457Y1529642D02*
Y1541807D01*
X2258476Y1529642D02*
Y1541807D01*
X2258496Y1529642D02*
Y1541807D01*
X2258516Y1529642D02*
Y1541807D01*
X2258535Y1529642D02*
Y1541807D01*
X2258555Y1529642D02*
Y1541807D01*
X2258575Y1529642D02*
Y1541807D01*
X2258594Y1529642D02*
Y1541807D01*
X2258614Y1529642D02*
Y1541807D01*
X2258634Y1529642D02*
Y1541807D01*
X2258654Y1529642D02*
Y1541807D01*
X2258673Y1529642D02*
Y1541807D01*
X2258693Y1529642D02*
Y1541807D01*
X2258713Y1529642D02*
Y1541807D01*
X2258732Y1529642D02*
Y1541807D01*
X2258752Y1529642D02*
Y1541807D01*
X2258772Y1529642D02*
Y1541807D01*
X2258791Y1529642D02*
Y1541807D01*
X2258811Y1529642D02*
Y1541807D01*
X2258831Y1529642D02*
Y1541807D01*
X2258850Y1529642D02*
Y1541807D01*
X2258870Y1529642D02*
Y1541807D01*
X2258890Y1529642D02*
Y1541807D01*
X2258909Y1529642D02*
Y1541807D01*
X2258929Y1529642D02*
Y1541807D01*
X2258949Y1529642D02*
Y1541807D01*
X2258969Y1529642D02*
Y1541807D01*
X2258988Y1529642D02*
Y1541807D01*
X2259008Y1529642D02*
Y1541807D01*
X2259028Y1529642D02*
Y1541807D01*
X2259047Y1529642D02*
Y1541807D01*
X2259067Y1529642D02*
Y1541807D01*
X2259087Y1529642D02*
Y1541807D01*
X2259106Y1529642D02*
Y1541807D01*
X2259126Y1529642D02*
Y1541807D01*
X2259146Y1529642D02*
Y1541807D01*
X2259165Y1529642D02*
Y1541807D01*
X2259185Y1529642D02*
Y1541807D01*
X2259205Y1529642D02*
Y1541807D01*
X2259224Y1529642D02*
Y1541807D01*
X2259244Y1529642D02*
Y1541807D01*
X2259264Y1529642D02*
Y1541807D01*
X2259283Y1529642D02*
Y1541807D01*
X2259303Y1529642D02*
Y1541807D01*
X2259323Y1529642D02*
Y1541807D01*
X2259343Y1529642D02*
Y1541807D01*
X2259362Y1529642D02*
Y1541807D01*
X2259382Y1529642D02*
Y1541807D01*
X2259402Y1529642D02*
Y1541807D01*
X2259421Y1529642D02*
Y1541807D01*
X2259441Y1529642D02*
Y1541807D01*
X2259461Y1529642D02*
Y1541807D01*
X2259480Y1529642D02*
Y1541807D01*
X2259500Y1529642D02*
Y1541807D01*
X2259520Y1529642D02*
Y1541807D01*
X2259539Y1529642D02*
Y1541807D01*
X2259559Y1529642D02*
Y1541807D01*
X2259579Y1529642D02*
Y1541807D01*
X2259598Y1529642D02*
Y1541807D01*
X2259618Y1529642D02*
Y1541807D01*
X2259638Y1529642D02*
Y1541807D01*
X2259657Y1529642D02*
Y1541807D01*
X2259677Y1529642D02*
Y1541807D01*
X2259697Y1529642D02*
Y1541807D01*
X2259717Y1529642D02*
Y1541807D01*
X2259736Y1529642D02*
Y1541807D01*
X2259756Y1529642D02*
Y1541807D01*
X2259776Y1529642D02*
Y1541807D01*
X2259795Y1529642D02*
Y1541807D01*
X2259815Y1529642D02*
Y1541807D01*
X2259835Y1529642D02*
Y1541807D01*
X2259854Y1529642D02*
Y1541807D01*
X2259874Y1529642D02*
Y1541807D01*
X2259894Y1529642D02*
Y1541807D01*
X2259913Y1529642D02*
Y1541807D01*
X2259933Y1529642D02*
Y1541807D01*
X2259953Y1529642D02*
Y1541807D01*
X2259972Y1529642D02*
Y1541807D01*
X2259992Y1529642D02*
Y1541807D01*
X2260012Y1529642D02*
Y1541807D01*
X2260031Y1529642D02*
Y1541807D01*
X2260051Y1529642D02*
Y1541807D01*
X2260071Y1529642D02*
Y1541807D01*
X2260091Y1529642D02*
Y1541807D01*
X2260110Y1529642D02*
Y1541807D01*
X2260130Y1529642D02*
Y1541807D01*
X2260150Y1529642D02*
Y1541807D01*
X2260169Y1529642D02*
Y1541807D01*
X2260189Y1529642D02*
Y1541807D01*
X2260209Y1529642D02*
Y1541807D01*
X2260228Y1529642D02*
Y1541807D01*
X2260248Y1529642D02*
Y1541807D01*
X2260268Y1529642D02*
Y1541807D01*
X2260287Y1529642D02*
Y1541807D01*
X2260307Y1529642D02*
Y1541807D01*
X2260327Y1529642D02*
Y1541807D01*
X2260346Y1529642D02*
Y1541807D01*
X2260366Y1529642D02*
Y1541807D01*
X2260386Y1529642D02*
Y1541807D01*
X2260406Y1529642D02*
Y1541807D01*
X2260425Y1529642D02*
Y1541807D01*
X2260445Y1529642D02*
Y1541807D01*
X2260465Y1529642D02*
Y1541807D01*
X2260484Y1529642D02*
Y1541807D01*
X2260504Y1529642D02*
Y1541807D01*
X2260524Y1529642D02*
Y1541807D01*
X2260543Y1529642D02*
Y1541807D01*
X2260563Y1529642D02*
Y1541807D01*
X2260583Y1529642D02*
Y1541807D01*
X2260602Y1529642D02*
Y1541807D01*
X2260622Y1529642D02*
Y1541807D01*
X2260642Y1529642D02*
Y1541807D01*
X2260661Y1529642D02*
Y1541807D01*
X2260681Y1529642D02*
Y1541807D01*
X2260701Y1529642D02*
Y1541807D01*
X2260720Y1529642D02*
Y1541807D01*
X2260740Y1529642D02*
Y1541807D01*
X2260760Y1529642D02*
Y1541807D01*
X2260780Y1529642D02*
Y1541807D01*
X2260799Y1529642D02*
Y1541807D01*
X2260819Y1529642D02*
Y1541807D01*
X2260839Y1529642D02*
Y1541807D01*
X2260858Y1529642D02*
Y1541807D01*
X2260878Y1529642D02*
Y1541807D01*
X2260898Y1529642D02*
Y1541807D01*
X2260917Y1529642D02*
Y1541807D01*
X2260937Y1529642D02*
Y1541807D01*
X2260957Y1529642D02*
Y1541807D01*
X2260976Y1529642D02*
Y1541807D01*
X2260996Y1529642D02*
Y1541807D01*
X2261016Y1529642D02*
Y1541807D01*
X2261035Y1529642D02*
Y1541807D01*
X2261055Y1529650D02*
Y1541807D01*
X2261075Y1529670D02*
Y1541807D01*
X2261094Y1529689D02*
Y1541807D01*
X2261114Y1529709D02*
Y1541807D01*
X2261134Y1529729D02*
Y1541807D01*
X2261154Y1529748D02*
Y1541807D01*
X2261173Y1529768D02*
Y1541807D01*
X2261193Y1529788D02*
Y1541807D01*
X2261213Y1529807D02*
Y1541807D01*
X2261232Y1529827D02*
Y1541807D01*
X2261252Y1529847D02*
Y1541807D01*
X2261272Y1529866D02*
Y1541807D01*
X2261291Y1529886D02*
Y1541807D01*
X2261311Y1529906D02*
Y1541807D01*
X2261331Y1529925D02*
Y1541807D01*
X2261350Y1529945D02*
Y1541807D01*
X2261370Y1529965D02*
Y1541807D01*
X2261390Y1529985D02*
Y1541807D01*
X2261409Y1530004D02*
Y1541807D01*
X2261429Y1530024D02*
Y1541807D01*
X2261449Y1530044D02*
Y1541807D01*
X2261469Y1530063D02*
Y1541807D01*
X2261488Y1530083D02*
Y1541807D01*
X2261508Y1530103D02*
Y1541807D01*
X2261528Y1530122D02*
Y1541807D01*
X2261547Y1530142D02*
Y1541807D01*
X2261567Y1530162D02*
Y1541807D01*
X2261587Y1530181D02*
Y1541807D01*
X2261606Y1530201D02*
Y1541807D01*
X2261626Y1530221D02*
Y1541807D01*
X2261646Y1530240D02*
Y1541807D01*
X2261665Y1530260D02*
Y1541807D01*
X2261685Y1530280D02*
Y1541807D01*
X2261705Y1530299D02*
Y1541807D01*
X2261724Y1530319D02*
Y1541807D01*
X2261744Y1530339D02*
Y1541807D01*
X2261764Y1530359D02*
Y1541807D01*
X2261783Y1530378D02*
Y1541807D01*
X2261803Y1530398D02*
Y1541807D01*
X2261823Y1530418D02*
Y1541807D01*
X2261843Y1530437D02*
Y1541807D01*
X2261862Y1530457D02*
Y1541807D01*
X2261882Y1530477D02*
Y1541807D01*
X2261902Y1530496D02*
Y1541807D01*
X2261921Y1530516D02*
Y1541807D01*
X2261941Y1530536D02*
Y1541807D01*
X2261961Y1530555D02*
Y1541807D01*
X2261980Y1530575D02*
Y1541807D01*
X2262000Y1530595D02*
Y1541807D01*
X2262020Y1530614D02*
Y1541807D01*
X2262039Y1530634D02*
Y1541807D01*
X2262059Y1530654D02*
Y1541807D01*
X2262079Y1530674D02*
Y1541807D01*
X2262098Y1530693D02*
Y1541807D01*
X2262118Y1530713D02*
Y1541807D01*
X2262138Y1530733D02*
Y1541807D01*
X2262157Y1530752D02*
Y1541807D01*
X2262177Y1530772D02*
Y1541807D01*
X2262197Y1530792D02*
Y1541807D01*
X2262217Y1530811D02*
Y1541807D01*
X2262236Y1530831D02*
Y1541807D01*
X2262256Y1530851D02*
Y1541807D01*
X2262276Y1530870D02*
Y1541807D01*
X2262295Y1530890D02*
Y1541807D01*
X2262315Y1530910D02*
Y1541807D01*
X2262335Y1530929D02*
Y1541807D01*
X2262354Y1530949D02*
Y1541807D01*
X2262374Y1530969D02*
Y1541807D01*
X2262394Y1530988D02*
Y1541807D01*
X2462217Y1704642D02*
X2471047D01*
X2472413Y1706008*
Y1716807*
X2462217*
Y1704642*
Y1716807*
X2462236Y1704642D02*
Y1716807D01*
X2462256Y1704642D02*
Y1716807D01*
X2462276Y1704642D02*
Y1716807D01*
X2462295Y1704642D02*
Y1716807D01*
X2462315Y1704642D02*
Y1716807D01*
X2462335Y1704642D02*
Y1716807D01*
X2462354Y1704642D02*
Y1716807D01*
X2462374Y1704642D02*
Y1716807D01*
X2462394Y1704642D02*
Y1716807D01*
X2462413Y1704642D02*
Y1716807D01*
X2462433Y1704642D02*
Y1716807D01*
X2462453Y1704642D02*
Y1716807D01*
X2462472Y1704642D02*
Y1716807D01*
X2462492Y1704642D02*
Y1716807D01*
X2462512Y1704642D02*
Y1716807D01*
X2462531Y1704642D02*
Y1716807D01*
X2462551Y1704642D02*
Y1716807D01*
X2462571Y1704642D02*
Y1716807D01*
X2462591Y1704642D02*
Y1716807D01*
X2462610Y1704642D02*
Y1716807D01*
X2462630Y1704642D02*
Y1716807D01*
X2462650Y1704642D02*
Y1716807D01*
X2462669Y1704642D02*
Y1716807D01*
X2462689Y1704642D02*
Y1716807D01*
X2462709Y1704642D02*
Y1716807D01*
X2462728Y1704642D02*
Y1716807D01*
X2462748Y1704642D02*
Y1716807D01*
X2462768Y1704642D02*
Y1716807D01*
X2462787Y1704642D02*
Y1716807D01*
X2462807Y1704642D02*
Y1716807D01*
X2462827Y1704642D02*
Y1716807D01*
X2462846Y1704642D02*
Y1716807D01*
X2462866Y1704642D02*
Y1716807D01*
X2462886Y1704642D02*
Y1716807D01*
X2462906Y1704642D02*
Y1716807D01*
X2462925Y1704642D02*
Y1716807D01*
X2462945Y1704642D02*
Y1716807D01*
X2462965Y1704642D02*
Y1716807D01*
X2462984Y1704642D02*
Y1716807D01*
X2463004Y1704642D02*
Y1716807D01*
X2463024Y1704642D02*
Y1716807D01*
X2463043Y1704642D02*
Y1716807D01*
X2463063Y1704642D02*
Y1716807D01*
X2463083Y1704642D02*
Y1716807D01*
X2463102Y1704642D02*
Y1716807D01*
X2463122Y1704642D02*
Y1716807D01*
X2463142Y1704642D02*
Y1716807D01*
X2463161Y1704642D02*
Y1716807D01*
X2463181Y1704642D02*
Y1716807D01*
X2463201Y1704642D02*
Y1716807D01*
X2463220Y1704642D02*
Y1716807D01*
X2463240Y1704642D02*
Y1716807D01*
X2463260Y1704642D02*
Y1716807D01*
X2463280Y1704642D02*
Y1716807D01*
X2463299Y1704642D02*
Y1716807D01*
X2463319Y1704642D02*
Y1716807D01*
X2463339Y1704642D02*
Y1716807D01*
X2463358Y1704642D02*
Y1716807D01*
X2463378Y1704642D02*
Y1716807D01*
X2463398Y1704642D02*
Y1716807D01*
X2463417Y1704642D02*
Y1716807D01*
X2463437Y1704642D02*
Y1716807D01*
X2463457Y1704642D02*
Y1716807D01*
X2463476Y1704642D02*
Y1716807D01*
X2463496Y1704642D02*
Y1716807D01*
X2463516Y1704642D02*
Y1716807D01*
X2463535Y1704642D02*
Y1716807D01*
X2463555Y1704642D02*
Y1716807D01*
X2463575Y1704642D02*
Y1716807D01*
X2463594Y1704642D02*
Y1716807D01*
X2463614Y1704642D02*
Y1716807D01*
X2463634Y1704642D02*
Y1716807D01*
X2463654Y1704642D02*
Y1716807D01*
X2463673Y1704642D02*
Y1716807D01*
X2463693Y1704642D02*
Y1716807D01*
X2463713Y1704642D02*
Y1716807D01*
X2463732Y1704642D02*
Y1716807D01*
X2463752Y1704642D02*
Y1716807D01*
X2463772Y1704642D02*
Y1716807D01*
X2463791Y1704642D02*
Y1716807D01*
X2463811Y1704642D02*
Y1716807D01*
X2463831Y1704642D02*
Y1716807D01*
X2463850Y1704642D02*
Y1716807D01*
X2463870Y1704642D02*
Y1716807D01*
X2463890Y1704642D02*
Y1716807D01*
X2463909Y1704642D02*
Y1716807D01*
X2463929Y1704642D02*
Y1716807D01*
X2463949Y1704642D02*
Y1716807D01*
X2463969Y1704642D02*
Y1716807D01*
X2463988Y1704642D02*
Y1716807D01*
X2464008Y1704642D02*
Y1716807D01*
X2464028Y1704642D02*
Y1716807D01*
X2464047Y1704642D02*
Y1716807D01*
X2464067Y1704642D02*
Y1716807D01*
X2464087Y1704642D02*
Y1716807D01*
X2464106Y1704642D02*
Y1716807D01*
X2464126Y1704642D02*
Y1716807D01*
X2464146Y1704642D02*
Y1716807D01*
X2464165Y1704642D02*
Y1716807D01*
X2464185Y1704642D02*
Y1716807D01*
X2464205Y1704642D02*
Y1716807D01*
X2464224Y1704642D02*
Y1716807D01*
X2464244Y1704642D02*
Y1716807D01*
X2464264Y1704642D02*
Y1716807D01*
X2464283Y1704642D02*
Y1716807D01*
X2464303Y1704642D02*
Y1716807D01*
X2464323Y1704642D02*
Y1716807D01*
X2464343Y1704642D02*
Y1716807D01*
X2464362Y1704642D02*
Y1716807D01*
X2464382Y1704642D02*
Y1716807D01*
X2464402Y1704642D02*
Y1716807D01*
X2464421Y1704642D02*
Y1716807D01*
X2464441Y1704642D02*
Y1716807D01*
X2464461Y1704642D02*
Y1716807D01*
X2464480Y1704642D02*
Y1716807D01*
X2464500Y1704642D02*
Y1716807D01*
X2464520Y1704642D02*
Y1716807D01*
X2464539Y1704642D02*
Y1716807D01*
X2464559Y1704642D02*
Y1716807D01*
X2464579Y1704642D02*
Y1716807D01*
X2464598Y1704642D02*
Y1716807D01*
X2464618Y1704642D02*
Y1716807D01*
X2464638Y1704642D02*
Y1716807D01*
X2464657Y1704642D02*
Y1716807D01*
X2464677Y1704642D02*
Y1716807D01*
X2464697Y1704642D02*
Y1716807D01*
X2464717Y1704642D02*
Y1716807D01*
X2464736Y1704642D02*
Y1716807D01*
X2464756Y1704642D02*
Y1716807D01*
X2464776Y1704642D02*
Y1716807D01*
X2464795Y1704642D02*
Y1716807D01*
X2464815Y1704642D02*
Y1716807D01*
X2464835Y1704642D02*
Y1716807D01*
X2464854Y1704642D02*
Y1716807D01*
X2464874Y1704642D02*
Y1716807D01*
X2464894Y1704642D02*
Y1716807D01*
X2464913Y1704642D02*
Y1716807D01*
X2464933Y1704642D02*
Y1716807D01*
X2464953Y1704642D02*
Y1716807D01*
X2464972Y1704642D02*
Y1716807D01*
X2464992Y1704642D02*
Y1716807D01*
X2465012Y1704642D02*
Y1716807D01*
X2465031Y1704642D02*
Y1716807D01*
X2465051Y1704642D02*
Y1716807D01*
X2465071Y1704642D02*
Y1716807D01*
X2465091Y1704642D02*
Y1716807D01*
X2465110Y1704642D02*
Y1716807D01*
X2465130Y1704642D02*
Y1716807D01*
X2465150Y1704642D02*
Y1716807D01*
X2465169Y1704642D02*
Y1716807D01*
X2465189Y1704642D02*
Y1716807D01*
X2465209Y1704642D02*
Y1716807D01*
X2465228Y1704642D02*
Y1716807D01*
X2465248Y1704642D02*
Y1716807D01*
X2465268Y1704642D02*
Y1716807D01*
X2465287Y1704642D02*
Y1716807D01*
X2465307Y1704642D02*
Y1716807D01*
X2465327Y1704642D02*
Y1716807D01*
X2465346Y1704642D02*
Y1716807D01*
X2465366Y1704642D02*
Y1716807D01*
X2465386Y1704642D02*
Y1716807D01*
X2465406Y1704642D02*
Y1716807D01*
X2465425Y1704642D02*
Y1716807D01*
X2465445Y1704642D02*
Y1716807D01*
X2465465Y1704642D02*
Y1716807D01*
X2465484Y1704642D02*
Y1716807D01*
X2465504Y1704642D02*
Y1716807D01*
X2465524Y1704642D02*
Y1716807D01*
X2465543Y1704642D02*
Y1716807D01*
X2465563Y1704642D02*
Y1716807D01*
X2465583Y1704642D02*
Y1716807D01*
X2465602Y1704642D02*
Y1716807D01*
X2465622Y1704642D02*
Y1716807D01*
X2465642Y1704642D02*
Y1716807D01*
X2465661Y1704642D02*
Y1716807D01*
X2465681Y1704642D02*
Y1716807D01*
X2465701Y1704642D02*
Y1716807D01*
X2465720Y1704642D02*
Y1716807D01*
X2465740Y1704642D02*
Y1716807D01*
X2465760Y1704642D02*
Y1716807D01*
X2465780Y1704642D02*
Y1716807D01*
X2465799Y1704642D02*
Y1716807D01*
X2465819Y1704642D02*
Y1716807D01*
X2465839Y1704642D02*
Y1716807D01*
X2465858Y1704642D02*
Y1716807D01*
X2465878Y1704642D02*
Y1716807D01*
X2465898Y1704642D02*
Y1716807D01*
X2465917Y1704642D02*
Y1716807D01*
X2465937Y1704642D02*
Y1716807D01*
X2465957Y1704642D02*
Y1716807D01*
X2465976Y1704642D02*
Y1716807D01*
X2465996Y1704642D02*
Y1716807D01*
X2466016Y1704642D02*
Y1716807D01*
X2466035Y1704642D02*
Y1716807D01*
X2466055Y1704642D02*
Y1716807D01*
X2466075Y1704642D02*
Y1716807D01*
X2466094Y1704642D02*
Y1716807D01*
X2466114Y1704642D02*
Y1716807D01*
X2466134Y1704642D02*
Y1716807D01*
X2466154Y1704642D02*
Y1716807D01*
X2466173Y1704642D02*
Y1716807D01*
X2466193Y1704642D02*
Y1716807D01*
X2466213Y1704642D02*
Y1716807D01*
X2466232Y1704642D02*
Y1716807D01*
X2466252Y1704642D02*
Y1716807D01*
X2466272Y1704642D02*
Y1716807D01*
X2466291Y1704642D02*
Y1716807D01*
X2466311Y1704642D02*
Y1716807D01*
X2466331Y1704642D02*
Y1716807D01*
X2466350Y1704642D02*
Y1716807D01*
X2466370Y1704642D02*
Y1716807D01*
X2466390Y1704642D02*
Y1716807D01*
X2466409Y1704642D02*
Y1716807D01*
X2466429Y1704642D02*
Y1716807D01*
X2466449Y1704642D02*
Y1716807D01*
X2466469Y1704642D02*
Y1716807D01*
X2466488Y1704642D02*
Y1716807D01*
X2466508Y1704642D02*
Y1716807D01*
X2466528Y1704642D02*
Y1716807D01*
X2466547Y1704642D02*
Y1716807D01*
X2466567Y1704642D02*
Y1716807D01*
X2466587Y1704642D02*
Y1716807D01*
X2466606Y1704642D02*
Y1716807D01*
X2466626Y1704642D02*
Y1716807D01*
X2466646Y1704642D02*
Y1716807D01*
X2466665Y1704642D02*
Y1716807D01*
X2466685Y1704642D02*
Y1716807D01*
X2466705Y1704642D02*
Y1716807D01*
X2466724Y1704642D02*
Y1716807D01*
X2466744Y1704642D02*
Y1716807D01*
X2466764Y1704642D02*
Y1716807D01*
X2466783Y1704642D02*
Y1716807D01*
X2466803Y1704642D02*
Y1716807D01*
X2466823Y1704642D02*
Y1716807D01*
X2466843Y1704642D02*
Y1716807D01*
X2466862Y1704642D02*
Y1716807D01*
X2466882Y1704642D02*
Y1716807D01*
X2466902Y1704642D02*
Y1716807D01*
X2466921Y1704642D02*
Y1716807D01*
X2466941Y1704642D02*
Y1716807D01*
X2466961Y1704642D02*
Y1716807D01*
X2466980Y1704642D02*
Y1716807D01*
X2467000Y1704642D02*
Y1716807D01*
X2467020Y1704642D02*
Y1716807D01*
X2467039Y1704642D02*
Y1716807D01*
X2467059Y1704642D02*
Y1716807D01*
X2467079Y1704642D02*
Y1716807D01*
X2467098Y1704642D02*
Y1716807D01*
X2467118Y1704642D02*
Y1716807D01*
X2467138Y1704642D02*
Y1716807D01*
X2467157Y1704642D02*
Y1716807D01*
X2467177Y1704642D02*
Y1716807D01*
X2467197Y1704642D02*
Y1716807D01*
X2467217Y1704642D02*
Y1716807D01*
X2467236Y1704642D02*
Y1716807D01*
X2467256Y1704642D02*
Y1716807D01*
X2467276Y1704642D02*
Y1716807D01*
X2467295Y1704642D02*
Y1716807D01*
X2467315Y1704642D02*
Y1716807D01*
X2467335Y1704642D02*
Y1716807D01*
X2467354Y1704642D02*
Y1716807D01*
X2467374Y1704642D02*
Y1716807D01*
X2467394Y1704642D02*
Y1716807D01*
X2467413Y1704642D02*
Y1716807D01*
X2467433Y1704642D02*
Y1716807D01*
X2467453Y1704642D02*
Y1716807D01*
X2467472Y1704642D02*
Y1716807D01*
X2467492Y1704642D02*
Y1716807D01*
X2467512Y1704642D02*
Y1716807D01*
X2467531Y1704642D02*
Y1716807D01*
X2467551Y1704642D02*
Y1716807D01*
X2467571Y1704642D02*
Y1716807D01*
X2467591Y1704642D02*
Y1716807D01*
X2467610Y1704642D02*
Y1716807D01*
X2467630Y1704642D02*
Y1716807D01*
X2467650Y1704642D02*
Y1716807D01*
X2467669Y1704642D02*
Y1716807D01*
X2467689Y1704642D02*
Y1716807D01*
X2467709Y1704642D02*
Y1716807D01*
X2467728Y1704642D02*
Y1716807D01*
X2467748Y1704642D02*
Y1716807D01*
X2467768Y1704642D02*
Y1716807D01*
X2467787Y1704642D02*
Y1716807D01*
X2467807Y1704642D02*
Y1716807D01*
X2467827Y1704642D02*
Y1716807D01*
X2467846Y1704642D02*
Y1716807D01*
X2467866Y1704642D02*
Y1716807D01*
X2467886Y1704642D02*
Y1716807D01*
X2467906Y1704642D02*
Y1716807D01*
X2467925Y1704642D02*
Y1716807D01*
X2467945Y1704642D02*
Y1716807D01*
X2467965Y1704642D02*
Y1716807D01*
X2467984Y1704642D02*
Y1716807D01*
X2468004Y1704642D02*
Y1716807D01*
X2468024Y1704642D02*
Y1716807D01*
X2468043Y1704642D02*
Y1716807D01*
X2468063Y1704642D02*
Y1716807D01*
X2468083Y1704642D02*
Y1716807D01*
X2468102Y1704642D02*
Y1716807D01*
X2468122Y1704642D02*
Y1716807D01*
X2468142Y1704642D02*
Y1716807D01*
X2468161Y1704642D02*
Y1716807D01*
X2468181Y1704642D02*
Y1716807D01*
X2468201Y1704642D02*
Y1716807D01*
X2468220Y1704642D02*
Y1716807D01*
X2468240Y1704642D02*
Y1716807D01*
X2468260Y1704642D02*
Y1716807D01*
X2468280Y1704642D02*
Y1716807D01*
X2468299Y1704642D02*
Y1716807D01*
X2468319Y1704642D02*
Y1716807D01*
X2468339Y1704642D02*
Y1716807D01*
X2468358Y1704642D02*
Y1716807D01*
X2468378Y1704642D02*
Y1716807D01*
X2468398Y1704642D02*
Y1716807D01*
X2468417Y1704642D02*
Y1716807D01*
X2468437Y1704642D02*
Y1716807D01*
X2468457Y1704642D02*
Y1716807D01*
X2468476Y1704642D02*
Y1716807D01*
X2468496Y1704642D02*
Y1716807D01*
X2468516Y1704642D02*
Y1716807D01*
X2468535Y1704642D02*
Y1716807D01*
X2468555Y1704642D02*
Y1716807D01*
X2468575Y1704642D02*
Y1716807D01*
X2468594Y1704642D02*
Y1716807D01*
X2468614Y1704642D02*
Y1716807D01*
X2468634Y1704642D02*
Y1716807D01*
X2468654Y1704642D02*
Y1716807D01*
X2468673Y1704642D02*
Y1716807D01*
X2468693Y1704642D02*
Y1716807D01*
X2468713Y1704642D02*
Y1716807D01*
X2468732Y1704642D02*
Y1716807D01*
X2468752Y1704642D02*
Y1716807D01*
X2468772Y1704642D02*
Y1716807D01*
X2468791Y1704642D02*
Y1716807D01*
X2468811Y1704642D02*
Y1716807D01*
X2468831Y1704642D02*
Y1716807D01*
X2468850Y1704642D02*
Y1716807D01*
X2468870Y1704642D02*
Y1716807D01*
X2468890Y1704642D02*
Y1716807D01*
X2468909Y1704642D02*
Y1716807D01*
X2468929Y1704642D02*
Y1716807D01*
X2468949Y1704642D02*
Y1716807D01*
X2468969Y1704642D02*
Y1716807D01*
X2468988Y1704642D02*
Y1716807D01*
X2469008Y1704642D02*
Y1716807D01*
X2469028Y1704642D02*
Y1716807D01*
X2469047Y1704642D02*
Y1716807D01*
X2469067Y1704642D02*
Y1716807D01*
X2469087Y1704642D02*
Y1716807D01*
X2469106Y1704642D02*
Y1716807D01*
X2469126Y1704642D02*
Y1716807D01*
X2469146Y1704642D02*
Y1716807D01*
X2469165Y1704642D02*
Y1716807D01*
X2469185Y1704642D02*
Y1716807D01*
X2469205Y1704642D02*
Y1716807D01*
X2469224Y1704642D02*
Y1716807D01*
X2469244Y1704642D02*
Y1716807D01*
X2469264Y1704642D02*
Y1716807D01*
X2469283Y1704642D02*
Y1716807D01*
X2469303Y1704642D02*
Y1716807D01*
X2469323Y1704642D02*
Y1716807D01*
X2469343Y1704642D02*
Y1716807D01*
X2469362Y1704642D02*
Y1716807D01*
X2469382Y1704642D02*
Y1716807D01*
X2469402Y1704642D02*
Y1716807D01*
X2469421Y1704642D02*
Y1716807D01*
X2469441Y1704642D02*
Y1716807D01*
X2469461Y1704642D02*
Y1716807D01*
X2469480Y1704642D02*
Y1716807D01*
X2469500Y1704642D02*
Y1716807D01*
X2469520Y1704642D02*
Y1716807D01*
X2469539Y1704642D02*
Y1716807D01*
X2469559Y1704642D02*
Y1716807D01*
X2469579Y1704642D02*
Y1716807D01*
X2469598Y1704642D02*
Y1716807D01*
X2469618Y1704642D02*
Y1716807D01*
X2469638Y1704642D02*
Y1716807D01*
X2469657Y1704642D02*
Y1716807D01*
X2469677Y1704642D02*
Y1716807D01*
X2469697Y1704642D02*
Y1716807D01*
X2469717Y1704642D02*
Y1716807D01*
X2469736Y1704642D02*
Y1716807D01*
X2469756Y1704642D02*
Y1716807D01*
X2469776Y1704642D02*
Y1716807D01*
X2469795Y1704642D02*
Y1716807D01*
X2469815Y1704642D02*
Y1716807D01*
X2469835Y1704642D02*
Y1716807D01*
X2469854Y1704642D02*
Y1716807D01*
X2469874Y1704642D02*
Y1716807D01*
X2469894Y1704642D02*
Y1716807D01*
X2469913Y1704642D02*
Y1716807D01*
X2469933Y1704642D02*
Y1716807D01*
X2469953Y1704642D02*
Y1716807D01*
X2469972Y1704642D02*
Y1716807D01*
X2469992Y1704642D02*
Y1716807D01*
X2470012Y1704642D02*
Y1716807D01*
X2470031Y1704642D02*
Y1716807D01*
X2470051Y1704642D02*
Y1716807D01*
X2470071Y1704642D02*
Y1716807D01*
X2470091Y1704642D02*
Y1716807D01*
X2470110Y1704642D02*
Y1716807D01*
X2470130Y1704642D02*
Y1716807D01*
X2470150Y1704642D02*
Y1716807D01*
X2470169Y1704642D02*
Y1716807D01*
X2470189Y1704642D02*
Y1716807D01*
X2470209Y1704642D02*
Y1716807D01*
X2470228Y1704642D02*
Y1716807D01*
X2470248Y1704642D02*
Y1716807D01*
X2470268Y1704642D02*
Y1716807D01*
X2470287Y1704642D02*
Y1716807D01*
X2470307Y1704642D02*
Y1716807D01*
X2470327Y1704642D02*
Y1716807D01*
X2470346Y1704642D02*
Y1716807D01*
X2470366Y1704642D02*
Y1716807D01*
X2470386Y1704642D02*
Y1716807D01*
X2470406Y1704642D02*
Y1716807D01*
X2470425Y1704642D02*
Y1716807D01*
X2470445Y1704642D02*
Y1716807D01*
X2470465Y1704642D02*
Y1716807D01*
X2470484Y1704642D02*
Y1716807D01*
X2470504Y1704642D02*
Y1716807D01*
X2470524Y1704642D02*
Y1716807D01*
X2470543Y1704642D02*
Y1716807D01*
X2470563Y1704642D02*
Y1716807D01*
X2470583Y1704642D02*
Y1716807D01*
X2470602Y1704642D02*
Y1716807D01*
X2470622Y1704642D02*
Y1716807D01*
X2470642Y1704642D02*
Y1716807D01*
X2470661Y1704642D02*
Y1716807D01*
X2470681Y1704642D02*
Y1716807D01*
X2470701Y1704642D02*
Y1716807D01*
X2470720Y1704642D02*
Y1716807D01*
X2470740Y1704642D02*
Y1716807D01*
X2470760Y1704642D02*
Y1716807D01*
X2470780Y1704642D02*
Y1716807D01*
X2470799Y1704642D02*
Y1716807D01*
X2470819Y1704642D02*
Y1716807D01*
X2470839Y1704642D02*
Y1716807D01*
X2470858Y1704642D02*
Y1716807D01*
X2470878Y1704642D02*
Y1716807D01*
X2470898Y1704642D02*
Y1716807D01*
X2470917Y1704642D02*
Y1716807D01*
X2470937Y1704642D02*
Y1716807D01*
X2470957Y1704642D02*
Y1716807D01*
X2470976Y1704642D02*
Y1716807D01*
X2470996Y1704642D02*
Y1716807D01*
X2471016Y1704642D02*
Y1716807D01*
X2471035Y1704642D02*
Y1716807D01*
X2471055Y1704650D02*
Y1716807D01*
X2471075Y1704670D02*
Y1716807D01*
X2471094Y1704689D02*
Y1716807D01*
X2471114Y1704709D02*
Y1716807D01*
X2471134Y1704729D02*
Y1716807D01*
X2471154Y1704748D02*
Y1716807D01*
X2471173Y1704768D02*
Y1716807D01*
X2471193Y1704788D02*
Y1716807D01*
X2471213Y1704807D02*
Y1716807D01*
X2471232Y1704827D02*
Y1716807D01*
X2471252Y1704847D02*
Y1716807D01*
X2471272Y1704866D02*
Y1716807D01*
X2471291Y1704886D02*
Y1716807D01*
X2471311Y1704906D02*
Y1716807D01*
X2471331Y1704925D02*
Y1716807D01*
X2471350Y1704945D02*
Y1716807D01*
X2471370Y1704965D02*
Y1716807D01*
X2471390Y1704985D02*
Y1716807D01*
X2471409Y1705004D02*
Y1716807D01*
X2471429Y1705024D02*
Y1716807D01*
X2471449Y1705044D02*
Y1716807D01*
X2471469Y1705063D02*
Y1716807D01*
X2471488Y1705083D02*
Y1716807D01*
X2471508Y1705103D02*
Y1716807D01*
X2471528Y1705122D02*
Y1716807D01*
X2471547Y1705142D02*
Y1716807D01*
X2471567Y1705162D02*
Y1716807D01*
X2471587Y1705181D02*
Y1716807D01*
X2471606Y1705201D02*
Y1716807D01*
X2471626Y1705221D02*
Y1716807D01*
X2471646Y1705240D02*
Y1716807D01*
X2471665Y1705260D02*
Y1716807D01*
X2471685Y1705280D02*
Y1716807D01*
X2471705Y1705299D02*
Y1716807D01*
X2471724Y1705319D02*
Y1716807D01*
X2471744Y1705339D02*
Y1716807D01*
X2471764Y1705359D02*
Y1716807D01*
X2471783Y1705378D02*
Y1716807D01*
X2471803Y1705398D02*
Y1716807D01*
X2471823Y1705418D02*
Y1716807D01*
X2471843Y1705437D02*
Y1716807D01*
X2471862Y1705457D02*
Y1716807D01*
X2471882Y1705477D02*
Y1716807D01*
X2471902Y1705496D02*
Y1716807D01*
X2471921Y1705516D02*
Y1716807D01*
X2471941Y1705536D02*
Y1716807D01*
X2471961Y1705555D02*
Y1716807D01*
X2471980Y1705575D02*
Y1716807D01*
X2472000Y1705595D02*
Y1716807D01*
X2472020Y1705614D02*
Y1716807D01*
X2472039Y1705634D02*
Y1716807D01*
X2472059Y1705654D02*
Y1716807D01*
X2472079Y1705674D02*
Y1716807D01*
X2472098Y1705693D02*
Y1716807D01*
X2472118Y1705713D02*
Y1716807D01*
X2472138Y1705733D02*
Y1716807D01*
X2472157Y1705752D02*
Y1716807D01*
X2472177Y1705772D02*
Y1716807D01*
X2472197Y1705792D02*
Y1716807D01*
X2472217Y1705811D02*
Y1716807D01*
X2472236Y1705831D02*
Y1716807D01*
X2472256Y1705851D02*
Y1716807D01*
X2472276Y1705870D02*
Y1716807D01*
X2472295Y1705890D02*
Y1716807D01*
X2472315Y1705910D02*
Y1716807D01*
X2472335Y1705929D02*
Y1716807D01*
X2472354Y1705949D02*
Y1716807D01*
X2472374Y1705969D02*
Y1716807D01*
X2472394Y1705988D02*
Y1716807D01*
X2329217Y1585642D02*
X2338047D01*
X2339413Y1587008*
Y1597807*
X2329217*
Y1585642*
Y1597807*
X2329236Y1585642D02*
Y1597807D01*
X2329256Y1585642D02*
Y1597807D01*
X2329276Y1585642D02*
Y1597807D01*
X2329295Y1585642D02*
Y1597807D01*
X2329315Y1585642D02*
Y1597807D01*
X2329335Y1585642D02*
Y1597807D01*
X2329354Y1585642D02*
Y1597807D01*
X2329374Y1585642D02*
Y1597807D01*
X2329394Y1585642D02*
Y1597807D01*
X2329413Y1585642D02*
Y1597807D01*
X2329433Y1585642D02*
Y1597807D01*
X2329453Y1585642D02*
Y1597807D01*
X2329472Y1585642D02*
Y1597807D01*
X2329492Y1585642D02*
Y1597807D01*
X2329512Y1585642D02*
Y1597807D01*
X2329531Y1585642D02*
Y1597807D01*
X2329551Y1585642D02*
Y1597807D01*
X2329571Y1585642D02*
Y1597807D01*
X2329591Y1585642D02*
Y1597807D01*
X2329610Y1585642D02*
Y1597807D01*
X2329630Y1585642D02*
Y1597807D01*
X2329650Y1585642D02*
Y1597807D01*
X2329669Y1585642D02*
Y1597807D01*
X2329689Y1585642D02*
Y1597807D01*
X2329709Y1585642D02*
Y1597807D01*
X2329728Y1585642D02*
Y1597807D01*
X2329748Y1585642D02*
Y1597807D01*
X2329768Y1585642D02*
Y1597807D01*
X2329787Y1585642D02*
Y1597807D01*
X2329807Y1585642D02*
Y1597807D01*
X2329827Y1585642D02*
Y1597807D01*
X2329846Y1585642D02*
Y1597807D01*
X2329866Y1585642D02*
Y1597807D01*
X2329886Y1585642D02*
Y1597807D01*
X2329906Y1585642D02*
Y1597807D01*
X2329925Y1585642D02*
Y1597807D01*
X2329945Y1585642D02*
Y1597807D01*
X2329965Y1585642D02*
Y1597807D01*
X2329984Y1585642D02*
Y1597807D01*
X2330004Y1585642D02*
Y1597807D01*
X2330024Y1585642D02*
Y1597807D01*
X2330043Y1585642D02*
Y1597807D01*
X2330063Y1585642D02*
Y1597807D01*
X2330083Y1585642D02*
Y1597807D01*
X2330102Y1585642D02*
Y1597807D01*
X2330122Y1585642D02*
Y1597807D01*
X2330142Y1585642D02*
Y1597807D01*
X2330161Y1585642D02*
Y1597807D01*
X2330181Y1585642D02*
Y1597807D01*
X2330201Y1585642D02*
Y1597807D01*
X2330220Y1585642D02*
Y1597807D01*
X2330240Y1585642D02*
Y1597807D01*
X2330260Y1585642D02*
Y1597807D01*
X2330280Y1585642D02*
Y1597807D01*
X2330299Y1585642D02*
Y1597807D01*
X2330319Y1585642D02*
Y1597807D01*
X2330339Y1585642D02*
Y1597807D01*
X2330358Y1585642D02*
Y1597807D01*
X2330378Y1585642D02*
Y1597807D01*
X2330398Y1585642D02*
Y1597807D01*
X2330417Y1585642D02*
Y1597807D01*
X2330437Y1585642D02*
Y1597807D01*
X2330457Y1585642D02*
Y1597807D01*
X2330476Y1585642D02*
Y1597807D01*
X2330496Y1585642D02*
Y1597807D01*
X2330516Y1585642D02*
Y1597807D01*
X2330535Y1585642D02*
Y1597807D01*
X2330555Y1585642D02*
Y1597807D01*
X2330575Y1585642D02*
Y1597807D01*
X2330594Y1585642D02*
Y1597807D01*
X2330614Y1585642D02*
Y1597807D01*
X2330634Y1585642D02*
Y1597807D01*
X2330654Y1585642D02*
Y1597807D01*
X2330673Y1585642D02*
Y1597807D01*
X2330693Y1585642D02*
Y1597807D01*
X2330713Y1585642D02*
Y1597807D01*
X2330732Y1585642D02*
Y1597807D01*
X2330752Y1585642D02*
Y1597807D01*
X2330772Y1585642D02*
Y1597807D01*
X2330791Y1585642D02*
Y1597807D01*
X2330811Y1585642D02*
Y1597807D01*
X2330831Y1585642D02*
Y1597807D01*
X2330850Y1585642D02*
Y1597807D01*
X2330870Y1585642D02*
Y1597807D01*
X2330890Y1585642D02*
Y1597807D01*
X2330909Y1585642D02*
Y1597807D01*
X2330929Y1585642D02*
Y1597807D01*
X2330949Y1585642D02*
Y1597807D01*
X2330969Y1585642D02*
Y1597807D01*
X2330988Y1585642D02*
Y1597807D01*
X2331008Y1585642D02*
Y1597807D01*
X2331028Y1585642D02*
Y1597807D01*
X2331047Y1585642D02*
Y1597807D01*
X2331067Y1585642D02*
Y1597807D01*
X2331087Y1585642D02*
Y1597807D01*
X2331106Y1585642D02*
Y1597807D01*
X2331126Y1585642D02*
Y1597807D01*
X2331146Y1585642D02*
Y1597807D01*
X2331165Y1585642D02*
Y1597807D01*
X2331185Y1585642D02*
Y1597807D01*
X2331205Y1585642D02*
Y1597807D01*
X2331224Y1585642D02*
Y1597807D01*
X2331244Y1585642D02*
Y1597807D01*
X2331264Y1585642D02*
Y1597807D01*
X2331283Y1585642D02*
Y1597807D01*
X2331303Y1585642D02*
Y1597807D01*
X2331323Y1585642D02*
Y1597807D01*
X2331343Y1585642D02*
Y1597807D01*
X2331362Y1585642D02*
Y1597807D01*
X2331382Y1585642D02*
Y1597807D01*
X2331402Y1585642D02*
Y1597807D01*
X2331421Y1585642D02*
Y1597807D01*
X2331441Y1585642D02*
Y1597807D01*
X2331461Y1585642D02*
Y1597807D01*
X2331480Y1585642D02*
Y1597807D01*
X2331500Y1585642D02*
Y1597807D01*
X2331520Y1585642D02*
Y1597807D01*
X2331539Y1585642D02*
Y1597807D01*
X2331559Y1585642D02*
Y1597807D01*
X2331579Y1585642D02*
Y1597807D01*
X2331598Y1585642D02*
Y1597807D01*
X2331618Y1585642D02*
Y1597807D01*
X2331638Y1585642D02*
Y1597807D01*
X2331657Y1585642D02*
Y1597807D01*
X2331677Y1585642D02*
Y1597807D01*
X2331697Y1585642D02*
Y1597807D01*
X2331717Y1585642D02*
Y1597807D01*
X2331736Y1585642D02*
Y1597807D01*
X2331756Y1585642D02*
Y1597807D01*
X2331776Y1585642D02*
Y1597807D01*
X2331795Y1585642D02*
Y1597807D01*
X2331815Y1585642D02*
Y1597807D01*
X2331835Y1585642D02*
Y1597807D01*
X2331854Y1585642D02*
Y1597807D01*
X2331874Y1585642D02*
Y1597807D01*
X2331894Y1585642D02*
Y1597807D01*
X2331913Y1585642D02*
Y1597807D01*
X2331933Y1585642D02*
Y1597807D01*
X2331953Y1585642D02*
Y1597807D01*
X2331972Y1585642D02*
Y1597807D01*
X2331992Y1585642D02*
Y1597807D01*
X2332012Y1585642D02*
Y1597807D01*
X2332031Y1585642D02*
Y1597807D01*
X2332051Y1585642D02*
Y1597807D01*
X2332071Y1585642D02*
Y1597807D01*
X2332091Y1585642D02*
Y1597807D01*
X2332110Y1585642D02*
Y1597807D01*
X2332130Y1585642D02*
Y1597807D01*
X2332150Y1585642D02*
Y1597807D01*
X2332169Y1585642D02*
Y1597807D01*
X2332189Y1585642D02*
Y1597807D01*
X2332209Y1585642D02*
Y1597807D01*
X2332228Y1585642D02*
Y1597807D01*
X2332248Y1585642D02*
Y1597807D01*
X2332268Y1585642D02*
Y1597807D01*
X2332287Y1585642D02*
Y1597807D01*
X2332307Y1585642D02*
Y1597807D01*
X2332327Y1585642D02*
Y1597807D01*
X2332346Y1585642D02*
Y1597807D01*
X2332366Y1585642D02*
Y1597807D01*
X2332386Y1585642D02*
Y1597807D01*
X2332406Y1585642D02*
Y1597807D01*
X2332425Y1585642D02*
Y1597807D01*
X2332445Y1585642D02*
Y1597807D01*
X2332465Y1585642D02*
Y1597807D01*
X2332484Y1585642D02*
Y1597807D01*
X2332504Y1585642D02*
Y1597807D01*
X2332524Y1585642D02*
Y1597807D01*
X2332543Y1585642D02*
Y1597807D01*
X2332563Y1585642D02*
Y1597807D01*
X2332583Y1585642D02*
Y1597807D01*
X2332602Y1585642D02*
Y1597807D01*
X2332622Y1585642D02*
Y1597807D01*
X2332642Y1585642D02*
Y1597807D01*
X2332661Y1585642D02*
Y1597807D01*
X2332681Y1585642D02*
Y1597807D01*
X2332701Y1585642D02*
Y1597807D01*
X2332720Y1585642D02*
Y1597807D01*
X2332740Y1585642D02*
Y1597807D01*
X2332760Y1585642D02*
Y1597807D01*
X2332780Y1585642D02*
Y1597807D01*
X2332799Y1585642D02*
Y1597807D01*
X2332819Y1585642D02*
Y1597807D01*
X2332839Y1585642D02*
Y1597807D01*
X2332858Y1585642D02*
Y1597807D01*
X2332878Y1585642D02*
Y1597807D01*
X2332898Y1585642D02*
Y1597807D01*
X2332917Y1585642D02*
Y1597807D01*
X2332937Y1585642D02*
Y1597807D01*
X2332957Y1585642D02*
Y1597807D01*
X2332976Y1585642D02*
Y1597807D01*
X2332996Y1585642D02*
Y1597807D01*
X2333016Y1585642D02*
Y1597807D01*
X2333035Y1585642D02*
Y1597807D01*
X2333055Y1585642D02*
Y1597807D01*
X2333075Y1585642D02*
Y1597807D01*
X2333094Y1585642D02*
Y1597807D01*
X2333114Y1585642D02*
Y1597807D01*
X2333134Y1585642D02*
Y1597807D01*
X2333154Y1585642D02*
Y1597807D01*
X2333173Y1585642D02*
Y1597807D01*
X2333193Y1585642D02*
Y1597807D01*
X2333213Y1585642D02*
Y1597807D01*
X2333232Y1585642D02*
Y1597807D01*
X2333252Y1585642D02*
Y1597807D01*
X2333272Y1585642D02*
Y1597807D01*
X2333291Y1585642D02*
Y1597807D01*
X2333311Y1585642D02*
Y1597807D01*
X2333331Y1585642D02*
Y1597807D01*
X2333350Y1585642D02*
Y1597807D01*
X2333370Y1585642D02*
Y1597807D01*
X2333390Y1585642D02*
Y1597807D01*
X2333409Y1585642D02*
Y1597807D01*
X2333429Y1585642D02*
Y1597807D01*
X2333449Y1585642D02*
Y1597807D01*
X2333469Y1585642D02*
Y1597807D01*
X2333488Y1585642D02*
Y1597807D01*
X2333508Y1585642D02*
Y1597807D01*
X2333528Y1585642D02*
Y1597807D01*
X2333547Y1585642D02*
Y1597807D01*
X2333567Y1585642D02*
Y1597807D01*
X2333587Y1585642D02*
Y1597807D01*
X2333606Y1585642D02*
Y1597807D01*
X2333626Y1585642D02*
Y1597807D01*
X2333646Y1585642D02*
Y1597807D01*
X2333665Y1585642D02*
Y1597807D01*
X2333685Y1585642D02*
Y1597807D01*
X2333705Y1585642D02*
Y1597807D01*
X2333724Y1585642D02*
Y1597807D01*
X2333744Y1585642D02*
Y1597807D01*
X2333764Y1585642D02*
Y1597807D01*
X2333783Y1585642D02*
Y1597807D01*
X2333803Y1585642D02*
Y1597807D01*
X2333823Y1585642D02*
Y1597807D01*
X2333843Y1585642D02*
Y1597807D01*
X2333862Y1585642D02*
Y1597807D01*
X2333882Y1585642D02*
Y1597807D01*
X2333902Y1585642D02*
Y1597807D01*
X2333921Y1585642D02*
Y1597807D01*
X2333941Y1585642D02*
Y1597807D01*
X2333961Y1585642D02*
Y1597807D01*
X2333980Y1585642D02*
Y1597807D01*
X2334000Y1585642D02*
Y1597807D01*
X2334020Y1585642D02*
Y1597807D01*
X2334039Y1585642D02*
Y1597807D01*
X2334059Y1585642D02*
Y1597807D01*
X2334079Y1585642D02*
Y1597807D01*
X2334098Y1585642D02*
Y1597807D01*
X2334118Y1585642D02*
Y1597807D01*
X2334138Y1585642D02*
Y1597807D01*
X2334157Y1585642D02*
Y1597807D01*
X2334177Y1585642D02*
Y1597807D01*
X2334197Y1585642D02*
Y1597807D01*
X2334217Y1585642D02*
Y1597807D01*
X2334236Y1585642D02*
Y1597807D01*
X2334256Y1585642D02*
Y1597807D01*
X2334276Y1585642D02*
Y1597807D01*
X2334295Y1585642D02*
Y1597807D01*
X2334315Y1585642D02*
Y1597807D01*
X2334335Y1585642D02*
Y1597807D01*
X2334354Y1585642D02*
Y1597807D01*
X2334374Y1585642D02*
Y1597807D01*
X2334394Y1585642D02*
Y1597807D01*
X2334413Y1585642D02*
Y1597807D01*
X2334433Y1585642D02*
Y1597807D01*
X2334453Y1585642D02*
Y1597807D01*
X2334472Y1585642D02*
Y1597807D01*
X2334492Y1585642D02*
Y1597807D01*
X2334512Y1585642D02*
Y1597807D01*
X2334531Y1585642D02*
Y1597807D01*
X2334551Y1585642D02*
Y1597807D01*
X2334571Y1585642D02*
Y1597807D01*
X2334591Y1585642D02*
Y1597807D01*
X2334610Y1585642D02*
Y1597807D01*
X2334630Y1585642D02*
Y1597807D01*
X2334650Y1585642D02*
Y1597807D01*
X2334669Y1585642D02*
Y1597807D01*
X2334689Y1585642D02*
Y1597807D01*
X2334709Y1585642D02*
Y1597807D01*
X2334728Y1585642D02*
Y1597807D01*
X2334748Y1585642D02*
Y1597807D01*
X2334768Y1585642D02*
Y1597807D01*
X2334787Y1585642D02*
Y1597807D01*
X2334807Y1585642D02*
Y1597807D01*
X2334827Y1585642D02*
Y1597807D01*
X2334846Y1585642D02*
Y1597807D01*
X2334866Y1585642D02*
Y1597807D01*
X2334886Y1585642D02*
Y1597807D01*
X2334906Y1585642D02*
Y1597807D01*
X2334925Y1585642D02*
Y1597807D01*
X2334945Y1585642D02*
Y1597807D01*
X2334965Y1585642D02*
Y1597807D01*
X2334984Y1585642D02*
Y1597807D01*
X2335004Y1585642D02*
Y1597807D01*
X2335024Y1585642D02*
Y1597807D01*
X2335043Y1585642D02*
Y1597807D01*
X2335063Y1585642D02*
Y1597807D01*
X2335083Y1585642D02*
Y1597807D01*
X2335102Y1585642D02*
Y1597807D01*
X2335122Y1585642D02*
Y1597807D01*
X2335142Y1585642D02*
Y1597807D01*
X2335161Y1585642D02*
Y1597807D01*
X2335181Y1585642D02*
Y1597807D01*
X2335201Y1585642D02*
Y1597807D01*
X2335220Y1585642D02*
Y1597807D01*
X2335240Y1585642D02*
Y1597807D01*
X2335260Y1585642D02*
Y1597807D01*
X2335280Y1585642D02*
Y1597807D01*
X2335299Y1585642D02*
Y1597807D01*
X2335319Y1585642D02*
Y1597807D01*
X2335339Y1585642D02*
Y1597807D01*
X2335358Y1585642D02*
Y1597807D01*
X2335378Y1585642D02*
Y1597807D01*
X2335398Y1585642D02*
Y1597807D01*
X2335417Y1585642D02*
Y1597807D01*
X2335437Y1585642D02*
Y1597807D01*
X2335457Y1585642D02*
Y1597807D01*
X2335476Y1585642D02*
Y1597807D01*
X2335496Y1585642D02*
Y1597807D01*
X2335516Y1585642D02*
Y1597807D01*
X2335535Y1585642D02*
Y1597807D01*
X2335555Y1585642D02*
Y1597807D01*
X2335575Y1585642D02*
Y1597807D01*
X2335594Y1585642D02*
Y1597807D01*
X2335614Y1585642D02*
Y1597807D01*
X2335634Y1585642D02*
Y1597807D01*
X2335654Y1585642D02*
Y1597807D01*
X2335673Y1585642D02*
Y1597807D01*
X2335693Y1585642D02*
Y1597807D01*
X2335713Y1585642D02*
Y1597807D01*
X2335732Y1585642D02*
Y1597807D01*
X2335752Y1585642D02*
Y1597807D01*
X2335772Y1585642D02*
Y1597807D01*
X2335791Y1585642D02*
Y1597807D01*
X2335811Y1585642D02*
Y1597807D01*
X2335831Y1585642D02*
Y1597807D01*
X2335850Y1585642D02*
Y1597807D01*
X2335870Y1585642D02*
Y1597807D01*
X2335890Y1585642D02*
Y1597807D01*
X2335909Y1585642D02*
Y1597807D01*
X2335929Y1585642D02*
Y1597807D01*
X2335949Y1585642D02*
Y1597807D01*
X2335969Y1585642D02*
Y1597807D01*
X2335988Y1585642D02*
Y1597807D01*
X2336008Y1585642D02*
Y1597807D01*
X2336028Y1585642D02*
Y1597807D01*
X2336047Y1585642D02*
Y1597807D01*
X2336067Y1585642D02*
Y1597807D01*
X2336087Y1585642D02*
Y1597807D01*
X2336106Y1585642D02*
Y1597807D01*
X2336126Y1585642D02*
Y1597807D01*
X2336146Y1585642D02*
Y1597807D01*
X2336165Y1585642D02*
Y1597807D01*
X2336185Y1585642D02*
Y1597807D01*
X2336205Y1585642D02*
Y1597807D01*
X2336224Y1585642D02*
Y1597807D01*
X2336244Y1585642D02*
Y1597807D01*
X2336264Y1585642D02*
Y1597807D01*
X2336283Y1585642D02*
Y1597807D01*
X2336303Y1585642D02*
Y1597807D01*
X2336323Y1585642D02*
Y1597807D01*
X2336343Y1585642D02*
Y1597807D01*
X2336362Y1585642D02*
Y1597807D01*
X2336382Y1585642D02*
Y1597807D01*
X2336402Y1585642D02*
Y1597807D01*
X2336421Y1585642D02*
Y1597807D01*
X2336441Y1585642D02*
Y1597807D01*
X2336461Y1585642D02*
Y1597807D01*
X2336480Y1585642D02*
Y1597807D01*
X2336500Y1585642D02*
Y1597807D01*
X2336520Y1585642D02*
Y1597807D01*
X2336539Y1585642D02*
Y1597807D01*
X2336559Y1585642D02*
Y1597807D01*
X2336579Y1585642D02*
Y1597807D01*
X2336598Y1585642D02*
Y1597807D01*
X2336618Y1585642D02*
Y1597807D01*
X2336638Y1585642D02*
Y1597807D01*
X2336657Y1585642D02*
Y1597807D01*
X2336677Y1585642D02*
Y1597807D01*
X2336697Y1585642D02*
Y1597807D01*
X2336717Y1585642D02*
Y1597807D01*
X2336736Y1585642D02*
Y1597807D01*
X2336756Y1585642D02*
Y1597807D01*
X2336776Y1585642D02*
Y1597807D01*
X2336795Y1585642D02*
Y1597807D01*
X2336815Y1585642D02*
Y1597807D01*
X2336835Y1585642D02*
Y1597807D01*
X2336854Y1585642D02*
Y1597807D01*
X2336874Y1585642D02*
Y1597807D01*
X2336894Y1585642D02*
Y1597807D01*
X2336913Y1585642D02*
Y1597807D01*
X2336933Y1585642D02*
Y1597807D01*
X2336953Y1585642D02*
Y1597807D01*
X2336972Y1585642D02*
Y1597807D01*
X2336992Y1585642D02*
Y1597807D01*
X2337012Y1585642D02*
Y1597807D01*
X2337031Y1585642D02*
Y1597807D01*
X2337051Y1585642D02*
Y1597807D01*
X2337071Y1585642D02*
Y1597807D01*
X2337091Y1585642D02*
Y1597807D01*
X2337110Y1585642D02*
Y1597807D01*
X2337130Y1585642D02*
Y1597807D01*
X2337150Y1585642D02*
Y1597807D01*
X2337169Y1585642D02*
Y1597807D01*
X2337189Y1585642D02*
Y1597807D01*
X2337209Y1585642D02*
Y1597807D01*
X2337228Y1585642D02*
Y1597807D01*
X2337248Y1585642D02*
Y1597807D01*
X2337268Y1585642D02*
Y1597807D01*
X2337287Y1585642D02*
Y1597807D01*
X2337307Y1585642D02*
Y1597807D01*
X2337327Y1585642D02*
Y1597807D01*
X2337346Y1585642D02*
Y1597807D01*
X2337366Y1585642D02*
Y1597807D01*
X2337386Y1585642D02*
Y1597807D01*
X2337406Y1585642D02*
Y1597807D01*
X2337425Y1585642D02*
Y1597807D01*
X2337445Y1585642D02*
Y1597807D01*
X2337465Y1585642D02*
Y1597807D01*
X2337484Y1585642D02*
Y1597807D01*
X2337504Y1585642D02*
Y1597807D01*
X2337524Y1585642D02*
Y1597807D01*
X2337543Y1585642D02*
Y1597807D01*
X2337563Y1585642D02*
Y1597807D01*
X2337583Y1585642D02*
Y1597807D01*
X2337602Y1585642D02*
Y1597807D01*
X2337622Y1585642D02*
Y1597807D01*
X2337642Y1585642D02*
Y1597807D01*
X2337661Y1585642D02*
Y1597807D01*
X2337681Y1585642D02*
Y1597807D01*
X2337701Y1585642D02*
Y1597807D01*
X2337720Y1585642D02*
Y1597807D01*
X2337740Y1585642D02*
Y1597807D01*
X2337760Y1585642D02*
Y1597807D01*
X2337780Y1585642D02*
Y1597807D01*
X2337799Y1585642D02*
Y1597807D01*
X2337819Y1585642D02*
Y1597807D01*
X2337839Y1585642D02*
Y1597807D01*
X2337858Y1585642D02*
Y1597807D01*
X2337878Y1585642D02*
Y1597807D01*
X2337898Y1585642D02*
Y1597807D01*
X2337917Y1585642D02*
Y1597807D01*
X2337937Y1585642D02*
Y1597807D01*
X2337957Y1585642D02*
Y1597807D01*
X2337976Y1585642D02*
Y1597807D01*
X2337996Y1585642D02*
Y1597807D01*
X2338016Y1585642D02*
Y1597807D01*
X2338035Y1585642D02*
Y1597807D01*
X2338055Y1585650D02*
Y1597807D01*
X2338075Y1585670D02*
Y1597807D01*
X2338094Y1585689D02*
Y1597807D01*
X2338114Y1585709D02*
Y1597807D01*
X2338134Y1585729D02*
Y1597807D01*
X2338154Y1585748D02*
Y1597807D01*
X2338173Y1585768D02*
Y1597807D01*
X2338193Y1585788D02*
Y1597807D01*
X2338213Y1585807D02*
Y1597807D01*
X2338232Y1585827D02*
Y1597807D01*
X2338252Y1585847D02*
Y1597807D01*
X2338272Y1585866D02*
Y1597807D01*
X2338291Y1585886D02*
Y1597807D01*
X2338311Y1585906D02*
Y1597807D01*
X2338331Y1585925D02*
Y1597807D01*
X2338350Y1585945D02*
Y1597807D01*
X2338370Y1585965D02*
Y1597807D01*
X2338390Y1585985D02*
Y1597807D01*
X2338409Y1586004D02*
Y1597807D01*
X2338429Y1586024D02*
Y1597807D01*
X2338449Y1586044D02*
Y1597807D01*
X2338469Y1586063D02*
Y1597807D01*
X2338488Y1586083D02*
Y1597807D01*
X2338508Y1586103D02*
Y1597807D01*
X2338528Y1586122D02*
Y1597807D01*
X2338547Y1586142D02*
Y1597807D01*
X2338567Y1586162D02*
Y1597807D01*
X2338587Y1586181D02*
Y1597807D01*
X2338606Y1586201D02*
Y1597807D01*
X2338626Y1586221D02*
Y1597807D01*
X2338646Y1586240D02*
Y1597807D01*
X2338665Y1586260D02*
Y1597807D01*
X2338685Y1586280D02*
Y1597807D01*
X2338705Y1586299D02*
Y1597807D01*
X2338724Y1586319D02*
Y1597807D01*
X2338744Y1586339D02*
Y1597807D01*
X2338764Y1586359D02*
Y1597807D01*
X2338783Y1586378D02*
Y1597807D01*
X2338803Y1586398D02*
Y1597807D01*
X2338823Y1586418D02*
Y1597807D01*
X2338843Y1586437D02*
Y1597807D01*
X2338862Y1586457D02*
Y1597807D01*
X2338882Y1586477D02*
Y1597807D01*
X2338902Y1586496D02*
Y1597807D01*
X2338921Y1586516D02*
Y1597807D01*
X2338941Y1586536D02*
Y1597807D01*
X2338961Y1586555D02*
Y1597807D01*
X2338980Y1586575D02*
Y1597807D01*
X2339000Y1586595D02*
Y1597807D01*
X2339020Y1586614D02*
Y1597807D01*
X2339039Y1586634D02*
Y1597807D01*
X2339059Y1586654D02*
Y1597807D01*
X2339079Y1586674D02*
Y1597807D01*
X2339098Y1586693D02*
Y1597807D01*
X2339118Y1586713D02*
Y1597807D01*
X2339138Y1586733D02*
Y1597807D01*
X2339157Y1586752D02*
Y1597807D01*
X2339177Y1586772D02*
Y1597807D01*
X2339197Y1586792D02*
Y1597807D01*
X2339217Y1586811D02*
Y1597807D01*
X2339236Y1586831D02*
Y1597807D01*
X2339256Y1586851D02*
Y1597807D01*
X2339276Y1586870D02*
Y1597807D01*
X2339295Y1586890D02*
Y1597807D01*
X2339315Y1586910D02*
Y1597807D01*
X2339335Y1586929D02*
Y1597807D01*
X2339354Y1586949D02*
Y1597807D01*
X2339374Y1586969D02*
Y1597807D01*
X2339394Y1586988D02*
Y1597807D01*
X2252217Y1529642D02*
X2261047D01*
X2262413Y1531008*
Y1541807*
X2252217*
Y1529642*
Y1541807*
X2252236Y1529642D02*
Y1541807D01*
X2252256Y1529642D02*
Y1541807D01*
X2252276Y1529642D02*
Y1541807D01*
X2252295Y1529642D02*
Y1541807D01*
X2252315Y1529642D02*
Y1541807D01*
X2252335Y1529642D02*
Y1541807D01*
X2252354Y1529642D02*
Y1541807D01*
X2252374Y1529642D02*
Y1541807D01*
X2252394Y1529642D02*
Y1541807D01*
X2252413Y1529642D02*
Y1541807D01*
X2252433Y1529642D02*
Y1541807D01*
X2252453Y1529642D02*
Y1541807D01*
X2252472Y1529642D02*
Y1541807D01*
X2252492Y1529642D02*
Y1541807D01*
X2252512Y1529642D02*
Y1541807D01*
X2252531Y1529642D02*
Y1541807D01*
X2252551Y1529642D02*
Y1541807D01*
X2252571Y1529642D02*
Y1541807D01*
X2252591Y1529642D02*
Y1541807D01*
X2252610Y1529642D02*
Y1541807D01*
X2252630Y1529642D02*
Y1541807D01*
X2252650Y1529642D02*
Y1541807D01*
X2252669Y1529642D02*
Y1541807D01*
X2252689Y1529642D02*
Y1541807D01*
X2252709Y1529642D02*
Y1541807D01*
X2252728Y1529642D02*
Y1541807D01*
X2252748Y1529642D02*
Y1541807D01*
X2252768Y1529642D02*
Y1541807D01*
X2252787Y1529642D02*
Y1541807D01*
X2252807Y1529642D02*
Y1541807D01*
X2252827Y1529642D02*
Y1541807D01*
X2252846Y1529642D02*
Y1541807D01*
X2252866Y1529642D02*
Y1541807D01*
X2252886Y1529642D02*
Y1541807D01*
X2252906Y1529642D02*
Y1541807D01*
X2252925Y1529642D02*
Y1541807D01*
X2252945Y1529642D02*
Y1541807D01*
X2252965Y1529642D02*
Y1541807D01*
X2252984Y1529642D02*
Y1541807D01*
X2253004Y1529642D02*
Y1541807D01*
X2253024Y1529642D02*
Y1541807D01*
X2253043Y1529642D02*
Y1541807D01*
X2253063Y1529642D02*
Y1541807D01*
X2253083Y1529642D02*
Y1541807D01*
X2253102Y1529642D02*
Y1541807D01*
X2253122Y1529642D02*
Y1541807D01*
X2253142Y1529642D02*
Y1541807D01*
X2253161Y1529642D02*
Y1541807D01*
X2253181Y1529642D02*
Y1541807D01*
X2253201Y1529642D02*
Y1541807D01*
X2253220Y1529642D02*
Y1541807D01*
X2253240Y1529642D02*
Y1541807D01*
X2253260Y1529642D02*
Y1541807D01*
X2253280Y1529642D02*
Y1541807D01*
X2253299Y1529642D02*
Y1541807D01*
X2253319Y1529642D02*
Y1541807D01*
X2253339Y1529642D02*
Y1541807D01*
X2253358Y1529642D02*
Y1541807D01*
X2253378Y1529642D02*
Y1541807D01*
X2253398Y1529642D02*
Y1541807D01*
X2253417Y1529642D02*
Y1541807D01*
X2253437Y1529642D02*
Y1541807D01*
X2253457Y1529642D02*
Y1541807D01*
X2253476Y1529642D02*
Y1541807D01*
X2253496Y1529642D02*
Y1541807D01*
X2253516Y1529642D02*
Y1541807D01*
X2253535Y1529642D02*
Y1541807D01*
X2253555Y1529642D02*
Y1541807D01*
X2253575Y1529642D02*
Y1541807D01*
X2253594Y1529642D02*
Y1541807D01*
X2253614Y1529642D02*
Y1541807D01*
X2253634Y1529642D02*
Y1541807D01*
X2253654Y1529642D02*
Y1541807D01*
X2253673Y1529642D02*
Y1541807D01*
X2253693Y1529642D02*
Y1541807D01*
X2253713Y1529642D02*
Y1541807D01*
X2253732Y1529642D02*
Y1541807D01*
X2253752Y1529642D02*
Y1541807D01*
X2253772Y1529642D02*
Y1541807D01*
X2253791Y1529642D02*
Y1541807D01*
X2253811Y1529642D02*
Y1541807D01*
X2253831Y1529642D02*
Y1541807D01*
X2253850Y1529642D02*
Y1541807D01*
X2253870Y1529642D02*
Y1541807D01*
X2253890Y1529642D02*
Y1541807D01*
X2253909Y1529642D02*
Y1541807D01*
X2253929Y1529642D02*
Y1541807D01*
X2253949Y1529642D02*
Y1541807D01*
X2253969Y1529642D02*
Y1541807D01*
X2253988Y1529642D02*
Y1541807D01*
X2254008Y1529642D02*
Y1541807D01*
X2254028Y1529642D02*
Y1541807D01*
X2254047Y1529642D02*
Y1541807D01*
X2254067Y1529642D02*
Y1541807D01*
X2254087Y1529642D02*
Y1541807D01*
X2254106Y1529642D02*
Y1541807D01*
X2254126Y1529642D02*
Y1541807D01*
X2254146Y1529642D02*
Y1541807D01*
X2254165Y1529642D02*
Y1541807D01*
X2254185Y1529642D02*
Y1541807D01*
X2254205Y1529642D02*
Y1541807D01*
X2254224Y1529642D02*
Y1541807D01*
X2254244Y1529642D02*
Y1541807D01*
X2254264Y1529642D02*
Y1541807D01*
X2254283Y1529642D02*
Y1541807D01*
X2254303Y1529642D02*
Y1541807D01*
X2254323Y1529642D02*
Y1541807D01*
X2254343Y1529642D02*
Y1541807D01*
X2254362Y1529642D02*
Y1541807D01*
X2254382Y1529642D02*
Y1541807D01*
X2254402Y1529642D02*
Y1541807D01*
X2254421Y1529642D02*
Y1541807D01*
X2254441Y1529642D02*
Y1541807D01*
X2254461Y1529642D02*
Y1541807D01*
X2254480Y1529642D02*
Y1541807D01*
X2254500Y1529642D02*
Y1541807D01*
X2254520Y1529642D02*
Y1541807D01*
X2254539Y1529642D02*
Y1541807D01*
X2254559Y1529642D02*
Y1541807D01*
X2254579Y1529642D02*
Y1541807D01*
X2254598Y1529642D02*
Y1541807D01*
X2254618Y1529642D02*
Y1541807D01*
X2254638Y1529642D02*
Y1541807D01*
X2254657Y1529642D02*
Y1541807D01*
X2254677Y1529642D02*
Y1541807D01*
X2254697Y1529642D02*
Y1541807D01*
X2254717Y1529642D02*
Y1541807D01*
X2254736Y1529642D02*
Y1541807D01*
X2254756Y1529642D02*
Y1541807D01*
X2254776Y1529642D02*
Y1541807D01*
X2254795Y1529642D02*
Y1541807D01*
X2254815Y1529642D02*
Y1541807D01*
X2254835Y1529642D02*
Y1541807D01*
X2254854Y1529642D02*
Y1541807D01*
X2254874Y1529642D02*
Y1541807D01*
X2254894Y1529642D02*
Y1541807D01*
X2254913Y1529642D02*
Y1541807D01*
X2254933Y1529642D02*
Y1541807D01*
X2254953Y1529642D02*
Y1541807D01*
X2254972Y1529642D02*
Y1541807D01*
X2254992Y1529642D02*
Y1541807D01*
X2255012Y1529642D02*
Y1541807D01*
X2255031Y1529642D02*
Y1541807D01*
X2255051Y1529642D02*
Y1541807D01*
X2255071Y1529642D02*
Y1541807D01*
X2255091Y1529642D02*
Y1541807D01*
X2255110Y1529642D02*
Y1541807D01*
X2255130Y1529642D02*
Y1541807D01*
X2255150Y1529642D02*
Y1541807D01*
X2255169Y1529642D02*
Y1541807D01*
X2255189Y1529642D02*
Y1541807D01*
X2255209Y1529642D02*
Y1541807D01*
X2255228Y1529642D02*
Y1541807D01*
X2255248Y1529642D02*
Y1541807D01*
X2255268Y1529642D02*
Y1541807D01*
X2255287Y1529642D02*
Y1541807D01*
X2255307Y1529642D02*
Y1541807D01*
X2255327Y1529642D02*
Y1541807D01*
X2255346Y1529642D02*
Y1541807D01*
X2255366Y1529642D02*
Y1541807D01*
X2255386Y1529642D02*
Y1541807D01*
X2255406Y1529642D02*
Y1541807D01*
X2255425Y1529642D02*
Y1541807D01*
X2255445Y1529642D02*
Y1541807D01*
X2255465Y1529642D02*
Y1541807D01*
X2255484Y1529642D02*
Y1541807D01*
X2255504Y1529642D02*
Y1541807D01*
X2255524Y1529642D02*
Y1541807D01*
X2255543Y1529642D02*
Y1541807D01*
X2255563Y1529642D02*
Y1541807D01*
X2255583Y1529642D02*
Y1541807D01*
X2255602Y1529642D02*
Y1541807D01*
X2255622Y1529642D02*
Y1541807D01*
X2255642Y1529642D02*
Y1541807D01*
X2255661Y1529642D02*
Y1541807D01*
X2255681Y1529642D02*
Y1541807D01*
X2255701Y1529642D02*
Y1541807D01*
X2255720Y1529642D02*
Y1541807D01*
X2255740Y1529642D02*
Y1541807D01*
X2255760Y1529642D02*
Y1541807D01*
X2255780Y1529642D02*
Y1541807D01*
X2255799Y1529642D02*
Y1541807D01*
X2255819Y1529642D02*
Y1541807D01*
X2255839Y1529642D02*
Y1541807D01*
X2255858Y1529642D02*
Y1541807D01*
X2255878Y1529642D02*
Y1541807D01*
X2255898Y1529642D02*
Y1541807D01*
X2255917Y1529642D02*
Y1541807D01*
X2255937Y1529642D02*
Y1541807D01*
X2255957Y1529642D02*
Y1541807D01*
X2255976Y1529642D02*
Y1541807D01*
X2255996Y1529642D02*
Y1541807D01*
X2256016Y1529642D02*
Y1541807D01*
X2256035Y1529642D02*
Y1541807D01*
X2256055Y1529642D02*
Y1541807D01*
X2256075Y1529642D02*
Y1541807D01*
X2256094Y1529642D02*
Y1541807D01*
X2256114Y1529642D02*
Y1541807D01*
X2256134Y1529642D02*
Y1541807D01*
X2256154Y1529642D02*
Y1541807D01*
X2256173Y1529642D02*
Y1541807D01*
X2256193Y1529642D02*
Y1541807D01*
X2256213Y1529642D02*
Y1541807D01*
X2256232Y1529642D02*
Y1541807D01*
X2256252Y1529642D02*
Y1541807D01*
X2256272Y1529642D02*
Y1541807D01*
X2256291Y1529642D02*
Y1541807D01*
X2256311Y1529642D02*
Y1541807D01*
X2256331Y1529642D02*
Y1541807D01*
X2256350Y1529642D02*
Y1541807D01*
X2256370Y1529642D02*
Y1541807D01*
X2256390Y1529642D02*
Y1541807D01*
X2256409Y1529642D02*
Y1541807D01*
X2256429Y1529642D02*
Y1541807D01*
X2256449Y1529642D02*
Y1541807D01*
X2256469Y1529642D02*
Y1541807D01*
X2256488Y1529642D02*
Y1541807D01*
X2256508Y1529642D02*
Y1541807D01*
X2256528Y1529642D02*
Y1541807D01*
X2256547Y1529642D02*
Y1541807D01*
X2256567Y1529642D02*
Y1541807D01*
X2256587Y1529642D02*
Y1541807D01*
X2256606Y1529642D02*
Y1541807D01*
X2256626Y1529642D02*
Y1541807D01*
X2256646Y1529642D02*
Y1541807D01*
X2256665Y1529642D02*
Y1541807D01*
X2256685Y1529642D02*
Y1541807D01*
X2256705Y1529642D02*
Y1541807D01*
X2256724Y1529642D02*
Y1541807D01*
X2256744Y1529642D02*
Y1541807D01*
X2256764Y1529642D02*
Y1541807D01*
X2256783Y1529642D02*
Y1541807D01*
X2256803Y1529642D02*
Y1541807D01*
X2256823Y1529642D02*
Y1541807D01*
X2256843Y1529642D02*
Y1541807D01*
X2256862Y1529642D02*
Y1541807D01*
X2256882Y1529642D02*
Y1541807D01*
X2256902Y1529642D02*
Y1541807D01*
X2256921Y1529642D02*
Y1541807D01*
X2256941Y1529642D02*
Y1541807D01*
X2256961Y1529642D02*
Y1541807D01*
X2256980Y1529642D02*
Y1541807D01*
X2257000Y1529642D02*
Y1541807D01*
X2257020Y1529642D02*
Y1541807D01*
X2257039Y1529642D02*
Y1541807D01*
X2257059Y1529642D02*
Y1541807D01*
X2257079Y1529642D02*
Y1541807D01*
X2257098Y1529642D02*
Y1541807D01*
X2257118Y1529642D02*
Y1541807D01*
X2257138Y1529642D02*
Y1541807D01*
X2257157Y1529642D02*
Y1541807D01*
X2257177Y1529642D02*
Y1541807D01*
X2257197Y1529642D02*
Y1541807D01*
X2257217Y1529642D02*
Y1541807D01*
X2257236Y1529642D02*
Y1541807D01*
X2257256Y1529642D02*
Y1541807D01*
X2257276Y1529642D02*
Y1541807D01*
X2257295Y1529642D02*
Y1541807D01*
X2257315Y1529642D02*
Y1541807D01*
X2257335Y1529642D02*
Y1541807D01*
X2257354Y1529642D02*
Y1541807D01*
X2257374Y1529642D02*
Y1541807D01*
X2257394Y1529642D02*
Y1541807D01*
X2257413Y1529642D02*
Y1541807D01*
X2257433Y1529642D02*
Y1541807D01*
X2257453Y1529642D02*
Y1541807D01*
X2257472Y1529642D02*
Y1541807D01*
X2257492Y1529642D02*
Y1541807D01*
X2257512Y1529642D02*
Y1541807D01*
X2257531Y1529642D02*
Y1541807D01*
X2257551Y1529642D02*
Y1541807D01*
X2257571Y1529642D02*
Y1541807D01*
X2257591Y1529642D02*
Y1541807D01*
X2257610Y1529642D02*
Y1541807D01*
X2257630Y1529642D02*
Y1541807D01*
X2257650Y1529642D02*
Y1541807D01*
X2257669Y1529642D02*
Y1541807D01*
X2257689Y1529642D02*
Y1541807D01*
X2257709Y1529642D02*
Y1541807D01*
X2257728Y1529642D02*
Y1541807D01*
X2257748Y1529642D02*
Y1541807D01*
X2257768Y1529642D02*
Y1541807D01*
X2257787Y1529642D02*
Y1541807D01*
X2257807Y1529642D02*
Y1541807D01*
X2257827Y1529642D02*
Y1541807D01*
X2257846Y1529642D02*
Y1541807D01*
X2257866Y1529642D02*
Y1541807D01*
X2257886Y1529642D02*
Y1541807D01*
X2257906Y1529642D02*
Y1541807D01*
X2257925Y1529642D02*
Y1541807D01*
X2257945Y1529642D02*
Y1541807D01*
X2257965Y1529642D02*
Y1541807D01*
X2257984Y1529642D02*
Y1541807D01*
X2258004Y1529642D02*
Y1541807D01*
X2258024Y1529642D02*
Y1541807D01*
X2258043Y1529642D02*
Y1541807D01*
X2258063Y1529642D02*
Y1541807D01*
X2258083Y1529642D02*
Y1541807D01*
X2258102Y1529642D02*
Y1541807D01*
X2258122Y1529642D02*
Y1541807D01*
X2258142Y1529642D02*
Y1541807D01*
X2258161Y1529642D02*
Y1541807D01*
X2258181Y1529642D02*
Y1541807D01*
X2258201Y1529642D02*
Y1541807D01*
X2258220Y1529642D02*
Y1541807D01*
X2258240Y1529642D02*
Y1541807D01*
X2258260Y1529642D02*
Y1541807D01*
X2258280Y1529642D02*
Y1541807D01*
X2258299Y1529642D02*
Y1541807D01*
X2258319Y1529642D02*
Y1541807D01*
X2258339Y1529642D02*
Y1541807D01*
X2258358Y1529642D02*
Y1541807D01*
X2258378Y1529642D02*
Y1541807D01*
X2258398Y1529642D02*
Y1541807D01*
X2258417Y1529642D02*
Y1541807D01*
X2258437Y1529642D02*
Y1541807D01*
X2258457Y1529642D02*
Y1541807D01*
X2258476Y1529642D02*
Y1541807D01*
X2258496Y1529642D02*
Y1541807D01*
X2258516Y1529642D02*
Y1541807D01*
X2258535Y1529642D02*
Y1541807D01*
X2258555Y1529642D02*
Y1541807D01*
X2258575Y1529642D02*
Y1541807D01*
X2258594Y1529642D02*
Y1541807D01*
X2258614Y1529642D02*
Y1541807D01*
X2258634Y1529642D02*
Y1541807D01*
X2258654Y1529642D02*
Y1541807D01*
X2258673Y1529642D02*
Y1541807D01*
X2258693Y1529642D02*
Y1541807D01*
X2258713Y1529642D02*
Y1541807D01*
X2258732Y1529642D02*
Y1541807D01*
X2258752Y1529642D02*
Y1541807D01*
X2258772Y1529642D02*
Y1541807D01*
X2258791Y1529642D02*
Y1541807D01*
X2258811Y1529642D02*
Y1541807D01*
X2258831Y1529642D02*
Y1541807D01*
X2258850Y1529642D02*
Y1541807D01*
X2258870Y1529642D02*
Y1541807D01*
X2258890Y1529642D02*
Y1541807D01*
X2258909Y1529642D02*
Y1541807D01*
X2258929Y1529642D02*
Y1541807D01*
X2258949Y1529642D02*
Y1541807D01*
X2258969Y1529642D02*
Y1541807D01*
X2258988Y1529642D02*
Y1541807D01*
X2259008Y1529642D02*
Y1541807D01*
X2259028Y1529642D02*
Y1541807D01*
X2259047Y1529642D02*
Y1541807D01*
X2259067Y1529642D02*
Y1541807D01*
X2259087Y1529642D02*
Y1541807D01*
X2259106Y1529642D02*
Y1541807D01*
X2259126Y1529642D02*
Y1541807D01*
X2259146Y1529642D02*
Y1541807D01*
X2259165Y1529642D02*
Y1541807D01*
X2259185Y1529642D02*
Y1541807D01*
X2259205Y1529642D02*
Y1541807D01*
X2259224Y1529642D02*
Y1541807D01*
X2259244Y1529642D02*
Y1541807D01*
X2259264Y1529642D02*
Y1541807D01*
X2259283Y1529642D02*
Y1541807D01*
X2259303Y1529642D02*
Y1541807D01*
X2259323Y1529642D02*
Y1541807D01*
X2259343Y1529642D02*
Y1541807D01*
X2259362Y1529642D02*
Y1541807D01*
X2259382Y1529642D02*
Y1541807D01*
X2259402Y1529642D02*
Y1541807D01*
X2259421Y1529642D02*
Y1541807D01*
X2259441Y1529642D02*
Y1541807D01*
X2259461Y1529642D02*
Y1541807D01*
X2259480Y1529642D02*
Y1541807D01*
X2259500Y1529642D02*
Y1541807D01*
X2259520Y1529642D02*
Y1541807D01*
X2259539Y1529642D02*
Y1541807D01*
X2259559Y1529642D02*
Y1541807D01*
X2259579Y1529642D02*
Y1541807D01*
X2259598Y1529642D02*
Y1541807D01*
X2259618Y1529642D02*
Y1541807D01*
X2259638Y1529642D02*
Y1541807D01*
X2259657Y1529642D02*
Y1541807D01*
X2259677Y1529642D02*
Y1541807D01*
X2259697Y1529642D02*
Y1541807D01*
X2259717Y1529642D02*
Y1541807D01*
X2259736Y1529642D02*
Y1541807D01*
X2259756Y1529642D02*
Y1541807D01*
X2259776Y1529642D02*
Y1541807D01*
X2259795Y1529642D02*
Y1541807D01*
X2259815Y1529642D02*
Y1541807D01*
X2259835Y1529642D02*
Y1541807D01*
X2259854Y1529642D02*
Y1541807D01*
X2259874Y1529642D02*
Y1541807D01*
X2259894Y1529642D02*
Y1541807D01*
X2259913Y1529642D02*
Y1541807D01*
X2259933Y1529642D02*
Y1541807D01*
X2259953Y1529642D02*
Y1541807D01*
X2259972Y1529642D02*
Y1541807D01*
X2259992Y1529642D02*
Y1541807D01*
X2260012Y1529642D02*
Y1541807D01*
X2260031Y1529642D02*
Y1541807D01*
X2260051Y1529642D02*
Y1541807D01*
X2260071Y1529642D02*
Y1541807D01*
X2260091Y1529642D02*
Y1541807D01*
X2260110Y1529642D02*
Y1541807D01*
X2260130Y1529642D02*
Y1541807D01*
X2260150Y1529642D02*
Y1541807D01*
X2260169Y1529642D02*
Y1541807D01*
X2260189Y1529642D02*
Y1541807D01*
X2260209Y1529642D02*
Y1541807D01*
X2260228Y1529642D02*
Y1541807D01*
X2260248Y1529642D02*
Y1541807D01*
X2260268Y1529642D02*
Y1541807D01*
X2260287Y1529642D02*
Y1541807D01*
X2260307Y1529642D02*
Y1541807D01*
X2260327Y1529642D02*
Y1541807D01*
X2260346Y1529642D02*
Y1541807D01*
X2260366Y1529642D02*
Y1541807D01*
X2260386Y1529642D02*
Y1541807D01*
X2260406Y1529642D02*
Y1541807D01*
X2260425Y1529642D02*
Y1541807D01*
X2260445Y1529642D02*
Y1541807D01*
X2260465Y1529642D02*
Y1541807D01*
X2260484Y1529642D02*
Y1541807D01*
X2260504Y1529642D02*
Y1541807D01*
X2260524Y1529642D02*
Y1541807D01*
X2260543Y1529642D02*
Y1541807D01*
X2260563Y1529642D02*
Y1541807D01*
X2260583Y1529642D02*
Y1541807D01*
X2260602Y1529642D02*
Y1541807D01*
X2260622Y1529642D02*
Y1541807D01*
X2260642Y1529642D02*
Y1541807D01*
X2260661Y1529642D02*
Y1541807D01*
X2260681Y1529642D02*
Y1541807D01*
X2260701Y1529642D02*
Y1541807D01*
X2260720Y1529642D02*
Y1541807D01*
X2260740Y1529642D02*
Y1541807D01*
X2260760Y1529642D02*
Y1541807D01*
X2260780Y1529642D02*
Y1541807D01*
X2260799Y1529642D02*
Y1541807D01*
X2260819Y1529642D02*
Y1541807D01*
X2260839Y1529642D02*
Y1541807D01*
X2260858Y1529642D02*
Y1541807D01*
X2260878Y1529642D02*
Y1541807D01*
X2260898Y1529642D02*
Y1541807D01*
X2260917Y1529642D02*
Y1541807D01*
X2260937Y1529642D02*
Y1541807D01*
X2260957Y1529642D02*
Y1541807D01*
X2260976Y1529642D02*
Y1541807D01*
X2260996Y1529642D02*
Y1541807D01*
X2261016Y1529642D02*
Y1541807D01*
X2261035Y1529642D02*
Y1541807D01*
X2261055Y1529650D02*
Y1541807D01*
X2261075Y1529670D02*
Y1541807D01*
X2261094Y1529689D02*
Y1541807D01*
X2261114Y1529709D02*
Y1541807D01*
X2261134Y1529729D02*
Y1541807D01*
X2261154Y1529748D02*
Y1541807D01*
X2261173Y1529768D02*
Y1541807D01*
X2261193Y1529788D02*
Y1541807D01*
X2261213Y1529807D02*
Y1541807D01*
X2261232Y1529827D02*
Y1541807D01*
X2261252Y1529847D02*
Y1541807D01*
X2261272Y1529866D02*
Y1541807D01*
X2261291Y1529886D02*
Y1541807D01*
X2261311Y1529906D02*
Y1541807D01*
X2261331Y1529925D02*
Y1541807D01*
X2261350Y1529945D02*
Y1541807D01*
X2261370Y1529965D02*
Y1541807D01*
X2261390Y1529985D02*
Y1541807D01*
X2261409Y1530004D02*
Y1541807D01*
X2261429Y1530024D02*
Y1541807D01*
X2261449Y1530044D02*
Y1541807D01*
X2261469Y1530063D02*
Y1541807D01*
X2261488Y1530083D02*
Y1541807D01*
X2261508Y1530103D02*
Y1541807D01*
X2261528Y1530122D02*
Y1541807D01*
X2261547Y1530142D02*
Y1541807D01*
X2261567Y1530162D02*
Y1541807D01*
X2261587Y1530181D02*
Y1541807D01*
X2261606Y1530201D02*
Y1541807D01*
X2261626Y1530221D02*
Y1541807D01*
X2261646Y1530240D02*
Y1541807D01*
X2261665Y1530260D02*
Y1541807D01*
X2261685Y1530280D02*
Y1541807D01*
X2261705Y1530299D02*
Y1541807D01*
X2261724Y1530319D02*
Y1541807D01*
X2261744Y1530339D02*
Y1541807D01*
X2261764Y1530359D02*
Y1541807D01*
X2261783Y1530378D02*
Y1541807D01*
X2261803Y1530398D02*
Y1541807D01*
X2261823Y1530418D02*
Y1541807D01*
X2261843Y1530437D02*
Y1541807D01*
X2261862Y1530457D02*
Y1541807D01*
X2261882Y1530477D02*
Y1541807D01*
X2261902Y1530496D02*
Y1541807D01*
X2261921Y1530516D02*
Y1541807D01*
X2261941Y1530536D02*
Y1541807D01*
X2261961Y1530555D02*
Y1541807D01*
X2261980Y1530575D02*
Y1541807D01*
X2262000Y1530595D02*
Y1541807D01*
X2262020Y1530614D02*
Y1541807D01*
X2262039Y1530634D02*
Y1541807D01*
X2262059Y1530654D02*
Y1541807D01*
X2262079Y1530674D02*
Y1541807D01*
X2262098Y1530693D02*
Y1541807D01*
X2262118Y1530713D02*
Y1541807D01*
X2262138Y1530733D02*
Y1541807D01*
X2262157Y1530752D02*
Y1541807D01*
X2262177Y1530772D02*
Y1541807D01*
X2262197Y1530792D02*
Y1541807D01*
X2262217Y1530811D02*
Y1541807D01*
X2262236Y1530831D02*
Y1541807D01*
X2262256Y1530851D02*
Y1541807D01*
X2262276Y1530870D02*
Y1541807D01*
X2262295Y1530890D02*
Y1541807D01*
X2262315Y1530910D02*
Y1541807D01*
X2262335Y1530929D02*
Y1541807D01*
X2262354Y1530949D02*
Y1541807D01*
X2262374Y1530969D02*
Y1541807D01*
X2262394Y1530988D02*
Y1541807D01*
G74*
X0Y0D02*
M02*
