%
T1C.008F0S0
X003727Y002587
X004247Y002587
X002187Y009007
X002767Y009927
X00316Y0104
X00288Y01084
X002927Y011667
X003047Y011867
X003647Y012447
X0025Y01752
X003687Y017627
X00428Y01768
X00298Y01782
X00348Y01782
X00486Y01782
X00458Y01782
X00749Y01791
X005987Y017907
X00698Y0179
X00648Y01788
X005707Y017527
X006787Y016267
X007727Y016247
X006987Y016107
X007087Y015127
X006027Y012907
X00674Y01284
X006227Y012727
X00726Y01232
X00676Y01164
X00642Y0107
X00624Y01048
X006487Y009867
X006807Y009707
X006487Y009527
X006567Y008867
X005567Y007627
X005567Y006667
X006267Y006067
X006167Y005827
X005907Y005827
X006627Y005807
X007547Y004907
X006867Y004907
X005887Y004807
X007147Y004687
X006487Y002187
X010107Y006327
X009407Y006487
X009827Y006547
X00888Y0066
X010287Y006687
X00891Y0069
X008287Y007007
X010268Y007067
X009387Y007587
X008627Y007747
X008887Y007767
X008727Y008307
X010317Y008347
X009587Y008447
X009207Y008467
X009007Y008567
X008207Y008607
X009087Y008827
X009267Y009067
X009067Y009247
X008187Y009607
X008427Y009607
X007967Y009727
X008207Y009927
X008427Y009947
X009227Y010367
X009467Y010367
X008987Y010807
X009327Y010887
X008107Y011087
X008947Y011247
X009647Y011467
X008287Y011587
X009427Y011727
X008407Y012127
X00954Y01216
X00932Y0122
X008727Y012727
X008967Y012987
X008727Y012987
X010107Y013127
X008547Y016067
X008087Y016107
X008307Y016147
X009747Y016167
X008747Y016247
X010227Y016347
X00848Y0179
X00798Y0179
X010727Y016267
X011267Y016087
X011767Y016047
X011607Y015707
X011107Y014767
X011467Y014607
X011887Y014467
X011267Y014407
X010487Y014347
X011487Y014187
X010687Y013887
X011607Y013747
X010707Y013627
X011055Y013507
X011967Y013407
X012327Y013187
X012007Y013147
X011907Y012447
X011147Y012447
X012427Y012347
X010647Y012327
X012727Y012127
X011787Y012127
X011267Y012027
X010627Y012027
X012087Y012007
X011587Y012007
X011147Y011827
X010967Y011707
X010647Y011707
X011457Y011697
X012467Y011687
X011847Y011607
X012847Y011507
X010847Y011397
X011147Y011387
X012087Y011367
X010627Y011087
X012407Y011067
X012787Y010967
X010947Y010767
X01128Y01075
X01248Y01066
X010847Y010547
X01137Y0105
X01232Y01046
X011767Y010427
X011147Y010427
X010647Y010247
X012007Y010187
X010847Y010127
X011597Y010127
X011147Y010087
X012407Y009807
X010827Y009807
X011147Y009627
X011687Y009567
X012147Y009487
X011147Y009307
X011367Y009247
X011687Y009247
X010947Y009187
X010647Y009187
X012847Y009187
X011477Y008667
X010947Y008657
X010627Y008657
X012547Y008547
X012407Y008357
X010627Y008347
X011167Y008347
X011797Y008347
X012107Y008347
X011477Y008347
X010947Y008247
X012717Y008237
X011577Y008037
X012207Y008037
X011897Y008037
X011257Y008027
X010627Y008027
X012837Y007937
X010947Y007727
X011887Y007717
X012827Y007627
X011213Y007287
X012827Y007287
X012147Y007027
X012387Y007027
X011027Y006947
X011528Y006847
X011369Y006626
X012147Y006587
X011187Y006467
X012647Y006287
X012147Y006267
X011887Y006267
X012647Y006067
X011327Y006047
X012447Y005967
X012767Y005847
X012647Y005647
X011887Y005547
X012847Y005387
X012667Y005207
X012047Y004927
X011787Y004927
X012647Y004587
X012307Y004167
X012767Y004147
X012747Y002547
X011487Y002147
X011987Y002147
X013227Y002187
X013987Y002187
X014487Y002447
X014767Y002447
X013487Y002487
X014067Y003887
X013587Y005027
X013027Y005247
X013627Y006147
X014207Y006887
X013567Y007347
X013457Y007707
X014927Y007727
X014107Y007907
X013467Y008027
X013777Y008027
X013047Y008037
X014927Y008047
X014607Y008047
X013367Y008247
X014107Y008247
X013787Y008347
X013147Y008347
X014607Y008367
X014107Y008547
X013047Y008557
X013467Y008557
X014927Y008667
X014607Y008687
X013747Y008767
X014627Y008987
X014927Y008987
X013107Y009247
X014207Y009247
X014947Y009287
X014607Y009307
X014207Y009587
X014627Y009607
X014927Y009627
X014927Y009927
X014607Y009947
X01308Y01002
X01358Y01018
X014207Y010187
X014927Y010247
X014427Y010447
X0139Y0105
X01325Y0105
X014727Y010547
X015247Y010567
X01375Y01065
X01345Y01065
X013087Y010727
X014427Y010747
X014947Y010867
X014607Y010887
X013747Y010967
X013427Y010967
X013567Y011127
X014927Y011187
X013107Y011187
X014607Y011207
X013787Y011387
X014607Y011507
X014927Y011507
X013727Y011747
X014927Y012007
X014307Y012027
X013047Y012027
X013687Y012027
X013987Y012027
X013367Y012027
X014627Y012027
X013047Y012327
X013347Y012327
X014927Y012327
X013987Y012327
X013667Y012327
X014287Y012327
X014607Y012327
X013987Y012647
X014187Y013247
X014267Y013827
X014447Y013987
X014667Y014147
X014727Y016007
X014727Y016327
X014987Y017887
X016487Y017867
X016987Y017867
X015487Y017847
X015987Y017847
X017487Y017827
X016987Y016287
X017487Y016287
X016487Y016247
X015727Y015727
X017667Y015367
X016467Y015067
X015727Y014967
X016007Y014967
X017027Y014947
X017267Y014947
X016787Y014947
X017587Y014847
X017947Y014307
X015467Y013047
X016887Y012127
X017837Y011637
X016017Y011017
X015587Y010567
X016767Y010527
X016397Y010497
X016127Y010317
X016727Y010307
X016477Y010287
X016527Y009847
X016847Y009547
X016287Y009207
X017187Y008827
X016567Y008767
X016887Y008607
X017947Y008547
X017187Y008347
X016587Y008147
X017667Y008027
X015787Y008027
X016667Y007667
X017547Y007407
X016907Y006627
X017327Y006627
X016307Y006587
X016567Y006427
X016207Y006147
X015947Y006147
X016847Y006087
X01788Y00608
X017387Y006067
X016607Y003907
X016227Y002567
X016987Y002547
X015987Y002547
X016707Y002507
X016167Y002307
X017487Y002287
X015567Y002247
X017727Y002167
X017237Y002087
X016747Y002087
X019987Y002187
X018227Y002207
X018727Y002207
X018487Y002387
X019487Y002507
X018007Y005127
X018247Y005127
X018887Y005147
X019387Y005147
X019887Y005147
X01988Y00608
X019387Y006087
X0189Y0061
X020387Y006107
X018387Y006167
X019247Y006587
X019527Y006587
X019827Y006947
X019467Y007227
X019127Y007247
X019827Y007527
X019327Y007547
X019347Y007867
X018427Y007987
X019147Y008007
X018647Y008027
X019687Y008207
X018127Y008367
X019667Y008467
X019467Y008607
X019147Y008607
X018487Y008688
X018127Y008707
X019947Y008927
X019327Y009107
X018587Y009267
X019167Y009267
X018207Y009387
X019867Y009467
X018164Y009631
X018587Y009667
X019467Y009747
X019747Y009847
X020447Y009907
X020247Y010047
X019067Y010167
X018107Y010167
X018307Y010267
X020137Y010327
X020007Y010507
X019327Y010527
X019827Y010637
X018287Y011127
X019007Y011147
X018707Y011147
X018527Y011147
X020307Y011387
X020087Y011387
X018327Y011667
X018507Y011667
X019567Y011707
X019247Y011707
X020347Y013187
X019407Y013607
X019107Y013627
X019407Y013807
X019627Y013827
X018647Y014307
X018307Y014327
X020367Y014367
X020107Y014387
X019847Y014467
X019627Y014567
X020067Y014867
X018287Y015027
X018747Y015027
X020287Y015807
X019897Y015877
X019427Y015967
X018987Y016087
X018487Y016287
X017987Y016287
X018487Y017847
X017987Y017867
X019487Y017887
X019987Y017887
X018987Y017887
X021487Y017907
X021987Y017907
X020987Y017887
X022487Y017887
X02048Y01788
X020687Y015707
X021027Y015687
X021007Y014927
X021407Y014907
X021227Y013927
X020867Y013827
X020467Y013627
X021227Y013607
X021427Y013427
X020847Y013427
X021667Y013387
X020527Y011707
X020807Y011707
X021667Y011547
X021627Y011227
X020975Y011077
X020457Y010827
X021187Y010447
X020907Y010047
X020975Y009817
X021667Y009347
X020607Y009187
X020987Y008887
X021247Y008827
X021928Y008667
X021007Y008527
X021027Y008187
X020567Y008007
X020567Y007767
X021667Y007447
X020687Y007447
X020687Y007147
X020467Y007007
X020647Y006827
X020847Y006587
X021507Y006487
X020547Y006387
X021067Y006267
X021327Y006267
X022267Y006127
X022007Y006127
X020567Y005087
X022587Y002507
X020487Y002507
X023187Y002187
X023487Y002247
X025227Y008387
X024407Y008427
X024807Y008427
X024947Y008767
X024007Y011827
X023847Y012027
X024047Y012207
X024887Y012307
X023967Y012587
X024467Y012667
X025067Y012727
X023627Y015647
X025127Y016047
X023627Y016247
X024987Y016327
X024747Y016347
X023487Y017867
X024987Y017887
X023987Y017887
X022987Y017887
X024487Y017887
X025987Y017867
X026487Y017847
X025487Y017837
X026485Y016321
X026447Y012807
X026767Y012647
X026367Y012447
X026167Y005647
X025527Y005487
X025727Y003747
X026487Y002547
T2C.012F095S3
X00075Y00045
X00105Y00045
X00135Y00045
X00165Y00045
X00195Y00045
X00255Y00045
X00285Y00045
X00225Y00045
X00045Y0006
X00045Y0009
X0012Y0012
X00045Y0012
X00045Y0015
X00045Y0018
X00045Y0021
X00045Y0024
X002507Y002427
X00045Y0027
X00045Y003
X00045Y0033
X002007Y003527
X00045Y0036
X00045Y0039
X0016Y004
X002207Y004107
X00045Y0042
X00045Y0045
X002847Y004647
X00045Y0048
X002207Y005087
X00045Y0051
X0016Y0054
X00045Y0054
X00045Y0057
X00045Y006
X002367Y006167
X00045Y0063
X00045Y0066
X00045Y0069
X00045Y0072
X00045Y0075
X002387Y007647
X00045Y0078
X00045Y0081
X00045Y0084
X00045Y0087
X00045Y009
X00045Y0093
X00045Y0096
X00045Y0099
X00045Y0102
X00045Y0105
X00045Y0108
X00045Y0111
X00045Y0114
X00045Y0117
X00226Y01184
X00045Y012
X00045Y0123
X00045Y0126
X0015Y0128
X00224Y0128
X00045Y0129
X00045Y0132
X00045Y0135
X00226Y0136
X00045Y0138
X00195Y01399
X00045Y0141
X00045Y0144
X00195Y01441
X00245Y01441
X00145Y01442
X00045Y0147
X00045Y015
X00045Y0153
X00045Y0156
X00045Y0159
X00045Y0162
X00045Y0165
X00045Y0168
X00045Y0171
X00045Y0174
X0012Y0176
X00045Y0177
X00045Y018
X00045Y0183
X00125Y0184
X00155Y0185
X00205Y0185
X00045Y0186
X00045Y0189
X00045Y0192
X00165Y01935
X00075Y01935
X00135Y01935
X00105Y01935
X00225Y01935
X00255Y01935
X00195Y01935
X00285Y01935
X00315Y01935
X0036Y01935
X0042Y01935
X0045Y01935
X0051Y01935
X0054Y01935
X0039Y01935
X0033Y01935
X0048Y01935
X003987Y017807
X0054Y0178
X0044Y0155
X0054Y0155
X0049Y0155
X003287Y015187
X004427Y015087
X003607Y014787
X004747Y012807
X005007Y012587
X004Y01164
X002987Y011127
X004937Y010837
X004537Y010837
X00388Y01056
X004537Y010337
X004937Y010337
X00396Y01
X004826Y008967
X004427Y008887
X003607Y008827
X003207Y007667
X004027Y006867
X004887Y006867
X003187Y006837
X004027Y006147
X003207Y006147
X00464Y00468
X004447Y004387
X002987Y002427
X003487Y002227
X004487Y002207
X00465Y00045
X00435Y00045
X00405Y00045
X00375Y00045
X00345Y00045
X00315Y00045
X00495Y00045
X00525Y00045
X00705Y00045
X00675Y00045
X00645Y00045
X00615Y00045
X00585Y00045
X00555Y00045
X00765Y00045
X00735Y00045
X005987Y002207
X007487Y002247
X007127Y002347
X005907Y003847
X007927Y004047
X005947Y004287
X007567Y005427
X007587Y006607
X006547Y007227
X007507Y007467
X005827Y008267
X007707Y008367
X006807Y008647
X006767Y009307
X007927Y010067
X0059Y01194
X00634Y01206
X005487Y014438
X006107Y016247
X0057Y01935
X0063Y01935
X00675Y01935
X00705Y01935
X00765Y01935
X00735Y01935
X00645Y01935
X006Y01935
X00795Y01935
X00915Y01935
X00855Y01935
X00825Y01935
X00885Y01935
X00945Y01935
X00975Y01935
X01035Y01935
X01005Y01935
X008987Y017807
X009747Y017807
X009267Y016107
X009007Y015407
X00925Y01517
X00902Y01516
X009007Y014907
X009027Y014507
X008047Y006707
X010347Y005887
X009827Y005887
X009827Y005487
X010347Y005487
X008067Y005247
X009827Y004587
X009487Y003847
X007987Y002427
X008487Y002227
X01035Y00045
X00855Y00045
X00915Y00045
X00945Y00045
X00975Y00045
X00825Y00045
X00795Y00045
X01005Y00045
X00885Y00045
X01125Y00045
X01095Y00045
X01065Y00045
X01215Y00045
X01185Y00045
X01245Y00045
X01275Y00045
X01155Y00045
X010987Y002527
X012787Y009887
X012787Y010207
X012227Y016007
X01155Y01935
X01215Y01935
X01245Y01935
X01065Y01935
X01095Y01935
X01185Y01935
X01125Y01935
X01275Y01935
X01305Y01935
X01335Y01935
X01365Y01935
X01425Y01935
X01455Y01935
X01485Y01935
X01515Y01935
X01395Y01935
X01427Y01779
X012987Y016167
X013727Y009907
X0131Y00954
X013707Y009187
X014727Y006307
X013727Y003867
X01305Y00045
X01485Y00045
X01395Y00045
X01515Y00045
X01455Y00045
X01425Y00045
X01365Y00045
X01335Y00045
X01635Y00045
X01755Y00045
X01725Y00045
X01695Y00045
X01665Y00045
X01575Y00045
X01605Y00045
X01545Y00045
X01785Y00045
X015487Y002507
X016027Y003887
X015547Y003887
X016107Y005527
X016607Y005527
X016567Y006987
X015467Y007147
X017587Y008787
X017507Y009827
X017467Y011607
X01755Y01935
X01575Y01935
X01545Y01935
X01725Y01935
X01605Y01935
X01635Y01935
X01695Y01935
X01665Y01935
X01785Y01935
X01965Y01935
X01815Y01935
X01845Y01935
X01875Y01935
X01995Y01935
X01935Y01935
X01905Y01935
X02025Y01935
X020167Y012087
X019787Y011367
X018607Y010247
X018127Y007287
X018587Y007287
X018927Y006607
X019647Y005487
X020147Y005487
X018987Y002527
X019987Y002467
X01935Y00045
X01905Y00045
X02025Y00045
X01965Y00045
X01875Y00045
X01845Y00045
X01995Y00045
X01815Y00045
X02175Y00045
X02055Y00045
X02145Y00045
X02085Y00045
X02115Y00045
X02205Y00045
X02235Y00045
X02265Y00045
X022507Y002207
X020487Y002227
X021487Y002247
X022487Y003947
X021647Y004107
X022087Y004127
X020627Y005487
X021647Y005487
X022007Y006727
X021727Y007027
X02284Y0074
X022427Y007427
X02282Y0079
X022427Y007927
X021787Y008287
X02284Y00842
X02284Y00892
X0218Y009
X022427Y009427
X020567Y009627
X021807Y009687
X022Y01
X021667Y010307
X022427Y010427
X021687Y010607
X021687Y010927
X022Y0112
X021267Y011967
X02115Y01935
X02145Y01935
X02085Y01935
X02055Y01935
X02235Y01935
X02265Y01935
X02205Y01935
X02175Y01935
X02325Y01935
X02415Y01935
X02295Y01935
X02355Y01935
X02385Y01935
X02445Y01935
X0249Y01935
X0252Y01935
X024447Y015727
X02332Y01182
X0233Y01136
X02426Y01134
X0238Y01134
X0238Y01084
X0233Y0108
X02422Y0108
X0233Y01028
X0238Y01028
X02426Y01026
X0238Y00974
X0233Y00972
X02424Y00972
X0238Y00924
X0233Y00922
X02426Y00922
X02428Y00882
X0238Y00878
X02328Y00868
X023667Y006987
X025347Y006947
X024447Y006387
X025227Y005507
X025387Y004987
X025387Y004607
X023447Y004587
X023067Y004007
X02325Y00045
X02445Y00045
X02475Y00045
X02535Y00045
X02385Y00045
X02295Y00045
X02415Y00045
X02355Y00045
X02505Y00045
X02715Y00045
X02565Y00045
X02775Y00045
X02745Y00045
X02655Y00045
X02595Y00045
X02625Y00045
X02685Y00045
X026987Y002287
X0276Y0032
X027567Y004307
X027807Y006687
X026247Y006927
X027127Y006947
X025807Y008307
X0256Y0086
X026Y0086
X0256Y009
X026Y009
X0276Y0092
X0256Y0094
X026Y0094
X0276Y0096
X0256Y01
X0276Y01
X026Y01
X026Y0104
X0276Y0104
X0256Y0106
X026Y0108
X0276Y0108
X0255Y0111
X0276Y0112
X026Y0112
X0276Y0116
X0255Y0117
X0261Y0117
X0276Y012
X026Y01222
X0276Y0124
X0276Y0128
X025667Y014227
X025587Y015727
X027107Y015987
X027427Y016267
X0274Y01694
X0255Y01935
X0279Y01935
X0273Y01935
X0264Y01935
X0276Y01935
X0258Y01935
X0261Y01935
X0267Y01935
X027Y01935
X0285Y01935
X0282Y01935
X0288Y01935
X02895Y01905
X02895Y01875
X02895Y01845
X02895Y01815
X02895Y01785
X0282Y0176
X02895Y01755
X02895Y01725
X0282Y017
X02895Y01695
X02895Y01665
X0284Y0164
X02895Y01635
X02895Y01605
X02895Y01575
X02895Y01545
X0284Y0154
X02895Y01515
X0284Y015
X02895Y01485
X0284Y0146
X02895Y01455
X02895Y01425
X0284Y0142
X02895Y01395
X0284Y0138
X02895Y01365
X0284Y0134
X02895Y01335
X02895Y01305
X0284Y013
X02895Y01275
X02895Y01245
X02895Y01215
X02895Y01185
X02895Y01155
X02895Y01125
X02895Y01095
X02895Y01065
X02895Y01035
X02895Y01005
X02895Y00975
X02895Y00945
X02895Y00915
X02895Y00885
X02895Y00855
X02895Y00825
X02895Y00795
X02895Y00765
X02895Y00735
X02895Y00705
X02895Y00675
X02895Y00645
X02895Y00615
X02895Y00585
X02895Y00555
X02895Y00525
X02895Y00495
X02895Y00465
X02895Y00435
X02895Y00405
X0284Y004
X028Y0038
X02895Y00375
X02895Y00345
X0282Y0032
X02895Y00315
X02895Y00285
X0282Y0026
X02895Y00255
X02895Y00225
X02895Y00195
X0282Y0018
X02895Y00165
X02895Y00135
X02895Y00105
X02895Y00075
X02805Y00045
X02835Y00045
X02895Y00045
X02865Y00045
T3C.03543F197S55
X027703Y002362G85X027506Y002362
X027703Y017716G85X027506Y017716
T4C.05118F107S55
X001963Y002362G85X001766Y002362
X001963Y017716G85X001766Y017716
M30
