%
T1C.01F095S3
X03056Y01528
X0284Y01708
X02884Y01856
X02844Y01884
X0267Y02144
X0305Y03465
X0284Y03968
X0321Y03465
X03708Y0292
X03752Y02888
X03696Y0286
X03356Y02708
X03204Y025
X03456Y01496
X0372Y0145
X04044Y02196
X03956Y024061
X04068Y0242
X04176Y0338
X04104Y03632
X04168Y0364
X0551Y04375
X057Y03045
X05755Y0274
X0566Y0258
X0609Y0307
T2C.012F095S3
X02176Y01788
X02148Y0182
X02085Y02
X0226Y02068
X0222Y02112
X0215Y02145
X022Y02155
X02855Y0366
X02885Y0363
X02855Y0354
X02885Y03515
X02815Y02295
X0285Y02265
X02908Y02228
X02628Y02204
X02824Y02112
X0244Y01768
X02792Y01712
X02428Y01552
X03056Y01448
X03525Y013
X03496Y01345
X0357Y01395
X0352Y0162
X03375Y01625
X03605Y0165
X03535Y0166
X0342Y01815
X03675Y0183
X03595Y0234
X03665Y0237
X03625Y02375
X03784Y02492
X0327Y02675
X03452Y02692
X03176Y03156
X0414Y036
X0419Y03595
X04235Y03415
X04104Y03395
X04204Y0334
X03948Y0309
X03948Y02716
X0401Y02488
X04072Y02488
X041Y02264
X0396Y01895
X05216Y02608
X05172Y02652
X0512Y02656
X0469Y0289
X05356Y03548
X05356Y03676
X05735Y0343
X0592Y0335
X0602Y0328
X05965Y0328
X0589Y02795
X05925Y0276
X0571Y02745
X05748Y02668
X0604Y0264
X05995Y02635
X0582Y02635
X05785Y02605
X05692Y02548
X05916Y01936
X05916Y0179
X0617Y0252
X062Y02576
X06195Y0262
X06125Y03045
X06155Y03165
X06352Y03188
X06184Y03208
X06248Y0322
X06184Y0328
T3C.016F095S3
X0027Y012
X0006Y0123
X0006Y0129
X0012Y0129
X0024Y0129
X0006Y0135
X0012Y0135
X0012Y0141
X0006Y0141
X0018Y0144
X0006Y0147
X0012Y0147
X0018Y015
X0012Y0153
X0006Y0153
X0006Y0159
X0012Y0159
X00265Y01595
X0006Y0165
X0006Y0171
X0012Y0171
X0012Y0177
X0006Y0177
X0012Y0183
X0006Y0183
X0012Y0189
X0006Y0189
X0012Y0195
X0006Y0195
X0024Y0195
X0006Y0201
X0012Y0201
X0021Y0201
X0015Y0207
X0021Y0207
X0015Y0213
X0015Y0219
X0024Y022
X0006Y0222
X0012Y0225
X0006Y0228
X0012Y0231
X0006Y0234
X0012Y0237
X0006Y024
X0012Y0243
X0006Y0246
X0012Y0249
X0006Y0252
X0006Y0258
X0018Y0261
X0012Y0261
X0006Y0264
X0018Y0267
X0012Y0267
X0006Y027
X0018Y0273
X0012Y0273
X0006Y0276
X0012Y0279
X0018Y0279
X0024Y0279
X003Y0279
X0036Y0279
X0042Y0279
X0048Y0279
X0042Y0261
X0048Y0261
X0036Y022
X0049Y022
X0036Y0207
X0054Y0207
X0048Y0207
X0051Y0195
X0038Y01905
X0051Y0189
X0051Y0183
X0051Y0177
X0051Y0171
X0051Y0165
X00335Y01595
X0051Y0159
X0051Y0153
X0051Y0147
X0051Y0141
X0054Y0135
X0039Y0129
X0036Y012
X0078Y012
X0069Y012
X0066Y0129
X0057Y0141
X0057Y0147
X0057Y0153
X00685Y01595
X00755Y01595
X0078Y0191
X0078Y0207
X0072Y0207
X0066Y0207
X006Y0207
X0063Y0213
X0057Y0213
X0069Y0213
X0075Y0213
X0057Y0228
X0063Y0228
X0069Y0228
X0075Y0228
X0078Y0234
X0072Y0234
X0066Y0234
X006Y0234
X0057Y024
X0063Y024
X0069Y024
X0075Y024
X0078Y0246
X0072Y0246
X0066Y0246
X006Y0246
X0075Y0252
X0069Y0252
X0078Y0258
X0072Y0258
X0066Y0258
X0066Y0264
X0072Y0264
X0078Y0264
X0078Y027
X0072Y027
X0066Y027
X0084Y027
X0084Y0264
X009Y0264
X009Y0258
X0084Y0258
X0084Y0246
X0081Y024
X0087Y024
X0084Y0234
X0081Y0228
X0087Y0228
X0096Y022
X0087Y0213
X0081Y0213
X0096Y0207
X009Y0207
X0084Y0207
X009Y0192
X0096Y0192
X0102Y0192
X0093Y0186
X0093Y018
X0093Y0174
X0087Y0171
X0093Y0168
X0087Y0165
X0093Y0162
X0087Y0159
X0093Y0156
X0099Y0153
X009Y015
X0096Y0147
X0102Y0147
X009Y0141
X0096Y0141
X0081Y0129
X0117Y012
X0111Y012
X0152Y0122
X0108Y0129
X0123Y0129
X0138Y0129
X01495Y01295
X0138Y0135
X0138Y0141
X0132Y0144
X0138Y0147
X0132Y015
X0138Y0153
X0132Y0156
X011Y0159
X0118Y0159
X0151Y01595
X0132Y0162
X0132Y0168
X0132Y0174
X0132Y018
X0132Y0186
X012Y0191
X0144Y0192
X0138Y0192
X0132Y0192
X0108Y0192
X0138Y021
X0132Y021
X015Y021
X0144Y021
X0126Y021
X0108Y022
X01205Y022
X0129Y0228
X0135Y0228
X0141Y0228
X0147Y0228
X0153Y0228
X015Y0234
X0144Y0237
X0138Y0237
X0132Y0237
X0153Y024
X0147Y0243
X0138Y0243
X0132Y0246
X0144Y0249
X0138Y0249
X015Y0249
X0138Y0255
X0144Y0258
X0153Y0258
X0153Y0264
X0147Y0264
X0141Y0264
X0135Y0264
X0147Y027
X0141Y027
X0135Y027
X01795Y03495
X0159Y0261
X0156Y0246
X0156Y0234
X0166Y022
X01795Y022
X0156Y021
X0168Y021
X0162Y021
X0158Y01895
X0171Y0189
X0171Y0183
X0171Y0177
X0177Y0174
X0171Y0171
X0177Y0168
X0171Y0165
X0177Y0162
X0171Y0159
X0158Y0159
X0177Y0156
X0171Y0153
X0177Y015
X0171Y0147
X0177Y0144
X0171Y0141
X0177Y0138
X018Y0132
X01645Y0129
X01635Y0121
X01575Y01195
X0198Y0123
X0204Y0123
X0192Y0129
X0183Y0138
X0183Y0144
X0183Y015
X02025Y0159
X0195Y0159
X0196Y019
X0189Y0213
X0195Y0213
X0201Y0213
X0189Y0228
X0195Y0228
X0201Y0228
X0195Y0234
X0201Y0234
X0189Y0234
X0201Y024
X0195Y024
X0189Y0261
X0225Y0438
X0207Y027
X0207Y0264
X0207Y0258
X0207Y0252
X0207Y0246
X0207Y024
X0207Y0234
X0207Y0228
X0207Y0213
X0214Y01995
X0216Y0153
X0216Y0147
X0222Y0147
X0228Y0147
X0216Y0141
X0222Y0141
X0222Y0135
X0222Y0129
X0207Y0129
X0225Y0015
X0225Y0009
X0243Y0009
X0249Y0009
X0255Y0009
X0231Y0009
X0237Y0009
X02485Y0055
X0244Y01125
X02445Y01255
X02405Y0132
X0255Y0132
X0255Y018075
X02432Y01964
X0233Y022
X02555Y02435
X0255Y0261
X0246Y03495
X0252Y0396
X0246Y0399
X0252Y0402
X0246Y0405
X0252Y0408
X0246Y0411
X0252Y0414
X0246Y0417
X024Y0441
X0246Y0447
X0255Y045
X0252Y0456
X0246Y0456
X0276Y0456
X027Y0456
X0264Y0456
X0258Y0456
X0279Y045
X0273Y045
X0267Y045
X0261Y045
X0276Y0444
X027Y0444
X0264Y0444
X0258Y0444
X0279Y0438
X0273Y0438
X0267Y0438
X0261Y0438
X0264Y0432
X0276Y0432
X027Y0432
X0258Y0414
X0277Y04135
X0261Y039
X0276Y027
X0276Y0264
X0277Y02
X0264Y0141
X0276Y0132
X02652Y01252
X0265Y0113
X0279Y0009
X0261Y0009
X0267Y0009
X0273Y0009
X0285Y0009
X0291Y0009
X0297Y0009
X0303Y0009
X0297Y0015
X0297Y0021
X0286Y0113
X0286Y01252
X0295Y0129
X02925Y02045
X0284Y02365
X0284Y0248
X02895Y025425
X0294Y0261
X0297Y027
X0291Y0273
X0297Y0276
X0302Y02825
X03Y0399
X03Y042
X0288Y0432
X0282Y0432
X0291Y0438
X0285Y0438
X0294Y0444
X0288Y0444
X0282Y0444
X0303Y045
X0297Y045
X0291Y045
X0285Y045
X03Y0456
X0294Y0456
X0288Y0456
X0282Y0456
X0306Y0456
X0309Y045
X0306Y0444
X0309Y042
X0312Y0399
X0306Y0399
X0321Y0399
X03275Y03305
X03115Y0317
X0309Y027
X03165Y02425
X0327Y0234
X0321Y0234
X033Y0228
X0324Y0228
X0321Y0222
X0327Y0222
X0324Y0216
X033Y0216
X0327Y021
X0321Y021
X0324Y0204
X033Y0204
X0327Y0198
X0311Y0195
X0312Y0189
X033Y0186
X0312Y0183
X03225Y01815
X0318Y013
X03076Y01252
X0307Y0113
X0328Y0112
X0321Y0009
X0327Y0009
X0315Y0009
X0309Y0009
X0339Y0009
X0345Y0009
X0351Y0009
X0333Y0009
X0333Y0049
X0355Y0055
X0349Y01135
X03465Y01295
X03345Y013
X0348Y0186
X0339Y0186
X0333Y0198
X0339Y0198
X0345Y0198
X0351Y0198
X0354Y0204
X0348Y0204
X0342Y0204
X0336Y0204
X0333Y021
X0351Y021
X0345Y021
X0339Y021
X0348Y0216
X0342Y0216
X0354Y0216
X0336Y0216
X0351Y0222
X0345Y0222
X0339Y0222
X0333Y0222
X0336Y0228
X0354Y0228
X0348Y0228
X0342Y0228
X0339Y0234
X0351Y0234
X0333Y0234
X0345Y0234
X0355Y02425
X0352Y02655
X0332Y02824
X0354Y0297
X0342Y0312
X0351Y0339
X0354Y0348
X0348Y0348
X0342Y0348
X0336Y0348
X0348Y0372
X0354Y0372
X0339Y0372
X0354Y0381
X0348Y0381
X0339Y0381
X0351Y0387
X0339Y039
X0354Y0393
X0348Y0393
X0339Y0396
X0351Y0399
X0345Y0399
X0339Y0402
X0348Y0405
X0354Y0405
X0339Y0408
X0351Y0411
X0345Y0411
X0351Y0417
X0345Y0417
X0339Y0417
X0378Y0429
X0372Y0429
X0366Y0429
X0375Y0423
X0369Y0423
X0357Y0417
X0375Y0417
X0369Y0417
X0363Y0417
X0357Y0411
X0375Y0411
X0369Y0411
X0363Y0411
X036Y0405
X0366Y0405
X0372Y0405
X0357Y0399
X0375Y0399
X0369Y0399
X0363Y0399
X0378Y0393
X0372Y0393
X0366Y0393
X036Y0393
X0372Y0387
X036Y0387
X0372Y0381
X0363Y0381
X0372Y0372
X0363Y0372
X0378Y0348
X0369Y0348
X0363Y0348
X036Y0339
X0375Y0339
X0366Y0339
X0372Y033
X0375Y0324
X0378Y0303
X0372Y03
X0378Y027
X03764Y02092
X0375Y0198
X03565Y01895
X0378Y0165
X0373Y01615
X0378Y0141
X0375Y0138
X0369Y0138
X0359Y0113
X0357Y0102
X03615Y0055
X0357Y0009
X0363Y0009
X0369Y0009
X0375Y0009
X0381Y0009
X0405Y0012
X0384Y0063
X0384Y0069
X0396Y0129
X039Y0129
X0402Y0129
X0384Y0141
X039Y0141
X0396Y0141
X039Y0165
X0384Y0165
X0396Y0165
X0387Y0174
X0393Y0174
X0396Y018
X0398Y01995
X04016Y02092
X0399Y0258
X0387Y0261
X0399Y0264
X039Y0267
X0399Y027
X0384Y027
X0387Y0303
X0387Y0312
X0387Y0318
X0387Y0348
X039Y0372
X0399Y0372
X0381Y0372
X0393Y0381
X0381Y0381
X0381Y0387
X0393Y0387
X0384Y0393
X0396Y0393
X039Y0393
X0405Y0399
X0393Y0399
X0399Y0399
X0387Y0399
X0381Y0399
X0381Y0405
X0405Y0405
X0387Y0405
X0393Y0405
X0399Y0405
X0393Y0411
X0399Y0411
X0405Y0411
X0384Y0411
X0381Y0417
X039Y0417
X0396Y0417
X0402Y0417
X0393Y0423
X0387Y0423
X0381Y0423
X0399Y0423
X0384Y0429
X0408Y0417
X0411Y0411
X0417Y0411
X0423Y0411
X0411Y0405
X0417Y0405
X0423Y0402
X0417Y0399
X0411Y0399
X0423Y0396
X0429Y0324
X0426Y03
X042Y03
X0423Y0297
X042Y0291
X0426Y0291
X0426Y0282
X0417Y0282
X0417Y027
X0429Y027
X0423Y027
X0411Y027
X0417Y0264
X0411Y0264
X0411Y0255
X0417Y0255
X0413Y02495
X0417Y0186
X0417Y018
X0417Y0174
X0417Y0168
X0426Y0156
X0423Y015
X0429Y015
X0423Y0144
X0429Y0144
X0426Y0138
X0429Y0132
X0408Y0129
X0423Y0126
X0425Y0049
X0423Y0012
X0417Y0012
X0411Y0012
X0411Y0006
X0417Y0006
X0423Y0006
X0429Y0006
X0432Y0045
X0447Y0048
X0432Y0051
X0441Y0054
X0447Y0054
X0447Y006
X0441Y006
X0447Y0066
X0447Y0072
X0444Y009
X0438Y0126
X0432Y0126
X0444Y0126
X0435Y0132
X0432Y0138
X0438Y0138
X0441Y0144
X0435Y0144
X0435Y015
X0441Y015
X0438Y0156
X0432Y0156
X04324Y02092
X0432Y0246
X0432Y0252
X0453Y0252
X0447Y0255
X0432Y0258
X0453Y0258
X0447Y0261
X0432Y0264
X0453Y0264
X0447Y0267
X0453Y027
X04384Y03404
X04475Y0417
X0457Y0416
X0477Y0381
X0477Y0375
X0477Y0369
X0457Y03685
X0462Y03585
X04785Y0341
X0457Y034
X0457Y03135
X0474Y0279
X0474Y0273
X0474Y0261
X0474Y0252
X04705Y0223
X0474Y0153
X0468Y0153
X048Y0153
X04695Y0146
X04755Y0146
X048Y006
X0498Y0057
X0504Y0057
X0492Y0057
X0486Y0057
X0492Y0063
X0486Y0063
X0504Y0063
X0498Y0063
X0486Y0069
X0504Y0069
X0498Y0069
X0492Y0069
X0486Y0075
X0504Y0075
X04975Y0078
X0486Y0081
X0486Y009
X0496Y01455
X05025Y01455
X04905Y0146
X0481Y0146
X04855Y0146
X0492Y0153
X0486Y0153
X0498Y0153
X0504Y0153
X0483Y0171
X04828Y02088
X0504Y0294
X0489Y02965
X0504Y03
X0504Y0306
X0504Y0324
X0489Y03305
X0505Y03475
X0483Y0369
X0504Y0372
X0483Y0375
X0504Y0378
X0483Y0381
X0504Y0384
X0504Y039
X0495Y0414
X0501Y0414
X0501Y0432
X0495Y0441
X0507Y0441
X0507Y0432
X0507Y0414
X0528Y0399
X0528Y0393
X0528Y0387
X0528Y0369
X0525Y0354
X0525Y0348
X0525Y0342
X0525Y0336
X0525Y033
X0525Y0315
X0525Y0294
X0525Y0276
X0524Y0178
X0507Y0144
X0507Y0138
X0507Y0132
X0507Y0126
X0507Y012
X0516Y0081
X0516Y0075
X051Y0075
X051Y0069
X0516Y0069
X0516Y0063
X051Y0063
X051Y0057
X0516Y0057
X0537Y0006
X0543Y0006
X0549Y0006
X0555Y0006
X0537Y0033
X0537Y0039
X0543Y0069
X0537Y0069
X0552Y012
X0546Y0123
X0549Y0129
X0543Y0129
X0537Y0129
X0552Y0147
X054Y0147
X0546Y0147
X054Y0213
X054Y0219
X054Y0225
X0546Y0228
X0552Y0228
X054Y0231
X0552Y0234
X0546Y0234
X0531Y0276
X0537Y0276
X0543Y0276
X0549Y0276
X0549Y0282
X0546Y0288
X054Y0297
X0546Y0306
X0553Y03295
X05365Y03415
X0552Y0348
X0549Y0411
X0543Y0411
X0555Y0411
X0555Y0417
X0549Y0417
X0543Y0417
X0579Y0429
X0573Y0429
X0579Y0423
X0573Y0423
X0567Y0417
X0561Y0417
X0561Y0411
X0567Y0411
X0567Y0393
X0567Y0387
X0567Y0381
X0567Y0375
X0567Y0369
X0567Y0363
X0567Y0248
X0558Y0234
X0564Y0234
X0576Y0228
X0558Y0228
X0564Y0228
X057Y0228
X0576Y0165
X0576Y0159
X057Y0158
X0564Y0153
X057Y0153
X0564Y0147
X0558Y0147
X0558Y0129
X0576Y0129
X057Y0129
X0564Y0129
X0558Y012
X0564Y012
X0567Y0006
X0561Y0006
X0581Y0111
X0588Y0111
X0594Y01195
X0582Y0129
X0591Y0129
X0588Y0135
X0591Y0138
X05905Y02065
X0588Y0228
X0582Y0228
X06Y0228
X0603Y0282
X0597Y0285
X0591Y0285
X06045Y02895
X0597Y0291
X0591Y0291
X059Y03145
X06Y03155
X0591Y0348
X0603Y0351
X0597Y0351
X0603Y0381
X06Y0393
X06Y0399
X06Y0405
X06Y0411
X0597Y0417
X0603Y0417
X0588Y0423
X0594Y0423
X06Y0423
X0591Y0429
X0585Y0429
X0618Y0411
X0612Y0411
X0606Y0411
X0624Y0411
X063Y0408
X0606Y0405
X0612Y0405
X0618Y0405
X0624Y0405
X0621Y0402
X0627Y0402
X0612Y0399
X0606Y0399
X0618Y0399
X0624Y0393
X0612Y0393
X0606Y0393
X063Y0393
X0618Y0393
X0606Y0387
X0624Y0387
X0627Y0366
X0612Y0363
X06292Y03428
X062Y0338
X0627Y0336
X0608Y03355
X0627Y033
X0608Y0248
X0627Y0243
X0627Y0237
X0621Y0228
X0609Y0228
X0615Y0228
X0627Y0228
X06165Y02075
X0615Y0168
X0609Y0168
X0618Y01615
X0621Y01435
X06195Y01195
X06335Y02075
X0633Y0228
X0639Y0234
X0642Y0237
X0633Y0237
X0636Y0243
X0645Y0243
X06352Y02712
X06352Y02892
X0645Y0327
X0645Y0333
X0645Y0339
X0645Y0345
X0645Y0351
X0645Y0357
X0645Y0363
X0645Y0369
X0645Y0375
X0645Y0381
X0645Y0387
X0645Y0393
X0645Y0399
X0633Y0402
X0645Y0405
X0645Y0411
X0645Y0417
T4C.02F197S55
X0234Y00395
X0255Y00395
X0327Y04205
X0327Y0366
X03035Y03645
X03035Y03525
X0318Y00395
X0297Y00395
X0276Y00395
X0339Y00395
X03535Y00395
X03915Y00395
X03915Y00585
X03915Y0119
X034929Y028242
X035449Y028252
X0342Y042475
X03685Y0456
X0493Y0389
X04632Y0248
X04628Y02212
X0498Y0218
X04988Y02136
X05955Y015
X0514Y026
X0514Y0352
X05355Y04635
X06408Y0276
T5C.02756F197S55
X0436Y007
X0436Y009
X0476Y009
X0466Y009
X0456Y009
X0476Y007
X0466Y007
X0456Y007
T6C.03F197S55
X027423Y014
X0424Y025223
T7C.0315F197S55
X024277Y014
X0424Y022077
X064Y009275
T8C.0315F197S55
X041754Y013419
X044746Y01345
X058203Y041702
X059203Y041202
X058203Y040702
X059203Y040202
X058203Y039702
X059203Y039202
X058203Y038702
X059203Y038202
X064Y014525
T9C.032F197S55
X0026Y027
X0046Y027
X0036Y027
X0056Y027
X0046Y033
X0036Y033
X0056Y033
X0106Y033
X0116Y033
X0126Y033
X0106Y027
X0096Y027
X0126Y027
X0116Y027
X01795Y027
X01695Y027
X01595Y027
X01995Y027
X01895Y027
X0226Y027
X01895Y033
X01995Y033
X01795Y033
X0246Y033
X0266Y033
X0256Y033
X0266Y027
X0236Y027
X0256Y027
X0246Y027
T10C.03346F197S55
X046Y002716
X046Y004684
X051Y004684
X051Y002716
T11C.035F197S55
X00245Y0389
X0076Y0389
X0076Y0399
X00245Y0399
X0327Y0451
X0337Y0451
X0347Y0451
X0483Y04055
X0493Y04055
X0493Y0423
X0483Y0423
X0357Y0451
X0477Y0451
X0487Y0451
X0497Y0451
X05255Y0451
X0507Y0451
X051625Y0451
X0549Y0451
X0559Y0451
X0569Y0451
X0579Y0451
X05975Y0451
X058825Y0451
T12C.03543F197S55
X063298Y037375
X063298Y038359
X063298Y041588
X063298Y042572
T13C.03937F197S55
X054036Y007937
X054036Y008937
X054036Y011937
X054036Y013937
T14C.04724F139S55
X00515Y0021
X00665Y0021
X0017Y0119
X0059Y0119
X0047Y0119
X0051Y0451
X0066Y0451
X0096Y0451
X0081Y0451
X0126Y0451
X0111Y0451
X0089Y0119
X0101Y0119
X0131Y0119
X01265Y0021
X00965Y0021
X00815Y0021
X01115Y0021
X01415Y0021
X01565Y0021
X01795Y0021
X01945Y0021
X0143Y0119
X0185Y0119
X0173Y0119
X0141Y0451
X0156Y0451
X02035Y0451
X01885Y0451
X02185Y0451
X02335Y0451
X027128Y04225
X026144Y04225
X027916Y04225
X0215Y0119
X02095Y0021
X02695Y0021
X02245Y0021
X02545Y0021
X02395Y0021
X02845Y0021
X03075Y0021
X03225Y0021
X03375Y0021
X03525Y0021
X03675Y0021
X0289Y04225
X03825Y0021
X03975Y0021
X04125Y0021
X05515Y0021
X05665Y0021
X05965Y0021
X05815Y0021
T15C.05118F107S55
X0047Y0059
X0089Y0059
X0059Y0069
X0017Y0069
X0101Y0069
X0143Y0069
X0185Y0069
X0173Y0059
X0131Y0059
X0215Y0059
T16C.064F089S55
X060463Y036903
T17C.065F089S55
X060463Y043005
T18C.09843F066S55
X024935Y043317
X030109Y043317
T19C.13F035S794
X061684Y037702
X061684Y042202
M30
