*
*
G04 PADS 9.5 Build Number: 522968 generated Gerber (RS-274-X) file*
G04 PC Version=2.1*
*
%IN "ATSAMA5D2x-A.pcb"*%
*
%MOIN*%
*
%FSLAX35Y35*%
*
*
*
*
G04 PC Standard Apertures*
*
*
G04 Thermal Relief Aperture macro.*
%AMTER*
1,1,$1,0,0*
1,0,$1-$2,0,0*
21,0,$3,$4,0,0,45*
21,0,$3,$4,0,0,135*
%
*
*
G04 Annular Aperture macro.*
%AMANN*
1,1,$1,0,0*
1,0,$2,0,0*
%
*
*
G04 Odd Aperture macro.*
%AMODD*
1,1,$1,0,0*
1,0,$1-0.005,0,0*
%
*
*
G04 PC Custom Aperture Macros*
*
*
*
*
*
*
G04 PC Aperture Table*
*
%ADD010C,0.01*%
%ADD042C,0.015*%
%ADD060C,0.002*%
%ADD078R,0.035X0.035*%
%ADD103C,0.001*%
%ADD115R,0.04724X0.07087*%
%ADD167R,0.05X0.04*%
%ADD168C,0.014*%
%ADD169R,0.022X0.02*%
%ADD170R,0.02X0.022*%
%ADD171R,0.035X0.03*%
%ADD172R,0.04X0.05*%
%ADD173R,0.08X0.04*%
%ADD174O,0.01X0.035*%
%ADD175O,0.035X0.01*%
%ADD176R,0.132X0.132*%
%ADD177R,0.05X0.06*%
%ADD178O,0.04X0.012*%
%ADD179R,0.025X0.04*%
%ADD180R,0.07X0.024*%
%ADD181R,0.06X0.06*%
%ADD182R,0.056X0.046*%
%ADD185R,0.03X0.035*%
*
*
*
*
G04 PC Circuitry*
G04 Layer Name ATSAMA5D2x-A.pcb - circuitry*
%LPD*%
*
*
G04 PC Custom Flashes*
G04 Layer Name ATSAMA5D2x-A.pcb - flashes*
%LPD*%
*
*
G04 PC Circuitry*
G04 Layer Name ATSAMA5D2x-A.pcb - circuitry*
%LPD*%
*
G54D10*
G01X2046937Y1620158D03*
X2048905D03*
X2050874D03*
X2052842D03*
X2054811D03*
X2056779D03*
X2058748D03*
X2060717D03*
X2062685D03*
X2064654D03*
X2066622D03*
X2068591D03*
X2070559D03*
X2072528D03*
X2046937Y1618189D03*
X2048905D03*
X2050874D03*
X2052842D03*
X2054811D03*
X2056779D03*
X2058748D03*
X2060717D03*
X2062685D03*
X2064654D03*
X2066622D03*
X2068591D03*
X2070559D03*
X2072528D03*
X2046937Y1616221D03*
X2048905D03*
X2050874D03*
X2052842D03*
X2054811D03*
X2056779D03*
X2058748D03*
X2060717D03*
X2062685D03*
X2064654D03*
X2066622D03*
X2068591D03*
X2070559D03*
X2072528D03*
X2046937Y1614252D03*
X2048905D03*
X2050874D03*
X2052842D03*
X2068591D03*
X2070559D03*
X2072528D03*
X2046937Y1612284D03*
X2048905D03*
X2050874D03*
X2054811D03*
X2056779D03*
X2058748D03*
X2060717D03*
X2062685D03*
X2064654D03*
X2068591D03*
X2070559D03*
X2072528D03*
X2046937Y1610315D03*
X2048905D03*
X2050874D03*
X2054811D03*
X2064654D03*
X2068591D03*
X2070559D03*
X2072528D03*
X2046937Y1608347D03*
X2048905D03*
X2050874D03*
X2054811D03*
X2064654D03*
X2068591D03*
X2070559D03*
X2072528D03*
X2046937Y1606378D03*
X2048905D03*
X2050874D03*
X2054811D03*
X2064654D03*
X2068591D03*
X2070559D03*
X2072528D03*
X2046937Y1604409D03*
X2048905D03*
X2050874D03*
X2054811D03*
X2064654D03*
X2068591D03*
X2070559D03*
X2072528D03*
X2046937Y1602441D03*
X2048905D03*
X2050874D03*
X2054811D03*
X2056779D03*
X2058748D03*
X2060717D03*
X2062685D03*
X2064654D03*
X2068591D03*
X2070559D03*
X2072528D03*
X2046937Y1600472D03*
X2048905D03*
X2050874D03*
X2068591D03*
X2070559D03*
X2072528D03*
X2046937Y1598504D03*
X2048905D03*
X2050874D03*
X2052842D03*
X2054811D03*
X2056779D03*
X2058748D03*
X2060717D03*
X2062685D03*
X2064654D03*
X2066622D03*
X2068591D03*
X2070559D03*
X2072528D03*
X2046937Y1596535D03*
X2048905D03*
X2050874D03*
X2052842D03*
X2054811D03*
X2056779D03*
X2058748D03*
X2060717D03*
X2062685D03*
X2064654D03*
X2066622D03*
X2068591D03*
X2070559D03*
X2072528D03*
X2046937Y1594567D03*
X2048905D03*
X2050874D03*
X2052842D03*
X2054811D03*
X2056779D03*
X2058748D03*
X2060717D03*
X2062685D03*
X2064654D03*
X2066622D03*
X2068591D03*
X2070559D03*
X2072528D03*
G54D42*
X1946635Y1587165D03*
Y1590315D03*
Y1593465D03*
Y1596614D03*
Y1599764D03*
Y1602913D03*
Y1606063D03*
Y1609213D03*
Y1612362D03*
Y1615512D03*
Y1618661D03*
Y1621811D03*
Y1624961D03*
Y1628110D03*
Y1631260D03*
Y1634409D03*
Y1637559D03*
X1949785Y1587165D03*
Y1590315D03*
Y1593465D03*
Y1596614D03*
Y1599764D03*
Y1602913D03*
Y1606063D03*
Y1609213D03*
Y1612362D03*
Y1615512D03*
Y1618661D03*
Y1621811D03*
Y1624961D03*
Y1628110D03*
Y1631260D03*
Y1634409D03*
Y1637559D03*
X1952935Y1587165D03*
Y1590315D03*
Y1593465D03*
Y1596614D03*
Y1599764D03*
Y1602913D03*
Y1606063D03*
Y1609213D03*
Y1612362D03*
Y1615512D03*
Y1618661D03*
Y1621811D03*
Y1624961D03*
Y1628110D03*
Y1631260D03*
Y1634409D03*
Y1637559D03*
X1956084Y1587165D03*
Y1590315D03*
Y1593465D03*
Y1596614D03*
Y1599764D03*
Y1602913D03*
Y1606063D03*
Y1609213D03*
Y1612362D03*
Y1615512D03*
Y1618661D03*
Y1621811D03*
Y1624961D03*
Y1628110D03*
Y1631260D03*
Y1634409D03*
Y1637559D03*
X1959234Y1587165D03*
Y1590315D03*
Y1593465D03*
Y1596614D03*
Y1599764D03*
Y1602913D03*
Y1606063D03*
Y1609213D03*
Y1612362D03*
Y1615512D03*
Y1618661D03*
Y1621811D03*
Y1624961D03*
Y1628110D03*
Y1631260D03*
Y1634409D03*
Y1637559D03*
X1962383Y1587165D03*
Y1590315D03*
Y1593465D03*
Y1596614D03*
Y1599764D03*
Y1602913D03*
Y1606063D03*
Y1609213D03*
Y1612362D03*
Y1615512D03*
Y1618661D03*
Y1621811D03*
Y1624961D03*
Y1628110D03*
Y1631260D03*
Y1634409D03*
Y1637559D03*
X1965533Y1587165D03*
Y1590315D03*
Y1593465D03*
Y1596614D03*
Y1599764D03*
Y1602913D03*
Y1606063D03*
Y1609213D03*
Y1612362D03*
Y1615512D03*
Y1618661D03*
Y1621811D03*
Y1624961D03*
Y1628110D03*
Y1631260D03*
Y1634409D03*
Y1637559D03*
X1968683Y1587165D03*
Y1590315D03*
Y1593465D03*
Y1596614D03*
Y1599764D03*
Y1602913D03*
Y1606063D03*
Y1609213D03*
Y1612362D03*
Y1615512D03*
Y1618661D03*
Y1621811D03*
Y1624961D03*
Y1628110D03*
Y1631260D03*
Y1634409D03*
Y1637559D03*
X1971832Y1587165D03*
Y1590315D03*
Y1593465D03*
Y1596614D03*
Y1599764D03*
Y1602913D03*
Y1606063D03*
Y1609213D03*
Y1612362D03*
Y1615512D03*
Y1618661D03*
Y1621811D03*
Y1624961D03*
Y1628110D03*
Y1631260D03*
Y1634409D03*
Y1637559D03*
X1974982Y1587165D03*
Y1590315D03*
Y1593465D03*
Y1596614D03*
Y1599764D03*
Y1602913D03*
Y1606063D03*
Y1609213D03*
Y1612362D03*
Y1615512D03*
Y1618661D03*
Y1621811D03*
Y1624961D03*
Y1628110D03*
Y1631260D03*
Y1634409D03*
Y1637559D03*
X1978131Y1587165D03*
Y1590315D03*
Y1593465D03*
Y1596614D03*
Y1599764D03*
Y1602913D03*
Y1606063D03*
Y1609213D03*
Y1612362D03*
Y1615512D03*
Y1618661D03*
Y1621811D03*
Y1624961D03*
Y1628110D03*
Y1631260D03*
Y1634409D03*
Y1637559D03*
X1981281Y1587165D03*
Y1590315D03*
Y1593465D03*
Y1596614D03*
Y1599764D03*
Y1602913D03*
Y1606063D03*
Y1609213D03*
Y1612362D03*
Y1615512D03*
Y1618661D03*
Y1621811D03*
Y1624961D03*
Y1628110D03*
Y1631260D03*
Y1634409D03*
Y1637559D03*
X1984431Y1587165D03*
Y1590315D03*
Y1593465D03*
Y1596614D03*
Y1599764D03*
Y1602913D03*
Y1606063D03*
Y1609213D03*
Y1612362D03*
Y1615512D03*
Y1618661D03*
Y1621811D03*
Y1624961D03*
Y1628110D03*
Y1631260D03*
Y1634409D03*
Y1637559D03*
X1987580Y1587165D03*
Y1590315D03*
Y1593465D03*
Y1596614D03*
Y1599764D03*
Y1602913D03*
Y1606063D03*
Y1609213D03*
Y1612362D03*
Y1615512D03*
Y1618661D03*
Y1621811D03*
Y1624961D03*
Y1628110D03*
Y1631260D03*
Y1634409D03*
Y1637559D03*
X1990730Y1587165D03*
Y1590315D03*
Y1593465D03*
Y1596614D03*
Y1599764D03*
Y1602913D03*
Y1606063D03*
Y1609213D03*
Y1612362D03*
Y1615512D03*
Y1618661D03*
Y1621811D03*
Y1624961D03*
Y1628110D03*
Y1631260D03*
Y1634409D03*
Y1637559D03*
X1993879Y1587165D03*
Y1590315D03*
Y1593465D03*
Y1596614D03*
Y1599764D03*
Y1602913D03*
Y1606063D03*
Y1609213D03*
Y1612362D03*
Y1615512D03*
Y1618661D03*
Y1621811D03*
Y1624961D03*
Y1628110D03*
Y1631260D03*
Y1634409D03*
Y1637559D03*
X1997029Y1587165D03*
Y1590315D03*
Y1593465D03*
Y1596614D03*
Y1599764D03*
Y1602913D03*
Y1606063D03*
Y1609213D03*
Y1612362D03*
Y1615512D03*
Y1618661D03*
Y1621811D03*
Y1624961D03*
Y1628110D03*
Y1631260D03*
Y1634409D03*
Y1637559D03*
G54D60*
X1895669Y1747638D02*
G75*
G03X1891732Y1743701I0J-3937D01*
G01X1895669Y1747638D02*
X2104331D01*
X2108268Y1743701D02*
G03X2104331Y1747638I-3937J-0D01*
G01X2108268Y1743701D02*
Y1456299D01*
X2104331Y1452362D02*
G03X2108268Y1456299I-0J3937D01*
G01X2104331Y1452362D02*
X1895669D01*
X1891732Y1456299D02*
G03X1895669Y1452362I3937J0D01*
G01X1891732Y1456299D02*
Y1743701D01*
G54D78*
X1964232Y1566612D03*
Y1560112D03*
X2021482Y1633062D03*
X2014982D03*
X2021482Y1627562D03*
X2014982D03*
X1964232Y1548112D03*
Y1554612D03*
X1992232Y1472112D03*
Y1465612D03*
X2067232Y1529112D03*
Y1535612D03*
X2061232Y1529112D03*
Y1535612D03*
X2023932Y1574112D03*
Y1567612D03*
X1970232Y1465612D03*
Y1472112D03*
X2014232Y1465612D03*
Y1472112D03*
X2002232Y1541112D03*
Y1547612D03*
X2018032Y1567612D03*
Y1574112D03*
X2031732Y1553612D03*
Y1560112D03*
X2017732Y1553612D03*
Y1560112D03*
X1945232Y1546612D03*
Y1553112D03*
X1928982Y1654862D03*
X1935482D03*
X2056982Y1663862D03*
X2050482D03*
X1917982Y1628862D03*
X1911482D03*
X2031732Y1541112D03*
Y1547612D03*
X2002232Y1528612D03*
Y1535112D03*
X2017732Y1540612D03*
Y1547112D03*
X2024232Y1560112D03*
Y1553612D03*
X2039732Y1560112D03*
Y1553612D03*
G54D103*
G54D115*
X1993141Y1567362D03*
X1981724Y1567370D03*
G54D167*
X1977232Y1472362D03*
Y1465362D03*
X1985232Y1472362D03*
Y1465362D03*
X1937232Y1685362D03*
Y1678362D03*
X2024232Y1547362D03*
Y1540362D03*
X2039732Y1547362D03*
Y1540362D03*
X1920732Y1695862D03*
Y1688862D03*
X1954732Y1511862D03*
Y1518862D03*
X1929732Y1471362D03*
Y1478362D03*
X1938232Y1496362D03*
Y1489362D03*
X1930232Y1561362D03*
Y1568362D03*
X2009732Y1547362D03*
Y1540362D03*
X1934232Y1529862D03*
Y1536862D03*
X2007232Y1472362D03*
Y1465362D03*
X1938232Y1471362D03*
Y1478362D03*
X2025232Y1500862D03*
Y1493862D03*
X1954732Y1536862D03*
Y1529862D03*
X2017732Y1500862D03*
Y1493862D03*
X1929732Y1496362D03*
Y1489362D03*
X1999232Y1472362D03*
Y1465362D03*
X1959232Y1472362D03*
Y1465362D03*
X1946732Y1511862D03*
Y1518862D03*
X1956232Y1568362D03*
Y1561362D03*
X1942232Y1529862D03*
Y1536862D03*
X1963132D03*
Y1529862D03*
X1914232Y1664862D03*
Y1671862D03*
G54D168*
X1981831Y1680740D03*
X1978681D03*
X1975531D03*
X1962933D03*
X1959783D03*
X1956634D03*
X1981831Y1683890D03*
X1978681D03*
X1975531D03*
X1962933D03*
X1959783D03*
X1956634D03*
X1981831Y1687039D03*
X1978681D03*
X1975531D03*
X1962933D03*
X1959783D03*
X1956634D03*
X1981831Y1690189D03*
X1978681D03*
X1975531D03*
X1962933D03*
X1959783D03*
X1956634D03*
X1981831Y1693339D03*
X1978681D03*
X1975531D03*
X1962933D03*
X1959783D03*
X1956634D03*
X1981831Y1696488D03*
X1978681D03*
X1975531D03*
X1962933D03*
X1959783D03*
X1956634D03*
X1981831Y1699638D03*
X1978681D03*
X1975531D03*
X1962933D03*
X1959783D03*
X1956634D03*
X1981831Y1702787D03*
X1978681D03*
X1975531D03*
X1962933D03*
X1959783D03*
X1956634D03*
X1981831Y1705937D03*
X1978681D03*
X1975531D03*
X1962933D03*
X1959783D03*
X1956634D03*
X1981831Y1709087D03*
X1978681D03*
X1975531D03*
X1962933D03*
X1959783D03*
X1956634D03*
X1981831Y1712236D03*
X1978681D03*
X1975531D03*
X1962933D03*
X1959783D03*
X1956634D03*
X1981831Y1715386D03*
X1978681D03*
X1975531D03*
X1962933D03*
X1959783D03*
X1956634D03*
X1981831Y1718535D03*
X1978681D03*
X1975531D03*
X1962933D03*
X1959783D03*
X1956634D03*
X1981831Y1721685D03*
X1978681D03*
X1975531D03*
X1962933D03*
X1959783D03*
X1956634D03*
X1981831Y1724835D03*
X1978681D03*
X1975531D03*
X1962933D03*
X1959783D03*
X1956634D03*
X1981831Y1727984D03*
X1978681D03*
X1975531D03*
X1962933D03*
X1959783D03*
X1956634D03*
X2057331Y1680740D03*
X2054181D03*
X2051031D03*
X2038433D03*
X2035283D03*
X2032134D03*
X2057331Y1683890D03*
X2054181D03*
X2051031D03*
X2038433D03*
X2035283D03*
X2032134D03*
X2057331Y1687039D03*
X2054181D03*
X2051031D03*
X2038433D03*
X2035283D03*
X2032134D03*
X2057331Y1690189D03*
X2054181D03*
X2051031D03*
X2038433D03*
X2035283D03*
X2032134D03*
X2057331Y1693339D03*
X2054181D03*
X2051031D03*
X2038433D03*
X2035283D03*
X2032134D03*
X2057331Y1696488D03*
X2054181D03*
X2051031D03*
X2038433D03*
X2035283D03*
X2032134D03*
X2057331Y1699638D03*
X2054181D03*
X2051031D03*
X2038433D03*
X2035283D03*
X2032134D03*
X2057331Y1702787D03*
X2054181D03*
X2051031D03*
X2038433D03*
X2035283D03*
X2032134D03*
X2057331Y1705937D03*
X2054181D03*
X2051031D03*
X2038433D03*
X2035283D03*
X2032134D03*
X2057331Y1709087D03*
X2054181D03*
X2051031D03*
X2038433D03*
X2035283D03*
X2032134D03*
X2057331Y1712236D03*
X2054181D03*
X2051031D03*
X2038433D03*
X2035283D03*
X2032134D03*
X2057331Y1715386D03*
X2054181D03*
X2051031D03*
X2038433D03*
X2035283D03*
X2032134D03*
X2057331Y1718535D03*
X2054181D03*
X2051031D03*
X2038433D03*
X2035283D03*
X2032134D03*
X2057331Y1721685D03*
X2054181D03*
X2051031D03*
X2038433D03*
X2035283D03*
X2032134D03*
X2057331Y1724835D03*
X2054181D03*
X2051031D03*
X2038433D03*
X2035283D03*
X2032134D03*
X2057331Y1727984D03*
X2054181D03*
X2051031D03*
X2038433D03*
X2035283D03*
X2032134D03*
G54D169*
X2051732Y1555962D03*
Y1559762D03*
X1981732Y1544262D03*
Y1540462D03*
X1923232Y1711462D03*
Y1715262D03*
X2004232Y1723962D03*
Y1727762D03*
X1927732Y1706262D03*
Y1702462D03*
X1941232Y1665762D03*
Y1661962D03*
X1923232Y1706262D03*
Y1702462D03*
X2008732Y1723962D03*
Y1727762D03*
X2017732Y1643262D03*
Y1639462D03*
X1918732Y1706262D03*
Y1702462D03*
X2011432Y1605862D03*
Y1609662D03*
X1950232Y1652962D03*
Y1656762D03*
X1948732Y1535262D03*
Y1531462D03*
X2058232Y1508962D03*
Y1512762D03*
X1936732Y1665762D03*
Y1661962D03*
X1928232Y1531462D03*
Y1535262D03*
X2062732Y1567462D03*
Y1571262D03*
X1945732Y1567462D03*
Y1571262D03*
X1916332Y1634362D03*
Y1638162D03*
X1950232Y1567462D03*
Y1571262D03*
X1911532Y1634362D03*
Y1638162D03*
X1950232Y1665762D03*
Y1661962D03*
X1969732Y1566262D03*
Y1562462D03*
X1954732Y1553262D03*
Y1549462D03*
X1932232Y1670962D03*
Y1674762D03*
X2042932Y1481262D03*
Y1477462D03*
X2072932Y1560162D03*
Y1556362D03*
X2067532Y1570962D03*
Y1567162D03*
X1923232Y1494762D03*
Y1490962D03*
X2031232Y1499262D03*
Y1495462D03*
X2049232Y1521762D03*
Y1517962D03*
X1936732Y1562262D03*
Y1558462D03*
X1927732Y1665762D03*
Y1661962D03*
X1999732Y1692762D03*
Y1688962D03*
X1968232Y1665762D03*
Y1661962D03*
X2008732Y1631462D03*
Y1627662D03*
Y1618662D03*
Y1622462D03*
X1959232Y1665762D03*
Y1661962D03*
X2008732Y1692762D03*
Y1688962D03*
X1965232Y1475262D03*
Y1471462D03*
X1945732Y1665762D03*
Y1661962D03*
X2024232Y1471762D03*
Y1467962D03*
X1977232Y1665762D03*
Y1661962D03*
X1936732Y1567462D03*
Y1571262D03*
X1945732Y1562262D03*
Y1558462D03*
X2026732Y1629762D03*
Y1625962D03*
X1941232Y1652962D03*
Y1656762D03*
X1999732Y1723962D03*
Y1727762D03*
X2058232Y1656762D03*
Y1652962D03*
X2004232Y1697962D03*
Y1701762D03*
X1927732Y1711462D03*
Y1715262D03*
X1923232Y1472962D03*
Y1476762D03*
X2004232Y1692762D03*
Y1688962D03*
X2049232Y1571262D03*
Y1567462D03*
X2019532Y1582962D03*
Y1579162D03*
X2012732Y1561962D03*
Y1565762D03*
X2013232Y1692762D03*
Y1688962D03*
X2012732Y1574262D03*
Y1570462D03*
X1950232Y1553262D03*
Y1549462D03*
X1959232Y1553262D03*
Y1549462D03*
X1941232Y1567462D03*
Y1571262D03*
X2053232Y1656762D03*
Y1652962D03*
X2022232Y1643262D03*
Y1639462D03*
X1923232Y1674762D03*
Y1670962D03*
X1950232Y1562262D03*
Y1558462D03*
X1965232Y1463662D03*
Y1467462D03*
X2044732Y1559862D03*
Y1556062D03*
X1963732Y1665762D03*
Y1661962D03*
X1954732Y1665762D03*
Y1661962D03*
X2008732Y1697962D03*
Y1701762D03*
X1999732Y1697962D03*
Y1701762D03*
X2007732Y1565762D03*
Y1561962D03*
X2013232Y1697962D03*
Y1701762D03*
X1923232Y1665762D03*
Y1661962D03*
X1941232Y1562262D03*
Y1558462D03*
X1972732Y1665762D03*
Y1661962D03*
X1990732Y1540462D03*
Y1544262D03*
X1981732Y1526962D03*
Y1530762D03*
X1977232Y1526962D03*
Y1530762D03*
X1995232Y1544262D03*
Y1540462D03*
X1977232Y1521762D03*
Y1517962D03*
X2053732Y1508962D03*
Y1512762D03*
X1995232Y1549462D03*
Y1553262D03*
X1986232Y1526962D03*
Y1530762D03*
X1972732Y1526962D03*
Y1530762D03*
X2003232Y1569862D03*
Y1573662D03*
X2053732Y1517962D03*
Y1521762D03*
X2011232Y1601262D03*
Y1597462D03*
X2056232Y1559762D03*
Y1555962D03*
X2067232Y1494762D03*
Y1490962D03*
X2053732Y1647762D03*
Y1643962D03*
X2067232Y1647762D03*
Y1643962D03*
X1986232Y1549162D03*
Y1552962D03*
X2044732Y1647762D03*
Y1643962D03*
X2040232Y1647762D03*
Y1643962D03*
X2037832Y1481262D03*
Y1477462D03*
X2058232Y1647762D03*
Y1643962D03*
X1986232Y1540462D03*
Y1544262D03*
X2004232Y1706962D03*
Y1710762D03*
X2024232Y1477462D03*
Y1481262D03*
X2028732Y1477462D03*
Y1481262D03*
X1927732Y1521762D03*
Y1517962D03*
X1932232Y1665762D03*
Y1661962D03*
X1927732Y1674762D03*
Y1670962D03*
X1995232Y1517962D03*
Y1521762D03*
X2017732D03*
Y1517962D03*
X2008732Y1521762D03*
Y1517962D03*
X2026732Y1643262D03*
Y1639462D03*
X2013232Y1521762D03*
Y1517962D03*
X2067232Y1665762D03*
Y1661962D03*
X2062732D03*
Y1665762D03*
X2013232Y1643262D03*
Y1639462D03*
X2071732Y1647762D03*
Y1643962D03*
X2062732Y1647762D03*
Y1643962D03*
X2049232Y1647762D03*
Y1643962D03*
X2053732Y1571262D03*
Y1567462D03*
X2058232D03*
Y1571262D03*
X2008732Y1715962D03*
Y1719762D03*
X1927732Y1512762D03*
Y1508962D03*
X1945732Y1656762D03*
Y1652962D03*
X1999732Y1715962D03*
Y1719762D03*
X2004232Y1517962D03*
Y1521762D03*
X2024032Y1582962D03*
Y1579162D03*
X1999732Y1517962D03*
Y1521762D03*
X2061232Y1546262D03*
Y1542462D03*
X2062732Y1470262D03*
Y1466462D03*
X2058232Y1470262D03*
Y1466462D03*
X2067232Y1470262D03*
Y1466462D03*
Y1477462D03*
Y1481262D03*
X2062732Y1477462D03*
Y1481262D03*
X2058232Y1477462D03*
Y1481262D03*
X2033032D03*
Y1477462D03*
X2053732Y1481262D03*
Y1477462D03*
X2027732Y1517962D03*
Y1521762D03*
X2026732Y1508962D03*
Y1512762D03*
X2007732Y1573762D03*
Y1569962D03*
X1972732Y1517962D03*
Y1521762D03*
X2019732Y1467962D03*
Y1471762D03*
X2028732Y1467962D03*
Y1471762D03*
X2049232Y1512762D03*
Y1508962D03*
X2058232Y1499962D03*
Y1503762D03*
X1981732Y1521762D03*
Y1517962D03*
X1927732Y1683762D03*
Y1679962D03*
X2076232Y1643962D03*
Y1647762D03*
X1977232Y1544262D03*
Y1540462D03*
X1972732D03*
Y1544262D03*
X2022232Y1517962D03*
Y1521762D03*
X1990732Y1517962D03*
Y1521762D03*
X1986232Y1517962D03*
Y1521762D03*
X2019732Y1477462D03*
Y1481262D03*
X2049232Y1477462D03*
Y1481262D03*
X1914232Y1683262D03*
Y1679462D03*
X2004232Y1715962D03*
Y1719762D03*
G54D170*
X2074332Y1695362D03*
X2078132D03*
X1938632Y1726862D03*
X1934832D03*
X1940432Y1671962D03*
X1936632D03*
X1938632Y1695362D03*
X1934832D03*
X1938632Y1717862D03*
X1934832D03*
X2074332Y1722362D03*
X2078132D03*
X1938632Y1731362D03*
X1934832D03*
X2083332Y1704362D03*
X2087132D03*
X2083332Y1708862D03*
X2087132D03*
X2002932Y1552862D03*
X2006732D03*
X2074332Y1699862D03*
X2078132D03*
X2083332Y1713362D03*
X2087132D03*
X2019432Y1589062D03*
X2015632D03*
X2023632D03*
X2027432D03*
X1938632Y1722362D03*
X1934832D03*
X1938632Y1690862D03*
X1934832D03*
X1938632Y1699862D03*
X1934832D03*
X2083332Y1717862D03*
X2087132D03*
X2074332Y1704362D03*
X2078132D03*
X1993132Y1559862D03*
X1989332D03*
X1981832D03*
X1985632D03*
X1938632Y1704362D03*
X1934832D03*
X2083332Y1722362D03*
X2087132D03*
X2074332Y1717862D03*
X2078132D03*
X1985532Y1575362D03*
X1989332D03*
X1938632Y1713362D03*
X1934832D03*
X1993832Y1575362D03*
X1997632D03*
X2074332Y1708862D03*
X2078132D03*
X2067632Y1652862D03*
X2063832D03*
X2072832Y1735262D03*
X2076632D03*
X1934832Y1708862D03*
X1938632D03*
X2072432Y1652862D03*
X2076232D03*
X2019632Y1609562D03*
X2015832D03*
X2074332Y1713362D03*
X2078132D03*
G54D171*
X2061232Y1555562D03*
Y1561162D03*
X2013732Y1724162D03*
Y1718562D03*
X1927732Y1729662D03*
Y1724062D03*
X2067232Y1561162D03*
Y1555562D03*
X2072932Y1570962D03*
Y1565362D03*
X2044132Y1572162D03*
Y1566562D03*
X1927732Y1695162D03*
Y1689562D03*
G54D172*
X2015032Y1621062D03*
X2022032D03*
X2002832Y1681562D03*
X2009832D03*
X2074232Y1683062D03*
X2081232D03*
G54D173*
X1947732Y1488862D03*
Y1496862D03*
Y1478862D03*
Y1470862D03*
X2008732Y1493362D03*
Y1501362D03*
G54D174*
X1974646Y1487520D03*
X1976220D03*
X1977795D03*
X1979370D03*
X1980945D03*
X1982520D03*
X1984094D03*
X1985669D03*
X1987244D03*
X1988819D03*
Y1507205D03*
X1987244D03*
X1985669D03*
X1984094D03*
X1982520D03*
X1980945D03*
X1979370D03*
X1977795D03*
X1976220D03*
X1974646D03*
G54D175*
X1991575Y1490276D03*
Y1491850D03*
Y1493425D03*
Y1495000D03*
Y1496575D03*
Y1498150D03*
Y1499724D03*
Y1501299D03*
Y1502874D03*
Y1504449D03*
X1971890D03*
Y1502874D03*
Y1501299D03*
Y1499724D03*
Y1498150D03*
Y1496575D03*
Y1495000D03*
Y1493425D03*
Y1491850D03*
Y1490276D03*
G54D176*
X1981732Y1497362D03*
G54D177*
X2044732Y1467362D03*
G54D178*
X2038827Y1470315D03*
Y1468347D03*
Y1466378D03*
Y1464409D03*
X2050638D03*
Y1466378D03*
Y1468347D03*
Y1470315D03*
G54D179*
X2048032Y1542112D03*
X2055432D03*
X2051732Y1550612D03*
X2050032Y1488612D03*
X2057432D03*
X2053732Y1497112D03*
X2043932Y1663612D03*
X2036532D03*
X2040232Y1655112D03*
X2034532Y1506612D03*
X2041932D03*
X2038232Y1515112D03*
X2034532Y1520112D03*
X2041932D03*
X2038232Y1528612D03*
X1970032Y1551112D03*
X1977432D03*
X1973732Y1559612D03*
X2043932Y1497112D03*
X2036532D03*
X2040232Y1488612D03*
X2070932Y1510612D03*
X2063532D03*
X2067232Y1502112D03*
G54D180*
X2023583Y1651862D03*
Y1656862D03*
Y1661862D03*
Y1666862D03*
X1993881D03*
Y1661862D03*
Y1656862D03*
Y1651862D03*
G54D181*
X1936732Y1522449D03*
Y1508276D03*
G54D182*
X2025863Y1602605D03*
X2017201D03*
Y1595519D03*
X2025863D03*
G54D185*
X2073932Y1690362D03*
X2079532D03*
X2073432Y1726862D03*
X2079032D03*
G74*
X0Y0D02*
M02*
