*
*
G04 PADS 9.5 Build Number: 522968 generated Gerber (RS-274-X) file*
G04 PC Version=2.1*
*
%IN "MT-RGBLVDS-A1 (2).pcb"*%
*
%MOIN*%
*
%FSLAX35Y35*%
*
*
*
*
G04 PC Standard Apertures*
*
*
G04 Thermal Relief Aperture macro.*
%AMTER*
1,1,$1,0,0*
1,0,$1-$2,0,0*
21,0,$3,$4,0,0,45*
21,0,$3,$4,0,0,135*
%
*
*
G04 Annular Aperture macro.*
%AMANN*
1,1,$1,0,0*
1,0,$2,0,0*
%
*
*
G04 Odd Aperture macro.*
%AMODD*
1,1,$1,0,0*
1,0,$1-0.005,0,0*
%
*
*
G04 PC Custom Aperture Macros*
*
*
*
*
*
*
G04 PC Aperture Table*
*
%ADD010C,0.01*%
%ADD024C,0.001*%
%ADD028C,0.005*%
%ADD029C,0.006*%
%ADD054C,0.00787*%
%ADD055C,0.00787*%
*
*
*
*
G04 PC Circuitry*
G04 Layer Name MT-RGBLVDS-A1 (2).pcb - circuitry*
%LPD*%
*
*
G04 PC Custom Flashes*
G04 Layer Name MT-RGBLVDS-A1 (2).pcb - flashes*
%LPD*%
*
*
G04 PC Circuitry*
G04 Layer Name MT-RGBLVDS-A1 (2).pcb - circuitry*
%LPD*%
*
G54D10*
G01X1927031Y1542394D02*
Y1495819D01*
X2072031*
Y1542394*
X1927031*
X2029390Y1630732D02*
X1974390D01*
Y1612732*
X2029390*
Y1620232*
Y1623232D02*
G75*
G03Y1620232I-0J-1500D01*
G01Y1623232D02*
Y1630732D01*
X1994016Y1576673D02*
X1947756D01*
Y1556890*
X2056024*
Y1576575*
X2009764*
X1881890Y1499606D02*
G03X1889764Y1491732I7874J0D01*
G01X1881890Y1499606D02*
Y1700394D01*
X1889764Y1708268D02*
G03X1881890Y1700394I-0J-7874D01*
G01X1889764Y1708268D02*
X2110236D01*
X2118110Y1700394D02*
G03X2110236Y1708268I-7874J-0D01*
G01X2118110Y1700394D02*
Y1499606D01*
X2110236Y1491732D02*
G03X2118110Y1499606I0J7874D01*
G01X2110236Y1491732D02*
X1889764D01*
G54D24*
G54D28*
X1954358Y1674937D02*
Y1673437D01*
X1964358Y1674937D02*
Y1673437D01*
X1974358Y1674937D02*
Y1673437D01*
X1984358Y1674937D02*
Y1673437D01*
X1993858Y1674937D02*
Y1673437D01*
X2003858Y1674937D02*
Y1673437D01*
X2013858Y1674937D02*
Y1673437D01*
X2023358Y1674937D02*
Y1673437D01*
X2033358Y1674937D02*
Y1673437D01*
X2043358Y1674937D02*
Y1673437D01*
X2050358Y1674437D02*
X2051358D01*
X2050858*
X2052358*
X2051358Y1675437*
X2050358Y1674437*
G54D29*
X2082252Y1568307D02*
Y1571482D01*
G03X2081490Y1572244I-762J0*
G01X2078290*
G03X2077528Y1571482I-0J-762*
G01Y1568307*
Y1565157D02*
Y1561982D01*
G03X2078290Y1561220I762J0*
G01X2081490*
G03X2082252Y1561982I-0J762*
G01Y1565157*
X2078340Y1567419D02*
X2081490D01*
X2078315Y1566238D02*
X2081465D01*
X1980252Y1590307D02*
Y1593482D01*
G03X1979490Y1594244I-762J0*
G01X1976290*
G03X1975528Y1593482I-0J-762*
G01Y1590307*
Y1587157D02*
Y1583982D01*
G03X1976290Y1583220I762J0*
G01X1979490*
G03X1980252Y1583982I-0J762*
G01Y1587157*
X1976340Y1589419D02*
X1979490D01*
X1976315Y1588238D02*
X1979465D01*
X2006652Y1590307D02*
Y1593482D01*
G03X2005890Y1594244I-762J0*
G01X2002690*
G03X2001928Y1593482I-0J-762*
G01Y1590307*
Y1587157D02*
Y1583982D01*
G03X2002690Y1583220I762J0*
G01X2005890*
G03X2006652Y1583982I-0J762*
G01Y1587157*
X2002740Y1589419D02*
X2005890D01*
X2002715Y1588238D02*
X2005865D01*
X2035028Y1586657D02*
Y1583482D01*
G03X2035790Y1582720I762J0*
G01X2038990*
G03X2039752Y1583482I-0J762*
G01Y1586657*
Y1589807D02*
Y1592982D01*
G03X2038990Y1593744I-762J0*
G01X2035790*
G03X2035028Y1592982I-0J-762*
G01Y1589807*
X2038939Y1587545D02*
X2035790D01*
X2038965Y1588726D02*
X2035815D01*
X2088252Y1568307D02*
Y1571482D01*
G03X2087490Y1572244I-762J0*
G01X2084290*
G03X2083528Y1571482I-0J-762*
G01Y1568307*
Y1565157D02*
Y1561982D01*
G03X2084290Y1561220I762J0*
G01X2087490*
G03X2088252Y1561982I-0J762*
G01Y1565157*
X2084340Y1567419D02*
X2087490D01*
X2084315Y1566238D02*
X2087465D01*
X2057252Y1636107D02*
Y1639282D01*
G03X2056490Y1640044I-762J0*
G01X2053290*
G03X2052528Y1639282I-0J-762*
G01Y1636107*
Y1632957D02*
Y1629782D01*
G03X2053290Y1629020I762J0*
G01X2056490*
G03X2057252Y1629782I-0J762*
G01Y1632957*
X2053340Y1635219D02*
X2056490D01*
X2053315Y1634038D02*
X2056465D01*
X2043528Y1636107D02*
Y1640044D01*
X2048252*
Y1636107*
Y1632958D02*
Y1629021D01*
X2043528*
Y1632958*
X2000252Y1587157D02*
Y1583220D01*
X1995528*
Y1587157*
Y1590307D02*
Y1594244D01*
X2000252*
Y1590307*
X1973852Y1587157D02*
Y1583220D01*
X1969128*
Y1587157*
Y1590307D02*
Y1594244D01*
X1973852*
Y1590307*
X1962728D02*
Y1594244D01*
X1967452*
Y1590307*
Y1587158D02*
Y1583221D01*
X1962728*
Y1587158*
X1960252Y1660107D02*
Y1663282D01*
G03X1959490Y1664044I-762J0*
G01X1956290*
G03X1955528Y1663282I-0J-762*
G01Y1660107*
Y1656957D02*
Y1653782D01*
G03X1956290Y1653020I762J0*
G01X1959490*
G03X1960252Y1653782I-0J762*
G01Y1656957*
X1956340Y1659219D02*
X1959490D01*
X1956315Y1658038D02*
X1959465D01*
X1991253Y1548670D02*
Y1545670D01*
X1991117Y1545107*
X1990981Y1544920*
X1990708Y1544732*
X1990435*
X1990162Y1544920*
X1990026Y1545107*
X1989890Y1545670*
Y1546045*
X1992481Y1547920D02*
X1992753Y1548107D01*
X1993162Y1548670*
Y1544732*
X2033294Y1622526D02*
Y1619714D01*
X2033431Y1619151*
X2033703Y1618776*
X2034112Y1618589*
X2034385*
X2034794Y1618776*
X2035067Y1619151*
X2035203Y1619714*
Y1622526*
X2036567Y1621589D02*
Y1621776D01*
X2036703Y1622151*
X2036840Y1622339*
X2037112Y1622526*
X2037658*
X2037931Y1622339*
X2038067Y1622151*
X2038203Y1621776*
Y1621401*
X2038067Y1621026*
X2037794Y1620464*
X2036431Y1618589*
X2038340*
X2078734Y1575914D02*
X2078359Y1575778D01*
X2077984Y1575505*
X2077796Y1575232*
Y1574687*
X2077984Y1574414*
X2078359Y1574141*
X2078734Y1574005*
X2079296Y1573869*
X2080234*
X2080796Y1574005*
X2081171Y1574141*
X2081546Y1574414*
X2081734Y1574687*
Y1575232*
X2081546Y1575505*
X2081171Y1575778*
X2080796Y1575914*
X2078734Y1577278D02*
X2078546D01*
X2078171Y1577414*
X2077984Y1577550*
X2077796Y1577823*
Y1578369*
X2077984Y1578641*
X2078171Y1578778*
X2078546Y1578914*
X2078921*
X2079296Y1578778*
X2079859Y1578505*
X2081734Y1577141*
Y1579050*
X2070734Y1577028D02*
X2070359Y1576891D01*
X2069984Y1576619*
X2069796Y1576346*
Y1575800*
X2069984Y1575528*
X2070359Y1575255*
X2070734Y1575119*
X2071296Y1574982*
X2072234*
X2072796Y1575119*
X2073171Y1575255*
X2073546Y1575528*
X2073734Y1575800*
Y1576346*
X2073546Y1576619*
X2073171Y1576891*
X2072796Y1577028*
X2070546Y1578255D02*
X2070359Y1578528D01*
X2069796Y1578937*
X2073734*
X2103253Y1563170D02*
Y1560170D01*
X2103117Y1559607*
X2102981Y1559420*
X2102708Y1559232*
X2102435*
X2102162Y1559420*
X2102026Y1559607*
X2101890Y1560170*
Y1560545*
X2104753Y1563170D02*
X2106253D01*
X2105435Y1561670*
X2105844*
X2106117Y1561482*
X2106253Y1561295*
X2106390Y1560732*
Y1560357*
X2106253Y1559795*
X2105981Y1559420*
X2105572Y1559232*
X2105162*
X2104753Y1559420*
X2104617Y1559607*
X2104481Y1559982*
X1997431Y1667626D02*
Y1664626D01*
X1997294Y1664064*
X1997158Y1663876*
X1996885Y1663689*
X1996612*
X1996340Y1663876*
X1996203Y1664064*
X1996067Y1664626*
Y1665001*
X1998794Y1666689D02*
Y1666876D01*
X1998931Y1667251*
X1999067Y1667439*
X1999340Y1667626*
X1999885*
X2000158Y1667439*
X2000294Y1667251*
X2000431Y1666876*
Y1666501*
X2000294Y1666126*
X2000022Y1665564*
X1998658Y1663689*
X2000567*
X1937108Y1567826D02*
Y1565014D01*
X1937244Y1564451*
X1937517Y1564076*
X1937926Y1563889*
X1938199*
X1938608Y1564076*
X1938881Y1564451*
X1939017Y1565014*
Y1567826*
X1940244Y1567076D02*
X1940517Y1567264D01*
X1940926Y1567826*
Y1563889*
X1976734Y1597846D02*
X1976359Y1597710D01*
X1975984Y1597437*
X1975796Y1597164*
Y1596619*
X1975984Y1596346*
X1976359Y1596073*
X1976734Y1595937*
X1977296Y1595800*
X1978234*
X1978796Y1595937*
X1979171Y1596073*
X1979546Y1596346*
X1979734Y1596619*
Y1597164*
X1979546Y1597437*
X1979171Y1597710*
X1978796Y1597846*
X1975796Y1600437D02*
X1978421Y1599073D01*
Y1601119*
X1975796Y1600437D02*
X1979734D01*
X2003634Y1597346D02*
X2003259Y1597210D01*
X2002884Y1596937*
X2002696Y1596665*
Y1596119*
X2002884Y1595846*
X2003259Y1595574*
X2003634Y1595437*
X2004196Y1595301*
X2005134*
X2005696Y1595437*
X2006071Y1595574*
X2006446Y1595846*
X2006634Y1596119*
Y1596665*
X2006446Y1596937*
X2006071Y1597210*
X2005696Y1597346*
X2002696Y1600346D02*
Y1598983D01*
X2004384Y1598846*
X2004196Y1598983*
X2004009Y1599392*
Y1599801*
X2004196Y1600210*
X2004571Y1600483*
X2005134Y1600619*
X2005509Y1600483*
X2006071Y1600346*
X2006446Y1600074*
X2006634Y1599665*
Y1599255*
X2006446Y1598846*
X2006259Y1598710*
X2005884Y1598574*
X2036234Y1597382D02*
X2035859Y1597246D01*
X2035484Y1596973*
X2035296Y1596700*
Y1596155*
X2035484Y1595882*
X2035859Y1595610*
X2036234Y1595473*
X2036796Y1595337*
X2037734*
X2038296Y1595473*
X2038671Y1595610*
X2039046Y1595882*
X2039234Y1596155*
Y1596700*
X2039046Y1596973*
X2038671Y1597246*
X2038296Y1597382*
X2035859Y1600246D02*
X2035484Y1600110D01*
X2035296Y1599700*
Y1599428*
X2035484Y1599019*
X2036046Y1598746*
X2036984Y1598610*
X2037921*
X2038671Y1598746*
X2039046Y1599019*
X2039234Y1599428*
Y1599564*
X2039046Y1599973*
X2038671Y1600246*
X2038109Y1600382*
X2037921*
X2037359Y1600246*
X2036984Y1599973*
X2036796Y1599564*
Y1599428*
X2036984Y1599019*
X2037359Y1598746*
X2037921Y1598610*
X2084734Y1575914D02*
X2084359Y1575778D01*
X2083984Y1575505*
X2083796Y1575232*
Y1574687*
X2083984Y1574414*
X2084359Y1574141*
X2084734Y1574005*
X2085296Y1573869*
X2086234*
X2086796Y1574005*
X2087171Y1574141*
X2087546Y1574414*
X2087734Y1574687*
Y1575232*
X2087546Y1575505*
X2087171Y1575778*
X2086796Y1575914*
X2083796Y1577414D02*
Y1578914D01*
X2085296Y1578096*
Y1578505*
X2085484Y1578778*
X2085671Y1578914*
X2086234Y1579050*
X2086609*
X2087171Y1578914*
X2087546Y1578641*
X2087734Y1578232*
Y1577823*
X2087546Y1577414*
X2087359Y1577278*
X2086984Y1577141*
X2054272Y1626689D02*
X2054135Y1627064D01*
X2053862Y1627439*
X2053590Y1627626*
X2053044*
X2052772Y1627439*
X2052499Y1627064*
X2052362Y1626689*
X2052226Y1626126*
Y1625189*
X2052362Y1624626*
X2052499Y1624251*
X2052772Y1623876*
X2053044Y1623689*
X2053590*
X2053862Y1623876*
X2054135Y1624251*
X2054272Y1624626*
X2057408Y1627626D02*
X2056044Y1623689D01*
X2055499Y1627626D02*
X2057408D01*
X2044908Y1627026D02*
Y1623089D01*
Y1627026D02*
X2046135D01*
X2046544Y1626839*
X2046681Y1626651*
X2046817Y1626276*
Y1625901*
X2046681Y1625526*
X2046544Y1625339*
X2046135Y1625151*
X2044908*
X2045862D02*
X2046817Y1623089D01*
X2048044Y1626276D02*
X2048317Y1626464D01*
X2048726Y1627026*
Y1623089*
X1996296Y1595369D02*
X2000234D01*
X1996296D02*
Y1596596D01*
X1996484Y1597005*
X1996671Y1597141*
X1997046Y1597278*
X1997421*
X1997796Y1597141*
X1997984Y1597005*
X1998171Y1596596*
Y1595369*
Y1596323D02*
X2000234Y1597278D01*
X1996296Y1599869D02*
X1998921Y1598505D01*
Y1600550*
X1996296Y1599869D02*
X2000234D01*
X1969396Y1595937D02*
X1973334D01*
X1969396D02*
Y1597164D01*
X1969584Y1597573*
X1969771Y1597710*
X1970146Y1597846*
X1970521*
X1970896Y1597710*
X1971084Y1597573*
X1971271Y1597164*
Y1595937*
Y1596891D02*
X1973334Y1597846D01*
X1969396Y1599346D02*
Y1600846D01*
X1970896Y1600028*
Y1600437*
X1971084Y1600710*
X1971271Y1600846*
X1971834Y1600982*
X1972209*
X1972771Y1600846*
X1973146Y1600573*
X1973334Y1600164*
Y1599755*
X1973146Y1599346*
X1972959Y1599210*
X1972584Y1599073*
X1962996Y1595337D02*
X1966934D01*
X1962996D02*
Y1596564D01*
X1963184Y1596973*
X1963371Y1597110*
X1963746Y1597246*
X1964121*
X1964496Y1597110*
X1964684Y1596973*
X1964871Y1596564*
Y1595337*
Y1596291D02*
X1966934Y1597246D01*
X1963934Y1598610D02*
X1963746D01*
X1963371Y1598746*
X1963184Y1598882*
X1962996Y1599155*
Y1599700*
X1963184Y1599973*
X1963371Y1600110*
X1963746Y1600246*
X1964121*
X1964496Y1600110*
X1965059Y1599837*
X1966934Y1598473*
Y1600382*
X1950834Y1658114D02*
X1950459Y1657978D01*
X1950084Y1657705*
X1949896Y1657432*
Y1656887*
X1950084Y1656614*
X1950459Y1656341*
X1950834Y1656205*
X1951396Y1656069*
X1952334*
X1952896Y1656205*
X1953271Y1656341*
X1953646Y1656614*
X1953834Y1656887*
Y1657432*
X1953646Y1657705*
X1953271Y1657978*
X1952896Y1658114*
X1949896Y1660023D02*
X1950084Y1659614D01*
X1950459Y1659478*
X1950834*
X1951209Y1659614*
X1951396Y1659887*
X1951584Y1660432*
X1951771Y1660841*
X1952146Y1661114*
X1952521Y1661250*
X1953084*
X1953459Y1661114*
X1953646Y1660978*
X1953834Y1660569*
Y1660023*
X1953646Y1659614*
X1953459Y1659478*
X1953084Y1659341*
X1952521*
X1952146Y1659478*
X1951771Y1659750*
X1951584Y1660160*
X1951396Y1660705*
X1951209Y1660978*
X1950834Y1661114*
X1950459*
X1950084Y1660978*
X1949896Y1660569*
Y1660023*
G54D54*
X2028695Y1628518D02*
G03X2028695I-1468J0D01*
G01X2067815Y1564961D02*
Y1561339D01*
G03X2069390Y1559764I1575J-0*
G01X2074390*
G03X2075965Y1561339I-0J1575*
G01Y1564961*
Y1568504D02*
Y1572126D01*
G03X2074390Y1573701I-1575J-0*
G01X2069390*
G03X2067815Y1572126I-0J-1575*
G01Y1568504*
X2113858Y1602736D02*
X2112638Y1601516D01*
Y1586752*
Y1571988*
X2109331*
X2109134Y1601516D02*
X2112638D01*
X2112756Y1571910D02*
X2113976Y1570689D01*
X2112677Y1573839D02*
X2113622D01*
X2114134Y1574350*
X2114094Y1599193*
X2113583Y1599705*
X2112717*
X2092953Y1574744D02*
Y1571988D01*
X2099173*
X2099291Y1601516D02*
X2092953D01*
Y1598563*
G54D55*
X2049858Y1701437D02*
X2046358Y1697937D01*
X1959358*
X1955858Y1701437*
X2052358Y1692937D02*
Y1682937D01*
X1953358*
Y1693937*
Y1701437*
X2052358*
Y1693937*
Y1691937*
X1953358Y1693937D02*
X2052358D01*
X2044520Y1585462D02*
X2037410Y1578319D01*
X2030267Y1585429*
X2044520Y1585462*
G74*
X0Y0D02*
M02*
