*
*
G04 PADS 9.5 Build Number: 522968 generated Gerber (RS-274-X) file*
G04 PC Version=2.1*
*
%IN "MT-ATSAMA5D2x-A.pcb"*%
*
%MOIN*%
*
%FSLAX35Y35*%
*
*
*
*
G04 PC Standard Apertures*
*
*
G04 Thermal Relief Aperture macro.*
%AMTER*
1,1,$1,0,0*
1,0,$1-$2,0,0*
21,0,$3,$4,0,0,45*
21,0,$3,$4,0,0,135*
%
*
*
G04 Annular Aperture macro.*
%AMANN*
1,1,$1,0,0*
1,0,$2,0,0*
%
*
*
G04 Odd Aperture macro.*
%AMODD*
1,1,$1,0,0*
1,0,$1-0.005,0,0*
%
*
*
G04 PC Custom Aperture Macros*
*
*
*
*
*
*
G04 PC Aperture Table*
*
%ADD060C,0.002*%
%ADD064C,0.00591*%
%ADD103C,0.001*%
%ADD129C,0.004*%
%ADD136C,0.00787*%
*
*
*
*
G04 PC Circuitry*
G04 Layer Name MT-ATSAMA5D2x-A.pcb - circuitry*
%LPD*%
*
*
G04 PC Custom Flashes*
G04 Layer Name MT-ATSAMA5D2x-A.pcb - flashes*
%LPD*%
*
*
G04 PC Circuitry*
G04 Layer Name MT-ATSAMA5D2x-A.pcb - circuitry*
%LPD*%
*
G54D60*
G01X103937Y395276D02*
G75*
G03X100000Y391339I0J-3937D01*
G01X103937Y395276D02*
X312598D01*
X316535Y391339D02*
G03X312598Y395276I-3937J-0D01*
G01X316535Y391339D02*
Y103937D01*
X312598Y100000D02*
G03X316535Y103937I0J3937D01*
G01X312598Y100000D02*
X103937D01*
X100000Y103937D02*
G03X103937Y100000I3937J0D01*
G01X100000Y103937D02*
Y391339D01*
G54D64*
X227462Y207700D02*
G03X227462I-2362J0D01*
G01X156362Y113000D02*
G03X156362I-2362J0D01*
G01X273062Y375700D02*
G03X273062I-2362J0D01*
G01X148562Y113000D02*
G03X148562I-2362J0D01*
G01X241862Y217600D02*
G03X241862I-2362J0D01*
G01X225962Y280800D02*
G03X225962I-2362J0D01*
G01X249662Y207700D02*
G03X249662I-2362J0D01*
G01X239162Y112300D02*
G03X239162I-2362J0D01*
G01X195962Y119200D02*
G03X195962I-2362J0D01*
G01X148862Y144400D02*
G03X148862I-2362J0D01*
G01X202862Y114000D02*
G03X202862I-2362J0D01*
G01X223362Y223300D02*
G03X223362I-2362J0D01*
G01X225662Y268600D02*
G03X225662I-2362J0D01*
G01X259562D02*
G03X259562I-2362J0D01*
G01X148862Y119500D02*
G03X148862I-2362J0D01*
G01X180662Y113500D02*
G03X180662I-2362J0D01*
G01X175562D02*
G03X175562I-2362J0D01*
G01X165362Y131500D02*
G03X165362I-2362J0D01*
G01X224862Y114000D02*
G03X224862I-2362J0D01*
G01X277762Y142000D02*
G03X277762I-2362J0D01*
G01X277862Y134200D02*
G03X277862I-2362J0D01*
G54D103*
G54D129*
G01X227170Y202842D02*
Y200020D01*
X227918Y202842D02*
X226423D01*
X225461D02*
Y200020D01*
Y202842D02*
X224500D01*
X224180Y202708*
X224073Y202573*
X223966Y202305*
Y201902*
X224073Y201633*
X224180Y201498*
X224500Y201364*
X225461*
X222470Y202842D02*
X222791Y202708D01*
X222898Y202439*
Y202170*
X222791Y201902*
X222577Y201767*
X222150Y201633*
X221830Y201498*
X221616Y201230*
X221509Y200961*
Y200558*
X221616Y200289*
X221723Y200155*
X222043Y200020*
X222470*
X222791Y200155*
X222898Y200289*
X223005Y200558*
Y200961*
X222898Y201230*
X222684Y201498*
X222364Y201633*
X221936Y201767*
X221723Y201902*
X221616Y202170*
Y202439*
X221723Y202708*
X222043Y202842*
X222470*
X158618Y122142D02*
Y119320D01*
X159366Y122142D02*
X157870D01*
X156909D02*
Y119320D01*
Y122142D02*
X155948D01*
X155627Y122008*
X155520Y121873*
X155414Y121605*
Y121202*
X155520Y120933*
X155627Y120798*
X155948Y120664*
X156909*
X154452Y121605D02*
X154239Y121739D01*
X153918Y122142*
Y119320*
X152743Y122142D02*
X151568D01*
X152209Y121067*
X151889*
X151675Y120933*
X151568Y120798*
X151461Y120395*
Y120127*
X151568Y119723*
X151782Y119455*
X152102Y119320*
X152423*
X152743Y119455*
X152850Y119589*
X152957Y119858*
X271365Y368942D02*
Y366120D01*
X272112Y368942D02*
X270617D01*
X269656D02*
Y366120D01*
Y368942D02*
X268694D01*
X268374Y368808*
X268267Y368673*
X268160Y368405*
Y368002*
X268267Y367733*
X268374Y367598*
X268694Y367464*
X269656*
X267199Y368405D02*
X266985Y368539D01*
X266665Y368942*
Y366120*
X264315Y368002D02*
X264422Y367598D01*
X264635Y367330*
X264956Y367195*
X265062*
X265062D02*
X265383Y367330D01*
X265597Y367598*
X265703Y368002*
Y368136*
X265597Y368539*
X265383Y368808*
X265062Y368942*
X265062D02*
X264956D01*
X264635Y368808*
X264422Y368539*
X264315Y368002*
Y367330*
X264422Y366658*
X264635Y366255*
X264956Y366120*
X265169*
X265490Y366255*
X265597Y366523*
X142145Y114642D02*
Y111820D01*
X142893Y114642D02*
X141398D01*
X140436D02*
Y111820D01*
Y114642D02*
X139475D01*
X139155Y114508*
X139048Y114373*
X138941Y114105*
Y113702*
X139048Y113433*
X139155Y113298*
X139475Y113164*
X140436*
X137873Y113970D02*
Y114105D01*
X137766Y114373*
X137659Y114508*
X137445Y114642*
X137018*
X136805Y114508*
X136698Y114373*
X136591Y114105*
Y113836*
X136698Y113567*
X136911Y113164*
X137980Y111820*
X136484*
X134241Y114239D02*
X134348Y114508D01*
X134668Y114642*
X134882*
X135202Y114508*
X135416Y114105*
X135523Y113433*
Y112761*
X135416Y112223*
X135202Y111955*
X134882Y111820*
X134775*
X134455Y111955*
X134241Y112223*
X134134Y112627*
Y112761*
X134241Y113164*
X134455Y113433*
X134775Y113567*
X134882*
X135202Y113433*
X135416Y113164*
X135523Y112761*
X242418Y208942D02*
Y206120D01*
X243166Y208942D02*
X241670D01*
X240709D02*
Y206120D01*
Y208942D02*
X239748D01*
X239427Y208808*
X239320Y208673*
X239214Y208405*
Y208002*
X239320Y207733*
X239427Y207598*
X239748Y207464*
X240709*
X238252Y208405D02*
X238039Y208539D01*
X237718Y208942*
Y206120*
X235261Y208942D02*
X236330Y206120D01*
X236757Y208942D02*
X235261D01*
X227165Y277342D02*
Y274520D01*
X227912Y277342D02*
X226417D01*
X225456D02*
Y274520D01*
Y277342D02*
X224494D01*
X224174Y277208*
X224067Y277073*
X223960Y276805*
Y276402*
X224067Y276133*
X224174Y275998*
X224494Y275864*
X225456*
X222999Y276805D02*
X222785Y276939D01*
X222465Y277342*
Y274520*
X220222Y276939D02*
X220328Y277208D01*
X220649Y277342*
X220862*
X220862D02*
X221183Y277208D01*
X221397Y276805*
X221503Y276133*
Y275461*
X221397Y274923*
X221183Y274655*
X220862Y274520*
X220862D02*
X220756D01*
X220435Y274655*
X220222Y274923*
X220115Y275327*
Y275461*
X220222Y275864*
X220435Y276133*
X220756Y276267*
X220862*
X220862D02*
X221183Y276133D01*
X221397Y275864*
X221503Y275461*
X249418Y203442D02*
Y200620D01*
X250166Y203442D02*
X248670D01*
X247709D02*
Y200620D01*
Y203442D02*
X246748D01*
X246427Y203308*
X246320Y203173*
X246214Y202905*
Y202502*
X246320Y202233*
X246427Y202098*
X246748Y201964*
X247709*
X245145Y202770D02*
Y202905D01*
X245039Y203173*
X244932Y203308*
X244718Y203442*
X244291*
X244077Y203308*
X243970Y203173*
X243864Y202905*
Y202636*
X243970Y202367*
X244184Y201964*
X245252Y200620*
X243757*
X242795Y202905D02*
X242582Y203039D01*
X242261Y203442*
Y200620*
X252470Y113642D02*
Y110820D01*
X253218Y113642D02*
X251723D01*
X250761D02*
Y110820D01*
Y113642D02*
X249800D01*
X249480Y113508*
X249373Y113373*
X249266Y113105*
Y112702*
X249373Y112433*
X249480Y112298*
X249800Y112164*
X250761*
X248091Y113642D02*
X246916D01*
X247557Y112567*
X247236*
X247023Y112433*
X246916Y112298*
X246809Y111895*
Y111627*
X246916Y111223*
X247130Y110955*
X247450Y110820*
X247770*
X248091Y110955*
X248198Y111089*
X248305Y111358*
X196024Y115142D02*
Y112320D01*
X196772Y115142D02*
X195276D01*
X194315D02*
Y112320D01*
Y115142D02*
X193353D01*
X193033Y115008*
X192926Y114873*
X192819Y114605*
Y114202*
X192926Y113933*
X193033Y113798*
X193353Y113664*
X194315*
X190469Y115142D02*
X191537D01*
X191537D02*
X191644Y113933D01*
X191537Y114067*
X191537D02*
X191217Y114202D01*
X190897*
X190576Y114067*
X190362Y113798*
X190362D02*
X190256Y113395D01*
X190362Y113127*
X190362D02*
X190469Y112723D01*
X190683Y112455*
X191003Y112320*
X191324*
X191644Y112455*
X191751Y112589*
X191858Y112858*
X148370Y152142D02*
Y149320D01*
X149118Y152142D02*
X147623D01*
X146661D02*
Y149320D01*
Y152142D02*
X145700D01*
X145380Y152008*
X145273Y151873*
X145166Y151605*
Y151202*
X145273Y150933*
X145380Y150798*
X145700Y150664*
X146661*
X142709Y152142D02*
X143777Y149320D01*
X144205Y152142D02*
X142709D01*
X211118Y121042D02*
Y118220D01*
X211866Y121042D02*
X210370D01*
X209409D02*
Y118220D01*
Y121042D02*
X208448D01*
X208127Y120908*
X208020Y120773*
X207914Y120505*
Y120102*
X208020Y119833*
X208127Y119698*
X208448Y119564*
X209409*
X206952Y120505D02*
X206739Y120639D01*
X206418Y121042*
Y118220*
X204816Y121042D02*
X205136Y120908D01*
X205350Y120505*
X205457Y119833*
Y119430*
X205350Y118758*
X205136Y118355*
X204816Y118220*
X204602*
X204282Y118355*
X204068Y118758*
X203961Y119430*
Y119833*
X204068Y120505*
X204282Y120908*
X204602Y121042*
X204816*
X224399Y217342D02*
Y214520D01*
X225147Y217342D02*
X223651D01*
X222690D02*
Y214520D01*
Y217342D02*
X221728D01*
X221408Y217208*
X221301Y217073*
X221194Y216805*
Y216402*
X221301Y216133*
X221408Y215998*
X221728Y215864*
X222690*
X220126Y216670D02*
Y216805D01*
X220019Y217073*
X219912Y217208*
X219912D02*
X219699Y217342D01*
X219272*
X219058Y217208*
X218951Y217073*
X218844Y216805*
Y216536*
X218951Y216267*
X219165Y215864*
X220233Y214520*
X218737*
X217135Y217342D02*
X217456Y217208D01*
X217669Y216805*
X217776Y216133*
Y215730*
X217669Y215058*
X217456Y214655*
X217135Y214520*
X216922*
X216601Y214655*
X216387Y215058*
X216387D02*
X216281Y215730D01*
Y216133*
X216387Y216805*
X216387D02*
X216601Y217208D01*
X216922Y217342*
X217135*
X227918Y262942D02*
Y260120D01*
X228666Y262942D02*
X227170D01*
X226209D02*
Y260120D01*
Y262942D02*
X225248D01*
X224927Y262808*
X224820Y262673*
X224714Y262405*
Y262002*
X224820Y261733*
X224927Y261598*
X225248Y261464*
X226209*
X223752Y262405D02*
X223539Y262539D01*
X223218Y262942*
Y260120*
X221723Y262942D02*
X222043Y262808D01*
X222150Y262539*
Y262270*
X222043Y262002*
X221830Y261867*
X221402Y261733*
X221082Y261598*
X220868Y261330*
X220761Y261061*
Y260658*
X220868Y260389*
X220975Y260255*
X221295Y260120*
X221723*
X222043Y260255*
X222150Y260389*
X222257Y260658*
Y261061*
X222150Y261330*
X221936Y261598*
X221616Y261733*
X221189Y261867*
X220975Y262002*
X220868Y262270*
Y262539*
X220975Y262808*
X221295Y262942*
X221723*
X260617Y264342D02*
Y261520D01*
X261365Y264342D02*
X259869D01*
X258908D02*
Y261520D01*
Y264342D02*
X257947D01*
X257626Y264208*
X257519Y264073*
X257412Y263805*
Y263402*
X257519Y263133*
X257626Y262998*
X257947Y262864*
X258908*
X255062Y263402D02*
X255169Y262998D01*
X255383Y262730*
X255703Y262595*
X255810*
X256131Y262730*
X256344Y262998*
X256451Y263402*
Y263536*
X256344Y263939*
X256131Y264208*
X255810Y264342*
X255703*
X255383Y264208*
X255169Y263939*
X255062Y263402*
Y262730*
X255169Y262058*
X255383Y261655*
X255703Y261520*
X255917*
X256237Y261655*
X256344Y261923*
X149817Y127142D02*
Y124320D01*
X150565Y127142D02*
X149069D01*
X148108D02*
Y124320D01*
Y127142D02*
X147147D01*
X146826Y127008*
X146719Y126873*
X146612Y126605*
X146612D02*
Y126202D01*
X146612D02*
X146719Y125933D01*
X146826Y125798*
X147147Y125664*
X148108*
X144369Y126739D02*
X144476Y127008D01*
X144797Y127142*
X145010*
X145331Y127008*
X145544Y126605*
X145651Y125933*
Y125261*
X145544Y124723*
X145331Y124455*
X145010Y124320*
X144903*
X144583Y124455*
X144369Y124723*
X144262Y125127*
X144262D02*
Y125261D01*
X144262D02*
X144369Y125664D01*
X144583Y125933*
X144903Y126067*
X145010*
X145331Y125933*
X145544Y125664*
X145651Y125261*
X184672Y121142D02*
Y118320D01*
X185419Y121142D02*
X183924D01*
X182962D02*
Y118320D01*
Y121142D02*
X182001D01*
X181681Y121008*
X181574Y120873*
X181467Y120605*
Y120202*
X181574Y119933*
X181681Y119798*
X182001Y119664*
X182962*
X180506Y120605D02*
X180292Y120739D01*
X179972Y121142*
Y118320*
X177622Y121142D02*
X178690D01*
X178797Y119933*
X178690Y120067*
X178369Y120202*
X178049*
X177728Y120067*
X177515Y119798*
X177408Y119395*
X177515Y119127*
X177622Y118723*
X177835Y118455*
X178156Y118320*
X178476*
X178797Y118455*
X178903Y118589*
X179010Y118858*
X174899Y120342D02*
Y117520D01*
X175647Y120342D02*
X174151D01*
X173190D02*
Y117520D01*
Y120342D02*
X172228D01*
X171908Y120208*
X171801Y120073*
X171694Y119805*
Y119402*
X171801Y119133*
X171908Y118998*
X172228Y118864*
X173190*
X170626Y119670D02*
Y119805D01*
X170519Y120073*
X170413Y120208*
X170413D02*
X170199Y120342D01*
X169772*
X169558Y120208*
X169451Y120073*
X169344Y119805*
Y119536*
X169451Y119267*
X169665Y118864*
X170733Y117520*
X169238*
X168063Y120342D02*
X166888D01*
X166888D02*
X167528Y119267D01*
X167208*
X166994Y119133*
X166888Y118998*
X166888D02*
X166781Y118595D01*
Y118327*
X166888Y117923*
X166888D02*
X167101Y117655D01*
X167422Y117520*
X167742*
X168063Y117655*
X168063D02*
X168169Y117789D01*
X168276Y118058*
X165152Y138642D02*
Y135820D01*
X165900Y138642D02*
X164405D01*
X163443D02*
Y135820D01*
Y138642D02*
X162482D01*
X162161Y138508*
X162055Y138373*
X161948Y138105*
Y137702*
X162055Y137433*
X162161Y137298*
X162482Y137164*
X163443*
X160880Y137970D02*
Y138105D01*
X160773Y138373*
X160666Y138508*
X160452Y138642*
X160025*
X159811Y138508*
X159705Y138373*
X159598Y138105*
Y137836*
X159705Y137567*
X159918Y137164*
X160986Y135820*
X159491*
X157461Y138642D02*
X158530Y136761D01*
X156927*
X157461Y138642D02*
Y135820D01*
X223852Y124142D02*
Y121320D01*
X224600Y124142D02*
X223105D01*
X222143D02*
Y121320D01*
Y124142D02*
X221182D01*
X220861Y124008*
X220755Y123873*
X220648Y123605*
Y123202*
X220755Y122933*
X220861Y122798*
X221182Y122664*
X222143*
X219580Y123470D02*
Y123605D01*
X219473Y123873*
X219366Y124008*
X219152Y124142*
X218725*
X218511Y124008*
X218405Y123873*
X218298Y123605*
Y123336*
X218405Y123067*
X218618Y122664*
X219686Y121320*
X218191*
X215841Y124142D02*
X216909D01*
X217016Y122933*
X216909Y123067*
X216589Y123202*
X216268*
X215948Y123067*
X215734Y122798*
X215627Y122395*
X215734Y122127*
X215841Y121723*
X216055Y121455*
X216375Y121320*
X216695*
X217016Y121455*
X217123Y121589*
X217230Y121858*
X278372Y149642D02*
Y146820D01*
X279119Y149642D02*
X277624D01*
X276663D02*
Y146820D01*
Y149642D02*
X275701D01*
X275381Y149508*
X275274Y149373*
X275167Y149105*
Y148702*
X275274Y148433*
X275381Y148298*
X275701Y148164*
X276663*
X274206Y149105D02*
X273992Y149239D01*
X273672Y149642*
Y146820*
X271642Y149642D02*
X272710Y147761D01*
X271108*
X271642Y149642D02*
Y146820D01*
X270937Y135942D02*
Y133120D01*
X271685Y135942D02*
X270190D01*
X269228D02*
Y133120D01*
Y135942D02*
X268267D01*
X267947Y135808*
X267840Y135673*
X267733Y135405*
Y135002*
X267840Y134733*
X267947Y134598*
X268267Y134464*
X269228*
X266772Y135405D02*
X266558Y135539D01*
X266237Y135942*
X266237D02*
Y133120D01*
X265276Y135405D02*
X265062Y135539D01*
X265062D02*
X264742Y135942D01*
Y133120*
X134602Y125942D02*
Y123792D01*
X134709Y123389*
X134816Y123255*
X135030Y123120*
X135243*
X135457Y123255*
X135564Y123389*
X135670Y123792*
Y124061*
X133641Y125405D02*
X133427Y125539D01*
X133107Y125942*
Y123120*
X130864Y125539D02*
X130970Y125808D01*
X131291Y125942*
X131505*
X131825Y125808*
X132039Y125405*
X132145Y124733*
Y124061*
X132039Y123523*
X131825Y123255*
X131505Y123120*
X131398*
X131077Y123255*
X130864Y123523*
X130757Y123927*
Y124061*
X130864Y124464*
X131077Y124733*
X131398Y124867*
X131505*
X131825Y124733*
X132039Y124464*
X132145Y124061*
X283656Y122442D02*
Y120292D01*
X283762Y119889*
X283762D02*
X283869Y119755D01*
X284083Y119620*
X284297*
X284510Y119755*
X284617Y119889*
X284724Y120292*
Y120561*
X282694Y121905D02*
X282481Y122039D01*
X282160Y122442*
Y119620*
X279703Y122442D02*
X280772Y119620D01*
X281199Y122442D02*
X279703D01*
G54D136*
X126417Y123735D02*
Y118551D01*
X103583*
Y123735*
X126417Y374863D02*
Y380047D01*
X103583*
Y374863*
X118937Y380047D02*
Y375283D01*
X111063*
Y380047*
X118937Y118551D02*
Y123315D01*
X111063*
Y118551*
X126136Y383176D02*
X121648D01*
X123661Y381163*
X124123*
X126136Y383176*
X312417Y123735D02*
Y118551D01*
X289583*
Y123735*
X312417Y374863D02*
Y380047D01*
X289583*
Y374863*
X304937Y380047D02*
Y375283D01*
X297063*
Y380047*
X304937Y118551D02*
Y123315D01*
X297063*
Y118551*
X312136Y383176D02*
X307648D01*
X309661Y381163*
X310123*
X312136Y383176*
G74*
X0Y0D02*
M02*
