%
T1C.012F095S3
X00464Y0058
X00508Y00608
X00488Y00652
X00492Y00708
X0046Y00932
X00288Y01056
X00496Y01072
X0046Y01372
X0046Y01492
X0046Y0266
X0046Y03016
X00676Y0198
X00728Y01444
X00572Y01416
X00572Y0138
X00544Y01344
X006Y01332
X00736Y01204
X0074Y0116
X006Y0116
X00648Y0116
X00572Y01108
X00648Y01104
X00684Y011
X0054Y01064
X0068Y01056
X00673Y00909
X00716Y00632
X00672Y00624
X00752Y0062
X00604Y00616
X0074Y0054
X00982Y0051
X0094Y0054
X0082Y00792
X00908Y00916
X0084Y01052
X01036Y01052
X00884Y01064
X00796Y01068
X0084Y01088
X008Y01104
X0084Y0116
X00876Y0116
X008Y0116
X00912Y01164
X0092Y01208
X00928Y01444
X00932Y02184
X00924Y02856
X009249Y029631
X01024Y03696
X0081Y0381
X00875Y03815
X01288Y0376
X01336Y0376
X01088Y03744
X01412Y03708
X01368Y03708
X01176Y03316
X0108Y02576
X0116Y02576
X01295Y0256
X0136Y0256
X01355Y024
X01356Y02296
X0108Y01488
X0116Y01488
X01116Y01444
X01092Y01416
X01076Y0138
X01068Y01344
X01408Y01268
X01335Y0123
X01365Y0123
X01444Y01216
X01344Y01188
X0106Y01184
X01232Y0094
X0109Y0059
X01632Y0112
X01928Y0114
X02032Y01148
X01852Y01164
X01635Y0119
X01776Y01344
X01776Y0145
X01628Y01472
X02032Y01724
X01576Y01724
X01608Y0176
X01924Y01976
X0174Y02205
X0186Y03116
X01812Y0312
X01904Y03136
X01812Y03168
X01676Y03168
X01984Y03196
X01868Y03312
X01916Y03312
X01676Y03692
X01888Y03772
X01595Y0384
X0192Y0412
X02464Y03784
X02416Y03784
X02464Y03736
X02276Y03684
X02176Y03684
X02224Y0368
X02325Y0368
X02325Y03315
X02375Y03314
X02472Y03216
X02536Y03216
X02464Y0286
X02524Y02856
X02504Y02356
X02364Y02216
X02408Y02184
X02096Y0216
X02476Y01972
X02276Y01804
X022Y01784
X021Y01724
X02308Y0172
X025Y01656
X02516Y01588
X0246Y01544
X02368Y01536
X02112Y01524
X0248Y01504
X0246Y01436
X02504Y01436
X024Y0134
X024Y01292
X024Y01244
X024Y01196
X02256Y01188
X024Y01152
X0212Y01148
X02076Y01148
X024Y01108
X02132Y01096
X02076Y01096
X02512Y0104
X02264Y01012
X026Y01048
X0266Y01048
X0298Y01076
X02936Y0108
X03028Y01124
X02936Y0114
X03032Y01168
X0288Y0118
X03032Y01212
X02964Y01308
X0292Y01308
X02916Y01356
X02964Y01356
X0264Y01424
X0254Y01656
X0258Y01656
X0266Y0166
X02732Y0166
X02876Y01768
X02712Y01784
X0264Y01788
X02676Y01792
X02876Y01804
X02948Y01972
X03024Y01976
X0281Y02185
X02964Y0224
X0286Y02245
X02648Y02272
X0274Y02315
X02595Y0232
X02548Y0372
X02776Y03868
X02612Y03952
X0312Y038
X03252Y03144
X03364Y03144
X03284Y03124
X0332Y03116
X034Y03112
X03364Y02828
X03408Y02824
X03308Y02816
X03272Y028
X03124Y0198
X03216Y01828
X03064Y01748
X03096Y0172
X03152Y01668
X03308Y0144
X03072Y01208
X03112Y01208
X03072Y01164
X03112Y0116
X03068Y0112
X03112Y01116
X03792Y00472
X0384Y0198
X0378Y0198
X03772Y02148
X03848Y02148
X03668Y02304
X04024Y02304
X03735Y0237
X03852Y02456
X03992Y02456
X0378Y02456
X0392Y02456
X03872Y03088
X03924Y03088
X04116Y03152
X04168Y03152
X04116Y02792
X04168Y02792
X04345Y02785
X04485Y0277
X0441Y0277
X04265Y02755
X04345Y0274
X04485Y0272
X0441Y02715
X0427Y02705
X04345Y0269
X04485Y0266
X0441Y0266
X0427Y02655
X04345Y02635
X0441Y0261
X04485Y02605
X0427Y02595
X04345Y0258
X0441Y02555
X04485Y0255
X04096Y02296
X04184Y02164
X04284Y02164
X0445Y0215
X04155Y02
X04155Y01945
X0451Y0186
X0434Y0074
X04665Y00415
X04905Y00425
X05226Y00486
X0469Y00515
X04905Y00516
X05139Y00519
X04585Y00675
X04796Y00684
X04856Y0072
X04585Y0074
X062Y01784
X06268Y01784
X06144Y0176
X06144Y01684
X05562Y00519
X0564Y0048
T2C.016F095S3
X01012Y0084
X00731Y0092
X00288Y0116
X00276Y03028
X00372Y03204
X0095Y0436
X0146Y0441
X01675Y04405
X0112Y0439
X0168Y039
X01672Y03504
X0162Y0126
X01296Y01072
X01084Y00528
X02452Y00772
X0182Y00912
X02102Y01029
X02468Y01036
X02404Y01036
X0217Y01058
X01996Y01104
X02328Y015
X019Y0159
X0217Y0168
X0209Y03775
X0229Y03785
X02225Y03785
X02365Y0379
X0215Y0379
X02435Y03905
X02415Y03945
X02632Y03828
X02736Y03788
X0264Y01496
X0282Y01216
X02724Y01124
X02732Y01044
X02804Y01028
X03016Y01028
X02876Y01024
X02944Y0102
X02564Y00768
X0326Y00948
X0364Y01188
X03736Y0132
X0388Y0146
X0388Y0151
X0388Y01555
X0388Y016
X0388Y0165
X0388Y017
X0388Y01745
X0388Y0179
X03885Y0198
X04025Y02105
X03844Y0332
X03995Y034
X03925Y0361
X0385Y0367
X036Y0391
X038Y03912
X04Y03916
X039Y0409
X037Y0409
X037Y0462
X039Y0463
X045Y0463
X041Y04625
X043Y0462
X045Y041
X041Y0409
X043Y0409
X042Y0392
X044Y0392
X04345Y037
X04195Y037
X04455Y03625
X045Y03565
X0446Y03468
X0427Y03195
X0434Y02455
X042Y02455
X0413Y02455
X0406Y02455
X0441Y02455
X0448Y02455
X0427Y02455
X0415Y0168
X04475Y0164
X0503Y01195
X0487Y01355
X04685Y01645
X04625Y01645
X04835Y0165
X0454Y01805
X0462Y01805
X0455Y0245
X0467Y0249
X04935Y0266
X046Y0392
X047Y041
X0484Y04435
X0497Y0445
X047Y0463
X0497Y04645
X0484Y04655
X0506Y04615
X0506Y0445
X05165Y0404
X05355Y0342
X0521Y0296
X05095Y0295
X0513Y01395
X0534Y01395
X05484Y01312
X0533Y01175
X05452Y01168
X05272Y008
X05392Y008
X0575Y0117
X05755Y0138
X06235Y02255
X0611Y02285
X061722Y0233
X0577Y0261
X06165Y02785
X06135Y02915
X0559Y03445
X062Y03445
X0589Y03445
X069Y0397
X07005Y0396
X0686Y036
X065Y0343
X06615Y03225
X0674Y0321
X06404Y01784
X0648Y01465
X07085Y0318
T3C.01969F095S3
X001967Y00112
X001345Y001408
X002608Y001418
X001123Y001969
X002812Y001969
X002576Y002552
X001359Y002556
X001972Y002809
X001967Y048364
X001345Y048652
X002608Y048662
X001123Y049213
X002812Y049213
X002576Y049796
X001359Y0498
X001972Y050053
X072836Y050061
X072195Y049764
X071991Y049212
X072227Y048629
X072831Y048372
X072838Y002809
X072225Y002556
X071989Y001969
X072211Y001408
X072833Y00112
X073474Y001418
X073678Y001969
X073442Y002552
X073444Y048625
X07368Y049212
X073458Y049773
T4C.025F197S55
X00136Y00456
X0022Y0046
X0006Y00464
X0006Y0054
X0014Y0054
X0022Y0054
X0014Y00636
X0006Y00636
X00232Y00636
X00164Y00732
X00084Y00732
X00244Y00732
X0006Y0096
X0014Y0096
X0016Y0104
X0022Y0108
X0022Y0116
X0008Y0122
X0016Y0122
X002Y0128
X0012Y0128
X0004Y0128
X0016Y0152
X0008Y0152
X0004Y016
X002Y016
X0012Y016
X0016Y0166
X0008Y0166
X0004Y0172
X002Y0172
X0012Y0172
X0016Y0178
X0008Y0178
X0004Y0184
X002Y0184
X0012Y0184
X0016Y019
X0008Y019
X002Y0196
X0012Y0196
X0004Y0196
X0008Y0202
X0016Y0202
X002Y0208
X0012Y0208
X0004Y0208
X0016Y0214
X0008Y0214
X0004Y022
X0012Y022
X002Y022
X0018Y0228
X001Y0228
X0006Y0234
X0014Y0234
X0022Y0234
X0004Y024
X001Y024
X0018Y024
X0026Y024
X0006Y0248
X0012Y0248
X0018Y0248
X0024Y0248
X0028Y0254
X0022Y0254
X0016Y0254
X0004Y0254
X001Y0254
X0024Y028
X0028Y0308
X0024Y0328
X0024Y0336
X0024Y0344
X0016Y0344
X0008Y0344
X0024Y0352
X0016Y0352
X0008Y0352
X0015Y036
X0015Y0366
X0014Y03735
X0007Y03735
X0014Y03815
X00075Y03815
X0014Y0402
X0022Y0402
X0006Y0402
X0018Y041
X001Y041
X0014Y0418
X00264Y0418
X0014Y0426
X001Y0442
X0008Y0448
X0016Y0448
X0016Y0456
X0008Y0456
X0008Y0464
X0016Y0464
X0024Y0464
X005Y0506
X0048Y05
X0048Y0492
X0048Y0484
X0032Y0464
X0051Y0427
X0051Y042
X0041Y0416
X00506Y04108
X0031Y0407
X0039Y0407
X00462Y04016
X004Y0352
X0032Y0352
X00532Y0352
X0048Y0352
X004Y0344
X0032Y0344
X0048Y0344
X004Y0336
X0032Y0336
X0048Y0336
X005Y032
X005Y0308
X0038Y0306
X0052Y0282
X0032Y028
X004Y028
X0052Y0268
X005Y0254
X0042Y0254
X0046Y0248
X003Y0248
X0038Y0248
X0034Y024
X0048Y0008
X0064Y0008
X0056Y0008
X0078Y0248
X007Y0248
X0062Y0248
X0054Y0248
X0066Y0254
X0074Y0254
X0058Y0254
X0076Y0268
X0068Y0268
X006Y0268
X0076Y0282
X0068Y0282
X006Y0282
X0074Y0308
X0066Y0308
X0058Y0308
X0072Y032
X0066Y032
X0058Y032
X0056Y0336
X0056Y0344
X0064Y037
X0058Y0386
X0056Y0392
X00546Y04028
X0064Y0406
X0076Y04075
X006Y0412
X0067Y0448
X0056Y0448
X0072Y046
X0072Y0468
X0072Y0476
X0072Y0484
X0064Y0484
X0056Y0484
X0072Y0492
X0064Y0492
X0056Y0492
X0056Y05
X0064Y05
X0072Y05
X0058Y0506
X0066Y0506
X0074Y0506
X0082Y0506
X009Y0506
X0098Y0506
X008Y05
X0088Y05
X0096Y05
X008Y0492
X0096Y0492
X0088Y0492
X008Y0484
X0096Y0484
X0088Y0484
X008Y0476
X008Y0468
X008Y046
X00895Y04075
X00825Y04075
X009Y04
X00824Y04
X01Y038
X0084Y0282
X0098Y028
X0084Y0268
X0092Y0268
X009Y0254
X0098Y0254
X0082Y0254
X0094Y0248
X0102Y0248
X0086Y0248
X0102Y0224
X0096Y0224
X00832Y02212
X0098Y0218
X01Y0012
X0092Y0012
X0122Y0136
X0126Y0142
X0122Y0148
X0118Y0218
X0112Y0218
X0106Y0218
X0124Y0218
X0114Y0224
X0108Y0224
X012Y0224
X0126Y0224
X0122Y025
X0128Y0266
X0108Y027
X0118Y027
X0128Y0274
X0118Y0278
X0108Y0278
X0128Y0282
X0118Y0286
X0108Y0286
X0128Y029
X0108Y0294
X0118Y0294
X0128Y0298
X0108Y0302
X01172Y0304
X0128Y0306
X0108Y031
X01172Y0312
X0128Y0314
X0108Y0318
X0128Y0322
X0118Y0324
X0108Y0328
X0128Y033
X0118Y0372
X0106Y038
X0109Y04105
X0128Y04195
X0124Y0428
X0124Y0436
X012Y0484
X0112Y0484
X0104Y0484
X0128Y0484
X0112Y0492
X0104Y0492
X012Y0492
X0128Y0492
X0104Y05
X0112Y05
X012Y05
X0128Y05
X0114Y0506
X0106Y0506
X0122Y0506
X013Y0506
X0138Y0506
X0146Y0506
X0136Y05
X0144Y05
X0152Y05
X0152Y0492
X0144Y0492
X0136Y0492
X0152Y0484
X0144Y0484
X0136Y0484
X0142Y0474
X0144Y0464
X0132Y0436
X0132Y0428
X01395Y041
X01475Y041
X01471Y03902
X01471Y03847
X0146Y0372
X0138Y033
X0148Y0328
X0138Y0322
X0138Y0314
X0138Y0306
X0138Y0298
X0138Y029
X0138Y0282
X0132Y0224
X0152Y0224
X013Y0218
X013Y0148
X013Y0136
X0148Y0076
X01404Y00728
X0148Y0068
X01404Y00648
X0148Y006
X0148Y0052
X016Y0012
X016Y002
X016Y0028
X0176Y0036
X0168Y0036
X016Y0036
X0164Y0052
X0156Y0052
X016Y0064
X0168Y0064
X016Y0072
X0168Y0072
X016Y008
X0168Y008
X016Y0088
X016Y0096
X0154Y0328
X0168Y0328
X016Y0374
X016Y039
X0154Y039
X0178Y0394
X01785Y03995
X01785Y04045
X0169Y041
X01555Y041
X01625Y041
X01785Y0412
X0176Y0436
X0172Y0444
X0176Y0452
X0176Y046
X0176Y0468
X0176Y0476
X0168Y0484
X016Y0484
X016Y0492
X0168Y0492
X016Y05
X0168Y05
X0176Y05
X0154Y0506
X0162Y0506
X017Y0506
X0178Y0506
X0186Y0506
X0202Y0506
X0184Y05
X02Y05
X0192Y0492
X02Y0492
X02Y0484
X0192Y0484
X0184Y0476
X02Y0476
X0192Y0476
X02Y0468
X0192Y0468
X0184Y0468
X02Y046
X0192Y046
X0184Y046
X0184Y0452
X0192Y0452
X02Y0452
X018Y0444
X0188Y0444
X0196Y0444
X02Y0436
X0192Y0436
X0184Y0436
X0196Y0428
X0188Y0428
X018Y0428
X02Y042
X0192Y042
X0184Y042
X01895Y0404
X0195Y04035
X0189Y03985
X0195Y03985
X01965Y0393
X0184Y0324
X0192Y0292
X0192Y0274
X0192Y026
X0192Y0254
X0192Y0248
X0192Y0242
X0192Y0236
X0192Y023
X0192Y0224
X01919Y01372
X02Y01372
X01964Y01327
X02004Y01287
X01924Y01287
X0196Y008
X0196Y0064
X0184Y0036
X0192Y0036
X02Y0036
X0192Y0028
X02Y0028
X02Y002
X0192Y002
X0208Y002
X0224Y002
X0216Y002
X0208Y0028
X0216Y0028
X022Y006
X021Y0226
X02244Y02288
X021Y0236
X02244Y02368
X021Y0244
X02244Y02448
X021Y025
X02244Y02528
X021Y0258
X02244Y02608
X0216Y042
X0208Y042
X0224Y042
X022Y0428
X0212Y0428
X0204Y0428
X0228Y0428
X0216Y0436
X0208Y0436
X0224Y0436
X0212Y0444
X022Y0444
X0228Y0444
X0204Y0444
X0216Y0452
X0224Y0452
X0208Y0452
X0216Y046
X0208Y046
X0224Y046
X0216Y0468
X0208Y0468
X0224Y0468
X0216Y0476
X0208Y0476
X0224Y0476
X0216Y0484
X0208Y0484
X0224Y0484
X0216Y0492
X0208Y0492
X0224Y0492
X0208Y05
X0216Y05
X0224Y05
X021Y0506
X0218Y0506
X0226Y0506
X0234Y0506
X0242Y0506
X025Y0506
X024Y05
X0232Y05
X0248Y05
X024Y0492
X0232Y0492
X0248Y0492
X024Y0484
X0232Y0484
X0248Y0484
X024Y0476
X0232Y0476
X0248Y0476
X024Y0468
X0232Y0468
X0248Y0468
X024Y046
X0232Y046
X0248Y046
X0232Y0452
X024Y0452
X0248Y0452
X0236Y0444
X0244Y0444
X0252Y0444
X024Y0436
X0232Y0436
X0248Y0436
X0252Y0428
X0244Y0428
X0236Y0428
X0248Y042
X024Y042
X0232Y042
X0242Y033
X023Y0326
X0236Y0326
X0242Y0324
X0248Y0274
X024Y0274
X0232Y0274
X023Y026
X0246Y026
X0238Y026
X0234Y0254
X0242Y0254
X025Y0254
X0238Y0248
X0246Y0248
X023Y0248
X025Y0242
X0242Y0242
X0234Y0242
X0238Y0236
X023Y0236
X0234Y023
X0232Y0064
X0232Y0056
X0232Y0048
X0232Y004
X0264Y0044
X0264Y0052
X0256Y0052
X026Y006
X0268Y0064
X0278Y0248
X027Y0248
X0262Y0248
X0254Y0248
X0258Y0254
X0274Y0254
X0266Y0254
X0254Y026
X0278Y026
X027Y026
X0262Y026
X0272Y0274
X0256Y0274
X0264Y0274
X027Y0324
X0262Y0324
X0274Y033
X0266Y033
X0258Y0332
X0264Y042
X0256Y042
X0272Y042
X0268Y0428
X026Y0428
X0276Y0428
X0256Y0436
X0264Y0436
X0272Y0436
X0268Y0444
X0276Y0444
X026Y0444
X0264Y0452
X0256Y0452
X0272Y0452
X0264Y046
X0256Y046
X0272Y046
X0264Y0468
X0256Y0468
X0272Y0468
X0264Y0476
X0256Y0476
X0272Y0476
X0264Y0484
X0256Y0484
X0272Y0484
X0264Y0492
X0256Y0492
X0272Y0492
X0272Y05
X0264Y05
X0256Y05
X0258Y0506
X0266Y0506
X0274Y0506
X0282Y0506
X029Y0506
X028Y05
X028Y0492
X0288Y0492
X028Y0484
X0296Y0484
X0288Y0484
X028Y0476
X0296Y0476
X0288Y0476
X028Y0468
X0296Y0468
X0288Y0468
X028Y046
X0296Y046
X0288Y046
X0288Y0452
X0296Y0452
X028Y0452
X0284Y0444
X03Y0444
X0292Y0444
X0296Y0436
X028Y0436
X0288Y0436
X0284Y0428
X0292Y0428
X03Y0428
X0296Y042
X0288Y042
X028Y042
X02915Y0281
X02995Y0281
X028Y0274
X02995Y0273
X02915Y0273
X0286Y026
X0294Y026
X0302Y026
X0298Y0254
X029Y0254
X0282Y0254
X0294Y0248
X0286Y0248
X0302Y0248
X0316Y0088
X03236Y01068
X031Y0248
X0318Y0248
X0326Y0248
X0322Y0254
X0314Y0254
X0306Y0254
X0326Y026
X031Y026
X0318Y026
X0326Y0272
X0318Y0272
X03075Y0273
X03075Y0281
X0316Y0281
X0328Y0336
X0328Y0344
X0328Y0352
X0328Y036
X0312Y0396
X0312Y0404
X0312Y0412
X0328Y0412
X032Y0412
X0328Y042
X0312Y042
X032Y042
X0304Y0436
X032Y0436
X0312Y0436
X0316Y0444
X0308Y0444
X0304Y0452
X0336Y042
X0352Y0412
X0344Y0412
X0336Y0412
X0344Y0392
X0352Y0392
X0352Y0384
X0344Y0384
X0352Y0376
X0344Y0376
X0336Y036
X0344Y036
X0352Y036
X0336Y0352
X0344Y0352
X0352Y0352
X0336Y0344
X0344Y0344
X0352Y0344
X0352Y0336
X0344Y0336
X0336Y0334
X035Y0316
X035Y0272
X0334Y0272
X0342Y0272
X0334Y026
X0342Y026
X035Y026
X033Y0254
X0338Y0254
X0346Y0254
X0342Y0248
X0334Y0248
X035Y0248
X0352Y0228
X0352Y022
X0344Y02184
X03328Y02176
X0344Y0212
X0352Y0212
X03328Y02104
X0352Y02
X0344Y02
X0344Y018
X0352Y018
X0348Y0172
X0348Y0164
X03425Y0159
X0352Y0156
X0352Y0124
X0344Y012
X03504Y0112
X0344Y0112
X03308Y01064
X0344Y0104
X035Y0104
X0344Y0096
X0332Y0096
X035Y00956
X0344Y0088
X0332Y0088
X03504Y00876
X03588Y00868
X03564Y00952
X03644Y00952
X0372Y0164
X0364Y0164
X0356Y0164
X0356Y0172
X0372Y0172
X0364Y0172
X036Y018
X0368Y018
X0368Y02
X036Y02
X0368Y0212
X036Y0212
X036Y022
X036Y0228
X0366Y0248
X0358Y0248
X037Y0254
X0362Y0254
X0354Y0254
X0374Y026
X0358Y026
X0366Y026
X0374Y0272
X0358Y0272
X0366Y0272
X0356Y0316
X0362Y0316
X036Y0336
X036Y0344
X036Y0352
X036Y036
X036Y0376
X0388Y0376
X0396Y0376
X0404Y0376
X0392Y0368
X04215Y03525
X04135Y03525
X04215Y03445
X04135Y03445
X04215Y03365
X04135Y03365
X0396Y032
X0388Y032
X0404Y032
X0428Y0312
X0402Y0276
X0382Y0272
X041Y027
X0402Y0268
X041Y0262
X0402Y0262
X0382Y026
X04Y02
X04005Y0183
X04Y0168
X04Y016
X04Y0152
X0408Y0152
X0392Y0078
X0432Y00864
X0432Y00944
X0432Y01024
X0432Y01104
X0432Y01184
X0464Y0212
X0472Y0216
X0464Y022
X0472Y0228
X0464Y0228
X0472Y0236
X0464Y0236
X046Y0264
X046Y0272
X046Y028
X04672Y02848
X0476Y0288
X04776Y02964
X0436Y0312
X046Y0312
X0452Y0312
X0444Y0312
X0436Y032
X0444Y032
X046Y032
X04295Y03365
X04295Y03445
X04295Y03525
X0468Y036
X044Y0368
X0468Y0368
X044Y0376
X0468Y0376
X0468Y0384
X0472Y0404
X0496Y0396
X0488Y0396
X0496Y0388
X0488Y0388
X0484Y0364
X0484Y0356
X0484Y0348
X048Y032
X0488Y032
X0496Y0308
X0488Y0308
X0484Y0296
X0484Y0288
X0496Y026
X0488Y026
X048Y0256
X0488Y0252
X0496Y0252
X048Y0248
X0492Y0184
X0499Y01835
X0508Y012
X0524Y012
X0528Y014
X0507Y01835
X0515Y01835
X0524Y0212
X0524Y022
X0524Y0228
X0512Y024
X0524Y024
X0512Y0248
X0524Y0248
X0512Y0256
X0516Y02635
X05065Y02645
X05285Y02665
X0528Y0292
X0528Y03
X0504Y0308
X0524Y0316
X0524Y0324
X052Y0372
X0504Y0376
X0516Y0384
X0508Y0384
X0552Y0388
X0536Y0376
X0552Y0376
X0548Y0324
X054Y0324
X0532Y0324
X0548Y0316
X054Y0316
X0532Y0316
X0536Y0308
X0552Y0308
X0544Y0308
X0544Y03
X0536Y03
X0552Y03
X0544Y0292
X0536Y0292
X0544Y0276
X0544Y0268
X0544Y026
X0548Y0248
X054Y0248
X0532Y0248
X0544Y024
X0532Y024
X0532Y0228
X054Y0228
X0548Y0228
X0548Y022
X054Y022
X0532Y022
X0548Y0212
X054Y0212
X0532Y0212
X05355Y01995
X05435Y01995
X05515Y01995
X0538Y0183
X0576Y0164
X05595Y01995
X05675Y01995
X05755Y01995
X0572Y0212
X0572Y022
X0572Y0228
X0556Y024
X0568Y024
X0556Y0248
X0572Y0248
X0564Y0248
X0576Y0292
X0568Y03
X056Y03
X0576Y03
X0568Y0308
X0576Y0308
X056Y0308
X0576Y0316
X0568Y038
X0568Y0388
X0568Y0396
X0588Y0396
X0588Y0388
X0584Y0376
X0584Y0316
X0584Y0308
X0584Y03
X058Y0248
X0588Y0232
X0596Y0232
X0592Y018
X06Y016
X0584Y016
X0592Y016
X06Y0144
X0592Y0144
X06Y0136
X0592Y0136
X06Y0128
X0592Y0128
X06Y012
X0592Y012
X0592Y0112
X06Y0112
X0592Y0104
X06Y0104
X0592Y0096
X06Y0096
X0592Y0088
X06Y0088
X06Y008
X0592Y008
X0592Y0072
X06Y0072
X06Y0064
X0592Y0064
X0592Y0056
X0592Y0048
X0592Y004
X06Y004
X06Y0032
X0592Y0032
X0624Y0008
X0616Y0008
X0624Y0016
X0616Y0016
X0624Y0024
X0616Y0024
X0608Y0032
X0616Y0032
X0624Y0032
X0616Y004
X0608Y004
X0624Y004
X0616Y0048
X0624Y0048
X0624Y0056
X0616Y0056
X0608Y0064
X0616Y0064
X0624Y0064
X0608Y0072
X0624Y0072
X0616Y0072
X0616Y008
X0624Y008
X0608Y008
X0624Y0088
X0616Y0088
X0608Y0088
X0624Y0096
X0608Y0096
X0616Y0096
X0608Y0104
X0616Y0104
X0624Y0104
X0608Y0112
X0624Y0112
X0626Y012
X0608Y012
X0624Y0128
X0608Y0128
X0616Y0128
X0616Y0136
X0608Y0136
X0608Y0144
X0616Y0144
X0608Y016
X0616Y016
X0628Y0204
X0604Y0232
X0624Y0232
X0623Y027
X0612Y0372
X0628Y0376
X0612Y038
X0612Y0388
X0612Y0396
X064Y0396
X064Y0388
X064Y038
X0648Y0276
X0648Y0244
X064Y0236
X0632Y0236
X0648Y0236
X0632Y0228
X064Y0228
X0648Y0228
X0636Y0204
X0652Y0204
X0644Y0204
X0636Y0164
X0652Y0164
X0644Y0164
X0632Y0128
X0648Y0128
X064Y0128
X0632Y012
X064Y012
X0648Y012
X0648Y0112
X064Y0112
X0632Y0112
X0632Y0104
X064Y0104
X0648Y0104
X0632Y0096
X064Y0096
X0648Y0096
X0632Y0088
X064Y0088
X0648Y0088
X0632Y008
X064Y008
X0648Y008
X064Y0072
X0632Y0072
X0648Y0072
X064Y0064
X0632Y0064
X0648Y0064
X0632Y0056
X064Y0056
X0648Y0056
X0632Y0048
X0648Y0048
X064Y0048
X064Y004
X0648Y004
X0632Y004
X0632Y0032
X064Y0032
X0648Y0032
X0632Y0024
X064Y0024
X0632Y0016
X0648Y0016
X064Y0016
X0648Y0008
X0632Y0008
X064Y0008
X0672Y0008
X0664Y0008
X0656Y0008
X0664Y0016
X0656Y0016
X0672Y0016
X0672Y0024
X0656Y0024
X0664Y0024
X0672Y0032
X0664Y0032
X0656Y0032
X0672Y004
X0664Y004
X0656Y004
X0656Y0048
X0664Y0048
X0672Y0048
X0656Y0056
X0672Y0056
X0664Y0056
X0664Y0064
X0672Y0064
X0656Y0064
X0672Y0072
X0656Y0072
X0664Y0072
X0656Y008
X0664Y008
X0672Y008
X0656Y0088
X0672Y0088
X0664Y0088
X0672Y0096
X0664Y0096
X0656Y0096
X0656Y0104
X0664Y0104
X0672Y0104
X0664Y0112
X0656Y0112
X0664Y012
X0656Y012
X0656Y0128
X0664Y0128
X0672Y0128
X0672Y0136
X0672Y0144
X066Y0184
X066Y0192
X0672Y0204
X066Y0204
X0664Y0212
X0664Y022
X0664Y0228
X0656Y0228
X0672Y0228
X0664Y0236
X0656Y0236
X0672Y0236
X0656Y0244
X0664Y0244
X0656Y0276
X0664Y03
X0672Y0328
X0664Y0328
X0656Y0328
X0676Y034
X0676Y0348
X0676Y0356
X0664Y038
X0656Y038
X0672Y038
X0672Y0388
X0664Y0388
X0664Y0396
X0672Y0396
X068Y0396
X0696Y038
X068Y038
X0696Y0372
X0684Y0352
X0696Y0348
X0688Y0344
X0696Y034
X0696Y0332
X07Y0236
X068Y0236
X07Y0228
X068Y0228
X0688Y0204
X068Y0204
X07Y0192
X07Y0184
X07Y0172
X0702Y01635
X0696Y016
X0702Y01555
X068Y0152
X0696Y0152
X0702Y01475
X0696Y0144
X068Y0144
X0702Y01395
X068Y0136
X0696Y0136
X0702Y01315
X068Y0128
X0696Y0128
X0702Y01235
X068Y012
X0696Y012
X0702Y01155
X068Y0112
X0696Y0112
X0702Y01075
X068Y0104
X0696Y0104
X0702Y00995
X068Y0096
X0696Y0096
X0702Y00915
X0696Y0088
X068Y0088
X0702Y00835
X068Y008
X0696Y008
X0702Y00755
X0696Y0072
X068Y0072
X0702Y00675
X0696Y0064
X068Y0064
X0702Y00595
X0696Y0056
X0702Y00515
X0696Y0048
X0702Y00435
X0688Y004
X0696Y004
X068Y004
X0702Y00355
X0688Y0032
X0696Y0032
X068Y0032
X068Y0024
X0728Y02
X0704Y02
X072Y02
X072Y0228
X0728Y0228
X0728Y0304
X072Y0304
X0712Y0304
X0704Y0304
X072Y0316
X0728Y0316
X072Y0324
X0712Y0324
X0728Y0324
X0728Y0332
X0712Y0332
X0704Y0332
X072Y0332
X0704Y034
X0728Y034
X0712Y034
X072Y034
X0704Y0348
X072Y0348
X0728Y0348
X0712Y0348
X072Y0356
X0712Y0356
X072Y0364
X0712Y0364
X072Y0372
X0728Y0372
X0712Y0372
X0704Y0372
X072Y038
X0712Y038
X0704Y038
X0728Y038
X0724Y0388
X0724Y0396
X0724Y0404
X0728Y0412
X0712Y0412
X072Y0412
X0704Y042
X0704Y0428
X0728Y0456
X0712Y0456
X0712Y0464
X0728Y0464
X072Y0464
X0744Y0412
X0736Y0412
X0736Y038
X0744Y038
X0744Y0372
X0736Y0372
X0736Y0348
X0744Y0348
X0744Y034
X0736Y034
X0736Y0332
X0744Y0332
X0744Y0232
X0736Y0228
X0744Y0224
X0744Y0216
X0744Y0208
X0744Y02
X0736Y02
T5C.02677F197S55
X01468Y001752
X0142Y00225
X0152Y00225
X0152Y00325
X0142Y00325
X0147Y003752
X0534Y0397
X0534Y0387
X0558Y0387
X0582Y0387
X0606Y0387
X063Y0387
X0558Y0397
X0606Y0397
X0582Y0397
X063Y0397
X0654Y0397
X0654Y0387
T6C.03F197S55
X04988Y03424
X06624Y0252
X06568Y0252
T7C.0315F197S55
X001Y008405
X001Y011515
T8C.0315F197S55
X000623Y026604
X00141Y026604
X00141Y027391
X000623Y027391
X00141Y028179
X000623Y028179
X00141Y028966
X000623Y028966
X00141Y029753
X000623Y029753
X000623Y030541
X00141Y030541
X00141Y031328
X000623Y031328
X00141Y032116
X000623Y032116
X00141Y032903
X000623Y032903
X00141Y03369
X000623Y03369
T9C.035F197S55
X0077Y002
X008452Y002
X009204Y002
X009956Y002
X008452Y00275
X009204Y00275
X009956Y00275
X0077Y00275
X0077Y0035
X008452Y0035
X009956Y0035
X009204Y0035
X010708Y0035
X01146Y0035
X012212Y0035
X012952Y0035
X010708Y00275
X01146Y00275
X012952Y00275
X012212Y00275
X010708Y002
X012952Y002
X01146Y002
X012212Y002
T10C.03543F197S55
X006227Y035098G85X00603Y035098
X006227Y019744G85X00603Y019744
T11C.037F197S55
X00884Y04629
X00992Y04629
X01208Y04629
X011Y04629
X00938Y04743
X01046Y04743
X01154Y04743
X01262Y04743
X01316Y04629
T12C.037F197S55
X023924Y002035
X025656Y002035
T13C.03937F197S55
X059675Y020279
T14C.03937F197S55
X0207Y0045
X0207Y0053
X0207Y0061
X0207Y0069
X0325Y042992
X0325Y04
X0306Y007296
X0316Y007296
X0326Y007296
X0296Y007296
X0321Y0063
X0311Y0063
X0301Y0063
X0291Y0063
X0405Y0175
X0415Y0175
X0425Y0175
X0435Y0175
X0505Y0425
X0505Y0415
X0505Y0405
X0505Y0395
X0512Y0175
X0502Y0175
X0492Y0175
X0482Y0175
X0538Y0175
X0548Y0175
X0558Y0175
X0568Y0175
X0558Y0437
X0534Y0437
X0582Y0437
X05338Y0457
X05578Y0457
X05818Y0457
X06058Y0457
X06538Y0457
X06298Y0457
X063Y0437
X0606Y0437
X0654Y0437
T15C.04724F139S55
X029246Y002001
X028246Y002001
X032076Y048288
X035076Y048288
X033576Y048288
X036576Y048288
X036116Y002807
X037616Y002807
X033561Y002001
X032561Y002001
X039116Y002807
X042116Y002807
X040616Y002807
X043616Y002807
X041076Y048288
X038076Y048288
X039576Y048288
X044076Y048288
X042576Y048288
X047076Y048288
X045576Y048288
X048576Y048288
X051976Y048288
X046045Y002811
X049045Y002811
X047545Y002811
X050545Y002811
X052845Y002811
X054345Y002811
X055845Y002811
X057345Y002811
X056476Y048288
X054976Y048288
X053476Y048288
X059476Y048288
X057976Y048288
X062476Y048288
X060976Y048288
X063976Y048288
X065476Y048288
X066976Y048288
X068476Y048288
X0721Y0426
X0721Y0441
X0721Y0456
T16C.05118F107S55
X031967Y035098G85X03177Y035098
X031967Y019744G85X03177Y019744
T17C.05315F107S55
X01965Y0044
X0218Y0044
X01965Y00715
X0218Y00715
T18C.05512F107S55
X069608Y020279
T19C.05512F107S55
X0035Y0396
X0035Y0426
T20C.05905F107S55
X071837Y005054
X072811Y006028
X071837Y007003
X071837Y012054
X072811Y013028
X071837Y014003
X073785Y014003
X073785Y012054
X073785Y007003
X073785Y005054
T21C.06693F089S55
X019149Y05003
X028649Y05003
T22C.07087F081S55
X033966Y004981
T23C.07087F081S55
X027864Y004981
T24C.07598F081S55
X0077Y000701
X0152Y000701
X005401Y002
X017499Y002
T25C.12F035S794
X006Y04686
X016Y04686
T26C.12598F035S794
X001969Y001969
X001969Y049213
X072835Y049213
X072835Y001969
T27C.12795F035S794
X028663Y0038
X033163Y0038
T28C.14961F035S9
X059832Y001381
X069281Y001381
M30
