%
T1C.012F095S3
X00885Y00735
X00915Y00705
X0099Y00735
X0103Y00705
X01765Y0061
X0205Y0061
X03955Y0048
X04655Y0051
X04805Y00275
X05135Y00735
X05185Y0067
X05215Y0057
X05285Y0064
X05336Y0054
X05355Y0042
X05365Y00735
X05375Y0067
X05665Y0054
X05665Y0069
X0574Y0074
X058Y0054
X05805Y005803
X0587Y00655
X0592Y0069
X05955Y0074
X06515Y00635
X0662Y00435
X06625Y0058
X0602Y0128
X05625Y0115
X05535Y01065
X05415Y01285
X05335Y0102
X05185Y01025
X05015Y0116
X0492Y01065
X04805Y01104
X04724Y01104
X04268Y01233
X04258Y01293
X04025Y0098
X03725Y0121
X0367Y01175
X03585Y0121
X03545Y01195
X01765Y0106
X01705Y01245
X01705Y01285
X0169Y0121
X0157Y01152
X01175Y0141
X01432Y01444
X01465Y0172
X015Y01695
X01555Y0176
X0162Y0178
X0189Y0166
X0189Y01785
X03235Y01675
X0324Y01555
X03652Y0166
X0415Y0153
X0417Y01675
X042Y01525
X042Y0172
X04241Y01338
X04242Y01388
X0426Y01788
X0429Y01535
X0446Y0154
X05325Y0166
X06016Y0226
X0598Y02245
X04615Y0199
X04208Y01812
X04208Y01856
X0383Y02095
X03755Y02055
X03685Y02025
X036Y01916
X03455Y01815
X0337Y0184
X024Y01857
X02358Y01866
X0162Y019
X01555Y01915
X0148Y0191
X01425Y01965
X01135Y02165
X01135Y01975
X0113Y0226
X0113Y0207
X00964Y02768
X01125Y02555
X0113Y0246
X0113Y0236
X0135Y02795
X0141Y0279
X0155Y02795
X01575Y0249
X0162Y0249
X01665Y0249
X0171Y0249
X01755Y0249
X018Y0249
X01845Y0249
X0189Y0249
X01935Y0249
X0198Y0249
X02025Y0249
X0207Y0249
X02115Y0249
X02145Y02675
X02145Y028
X0216Y0255
X0216Y0249
X0216Y02595
X0218Y0268
X02205Y0249
X0222Y0269
X0222Y02585
X0225Y0249
X0372Y02568
X0379Y02562
X03864Y02568
X04785Y02775
X0483Y02805
X05544Y02744
X05544Y02648
X05548Y026
X05852Y026
X0702Y02685
X0702Y02745
X0702Y02625
X0702Y02805
X0711Y03045
X07035Y03045
X0696Y03045
X06705Y0288
X0663Y0288
X06555Y0288
X0648Y0288
X0642Y0288
X06225Y0288
X0445Y0294
X0422Y03124
X04212Y03032
X0412Y03212
X03988Y03212
X0392Y02928
X03864Y029
X03816Y02872
X0229Y0316
X0228Y0321
X0219Y0281
X0216Y033
X0213Y0318
X0213Y0324
X02085Y0318
X02085Y0324
X02085Y033
X0204Y0318
X0204Y033
X02025Y0324
X0202Y0295
X01995Y0318
X01985Y02875
X0198Y0324
X0198Y033
X0195Y03
X01945Y03165
X01935Y0325
X01872Y03165
X0187Y0325
X01855Y0295
X01855Y03
X01855Y02875
X0165Y0293
X01525Y03255
X01188Y03188
X01188Y033
X0109Y03125
X01045Y03105
X01045Y03285
X0101Y03055
X0098Y0309
X0094Y03255
X0093Y0334
X01Y037
X0115Y03515
X0117Y0359
X0117Y037
X0128Y03352
X0146Y03345
X015Y03345
X01735Y0364
X0175Y03805
X0186Y0348
X019Y03695
X01925Y0378
X01935Y0364
X0197Y03645
X0198Y0354
X01985Y0378
X02035Y03675
X0204Y03555
X02085Y03555
X0209Y0369
X02148Y03708
X02225Y0345
X02265Y0345
X03808Y03568
X03848Y03392
X03864Y03576
X03896Y03392
X03956Y03524
X03956Y03424
X03988Y03676
X0402Y03528
X0402Y03604
X04064Y03616
X04155Y03597
X0422Y03592
X05368Y03612
X0327Y04005
X03225Y04005
X0318Y04005
X03165Y04065
X03135Y04005
X0312Y04065
X03075Y04005
X03075Y04065
X0306Y0417
X0303Y04005
X0303Y04065
X03015Y0396
X03015Y04125
X03015Y0417
X02372Y03904
X01805Y04125
X01755Y0409
X0175Y03885
X01745Y042
X0172Y04055
X01504Y04308
X01475Y04065
X01455Y042
X01455Y041
X01416Y04216
X0138Y0422
X01364Y04132
X0134Y04248
X01224Y04196
X0108Y0412
X0105Y039
X0097Y03925
X00584Y04648
X0062Y04524
X00624Y04652
X00788Y04528
X0116Y04716
X0116Y04676
X0118Y0456
X01188Y04792
X01245Y04785
X01248Y04364
X01305Y04785
X01365Y04785
X01425Y04785
X01485Y04785
X015Y04356
X01545Y04785
X01605Y04785
X01648Y04364
X01665Y04785
X01725Y04785
X01785Y04785
X0177Y04845
X0171Y04845
X01635Y04845
X01575Y04845
X0153Y04845
X01485Y04845
X0144Y04845
X0138Y04845
X0132Y04845
X0126Y04845
X012Y04845
T2C.016F095S3
X0176Y0128
X04075Y0097
X0465Y00385
X04985Y004
X0618Y01065
X06315Y01155
X0664Y0128
X0712Y01535
X0701Y01435
X06935Y0132
X0687Y01335
X06305Y0166
X05965Y0166
X0571Y0166
X04905Y0165
X04856Y01424
X04085Y01425
X0385Y0147
X0333Y01585
X0289Y0182
X0106Y03
X01475Y02805
X0168Y02745
X01805Y029
X0181Y0305
X04225Y02465
X04655Y0264
X0561Y02485
X06444Y026
X06444Y02752
X06952Y0336
X0685Y03255
X06668Y03148
X0644Y0336
X0635Y0344
X06335Y03315
X06236Y03144
X06105Y0336
X05776Y0316
X05765Y0336
X05675Y035
X0566Y0332
X0544Y0336
X0533Y03315
X05105Y03355
X05015Y0344
X05Y03325
X04775Y0336
X018Y031
X01765Y03455
X017Y03455
X01595Y0347
X0135Y03445
X01335Y03505
X01305Y0314
X013Y0345
X0125Y03465
X01225Y03325
X0118Y0347
X01Y0347
X0105Y0357
X01084Y03728
X0113Y0387
X0118Y0381
X01525Y03615
X0167Y0392
X0175Y04005
X02145Y0398
X0228Y03952
X02564Y03924
X0267Y03945
X0277Y0394
X0287Y03945
X02985Y04005
X035Y03745
X0355Y0386
X0362Y0378
X0375Y03855
X03815Y0378
X0395Y0386
X04075Y0378
X0415Y0386
X04288Y036
X04304Y0378
X0435Y03855
X04475Y0378
X0455Y03855
X0477Y03655
X0495Y04245
X0477Y0429
X047Y0426
X02985Y04065
X0294Y0411
X02895Y0411
X02715Y04095
X02715Y0414
X02715Y04245
X0261Y042
X0261Y04155
X0261Y04245
X0252Y04125
X0252Y04185
X0252Y04245
X02415Y0411
X02415Y04155
X02415Y042
X02415Y04245
X0237Y04065
X0237Y0411
X02325Y04065
X02325Y0411
X02325Y042
X02325Y04155
X02325Y04245
X0222Y0417
X0222Y04125
X0222Y0408
X0222Y04245
X02115Y04065
X02115Y0411
X02115Y04155
X02115Y042
X02115Y04245
X02025Y0408
X0198Y0408
X0198Y04125
X0198Y0417
X01935Y0408
X01935Y0417
X01935Y04125
X01015Y045
X0198Y04515
X01995Y04425
X02025Y04515
X0204Y04425
X0207Y04515
X02085Y04425
X02115Y04515
X0213Y04335
X0213Y04425
X0216Y04515
X02175Y04335
X02175Y04425
X02205Y04515
X0222Y04335
X0222Y04425
X0225Y04515
X02265Y04335
X02265Y04425
X02295Y04515
X0231Y04425
X0231Y04335
X0234Y04515
X02355Y04425
X02355Y04335
X02385Y04515
X024Y04425
X024Y04335
X0243Y04515
X02445Y04335
X02445Y04425
X02475Y04515
X0249Y04335
X0249Y04425
X0252Y04515
X02535Y04335
X02535Y04425
X02565Y04515
X0258Y04425
X0258Y04335
X0261Y04515
X02625Y04335
X02625Y04425
X02655Y04515
X0267Y04425
X0267Y04335
X027Y04515
X02715Y04335
X02715Y04425
X02745Y04515
X0276Y04335
X0276Y04425
X0279Y04515
X02805Y04425
X02835Y04515
X0285Y04425
X0288Y04335
X0288Y04515
X02895Y04425
X02925Y04515
X0294Y04425
X0294Y04335
X036Y0433
X03805Y0433
X04Y0433
X0421Y0433
X044Y0433
X0461Y0433
X047Y04435
X0485Y04455
X0495Y04425
X02925Y04605
X02925Y04695
X02895Y04785
X0288Y04605
X0288Y04695
X0285Y04785
X02835Y04605
X02835Y04695
X02805Y04785
X0279Y04605
X0279Y04695
X0276Y04785
X02745Y04605
X02745Y04695
X02715Y04785
X027Y04695
X027Y04605
X0267Y04785
X02655Y04605
X02655Y04695
X02625Y04785
X0261Y04695
X0261Y04605
X0258Y04785
X02565Y04695
X02565Y04605
X02535Y04785
X0252Y04695
X0252Y04605
X0249Y04785
X02475Y04695
X02475Y04605
X02445Y04785
X0243Y04605
X0243Y04695
X024Y04785
X02385Y04605
X02385Y04695
X02355Y04785
X0234Y04695
X0234Y04605
X0231Y04785
X02295Y04695
X02295Y04605
X02265Y04785
X0225Y04695
X0225Y04605
X0222Y04785
X02205Y04605
X02205Y04695
X02175Y04785
X0216Y04605
X0216Y04695
X0213Y04785
X02115Y04695
X02115Y04605
X02085Y04785
X0207Y04605
X0207Y04695
X0204Y04785
X02025Y04695
X02025Y04605
X01995Y04785
X0198Y04695
X0198Y04605
X0195Y04785
X01084Y04656
X00888Y04676
X0195Y04875
X01995Y04875
X0204Y04875
X02085Y04875
X0213Y04875
X02175Y04875
X0222Y04875
X02265Y04875
X0231Y04875
X02355Y04875
X024Y04875
X02445Y04875
X0249Y04875
X02535Y04875
X0258Y04875
X02625Y04875
X0267Y04875
X02715Y04875
X0276Y04875
X02805Y04875
X0285Y04875
X02895Y04875
T3C.01969F095S3
X001123Y001969
X001345Y001408
X001359Y002556
X001967Y00112
X001972Y002809
X002576Y002552
X002608Y001418
X002812Y001969
X069233Y001969
X069456Y001408
X069469Y002556
X070077Y00112
X070082Y002809
X070686Y002552
X070718Y001418
X070922Y001969
X070925Y047243
X070702Y047805
X070688Y046656
X07008Y048092
X070076Y046403
X069472Y046661
X069439Y047795
X069236Y047243
X002812Y047245
X002608Y046693
X002576Y047827
X001972Y048085
X001967Y046396
X001359Y047832
X001345Y046683
X001123Y047245
T4C.025F197S55
X0051Y0015
X0054Y0006
X0057Y0024
X006Y0015
X0063Y0006
X0066Y0024
X0069Y0015
X0072Y0006
X0075Y0024
X0078Y0015
X0081Y0006
X0084Y0024
X009Y0006
X009Y0015
X0093Y0024
X0099Y0015
X0099Y0006
X0102Y0024
X0108Y0015
X0108Y0006
X0111Y0024
X0114Y0006
X0132Y0024
X0177Y0006
X018Y0012
X0213Y0006
X0213Y0015
X0213Y0024
X0225Y0009
X0225Y0018
X0225Y0027
X0234Y0006
X024Y0015
X024Y0027
X0243Y0006
X0249Y0018
X0249Y0027
X0252Y0006
X0261Y0006
X027Y0006
X0279Y0006
X0288Y0006
X0297Y0006
X0303Y0006
X0312Y0006
X0321Y0006
X033Y0006
X036Y0009
X0369Y0009
X0378Y0009
X0387Y0009
X0396Y0009
X0405Y0009
X0417Y0009
X0429Y0009
X0441Y0009
X0447Y003
X045Y0009
X0447Y0036
X0441Y0036
X0417Y0045
X0357Y0045
X0348Y0045
X0336Y0045
X0324Y0045
X0312Y0045
X0303Y0045
X0291Y0045
X0282Y0045
X0249Y0036
X0249Y0048
X024Y0048
X024Y0036
X0231Y0045
X0231Y0054
X0225Y0036
X0207Y0036
X0198Y0036
X0189Y0045
X0189Y0036
X018Y0045
X0171Y0045
X0162Y0045
X0153Y0045
X0141Y0045
X0141Y0054
X0132Y0036
X0129Y0054
X0129Y0045
X0114Y0054
X0114Y0033
X0105Y0033
X0102Y0054
X0096Y0033
X0087Y0033
X0087Y0054
X0078Y0033
X0078Y0048
X0069Y0033
X0063Y0048
X006Y0033
X0051Y0045
X0051Y0033
X0042Y0048
X0036Y0048
X0006Y0078
X0006Y009
X0006Y0102
X0015Y0078
X0015Y009
X0015Y0102
X0024Y0078
X0024Y0069
X0024Y009
X0024Y0102
X0033Y0057
X0033Y0069
X0033Y0078
X0033Y0102
X0033Y009
X0042Y0069
X0042Y0078
X0042Y0057
X0042Y009
X0042Y0102
X0051Y0069
X0051Y009
X0051Y0102
X0051Y0057
X006Y0069
X006Y009
X006Y0057
X006Y0102
X0069Y0063
X0075Y0057
X0081Y0063
X0084Y0081
X0084Y009
X0102Y009
X0108Y0099
X0114Y009
X012Y0105
X012Y0099
X0123Y0081
X0123Y009
X0129Y0102
X0132Y0081
X0132Y009
X0141Y009
X0141Y0081
X015Y0081
X015Y009
X0159Y0084
X0177Y0084
X0186Y0087
X0216Y0084
X0231Y0072
X0231Y0063
X0231Y0081
X0231Y009
X024Y0081
X024Y009
X0249Y0081
X0249Y009
X0258Y0081
X0258Y009
X033Y0057
X03315Y00855
X036Y0084
X0372Y0084
X0381Y0081
X042Y0087
X042Y0096
X042Y0105
X0435Y0099
X0453Y0099
X0468Y0063
X0678Y0093
X0678Y0102
X0684Y0093
X0684Y0102
X069Y0093
X069Y0102
X0696Y0093
X0696Y0102
X0702Y0102
X0702Y0093
X0708Y0093
X0708Y0102
X02012Y01268
X012Y0111
X012Y012
X0111Y0108
X0111Y0117
X0111Y0126
X009Y0114
X009Y0123
X0087Y0129
X0081Y0114
X0081Y0123
X0078Y0129
X0072Y0123
X0072Y0114
X0069Y0129
X0066Y0114
X0066Y0123
X006Y0129
X0057Y0123
X0057Y0114
X0048Y0114
X0048Y0123
X0048Y0129
X0039Y0114
X0039Y0123
X0033Y0129
X003Y0114
X003Y0123
X0024Y0129
X0024Y0114
X0024Y0123
X0015Y0123
X0015Y0114
X0006Y0123
X0006Y0114
X0006Y0132
X0015Y0132
X0027Y0135
X0036Y0153
X0036Y0144
X0036Y0135
X0045Y0135
X0045Y0144
X0045Y0153
X0054Y0135
X0054Y0144
X0054Y0153
X0063Y0153
X0063Y0135
X0063Y0144
X0072Y0153
X0072Y0144
X0072Y0135
X0081Y0144
X0081Y0135
X0081Y0153
X009Y0135
X009Y0144
X009Y0153
X0099Y0153
X0099Y0144
X0108Y0144
X0124Y01444
X0162Y0144
X0168Y015
X0174Y0144
X0237Y015
X0237Y0141
X0279Y0144
X0285Y0135
X0291Y0144
X03Y0135
X0303Y0144
X0333Y015
X0345Y015
X069Y0165
X069Y0174
X0681Y0165
X0681Y0174
X0672Y0165
X0672Y0174
X0663Y0165
X0663Y0174
X0639Y0171
X0588Y0171
X0579Y0171
X0525Y0174
X0516Y018
X0339Y0165
X0303Y0156
X0291Y0156
X0279Y0174
X0279Y0156
X0237Y0159
X0228Y0159
X0108Y018
X0108Y0171
X0108Y0162
X0099Y0171
X0099Y018
X0099Y0162
X009Y018
X009Y0171
X009Y0162
X0081Y0171
X0081Y0162
X0081Y018
X0072Y0162
X0072Y018
X0072Y0171
X0063Y018
X0063Y0171
X0063Y0162
X0054Y0171
X0054Y0162
X0054Y018
X0045Y0171
X0045Y0162
X0045Y018
X0036Y0162
X0027Y0162
X0018Y0171
X0018Y018
X0009Y0171
X0009Y018
X0009Y0189
X0009Y0198
X0018Y0189
X0018Y0198
X0045Y0189
X0054Y0189
X0054Y0198
X0063Y0189
X0063Y0198
X0072Y0198
X0072Y0189
X0081Y0189
X0081Y0198
X009Y0189
X009Y0198
X0099Y0189
X0099Y0198
X0108Y0198
X0108Y0189
X0282Y0198
X0291Y0198
X0303Y0198
X0312Y0198
X0321Y0198
X033Y0198
X0338Y01976
X03596Y02
X0393Y0198
X0399Y0189
X0405Y0198
X0516Y0201
X0535Y01925
X0612Y0201
X0624Y0201
X0633Y0201
X0663Y0198
X0672Y0198
X0681Y0189
X0681Y0198
X069Y0189
X069Y0198
X0702Y0186
X0708Y0207
X0699Y0207
X069Y0207
X0681Y0207
X0672Y0207
X0663Y0207
X0633Y021
X0624Y021
X0612Y021
X0585Y021
X0573Y021
X0537Y0228
X0516Y021
X0429Y0219
X0423Y021
X0423Y0228
X0417Y0219
X0411Y021
X0411Y0228
X0405Y0219
X0399Y021
X0399Y0228
X0393Y0219
X0338Y02104
X0338Y0228
X03376Y02188
X03304Y02104
X0327Y0219
X0324Y0228
X0321Y021
X0318Y0219
X0315Y0228
X0312Y021
X0309Y0219
X0306Y0228
X0303Y021
X03Y0219
X0297Y0228
X0294Y021
X0291Y0219
X0288Y0228
X0285Y021
X0282Y0219
X0279Y0228
X0108Y0207
X0108Y0216
X0108Y0225
X0099Y0216
X0099Y0207
X0099Y0225
X009Y0216
X009Y0207
X009Y0225
X0081Y0216
X0081Y0207
X0081Y0225
X0072Y0207
X0072Y0225
X0072Y0216
X0063Y0225
X0063Y0216
X0063Y0207
X0054Y0216
X0054Y0225
X0054Y0207
X0018Y0216
X0018Y0207
X0018Y0225
X0009Y0216
X0009Y0207
X0009Y0225
X001Y0246
X0015Y0234
X0018Y0246
X0045Y0234
X0045Y0246
X0054Y0234
X0054Y0246
X0063Y0246
X0063Y0234
X0072Y0234
X0072Y0246
X0081Y0234
X0081Y0246
X009Y0234
X009Y0246
X0099Y0234
X0099Y0246
X0108Y0234
X0108Y0246
X0237Y0246
X0237Y0252
X0282Y0246
X0288Y0237
X0291Y0246
X0297Y0237
X03Y0246
X0306Y0237
X0309Y0246
X0315Y0237
X0318Y0246
X0324Y0237
X0324Y0246
X0338Y02368
X0338Y02456
X03604Y02544
X0393Y0237
X0393Y0255
X0399Y0246
X0405Y0237
X0405Y0255
X0411Y0246
X0417Y0237
X05865Y02415
X0672Y0297
X0663Y0297
X0654Y0297
X0645Y0297
X0636Y0297
X0633Y0276
X0633Y0288
X0627Y0297
X0618Y0297
X0609Y0297
X06Y0297
X0591Y0273
X0591Y0282
X0591Y0291
X0591Y03
X0579Y0297
X0558Y0297
X0537Y0279
X0528Y0303
X0525Y0279
X0423Y0294
X0414Y0273
X0411Y0291
X0411Y03
X0402Y0291
X0402Y03
X0402Y0273
X036Y0291
X036Y03
X0357Y0273
X0351Y0291
X0351Y03
X0345Y0273
X0339Y0291
X0339Y03
X0333Y0273
X03092Y02824
X03092Y02734
X0309Y0294
X0309Y0264
X03Y0294
X03Y0273
X03Y0264
X03Y0282
X0291Y0264
X0291Y0294
X0291Y0273
X0291Y0282
X0282Y0282
X0282Y0264
X0282Y0294
X0282Y0273
X0237Y03
X0237Y0261
X0046Y0296
X0044Y0286
X0038Y0296
X0036Y0286
X003Y0296
X0018Y03
X0012Y027
X001Y0258
X0009Y0279
X0008Y0302
X0008Y0292
X0008Y0312
X0008Y0322
X0282Y0321
X0282Y033
X0291Y0321
X0291Y033
X03Y0318
X03Y033
X0312Y0321
X0312Y033
X0339Y0318
X0345Y0309
X0345Y0327
X0351Y0318
X0357Y0309
X0357Y0327
X0363Y0318
X0369Y0309
X0369Y0327
X0375Y0318
X0381Y0309
X0477Y0327
X0507Y03225
X0516Y0324
X0558Y0306
X0579Y0306
X0591Y0309
X0591Y0318
X0636Y0309
X0636Y0315
X0672Y0327
X0681Y0366
X0681Y0378
X0672Y0369
X0672Y0378
X0651Y0369
X0651Y0378
X0642Y0369
X0642Y0378
X0621Y0369
X0621Y0378
X0612Y0369
X0612Y0378
X0591Y0369
X0591Y0378
X0582Y0369
X0582Y0378
X0552Y0369
X0552Y0378
X0519Y0366
X0519Y0375
X0477Y0378
X0363Y0336
X0351Y0336
X0339Y0336
X0312Y0348
X0312Y0366
X0309Y0357
X0309Y0339
X0303Y0366
X03Y0357
X03Y0348
X03Y0339
X0294Y0366
X0291Y0357
X0291Y0348
X0291Y0339
X0285Y0366
X0282Y0348
X0282Y0357
X0282Y0339
X0276Y0366
X024Y0366
X0234Y0366
X0225Y0366
X0195Y0351
X0008Y0342
X0008Y0332
X0705Y0393
X0705Y0399
X0705Y0405
X0705Y0417
X0705Y0423
X0705Y0411
X0711Y039
X0711Y0396
X0711Y0402
X0711Y0411
X0711Y0417
X0711Y0423
X0711Y0429
X0711Y0435
T5C.026F197S55
X004384Y048228
X007612Y048228
T6C.02677F197S55
X051Y037
X051Y038
X054Y037
X054Y038
X057Y037
X057Y038
X06Y037
X06Y038
X063Y037
X063Y038
X066Y037
X066Y038
T7C.02756F197S55
X0205Y031004
X0544Y029154
X0544Y032146
X0205Y033996
T8C.03F197S55
X005122Y047047
X006874Y047047
X02385Y01155
T9C.0315F197S55
X0462Y0014
X0462Y000613
X046988Y0014
X046988Y000613
X047775Y0014
X047775Y000613
X048563Y000613
X048563Y0014
X04935Y0014
X04935Y000613
T10C.03543F197S55
X0068Y030252
X0068Y029252
X0068Y028252
X0078Y027752
X0078Y028752
X0078Y029752
X0078Y030752
X0068Y031252
T11C.03543F197S55
X026Y010858G85X026Y010661
X0446Y010858G85X0446Y010661
T12C.037F197S55
X02774Y00696
X02828Y00582
X02882Y00696
X02936Y00582
X0299Y00696
X03044Y00582
X03098Y00696
X03152Y00582
X03206Y00696
T13C.03937F197S55
X020279Y015025
T14C.03937F197S55
X0505Y0135
X0515Y0135
X0525Y0135
X0535Y0135
X0565Y0135
X0575Y0135
X0585Y0135
X0595Y0135
X0625Y0135
X0635Y0135
X0645Y0135
X0655Y0135
X0505Y018
X0505Y020992
X00725Y0362
X00645Y0362
X00565Y0362
X00485Y0362
X00485Y0399
X00485Y0435
X00565Y0399
X00565Y0435
X00645Y0399
X00645Y0435
X00725Y0399
X00725Y0435
X049Y0412
X049Y0392
X049Y0382
X049Y0402
X05098Y044
X051Y042
X05398Y044
X054Y042
X05698Y044
X057Y042
X05998Y044
X06Y042
X06298Y044
X063Y042
X06598Y044
X066Y042
T15C.04F139S55
X002371Y027892
X002371Y026892
X002371Y032108
X002371Y031108
T16C.04331F139S55
X028317Y043
T17C.04724F139S55
X037895Y003161
X039395Y003161
X040895Y003161
X042395Y003161
X053245Y003161
X054745Y003161
X056245Y003161
X057745Y003161
X062245Y003161
X063745Y003161
X065245Y003161
X066745Y003161
X069Y0395
X069Y041
X069Y0425
X012755Y045989
X014255Y045989
X015755Y045989
X017255Y045989
X031676Y045988
X033176Y045988
X034676Y045988
X036176Y045988
X037676Y045988
X039176Y045988
X040676Y045988
X042176Y045988
X043676Y045988
X045176Y045988
X046676Y045988
X048176Y045988
X050676Y045988
X052176Y045988
X053676Y045988
X055176Y045988
X056676Y045988
X058176Y045988
X059676Y045988
X061176Y045988
X062676Y045988
X064176Y045988
X065676Y045988
X067176Y045988
T18C.05118F107S55
X026Y036598G85X026Y036402
X0446Y036598G85X0446Y036402
T19C.05315F107S55
X00475Y0351
X00475Y03725
X0075Y0351
X0075Y03725
X0075Y0388
X0075Y04095
X0075Y0424
X0075Y04455
X00475Y0424
X00475Y04095
X00475Y04455
X00475Y0388
T20C.05512F107S55
X020279Y005092
T21C.05512F107S55
X05115Y0249
X05115Y0279
T22C.05905F107S55
X014526Y002974
X014526Y001026
X0155Y002
X016474Y002974
X016474Y001026
T23C.05906F107S55
X0206Y043
T24C.06417F089S55
X00552Y026449
X00552Y032551
T25C.12F035S794
X0249Y00639
X0349Y00639
T26C.12598F035S794
X001969Y001969
X070079Y001969
X070079Y047244
X001969Y047244
T27C.12795F035S794
X0043Y02725
X0043Y03175
T28C.14961F035S9
X001381Y005419
X001381Y014868
M30
