*
*
G04 PADS 9.5 Build Number: 522968 generated Gerber (RS-274-X) file*
G04 PC Version=2.1*
*
%IN "MT-SAMA5D2X -A (3).pcb"*%
*
%MOIN*%
*
%FSLAX35Y35*%
*
*
*
*
G04 PC Standard Apertures*
*
*
G04 Thermal Relief Aperture macro.*
%AMTER*
1,1,$1,0,0*
1,0,$1-$2,0,0*
21,0,$3,$4,0,0,45*
21,0,$3,$4,0,0,135*
%
*
*
G04 Annular Aperture macro.*
%AMANN*
1,1,$1,0,0*
1,0,$2,0,0*
%
*
*
G04 Odd Aperture macro.*
%AMODD*
1,1,$1,0,0*
1,0,$1-0.005,0,0*
%
*
*
G04 PC Custom Aperture Macros*
*
*
*
*
*
*
G04 PC Aperture Table*
*
%ADD010C,0.01*%
%ADD011C,0.006*%
%ADD012C,0.001*%
%ADD015R,0.04X0.04*%
%ADD019C,0.015*%
%ADD058C,0.002*%
%ADD070R,0.04437X0.04437*%
%ADD089C,0.076*%
%ADD091R,0.0365X0.0365*%
%ADD118C,0.075*%
%ADD208C,0.00787*%
%ADD220R,0.04358X0.04161*%
%ADD221R,0.03059X0.02862*%
%ADD222O,0.05028X0.01484*%
%ADD223O,0.01484X0.05028*%
%ADD225R,0.03059X0.02862*%
%ADD226R,0.02075X0.0365*%
%ADD227R,0.02469X0.0365*%
%ADD228R,0.05067X0.06287*%
%ADD229R,0.02862X0.03059*%
%ADD232C,0.24122*%
%ADD233C,0.06012*%
%ADD234C,0.04437*%
%ADD237R,0.06287X0.05067*%
%ADD238R,0.08374X0.08374*%
%ADD239C,0.08374*%
%ADD240R,0.02862X0.03059*%
%ADD241R,0.05067X0.11209*%
%ADD242R,0.12311X0.10343*%
%ADD253R,0.0365X0.02075*%
%ADD254R,0.0365X0.02469*%
%ADD255R,0.04161X0.04358*%
%ADD256O,0.029X0.079*%
%ADD257R,0.11299X0.09*%
%ADD258O,0.04437X0.08374*%
%ADD259C,0.09358*%
%ADD260R,0.07193X0.07193*%
%ADD261C,0.07193*%
%ADD262R,0.12311X0.102*%
%ADD263C,0.06799*%
%ADD265C,0.07193*%
%ADD266R,0.041X0.041*%
%ADD267R,0.041X0.055*%
%ADD276R,0.055X0.041*%
%ADD281O,0.006X0.006*%
%ADD283R,0.11209X0.05067*%
%ADD284R,0.12311X0.09949*%
%ADD285C,0.182*%
%ADD291R,0.155X0.115*%
%ADD293O,0.06406X0.06406*%
%ADD302R,0.06012X0.05028*%
%ADD303R,0.07193X0.07193*%
%ADD304R,0.05224X0.11524*%
%ADD305C,0.21366*%
%ADD307O,0.04437X0.04437*%
%ADD313R,0.08374X0.08374*%
%ADD319R,0.12311X0.15461*%
%ADD321R,0.07587X0.08374*%
%ADD340R,0.04437X0.12705*%
%ADD341O,0.04437X0.12705*%
%ADD342R,0.37902X0.24122*%
%ADD343O,0.145X0.205*%
%ADD346R,0.04949X0.07587*%
%ADD347R,0.10343X0.12311*%
%ADD348R,0.09X0.11299*%
%ADD349R,0.03256X0.06406*%
%ADD350R,0.05224X0.08374*%
%ADD351O,0.03256X0.07587*%
%ADD352R,0.03256X0.07587*%
%ADD356C,0.09161*%
%ADD393R,0.12311X0.12311*%
%ADD394R,0.13098X0.02469*%
%ADD395R,0.13098X0.07587*%
%ADD396R,0.027X0.025*%
%ADD397R,0.025X0.027*%
%ADD398O,0.10933X0.03059*%
%ADD399R,0.08374X0.02862*%
%ADD400O,0.08374X0.02862*%
%ADD402R,0.019X0.03*%
%ADD403R,0.065X0.065*%
%ADD404R,0.021X0.06*%
%ADD405O,0.05X0.06*%
%ADD406R,0.087X0.08*%
%ADD407R,0.075X0.08*%
%ADD408R,0.06799X0.07587*%
%ADD409R,0.045X0.055*%
%ADD410R,0.055X0.045*%
%ADD411R,0.065X0.017*%
%ADD412R,0.085X0.075*%
%ADD413O,0.038X0.015*%
%ADD414O,0.015X0.038*%
%ADD415R,0.139X0.139*%
%ADD416O,0.04831X0.05618*%
%ADD417R,0.0613X0.0613*%
%ADD418C,0.089*%
%ADD419C,0.04831*%
%ADD420C,0.06799*%
%ADD421R,0.03256X0.08374*%
%ADD422R,0.06799X0.06799*%
%ADD423R,0.06799X0.06799*%
%ADD424R,0.055X0.065*%
%ADD425R,0.08374X0.04043*%
*
*
*
*
G04 PC Circuitry*
G04 Layer Name MT-SAMA5D2X -A (3).pcb - circuitry*
%LPD*%
*
*
G04 PC Custom Flashes*
G04 Layer Name MT-SAMA5D2X -A (3).pcb - flashes*
%LPD*%
*
*
G04 PC Circuitry*
G04 Layer Name MT-SAMA5D2X -A (3).pcb - circuitry*
%LPD*%
*
G54D10*
G01X1776217Y1316787D02*
Y1315026D01*
X1775379Y1314188*
X1768893*
X1768056Y1315026*
Y1316787*
X1768893Y1317625*
X1775379*
X1776217Y1316787*
X1768364Y1314717D02*
X1775909D01*
X1768056Y1315717D02*
X1776217D01*
X1768056Y1316717D02*
X1776217D01*
X1768636Y1314445D02*
Y1317368D01*
X1769636Y1314188D02*
Y1317625D01*
X1770636Y1314188D02*
Y1317625D01*
X1771636Y1314188D02*
Y1317625D01*
X1772636Y1314188D02*
Y1317625D01*
X1773636Y1314188D02*
Y1317625D01*
X1774636Y1314188D02*
Y1317625D01*
X1775636Y1314445D02*
Y1317368D01*
X1776217Y1328598D02*
Y1326837D01*
X1775379Y1325999*
X1768893*
X1768056Y1326837*
Y1328598*
X1768893Y1329436*
X1775379*
X1776217Y1328598*
X1768175Y1326717D02*
X1776098D01*
X1768056Y1327717D02*
X1776217D01*
X1768175Y1328717D02*
X1776098D01*
X1768636Y1326256D02*
Y1329179D01*
X1769636Y1325999D02*
Y1329436D01*
X1770636Y1325999D02*
Y1329436D01*
X1771636Y1325999D02*
Y1329436D01*
X1772636Y1325999D02*
Y1329436D01*
X1773636Y1325999D02*
Y1329436D01*
X1774636Y1325999D02*
Y1329436D01*
X1775636Y1326256D02*
Y1329179D01*
X1573636Y1892032D02*
X1913713D01*
X1573636D02*
X1583636Y1894532D01*
Y1889532*
X1573636Y1892032*
X2294109D02*
X1954032D01*
X2294109D02*
X2284109Y1889532D01*
Y1894532*
X2294109Y1892032*
X1573636Y1798844D02*
Y1897032D01*
X2294109Y1798844D02*
Y1897032D01*
X1916713Y1893595D02*
X1917168Y1893907D01*
X1917850Y1894845*
Y1888282*
X1921032Y1894845D02*
X1920350Y1894532D01*
X1920123Y1893907*
Y1893282*
X1920350Y1892657*
X1920804Y1892345*
X1921713Y1892032*
X1922395Y1891720*
X1922850Y1891095*
X1923077Y1890470*
Y1889532*
X1922850Y1888907*
X1922623Y1888595*
X1921941Y1888282*
X1921032*
X1920350Y1888595*
X1920123Y1888907*
X1919895Y1889532*
Y1890470*
X1920123Y1891095*
X1920577Y1891720*
X1921259Y1892032*
X1922168Y1892345*
X1922623Y1892657*
X1922850Y1893282*
Y1893907*
X1922623Y1894532*
X1921941Y1894845*
X1921032*
X1925577D02*
X1928077D01*
X1926713Y1892345*
X1927395*
X1927850Y1892032*
X1928077Y1891720*
X1928304Y1890782*
Y1890157*
X1928077Y1889220*
X1927623Y1888595*
X1926941Y1888282*
X1926259*
X1925577Y1888595*
X1925350Y1888907*
X1925123Y1889532*
X1930577Y1888907D02*
X1930350Y1888595D01*
X1930577Y1888282*
X1930804Y1888595*
X1930577Y1888907*
X1934213Y1894845D02*
X1933532Y1894532D01*
X1933077Y1893595*
X1932850Y1892032*
Y1891095*
X1933077Y1889532*
X1933532Y1888595*
X1934213Y1888282*
X1934668*
X1935350Y1888595*
X1935804Y1889532*
X1936032Y1891095*
Y1892032*
X1935804Y1893595*
X1935350Y1894532*
X1934668Y1894845*
X1934213*
X1938077Y1892657D02*
Y1888282D01*
Y1891407D02*
X1938759Y1892345D01*
X1939213Y1892657*
X1939895*
X1940350Y1892345*
X1940577Y1891407*
Y1888282*
Y1891407D02*
X1941259Y1892345D01*
X1941713Y1892657*
X1942395*
X1942850Y1892345*
X1943077Y1891407*
Y1888282*
X1945123Y1892657D02*
Y1888282D01*
Y1891407D02*
X1945804Y1892345D01*
X1946259Y1892657*
X1946941*
X1947395Y1892345*
X1947623Y1891407*
Y1888282*
Y1891407D02*
X1948304Y1892345D01*
X1948759Y1892657*
X1949441*
X1949895Y1892345*
X1950123Y1891407*
Y1888282*
X2408636Y1301718D02*
Y1541031D01*
Y1301718D02*
X2406136Y1311718D01*
X2411136*
X2408636Y1301718*
Y1793844D02*
Y1554531D01*
Y1793844D02*
X2411136Y1783844D01*
X2406136*
X2408636Y1793844*
X2299109Y1301718D02*
X2413636D01*
X2299109Y1793844D02*
X2413636D01*
X2391364Y1549343D02*
X2391818Y1549656D01*
X2392500Y1550593*
Y1544031*
X2394773Y1549031D02*
Y1549343D01*
X2395000Y1549968*
X2395227Y1550281*
X2395682Y1550593*
X2396591*
X2397045Y1550281*
X2397273Y1549968*
X2397500Y1549343*
Y1548718*
X2397273Y1548093*
X2396818Y1547156*
X2394545Y1544031*
X2397727*
X2402727Y1550593D02*
X2400455D01*
X2400227Y1547781*
X2400455Y1548093*
X2401136Y1548406*
X2401818*
X2402500Y1548093*
X2402955Y1547468*
X2403182Y1546531*
X2402955Y1545906*
X2402727Y1544968*
X2402273Y1544343*
X2401591Y1544031*
X2400909*
X2400227Y1544343*
X2400000Y1544656*
X2399773Y1545281*
X2405455Y1544656D02*
X2405227Y1544343D01*
X2405455Y1544031*
X2405682Y1544343*
X2405455Y1544656*
X2409091Y1550593D02*
X2408409Y1550281D01*
X2407955Y1549343*
X2407727Y1547781*
Y1546843*
X2407955Y1545281*
X2408409Y1544343*
X2409091Y1544031*
X2409545*
X2410227Y1544343*
X2410682Y1545281*
X2410909Y1546843*
Y1547781*
X2410682Y1549343*
X2410227Y1550281*
X2409545Y1550593*
X2409091*
X2412955Y1548406D02*
Y1544031D01*
Y1547156D02*
X2413636Y1548093D01*
X2414091Y1548406*
X2414773*
X2415227Y1548093*
X2415455Y1547156*
Y1544031*
Y1547156D02*
X2416136Y1548093D01*
X2416591Y1548406*
X2417273*
X2417727Y1548093*
X2417955Y1547156*
Y1544031*
X2420000Y1548406D02*
Y1544031D01*
Y1547156D02*
X2420682Y1548093D01*
X2421136Y1548406*
X2421818*
X2422273Y1548093*
X2422500Y1547156*
Y1544031*
Y1547156D02*
X2423182Y1548093D01*
X2423636Y1548406*
X2424318*
X2424773Y1548093*
X2425000Y1547156*
Y1544031*
G54D11*
X2085136Y1550717D03*
Y1580717D03*
G54D12*
X1573636Y1793844D02*
X1573639D01*
X2294109D02*
X2294111D01*
X2294109Y1301718D02*
X2294111D01*
X2294109Y1793844D02*
X2294111D01*
G54D15*
X1830136Y1698467D03*
Y1704967D03*
X1673636Y1638467D03*
Y1644967D03*
Y1594967D03*
Y1601467D03*
X1683636Y1629967D03*
Y1623467D03*
X1728386Y1463217D03*
X1734886D03*
G54D19*
X1616636Y1574217D03*
Y1619217D03*
G54D58*
X2089636Y1442717D02*
X2090136Y1443217D01*
X2097136*
X2097636Y1442717*
Y1424217*
X2097136Y1423717*
X2090136*
X2089636Y1424217*
Y1442717*
X2149636D02*
X2150136Y1443217D01*
X2157136*
X2157636Y1442717*
Y1424217*
X2157136Y1423717*
X2150136*
X2149636Y1424217*
Y1442717*
X2209636D02*
X2210136Y1443217D01*
X2217136*
X2217636Y1442717*
Y1424217*
X2217136Y1423717*
X2210136*
X2209636Y1424217*
Y1442717*
X2054636Y1694717D02*
X2054136Y1695217D01*
Y1702217*
X2054636Y1702717*
X2073136*
X2073636Y1702217*
Y1695217*
X2073136Y1694717*
X2054636*
G54D70*
X1778636Y1321717D03*
G54D89*
X1597345Y1622800D03*
Y1612800D03*
Y1580634D03*
Y1570634D03*
G54D91*
X2174136Y1467567D03*
Y1473867D03*
X2200136Y1467567D03*
Y1473867D03*
X2059136Y1467067D03*
Y1473367D03*
X2180136Y1649067D03*
Y1655367D03*
X2059136Y1448067D03*
Y1454367D03*
X2110636Y1467567D03*
Y1473867D03*
X2139636Y1467567D03*
Y1473867D03*
X2047136Y1649067D03*
Y1655367D03*
X2080136Y1649067D03*
Y1655367D03*
X2113136Y1649067D03*
Y1655367D03*
X2146136Y1649067D03*
Y1655367D03*
X2213636Y1649067D03*
Y1655367D03*
X1738136Y1419567D03*
Y1425867D03*
G54D118*
X1894236Y1371317D03*
X1883436D03*
X1872636D03*
X1861836D03*
X1851036D03*
X1888836Y1359917D03*
X1878036D03*
X1867236D03*
X1856436D03*
G54D208*
X2294109Y1301718D02*
X1573636D01*
Y1793844*
X2294109*
Y1301718*
G54D220*
X1948636Y1734749D03*
Y1728686D03*
X1928636Y1734749D03*
Y1728686D03*
X1691636Y1694749D03*
Y1688686D03*
X2008636Y1734749D03*
Y1728686D03*
X2028636Y1734749D03*
Y1728686D03*
X1968636Y1734749D03*
Y1728686D03*
X1988636Y1734749D03*
Y1728686D03*
X2250636Y1447249D03*
Y1441186D03*
X2260636Y1447249D03*
Y1441186D03*
X2123636Y1559749D03*
Y1553686D03*
X1724136Y1355686D03*
Y1361749D03*
X2068636Y1739749D03*
Y1733686D03*
X1691636Y1638686D03*
Y1644749D03*
X2047136Y1642749D03*
Y1636686D03*
X2080136Y1642749D03*
Y1636686D03*
X2113136Y1642749D03*
Y1636686D03*
X2146136Y1642749D03*
Y1636686D03*
X2180136Y1642749D03*
Y1636686D03*
X2213636Y1642749D03*
Y1636686D03*
G54D221*
X1735605Y1362032D03*
X1731668D03*
X1756168Y1656217D03*
X1760105D03*
X1735605Y1367032D03*
X1731668D03*
X1735605Y1377032D03*
X1731668D03*
X1735605Y1372032D03*
X1731668D03*
X1742105Y1401217D03*
X1738168D03*
X2235605Y1348717D03*
X2231668D03*
X1711468Y1411817D03*
X1715405D03*
X1725605Y1411717D03*
X1721668D03*
X1738168Y1407217D03*
X1742105D03*
X1735605Y1357032D03*
X1731668D03*
X1775168Y1673717D03*
X1779105D03*
X1775168Y1679717D03*
X1779105D03*
X1700605Y1661717D03*
X1696668D03*
X1700605Y1656717D03*
X1696668D03*
X1756168Y1661217D03*
X1760105D03*
X1756168Y1671217D03*
X1760105D03*
X2237605Y1426717D03*
X2233668D03*
X2115105D03*
X2111168D03*
X2175605D03*
X2171668D03*
X1700605Y1666717D03*
X1696668D03*
X1738168Y1413217D03*
X1742105D03*
X1756168Y1666532D03*
X1760105D03*
X1700605Y1671717D03*
X1696668D03*
X2043168Y1500217D03*
X2047105D03*
Y1494717D03*
X2043168D03*
G54D222*
X1716727Y1674906D03*
Y1672938D03*
Y1670969D03*
Y1669001D03*
Y1667032D03*
Y1665064D03*
Y1663095D03*
Y1661127D03*
Y1659158D03*
X1740546D03*
Y1661127D03*
Y1663095D03*
Y1665064D03*
Y1667032D03*
Y1669001D03*
Y1670969D03*
Y1672938D03*
Y1674906D03*
G54D223*
X1720762Y1655123D03*
X1722731D03*
X1724699D03*
X1726668D03*
X1728636D03*
X1730605D03*
X1732573D03*
X1734542D03*
X1736510D03*
Y1678942D03*
X1734542D03*
X1732573D03*
X1730605D03*
X1728636D03*
X1726668D03*
X1724699D03*
X1722731D03*
X1720762D03*
G54D225*
X2123636Y1580249D03*
Y1584186D03*
X1793636Y1623686D03*
Y1619749D03*
X1738636Y1639749D03*
Y1643686D03*
X2018636Y1683686D03*
Y1679749D03*
X2001236Y1683686D03*
Y1679749D03*
X1921636Y1729749D03*
Y1733686D03*
X1698636Y1698686D03*
Y1694749D03*
X1918636Y1683686D03*
Y1679749D03*
X1978636Y1440249D03*
Y1444186D03*
X1981636Y1729749D03*
Y1733686D03*
X1971136Y1440249D03*
Y1444186D03*
X1963636Y1440249D03*
Y1444186D03*
X2021636Y1729749D03*
Y1733686D03*
X1961636Y1729749D03*
Y1733686D03*
X2001636Y1729749D03*
Y1733686D03*
X1728636Y1639749D03*
Y1643686D03*
X1713636Y1698686D03*
Y1694749D03*
X1718636Y1698686D03*
Y1694749D03*
X1743636D03*
Y1698686D03*
X1981136Y1389249D03*
Y1393186D03*
X1958636Y1444186D03*
Y1440249D03*
X1733636Y1639749D03*
Y1643686D03*
X1703636Y1698686D03*
Y1694749D03*
X1698636Y1684749D03*
Y1688686D03*
X1703636Y1684749D03*
Y1688686D03*
X1978636Y1683686D03*
Y1679749D03*
X2213636Y1559749D03*
Y1563686D03*
X1941636Y1729749D03*
Y1733686D03*
X2123636Y1543686D03*
Y1539749D03*
X2258636Y1553686D03*
Y1549749D03*
X2163636Y1563686D03*
Y1559749D03*
X1698636Y1639749D03*
Y1643686D03*
X1673636Y1633686D03*
Y1629749D03*
X1743636Y1643686D03*
Y1639749D03*
X1632636Y1761686D03*
Y1757749D03*
X1814636Y1704686D03*
Y1700749D03*
X1698636Y1584749D03*
Y1588686D03*
X1673636D03*
Y1584749D03*
X1676636Y1619749D03*
Y1623686D03*
X1670636Y1619749D03*
Y1623686D03*
X1938636Y1683686D03*
Y1679749D03*
X1958636Y1683686D03*
Y1679749D03*
X2223636Y1538686D03*
Y1534749D03*
X2267636Y1445186D03*
Y1441249D03*
G54D226*
X1723548Y1633038D03*
X1719611D03*
X1674224Y1694897D03*
X1678161D03*
X2231724Y1353897D03*
X2235661D03*
X2111724Y1343897D03*
X2115661D03*
X2141724D03*
X2145661D03*
G54D227*
X1721580Y1627132D03*
X1676193Y1700803D03*
X2233693Y1359803D03*
X2113693Y1349803D03*
X2143693D03*
G54D228*
X1757140Y1641717D03*
X1750132D03*
X2141640Y1544717D03*
X2134632D03*
G54D229*
X2200636Y1413749D03*
Y1417686D03*
X1673636Y1415186D03*
Y1411249D03*
X2072136Y1413749D03*
Y1417686D03*
X2095636Y1412249D03*
Y1416186D03*
X2150636Y1359749D03*
Y1363686D03*
X2073636Y1637749D03*
Y1641686D03*
X2068136Y1637749D03*
Y1641686D03*
X1943636Y1679749D03*
Y1683686D03*
X1923636Y1679749D03*
Y1683686D03*
X2106636Y1637749D03*
Y1641686D03*
X2101136Y1637749D03*
Y1641686D03*
X2139636Y1637749D03*
Y1641686D03*
X2134136Y1637749D03*
Y1641686D03*
X2241636Y1638064D03*
Y1642001D03*
X2168136Y1637749D03*
Y1641686D03*
X2207136Y1637749D03*
Y1641686D03*
X2201636Y1637749D03*
Y1641686D03*
X2173636Y1637749D03*
Y1641686D03*
X2235636Y1638064D03*
Y1642001D03*
X2156636Y1412749D03*
Y1416686D03*
X2150636Y1412749D03*
Y1416686D03*
X2099636Y1358749D03*
Y1362686D03*
X2092136Y1358749D03*
Y1362686D03*
X2107136Y1358749D03*
Y1362686D03*
X2157136Y1359749D03*
Y1363686D03*
X2163636Y1359749D03*
Y1363686D03*
X2133636Y1412749D03*
Y1416686D03*
X1718636Y1643686D03*
Y1639749D03*
X1723636Y1643686D03*
Y1639749D03*
X1708636Y1694749D03*
Y1698686D03*
X1748636D03*
Y1694749D03*
X2023636Y1679749D03*
Y1683686D03*
X2006236Y1679749D03*
Y1683686D03*
X1983636Y1679749D03*
Y1683686D03*
X1964136Y1679749D03*
Y1683686D03*
X2089136Y1412249D03*
Y1416186D03*
X2123636Y1573686D03*
Y1569749D03*
X1678636Y1684749D03*
Y1688686D03*
X1673636Y1684749D03*
Y1688686D03*
X2278636Y1553686D03*
Y1549749D03*
X2268636Y1553686D03*
Y1549749D03*
X2053636Y1454186D03*
Y1450249D03*
Y1472886D03*
Y1468949D03*
X2134136Y1473686D03*
Y1469749D03*
X2180136Y1473686D03*
Y1469749D03*
X2195136Y1473686D03*
Y1469749D03*
X2117136Y1473686D03*
Y1469749D03*
G54D232*
X1587449Y1355905D03*
Y1450393D03*
G54D233*
X1776425Y1352637D03*
G54D234*
Y1451968D03*
X1593353Y1329809D03*
X1601753Y1321410D03*
X1593308Y1312920D03*
X1584863Y1321410D03*
X1599394Y1327236D03*
X1587226Y1327281D03*
X1587089Y1315794D03*
X1599717Y1315893D03*
X2274455Y1329809D03*
X2282856Y1321410D03*
X2274411Y1312920D03*
X2265966Y1321410D03*
X2280496Y1327236D03*
X2268328Y1327281D03*
X2268191Y1315794D03*
X2280820Y1315893D03*
X2274392Y1765752D03*
X2265992Y1774151D03*
X2274437Y1782641D03*
X2282882Y1774151D03*
X2268352Y1768325D03*
X2280520Y1768281D03*
X2280656Y1779767D03*
X2268028Y1779668D03*
X1593353Y1782565D03*
X1601753Y1774166D03*
X1593308Y1765676D03*
X1584863Y1774166D03*
X1599394Y1779992D03*
X1587226Y1780036D03*
X1587089Y1768550D03*
X1599717Y1768649D03*
G54D237*
X2258636Y1613214D03*
Y1620221D03*
X1662636Y1781721D03*
Y1774714D03*
X2043636Y1740221D03*
Y1733214D03*
X2258636Y1600221D03*
Y1593214D03*
X1683636Y1638214D03*
Y1645221D03*
X1738636Y1590536D03*
Y1583529D03*
X1822136Y1704721D03*
Y1697714D03*
X1683636Y1738214D03*
Y1745221D03*
X1693636Y1738214D03*
Y1745221D03*
X1703636Y1738214D03*
Y1745221D03*
X1673636Y1738214D03*
Y1745221D03*
G54D238*
X2196091Y1333330D03*
X2106091D03*
X2245398Y1761599D03*
X2055398D03*
X2263636Y1696717D03*
X1952591Y1333330D03*
X1746182Y1761605D03*
G54D239*
X2211091Y1333330D03*
X2226091D03*
X2241091D03*
X2121091D03*
X2136091D03*
X2151091D03*
X2230398Y1761599D03*
X2215398D03*
X2200398D03*
X2185398D03*
X2170398D03*
X2155398D03*
X2140398D03*
X2125398D03*
X2110398D03*
X2095398D03*
X2080398D03*
X2040398D03*
X2025398D03*
X2010398D03*
X1995398D03*
X1980398D03*
X1965398D03*
X1950398D03*
X1935398D03*
X1920398D03*
X1905398D03*
X1890398D03*
X2263636Y1711717D03*
Y1726717D03*
X1967591Y1333330D03*
X1982591D03*
X1997591D03*
X1731182Y1761605D03*
X1716182D03*
X1701182D03*
G54D240*
X2041105Y1388217D03*
X2037168D03*
X2101168Y1426717D03*
X2105105D03*
X2221668D03*
X2225605D03*
X1760105Y1676217D03*
X1756168D03*
X2161668Y1426717D03*
X2165605D03*
X2017105Y1388217D03*
X2013168D03*
X2134668Y1581717D03*
X2138605D03*
X1725605Y1726717D03*
X1721668D03*
X1725605Y1716717D03*
X1721668D03*
G54D241*
X2175443Y1416717D03*
X2163829D03*
X2114943Y1416217D03*
X2103329D03*
X2224829Y1416717D03*
X2236443D03*
G54D242*
X2274636Y1455406D03*
Y1479029D03*
X2143636Y1618529D03*
Y1594906D03*
G54D253*
X1687957Y1667805D03*
Y1671742D03*
Y1656805D03*
Y1660742D03*
G54D254*
X1682051Y1669774D03*
Y1658774D03*
G54D255*
X2061668Y1667032D03*
X2055605D03*
X2071105Y1425717D03*
X2077168D03*
X2198605Y1424717D03*
X2204668D03*
X2132105D03*
X2138168D03*
X2151668Y1581717D03*
X2145605D03*
X1744268Y1393717D03*
X1738205D03*
G54D256*
X1981136Y1428217D03*
X1976136D03*
X1971136D03*
X1966136D03*
X1961136D03*
X1956136D03*
X1951136D03*
X1946136D03*
Y1406217D03*
X1951136D03*
X1956136D03*
X1961136D03*
X1966136D03*
X1971136D03*
X1976136D03*
X1981136D03*
X2081136Y1398017D03*
X2076136D03*
X2071136D03*
X2066136D03*
Y1375417D03*
X2071136D03*
X2076136D03*
X2081136D03*
X2165636Y1398517D03*
X2160636D03*
X2155636D03*
X2150636D03*
Y1375917D03*
X2155636D03*
X2160636D03*
X2165636D03*
X2107136Y1398017D03*
X2102136D03*
X2097136D03*
X2092136D03*
Y1375417D03*
X2097136D03*
X2102136D03*
X2107136D03*
X2140136Y1398517D03*
X2135136D03*
X2130136D03*
X2125136D03*
Y1375917D03*
X2130136D03*
X2135136D03*
X2140136D03*
G54D257*
X2258636Y1655773D03*
Y1637662D03*
X1954636Y1357517D03*
Y1374918D03*
X1983636Y1357517D03*
Y1374918D03*
X2198636Y1560773D03*
Y1542662D03*
X2178636D03*
Y1560773D03*
X2278636Y1655773D03*
Y1637662D03*
G54D258*
X1928636Y1716717D03*
X1918636D03*
Y1693095D03*
X1928636D03*
X2008636Y1716717D03*
X1998636D03*
Y1693095D03*
X2008636D03*
X1968636Y1716717D03*
X1958636D03*
Y1693095D03*
X1968636D03*
X2028636Y1716717D03*
X2018636D03*
Y1693095D03*
X2028636D03*
X1988636Y1716717D03*
X1978636D03*
Y1693095D03*
X1988636D03*
X1948636Y1716717D03*
X1938636D03*
Y1693095D03*
X1948636D03*
G54D259*
X1648636Y1674217D03*
X1621136Y1652717D03*
Y1674217D03*
X1648636Y1652717D03*
Y1711217D03*
X1621136Y1689717D03*
Y1711217D03*
X1648636Y1689717D03*
Y1747217D03*
X1621136Y1725717D03*
Y1747217D03*
X1648636Y1725717D03*
G54D260*
X1622136Y1663717D03*
Y1700717D03*
Y1736717D03*
G54D261*
X1630136Y1663717D03*
X1638136D03*
X1646136D03*
X1630136Y1700717D03*
X1638136D03*
X1646136D03*
X1630136Y1736717D03*
X1638136D03*
X1646136D03*
G54D262*
X2198636Y1526403D03*
Y1487032D03*
X2153636Y1526403D03*
Y1487032D03*
X2228636Y1616403D03*
Y1577032D03*
G54D263*
X1778636Y1641678D03*
Y1611757D03*
X2117636Y1623178D03*
Y1593257D03*
G54D265*
X2078636Y1511639D03*
X2138636Y1436717D03*
X2148636D03*
X2158636D03*
X2168636D03*
X2078636D03*
X2088636D03*
X2098636D03*
X2108636D03*
X2198636D03*
X2208636D03*
X2218636D03*
X2228636D03*
X2063636Y1683717D03*
Y1693717D03*
Y1703717D03*
Y1713717D03*
G54D266*
X2100386Y1648467D03*
X2107886D03*
X1719886Y1404967D03*
Y1397467D03*
X2166886Y1648467D03*
X2174386D03*
X2050386Y1518967D03*
X2057886D03*
X2067386Y1648467D03*
X2074886D03*
X2133386D03*
X2140886D03*
X2200886D03*
X2208386D03*
X2234886D03*
X2242386D03*
G54D267*
X2104136Y1657167D03*
X2170636D03*
X2054136Y1527667D03*
X2071136Y1657167D03*
X2137136D03*
X2204636D03*
X2238636D03*
G54D276*
X1728586Y1401217D03*
G54D281*
X1833636Y1666717D03*
Y1409316D03*
X2019636Y1666717D03*
Y1409316D03*
G54D283*
X2058636Y1742525D03*
Y1730910D03*
G54D284*
X2118636Y1494434D03*
Y1519001D03*
X2278636Y1524001D03*
Y1499434D03*
G54D285*
X1822636Y1365617D03*
X1922636D03*
G54D291*
X2278636Y1621284D03*
Y1592151D03*
G54D293*
X2233636Y1721717D03*
X2233436Y1741717D03*
X2083636Y1721717D03*
X2083436Y1741717D03*
X2113636Y1721717D03*
X2113436Y1741717D03*
X2143636Y1721717D03*
X2143436Y1741717D03*
X2173636Y1721717D03*
X2173436Y1741717D03*
X2203636Y1721717D03*
X2203436Y1741717D03*
G54D302*
X1735967Y1699867D03*
X1727306D03*
Y1693568D03*
X1735967D03*
X1690467Y1589867D03*
X1681806D03*
Y1583568D03*
X1690467D03*
G54D303*
X2078636Y1481717D03*
G54D304*
X2263737Y1675217D03*
X2276336D03*
X1674936Y1759717D03*
X1662337D03*
G54D305*
X1593321Y1321403D03*
X2274424D03*
Y1774158D03*
X1593321D03*
G54D307*
X2233636Y1671717D03*
Y1681717D03*
X2083636Y1671717D03*
Y1681717D03*
X2113636Y1671717D03*
Y1681717D03*
X2143636Y1671717D03*
Y1681717D03*
X2173636Y1671717D03*
Y1681717D03*
X2203636Y1671717D03*
Y1681717D03*
G54D313*
X2057636Y1655194D03*
Y1637871D03*
X2090636Y1655379D03*
Y1638056D03*
X2224636Y1655379D03*
Y1638056D03*
X2156636Y1655379D03*
Y1638056D03*
X2190636Y1655379D03*
Y1638056D03*
X2123636Y1655379D03*
Y1638056D03*
G54D319*
X2183636Y1616403D03*
Y1577032D03*
X2243636Y1526403D03*
Y1487032D03*
G54D321*
X2217136Y1396206D03*
X2207136D03*
X2197136D03*
X2187136D03*
Y1357229D03*
X2197136D03*
X2207136D03*
X2217136D03*
G54D340*
X2280538Y1424217D03*
G54D341*
X2273837D03*
X2267136D03*
X2260436D03*
X2253735D03*
G54D342*
X2267136Y1372249D03*
G54D343*
X2085136Y1535717D03*
Y1595717D03*
G54D346*
X2282503Y1746717D03*
X2270770D03*
G54D347*
X2261825Y1571717D03*
X2285447D03*
G54D348*
X1909936Y1401717D03*
X1927337D03*
X1877837D03*
X1860436D03*
G54D349*
X2021136Y1380217D03*
Y1352717D03*
X2009136Y1380217D03*
Y1352717D03*
X2045136Y1380217D03*
Y1352717D03*
X2033136Y1380217D03*
Y1352717D03*
G54D350*
X1696128Y1317131D03*
X1616128D03*
G54D351*
X1643636Y1401717D03*
X1648636D03*
X1653636D03*
X1658636D03*
X1663636D03*
X1673636D03*
G54D352*
X1668636D03*
G54D356*
X1718893Y1331461D03*
X1738380D03*
Y1311974D03*
X1728636Y1321717D03*
X1718893Y1311974D03*
G54D393*
X1728636Y1667032D03*
G54D394*
X1789417Y1355905D03*
X1763433Y1357480D03*
X1789417Y1359055D03*
X1763433Y1360630D03*
X1789417Y1362204D03*
X1763433Y1363779D03*
X1789417Y1365354D03*
X1763433Y1366929D03*
X1789417Y1368504D03*
X1763433Y1370078D03*
X1789417Y1371653D03*
X1763433Y1373228D03*
X1789417Y1374803D03*
X1763433Y1376378D03*
X1789417Y1377952D03*
X1763433Y1379527D03*
X1789417Y1393700D03*
X1763433Y1395275D03*
X1789417Y1396850D03*
X1763433Y1398425D03*
X1789417Y1400000D03*
X1763433Y1401574D03*
X1789417Y1403149D03*
X1763433Y1404724D03*
X1789417Y1406299D03*
X1763433Y1407874D03*
X1789417Y1409448D03*
X1763433Y1411023D03*
X1789417Y1412598D03*
X1763433Y1414173D03*
X1789417Y1415748D03*
X1763433Y1417322D03*
X1789417Y1418897D03*
X1763433Y1420472D03*
X1789417Y1422047D03*
X1763433Y1423622D03*
X1789417Y1425196D03*
X1763433Y1426771D03*
X1789417Y1428346D03*
X1763433Y1429921D03*
X1789417Y1431496D03*
X1763433Y1433070D03*
X1789417Y1434645D03*
X1763433Y1436220D03*
X1789417Y1437795D03*
X1763433Y1439370D03*
X1789417Y1440945D03*
X1763433Y1442519D03*
X1789417Y1444094D03*
X1763433Y1445669D03*
X1789417Y1447244D03*
X1763433Y1448819D03*
G54D395*
X1789417Y1346063D03*
Y1459055D03*
G54D396*
X1960136Y1539817D03*
Y1543617D03*
X1806636Y1699817D03*
Y1703617D03*
X2190136Y1469817D03*
Y1473617D03*
X1969636Y1683617D03*
Y1679817D03*
X2122636Y1469817D03*
Y1473617D03*
X1960136Y1513317D03*
Y1517117D03*
X1945636Y1513317D03*
Y1517117D03*
X2051136Y1337117D03*
Y1333317D03*
X2062136Y1337117D03*
Y1333317D03*
X1855636Y1699817D03*
Y1703617D03*
X1713636Y1584817D03*
Y1588617D03*
X2067136Y1333317D03*
Y1337117D03*
X2046136Y1333317D03*
Y1337117D03*
X2048636Y1472817D03*
Y1469017D03*
X2057636Y1611117D03*
Y1607317D03*
X2185136Y1469817D03*
Y1473617D03*
X2062636Y1611117D03*
Y1607317D03*
X2072136Y1337117D03*
Y1333317D03*
X2068136Y1630617D03*
Y1626817D03*
X2073636Y1630617D03*
Y1626817D03*
X2067636Y1611117D03*
Y1607317D03*
X2072636Y1611117D03*
Y1607317D03*
X2048636Y1450317D03*
Y1454117D03*
X1933636Y1440317D03*
Y1444117D03*
X1723636Y1588617D03*
Y1584817D03*
X1718636Y1588617D03*
Y1584817D03*
X1952636Y1517117D03*
Y1513317D03*
X1933636Y1476017D03*
Y1472217D03*
X1795636Y1703617D03*
Y1699817D03*
X1780636D03*
Y1703617D03*
X1638636Y1757817D03*
Y1761617D03*
X1952636Y1543617D03*
Y1539817D03*
X1938836Y1472117D03*
Y1475917D03*
X1995636Y1679817D03*
Y1683617D03*
X2029136Y1679817D03*
Y1683617D03*
X1988636Y1444117D03*
Y1440317D03*
X1993636Y1444117D03*
Y1440317D03*
X2128136Y1469817D03*
Y1473617D03*
X2031136Y1337117D03*
Y1333317D03*
X1793636Y1609817D03*
Y1613617D03*
X1952636Y1535117D03*
Y1531317D03*
X1945636Y1535117D03*
Y1531317D03*
X1938636Y1444117D03*
Y1440317D03*
X1648636Y1757817D03*
Y1761617D03*
X1960136Y1535117D03*
Y1531317D03*
X1929136Y1683617D03*
Y1679817D03*
X1896636Y1401617D03*
Y1397817D03*
X1890636Y1401617D03*
Y1397817D03*
X1971136Y1393117D03*
Y1389317D03*
X1966136Y1393117D03*
Y1389317D03*
X1865636Y1703617D03*
Y1699817D03*
X1945636Y1539817D03*
Y1543617D03*
X1949136Y1683617D03*
Y1679817D03*
X1989136Y1683617D03*
Y1679817D03*
X1845636Y1699817D03*
Y1703617D03*
X1785636Y1699817D03*
Y1703617D03*
X1801636Y1699817D03*
Y1703617D03*
X1840636Y1699817D03*
Y1703617D03*
X1850636Y1699817D03*
Y1703617D03*
X1860636Y1699817D03*
Y1703617D03*
X1673636Y1574817D03*
Y1578617D03*
X1668136Y1641317D03*
Y1645117D03*
X1714136Y1711317D03*
Y1715117D03*
X2036136Y1337117D03*
Y1333317D03*
X2041136Y1337117D03*
Y1333317D03*
X1643636Y1761617D03*
Y1757817D03*
X1708636Y1584817D03*
Y1588617D03*
X1701136Y1633617D03*
Y1629817D03*
X1703636Y1643617D03*
Y1639817D03*
X1713636Y1643617D03*
Y1639817D03*
X1728636Y1585132D03*
Y1588932D03*
X1708636Y1639817D03*
Y1643617D03*
X1790636Y1699817D03*
Y1703617D03*
X2057136Y1337117D03*
Y1333317D03*
X1703636Y1584817D03*
Y1588617D03*
X1960136Y1526117D03*
Y1522317D03*
X1945636Y1526117D03*
Y1522317D03*
X1933636Y1485217D03*
Y1481417D03*
X1938836D03*
Y1485217D03*
X1952636Y1526117D03*
Y1522317D03*
X2263636Y1553617D03*
Y1549817D03*
X2273636D03*
Y1553617D03*
X2280636Y1441317D03*
Y1445117D03*
X1835636Y1699817D03*
Y1703617D03*
G54D397*
X1800236Y1654717D03*
X1804036D03*
X1805736Y1617717D03*
X1809536D03*
X1746736Y1596717D03*
X1750536D03*
X1745236Y1470217D03*
X1749036D03*
X2047036Y1489217D03*
X2043236D03*
X1721736Y1416917D03*
X1725536D03*
X1754236Y1470217D03*
X1758036D03*
X1788236Y1544717D03*
X1792036D03*
X1745536Y1721717D03*
X1741736D03*
X1746736Y1591717D03*
X1750536D03*
X1788136Y1524917D03*
X1791936D03*
X1766736Y1530717D03*
X1770536D03*
X1805736Y1622717D03*
X1809536D03*
X1746736Y1586717D03*
X1750536D03*
X1732236Y1576217D03*
X1736036D03*
X1746736Y1626717D03*
X1750536D03*
X1714736Y1576217D03*
X1718536D03*
X1788236Y1534717D03*
X1792036D03*
X1766736Y1520717D03*
X1770536D03*
X1766736Y1510717D03*
X1770536D03*
X1743736Y1516717D03*
X1747536D03*
X1743736Y1506717D03*
X1747536D03*
X1743736Y1496717D03*
X1747536D03*
X1728236Y1468717D03*
X1732036D03*
X1786736Y1473117D03*
X1790536D03*
X1745536Y1711717D03*
X1741736D03*
X1750536Y1621717D03*
X1746736D03*
X1750536Y1601717D03*
X1746736D03*
X1736036Y1570717D03*
X1732236D03*
X1750536Y1631717D03*
X1746736D03*
X1718536Y1570717D03*
X1714736D03*
X1750536Y1616717D03*
X1746736D03*
X1792036Y1539717D03*
X1788236D03*
X1791936Y1529717D03*
X1788136D03*
X1770536Y1535717D03*
X1766736D03*
X1770536Y1525717D03*
X1766736D03*
X1770536Y1515717D03*
X1766736D03*
X1770536Y1505717D03*
X1766736D03*
X1747536Y1511717D03*
X1743736D03*
X1747536Y1501717D03*
X1743736D03*
X1747536Y1491717D03*
X1743736D03*
X1801036Y1475917D03*
X1797236D03*
X1801036Y1470417D03*
X1797236D03*
X1735536Y1726717D03*
X1731736D03*
X1735536Y1721717D03*
X1731736D03*
X1735536Y1716717D03*
X1731736D03*
X1735536Y1711717D03*
X1731736D03*
X1800236Y1650217D03*
X1804036D03*
X1741736Y1726717D03*
X1745536D03*
X1741736Y1716717D03*
X1745536D03*
X1711736Y1726717D03*
X1715536D03*
X1725536Y1721717D03*
X1721736D03*
X1725536Y1711717D03*
X1721736D03*
X1746736Y1606717D03*
X1750536D03*
Y1611717D03*
X1746736D03*
X1690536Y1596717D03*
X1686736D03*
X1732036Y1457717D03*
X1728236D03*
G54D398*
X1825762Y1660530D03*
X1841510Y1660517D03*
X1825762Y1655530D03*
Y1650530D03*
Y1645530D03*
Y1640530D03*
Y1635530D03*
Y1630530D03*
Y1625530D03*
Y1620530D03*
Y1615530D03*
Y1610530D03*
Y1605530D03*
Y1600530D03*
Y1595530D03*
Y1590530D03*
Y1585530D03*
Y1580530D03*
Y1575530D03*
Y1570530D03*
Y1565530D03*
Y1560530D03*
Y1555530D03*
Y1550530D03*
Y1545530D03*
Y1540530D03*
Y1535530D03*
Y1530530D03*
Y1525530D03*
Y1520530D03*
Y1515530D03*
Y1510530D03*
Y1505530D03*
Y1500530D03*
Y1495530D03*
Y1490530D03*
Y1485530D03*
Y1480530D03*
Y1475530D03*
Y1470530D03*
Y1465530D03*
Y1460530D03*
Y1455530D03*
Y1450530D03*
Y1445530D03*
Y1440530D03*
Y1435530D03*
Y1430530D03*
Y1425530D03*
Y1420530D03*
Y1415530D03*
X1841510Y1655517D03*
Y1650517D03*
Y1645517D03*
Y1640517D03*
Y1635517D03*
Y1630517D03*
Y1625517D03*
Y1620517D03*
Y1615517D03*
Y1610517D03*
Y1605517D03*
Y1600517D03*
Y1595517D03*
Y1590517D03*
Y1585517D03*
Y1580517D03*
Y1575517D03*
Y1570517D03*
Y1565517D03*
Y1560517D03*
Y1555517D03*
Y1550517D03*
Y1545517D03*
Y1540517D03*
Y1535517D03*
Y1530517D03*
Y1525517D03*
Y1520517D03*
Y1515517D03*
Y1510517D03*
Y1505517D03*
Y1500517D03*
Y1495517D03*
Y1490517D03*
Y1485517D03*
Y1480517D03*
Y1475517D03*
Y1470517D03*
Y1465517D03*
Y1460517D03*
Y1455517D03*
Y1450517D03*
Y1445517D03*
Y1440517D03*
Y1435517D03*
Y1430517D03*
Y1425517D03*
Y1420517D03*
Y1415517D03*
X2011762Y1660530D03*
X2027510Y1660517D03*
X2011762Y1655530D03*
Y1650530D03*
Y1645530D03*
Y1640530D03*
Y1635530D03*
Y1630530D03*
Y1625530D03*
Y1620530D03*
Y1615530D03*
Y1610530D03*
Y1605530D03*
Y1600530D03*
Y1595530D03*
Y1590530D03*
Y1585530D03*
Y1580530D03*
Y1575530D03*
Y1570530D03*
Y1565530D03*
Y1560530D03*
Y1555530D03*
Y1550530D03*
Y1545530D03*
Y1540530D03*
Y1535530D03*
Y1530530D03*
Y1525530D03*
Y1520530D03*
Y1515530D03*
Y1510530D03*
Y1505530D03*
Y1500530D03*
Y1495530D03*
Y1490530D03*
Y1485530D03*
Y1480530D03*
Y1475530D03*
Y1470530D03*
Y1465530D03*
Y1460530D03*
Y1455530D03*
Y1450530D03*
Y1445530D03*
Y1440530D03*
Y1435530D03*
Y1430530D03*
Y1425530D03*
Y1420530D03*
Y1415530D03*
X2027510Y1655517D03*
Y1650517D03*
Y1645517D03*
Y1640517D03*
Y1635517D03*
Y1630517D03*
Y1625517D03*
Y1620517D03*
Y1615517D03*
Y1610517D03*
Y1605517D03*
Y1600517D03*
Y1595517D03*
Y1590517D03*
Y1585517D03*
Y1580517D03*
Y1575517D03*
Y1570517D03*
Y1565517D03*
Y1560517D03*
Y1555517D03*
Y1550517D03*
Y1545517D03*
Y1540517D03*
Y1535517D03*
Y1530517D03*
Y1525517D03*
Y1520517D03*
Y1515517D03*
Y1510517D03*
Y1505517D03*
Y1500517D03*
Y1495517D03*
Y1490517D03*
Y1485517D03*
Y1480517D03*
Y1475517D03*
Y1470517D03*
Y1465517D03*
Y1460517D03*
Y1455517D03*
Y1450517D03*
Y1445517D03*
Y1440517D03*
Y1435517D03*
Y1430517D03*
Y1425517D03*
Y1420517D03*
Y1415517D03*
G54D399*
X2154121Y1556693D03*
X2223151Y1566742D03*
G54D400*
X2154003Y1561693D03*
Y1566693D03*
Y1571693D03*
X2133334D03*
Y1566693D03*
Y1561693D03*
Y1556693D03*
X2223269Y1561742D03*
Y1556742D03*
Y1551742D03*
X2243939D03*
Y1556742D03*
Y1561742D03*
Y1566742D03*
G54D402*
X1701668Y1723371D03*
X1703636D03*
X1705605D03*
Y1730064D03*
X1703636D03*
X1701668D03*
Y1708371D03*
X1703636D03*
X1705605D03*
Y1715064D03*
X1703636D03*
X1701668D03*
G54D403*
X1688636Y1713631D03*
Y1727804D03*
X1673636Y1713631D03*
Y1727804D03*
G54D404*
X1638735Y1773469D03*
X1636176D03*
X1633617D03*
X1631057D03*
X1628498D03*
G54D405*
X1642376Y1772189D03*
X1624857D03*
G54D406*
X1649759Y1784000D03*
X1617474D03*
G54D407*
X1638145D03*
X1629089D03*
G54D408*
X1684148Y1781717D03*
X1673125D03*
G54D409*
X1675136Y1771717D03*
X1682136D03*
G54D410*
X1746136Y1745217D03*
Y1738217D03*
X1720836Y1453217D03*
Y1446217D03*
X1711636Y1453217D03*
Y1446217D03*
G54D411*
X1699466Y1559946D03*
Y1557978D03*
Y1556009D03*
Y1554041D03*
Y1552072D03*
Y1550104D03*
Y1548135D03*
Y1546167D03*
Y1544198D03*
Y1542230D03*
Y1540261D03*
Y1538293D03*
Y1536324D03*
Y1534356D03*
Y1532387D03*
Y1530419D03*
Y1528450D03*
Y1526482D03*
Y1524513D03*
Y1522545D03*
Y1520576D03*
Y1518608D03*
Y1516639D03*
Y1514671D03*
Y1512702D03*
Y1510733D03*
Y1508765D03*
Y1506796D03*
Y1504828D03*
Y1502859D03*
Y1500891D03*
Y1498922D03*
Y1496954D03*
Y1494985D03*
Y1493017D03*
Y1491048D03*
Y1489080D03*
Y1487111D03*
Y1485143D03*
Y1483174D03*
Y1481206D03*
Y1479237D03*
Y1477269D03*
Y1475300D03*
Y1473332D03*
Y1471363D03*
Y1469395D03*
Y1467426D03*
Y1465458D03*
Y1463489D03*
G54D412*
X1686671Y1566245D03*
Y1457190D03*
G54D413*
X1698736Y1618927D03*
Y1616958D03*
Y1614988D03*
Y1613017D03*
Y1611047D03*
Y1609077D03*
Y1607107D03*
Y1605138D03*
X1718536D03*
Y1607107D03*
Y1609077D03*
Y1611047D03*
Y1613017D03*
Y1614988D03*
Y1616958D03*
Y1618927D03*
G54D414*
X1701741Y1602132D03*
X1703711D03*
X1705681D03*
X1707651D03*
X1709621D03*
X1711591D03*
X1713562D03*
X1715531D03*
Y1621932D03*
X1713562D03*
X1711591D03*
X1709621D03*
X1707651D03*
X1705681D03*
X1703711D03*
X1701741D03*
G54D415*
X1708636Y1612032D03*
G54D416*
X2067136Y1315717D03*
X2067137Y1307843D03*
X2059263Y1315717D03*
Y1307843D03*
X2051389Y1315717D03*
Y1307843D03*
X2043515Y1315717D03*
Y1307843D03*
X2035641Y1315717D03*
Y1307843D03*
G54D417*
X1641636Y1614238D03*
X1651636Y1609237D03*
X1641636Y1604238D03*
X1651636Y1599237D03*
X1641636Y1594238D03*
X1651636Y1589237D03*
X1641636Y1584238D03*
X1651636Y1579237D03*
G54D418*
X1628841Y1627229D03*
Y1566206D03*
G54D419*
X1856802Y1731717D03*
G54D420*
X1779636D03*
G54D421*
X1780542Y1720694D03*
X1790384D03*
X1800227D03*
X1810069D03*
X1819912D03*
X1829754D03*
X1839597D03*
X1849440D03*
X1855857D03*
X1860936D03*
X1865857D03*
G54D422*
X1872471Y1783489D03*
Y1727584D03*
G54D423*
X1761841Y1783489D03*
X1770581Y1727584D03*
G54D424*
X1731136Y1737217D03*
Y1746217D03*
X1716136Y1737217D03*
Y1746217D03*
G54D425*
X1765636Y1321812D03*
X0Y0D02*
M02*
