*
*
G04 PADS 9.5 Build Number: 522968 generated Gerber (RS-274-X) file*
G04 PC Version=2.1*
*
%IN "MT-ACDC-A.pcb"*%
*
%MOIN*%
*
%FSLAX35Y35*%
*
*
*
*
G04 PC Standard Apertures*
*
*
G04 Thermal Relief Aperture macro.*
%AMTER*
1,1,$1,0,0*
1,0,$1-$2,0,0*
21,0,$3,$4,0,0,45*
21,0,$3,$4,0,0,135*
%
*
*
G04 Annular Aperture macro.*
%AMANN*
1,1,$1,0,0*
1,0,$2,0,0*
%
*
*
G04 Odd Aperture macro.*
%AMODD*
1,1,$1,0,0*
1,0,$1-0.005,0,0*
%
*
*
G04 PC Custom Aperture Macros*
*
*
*
*
*
*
G04 PC Aperture Table*
*
%ADD010C,0.01*%
%ADD023C,0.008*%
%ADD024C,0.001*%
%ADD049C,0.00591*%
%ADD050C,0.00787*%
%ADD051C,0.00787*%
%ADD052C,0.01181*%
*
*
*
*
G04 PC Circuitry*
G04 Layer Name MT-ACDC-A.pcb - circuitry*
%LPD*%
*
*
G04 PC Custom Flashes*
G04 Layer Name MT-ACDC-A.pcb - flashes*
%LPD*%
*
*
G04 PC Circuitry*
G04 Layer Name MT-ACDC-A.pcb - circuitry*
%LPD*%
*
G54D10*
G01X1892874Y1549843D02*
Y1583307D01*
X1877126*
Y1549843*
X1892874*
X2084874Y1533843D02*
Y1567307D01*
X2069126*
Y1533843*
X2084874*
X1871126Y1595969D02*
Y1645181D01*
X1886874*
Y1595969*
X1871126*
X1965203Y1580914D02*
X1995854Y1550262D01*
X1959320Y1578923D02*
X1987980Y1550262D01*
X1954283Y1576086D02*
X1980106Y1550262D01*
X1950039Y1572456D02*
X1972232Y1550262D01*
X1946533Y1568087D02*
X1964358Y1550262D01*
X1964358*
X1943850Y1562896D02*
X1956484Y1550262D01*
X1940841D02*
X2002757D01*
X1972210Y1581781D02*
X2003147Y1550844D01*
X1965203Y1678914D02*
X1995854Y1648262D01*
X1959320Y1676923D02*
X1987980Y1648262D01*
X1954283Y1674086D02*
X1980106Y1648262D01*
X1950039Y1670456D02*
X1972232Y1648262D01*
X1946533Y1666087D02*
X1964358Y1648262D01*
X1964358*
X1943850Y1660896D02*
X1956484Y1648262D01*
X1940841D02*
X2002757D01*
X1972210Y1679781D02*
X2003147Y1648844D01*
X2125929Y1581504D02*
Y1547646D01*
X2092071*
Y1581504*
X2125929*
X2109134Y1612722D02*
Y1581678D01*
X2108965*
Y1612722*
X2109134*
X2109097Y1515092D02*
Y1547870D01*
X2108757*
Y1515092*
X2109097*
X2109064Y1548214D02*
X2125891Y1564580D01*
X2092138*
X2108504Y1548214*
X2109064*
X2039157Y1521047D02*
Y1580102D01*
X2058843*
Y1521047*
X2039157*
X2048878Y1511335D02*
Y1520638D01*
X2049101*
Y1511335*
X2048878*
X2048970Y1589390D02*
Y1580091D01*
X2048871*
Y1589390*
X2048970*
X2011157Y1521047D02*
Y1580102D01*
X2030843*
Y1521047*
X2011157*
X2020878Y1511335D02*
Y1520638D01*
X2021101*
Y1511335*
X2020878*
X2020970Y1589390D02*
Y1580091D01*
X2020871*
Y1589390*
X2020970*
X2011157Y1612047D02*
Y1671102D01*
X2030843*
Y1612047*
X2011157*
X2020878Y1602335D02*
Y1611638D01*
X2021101*
Y1602335*
X2020878*
X2020970Y1680390D02*
Y1671091D01*
X2020871*
Y1680390*
X2020970*
X2039157Y1612047D02*
Y1671102D01*
X2058843*
Y1612047*
X2039157*
X2048878Y1602335D02*
Y1611638D01*
X2049101*
Y1602335*
X2048878*
X2048970Y1680390D02*
Y1671091D01*
X2048871*
Y1680390*
X2048970*
X1839874Y1698425D02*
G75*
G03X1832000Y1690551I0J-7874D01*
G01X1839874Y1698425D02*
X2158772D01*
X2166646Y1690551D02*
G03X2158772Y1698425I-7874J0D01*
G01X2166646Y1690551D02*
Y1509449D01*
X2158772Y1501575D02*
G03X2166646Y1509449I-0J7874D01*
G01X2158772Y1501575D02*
X1839874D01*
X1832000Y1509449D02*
G03X1839874Y1501575I7874J-0D01*
G01X1832000Y1509449D02*
Y1690551D01*
X1860740Y1521260D02*
G03X1860740I-9055J0D01*
G01Y1678740D02*
G03X1860740I-9055J0D01*
G01X2156016D02*
G03X2156016I-9055J0D01*
G01Y1521260D02*
G03X2156016I-9055J0D01*
G54D23*
G01X1845818Y1551325D02*
Y1547325D01*
X1845636Y1546575*
X1845455Y1546325*
X1845091Y1546075*
X1844727*
X1844364Y1546325*
X1844182Y1546575*
X1844000Y1547325*
Y1547825*
X1847455Y1550325D02*
X1847818Y1550575D01*
X1848364Y1551325*
Y1546075*
X1885000Y1539325D02*
Y1534075D01*
Y1539325D02*
X1887364D01*
X1885000Y1536825D02*
X1886455D01*
X1889000Y1538325D02*
X1889364Y1538575D01*
X1889909Y1539325*
Y1534075*
X2075000Y1520825D02*
Y1515575D01*
Y1520825D02*
X2077364D01*
X2075000Y1518325D02*
X2076455D01*
X2079182Y1519575D02*
Y1519825D01*
X2079364Y1520325*
X2079545Y1520575*
X2079909Y1520825*
X2080636*
X2081000Y1520575*
X2081182Y1520325*
X2081364Y1519825*
Y1519325*
X2081182Y1518825*
X2080818Y1518075*
X2079000Y1515575*
X2081545*
X1893500Y1618825D02*
Y1613575D01*
Y1618825D02*
X1895136D01*
X1895682Y1618575*
X1895864Y1618325*
X1896045Y1617825*
Y1617325*
X1895864Y1616825*
X1895682Y1616575*
X1895136Y1616325*
X1893500*
X1894773D02*
X1896045Y1613575D01*
X1897682Y1617825D02*
X1898045Y1618075D01*
X1898591Y1618825*
Y1613575*
X1919000Y1655825D02*
Y1652075D01*
X1919182Y1651325*
X1919545Y1650825*
X1920091Y1650575*
X1920455*
X1921000Y1650825*
X1921364Y1651325*
X1921545Y1652075*
Y1655825*
X1923182Y1654825D02*
X1923545Y1655075D01*
X1924091Y1655825*
Y1650575*
X1966500Y1512825D02*
Y1507575D01*
Y1512825D02*
X1967773D01*
X1968318Y1512575*
X1968682Y1512075*
X1968864Y1511575*
X1969045Y1510825*
Y1509575*
X1968864Y1508825*
X1968682Y1508325*
X1968318Y1507825*
X1967773Y1507575*
X1966500*
X1973409Y1511575D02*
X1973227Y1512075D01*
X1972864Y1512575*
X1972500Y1512825*
X1971773*
X1971409Y1512575*
X1971045Y1512075*
X1970864Y1511575*
X1970682Y1510825*
Y1509575*
X1970864Y1508825*
X1971045Y1508325*
X1971409Y1507825*
X1971773Y1507575*
X1972500*
X1972864Y1507825*
X1973227Y1508325*
X1973409Y1508825*
X1975045Y1511825D02*
X1975409Y1512075D01*
X1975955Y1512825*
Y1507575*
X1969000Y1606825D02*
Y1601575D01*
Y1606825D02*
X1970273D01*
X1970818Y1606575*
X1971182Y1606075*
X1971364Y1605575*
X1971545Y1604825*
Y1603575*
X1971364Y1602825*
X1971182Y1602325*
X1970818Y1601825*
X1970273Y1601575*
X1969000*
X1975909Y1605575D02*
X1975727Y1606075D01*
X1975364Y1606575*
X1975000Y1606825*
X1974273*
X1973909Y1606575*
X1973545Y1606075*
X1973364Y1605575*
X1973182Y1604825*
Y1603575*
X1973364Y1602825*
X1973545Y1602325*
X1973909Y1601825*
X1974273Y1601575*
X1975000*
X1975364Y1601825*
X1975727Y1602325*
X1975909Y1602825*
X1977727Y1605575D02*
Y1605825D01*
X1977909Y1606325*
X1978091Y1606575*
X1978455Y1606825*
X1979182*
X1979545Y1606575*
X1979727Y1606325*
X1979909Y1605825*
Y1605325*
X1979727Y1604825*
X1979364Y1604075*
X1977545Y1601575*
X1980091*
X2093000Y1522325D02*
Y1517075D01*
Y1522325D02*
X2094273D01*
X2094818Y1522075*
X2095182Y1521575*
X2095364Y1521075*
X2095545Y1520325*
Y1519075*
X2095364Y1518325*
X2095182Y1517825*
X2094818Y1517325*
X2094273Y1517075*
X2093000*
X2097182Y1521325D02*
X2097545Y1521575D01*
X2098091Y1522325*
Y1517075*
X2033500Y1511325D02*
Y1506075D01*
Y1511325D02*
X2035136D01*
X2035682Y1511075*
X2035864Y1510825*
X2036045Y1510325*
Y1509825*
X2035864Y1509325*
X2035682Y1509075*
X2035136Y1508825*
X2033500*
X2034773D02*
X2036045Y1506075D01*
X2037864Y1510075D02*
Y1510325D01*
X2038045Y1510825*
X2038227Y1511075*
X2038591Y1511325*
X2039318*
X2039682Y1511075*
X2039864Y1510825*
X2040045Y1510325*
Y1509825*
X2039864Y1509325*
X2039500Y1508575*
X2037682Y1506075*
X2040227*
X1999000Y1512825D02*
Y1507575D01*
Y1512825D02*
X2000636D01*
X2001182Y1512575*
X2001364Y1512325*
X2001545Y1511825*
Y1511325*
X2001364Y1510825*
X2001182Y1510575*
X2000636Y1510325*
X1999000*
X2000273D02*
X2001545Y1507575D01*
X2003545Y1512825D02*
X2005545D01*
X2004455Y1510825*
X2005000*
X2005364Y1510575*
X2005545Y1510325*
X2005727Y1509575*
Y1509075*
X2005545Y1508325*
X2005182Y1507825*
X2004636Y1507575*
X2004091*
X2003545Y1507825*
X2003364Y1508075*
X2003182Y1508575*
X1996500Y1605825D02*
Y1600575D01*
Y1605825D02*
X1998136D01*
X1998682Y1605575*
X1998864Y1605325*
X1999045Y1604825*
Y1604325*
X1998864Y1603825*
X1998682Y1603575*
X1998136Y1603325*
X1996500*
X1997773D02*
X1999045Y1600575D01*
X2002500Y1605825D02*
X2000682Y1602325D01*
X2003409*
X2002500Y1605825D02*
Y1600575D01*
X2059000Y1604325D02*
Y1599075D01*
Y1604325D02*
X2060636D01*
X2061182Y1604075*
X2061364Y1603825*
X2061545Y1603325*
Y1602825*
X2061364Y1602325*
X2061182Y1602075*
X2060636Y1601825*
X2059000*
X2060273D02*
X2061545Y1599075D01*
X2065545Y1604325D02*
X2063727D01*
X2063545Y1602075*
X2063727Y1602325*
X2064273Y1602575*
X2064818*
X2065364Y1602325*
X2065727Y1601825*
X2065909Y1601075*
X2065727Y1600575*
X2065545Y1599825*
X2065182Y1599325*
X2064636Y1599075*
X2064091*
X2063545Y1599325*
X2063364Y1599575*
X2063182Y1600075*
X2150818Y1552325D02*
Y1548325D01*
X2150636Y1547575*
X2150455Y1547325*
X2150091Y1547075*
X2149727*
X2149364Y1547325*
X2149182Y1547575*
X2149000Y1548325*
Y1548825*
X2152636Y1551075D02*
Y1551325D01*
X2152818Y1551825*
X2153000Y1552075*
X2153364Y1552325*
X2154091*
X2154455Y1552075*
X2154636Y1551825*
X2154818Y1551325*
Y1550825*
X2154636Y1550325*
X2154273Y1549575*
X2152455Y1547075*
X2155000*
G54D24*
G54D49*
X1838000Y1643539D02*
X1860700D01*
Y1640175*
Y1556610*
X1825500*
Y1643539*
X1838000*
X1834900Y1643439D02*
Y1556610D01*
X2162000D02*
X2139300D01*
Y1559975*
Y1643539*
X2174500*
Y1556610*
X2162000*
X2165100Y1556710D02*
Y1643539D01*
G54D50*
X1932811Y1643276D02*
Y1555874D01*
X1909189*
Y1643276*
X1932811*
G54D51*
X1915686Y1631521D02*
X1911257D01*
X1913472Y1633131D02*
Y1629910D01*
X1912761Y1569949D02*
Y1566191D01*
G54D52*
X2003496Y1550575D02*
G03X2003496I-31496J0D01*
G01Y1648575D02*
G03X2003496I-31496J0D01*
G74*
G01X0Y0D02*
M02*
