*
*
G04 PADS 9.5 Build Number: 522968 generated Gerber (RS-274-X) file*
G04 PC Version=2.1*
*
%IN "MT-StreetLight V1.0.0.p"*%
*
%MOIN*%
*
%FSLAX35Y35*%
*
*
*
*
G04 PC Standard Apertures*
*
*
G04 Thermal Relief Aperture macro.*
%AMTER*
1,1,$1,0,0*
1,0,$1-$2,0,0*
21,0,$3,$4,0,0,45*
21,0,$3,$4,0,0,135*
%
*
*
G04 Annular Aperture macro.*
%AMANN*
1,1,$1,0,0*
1,0,$2,0,0*
%
*
*
G04 Odd Aperture macro.*
%AMODD*
1,1,$1,0,0*
1,0,$1-0.005,0,0*
%
*
*
G04 PC Custom Aperture Macros*
*
*
*
*
*
*
G04 PC Aperture Table*
*
%ADD010C,0.01*%
%ADD016C,0.012*%
%ADD020R,0.04X0.04*%
%ADD024C,0.001*%
%ADD026R,0.065X0.065*%
%ADD027C,0.065*%
%ADD130R,0.16248X0.225*%
%ADD131C,0.13098*%
%ADD132O,0.09161X0.11524*%
%ADD133C,0.095*%
%ADD134R,0.02075X0.10342*%
%ADD135C,0.24122*%
%ADD136R,0.07587X0.10342*%
%ADD137R,0.08374X0.10342*%
%ADD138R,0.12705X0.04043*%
%ADD139O,0.12705X0.04437*%
%ADD140R,0.24122X0.37902*%
%ADD141R,0.20185X0.07587*%
%ADD142R,0.12705X0.0365*%
%ADD143R,0.12705X0.0365*%
%ADD144O,0.01287X0.057*%
%ADD145R,0.01287X0.057*%
%ADD146R,0.057X0.01287*%
%ADD147R,0.061X0.061*%
%ADD148C,0.061*%
%ADD149R,0.105X0.02862*%
%ADD150O,0.105X0.02862*%
%ADD151R,0.065X0.055*%
%ADD152R,0.041X0.041*%
%ADD153R,0.041X0.055*%
%ADD154C,0.07587*%
%ADD155R,0.055X0.041*%
%ADD156R,0.02075X0.07587*%
%ADD157O,0.02075X0.07587*%
%ADD158O,0.065X0.085*%
%ADD159O,0.085X0.065*%
%ADD160C,0.06799*%
%ADD161C,0.1428*%
%ADD162R,0.085X0.165*%
%ADD163R,0.10343X0.06406*%
%ADD164O,0.075X0.205*%
%ADD165R,0.04043X0.04831*%
%ADD166R,0.11299X0.09*%
%ADD167R,0.09X0.11299*%
%ADD168R,0.085X0.105*%
%ADD169R,0.105X0.085*%
%ADD170R,0.06406X0.12311*%
%ADD171C,0.09161*%
%ADD172R,0.06799X0.12311*%
%ADD173R,0.055X0.065*%
%ADD174O,0.029X0.085*%
%ADD175O,0.085X0.029*%
%ADD176C,0.055*%
%ADD177C,0.06799*%
%ADD178R,0.03492X0.08374*%
%ADD179R,0.08374X0.09555*%
%ADD180O,0.08374X0.09555*%
%ADD181C,0.06406*%
%ADD182R,0.02862X0.105*%
%ADD183O,0.02862X0.105*%
%ADD184R,0.057X0.061*%
%ADD185R,0.165X0.085*%
%ADD186O,0.26091X0.10343*%
%ADD187R,0.05224X0.08374*%
%ADD188R,0.03256X0.07587*%
%ADD189O,0.03256X0.07587*%
%ADD190R,0.02272X0.0424*%
%ADD191R,0.051X0.051*%
%ADD192R,0.051X0.041*%
%ADD193C,0.085*%
%ADD194C,0.06012*%
%ADD195C,0.145*%
%ADD196R,0.10342X0.03256*%
%ADD197O,0.10342X0.03256*%
%ADD198O,0.205X0.075*%
%ADD199R,0.09555X0.09555*%
%ADD200C,0.09555*%
%ADD201O,0.035X0.033*%
%ADD202R,0.04043X0.063*%
%ADD203O,0.085X0.14279*%
%ADD204R,0.04043X0.08374*%
%ADD205R,0.04043X0.08374*%
%ADD206R,0.04437X0.04437*%
%ADD207C,0.09161*%
%ADD208C,0.27272*%
%ADD209R,0.17048X0.233*%
%ADD210O,0.07987X0.02002*%
%ADD211O,0.02002X0.07987*%
%ADD212C,0.08374*%
*
*
*
*
G04 PC Circuitry*
G04 Layer Name MT-StreetLight V1.0.0.p - circuitry*
%LPD*%
*
*
G04 PC Custom Flashes*
G04 Layer Name MT-StreetLight V1.0.0.p - flashes*
%LPD*%
*
*
G04 PC Circuitry*
G04 Layer Name MT-StreetLight V1.0.0.p - circuitry*
%LPD*%
*
G54D10*
G01X2029254Y1769935D02*
X2033047D01*
X2034900Y1768081*
Y1756289*
X2033047Y1754435*
X2029254*
X2027400Y1756289*
Y1768081*
X2029254Y1769935*
X2028547Y1755142D02*
X2033754D01*
X2027547Y1756142D02*
X2034754D01*
X2027400Y1757142D02*
X2034900D01*
X2027400Y1758142D02*
X2034900D01*
X2027400Y1759142D02*
X2034900D01*
X2027400Y1760142D02*
X2034900D01*
X2027400Y1761142D02*
X2034900D01*
X2027400Y1762142D02*
X2034900D01*
X2027400Y1763142D02*
X2034900D01*
X2027400Y1764142D02*
X2034900D01*
X2027400Y1765142D02*
X2034900D01*
X2027400Y1766142D02*
X2034900D01*
X2027400Y1767142D02*
X2034900D01*
X2027461Y1768142D02*
X2034840D01*
X2028461Y1769142D02*
X2033840D01*
X2028150Y1755539D02*
Y1768831D01*
X2029150Y1754539D02*
Y1769831D01*
X2030150Y1754435D02*
Y1769935D01*
X2031150Y1754435D02*
Y1769935D01*
X2032150Y1754435D02*
Y1769935D01*
X2033150Y1754538D02*
Y1769832D01*
X2034150Y1755538D02*
Y1768832D01*
X1815856Y1817246D02*
Y1821039D01*
X1817710Y1822893*
X1829503*
X1831356Y1821039*
Y1817246*
X1829503Y1815393*
X1817710*
X1815856Y1817246*
X1816961Y1816142D02*
X1830252D01*
X1815961Y1817142D02*
X1831252D01*
X1815856Y1818142D02*
X1831356D01*
X1815856Y1819142D02*
X1831356D01*
X1815856Y1820142D02*
X1831356D01*
X1815959Y1821142D02*
X1831254D01*
X1816959Y1822142D02*
X1830254D01*
X1816150Y1816953D02*
Y1821332D01*
X1817150Y1815953D02*
Y1822332D01*
X1818150Y1815393D02*
Y1822893D01*
X1819150Y1815393D02*
Y1822893D01*
X1820150Y1815393D02*
Y1822893D01*
X1821150Y1815393D02*
Y1822893D01*
X1822150Y1815393D02*
Y1822893D01*
X1823150Y1815393D02*
Y1822893D01*
X1824150Y1815393D02*
Y1822893D01*
X1825150Y1815393D02*
Y1822893D01*
X1826150Y1815393D02*
Y1822893D01*
X1827150Y1815393D02*
Y1822893D01*
X1828150Y1815393D02*
Y1822893D01*
X1829150Y1815393D02*
Y1822893D01*
X1830150Y1816039D02*
Y1822246D01*
X1831150Y1817039D02*
Y1821246D01*
X1830943Y1835037D02*
Y1831244D01*
X1829089Y1829391*
X1817296*
X1815443Y1831244*
Y1835037*
X1817296Y1836891*
X1829089*
X1830943Y1835037*
X1816546Y1830142D02*
X1829840D01*
X1815546Y1831142D02*
X1830840D01*
X1815443Y1832142D02*
X1830943D01*
X1815443Y1833142D02*
X1830943D01*
X1815443Y1834142D02*
X1830943D01*
X1815547Y1835142D02*
X1830839D01*
X1816547Y1836142D02*
X1829839D01*
X1816150Y1830538D02*
Y1835744D01*
X1817150Y1829538D02*
Y1836744D01*
X1818150Y1829391D02*
Y1836891D01*
X1819150Y1829391D02*
Y1836891D01*
X1820150Y1829391D02*
Y1836891D01*
X1821150Y1829391D02*
Y1836891D01*
X1822150Y1829391D02*
Y1836891D01*
X1823150Y1829391D02*
Y1836891D01*
X1824150Y1829391D02*
Y1836891D01*
X1825150Y1829391D02*
Y1836891D01*
X1826150Y1829391D02*
Y1836891D01*
X1827150Y1829391D02*
Y1836891D01*
X1828150Y1829391D02*
Y1836891D01*
X1829150Y1829451D02*
Y1836831D01*
X1830150Y1830451D02*
Y1835831D01*
X2017254Y1538935D02*
X2021047D01*
X2022900Y1537081*
Y1525289*
X2021047Y1523435*
X2017254*
X2015400Y1525289*
Y1537081*
X2017254Y1538935*
X2016547Y1524142D02*
X2021754D01*
X2015547Y1525142D02*
X2022754D01*
X2015400Y1526142D02*
X2022900D01*
X2015400Y1527142D02*
X2022900D01*
X2015400Y1528142D02*
X2022900D01*
X2015400Y1529142D02*
X2022900D01*
X2015400Y1530142D02*
X2022900D01*
X2015400Y1531142D02*
X2022900D01*
X2015400Y1532142D02*
X2022900D01*
X2015400Y1533142D02*
X2022900D01*
X2015400Y1534142D02*
X2022900D01*
X2015400Y1535142D02*
X2022900D01*
X2015400Y1536142D02*
X2022900D01*
X2015461Y1537142D02*
X2022840D01*
X2016461Y1538142D02*
X2021840D01*
X2016150Y1524539D02*
Y1537831D01*
X2017150Y1523539D02*
Y1538831D01*
X2018150Y1523435D02*
Y1538935D01*
X2019150Y1523435D02*
Y1538935D01*
X2020150Y1523435D02*
Y1538935D01*
X2021150Y1523538D02*
Y1538832D01*
X2022150Y1524538D02*
Y1537832D01*
X2007943Y1487537D02*
Y1483744D01*
X2006089Y1481891*
X1994296*
X1992443Y1483744*
Y1487537*
X1994296Y1489391*
X2006089*
X2007943Y1487537*
X1994046Y1482142D02*
X2006340D01*
X1993046Y1483142D02*
X2007340D01*
X1992443Y1484142D02*
X2007943D01*
X1992443Y1485142D02*
X2007943D01*
X1992443Y1486142D02*
X2007943D01*
X1992443Y1487142D02*
X2007943D01*
X1993047Y1488142D02*
X2007339D01*
X1994047Y1489142D02*
X2006339D01*
X1993150Y1483038D02*
Y1488244D01*
X1994150Y1482038D02*
Y1489244D01*
X1995150Y1481891D02*
Y1489391D01*
X1996150Y1481891D02*
Y1489391D01*
X1997150Y1481891D02*
Y1489391D01*
X1998150Y1481891D02*
Y1489391D01*
X1999150Y1481891D02*
Y1489391D01*
X2000150Y1481891D02*
Y1489391D01*
X2001150Y1481891D02*
Y1489391D01*
X2002150Y1481891D02*
Y1489391D01*
X2003150Y1481891D02*
Y1489391D01*
X2004150Y1481891D02*
Y1489391D01*
X2005150Y1481891D02*
Y1489391D01*
X2006150Y1481951D02*
Y1489331D01*
X2007150Y1482951D02*
Y1488331D01*
X2037943Y1487537D02*
Y1483744D01*
X2036089Y1481891*
X2024296*
X2022443Y1483744*
Y1487537*
X2024296Y1489391*
X2036089*
X2037943Y1487537*
X2024046Y1482142D02*
X2036340D01*
X2023046Y1483142D02*
X2037340D01*
X2022443Y1484142D02*
X2037943D01*
X2022443Y1485142D02*
X2037943D01*
X2022443Y1486142D02*
X2037943D01*
X2022443Y1487142D02*
X2037943D01*
X2023047Y1488142D02*
X2037339D01*
X2024047Y1489142D02*
X2036339D01*
X2023150Y1483038D02*
Y1488244D01*
X2024150Y1482038D02*
Y1489244D01*
X2025150Y1481891D02*
Y1489391D01*
X2026150Y1481891D02*
Y1489391D01*
X2027150Y1481891D02*
Y1489391D01*
X2028150Y1481891D02*
Y1489391D01*
X2029150Y1481891D02*
Y1489391D01*
X2030150Y1481891D02*
Y1489391D01*
X2031150Y1481891D02*
Y1489391D01*
X2032150Y1481891D02*
Y1489391D01*
X2033150Y1481891D02*
Y1489391D01*
X2034150Y1481891D02*
Y1489391D01*
X2035150Y1481891D02*
Y1489391D01*
X2036150Y1481951D02*
Y1489331D01*
X2037150Y1482951D02*
Y1488331D01*
X1930068Y1545842D02*
X1925275D01*
X1922921Y1548195*
Y1558988*
X1925275Y1561342*
X1930068*
X1932421Y1558988*
Y1548195*
X1930068Y1545842*
X1924975Y1546142D02*
X1930368D01*
X1923975Y1547142D02*
X1931368D01*
X1922975Y1548142D02*
X1932368D01*
X1922921Y1549142D02*
X1932421D01*
X1922921Y1550142D02*
X1932421D01*
X1922921Y1551142D02*
X1932421D01*
X1922921Y1552142D02*
X1932421D01*
X1922921Y1553142D02*
X1932421D01*
X1922921Y1554142D02*
X1932421D01*
X1922921Y1555142D02*
X1932421D01*
X1922921Y1556142D02*
X1932421D01*
X1922921Y1557142D02*
X1932421D01*
X1922921Y1558142D02*
X1932421D01*
X1923075Y1559142D02*
X1932268D01*
X1924075Y1560142D02*
X1931268D01*
X1925075Y1561142D02*
X1930268D01*
X1923150Y1547967D02*
Y1559216D01*
X1924150Y1546967D02*
Y1560216D01*
X1925150Y1545967D02*
Y1561216D01*
X1926150Y1545842D02*
Y1561342D01*
X1927150Y1545842D02*
Y1561342D01*
X1928150Y1545842D02*
Y1561342D01*
X1929150Y1545842D02*
Y1561342D01*
X1930150Y1545923D02*
Y1561260D01*
X1931150Y1546923D02*
Y1560260D01*
X1932150Y1547923D02*
Y1559260D01*
X1976068Y1545842D02*
X1971275D01*
X1968921Y1548195*
Y1558988*
X1971275Y1561342*
X1976068*
X1978421Y1558988*
Y1548195*
X1976068Y1545842*
X1970975Y1546142D02*
X1976368D01*
X1969975Y1547142D02*
X1977368D01*
X1968975Y1548142D02*
X1978368D01*
X1968921Y1549142D02*
X1978421D01*
X1968921Y1550142D02*
X1978421D01*
X1968921Y1551142D02*
X1978421D01*
X1968921Y1552142D02*
X1978421D01*
X1968921Y1553142D02*
X1978421D01*
X1968921Y1554142D02*
X1978421D01*
X1968921Y1555142D02*
X1978421D01*
X1968921Y1556142D02*
X1978421D01*
X1968921Y1557142D02*
X1978421D01*
X1968921Y1558142D02*
X1978421D01*
X1969075Y1559142D02*
X1978268D01*
X1970075Y1560142D02*
X1977268D01*
X1971075Y1561142D02*
X1976268D01*
X1969150Y1547967D02*
Y1559216D01*
X1970150Y1546967D02*
Y1560216D01*
X1971150Y1545967D02*
Y1561216D01*
X1972150Y1545842D02*
Y1561342D01*
X1973150Y1545842D02*
Y1561342D01*
X1974150Y1545842D02*
Y1561342D01*
X1975150Y1545842D02*
Y1561342D01*
X1976150Y1545924D02*
Y1561260D01*
X1977150Y1546924D02*
Y1560260D01*
X1978150Y1547924D02*
Y1559260D01*
X1951045Y1583848D02*
X1947252D01*
X1945399Y1585702*
Y1597495*
X1947252Y1599348*
X1951045*
X1952899Y1597495*
Y1585702*
X1951045Y1583848*
X1946959Y1584142D02*
X1951339D01*
X1945959Y1585142D02*
X1952339D01*
X1945399Y1586142D02*
X1952899D01*
X1945399Y1587142D02*
X1952899D01*
X1945399Y1588142D02*
X1952899D01*
X1945399Y1589142D02*
X1952899D01*
X1945399Y1590142D02*
X1952899D01*
X1945399Y1591142D02*
X1952899D01*
X1945399Y1592142D02*
X1952899D01*
X1945399Y1593142D02*
X1952899D01*
X1945399Y1594142D02*
X1952899D01*
X1945399Y1595142D02*
X1952899D01*
X1945399Y1596142D02*
X1952899D01*
X1945399Y1597142D02*
X1952899D01*
X1946046Y1598142D02*
X1952252D01*
X1947046Y1599142D02*
X1951252D01*
X1946150Y1584951D02*
Y1598246D01*
X1947150Y1583951D02*
Y1599246D01*
X1948150Y1583848D02*
Y1599348D01*
X1949150Y1583848D02*
Y1599348D01*
X1950150Y1583848D02*
Y1599348D01*
X1951150Y1583953D02*
Y1599244D01*
X1952150Y1584953D02*
Y1598244D01*
X1827580Y1921722D02*
X1829341D01*
X1830179Y1920885*
Y1914399*
X1829341Y1913561*
X1827580*
X1826742Y1914399*
Y1920885*
X1827580Y1921722*
X1826999Y1914142D02*
X1829922D01*
X1826742Y1915142D02*
X1830179D01*
X1826742Y1916142D02*
X1830179D01*
X1826742Y1917142D02*
X1830179D01*
X1826742Y1918142D02*
X1830179D01*
X1826742Y1919142D02*
X1830179D01*
X1826742Y1920142D02*
X1830179D01*
X1826999Y1921142D02*
X1829922D01*
X1827150Y1913991D02*
Y1921292D01*
X1828150Y1913561D02*
Y1921722D01*
X1829150Y1913561D02*
Y1921722D01*
X1830150Y1914369D02*
Y1920914D01*
X1815769Y1921722D02*
X1817530D01*
X1818368Y1920885*
Y1914399*
X1817530Y1913561*
X1815769*
X1814931Y1914399*
Y1920885*
X1815769Y1921722*
X1815188Y1914142D02*
X1818111D01*
X1814931Y1915142D02*
X1818368D01*
X1814931Y1916142D02*
X1818368D01*
X1814931Y1917142D02*
X1818368D01*
X1814931Y1918142D02*
X1818368D01*
X1814931Y1919142D02*
X1818368D01*
X1814931Y1920142D02*
X1818368D01*
X1815188Y1921142D02*
X1818111D01*
X1815150Y1914180D02*
Y1921103D01*
X1816150Y1913561D02*
Y1921722D01*
X1817150Y1913561D02*
Y1921722D01*
X1818150Y1914180D02*
Y1921103D01*
G54D16*
X1807087Y1983858D02*
G75*
G03X1803150Y1979921I-0J-3937D01*
G01X1807087Y1983858D02*
X2192913D01*
X2196850Y1979921D02*
G03X2192913Y1983858I-3937J0D01*
G01X2196850Y1979921D02*
Y1220079D01*
X2192913Y1216142D02*
G03X2196850Y1220079I0J3937D01*
G01X2192913Y1216142D02*
X1807087D01*
X1803150Y1220079D02*
G03X1807087Y1216142I3937J-0D01*
G01X1803150Y1220079D02*
Y1979921D01*
X1877879Y1874123D02*
G03X1877879I-3416J0D01*
G01X1933069Y1874098D02*
G03X1933069I-3517J0D01*
G54D20*
G01X1980150Y1886392D03*
Y1892892D03*
X2007150Y1886392D03*
Y1892892D03*
X1991900Y1832142D03*
X1998400D03*
X2048150Y1933892D03*
Y1927392D03*
X2054150Y1933892D03*
Y1927392D03*
X2060650Y1876392D03*
Y1869892D03*
X1998400Y1840142D03*
X1991900D03*
X1998400Y1846142D03*
X1991900D03*
X1998400Y1852142D03*
X1991900D03*
X1998400Y1858142D03*
X1991900D03*
X1998400Y1864142D03*
X1991900D03*
X1998400Y1870142D03*
X1991900D03*
X1992150Y1892892D03*
Y1886392D03*
X1977150Y1747392D03*
Y1740892D03*
X1858650Y1829892D03*
Y1836392D03*
X1864650Y1829892D03*
Y1836392D03*
X1853150Y1737892D03*
Y1731392D03*
X1891650Y1836392D03*
Y1829892D03*
X1983150Y1767892D03*
Y1761392D03*
X2104650Y1775892D03*
Y1782392D03*
X2129900Y1788642D03*
X2136400D03*
X2177900Y1703142D03*
X2184400D03*
X2104650Y1763392D03*
Y1769892D03*
X2098650D03*
Y1763392D03*
X2133150Y1948392D03*
Y1941892D03*
X2140150D03*
Y1948392D03*
X2121150Y1941892D03*
Y1948392D03*
X2115150D03*
Y1941892D03*
X2013150Y1886392D03*
Y1892892D03*
X2099400Y1448642D03*
X2105900D03*
X2009650Y1450392D03*
Y1456892D03*
X2080150Y1627392D03*
Y1620892D03*
X1916150Y1551892D03*
Y1545392D03*
X1910150Y1551892D03*
Y1545392D03*
X2063400Y1448642D03*
X2056900D03*
X2076150Y1468892D03*
Y1475392D03*
X2125150Y1377892D03*
Y1371392D03*
X2119150Y1377892D03*
Y1371392D03*
X2035400Y1448642D03*
X2028900D03*
X2077900Y1378142D03*
X2084400D03*
X2081900Y1448642D03*
X2075400D03*
X2036150Y1378392D03*
Y1371892D03*
X1998900Y1341642D03*
X1992400D03*
X2098150Y1356892D03*
Y1363392D03*
Y1349392D03*
Y1342892D03*
X2178650Y1311392D03*
Y1304892D03*
X2007150Y1371392D03*
Y1377892D03*
X2184650Y1311392D03*
Y1304892D03*
X2179150Y1375392D03*
Y1368892D03*
X2186150D03*
Y1375392D03*
X2126150Y1470892D03*
Y1464392D03*
X2180150Y1467192D03*
Y1473692D03*
X2173150Y1467192D03*
Y1473692D03*
X2073900Y1488142D03*
X2080400D03*
X2073900Y1482142D03*
X2080400D03*
X2133150Y1861892D03*
Y1855392D03*
X2129650Y1796892D03*
Y1803392D03*
X2118650Y1842892D03*
Y1836392D03*
X2106650Y1819892D03*
Y1826392D03*
X2098650Y1377892D03*
Y1371392D03*
X2043650Y1886392D03*
Y1892892D03*
X2037150Y1886392D03*
Y1892892D03*
X2159400Y1758142D03*
X2152900D03*
X2159400Y1744642D03*
X2152900D03*
X2111400Y1884142D03*
X2117900D03*
X2111400Y1890142D03*
X2117900D03*
X2126900Y1735142D03*
X2133400D03*
X2159400Y1738642D03*
X2152900D03*
X2120150Y1470892D03*
Y1464392D03*
Y1450392D03*
Y1456892D03*
X2100650Y1861892D03*
Y1855392D03*
X2159400Y1780142D03*
X2152900D03*
X2030150Y1371892D03*
Y1378392D03*
X2028900Y1454642D03*
X2035400D03*
X2084400Y1371142D03*
X2077900D03*
X2075400Y1454642D03*
X2081900D03*
X2092650Y1371392D03*
Y1377892D03*
X2140900Y1670142D03*
X2134400D03*
X2068900Y1847142D03*
X2075400D03*
X2068900Y1841142D03*
X2075400D03*
X2184650Y1325392D03*
Y1318892D03*
X2109650Y1468892D03*
Y1475392D03*
X2082150D03*
Y1468892D03*
X2068900Y1823142D03*
X2075400D03*
X2068900Y1817142D03*
X2075400D03*
X2068900Y1811142D03*
X2075400D03*
X1998400Y1825642D03*
X1991900D03*
X2075400Y1853142D03*
X2068900D03*
X2075400Y1859142D03*
X2068900D03*
X2075400Y1865142D03*
X2068900D03*
X2075400Y1871142D03*
X2068900D03*
Y1835142D03*
X2075400D03*
X2068900Y1829142D03*
X2075400D03*
X2106650Y1842892D03*
Y1836392D03*
X2101150Y1509392D03*
Y1502892D03*
X2172650Y1304892D03*
Y1311392D03*
X2152900Y1764142D03*
X2159400D03*
X1867400Y1695642D03*
X1860900D03*
X2130400Y1884142D03*
X2136900D03*
X2130400Y1890142D03*
X2136900D03*
X2152900Y1770142D03*
X2159400D03*
X1867400Y1689642D03*
X1860900D03*
X2143900Y1508142D03*
X2150400D03*
X2121400Y1601142D03*
X2114900D03*
X2121400Y1612642D03*
X2114900D03*
X2143900Y1500142D03*
X2150400D03*
X2135899Y1648142D03*
X2142399D03*
X2019150Y1892892D03*
Y1886392D03*
X2008650Y1860892D03*
Y1867392D03*
X1860400Y1588142D03*
X1853900D03*
X1860399Y1609142D03*
X1853899D03*
X1969650Y1648392D03*
Y1641892D03*
X2026400Y1802142D03*
X2019900D03*
X2032900D03*
X2039400D03*
X2056900Y1454642D03*
X2063400D03*
X2088150Y1475392D03*
Y1468892D03*
X2070150Y1349392D03*
Y1342892D03*
X2131650Y1349392D03*
Y1342892D03*
X2026400Y1808142D03*
X2032900D03*
X2112650Y1836392D03*
Y1842892D03*
X2118650Y1826392D03*
Y1819892D03*
X2126150Y1456892D03*
Y1450392D03*
X2154900Y1347142D03*
X2148400D03*
X2076150Y1356892D03*
Y1363392D03*
X2160650Y1318892D03*
Y1325392D03*
X2080400Y1494142D03*
X2073900D03*
X2091150Y1884892D03*
Y1891392D03*
X2097150Y1884892D03*
Y1891392D03*
X2079150Y1884892D03*
Y1891392D03*
X2085150Y1884892D03*
Y1891392D03*
X2070150Y1475392D03*
Y1468892D03*
X2076150Y1342892D03*
Y1349392D03*
X2138150Y1342892D03*
Y1349392D03*
X2178650Y1318892D03*
Y1325392D03*
X2166650Y1318892D03*
Y1325392D03*
X2172650D03*
Y1318892D03*
X1897650Y1836392D03*
Y1829892D03*
X1915650Y1836392D03*
Y1829892D03*
X1876650Y1836392D03*
Y1829892D03*
X1909650Y1836392D03*
Y1829892D03*
X1853900Y1594142D03*
X1860400D03*
X1853900Y1600142D03*
X1860400D03*
X1995150Y1371392D03*
Y1377892D03*
X2100650Y1842892D03*
Y1836392D03*
X2112650Y1819892D03*
Y1826392D03*
X2121150Y1855392D03*
Y1861892D03*
X2127150Y1855392D03*
Y1861892D03*
X2136150Y1803392D03*
Y1796892D03*
X2142150Y1803392D03*
Y1796892D03*
X2025150Y1892892D03*
Y1886392D03*
X2031150Y1892892D03*
Y1886392D03*
X2128650Y1640892D03*
Y1647392D03*
X2071650Y1377892D03*
Y1371392D03*
X2145150Y1318892D03*
Y1325392D03*
X2001150Y1377892D03*
Y1371392D03*
X2065650Y1377792D03*
Y1371292D03*
X2151650Y1325392D03*
Y1318892D03*
X2070150Y1363392D03*
Y1356892D03*
X2001150Y1892892D03*
Y1886392D03*
X1986150Y1892892D03*
Y1886392D03*
X2000150Y1715392D03*
Y1708892D03*
X2104650Y1747892D03*
Y1754392D03*
X2124400Y1702642D03*
X2130900D03*
X2124400Y1708642D03*
X2130900D03*
X2119400Y1670142D03*
X2125900D03*
X2098650Y1747892D03*
Y1754392D03*
X2086150Y1627392D03*
Y1620892D03*
X2047150Y1761392D03*
Y1767892D03*
X1909400Y1558142D03*
X1915900D03*
X2092150Y1627392D03*
Y1620892D03*
X1968650Y1616892D03*
Y1610392D03*
X2036400Y1623642D03*
X2042900D03*
X2021150Y1623392D03*
Y1616892D03*
X2003150D03*
Y1623392D03*
X2041150Y1761392D03*
Y1767892D03*
X1994150Y1715392D03*
Y1708892D03*
X2036400Y1617642D03*
X2042900D03*
X2119400Y1664142D03*
X2125900D03*
X2092650Y1747892D03*
Y1754392D03*
X2124400Y1714642D03*
X2130900D03*
X1988150Y1715392D03*
Y1708892D03*
X1902400Y1552142D03*
X1895900D03*
X1965150Y1747392D03*
Y1740892D03*
X1989650D03*
Y1747392D03*
X2054150Y1948392D03*
Y1941892D03*
X2013150Y1371392D03*
Y1377892D03*
X2105900Y1454642D03*
X2099400D03*
X2009400Y1464142D03*
X2015900D03*
X2048150Y1948392D03*
Y1941892D03*
X1963650Y1648392D03*
Y1641892D03*
X1974650Y1610392D03*
Y1616892D03*
X2027150Y1623392D03*
Y1616892D03*
X2015150Y1623392D03*
Y1616892D03*
X1997150D03*
Y1623392D03*
X1968900Y1678142D03*
X1962400D03*
X1949900D03*
X1956400D03*
X2059650Y1377792D03*
Y1371292D03*
X2140900Y1664142D03*
X2134400D03*
X2159900Y1711642D03*
X2153400D03*
X2124400Y1690642D03*
X2130900D03*
X2124400Y1696642D03*
X2130900D03*
X2184400Y1697142D03*
X2177900D03*
X2184400Y1691142D03*
X2177900D03*
X2184400Y1685142D03*
X2177900D03*
X2099900Y1611642D03*
X2093400D03*
X2099900Y1605642D03*
X2093400D03*
X2099900Y1599642D03*
X2093400D03*
X2036400D03*
X2042900D03*
X2036400Y1605642D03*
X2042900D03*
X2036400Y1611642D03*
X2042900D03*
X2009650Y1740892D03*
Y1734392D03*
X1989650Y1767892D03*
Y1761392D03*
X1985900Y1791642D03*
X1979400D03*
X1983150Y1740892D03*
Y1747392D03*
X1872400Y1738142D03*
X1878900D03*
X1996400Y1726142D03*
X2002900D03*
X1853150Y1750892D03*
Y1744392D03*
X1882650Y1836392D03*
Y1829892D03*
X1962400Y1684642D03*
X1968900D03*
X1983400Y1811142D03*
X1989900D03*
X2009150Y1616892D03*
Y1623392D03*
X2005900Y1701642D03*
X1999400D03*
X2007150Y1667892D03*
Y1674392D03*
X2005900Y1691642D03*
X1999400D03*
X2007150Y1660392D03*
Y1653892D03*
X2015650Y1450392D03*
Y1456892D03*
X1895900Y1558142D03*
X1902400D03*
X1859150Y1750892D03*
Y1744392D03*
X1921650Y1836392D03*
Y1829892D03*
X1903650Y1836392D03*
Y1829892D03*
X1870650Y1836392D03*
Y1829892D03*
X2000400Y1464142D03*
X1993900D03*
X1902650Y1545392D03*
Y1538892D03*
X1971150Y1740892D03*
Y1747392D03*
X1859150Y1731392D03*
Y1737892D03*
X1859900Y1724142D03*
X1853400D03*
X2171150Y1375392D03*
Y1368892D03*
X2131150Y1371392D03*
Y1377892D03*
G54D24*
G54D26*
X2055900Y1317142D03*
X2042400D03*
X2055650Y1343892D03*
Y1330392D03*
X2042150Y1343892D03*
Y1330392D03*
X2009400Y1342642D03*
X2022900D03*
X2139150Y1624392D03*
Y1637892D03*
X2063198Y1944134D03*
Y1930634D03*
X2049642Y1873594D03*
X2036142D03*
X1982102Y1842150D03*
Y1855650D03*
X2163658Y1294190D03*
X2177158D03*
X2135103Y1294158D03*
Y1308158D03*
X2148666Y1308688D03*
X2162666D03*
X2168380Y1267021D03*
Y1281021D03*
X2135175Y1333142D03*
Y1319142D03*
X2161198Y1372634D03*
Y1359134D03*
X2109624Y1361141D03*
Y1375141D03*
G54D27*
X1956268Y1781323D03*
X2073150Y1310142D03*
X2093150D03*
X2103150D03*
X2113150D03*
Y1330142D03*
X2103150D03*
X2093150D03*
X2073150D03*
G54D130*
X1902650Y1582937D03*
G54D131*
X1963576Y1297160D03*
X1894679D03*
X1825781D03*
X1835623Y1509758D03*
X1855308D03*
X1874994D03*
X1894679D03*
X1914364D03*
X1934049D03*
G54D132*
X1858268Y1239764D03*
X1877953D03*
X1897638D03*
G54D133*
X1857843Y1781323D03*
G54D134*
X1860599Y1764197D03*
X1862173Y1800024D03*
X1863748Y1764197D03*
X1865323Y1800024D03*
X1866898Y1764197D03*
X1868473Y1800024D03*
X1870047Y1764197D03*
X1871622Y1800024D03*
X1873197Y1764197D03*
X1874772Y1800024D03*
X1876347Y1764197D03*
X1877922Y1800024D03*
X1879496Y1764197D03*
X1881071Y1800024D03*
X1882646Y1764197D03*
X1884221Y1800024D03*
X1898394Y1764197D03*
X1899969Y1800024D03*
X1901544Y1764197D03*
X1903118Y1800024D03*
X1904693Y1764197D03*
X1906268Y1800024D03*
X1907843Y1764197D03*
X1909418Y1800024D03*
X1910992Y1764197D03*
X1912567Y1800024D03*
X1914142Y1764197D03*
X1915717Y1800024D03*
X1917292Y1764197D03*
X1918866Y1800024D03*
X1920441Y1764197D03*
X1922016Y1800024D03*
X1923591Y1764197D03*
X1925166Y1800024D03*
X1926740Y1764197D03*
X1928315Y1800024D03*
X1929890Y1764197D03*
X1931465Y1800024D03*
X1933040Y1764197D03*
X1934614Y1800024D03*
X1936189Y1764197D03*
X1937764Y1800024D03*
X1939339Y1764197D03*
X1940914Y1800024D03*
X1942488Y1764197D03*
X1944063Y1800024D03*
X1945638Y1764197D03*
X1947213Y1800024D03*
X1948788Y1764197D03*
X1950362Y1800024D03*
X1951937Y1764197D03*
X1953512Y1800024D03*
G54D135*
X1954772Y1970890D03*
X1859355D03*
G54D136*
X1961599Y1763697D03*
G54D137*
X1849599D03*
X1963150Y1696642D03*
G54D138*
X1894145Y1745627D03*
X1877654Y1535657D03*
G54D139*
X1894245Y1738927D03*
X1894345Y1732227D03*
Y1725527D03*
X1894145Y1718827D03*
X1877554Y1542357D03*
X1877454Y1549057D03*
Y1555757D03*
X1877654Y1562457D03*
G54D140*
X1946113Y1733028D03*
X1825686Y1548255D03*
G54D141*
X1816028Y1654299D03*
Y1729102D03*
G54D142*
X1839650Y1719260D03*
Y1711386D03*
Y1695638D03*
Y1687764D03*
Y1679890D03*
Y1672016D03*
G54D143*
Y1703512D03*
Y1664142D03*
G54D144*
X2040425Y1855842D03*
G54D145*
X2038456D03*
X2036488D03*
X2034519D03*
X2032551D03*
X2030582D03*
X2028614D03*
X2026645D03*
X2024677D03*
X2022708D03*
X2020740D03*
X2018771D03*
Y1818440D03*
X2020740D03*
X2022708D03*
X2024677D03*
X2026645D03*
X2028614D03*
X2030582D03*
X2032551D03*
X2034519D03*
X2036488D03*
X2038456D03*
X2040425D03*
G54D146*
X2010897Y1847968D03*
Y1845999D03*
Y1844031D03*
Y1842062D03*
Y1840094D03*
Y1838125D03*
Y1836157D03*
Y1834188D03*
Y1832220D03*
Y1830251D03*
Y1828283D03*
Y1826314D03*
X2048299D03*
Y1828283D03*
Y1830251D03*
Y1832220D03*
Y1834188D03*
Y1836157D03*
Y1838125D03*
Y1840094D03*
Y1842062D03*
Y1844031D03*
Y1845999D03*
Y1847968D03*
G54D147*
X2104650Y1584642D03*
G54D148*
X2114650D03*
X2124650D03*
X2134650D03*
X2144650D03*
X2124650Y1524642D03*
X2114650D03*
X2104650D03*
G54D149*
X1990625Y1608166D03*
X2145125Y1702166D03*
X2166125Y1349166D03*
X2140625Y1473666D03*
X2081150Y1597142D03*
G54D150*
X1990625Y1603166D03*
Y1598166D03*
Y1593142D03*
X2010650D03*
Y1598166D03*
Y1603166D03*
Y1608166D03*
X2145125Y1697166D03*
Y1692166D03*
Y1687142D03*
X2165150D03*
Y1692166D03*
Y1697166D03*
Y1702166D03*
X2166125Y1344166D03*
Y1339166D03*
Y1334166D03*
X2186125D03*
Y1339166D03*
Y1344166D03*
Y1349166D03*
X2140625Y1468666D03*
Y1463666D03*
Y1458666D03*
X2160625D03*
Y1463666D03*
Y1468666D03*
Y1473666D03*
X2081150Y1602142D03*
Y1607142D03*
Y1612142D03*
X2055650D03*
Y1607142D03*
Y1602142D03*
Y1597142D03*
G54D151*
X2139641Y1601176D03*
X2130641D03*
X2139641Y1612676D03*
X2130641D03*
X1990141Y1801676D03*
X1981141D03*
X2021141Y1357176D03*
X2012141D03*
G54D152*
X2128458Y1366142D03*
X2120850D03*
X2144150Y1298950D03*
Y1291342D03*
X2090458Y1365142D03*
X2082850D03*
X2114458Y1862642D03*
X2106850D03*
X2151842Y1788142D03*
X2159450D03*
X2095342Y1468142D03*
X2102950D03*
X1995842Y1733142D03*
X2003450D03*
X1866842Y1744142D03*
X1874450D03*
X1986458Y1784142D03*
X1978850D03*
X1944958Y1699642D03*
X1937350D03*
X2123458Y1349642D03*
X2115850D03*
X2082842Y1342142D03*
X2090450D03*
X1956458Y1671642D03*
X1948850D03*
X2128458Y1634642D03*
X2120850D03*
X1999958Y1361142D03*
X1992350D03*
X2001458Y1457642D03*
X1993850D03*
X2063958Y1476142D03*
X2056350D03*
X1971150Y1731950D03*
Y1724342D03*
G54D153*
X2124650Y1358142D03*
X2086650Y1357142D03*
X2110650Y1854642D03*
X2155650Y1796142D03*
X2099150Y1476142D03*
X1999650Y1741142D03*
X1870650Y1752142D03*
X1982650Y1776142D03*
X2055650Y1354220D03*
X1941150Y1691642D03*
X2119650Y1341642D03*
X2086650Y1350142D03*
X1952650Y1663642D03*
X2124650Y1626642D03*
X1996150Y1353142D03*
X1997650Y1449642D03*
X2060150Y1468142D03*
G54D154*
X2171150Y1635602D03*
X2171465Y1605681D03*
X1933386Y1266110D03*
X1962913Y1262173D03*
G54D155*
X2152150Y1295142D03*
X1979150Y1728142D03*
G54D156*
X2074650Y1905142D03*
G54D157*
X2077209D03*
X2079768D03*
X2082327D03*
X2084886D03*
X2087445D03*
X2090004D03*
X2092563D03*
X2095122D03*
X2097681D03*
Y1931126D03*
X2095122D03*
X2092563D03*
X2090004D03*
X2087445D03*
X2084886D03*
X2082327D03*
X2079768D03*
X2077209D03*
X2074650D03*
G54D158*
X2096150Y1968642D03*
X2106150D03*
X2116150D03*
X2126150D03*
X2136150D03*
X2146150D03*
X2044650D03*
X2054650D03*
X2064650D03*
X2074650D03*
G54D159*
X2180150Y1720142D03*
Y1730142D03*
Y1740142D03*
Y1750142D03*
Y1760142D03*
Y1770142D03*
G54D160*
X1822374Y1623921D03*
Y1614079D03*
Y1606205D03*
Y1596362D03*
X2051150Y1288484D03*
Y1268799D03*
X2103150Y1288484D03*
Y1268799D03*
G54D161*
X1812925Y1636008D03*
Y1584276D03*
G54D162*
X2005356Y1762106D03*
X1993356Y1531106D03*
X1974944Y1591677D03*
G54D163*
X2181650Y1279441D03*
Y1266843D03*
G54D164*
X1989150Y1645142D03*
Y1679142D03*
G54D165*
X2059450Y1364063D03*
X2051850D03*
G54D166*
X2153150Y1852283D03*
Y1870000D03*
G54D167*
X2112291Y1504142D03*
X2130008D03*
G54D168*
X2163141Y1504167D03*
X2177141D03*
X2154158Y1280117D03*
X2140158D03*
X2154158Y1264117D03*
X2140158D03*
G54D169*
X2152675Y1898650D03*
Y1884650D03*
G54D170*
X2151150Y1393142D03*
X2161150D03*
X2171150D03*
X2181150D03*
Y1440386D03*
X2171150D03*
X2161150D03*
X2151150D03*
G54D171*
X1990150Y1323142D03*
X2020150D03*
X1990150Y1273142D03*
X2020150Y1263142D03*
G54D172*
X2031180Y1396581D03*
X2041180D03*
Y1432581D03*
X2031180D03*
X2079180Y1396581D03*
X2089180D03*
Y1432581D03*
X2079180D03*
X2065120Y1432702D03*
X2055120D03*
Y1396702D03*
X2065120D03*
X2103180Y1396581D03*
X2113180D03*
Y1432581D03*
X2103180D03*
X2009620Y1432702D03*
X1999620D03*
Y1396702D03*
X2009620D03*
G54D173*
X1952684Y1645150D03*
Y1654150D03*
X1966184Y1659150D03*
Y1668150D03*
G54D174*
X2140120Y1930161D03*
X2135120D03*
X2130120D03*
X2125120D03*
X2120120D03*
X2115120D03*
X2110120D03*
X2105120D03*
Y1908161D03*
X2110120D03*
X2115120D03*
X2120120D03*
X2125120D03*
X2130120D03*
X2135120D03*
X2140120D03*
G54D175*
X2121130Y1780112D03*
Y1775112D03*
Y1770112D03*
Y1765112D03*
Y1760112D03*
Y1755112D03*
Y1750112D03*
Y1745112D03*
X2143130D03*
Y1750112D03*
Y1755112D03*
Y1760112D03*
Y1765112D03*
Y1770112D03*
Y1775112D03*
Y1780112D03*
G54D176*
X2182128Y1672185D03*
Y1654685D03*
X2003172Y1578098D03*
G54D177*
X2150628Y1672185D03*
Y1654685D03*
X2034672Y1578098D03*
G54D178*
X2136150Y1435902D03*
X2131150D03*
X2126150D03*
Y1393382D03*
X2131150D03*
X2136150D03*
G54D179*
X1925906Y1239764D03*
G54D180*
X1945906D03*
X1965906D03*
X1985906D03*
G54D181*
X1840650Y1264142D03*
X1860650D03*
G54D182*
X2128125Y1820117D03*
G54D183*
X2133125D03*
X2138125D03*
X2143150D03*
Y1840142D03*
X2138125D03*
X2133125D03*
X2128125D03*
G54D184*
X1848400Y1623142D03*
X1839900D03*
X2051400Y1886142D03*
X2059900D03*
G54D185*
X1823685Y1793348D03*
X1823114Y1858936D03*
X2000114Y1511436D03*
X2030114D03*
G54D186*
X1824150Y1756406D03*
Y1776878D03*
G54D187*
X1942107Y1935783D03*
X1862107D03*
G54D188*
X1889599Y1851197D03*
G54D189*
X1899599D03*
X1909599D03*
X1894599D03*
X1904599D03*
X1914599D03*
X1884599D03*
G54D190*
X2025622Y1878092D03*
X2021881D03*
X2018141D03*
Y1869037D03*
X2021881D03*
X2025622D03*
G54D191*
X1837650Y1605142D03*
G54D192*
Y1598142D03*
X1846250D03*
Y1605642D03*
G54D193*
X2033623Y1929774D03*
X1972600D03*
G54D194*
X2020631Y1917175D03*
X2015631Y1907175D03*
X2010631Y1917175D03*
X2005631Y1907175D03*
X2000631Y1917175D03*
X1995631Y1907175D03*
X1990631Y1917175D03*
X1985631Y1907175D03*
X2028899Y1958120D03*
X2019056D03*
X1986773D03*
X1976930D03*
G54D195*
X1980631Y1941978D03*
X2025631D03*
G54D196*
X2001125Y1560172D03*
G54D197*
X2032621D03*
G54D198*
X2011150Y1789142D03*
X2045150D03*
G54D199*
X2177650Y1531642D03*
Y1869142D03*
Y1796642D03*
X2032650Y1236142D03*
G54D200*
X2177650Y1546642D03*
Y1561642D03*
Y1576642D03*
Y1884142D03*
Y1899142D03*
Y1914142D03*
Y1811642D03*
Y1826642D03*
Y1841642D03*
X2047650Y1236142D03*
X2062650D03*
X2077650D03*
X2092650D03*
X2107650D03*
X2122650D03*
X2137650D03*
G54D201*
X1992628Y1699127D03*
X1992728Y1693927D03*
G54D202*
X2150687Y1373148D03*
X2138898D03*
G54D203*
X2144703Y1362597D03*
G54D204*
X2144803Y1372097D03*
G54D205*
X1822555Y1911142D03*
G54D206*
X1822650Y1924142D03*
G54D207*
X1813117Y1896170D03*
X1832604D03*
X1832605Y1876682D03*
X1822861Y1886426D03*
X1813117Y1876682D03*
G54D208*
X1822785Y1236827D03*
Y1963757D03*
X2177336D03*
Y1236827D03*
G54D209*
X1902650Y1695142D03*
G54D210*
X2023614Y1722591D03*
Y1720622D03*
Y1718654D03*
Y1716685D03*
Y1714717D03*
Y1712748D03*
Y1710780D03*
Y1708811D03*
Y1706843D03*
Y1704874D03*
Y1702906D03*
Y1700937D03*
Y1698969D03*
Y1697000D03*
Y1695032D03*
Y1693063D03*
Y1691095D03*
Y1689126D03*
Y1687158D03*
Y1685189D03*
Y1683221D03*
Y1681252D03*
Y1679284D03*
Y1677315D03*
Y1675347D03*
Y1673378D03*
Y1671410D03*
Y1669441D03*
Y1667473D03*
Y1665504D03*
Y1663536D03*
Y1661567D03*
Y1659598D03*
Y1657630D03*
Y1655661D03*
Y1653693D03*
X2106685D03*
Y1655661D03*
Y1657630D03*
Y1659598D03*
Y1661567D03*
Y1663536D03*
Y1665504D03*
Y1667473D03*
Y1669441D03*
Y1671410D03*
Y1673378D03*
Y1675347D03*
Y1677315D03*
Y1679284D03*
Y1681252D03*
Y1683221D03*
Y1685189D03*
Y1687158D03*
Y1689126D03*
Y1691095D03*
Y1693063D03*
Y1695032D03*
Y1697000D03*
Y1698969D03*
Y1700937D03*
Y1702906D03*
Y1704874D03*
Y1706843D03*
Y1708811D03*
Y1710780D03*
Y1712748D03*
Y1714717D03*
Y1716685D03*
Y1718654D03*
Y1720622D03*
Y1722591D03*
G54D211*
X2030701Y1646606D03*
X2032669D03*
X2034638D03*
X2036606D03*
X2038575D03*
X2040543D03*
X2042512D03*
X2044480D03*
X2046449D03*
X2048417D03*
X2050386D03*
X2052354D03*
X2054323D03*
X2056291D03*
X2058260D03*
X2060228D03*
X2062197D03*
X2064165D03*
X2066134D03*
X2068102D03*
X2070071D03*
X2072039D03*
X2074008D03*
X2075976D03*
X2077945D03*
X2079913D03*
X2081882D03*
X2083850D03*
X2085819D03*
X2087787D03*
X2089756D03*
X2091724D03*
X2093693D03*
X2095661D03*
X2097630D03*
X2099598D03*
Y1729677D03*
X2097630D03*
X2095661D03*
X2093693D03*
X2091724D03*
X2089756D03*
X2087787D03*
X2085819D03*
X2083850D03*
X2081882D03*
X2079913D03*
X2077945D03*
X2075976D03*
X2074008D03*
X2072039D03*
X2070071D03*
X2068102D03*
X2066134D03*
X2064165D03*
X2062197D03*
X2060228D03*
X2058260D03*
X2056291D03*
X2054323D03*
X2052354D03*
X2050386D03*
X2048417D03*
X2046449D03*
X2044480D03*
X2042512D03*
X2040543D03*
X2038575D03*
X2036606D03*
X2034638D03*
X2032669D03*
X2030701D03*
G54D212*
X2190150Y1293142D03*
X2181150Y1936142D03*
X1815150D03*
G74*
X0Y0D02*
M02*
