%
T1C.008F0S0
X00783Y00102
X01005Y00096
X01044Y00411
X01095Y00513
X012Y00363
X012Y00315
X01225Y00095
X01248Y00294
X01281Y00315
X01368Y00222
X0171Y00309
X01755Y00466
X01755Y00368
X01806Y00418
X02004Y00318
X02022Y00418
X02022Y00618
X02019Y00567
X02016Y00717
X01989Y00567
X01812Y00705
X01695Y0066
X01428Y00633
X0135Y00633
X01299Y00792
X01272Y00789
X01242Y00789
X01185Y00759
X01014Y00594
X00999Y00567
X00981Y00594
X00921Y00746
X00837Y00576
X00507Y00642
X00327Y00618
X00324Y00669
X00447Y00945
X00465Y00963
X00483Y00996
X00501Y01011
X00546Y00885
X00567Y01032
X00663Y00942
X0067Y0081
X00786Y00828
X00882Y0096
X00885Y00984
X009Y01017
X00909Y00834
X00915Y00996
X00924Y01032
X00999Y00987
X00999Y0084
X00999Y01011
X01011Y00819
X01035Y00846
X01056Y00828
X02001Y009
X02013Y00819
X02022Y00885
X02025Y01068
X0201Y01218
X02007Y01281
X01728Y01122
X01644Y01189
X01524Y01266
X01443Y01077
X01362Y01176
X01323Y01251
X01296Y01077
X0121Y01267
X01137Y01176
X01113Y01068
X01089Y01137
X01002Y0123
X00957Y01095
X00906Y01263
X00906Y01287
X0084Y01281
X00837Y01257
X00828Y01206
X00816Y01143
X00798Y01167
X00789Y01191
X00771Y0117
X00725Y0105
X00687Y01266
X00687Y01191
X00333Y01146
X00333Y01191
X00324Y01275
X00312Y01168
X00306Y01242
X00294Y01218
X00153Y01236
X00132Y01368
X00132Y01419
X00135Y01467
X00166Y01468
X00167Y01418
X00306Y01539
X00324Y01524
X0033Y01464
X00354Y01455
X00363Y01533
X00375Y0144
X00384Y01509
X0039Y01536
X00399Y01446
X00597Y01425
X00597Y01521
X00597Y01491
X00627Y01458
X00627Y01521
X00627Y01491
X0063Y01425
X0066Y01488
X0066Y01458
X0066Y01425
X0066Y01524
X0069Y01428
X0069Y01395
X0069Y01458
X0069Y01521
X0069Y01491
X00723Y01425
X00723Y01458
X00723Y01491
X00723Y01521
X00753Y01458
X00756Y01425
X00756Y01491
X00756Y01524
X00786Y01428
X00786Y01395
X00786Y01524
X00786Y01458
X00786Y01491
X00816Y01488
X00816Y01395
X00816Y01425
X00816Y01458
X00816Y01521
X00849Y01488
X00849Y01521
X00879Y01365
X00879Y01428
X00879Y01524
X00879Y01395
X00882Y01491
X00882Y01458
X009Y01308
X00912Y01458
X00912Y01395
X00912Y01428
X00912Y01365
X00912Y01491
X00912Y01521
X00942Y01458
X00942Y01395
X00942Y01488
X00942Y01521
X00972Y01458
X00972Y01491
X00975Y01428
X00975Y01521
X00978Y01296
X01002Y01336
X01005Y01365
X01005Y01491
X01005Y01395
X01005Y01428
X01005Y01521
X01032Y01329
X01035Y01428
X01038Y01521
X01038Y01491
X01068Y01311
X01068Y01491
X0108Y01428
X01086Y01473
X01089Y01368
X01107Y01347
X01131Y01347
X01167Y01539
X01236Y01302
X01239Y01392
X013Y01306
X01389Y01479
X01425Y01404
X01425Y01488
X01431Y01467
X01449Y01395
X01467Y01437
X01506Y0147
X01611Y01404
X0165Y01401
X01689Y01398
X0171Y01521
X01749Y01524
X01821Y01389
X01848Y01389
X02022Y01419
X02019Y01632
X02019Y01656
X01671Y0177
X01671Y01575
X01662Y0162
X0165Y01581
X01632Y0162
X01629Y01749
X01581Y0174
X01554Y01779
X0153Y01764
X01512Y01608
X01422Y01767
X01389Y01614
X01365Y01614
X01353Y01572
X01335Y0159
X01233Y01722
X01218Y01572
X01197Y01635
X01173Y0162
X01143Y0165
X0114Y01728
X01134Y01704
X01101Y01701
X01101Y01737
X01101Y0159
X01077Y01584
X01005Y01584
X01005Y01773
X01005Y0171
X01005Y01647
X01005Y01554
X01005Y01677
X01005Y0174
X00975Y01554
X00975Y01647
X00975Y01617
X00975Y0171
X00972Y01584
X00972Y01677
X00972Y01773
X00945Y01584
X00945Y01554
X00942Y01773
X00942Y01647
X00942Y0171
X00942Y01677
X00942Y01614
X00912Y01554
X00912Y0171
X00912Y01647
X00912Y01584
X00912Y0174
X00912Y01773
X00909Y0168
X00909Y01617
X00882Y01614
X00882Y01773
X00879Y01647
X00879Y01584
X00879Y01554
X00879Y0174
X00879Y0168
X00849Y01584
X00849Y01614
X00849Y0174
X00849Y01773
X00849Y01554
X00846Y0168
X00846Y01647
X00846Y0171
X00816Y01554
X00816Y01617
X00816Y01647
X00816Y0171
X00816Y0177
X00816Y0168
X00816Y0174
X00816Y01584
X00786Y01614
X00786Y01584
X00786Y01647
X00786Y01677
X00786Y0171
X00786Y01554
X00783Y0174
X00756Y01614
X00756Y01584
X00753Y0174
X00753Y01554
X00753Y01647
X00753Y0171
X00753Y01773
X00723Y01554
X00723Y01584
X00723Y01707
X00723Y01677
X00723Y01773
X00723Y01743
X00723Y01617
X00723Y01647
X00693Y01677
X00693Y0171
X0069Y01743
X0069Y01773
X0069Y01554
X0069Y01584
X0069Y01647
X0069Y01614
X0066Y0171
X0066Y01647
X0066Y01554
X0066Y01584
X0066Y01617
X00657Y0174
X00657Y01677
X0063Y01554
X00627Y0174
X00627Y01584
X00627Y01677
X00627Y01617
X00627Y01647
X00627Y01773
X00597Y01647
X00597Y01617
X00597Y01554
X00597Y01677
X00597Y0171
X00597Y0174
X00597Y01584
X00567Y01743
X00567Y01647
X00567Y01677
X00564Y01773
X00564Y0171
X00516Y01632
X00453Y01758
X00441Y01794
X00438Y01557
X00438Y01704
X0042Y01605
X00378Y01611
X00312Y01584
X00168Y01668
X00162Y01569
X00162Y01719
X00159Y01764
X00159Y01617
X00141Y01668
X00138Y01719
X00138Y01566
X00132Y01868
X00132Y01968
X00132Y01893
X00135Y01818
X00162Y02019
X00162Y01917
X00165Y01818
X00165Y01869
X00168Y01968
X00339Y01974
X00339Y01941
X00348Y01821
X00348Y01854
X00375Y01809
X0039Y01866
X00426Y01854
X00459Y01986
X00489Y0195
X00489Y01893
X00492Y01851
X00507Y01932
X0051Y01866
X0051Y01902
X00552Y01935
X00552Y01905
X00561Y01974
X00597Y01803
X00597Y01917
X00615Y01905
X00627Y01806
X00716Y01974
X0072Y01833
X00723Y01995
X00753Y01806
X00759Y0198
X00768Y01953
X00786Y01806
X00801Y01986
X00804Y01962
X00816Y01803
X0084Y01989
X008482Y01836
X00849Y01803
X00879Y01803
X00912Y01803
X00915Y01935
X00942Y01803
X00942Y01884
X00951Y01935
X00972Y01833
X01005Y01803
X01005Y01836
X0102Y01875
X01035Y01893
X01053Y01875
X01056Y01902
X01068Y01821
X01086Y01869
X01116Y01869
X01116Y02004
X01167Y01884
X01167Y01851
X01191Y01845
X012Y01809
X01272Y01839
X01281Y01872
X01401Y01923
X0144Y01887
X01452Y01914
X0159Y01821
X01644Y01836
X01662Y01887
X01674Y01833
X02016Y01959
X02022Y01938
X02019Y02217
X01849Y02068
X01791Y02085
X01773Y02232
X01746Y02286
X0168Y02286
X01581Y02193
X01515Y02181
X01479Y02079
X01437Y02058
X01419Y02193
X01414Y02166
X0141Y0213
X0126Y02244
X01226Y02182
X01218Y02244
X00954Y02226
X00936Y02202
X00933Y0213
X00921Y02148
X00918Y02184
X0087Y02268
X00852Y02226
X00753Y02271
X00708Y02235
X00693Y02271
X00681Y0225
X00609Y02283
X00561Y02193
X00537Y02175
X00534Y02241
X00162Y02217
X00135Y02218
X00132Y02319
X00133Y02368
X00135Y02469
X00135Y02502
X00165Y02517
X00165Y02469
X00168Y02367
X003Y02313
X00399Y02348
X00501Y02391
X00501Y02457
X00501Y02427
X0051Y02505
X00549Y02328
X00615Y02544
X00615Y02439
X00618Y02325
X00621Y02475
X00621Y02499
X00666Y02364
X00666Y0249
X00693Y02301
X00696Y02424
X00696Y02364
X00726Y02388
X00732Y02472
X00735Y02313
X00747Y02394
X00747Y02538
X00753Y02328
X00756Y02475
X00816Y02526
X00819Y02487
X00828Y02358
X00828Y02409
X00849Y02523
X00852Y02301
X00852Y02364
X00852Y0249
X00855Y02427
X00855Y02334
X00882Y02493
X00882Y02364
X00885Y02331
X00888Y02457
X009Y02394
X00912Y02304
X00915Y0249
X00921Y02442
X00927Y02463
X00933Y02502
X01014Y02451
X01014Y02517
X01029Y02403
X01029Y02472
X01038Y02382
X01047Y02523
X0105Y02499
X01056Y02433
X01066Y02326
X01254Y02427
X01275Y0231
X0131Y0231
X0132Y0239
X01341Y02301
X01356Y02409
X01368Y02301
X01383Y0252
X01384Y0244
X01419Y0252
X01452Y02361
X01452Y02517
X01455Y02397
X01479Y02358
X01479Y02328
X01488Y02508
X01497Y02379
X01506Y02535
X01521Y02508
X01527Y02457
X0153Y0239
X01554Y023
X01566Y02409
X01566Y02379
X01572Y02448
X01572Y02472
X01608Y02301
X01608Y02394
X01611Y02427
X01611Y02487
X01638Y02331
X01638Y0249
X01638Y02391
X01641Y0252
X0168Y02472
X0168Y02409
X0168Y02442
X0168Y02316
X01689Y02349
X0169Y0238
X01785Y02451
X01794Y02541
X01995Y02518
X01998Y02418
X02004Y02496
X0201Y0231
X02025Y02418
X02025Y02568
X02025Y02618
X02025Y02668
X01997Y02668
X01995Y02618
X01776Y02631
X0177Y0269
X01767Y02661
X01767Y02724
X01752Y02757
X01746Y02694
X01641Y02739
X01638Y0255
X01608Y02583
X01488Y02598
X01455Y0258
X01452Y0255
X01452Y02646
X01452Y02613
X01449Y02709
X01446Y02748
X01425Y02703
X01422Y02616
X01422Y02553
X01419Y02679
X01386Y0255
X01326Y02661
X01326Y02571
X01308Y02553
X0126Y02619
X0126Y02739
X01206Y02622
X01041Y02661
X0099Y02688
X00978Y02646
X00969Y02547
X00963Y02757
X0096Y02709
X00957Y02679
X00954Y02565
X00942Y02631
X00927Y02724
X00921Y02694
X00912Y02649
X00885Y02709
X00885Y02793
X00885Y02646
X0087Y02775
X00855Y02613
X00822Y02631
X00819Y02661
X00816Y02574
X00771Y02664
X00756Y02712
X0075Y02754
X00747Y02565
X00744Y02604
X00696Y02616
X00696Y02709
X00696Y02646
X00693Y02556
X00678Y02793
X00666Y02679
X00666Y0255
X00666Y02709
X00663Y02643
X0063Y02724
X0063Y02568
X00627Y02757
X00549Y02583
X00537Y0276
X00507Y02691
X00507Y02658
X00168Y02568
X00549Y02835
X00813Y02814
X0087Y02814
X00885Y02859
X00966Y02826
X00999Y02841
T2C.012F095S3
X0042Y00195
X00894Y00255
X01023Y00246
X01281Y00123
X01326Y00123
X01392Y00156
X01419Y0012
X0144Y002
X01461Y00225
X01512Y00216
X01548Y00288
X0159Y00204
X01641Y00288
X01809Y00141
X0201Y00267
X02019Y00468
X02004Y00519
X01719Y0054
X0162Y0054
X01512Y00315
X01431Y00411
X01413Y00315
X01299Y00414
X01299Y00486
X01224Y00489
X00504Y00444
X00465Y00309
X00153Y00768
X0063Y00723
X0077Y0066
X00777Y00783
X00945Y00717
X00978Y00774
X0099Y0072
X01038Y0072
X01149Y00762
X01215Y00723
X01305Y00717
X01323Y00603
X01359Y00723
X01503Y00603
X01755Y00711
X02016Y01017
X01788Y01032
X01563Y00861
X0153Y01002
X0126Y00846
X01194Y0084
X00813Y0084
X0081Y00945
X00735Y00915
X0063Y00936
X00591Y00936
X00465Y00846
X0015Y00969
X00423Y01188
X00495Y01122
X00609Y01158
X01263Y01122
X01623Y01104
X01689Y01131
X0171Y01215
X01785Y01089
X01842Y01113
X02016Y01167
X02016Y01317
X01392Y01794
X01386Y01737
X01341Y01395
X0117Y01725
X0037Y0171
X00141Y01518
X00159Y02067
X00339Y02025
X00382Y02186
X00382Y02134
X00468Y02097
X00562Y02134
X00606Y0207
X00652Y02134
X00698Y02096
X00742Y02134
X00742Y02096
X00787Y02134
X01077Y01995
X01077Y02292
X01224Y02145
X0133Y0191
X01476Y02142
X01596Y01953
X01638Y02007
X01653Y02145
X01779Y01953
X01788Y02133
X02016Y02268
X02019Y01869
X01995Y02367
X01707Y02493
X01146Y02454
X01146Y02493
X01104Y02403
X01104Y02367
X00507Y02532
X0038Y0246
X00153Y02418
X00132Y02568
X0039Y0256
X011027Y027163
X011027Y02754
X011475Y02754
X011476Y027163
X011479Y02674
X01266Y02673
X01803Y02676
X01818Y02784
X01875Y02778
X0201Y02718
X01893Y02814
X0036Y02829
T3C.016F095S3
X00045Y00225
X00045Y0018
X00045Y00135
X00045Y0009
X0006Y00045
X0009Y0009
X0009Y00135
X0009Y0018
X0009Y00225
X00105Y00045
X00135Y0009
X00135Y00135
X0015Y00045
X0018Y0009
X00195Y00045
X00225Y0009
X0024Y00045
X0027Y0009
X00285Y00045
X0033Y00045
X00375Y00045
X0042Y00045
X00465Y00045
X0051Y00045
X00555Y00045
X006Y00045
X00615Y0013
X00645Y00045
X00675Y00234
X0069Y00045
X00735Y00045
X0078Y00045
X00804Y0027
X00825Y00045
X0087Y00045
X00915Y00045
X0096Y00045
X01005Y00045
X0105Y00045
X01095Y00045
X0114Y00045
X01185Y00045
X0123Y00045
X01275Y00045
X0132Y00045
X01365Y00045
X0141Y00045
X01455Y00045
X015Y00045
X01545Y00045
X0159Y00045
X01635Y00045
X0168Y00045
X01725Y00045
X0177Y00045
X01815Y00045
X0186Y00045
X01905Y00045
X0192Y00105
X0195Y00045
X01965Y00105
X01995Y00045
X0201Y0015
X0201Y00105
X0204Y00045
X02055Y0015
X02055Y00105
X02085Y00045
X02115Y0012
X02115Y0021
X02115Y00075
X02115Y00165
X01533Y00507
X01305Y0054
X0126Y0054
X01083Y00453
X00915Y00405
X00915Y0045
X00915Y00495
X00855Y00495
X00768Y00357
X00651Y00426
X00495Y00315
X0042Y00315
X00375Y0051
X00375Y00315
X0015Y00318
X00318Y00978
X00318Y00933
X00372Y00981
X00714Y00594
X00756Y00846
X00945Y00849
X01401Y00846
X01665Y0069
X0174Y00675
X0176Y0088
X01785Y00675
X01845Y0087
X01845Y00825
X01845Y00675
X0201Y01569
X0183Y01755
X01758Y01221
X0174Y0177
X01497Y01686
X01323Y01122
X01317Y01557
X0078Y01065
X00153Y02268
X01695Y02535
X0174Y02535
X02019Y02019
X02115Y0276
X02115Y02895
X02115Y0285
X02115Y02805
X0207Y0291
X0204Y0285
X02025Y0291
X0198Y0291
X01935Y0291
X0189Y0291
X01845Y0291
X018Y0291
X01785Y0261
X0177Y02865
X01755Y0291
X01755Y0279
X0174Y0261
X01725Y02865
X0171Y0291
X0171Y0279
X01695Y0261
X0168Y02865
X01665Y0291
X01665Y0279
X01635Y02865
X0162Y0291
X01575Y0291
X0153Y0291
X01485Y0291
X0144Y0291
X01395Y0291
X0135Y0291
X01305Y0291
X0126Y0291
X01215Y0291
X0117Y0291
X01125Y0291
X0108Y0291
X01035Y0291
X0099Y0291
X00945Y0291
X009Y0291
X00855Y0291
X0081Y0291
X00765Y0291
X0072Y0291
X00675Y0291
X0063Y0291
X00585Y0291
X0054Y0291
X00495Y0291
X0045Y0291
X00405Y0291
X0036Y0291
X00315Y0291
X0027Y0291
X00225Y0291
X0018Y0291
X00135Y0291
X0009Y0291
X00045Y0291
T4C.025F197S55
X00465Y00747
X00858Y00426
T5C.03543F197S55
X0015Y001961G85X0015Y002158
X0201Y001961G85X0201Y002158
T6C.05118F107S55
X0015Y027702G85X0015Y027898
X0201Y027702G85X0201Y027898
M30
