*
*
G04 PADS 9.5 Build Number: 522968 generated Gerber (RS-274-X) file*
G04 PC Version=2.1*
*
%IN "MT-Baseboard V1.2.0 (3)"*%
*
%MOIN*%
*
%FSLAX35Y35*%
*
*
*
*
G04 PC Standard Apertures*
*
*
G04 Thermal Relief Aperture macro.*
%AMTER*
1,1,$1,0,0*
1,0,$1-$2,0,0*
21,0,$3,$4,0,0,45*
21,0,$3,$4,0,0,135*
%
*
*
G04 Annular Aperture macro.*
%AMANN*
1,1,$1,0,0*
1,0,$2,0,0*
%
*
*
G04 Odd Aperture macro.*
%AMODD*
1,1,$1,0,0*
1,0,$1-0.005,0,0*
%
*
*
G04 PC Custom Aperture Macros*
*
*
*
*
*
*
G04 PC Aperture Table*
*
%ADD010C,0.01*%
%ADD012C,0.001*%
%ADD059C,0.005*%
%ADD208C,0.00787*%
*
*
*
*
G04 PC Circuitry*
G04 Layer Name MT-Baseboard V1.2.0 (3) - circuitry*
%LPD*%
*
*
G04 PC Custom Flashes*
G04 Layer Name MT-Baseboard V1.2.0 (3) - flashes*
%LPD*%
*
*
G04 PC Circuitry*
G04 Layer Name MT-Baseboard V1.2.0 (3) - circuitry*
%LPD*%
*
G54D10*
G01X2281154Y1432594D02*
G75*
G03X2281154I-5118J0D01*
G01X2229554Y1810594D02*
G03X2229554I-5118J0D01*
G01X2243154D02*
G03X2243154I-5118J0D01*
G01X1729754Y1608394D02*
G03X1729754I-5118J0D01*
G01X2395236Y1363394D02*
Y1612550D01*
Y1363394D02*
X2397736Y1373394D01*
X2392736*
X2395236Y1363394*
Y1875206D02*
Y1626050D01*
Y1875206D02*
X2392736Y1865206D01*
X2397736*
X2395236Y1875206*
X2340636Y1363394D02*
X2400236D01*
X2340636Y1875206D02*
X2400236D01*
X2412395Y1620863D02*
X2411941Y1621175D01*
X2411259Y1622113*
X2411259D02*
Y1615550D01*
X2408759Y1622113D02*
X2406259D01*
X2406259D02*
X2407623Y1619613D01*
X2407623D02*
X2406941D01*
X2406941D02*
X2406486Y1619300D01*
X2406259Y1618988*
X2406259D02*
X2406032Y1618050D01*
Y1617425*
X2406259Y1616488*
X2406259D02*
X2406713Y1615863D01*
X2406713D02*
X2407395Y1615550D01*
X2408077*
X2408759Y1615863*
X2408759D02*
X2408986Y1616175D01*
X2409213Y1616800*
X2402623Y1622113D02*
X2403304Y1621800D01*
X2403759Y1620863*
X2403759D02*
X2403986Y1619300D01*
Y1618363*
X2403986D02*
X2403759Y1616800D01*
X2403304Y1615863*
X2403304D02*
X2402623Y1615550D01*
X2402168*
X2401486Y1615863*
X2401486D02*
X2401032Y1616800D01*
X2400804Y1618363*
X2400804D02*
Y1619300D01*
X2401032Y1620863*
X2401032D02*
X2401486Y1621800D01*
X2402168Y1622113*
X2402168D02*
X2402623D01*
X2398532Y1616175D02*
X2398759Y1615863D01*
X2398759D02*
X2398532Y1615550D01*
X2398304Y1615863*
X2398304D02*
X2398532Y1616175D01*
X2394895Y1622113D02*
X2395577Y1621800D01*
X2396032Y1620863*
X2396032D02*
X2396259Y1619300D01*
Y1618363*
X2396259D02*
X2396032Y1616800D01*
X2395577Y1615863*
X2395577D02*
X2394895Y1615550D01*
X2394441*
X2393759Y1615863*
X2393759D02*
X2393304Y1616800D01*
X2393077Y1618363*
X2393077D02*
Y1619300D01*
X2393304Y1620863*
X2393304D02*
X2393759Y1621800D01*
X2394441Y1622113*
X2394441D02*
X2394895D01*
X2391032Y1619925D02*
Y1615550D01*
Y1618675D02*
X2390350Y1619613D01*
X2390350D02*
X2389895Y1619925D01*
X2389213*
X2388759Y1619613*
X2388759D02*
X2388532Y1618675D01*
Y1615550*
Y1618675D02*
X2387850Y1619613D01*
X2387850D02*
X2387395Y1619925D01*
X2386713*
X2386259Y1619613*
X2386259D02*
X2386032Y1618675D01*
Y1615550*
X2383986Y1619925D02*
Y1615550D01*
Y1618675D02*
X2383304Y1619613D01*
X2383304D02*
X2382850Y1619925D01*
X2382168*
X2381713Y1619613*
X2381713D02*
X2381486Y1618675D01*
Y1615550*
Y1618675D02*
X2380804Y1619613D01*
X2380804D02*
X2380350Y1619925D01*
X2379668*
X2379213Y1619613*
X2379213D02*
X2378986Y1618675D01*
Y1615550*
X2335636Y1329794D02*
X1981666D01*
X2335636D02*
X2325636Y1332294D01*
Y1327294*
X2335636Y1329794*
X1587605D02*
X1941575D01*
X1587605D02*
X1597605Y1327294D01*
Y1332294*
X1587605Y1329794*
X2335636Y1358394D02*
Y1324794D01*
X1587605Y1358394D02*
Y1324794D01*
X1978666Y1331357D02*
X1978211Y1331669D01*
X1977530Y1332607*
Y1326044*
X1972530Y1330419D02*
X1972757Y1329482D01*
X1973211Y1328857*
X1973893Y1328544*
X1974120*
X1974802Y1328857*
X1975257Y1329482*
X1975484Y1330419*
Y1330732*
X1975257Y1331669*
X1974802Y1332294*
X1974120Y1332607*
X1973893*
X1973211Y1332294*
X1972757Y1331669*
X1972530Y1330419*
Y1328857*
X1972757Y1327294*
X1973211Y1326357*
X1973893Y1326044*
X1974348*
X1975030Y1326357*
X1975257Y1326982*
X1969120Y1332607D02*
X1969802Y1332294D01*
X1970257Y1331357*
X1970484Y1329794*
Y1328857*
X1970257Y1327294*
X1969802Y1326357*
X1969120Y1326044*
X1968666*
X1967984Y1326357*
X1967530Y1327294*
X1967302Y1328857*
Y1329794*
X1967530Y1331357*
X1967984Y1332294*
X1968666Y1332607*
X1969120*
X1965030Y1326669D02*
X1965257Y1326357D01*
X1965030Y1326044*
X1964802Y1326357*
X1965030Y1326669*
X1961393Y1332607D02*
X1962075Y1332294D01*
X1962530Y1331357*
X1962757Y1329794*
Y1328857*
X1962530Y1327294*
X1962075Y1326357*
X1961393Y1326044*
X1960939*
X1960257Y1326357*
X1959802Y1327294*
X1959575Y1328857*
Y1329794*
X1959802Y1331357*
X1960257Y1332294*
X1960939Y1332607*
X1961393*
X1957530Y1330419D02*
Y1326044D01*
Y1329169D02*
X1956848Y1330107D01*
X1956393Y1330419*
X1955711*
X1955257Y1330107*
X1955030Y1329169*
Y1326044*
Y1329169D02*
X1954348Y1330107D01*
X1953893Y1330419*
X1953211*
X1952757Y1330107*
X1952530Y1329169*
Y1326044*
X1950484Y1330419D02*
Y1326044D01*
Y1329169D02*
X1949802Y1330107D01*
X1949348Y1330419*
X1948666*
X1948211Y1330107*
X1947984Y1329169*
Y1326044*
Y1329169D02*
X1947302Y1330107D01*
X1946848Y1330419*
X1946166*
X1945711Y1330107*
X1945484Y1329169*
Y1326044*
G54D12*
X2335636Y1363394D02*
X2335634D01*
X2335636Y1875206D02*
X2335634D01*
X2335636Y1363394D02*
X2335634D01*
X1587605D02*
X1587602D01*
G54D59*
X2273845Y1444190D02*
Y1441237D01*
X2273050Y1444190D02*
X2274641D01*
X2275663D02*
Y1441237D01*
Y1444190D02*
X2276686D01*
X2277027Y1444049*
X2277141Y1443909*
X2277254Y1443627*
Y1443205*
X2277141Y1442924*
X2277027Y1442784*
X2276686Y1442643*
X2275663*
X2278504Y1444190D02*
X2279754D01*
X2279073Y1443065*
X2279413*
X2279641Y1442924*
X2279754Y1442784*
X2279868Y1442362*
Y1442080*
X2279754Y1441659*
X2279527Y1441377*
X2279186Y1441237*
X2278845*
X2278504Y1441377*
X2278391Y1441518*
X2278277Y1441799*
X1722502Y1619590D02*
Y1616637D01*
X1721707Y1619590D02*
X1723298D01*
X1724320D02*
Y1616637D01*
Y1619590D02*
X1725343D01*
X1725684Y1619449*
X1725798Y1619309*
X1725911Y1619027*
Y1618605*
X1725798Y1618324*
X1725684Y1618184*
X1725343Y1618043*
X1724320*
X1728411Y1618605D02*
X1728298Y1618184D01*
X1728070Y1617902*
X1727729Y1617762*
X1727616*
X1727275Y1617902*
X1727048Y1618184*
X1726934Y1618605*
Y1618746*
X1727048Y1619168*
X1727275Y1619449*
X1727616Y1619590*
X1727729*
X1728070Y1619449*
X1728298Y1619168*
X1728411Y1618605*
Y1617902*
X1728298Y1617199*
X1728070Y1616777*
X1727729Y1616637*
X1727502*
X1727161Y1616777*
X1727048Y1617059*
X2212032Y1812676D02*
Y1809394D01*
X2211236Y1812676D02*
X2212827D01*
X2213850D02*
Y1809394D01*
Y1812676D02*
X2214873D01*
X2215213Y1812519*
X2215327Y1812363*
X2215441Y1812051*
Y1811582*
X2215327Y1811269*
X2215213Y1811113*
X2214873Y1810957*
X2213850*
X2216463Y1812051D02*
X2216691Y1812207D01*
X2217032Y1812676*
Y1809394*
X2247232Y1813476D02*
Y1810194D01*
X2246436Y1813476D02*
X2248027D01*
X2249050D02*
Y1810194D01*
Y1813476D02*
X2250073D01*
X2250413Y1813319*
X2250527Y1813163*
X2250641Y1812851*
Y1812382*
X2250527Y1812069*
X2250413Y1811913*
X2250073Y1811757*
X2249050*
X2251777Y1812694D02*
Y1812851D01*
X2251891Y1813163*
X2252004Y1813319*
X2252232Y1813476*
X2252686*
X2252913Y1813319*
X2253027Y1813163*
X2253141Y1812851*
Y1812538*
X2253027Y1812226*
X2252800Y1811757*
X2251663Y1810194*
X2253254*
G54D208*
X1587605Y1363394D02*
X2335636D01*
Y1875206*
X1587605*
Y1363394*
X1665661Y1480594D02*
G03X1665661I-3225J0D01*
G01X1720861D02*
G03X1720861I-3225J0D01*
G74*
G01X0Y0D02*
M02*
