*
*
G04 PADS 9.5 Build Number: 522968 generated Gerber (RS-274-X) file*
G04 PC Version=2.1*
*
%IN "MT-RGBLVDS-A1 (2).pcb"*%
*
%MOIN*%
*
%FSLAX35Y35*%
*
*
*
*
G04 PC Standard Apertures*
*
*
G04 Thermal Relief Aperture macro.*
%AMTER*
1,1,$1,0,0*
1,0,$1-$2,0,0*
21,0,$3,$4,0,0,45*
21,0,$3,$4,0,0,135*
%
*
*
G04 Annular Aperture macro.*
%AMANN*
1,1,$1,0,0*
1,0,$2,0,0*
%
*
*
G04 Odd Aperture macro.*
%AMODD*
1,1,$1,0,0*
1,0,$1-0.005,0,0*
%
*
*
G04 PC Custom Aperture Macros*
*
*
*
*
*
*
G04 PC Aperture Table*
*
%ADD010C,0.01*%
%ADD024C,0.001*%
%ADD040O,0.01X0.065*%
%ADD041R,0.035X0.035*%
%ADD042R,0.05787X0.04567*%
%ADD043R,0.055X0.016*%
%ADD046R,0.075X0.07*%
%ADD048R,0.012X0.06*%
%ADD049R,0.07X0.08*%
*
*
*
*
G04 PC Circuitry*
G04 Layer Name MT-RGBLVDS-A1 (2).pcb - circuitry*
%LPD*%
*
*
G04 PC Custom Flashes*
G04 Layer Name MT-RGBLVDS-A1 (2).pcb - flashes*
%LPD*%
*
*
G04 PC Circuitry*
G04 Layer Name MT-RGBLVDS-A1 (2).pcb - circuitry*
%LPD*%
*
G54D10*
G01X1881890Y1499606D02*
G75*
G03X1889764Y1491732I7874J0D01*
G01X1881890Y1499606D02*
Y1700394D01*
X1889764Y1708268D02*
G03X1881890Y1700394I-0J-7874D01*
G01X1889764Y1708268D02*
X2110236D01*
X2118110Y1700394D02*
G03X2110236Y1708268I-7874J-0D01*
G01X2118110Y1700394D02*
Y1499606D01*
X2110236Y1491732D02*
G03X2118110Y1499606I0J7874D01*
G01X2110236Y1491732D02*
X1889764D01*
G54D24*
G54D40*
X2028350Y1636482D03*
X2026390D03*
X2024430D03*
X2022470D03*
X2020510D03*
X2018550D03*
X2016590D03*
X2014630D03*
X2012670D03*
X2010710D03*
X2008750D03*
X2006790D03*
X2004830D03*
X2002870D03*
X2000910D03*
X1998950D03*
X1996990D03*
X1995030D03*
X1993070D03*
X1991110D03*
X1989150D03*
X1987190D03*
X1985230D03*
X1983270D03*
X1981310D03*
X1979350D03*
X1977390D03*
X1975430D03*
Y1606982D03*
X1977390D03*
X1979350D03*
X1981310D03*
X1983270D03*
X1985230D03*
X1987190D03*
X1989150D03*
X1991110D03*
X1993070D03*
X1995030D03*
X1996990D03*
X1998950D03*
X2000910D03*
X2002870D03*
X2004830D03*
X2006790D03*
X2008750D03*
X2010710D03*
X2012670D03*
X2014630D03*
X2016590D03*
X2018550D03*
X2020510D03*
X2022470D03*
X2024430D03*
X2026390D03*
X2028350D03*
G54D41*
X2079890Y1563482D03*
Y1569982D03*
X1977890Y1585482D03*
Y1591982D03*
X2004290Y1585482D03*
Y1591982D03*
X2037390Y1591482D03*
Y1584982D03*
X2085890Y1563482D03*
Y1569982D03*
X2054890Y1631282D03*
Y1637782D03*
X2045890D03*
Y1631282D03*
X1997890Y1585482D03*
Y1591982D03*
X1971490Y1585482D03*
Y1591982D03*
X1965090D03*
Y1585482D03*
X1957890Y1655282D03*
Y1661782D03*
G54D42*
X2071890Y1563228D03*
Y1570236D03*
G54D43*
X2093642Y1581634D03*
Y1584193D03*
Y1586752D03*
Y1589311D03*
Y1591870D03*
G54D46*
X2104173Y1582224D03*
Y1591280D03*
G54D48*
X2051102Y1678937D03*
X2049134D03*
X2047165D03*
X2045197D03*
X2043228D03*
X2041260D03*
X2039291D03*
X2037323D03*
X2035354D03*
X2033386D03*
X2031417D03*
X2029449D03*
X2027480D03*
X2025512D03*
X2023543D03*
X2021575D03*
X2019606D03*
X2017638D03*
X2015669D03*
X2013701D03*
X2011732D03*
X2009764D03*
X2007795D03*
X2005827D03*
X2003858D03*
X2001890D03*
X1999921D03*
X1997953D03*
X1995984D03*
X1994016D03*
X1992047D03*
X1990079D03*
X1988110D03*
X1986142D03*
X1984173D03*
X1982205D03*
X1980236D03*
X1978268D03*
X1976299D03*
X1974331D03*
X1972362D03*
X1970394D03*
X1968425D03*
X1966457D03*
X1964488D03*
X1962520D03*
X1960551D03*
X1958583D03*
X1956614D03*
X1954646D03*
G54D49*
X2057402Y1691732D03*
X1948346D03*
G74*
X0Y0D02*
M02*
