%
T1C.012F095S3
X00455Y0186
X00415Y0186
X0037Y0186
X00325Y0186
X0054Y0219
X0048Y0219
X0045Y0222
X0048Y0225
X0045Y0228
X0048Y0231
X0042Y0231
X0045Y0234
X0048Y0237
X0042Y0237
X0066Y0291
X00975Y0289
X0093Y0289
X0094Y02775
X00985Y02775
X0094Y0274
X0065Y02715
X0094Y02705
X0069Y0267
X00945Y02665
X00905Y02665
X00865Y02665
X00825Y02665
X0075Y02665
X00785Y02665
X0096Y0251
X0102Y024
X0096Y024
X009Y024
X009Y0234
X0096Y0234
X0102Y0234
X0102Y0228
X0096Y0228
X0099Y0222
X006Y0219
X0099Y0216
X00745Y0207
X015Y006
X0154Y006
X015Y0064
X0154Y0064
X015Y0068
X0154Y0068
X015Y0072
X0154Y0072
X0154Y0076
X0154Y008
X0118Y02125
X01225Y0227
X0155Y0228
X01465Y0228
X0151Y0228
X01235Y02315
X01465Y0233
X01235Y0236
X01425Y02375
X0128Y0239
X01235Y02405
X01425Y02425
X014Y0248
X0171Y0292
X0164Y0289
X0171Y0286
X0177Y0283
X0174Y028
X01615Y0263
X01585Y0228
X0173Y01835
X0173Y0178
X0163Y01695
X01665Y0165
X01625Y0165
X0166Y0068
X0158Y0068
X0162Y0068
X0162Y0064
X0158Y0064
X0174Y0058
X0174Y0054
X0174Y005
X0174Y0046
X0174Y0042
X0188Y0032
X0194Y0032
X0194Y0038
X0194Y0042
X0182Y0147
X0182Y015325
X01965Y01765
X02005Y01765
X02045Y01765
X01925Y01765
X01975Y0243
X01935Y0243
X01895Y0243
X02025Y02735
X02325Y0276
X02375Y02755
X02085Y02735
X0229Y02715
X02335Y0271
X02285Y02675
X02125Y02435
X0236Y0186
X02325Y0176
X0228Y0176
X02165Y0176
X0213Y0176
X02525Y0167
X0248Y0167
X03215Y0124
X03215Y01275
X03215Y0132
X03215Y01365
X0257Y0167
X0402Y0165
X0396Y0165
X0396Y0159
X0402Y0159
X0396Y0126
X036Y0087
X0369Y0087
X04365Y006522
X0435Y0144
X0408Y0159
X0429Y0159
X0408Y0165
X0429Y0165
T2C.016F095S3
X002Y01125
X0029Y01125
X0025Y01125
X00205Y0118
X0029Y0118
X0025Y0118
X0016Y01225
X00205Y01225
X00295Y01225
X0025Y01225
X0006Y0165
X0006Y0171
X0006Y018
X0006Y0186
X0006Y0192
X0006Y0198
X0021Y0204
X0012Y0204
X0006Y0204
X0027Y0204
X0012Y021
X0018Y021
X003Y021
X0024Y021
X0018Y0216
X0012Y0216
X003Y0216
X0024Y0216
X0006Y0222
X0012Y0222
X0018Y0222
X0024Y0222
X0006Y0228
X0012Y0228
X0024Y0228
X0018Y0234
X0012Y0234
X0006Y0234
X003Y0234
X0024Y0234
X0006Y024
X0018Y024
X0012Y024
X003Y024
X0024Y024
X0015Y0276
X0009Y0276
X0021Y0279
X0027Y0279
X0006Y0297
X00185Y02975
X003Y03
X0018Y0306
X0024Y0306
X003Y0306
X0036Y0306
X0036Y03
X0042Y0216
X0036Y0216
X0042Y021
X0036Y021
X0045Y0204
X0036Y0204
X0039Y0177
X0033Y0177
X00465Y017575
X0045Y0171
X0039Y0171
X0045Y0165
X0039Y0165
X006Y01105
X00685Y01105
X00645Y01105
X006Y0115
X0069Y0115
X00645Y0115
X006Y01195
X0069Y01195
X00645Y01195
X0072Y0174
X0079Y017575
X0066Y01855
X0064Y0217
X0078Y0218
X0072Y02515
X0072Y0265
X00805Y0273
X0072Y0312
X0078Y0312
X0084Y0312
X009Y0312
X0096Y0312
X0102Y02675
X009Y0229
X0102Y0203
X0098Y0203
X0094Y02005
X0098Y01985
X0102Y01985
X00815Y019525
X0102Y0194
X0098Y0194
X01015Y01895
X0102Y0171
X0102Y0123
X0102Y01185
X0102Y01145
X0102Y01105
X01145Y01105
X011Y01105
X0106Y01105
X0114Y01145
X011Y01145
X0106Y01145
X0114Y01185
X011Y01185
X0106Y01185
X0114Y0123
X011Y0123
X0106Y0123
X0129Y0126
X0129Y0132
X0123Y0135
X0117Y0138
X0129Y0138
X0123Y0156
X0123Y0162
X0123Y0168
X0123Y0174
X0123Y018
X0123Y0186
X0117Y0186
X0117Y0192
X0123Y0192
X0123Y0198
X0117Y0198
X012Y0204
X0123Y021
X01225Y02195
X0126Y02275
X012Y0255
X0114Y0255
X0117Y0261
X01245Y02735
X01285Y02735
X01298Y0321
X01177Y03216
X01416Y03214
X01538Y03213
X01325Y02735
X01365Y02735
X01405Y02735
X01445Y02735
X0153Y0258
X0153Y0252
X0153Y0246
X0141Y021
X0144Y0207
X0147Y0204
X015Y0201
X0141Y0198
X0141Y0192
X0141Y0177
X0141Y0171
X0153Y01695
X01475Y01675
X0141Y0165
X0147Y01625
X01405Y0159
X0138Y0153
X0155Y01455
X01495Y01435
X0135Y0138
X0141Y0138
X0153Y0138
X0147Y0138
X0135Y0132
X0147Y0132
X0141Y0132
X0153Y0132
X0141Y0126
X0135Y0126
X0147Y0126
X0153Y0126
X0132Y012
X0138Y012
X015Y012
X0144Y012
X0141Y0114
X0135Y0114
X0147Y0114
X0153Y0114
X01485Y0048
X0156Y012
X0173Y0122
X0158Y015
X0162Y01535
X0174Y0192
X018Y0192
X0174Y0198
X018Y0204
X0158Y02145
X018Y0242
X01805Y02665
X018Y0306
X018Y0312
X01705Y03175
X0174Y0318
X018Y0318
X018Y0324
X0174Y0324
X0174Y033
X018Y033
X018Y0336
X0174Y0336
X018Y0342
X0174Y0342
X018Y0348
X0174Y0348
X0204Y0228
X0198Y0228
X0192Y0228
X0186Y0228
X0204Y0222
X0198Y0222
X0192Y0222
X0186Y0222
X0204Y0216
X0198Y0216
X0192Y0216
X0186Y0216
X0204Y021
X0198Y021
X0192Y021
X0186Y021
X0186Y0204
X0204Y0204
X0198Y0204
X0192Y0204
X0186Y0198
X0204Y0198
X0198Y0198
X0192Y0198
X0186Y0192
X0204Y0192
X0198Y0192
X0192Y0192
X0188Y0176
X01915Y01385
X0194Y01235
X0216Y00505
X0215Y0123
X02125Y0147
X0228Y01565
X02085Y0176
X0228Y0192
X0222Y0192
X021Y0192
X0216Y0192
X0216Y0198
X0222Y0198
X021Y0198
X0228Y0198
X0228Y0204
X0222Y0204
X0216Y0204
X021Y0204
X0216Y021
X021Y021
X0222Y021
X0228Y021
X0228Y0216
X0222Y0216
X0216Y0216
X021Y0216
X021Y0222
X0228Y0222
X0222Y0222
X0216Y0222
X0228Y0228
X021Y0228
X0216Y0228
X0222Y0228
X0224Y02435
X0229Y03235
X0258Y0348
X0264Y0348
X027Y0348
X0276Y0348
X0273Y0342
X0258Y0318
X0258Y0312
X0258Y0306
X0258Y03
X0273Y0291
X0273Y0285
X0247Y028
X0273Y0279
X027Y0264
X027Y0258
X0264Y0258
X0249Y0255
X0258Y0252
X027Y0252
X0264Y0252
X026Y0232
X0234Y0228
X02715Y02265
X0258Y0225
X0234Y0222
X0234Y0216
X0279Y0213
X0261Y021
X0234Y021
X0267Y0207
X0261Y0204
X0234Y0204
X0267Y0201
X0261Y0198
X0234Y0198
X0234Y0192
X0259Y01855
X02695Y01725
X0262Y0164
X0258Y01575
X0246Y01565
X02655Y01465
X024Y01295
X0263Y01265
X02485Y006025
X0267Y006025
X0252Y00505
X0304Y0012
X0304Y0016
X0304Y002
X0304Y0024
X0288Y00505
X0304Y0064
X0304Y0068
X0304Y0072
X0304Y0076
X03Y0103
X02905Y01095
X0301Y01095
X02975Y01095
X03045Y01095
X0294Y01095
X0301Y0114
X03045Y0114
X02975Y0114
X0294Y0114
X02905Y0114
X0304Y014075
X0296Y01473
X0294Y0186
X0282Y0189
X0294Y0192
X0288Y0192
X0285Y0198
X0297Y0198
X0291Y0198
X0288Y021
X0282Y021
X03035Y02165
X0286Y02355
X0288Y0276
X0282Y0276
X0294Y0276
X03Y0276
X0287Y0293
X0285Y0342
X0282Y0348
X0288Y0348
X0294Y0348
X0325Y01995
X0315Y0198
X0327Y0174
X0307Y0174
X033Y0168
X033Y0145
X033Y01405
X033Y01365
X03255Y01365
X03255Y0132
X033Y0132
X033Y0128
X03255Y01275
X033Y0124
X03255Y0124
X03085Y0114
X03085Y011
X0308Y0076
X0308Y0072
X0308Y0068
X0308Y0064
X0308Y006
X0322Y0044
X0322Y004
X0322Y0036
X0322Y0032
X033Y0028
X0326Y0028
X0322Y0028
X032Y0024
X0328Y0024
X0324Y0024
X0308Y0024
X0316Y0024
X0312Y0024
X0312Y002
X0328Y002
X0324Y002
X0308Y002
X0316Y002
X032Y002
X0308Y0016
X0312Y0016
X032Y0016
X0324Y0016
X0316Y0016
X0328Y0016
X0328Y0012
X0324Y0012
X0316Y0012
X0312Y0012
X0308Y0012
X032Y0012
X0332Y0012
X0336Y0012
X034Y0012
X0344Y0012
X0344Y0016
X034Y0016
X0336Y0016
X0332Y0016
X0344Y002
X0332Y002
X0336Y002
X034Y002
X034Y0024
X0332Y0024
X0344Y0024
X0336Y0024
X0342Y0028
X0346Y0028
X0338Y0028
X0334Y0028
X034Y0042
X0345Y0124
X03415Y0124
X0338Y0124
X0334Y0124
X03405Y01685
X0345Y0174
X0339Y0174
X0333Y0174
X0342Y0201
X0336Y0201
X0348Y0201
X0351Y0207
X0345Y0207
X0357Y0207
X0363Y0207
X0369Y0207
X037Y007937
X0358Y0048
X0362Y0046
X0358Y0044
X0366Y0042
X0362Y0042
X0358Y004
X0366Y0038
X0362Y0038
X0358Y0036
X0366Y0034
X0362Y0034
X0358Y0032
X0362Y003
X0358Y0028
X0362Y0026
X0358Y0024
X0362Y0022
X03975Y0121
X04Y0147
X03915Y0162
X0399Y0198
X0393Y0198
X03875Y0199
X0393Y0204
X0399Y0204
X0405Y0204
X0384Y021
X039Y021
X0396Y021
X0402Y021
X0384Y0216
X0396Y0216
X039Y0216
X0402Y0216
X045Y0219
X045Y0213
X0432Y0207
X045Y0207
X045Y0201
X0428Y0198
X04455Y01625
X0455Y015325
X04115Y015
X040625Y0141
X043625Y014
X0423Y01375
X0444Y012425
X04405Y0117
X0448Y0116
X043Y01105
X0458Y0156
X046425Y0194
X0462Y0201
X0468Y0201
X0456Y0201
X0456Y0207
X0468Y0207
X0462Y0207
X0462Y0213
X0456Y0213
X0468Y0213
X0456Y0219
X0468Y0219
X0462Y0219
T3C.025F197S55
X0108Y016075
X0031Y0264
X00805Y0283
X01135Y0283
X01125Y03
X012325Y03
X0044Y03175
X013525Y03
X014725Y03
X01575Y03
X0143Y02829
X01775Y02215
X0154Y02215
X01645Y0139
X0222Y00635
X02045Y0139
X01855Y0139
X0222Y01595
X01845Y01815
X0222Y01815
X02055Y0243
X02055Y02605
X02715Y02385
X02355Y02355
X03045Y01965
X0234Y0139
X0258Y0139
X0282Y0139
X02835Y0064
X0294Y0064
X02325Y00635
X038986Y006525
X040092Y006525
X036275Y0194
X031Y021
T4C.0315F197S55
X0277Y01658
X0036Y02242
T5C.0315F197S55
X0036Y01938
X0277Y01962
T6C.032F197S55
X0355Y0215
X0345Y0215
X0335Y0215
X0345Y0275
X0355Y0275
X0365Y0275
X0422Y0275
X0422Y0215
X0412Y0215
X0365Y0215
X0442Y0215
X0432Y0215
X0432Y0275
X0442Y0275
T7C.035F197S55
X00515Y0343
X00615Y0343
X00715Y0343
X01035Y0343
X00815Y0343
X012713Y0343
X011138Y0343
X011925Y0343
X014287Y0343
X015075Y0343
X0135Y0343
X015862Y0343
X01665Y0343
T8C.037F197S55
X03435Y0049
X03Y0089
T9C.03937F197S55
X035136Y003937
X035136Y004937
X035136Y007937
X035136Y009937
T10C.04724F139S55
X00525Y0018
X00675Y0018
X0039Y0114
X0009Y0114
X0051Y0114
X0093Y0114
X0081Y0114
X0123Y0114
X00975Y0018
X00825Y0018
X01125Y0018
X01275Y0018
X01425Y0018
X01575Y0018
X0196Y0018
X0181Y0018
X0204Y03375
X0189Y03375
X0219Y03375
X0249Y03375
X0234Y03375
X0279Y03375
X0264Y03375
X0241Y0018
X0256Y0018
X0271Y0018
X0211Y0018
X0226Y0018
X0286Y0018
X0351Y0018
X033Y03375
X0315Y03375
X0345Y03375
X0294Y03375
X0375Y03375
X036Y03375
X0405Y03375
X039Y03375
X0366Y0018
X0381Y0018
X0396Y0018
X042Y03375
T11C.05118F107S55
X0039Y0054
X0081Y0054
X0009Y0064
X0051Y0064
X0093Y0064
X0123Y0054
T12C.17717F035S1033
X001969Y001969
X001969Y033465
X045276Y033465
X045276Y001969
M30
