*
*
G04 PADS 9.5 Build Number: 522968 generated Gerber (RS-274-X) file*
G04 PC Version=2.1*
*
%IN "MT-StreetLight V1.0.0.p"*%
*
%MOIN*%
*
%FSLAX35Y35*%
*
*
*
*
G04 PC Standard Apertures*
*
*
G04 Thermal Relief Aperture macro.*
%AMTER*
1,1,$1,0,0*
1,0,$1-$2,0,0*
21,0,$3,$4,0,0,45*
21,0,$3,$4,0,0,135*
%
*
*
G04 Annular Aperture macro.*
%AMANN*
1,1,$1,0,0*
1,0,$2,0,0*
%
*
*
G04 Odd Aperture macro.*
%AMODD*
1,1,$1,0,0*
1,0,$1-0.005,0,0*
%
*
*
G04 PC Custom Aperture Macros*
*
*
*
*
*
*
G04 PC Aperture Table*
*
%ADD010C,0.01*%
%ADD012R,0.06X0.06*%
%ADD016C,0.012*%
%ADD024C,0.001*%
%ADD072R,0.15748X0.22*%
%ADD073R,0.01575X0.09842*%
%ADD074R,0.07087X0.09842*%
%ADD075R,0.07874X0.09842*%
%ADD076R,0.12205X0.03543*%
%ADD077O,0.12205X0.03937*%
%ADD078R,0.23622X0.37402*%
%ADD079R,0.19685X0.07087*%
%ADD080R,0.12205X0.0315*%
%ADD081R,0.12205X0.0315*%
%ADD082O,0.00787X0.052*%
%ADD083R,0.00787X0.052*%
%ADD084R,0.052X0.00787*%
%ADD085R,0.1X0.02362*%
%ADD086O,0.1X0.02362*%
%ADD087R,0.06X0.05*%
%ADD088R,0.036X0.036*%
%ADD089R,0.036X0.05*%
%ADD090O,0.07087X0.01102*%
%ADD091O,0.01102X0.07087*%
%ADD092R,0.05X0.036*%
%ADD093R,0.01575X0.07087*%
%ADD094O,0.01575X0.07087*%
%ADD095R,0.035X0.035*%
%ADD096R,0.08X0.16*%
%ADD097R,0.09843X0.05906*%
%ADD098O,0.07X0.2*%
%ADD099R,0.03543X0.04331*%
%ADD100R,0.10799X0.085*%
%ADD101R,0.085X0.10799*%
%ADD102R,0.08X0.1*%
%ADD103R,0.1X0.08*%
%ADD104R,0.05906X0.11811*%
%ADD105C,0.03937*%
%ADD106R,0.06299X0.11811*%
%ADD107R,0.05X0.06*%
%ADD108O,0.024X0.08*%
%ADD109O,0.08X0.024*%
%ADD110R,0.02992X0.07874*%
%ADD111R,0.02362X0.1*%
%ADD112O,0.02362X0.1*%
%ADD113R,0.052X0.056*%
%ADD114R,0.16X0.08*%
%ADD115O,0.25591X0.09843*%
%ADD116R,0.04724X0.07874*%
%ADD117R,0.02756X0.07087*%
%ADD118O,0.02756X0.07087*%
%ADD119R,0.01772X0.0374*%
%ADD120R,0.046X0.046*%
%ADD121R,0.046X0.036*%
%ADD122R,0.09842X0.02756*%
%ADD123O,0.09842X0.02756*%
%ADD124O,0.2X0.07*%
%ADD125R,0.03543X0.058*%
%ADD126O,0.08X0.13779*%
%ADD127R,0.03543X0.07874*%
%ADD128R,0.03543X0.07874*%
%ADD129R,0.03937X0.03937*%
*
*
*
*
G04 PC Circuitry*
G04 Layer Name MT-StreetLight V1.0.0.p - circuitry*
%LPD*%
*
*
G04 PC Custom Flashes*
G04 Layer Name MT-StreetLight V1.0.0.p - flashes*
%LPD*%
*
*
G04 PC Circuitry*
G04 Layer Name MT-StreetLight V1.0.0.p - circuitry*
%LPD*%
*
G54D10*
G01X2029358Y1769685D02*
X2032943D01*
X2034650Y1767978*
Y1756392*
X2032943Y1754685*
X2029358*
X2027650Y1756392*
Y1767978*
X2029358Y1769685*
X2028901Y1755142D02*
X2033400D01*
X2027901Y1756142D02*
X2034400D01*
X2027650Y1757142D02*
X2034650D01*
X2027650Y1758142D02*
X2034650D01*
X2027650Y1759142D02*
X2034650D01*
X2027650Y1760142D02*
X2034650D01*
X2027650Y1761142D02*
X2034650D01*
X2027650Y1762142D02*
X2034650D01*
X2027650Y1763142D02*
X2034650D01*
X2027650Y1764142D02*
X2034650D01*
X2027650Y1765142D02*
X2034650D01*
X2027650Y1766142D02*
X2034650D01*
X2027650Y1767142D02*
X2034650D01*
X2027814Y1768142D02*
X2034487D01*
X2028814Y1769142D02*
X2033487D01*
X2028150Y1755893D02*
Y1768477D01*
X2029150Y1754893D02*
Y1769477D01*
X2030150Y1754685D02*
Y1769685D01*
X2031150Y1754685D02*
Y1769685D01*
X2032150Y1754685D02*
Y1769685D01*
X2033150Y1754891D02*
Y1769479D01*
X2034150Y1755891D02*
Y1768479D01*
X1816106Y1817350D02*
Y1820935D01*
X1817813Y1822643*
X1829399*
X1831106Y1820935*
Y1817350*
X1829399Y1815643*
X1817813*
X1816106Y1817350*
X1817314Y1816142D02*
X1829898D01*
X1816314Y1817142D02*
X1830898D01*
X1816106Y1818142D02*
X1831106D01*
X1816106Y1819142D02*
X1831106D01*
X1816106Y1820142D02*
X1831106D01*
X1816313Y1821142D02*
X1830900D01*
X1817313Y1822142D02*
X1829900D01*
X1816150Y1817306D02*
Y1820979D01*
X1817150Y1816306D02*
Y1821979D01*
X1818150Y1815643D02*
Y1822643D01*
X1819150Y1815643D02*
Y1822643D01*
X1820150Y1815643D02*
Y1822643D01*
X1821150Y1815643D02*
Y1822643D01*
X1822150Y1815643D02*
Y1822643D01*
X1823150Y1815643D02*
Y1822643D01*
X1824150Y1815643D02*
Y1822643D01*
X1825150Y1815643D02*
Y1822643D01*
X1826150Y1815643D02*
Y1822643D01*
X1827150Y1815643D02*
Y1822643D01*
X1828150Y1815643D02*
Y1822643D01*
X1829150Y1815643D02*
Y1822643D01*
X1830150Y1816393D02*
Y1821892D01*
X1830693Y1834934D02*
Y1831348D01*
X1828986Y1829641*
X1817400*
X1815693Y1831348*
Y1834934*
X1817400Y1836641*
X1828986*
X1830693Y1834934*
X1816899Y1830142D02*
X1829487D01*
X1815899Y1831142D02*
X1830487D01*
X1815693Y1832142D02*
X1830693D01*
X1815693Y1833142D02*
X1830693D01*
X1815693Y1834142D02*
X1830693D01*
X1815901Y1835142D02*
X1830485D01*
X1816901Y1836142D02*
X1829485D01*
X1816150Y1830891D02*
Y1835391D01*
X1817150Y1829891D02*
Y1836391D01*
X1818150Y1829641D02*
Y1836641D01*
X1819150Y1829641D02*
Y1836641D01*
X1820150Y1829641D02*
Y1836641D01*
X1821150Y1829641D02*
Y1836641D01*
X1822150Y1829641D02*
Y1836641D01*
X1823150Y1829641D02*
Y1836641D01*
X1824150Y1829641D02*
Y1836641D01*
X1825150Y1829641D02*
Y1836641D01*
X1826150Y1829641D02*
Y1836641D01*
X1827150Y1829641D02*
Y1836641D01*
X1828150Y1829641D02*
Y1836641D01*
X1829150Y1829805D02*
Y1836477D01*
X1830150Y1830805D02*
Y1835477D01*
X2017358Y1538685D02*
X2020943D01*
X2022650Y1536978*
Y1525392*
X2020943Y1523685*
X2017358*
X2015650Y1525392*
Y1536978*
X2017358Y1538685*
X2016901Y1524142D02*
X2021400D01*
X2015901Y1525142D02*
X2022400D01*
X2015650Y1526142D02*
X2022650D01*
X2015650Y1527142D02*
X2022650D01*
X2015650Y1528142D02*
X2022650D01*
X2015650Y1529142D02*
X2022650D01*
X2015650Y1530142D02*
X2022650D01*
X2015650Y1531142D02*
X2022650D01*
X2015650Y1532142D02*
X2022650D01*
X2015650Y1533142D02*
X2022650D01*
X2015650Y1534142D02*
X2022650D01*
X2015650Y1535142D02*
X2022650D01*
X2015650Y1536142D02*
X2022650D01*
X2015814Y1537142D02*
X2022487D01*
X2016814Y1538142D02*
X2021487D01*
X2016150Y1524893D02*
Y1537477D01*
X2017150Y1523893D02*
Y1538477D01*
X2018150Y1523685D02*
Y1538685D01*
X2019150Y1523685D02*
Y1538685D01*
X2020150Y1523685D02*
Y1538685D01*
X2021150Y1523891D02*
Y1538479D01*
X2022150Y1524891D02*
Y1537479D01*
X2007693Y1487434D02*
Y1483848D01*
X2005986Y1482141*
X1994400*
X1992693Y1483848*
Y1487434*
X1994400Y1489141*
X2005986*
X2007693Y1487434*
X1994399Y1482142D02*
X2005987D01*
X1993399Y1483142D02*
X2006987D01*
X1992693Y1484142D02*
X2007693D01*
X1992693Y1485142D02*
X2007693D01*
X1992693Y1486142D02*
X2007693D01*
X1992693Y1487142D02*
X2007693D01*
X1993401Y1488142D02*
X2006985D01*
X1993150Y1483391D02*
Y1487891D01*
X1994150Y1482391D02*
Y1488891D01*
X1995150Y1482141D02*
Y1489141D01*
X1996150Y1482141D02*
Y1489141D01*
X1997150Y1482141D02*
Y1489141D01*
X1998150Y1482141D02*
Y1489141D01*
X1999150Y1482141D02*
Y1489141D01*
X2000150Y1482141D02*
Y1489141D01*
X2001150Y1482141D02*
Y1489141D01*
X2002150Y1482141D02*
Y1489141D01*
X2003150Y1482141D02*
Y1489141D01*
X2004150Y1482141D02*
Y1489141D01*
X2005150Y1482141D02*
Y1489141D01*
X2006150Y1482305D02*
Y1488977D01*
X2007150Y1483305D02*
Y1487977D01*
X2037693Y1487434D02*
Y1483848D01*
X2035986Y1482141*
X2024400*
X2022693Y1483848*
Y1487434*
X2024400Y1489141*
X2035986*
X2037693Y1487434*
X2024399Y1482142D02*
X2035987D01*
X2023399Y1483142D02*
X2036987D01*
X2022693Y1484142D02*
X2037693D01*
X2022693Y1485142D02*
X2037693D01*
X2022693Y1486142D02*
X2037693D01*
X2022693Y1487142D02*
X2037693D01*
X2023401Y1488142D02*
X2036985D01*
X2023150Y1483391D02*
Y1487891D01*
X2024150Y1482391D02*
Y1488891D01*
X2025150Y1482141D02*
Y1489141D01*
X2026150Y1482141D02*
Y1489141D01*
X2027150Y1482141D02*
Y1489141D01*
X2028150Y1482141D02*
Y1489141D01*
X2029150Y1482141D02*
Y1489141D01*
X2030150Y1482141D02*
Y1489141D01*
X2031150Y1482141D02*
Y1489141D01*
X2032150Y1482141D02*
Y1489141D01*
X2033150Y1482141D02*
Y1489141D01*
X2034150Y1482141D02*
Y1489141D01*
X2035150Y1482141D02*
Y1489141D01*
X2036150Y1482305D02*
Y1488977D01*
X2037150Y1483305D02*
Y1487977D01*
X1929964Y1546092D02*
X1925378D01*
X1925378D02*
X1923171Y1548299D01*
Y1558885*
X1925378Y1561092*
X1925378D02*
X1929964D01*
X1932171Y1558885*
Y1548299*
X1929964Y1546092*
X1925328Y1546142D02*
X1930014D01*
X1924328Y1547142D02*
X1931014D01*
X1923328Y1548142D02*
X1932014D01*
X1923171Y1549142D02*
X1932171D01*
X1923171Y1550142D02*
X1932171D01*
X1923171Y1551142D02*
X1932171D01*
X1923171Y1552142D02*
X1932171D01*
X1923171Y1553142D02*
X1932171D01*
X1923171Y1554142D02*
X1932171D01*
X1923171Y1555142D02*
X1932171D01*
X1923171Y1556142D02*
X1932171D01*
X1923171Y1557142D02*
X1932171D01*
X1923171Y1558142D02*
X1932171D01*
X1923429Y1559142D02*
X1931914D01*
X1924429Y1560142D02*
X1930914D01*
X1924150Y1547321D02*
Y1559863D01*
X1925150Y1546321D02*
Y1560863D01*
X1926150Y1546092D02*
Y1561092D01*
X1927150Y1546092D02*
Y1561092D01*
X1928150Y1546092D02*
Y1561092D01*
X1929150Y1546092D02*
Y1561092D01*
X1930150Y1546277D02*
Y1560906D01*
X1931150Y1547277D02*
Y1559906D01*
X1932150Y1548277D02*
Y1558906D01*
X1975964Y1546092D02*
X1971378D01*
X1969171Y1548299*
Y1558885*
X1971378Y1561092*
X1975964*
X1978171Y1558885*
Y1548299*
X1975964Y1546092*
X1971328Y1546142D02*
X1976014D01*
X1970328Y1547142D02*
X1977014D01*
X1969328Y1548142D02*
X1978014D01*
X1969171Y1549142D02*
X1978171D01*
X1969171Y1550142D02*
X1978171D01*
X1969171Y1551142D02*
X1978171D01*
X1969171Y1552142D02*
X1978171D01*
X1969171Y1553142D02*
X1978171D01*
X1969171Y1554142D02*
X1978171D01*
X1969171Y1555142D02*
X1978171D01*
X1969171Y1556142D02*
X1978171D01*
X1969171Y1557142D02*
X1978171D01*
X1969171Y1558142D02*
X1978171D01*
X1969428Y1559142D02*
X1977914D01*
X1970428Y1560142D02*
X1976914D01*
X1970150Y1547321D02*
Y1559863D01*
X1971150Y1546321D02*
Y1560863D01*
X1972150Y1546092D02*
Y1561092D01*
X1973150Y1546092D02*
Y1561092D01*
X1974150Y1546092D02*
Y1561092D01*
X1975150Y1546092D02*
Y1561092D01*
X1976150Y1546277D02*
Y1560906D01*
X1977150Y1547277D02*
Y1559906D01*
X1978150Y1548277D02*
Y1558906D01*
X1950942Y1584098D02*
X1947356D01*
X1945649Y1585806*
Y1597391*
X1947356Y1599098*
X1950942*
X1952649Y1597391*
Y1585806*
X1950942Y1584098*
X1947313Y1584142D02*
X1950985D01*
X1946313Y1585142D02*
X1951985D01*
X1945649Y1586142D02*
X1952649D01*
X1945649Y1587142D02*
X1952649D01*
X1945649Y1588142D02*
X1952649D01*
X1945649Y1589142D02*
X1952649D01*
X1945649Y1590142D02*
X1952649D01*
X1945649Y1591142D02*
X1952649D01*
X1945649Y1592142D02*
X1952649D01*
X1945649Y1593142D02*
X1952649D01*
X1945649Y1594142D02*
X1952649D01*
X1945649Y1595142D02*
X1952649D01*
X1945649Y1596142D02*
X1952649D01*
X1945649Y1597142D02*
X1952649D01*
X1946399Y1598142D02*
X1951898D01*
X1946150Y1585305D02*
Y1597892D01*
X1947150Y1584305D02*
Y1598892D01*
X1948150Y1584098D02*
Y1599098D01*
X1949150Y1584098D02*
Y1599098D01*
X1950150Y1584098D02*
Y1599098D01*
X1951150Y1584306D02*
Y1598891D01*
X1952150Y1585306D02*
Y1597891D01*
X1827683Y1921472D02*
X1829238D01*
X1829929Y1920781*
Y1914502*
X1829238Y1913811*
X1827683*
X1826992Y1914502*
Y1920781*
X1827683Y1921472*
X1827353Y1914142D02*
X1829568D01*
X1826992Y1915142D02*
X1829929D01*
X1826992Y1916142D02*
X1829929D01*
X1826992Y1917142D02*
X1829929D01*
X1826992Y1918142D02*
X1829929D01*
X1826992Y1919142D02*
X1829929D01*
X1826992Y1920142D02*
X1829929D01*
X1827353Y1921142D02*
X1829568D01*
X1827150Y1914345D02*
Y1920939D01*
X1828150Y1913811D02*
Y1921472D01*
X1829150Y1913811D02*
Y1921472D01*
X1815872D02*
X1817427D01*
X1818118Y1920781*
Y1914502*
X1817427Y1913811*
X1815872*
X1815181Y1914502*
Y1920781*
X1815872Y1921472*
X1815542Y1914142D02*
X1817757D01*
X1815181Y1915142D02*
X1818118D01*
X1815181Y1916142D02*
X1818118D01*
X1815181Y1917142D02*
X1818118D01*
X1815181Y1918142D02*
X1818118D01*
X1815181Y1919142D02*
X1818118D01*
X1815181Y1920142D02*
X1818118D01*
X1815542Y1921142D02*
X1817757D01*
X1816150Y1913811D02*
Y1921472D01*
X1817150Y1913811D02*
Y1921472D01*
G54D12*
X2055900Y1317142D03*
X2042400D03*
X2055650Y1343892D03*
Y1330392D03*
X2042150Y1343892D03*
Y1330392D03*
X2006400Y1338142D03*
X2019900D03*
X2139150Y1624392D03*
Y1637892D03*
X2063198Y1944134D03*
Y1930634D03*
X2049642Y1873594D03*
X2036142D03*
X1982102Y1842150D03*
Y1855650D03*
X2163658Y1294190D03*
X2177158D03*
X2135103Y1294158D03*
Y1308158D03*
X2148666Y1308688D03*
X2162666D03*
X2168380Y1267021D03*
Y1281021D03*
X2135175Y1333142D03*
Y1319142D03*
X1971400Y1730142D03*
X1984900D03*
X2161198Y1372634D03*
Y1359134D03*
G54D16*
X1803150Y1983858D02*
X2196850D01*
Y1216142*
X1803150*
Y1983858*
X1877879Y1874123D02*
G75*
G03X1877879I-3416J0D01*
G01X1933069Y1874098D02*
G03X1933069I-3517J0D01*
G54D24*
G54D72*
G01X1902650Y1695142D03*
Y1582937D03*
G54D73*
X1860599Y1764197D03*
X1862173Y1800024D03*
X1863748Y1764197D03*
X1865323Y1800024D03*
X1866898Y1764197D03*
X1868473Y1800024D03*
X1870047Y1764197D03*
X1871622Y1800024D03*
X1873197Y1764197D03*
X1874772Y1800024D03*
X1876347Y1764197D03*
X1877922Y1800024D03*
X1879496Y1764197D03*
X1881071Y1800024D03*
X1882646Y1764197D03*
X1884221Y1800024D03*
X1898394Y1764197D03*
X1899969Y1800024D03*
X1901544Y1764197D03*
X1903118Y1800024D03*
X1904693Y1764197D03*
X1906268Y1800024D03*
X1907843Y1764197D03*
X1909418Y1800024D03*
X1910992Y1764197D03*
X1912567Y1800024D03*
X1914142Y1764197D03*
X1915717Y1800024D03*
X1917292Y1764197D03*
X1918866Y1800024D03*
X1920441Y1764197D03*
X1922016Y1800024D03*
X1923591Y1764197D03*
X1925166Y1800024D03*
X1926740Y1764197D03*
X1928315Y1800024D03*
X1929890Y1764197D03*
X1931465Y1800024D03*
X1933040Y1764197D03*
X1934614Y1800024D03*
X1936189Y1764197D03*
X1937764Y1800024D03*
X1939339Y1764197D03*
X1940914Y1800024D03*
X1942488Y1764197D03*
X1944063Y1800024D03*
X1945638Y1764197D03*
X1947213Y1800024D03*
X1948788Y1764197D03*
X1950362Y1800024D03*
X1951937Y1764197D03*
X1953512Y1800024D03*
G54D74*
X1961599Y1763697D03*
G54D75*
X1849599D03*
X1963150Y1696642D03*
G54D76*
X1894145Y1745627D03*
X1877654Y1535657D03*
G54D77*
X1894245Y1738927D03*
X1894345Y1732227D03*
Y1725527D03*
X1894145Y1718827D03*
X1877554Y1542357D03*
X1877454Y1549057D03*
Y1555757D03*
X1877654Y1562457D03*
G54D78*
X1946113Y1733028D03*
X1825686Y1548255D03*
G54D79*
X1816028Y1654299D03*
Y1729102D03*
G54D80*
X1839650Y1719260D03*
Y1711386D03*
Y1695638D03*
Y1687764D03*
Y1679890D03*
Y1672016D03*
G54D81*
Y1703512D03*
Y1664142D03*
G54D82*
X2040425Y1855842D03*
G54D83*
X2038456D03*
X2036488D03*
X2034519D03*
X2032551D03*
X2030582D03*
X2028614D03*
X2026645D03*
X2024677D03*
X2022708D03*
X2020740D03*
X2018771D03*
Y1818440D03*
X2020740D03*
X2022708D03*
X2024677D03*
X2026645D03*
X2028614D03*
X2030582D03*
X2032551D03*
X2034519D03*
X2036488D03*
X2038456D03*
X2040425D03*
G54D84*
X2010897Y1847968D03*
Y1845999D03*
Y1844031D03*
Y1842062D03*
Y1840094D03*
Y1838125D03*
Y1836157D03*
Y1834188D03*
Y1832220D03*
Y1830251D03*
Y1828283D03*
Y1826314D03*
X2048299D03*
Y1828283D03*
Y1830251D03*
Y1832220D03*
Y1834188D03*
Y1836157D03*
Y1838125D03*
Y1840094D03*
Y1842062D03*
Y1844031D03*
Y1845999D03*
Y1847968D03*
G54D85*
X1990625Y1608166D03*
X2145125Y1702166D03*
X2166125Y1349166D03*
X2140625Y1473666D03*
X2081150Y1597142D03*
G54D86*
X1990625Y1603166D03*
Y1598166D03*
Y1593142D03*
X2010650D03*
Y1598166D03*
Y1603166D03*
Y1608166D03*
X2145125Y1697166D03*
Y1692166D03*
Y1687142D03*
X2165150D03*
Y1692166D03*
Y1697166D03*
Y1702166D03*
X2166125Y1344166D03*
Y1339166D03*
Y1334166D03*
X2186125D03*
Y1339166D03*
Y1344166D03*
Y1349166D03*
X2140625Y1468666D03*
Y1463666D03*
Y1458666D03*
X2160625D03*
Y1463666D03*
Y1468666D03*
Y1473666D03*
X2081150Y1602142D03*
Y1607142D03*
Y1612142D03*
X2055650D03*
Y1607142D03*
Y1602142D03*
Y1597142D03*
G54D87*
X2139641Y1601176D03*
X2130641D03*
X2139641Y1612676D03*
X2130641D03*
X1990141Y1801676D03*
X1981141D03*
G54D88*
X2122958Y1365142D03*
X2115350D03*
X2144150Y1298950D03*
Y1291342D03*
X2093958Y1365142D03*
X2086350D03*
X2114458Y1862642D03*
X2106850D03*
X2151842Y1788142D03*
X2159450D03*
X2095342Y1468142D03*
X2102950D03*
X1995842Y1733142D03*
X2003450D03*
X1866842Y1744142D03*
X1874450D03*
X1986458Y1784142D03*
X1978850D03*
X1944958Y1699642D03*
X1937350D03*
X2122958Y1351142D03*
X2115350D03*
X2086342Y1342142D03*
X2093950D03*
X1956458Y1671642D03*
X1948850D03*
X2128458Y1634642D03*
X2120850D03*
X1999958Y1361142D03*
X1992350D03*
X2001458Y1457642D03*
X1993850D03*
X2063958Y1476142D03*
X2056350D03*
G54D89*
X2119150Y1357142D03*
X2090150D03*
X2110650Y1854642D03*
X2155650Y1796142D03*
X2099150Y1476142D03*
X1999650Y1741142D03*
X1870650Y1752142D03*
X1982650Y1776142D03*
X2055650Y1354220D03*
X1941150Y1691642D03*
X2119150Y1343142D03*
X2090150Y1350142D03*
X1952650Y1663642D03*
X2124650Y1626642D03*
X1996150Y1353142D03*
X1997650Y1449642D03*
X2060150Y1468142D03*
G54D90*
X2023614Y1722591D03*
Y1720622D03*
Y1718654D03*
Y1716685D03*
Y1714717D03*
Y1712748D03*
Y1710780D03*
Y1708811D03*
Y1706843D03*
Y1704874D03*
Y1702906D03*
Y1700937D03*
Y1698969D03*
Y1697000D03*
Y1695032D03*
Y1693063D03*
Y1691095D03*
Y1689126D03*
Y1687158D03*
Y1685189D03*
Y1683221D03*
Y1681252D03*
Y1679284D03*
Y1677315D03*
Y1675347D03*
Y1673378D03*
Y1671410D03*
Y1669441D03*
Y1667473D03*
Y1665504D03*
Y1663536D03*
Y1661567D03*
Y1659598D03*
Y1657630D03*
Y1655661D03*
Y1653693D03*
X2106685D03*
Y1655661D03*
Y1657630D03*
Y1659598D03*
Y1661567D03*
Y1663536D03*
Y1665504D03*
Y1667473D03*
Y1669441D03*
Y1671410D03*
Y1673378D03*
Y1675347D03*
Y1677315D03*
Y1679284D03*
Y1681252D03*
Y1683221D03*
Y1685189D03*
Y1687158D03*
Y1689126D03*
Y1691095D03*
Y1693063D03*
Y1695032D03*
Y1697000D03*
Y1698969D03*
Y1700937D03*
Y1702906D03*
Y1704874D03*
Y1706843D03*
Y1708811D03*
Y1710780D03*
Y1712748D03*
Y1714717D03*
Y1716685D03*
Y1718654D03*
Y1720622D03*
Y1722591D03*
G54D91*
X2030701Y1646606D03*
X2032669D03*
X2034638D03*
X2036606D03*
X2038575D03*
X2040543D03*
X2042512D03*
X2044480D03*
X2046449D03*
X2048417D03*
X2050386D03*
X2052354D03*
X2054323D03*
X2056291D03*
X2058260D03*
X2060228D03*
X2062197D03*
X2064165D03*
X2066134D03*
X2068102D03*
X2070071D03*
X2072039D03*
X2074008D03*
X2075976D03*
X2077945D03*
X2079913D03*
X2081882D03*
X2083850D03*
X2085819D03*
X2087787D03*
X2089756D03*
X2091724D03*
X2093693D03*
X2095661D03*
X2097630D03*
X2099598D03*
Y1729677D03*
X2097630D03*
X2095661D03*
X2093693D03*
X2091724D03*
X2089756D03*
X2087787D03*
X2085819D03*
X2083850D03*
X2081882D03*
X2079913D03*
X2077945D03*
X2075976D03*
X2074008D03*
X2072039D03*
X2070071D03*
X2068102D03*
X2066134D03*
X2064165D03*
X2062197D03*
X2060228D03*
X2058260D03*
X2056291D03*
X2054323D03*
X2052354D03*
X2050386D03*
X2048417D03*
X2046449D03*
X2044480D03*
X2042512D03*
X2040543D03*
X2038575D03*
X2036606D03*
X2034638D03*
X2032669D03*
X2030701D03*
G54D92*
X2152150Y1295142D03*
G54D93*
X2074650Y1905142D03*
G54D94*
X2077209D03*
X2079768D03*
X2082327D03*
X2084886D03*
X2087445D03*
X2090004D03*
X2092563D03*
X2095122D03*
X2097681D03*
Y1931126D03*
X2095122D03*
X2092563D03*
X2090004D03*
X2087445D03*
X2084886D03*
X2082327D03*
X2079768D03*
X2077209D03*
X2074650D03*
G54D95*
X1980150Y1886392D03*
Y1892892D03*
X2007150Y1886392D03*
Y1892892D03*
X1991900Y1832142D03*
X1998400D03*
X2048150Y1933892D03*
Y1927392D03*
X2054150Y1933892D03*
Y1927392D03*
X2060650Y1876392D03*
Y1869892D03*
X1998400Y1840142D03*
X1991900D03*
X1998400Y1846142D03*
X1991900D03*
X1998400Y1852142D03*
X1991900D03*
X1998400Y1858142D03*
X1991900D03*
X1998400Y1864142D03*
X1991900D03*
X1998400Y1870142D03*
X1991900D03*
X1992150Y1892892D03*
Y1886392D03*
X1977150Y1747392D03*
Y1740892D03*
X1858650Y1829892D03*
Y1836392D03*
X1864650Y1829892D03*
Y1836392D03*
X1853150Y1737892D03*
Y1731392D03*
X1891650Y1836392D03*
Y1829892D03*
X1983150Y1767892D03*
Y1761392D03*
X2104650Y1775892D03*
Y1782392D03*
X2129900Y1788642D03*
X2136400D03*
X2177900Y1703142D03*
X2184400D03*
X2104650Y1763392D03*
Y1769892D03*
X2098650D03*
Y1763392D03*
X2133150Y1948392D03*
Y1941892D03*
X2140150D03*
Y1948392D03*
X2121150Y1941892D03*
Y1948392D03*
X2115150D03*
Y1941892D03*
X2013150Y1886392D03*
Y1892892D03*
X2099400Y1448642D03*
X2105900D03*
X2009650Y1450392D03*
Y1456892D03*
X2080150Y1627392D03*
Y1620892D03*
X1916150Y1551892D03*
Y1545392D03*
X1910150Y1551892D03*
Y1545392D03*
X2063400Y1448642D03*
X2056900D03*
X2076150Y1468892D03*
Y1475392D03*
X2125150Y1377892D03*
Y1371392D03*
X2118150Y1377892D03*
Y1371392D03*
X2035400Y1448642D03*
X2028900D03*
X2082400Y1378142D03*
X2088900D03*
X2081900Y1448642D03*
X2075400D03*
X2036150Y1378392D03*
Y1371892D03*
X1996150Y1332392D03*
Y1338892D03*
X2101650Y1356892D03*
Y1363392D03*
Y1349392D03*
Y1342892D03*
X2178650Y1311392D03*
Y1304892D03*
X2007150Y1371392D03*
Y1377892D03*
X2184650Y1311392D03*
Y1304892D03*
X2179150Y1375392D03*
Y1368892D03*
X2186150D03*
Y1375392D03*
X2126150Y1470892D03*
Y1464392D03*
X2180150Y1467192D03*
Y1473692D03*
X2173150Y1467192D03*
Y1473692D03*
X2073900Y1488142D03*
X2080400D03*
X2073900Y1482142D03*
X2080400D03*
X2133150Y1861892D03*
Y1855392D03*
X2129650Y1796892D03*
Y1803392D03*
X2118650Y1842892D03*
Y1836392D03*
X2106650Y1819892D03*
Y1826392D03*
X2101650Y1377892D03*
Y1371392D03*
X2043650Y1886392D03*
Y1892892D03*
X2037150Y1886392D03*
Y1892892D03*
X2159400Y1758142D03*
X2152900D03*
X2159400Y1744642D03*
X2152900D03*
X2111400Y1884142D03*
X2117900D03*
X2111400Y1890142D03*
X2117900D03*
X2126900Y1735142D03*
X2133400D03*
X2159400Y1738642D03*
X2152900D03*
X2120150Y1470892D03*
Y1464392D03*
Y1450392D03*
Y1456892D03*
X2100650Y1861892D03*
Y1855392D03*
X2159400Y1780142D03*
X2152900D03*
X2030150Y1371892D03*
Y1378392D03*
X2028900Y1454642D03*
X2035400D03*
X2088900Y1371142D03*
X2082400D03*
X2075400Y1454642D03*
X2081900D03*
X2095650Y1371392D03*
Y1377892D03*
X2140900Y1670142D03*
X2134400D03*
X2068900Y1847142D03*
X2075400D03*
X2068900Y1841142D03*
X2075400D03*
X2184650Y1325392D03*
Y1318892D03*
X2109650Y1468892D03*
Y1475392D03*
X2082150D03*
Y1468892D03*
X2068900Y1823142D03*
X2075400D03*
X2068900Y1817142D03*
X2075400D03*
X2068900Y1811142D03*
X2075400D03*
X1998400Y1825642D03*
X1991900D03*
X2075400Y1853142D03*
X2068900D03*
X2075400Y1859142D03*
X2068900D03*
X2075400Y1865142D03*
X2068900D03*
X2075400Y1871142D03*
X2068900D03*
Y1835142D03*
X2075400D03*
X2068900Y1829142D03*
X2075400D03*
X2106650Y1842892D03*
Y1836392D03*
X2101150Y1509392D03*
Y1502892D03*
X2172650Y1304892D03*
Y1311392D03*
X2152900Y1764142D03*
X2159400D03*
X1867400Y1695642D03*
X1860900D03*
X2130400Y1884142D03*
X2136900D03*
X2130400Y1890142D03*
X2136900D03*
X2152900Y1770142D03*
X2159400D03*
X1867400Y1689642D03*
X1860900D03*
X2143900Y1508142D03*
X2150400D03*
X2121400Y1601142D03*
X2114900D03*
X2121400Y1612642D03*
X2114900D03*
X2143900Y1500142D03*
X2150400D03*
X2135899Y1648142D03*
X2142399D03*
X2019150Y1892892D03*
Y1886392D03*
X2008650Y1860892D03*
Y1867392D03*
X1860400Y1588142D03*
X1853900D03*
X1860399Y1609142D03*
X1853899D03*
X1969650Y1648392D03*
Y1641892D03*
X2026400Y1802142D03*
X2019900D03*
X2032900D03*
X2039400D03*
X2056900Y1454642D03*
X2063400D03*
X2088150Y1475392D03*
Y1468892D03*
X2073650Y1349392D03*
Y1342892D03*
X2131650Y1349392D03*
Y1342892D03*
X2026400Y1808142D03*
X2032900D03*
X2112650Y1836392D03*
Y1842892D03*
X2118650Y1826392D03*
Y1819892D03*
X2126150Y1456892D03*
Y1450392D03*
X2154900Y1347142D03*
X2148400D03*
X2079650Y1356892D03*
Y1363392D03*
X2160650Y1318892D03*
Y1325392D03*
X2080400Y1494142D03*
X2073900D03*
X2091150Y1884892D03*
Y1891392D03*
X2097150Y1884892D03*
Y1891392D03*
X2079150Y1884892D03*
Y1891392D03*
X2085150Y1884892D03*
Y1891392D03*
X2070150Y1475392D03*
Y1468892D03*
X2079650Y1342892D03*
Y1349392D03*
X2138150Y1342892D03*
Y1349392D03*
X2178650Y1318892D03*
Y1325392D03*
X2166650Y1318892D03*
Y1325392D03*
X2172650D03*
Y1318892D03*
X1897650Y1836392D03*
Y1829892D03*
X1915650Y1836392D03*
Y1829892D03*
X1876650Y1836392D03*
Y1829892D03*
X1909650Y1836392D03*
Y1829892D03*
X1853900Y1594142D03*
X1860400D03*
X1853900Y1600142D03*
X1860400D03*
X2112150Y1371392D03*
Y1377892D03*
X1995150Y1371392D03*
Y1377892D03*
X2100650Y1842892D03*
Y1836392D03*
X2112650Y1819892D03*
Y1826392D03*
X2121150Y1855392D03*
Y1861892D03*
X2127150Y1855392D03*
Y1861892D03*
X2136150Y1803392D03*
Y1796892D03*
X2142150Y1803392D03*
Y1796892D03*
X2025150Y1892892D03*
Y1886392D03*
X2031150Y1892892D03*
Y1886392D03*
X2128650Y1640892D03*
Y1647392D03*
X2073650Y1377892D03*
Y1371392D03*
X2145150Y1318892D03*
Y1325392D03*
X2001150Y1377892D03*
Y1371392D03*
X2065650Y1377792D03*
Y1371292D03*
X2151650Y1325392D03*
Y1318892D03*
X2073650Y1363392D03*
Y1356892D03*
X2001150Y1892892D03*
Y1886392D03*
X1986150Y1892892D03*
Y1886392D03*
X2000150Y1715392D03*
Y1708892D03*
X2104650Y1747892D03*
Y1754392D03*
X2124400Y1702642D03*
X2130900D03*
X2124400Y1708642D03*
X2130900D03*
X2119400Y1670142D03*
X2125900D03*
X2098650Y1747892D03*
Y1754392D03*
X2086150Y1627392D03*
Y1620892D03*
X2047150Y1761392D03*
Y1767892D03*
X1909400Y1558142D03*
X1915900D03*
X2092150Y1627392D03*
Y1620892D03*
X1968650Y1616892D03*
Y1610392D03*
X2036400Y1623642D03*
X2042900D03*
X2021150Y1623392D03*
Y1616892D03*
X2003150D03*
Y1623392D03*
X2041150Y1761392D03*
Y1767892D03*
X1994150Y1715392D03*
Y1708892D03*
X2036400Y1617642D03*
X2042900D03*
X2119400Y1664142D03*
X2125900D03*
X2092650Y1747892D03*
Y1754392D03*
X2124400Y1714642D03*
X2130900D03*
X1988150Y1715392D03*
Y1708892D03*
X1902400Y1552142D03*
X1895900D03*
X1965150Y1747392D03*
Y1740892D03*
X1989650D03*
Y1747392D03*
X2054150Y1948392D03*
Y1941892D03*
X2013150Y1371392D03*
Y1377892D03*
X2105900Y1454642D03*
X2099400D03*
X2009400Y1464142D03*
X2015900D03*
X2048150Y1948392D03*
Y1941892D03*
X1963650Y1648392D03*
Y1641892D03*
X1974650Y1610392D03*
Y1616892D03*
X2027150Y1623392D03*
Y1616892D03*
X2015150Y1623392D03*
Y1616892D03*
X1997150D03*
Y1623392D03*
X1968900Y1678142D03*
X1962400D03*
X1949900D03*
X1956400D03*
X2059650Y1377792D03*
Y1371292D03*
X2140900Y1664142D03*
X2134400D03*
X2159900Y1711642D03*
X2153400D03*
X2124400Y1690642D03*
X2130900D03*
X2124400Y1696642D03*
X2130900D03*
X2184400Y1697142D03*
X2177900D03*
X2184400Y1691142D03*
X2177900D03*
X2184400Y1685142D03*
X2177900D03*
X2099900Y1611642D03*
X2093400D03*
X2099900Y1605642D03*
X2093400D03*
X2099900Y1599642D03*
X2093400D03*
X2036400D03*
X2042900D03*
X2036400Y1605642D03*
X2042900D03*
X2036400Y1611642D03*
X2042900D03*
X2009650Y1740892D03*
Y1734392D03*
X1989650Y1767892D03*
Y1761392D03*
X1985900Y1791642D03*
X1979400D03*
X1983150Y1740892D03*
Y1747392D03*
X1872400Y1738142D03*
X1878900D03*
X1996400Y1726142D03*
X2002900D03*
X1853150Y1750892D03*
Y1744392D03*
X1882650Y1836392D03*
Y1829892D03*
X1962400Y1684642D03*
X1968900D03*
X1983400Y1811142D03*
X1989900D03*
X2009150Y1616892D03*
Y1623392D03*
X2005900Y1701642D03*
X1999400D03*
X2007150Y1667892D03*
Y1674392D03*
X2005900Y1691642D03*
X1999400D03*
X2007150Y1660392D03*
Y1653892D03*
X2015650Y1450392D03*
Y1456892D03*
X1895900Y1558142D03*
X1902400D03*
X1859150Y1750892D03*
Y1744392D03*
X1921650Y1836392D03*
Y1829892D03*
X1903650Y1836392D03*
Y1829892D03*
X1870650Y1836392D03*
Y1829892D03*
X2000400Y1464142D03*
X1993900D03*
X1902650Y1545392D03*
Y1538892D03*
X1971150Y1740892D03*
Y1747392D03*
X1859150Y1731392D03*
Y1737892D03*
X1859900Y1724142D03*
X1853400D03*
X2171150Y1375392D03*
Y1368892D03*
X2131150Y1371392D03*
Y1377892D03*
G54D96*
X2005356Y1762106D03*
X1993356Y1531106D03*
X1974944Y1591677D03*
G54D97*
X2181650Y1279441D03*
Y1266843D03*
G54D98*
X1989150Y1645142D03*
Y1679142D03*
G54D99*
X2059450Y1364063D03*
X2051850D03*
G54D100*
X2153150Y1852283D03*
Y1870000D03*
G54D101*
X2112291Y1504142D03*
X2130008D03*
G54D102*
X2163141Y1504167D03*
X2177141D03*
X2154158Y1280117D03*
X2140158D03*
X2154158Y1264117D03*
X2140158D03*
G54D103*
X2152675Y1898650D03*
Y1884650D03*
G54D104*
X2151150Y1393142D03*
X2161150D03*
X2171150D03*
X2181150D03*
Y1440386D03*
X2171150D03*
X2161150D03*
X2151150D03*
G54D105*
X2190150Y1293142D03*
X2181150Y1936142D03*
X1815150D03*
G54D106*
X2031180Y1396581D03*
X2041180D03*
Y1432581D03*
X2031180D03*
X2079180Y1396581D03*
X2089180D03*
Y1432581D03*
X2079180D03*
X2065120Y1432702D03*
X2055120D03*
Y1396702D03*
X2065120D03*
X2103180Y1396581D03*
X2113180D03*
Y1432581D03*
X2103180D03*
X2009620Y1432702D03*
X1999620D03*
Y1396702D03*
X2009620D03*
G54D107*
X1952684Y1645150D03*
Y1654150D03*
X1966184Y1659150D03*
Y1668150D03*
X2010116Y1361133D03*
Y1352133D03*
G54D108*
X2140120Y1930161D03*
X2135120D03*
X2130120D03*
X2125120D03*
X2120120D03*
X2115120D03*
X2110120D03*
X2105120D03*
Y1908161D03*
X2110120D03*
X2115120D03*
X2120120D03*
X2125120D03*
X2130120D03*
X2135120D03*
X2140120D03*
G54D109*
X2121130Y1780112D03*
Y1775112D03*
Y1770112D03*
Y1765112D03*
Y1760112D03*
Y1755112D03*
Y1750112D03*
Y1745112D03*
X2143130D03*
Y1750112D03*
Y1755112D03*
Y1760112D03*
Y1765112D03*
Y1770112D03*
Y1775112D03*
Y1780112D03*
G54D110*
X2136150Y1435902D03*
X2131150D03*
X2126150D03*
Y1393382D03*
X2131150D03*
X2136150D03*
G54D111*
X2128125Y1820117D03*
G54D112*
X2133125D03*
X2138125D03*
X2143150D03*
Y1840142D03*
X2138125D03*
X2133125D03*
X2128125D03*
G54D113*
X1848400Y1623142D03*
X1839900D03*
X2051400Y1886142D03*
X2059900D03*
G54D114*
X1823685Y1793348D03*
X1823114Y1858936D03*
X2000114Y1511436D03*
X2030114D03*
G54D115*
X1824150Y1756406D03*
Y1776878D03*
G54D116*
X1942107Y1935783D03*
X1862107D03*
G54D117*
X1889599Y1851197D03*
G54D118*
X1899599D03*
X1909599D03*
X1894599D03*
X1904599D03*
X1914599D03*
X1884599D03*
G54D119*
X2025622Y1878092D03*
X2021881D03*
X2018141D03*
Y1869037D03*
X2021881D03*
X2025622D03*
G54D120*
X1837650Y1605142D03*
G54D121*
Y1598142D03*
X1846250D03*
Y1605642D03*
G54D122*
X2001125Y1560172D03*
G54D123*
X2032621D03*
G54D124*
X2011150Y1789142D03*
X2045150D03*
G54D125*
X2150687Y1373148D03*
X2138898D03*
G54D126*
X2144703Y1362597D03*
G54D127*
X2144803Y1372097D03*
G54D128*
X1822555Y1911142D03*
G54D129*
X1822650Y1924142D03*
G74*
X0Y0D02*
M02*
