*
*
G04 PADS 9.5 Build Number: 522968 generated Gerber (RS-274-X) file*
G04 PC Version=2.1*
*
%IN "MT-RGBLVDS-A1 (2).pcb"*%
*
%MOIN*%
*
%FSLAX35Y35*%
*
*
*
*
G04 PC Standard Apertures*
*
*
G04 Thermal Relief Aperture macro.*
%AMTER*
1,1,$1,0,0*
1,0,$1-$2,0,0*
21,0,$3,$4,0,0,45*
21,0,$3,$4,0,0,135*
%
*
*
G04 Annular Aperture macro.*
%AMANN*
1,1,$1,0,0*
1,0,$2,0,0*
%
*
*
G04 Odd Aperture macro.*
%AMODD*
1,1,$1,0,0*
1,0,$1-0.005,0,0*
%
*
*
G04 PC Custom Aperture Macros*
*
*
*
*
*
*
G04 PC Aperture Table*
*
%ADD010C,0.01*%
%ADD014C,0.03*%
%ADD015C,0.02*%
%ADD017C,0.025*%
%ADD023C,0.008*%
%ADD024C,0.001*%
%ADD037C,0.03937*%
%ADD038C,0.1*%
%ADD039C,0.08661*%
%ADD044O,0.05512X0.04331*%
%ADD047C,0.21654*%
%ADD050O,0.04331X0.05118*%
%ADD052C,0.05315*%
%ADD053R,0.077X0.055*%
*
*
*
*
G04 PC Circuitry*
G04 Layer Name MT-RGBLVDS-A1 (2).pcb - circuitry*
%LPD*%
*
*
G04 PC Custom Flashes*
G04 Layer Name MT-RGBLVDS-A1 (2).pcb - flashes*
%LPD*%
*
*
G04 PC Circuitry*
G04 Layer Name MT-RGBLVDS-A1 (2).pcb - circuitry*
%LPD*%
*
G54D10*
G01X2034395Y1581877D02*
X2034910Y1583095D01*
X2035425Y1581877*
X2034910Y1583095D02*
Y1582082D01*
X2006060Y1592111D02*
X2006557Y1590886D01*
X2005331Y1591383*
X2006557Y1590886D02*
X2005841Y1591602D01*
X2034910Y1581332D02*
Y1586932D01*
X2033710Y1588132*
X2009310*
X2005310Y1592132*
X1968079Y1521232D02*
G75*
G03X1968079I-3969J0D01*
G01Y1531232D02*
G03X1968079I-3969J0D01*
G01X1978079Y1521232D02*
G03X1978079I-3969J0D01*
G01X1884610Y1545147D02*
Y1665318D01*
X1884757Y1665672D02*
G03X1884610Y1665318I353J-354D01*
G01X1884757Y1665672D02*
X1887671Y1668586D01*
X1888024Y1668732D02*
G03X1887671Y1668586I0J-500D01*
G01X1888024Y1668732D02*
X1897869D01*
X1897959Y1668724D02*
G03X1897869Y1668732I-90J-492D01*
G01X1897959Y1668724D02*
G03X1921614Y1691006I3616J19859D01*
G01X1921610Y1691066D02*
G03X1921614Y1691006I500J-0D01*
G01X1921610Y1691066D02*
Y1701318D01*
X1921757Y1701672D02*
G03X1921610Y1701318I353J-354D01*
G01X1921757Y1701672D02*
X1925171Y1705086D01*
X1925524Y1705232D02*
G03X1925171Y1705086I0J-500D01*
G01X1925524Y1705232D02*
X2055696D01*
X2056050Y1705086D02*
G03X2055696Y1705232I-354J-354D01*
G01X2056050Y1705086D02*
X2079380Y1681755D01*
X2079496Y1681575D02*
G03X2079380Y1681755I-469J-173D01*
G01X2079496Y1681575D02*
G03X2101679Y1668662I18929J7008D01*
G01X2102114Y1668522D02*
G03X2101679Y1668662I-354J-354D01*
G01X2102114Y1668522D02*
X2115464Y1655172D01*
X2115610Y1654818D02*
G03X2115464Y1655172I-500J0D01*
G01X2115610Y1654818D02*
Y1548647D01*
X2115464Y1548293D02*
G03X2115610Y1548647I-354J354D01*
G01X2115464Y1548293D02*
X2098919Y1531748D01*
X2098562Y1531602D02*
G03X2098919Y1531748I4J500D01*
G01X2098562Y1531602D02*
G03X2078258Y1512274I-137J-20185D01*
G01X2078112Y1511942D02*
G03X2078258Y1512274I-353J353D01*
G01X2078112Y1511942D02*
X2060550Y1494379D01*
X2060196Y1494232D02*
G03X2060550Y1494379I0J500D01*
G01X2060196Y1494232D02*
X1941524D01*
X1941171Y1494379D02*
G03X1941524Y1494232I353J353D01*
G01X1941171Y1494379D02*
X1921721Y1513829D01*
X1921579Y1514116D02*
G03X1921721Y1513829I495J67D01*
G01X1921579Y1514116D02*
G03X1898476Y1531363I-20004J-2699D01*
G01X1898046Y1531504D02*
G03X1898476Y1531363I354J353D01*
G01X1898046Y1531504D02*
X1884757Y1544793D01*
X1884610Y1545147D02*
G03X1884757Y1544793I500J-0D01*
G01X1968079Y1521232D02*
G03X1968079I-3969J0D01*
G01Y1531232D02*
G03X1968079I-3969J0D01*
G01X1958512Y1571063D02*
Y1570276D01*
G03X1959968Y1567112I4165J-0*
G01Y1566353D02*
G03Y1567112I-326J379D01*
G01Y1566353D02*
G03X1958512Y1563189I2709J-3164D01*
G01Y1562402*
G03X1966843I4165J-0*
G01Y1563189*
G03X1965387Y1566353I-4166J-0*
G01Y1567112D02*
G03Y1566353I325J-380D01*
G01Y1567112D02*
G03X1966843Y1570276I-2710J3164D01*
G01Y1571063*
G03X1958512I-4166J-0*
G01X1978079Y1521232D02*
G03X1978079I-3969J0D01*
G01X1989933Y1521976D02*
G03Y1515488I-3342J-3244D01*
G01X1990650D02*
G03X1989933I-359J-348D01*
G01X1990650D02*
G03Y1521976I3342J3244D01*
G01X1989933D02*
G03X1990650I358J348D01*
G01X1971747Y1534421D02*
G03X1977978Y1530344I2363J-3189D01*
G01X1978465Y1530732D02*
G03X1977978Y1530344I0J-500D01*
G01X1978465Y1530732D02*
X1981985D01*
X1982180Y1530693D02*
G03X1981985Y1530732I-195J-461D01*
G01X1982180Y1530693D02*
X1983733Y1530036D01*
X1983834Y1529978D02*
G03X1983733Y1530036I-296J-403D01*
G01X1983834Y1529978D02*
G03X1987762Y1529224I2757J3754D01*
G01X1987888Y1529241D02*
G03X1987762Y1529224I-0J-500D01*
G01X1987888Y1529241D02*
X1992695D01*
X1992821Y1529224D02*
G03X1992695Y1529241I-126J-483D01*
G01X1992821Y1529224D02*
G03X1995163I1171J4508D01*
G01X1995289Y1529241D02*
G03X1995163Y1529224I0J-500D01*
G01X1995289Y1529241D02*
X1997005D01*
X1997442Y1528497D02*
G03X1997005Y1529241I-437J244D01*
G01X1997442Y1528497D02*
G03X2004907Y1523044I4070J-2265D01*
G01X2005636D02*
G03X2004907I-364J-342D01*
G01X2005636D02*
G03X2005834Y1522846I3395J3188D01*
G01Y1522119D02*
G03Y1522846I-343J363D01*
G01Y1522119D02*
G03X2012427Y1515544I3197J-3387D01*
G01X2013156D02*
G03X2012427I-365J-342D01*
G01X2013156D02*
G03X2019749Y1522119I3395J3188D01*
G01Y1522846D02*
G03Y1522119I343J-364D01*
G01Y1522846D02*
G03Y1529619I-3198J3386D01*
G01Y1530346D02*
G03Y1529619I343J-364D01*
G01Y1530346D02*
G03X2013156Y1536920I-3198J3386D01*
G01X2012427D02*
G03X2013156I364J343D01*
G01X2012427D02*
G03X2005636I-3396J-3188D01*
G01X2004907D02*
G03X2005636I365J343D01*
G01X2004907D02*
G03X2000341Y1538240I-3395J-3188D01*
G01X2000215Y1538224D02*
G03X2000341Y1538240I-0J500D01*
G01X2000215Y1538224D02*
X1995289D01*
X1995163Y1538240D02*
G03X1995289Y1538224I126J484D01*
G01X1995163Y1538240D02*
G03X1992821I-1171J-4508D01*
G01X1992695Y1538224D02*
G03X1992821Y1538240I0J500D01*
G01X1992695Y1538224D02*
X1987888D01*
X1987762Y1538240D02*
G03X1987888Y1538224I126J484D01*
G01X1987762Y1538240D02*
G03X1983834Y1537486I-1171J-4508D01*
G01X1983733Y1537429D02*
G03X1983834Y1537486I-195J460D01*
G01X1983733Y1537429D02*
X1982180Y1536772D01*
X1981985Y1536732D02*
G03X1982180Y1536772I0J500D01*
G01X1981985Y1536732D02*
X1975310D01*
G03X1973189Y1535854I0J-3000*
G01X1971992Y1534656*
X1971991D02*
X1971802Y1534468D01*
X1971747Y1534421D02*
G03X1971802Y1534468I-297J401D01*
G01X1974260Y1571063D02*
Y1570276D01*
G03X1975716Y1567112I4165J-0*
G01Y1566353D02*
G03Y1567112I-326J379D01*
G01Y1566353D02*
G03X1974260Y1563189I2709J-3164D01*
G01Y1562402*
G03X1981940Y1560167I4165J-0*
G01X1982784D02*
G03X1981940I-422J-269D01*
G01X1982784D02*
G03X1990465Y1562402I3515J2235D01*
G01Y1563189*
G03X1982784Y1565424I-4166J-0*
G01X1981940D02*
G03X1982784I422J268D01*
G01X1981940D02*
G03X1981135Y1566353I-3515J-2235D01*
G01Y1567112D02*
G03Y1566353I325J-380D01*
G01Y1567112D02*
G03X1982591Y1570276I-2710J3164D01*
G01Y1571063*
G03X1974260I-4166J-0*
G01X2034986Y1536920D02*
G03X2028393Y1530346I-3395J-3188D01*
G01Y1529619D02*
G03Y1530346I-343J363D01*
G01Y1529619D02*
G03Y1522846I3198J-3387D01*
G01Y1522119D02*
G03Y1522846I-343J363D01*
G01Y1522119D02*
G03X2034986Y1515544I3198J-3387D01*
G01X2035715D02*
G03X2034986I-365J-342D01*
G01X2035715D02*
G03X2042308Y1522119I3395J3188D01*
G01Y1522846D02*
G03Y1522119I343J-364D01*
G01Y1522846D02*
G03Y1529619I-3198J3386D01*
G01Y1530346D02*
G03Y1529619I343J-364D01*
G01Y1530346D02*
G03X2035715Y1536920I-3198J3386D01*
G01X2034986D02*
G03X2035715I364J343D01*
G01X1990008Y1571063D02*
Y1570276D01*
G03X1997688Y1568041I4165J-0*
G01X1998532D02*
G03X1997688I-422J-269D01*
G01X1998532D02*
G03X1999338Y1567112I3515J2235D01*
G01Y1566353D02*
G03Y1567112I-326J379D01*
G01Y1566353D02*
G03X1997882Y1563189I2709J-3164D01*
G01Y1562402*
G03X2005562Y1560167I4165J-0*
G01X2006406D02*
G03X2005562I-422J-269D01*
G01X2006406D02*
G03X2013436I3515J2235D01*
G01X2014280D02*
G03X2013436I-422J-269D01*
G01X2014280D02*
G03X2021310I3515J2235D01*
G01X2022154D02*
G03X2021310I-422J-269D01*
G01X2022154D02*
G03X2029184I3515J2235D01*
G01X2030028D02*
G03X2029184I-422J-269D01*
G01X2030028D02*
G03X2037709Y1562402I3515J2235D01*
G01Y1563189*
G03X2036253Y1566353I-4166J-0*
G01Y1567112D02*
G03Y1566353I325J-380D01*
G01Y1567112D02*
G03X2037709Y1570276I-2710J3164D01*
G01Y1571063*
G03X2030028Y1573298I-4166J-0*
G01X2029184D02*
G03X2030028I422J268D01*
G01X2029184D02*
G03X2022154I-3515J-2235D01*
G01X2021310D02*
G03X2022154I422J268D01*
G01X2021310D02*
G03X2013630Y1571063I-3515J-2235D01*
G01Y1570276*
G03X2015086Y1567112I4165J-0*
G01Y1566353D02*
G03Y1567112I-326J379D01*
G01Y1566353D02*
G03X2014280Y1565424I2709J-3164D01*
G01X2013436D02*
G03X2014280I422J268D01*
G01X2013436D02*
G03X2006406I-3515J-2235D01*
G01X2005562D02*
G03X2006406I422J268D01*
G01X2005562D02*
G03X2004757Y1566353I-3515J-2235D01*
G01Y1567112D02*
G03Y1566353I325J-380D01*
G01Y1567112D02*
G03X2006213Y1570276I-2710J3164D01*
G01Y1571063*
G03X1998532Y1573298I-4166J-0*
G01X1997688D02*
G03X1998532I422J268D01*
G01X1997688D02*
G03X1990008Y1571063I-3515J-2235D01*
G01X1975805Y1588395D02*
G03Y1582270I-1695J-3063D01*
G01X1976047Y1582332D02*
G03X1975805Y1582270I-0J-500D01*
G01X1976047Y1582332D02*
X2003964D01*
X2004143Y1582299D02*
G03X2003964Y1582332I-179J-467D01*
G01X2004143Y1582299D02*
G03X2006477I1167J3033D01*
G01X2006657Y1582332D02*
G03X2006477Y1582299I-0J-500D01*
G01X2006657Y1582332D02*
X2023460D01*
X2023814Y1582186D02*
G03X2023460Y1582332I-354J-354D01*
G01X2023814Y1582186D02*
X2025020Y1580980D01*
X2025147Y1580765D02*
G03X2025020Y1580980I-481J-138D01*
G01X2025147Y1580765D02*
G03X2031323Y1579650I3363J967D01*
G01X2032150Y1579617D02*
G03X2031323Y1579650I-425J-264D01*
G01X2032150Y1579617D02*
G03X2037622Y1583124I2760J1715D01*
G01X2037578Y1583205D02*
G03X2037622Y1583124I461J195D01*
G01X2037578Y1583205D02*
X2037450Y1583509D01*
X2037410Y1583703D02*
G03X2037450Y1583509I500J0D01*
G01X2037410Y1583703D02*
Y1586932D01*
G03X2036678Y1588700I-2500J0*
G01X2035478Y1589900*
G03X2033710Y1590632I-1768J-1768*
G01X2010553*
X2010199Y1590779D02*
G03X2010553Y1590632I354J353D01*
G01X2010199Y1590779D02*
X2008755Y1592223D01*
X2008645Y1592389D02*
G03X2008755Y1592223I463J188D01*
G01X2008645Y1592389D02*
X2008521Y1592695D01*
X2008495Y1592782D02*
G03X2008521Y1592695I489J100D01*
G01X2008495Y1592782D02*
G03X2003767Y1589272I-3185J-650D01*
G01X2003529Y1588332D02*
G03X2003766Y1589272I0J500D01*
G01X2003529Y1588332D02*
X1976047D01*
X1975805Y1588395D02*
G03X1976047Y1588332I242J437D01*
G01X1958434Y1627922D02*
G03Y1622542I-1824J-2690D01*
G01X1958520Y1622589D02*
G03X1958434Y1622542I195J-460D01*
G01X1958520Y1622589D02*
X1959001Y1622793D01*
X1959196Y1622832D02*
G03X1959001Y1622793I0J-500D01*
G01X1959196Y1622832D02*
X1967924D01*
X1968119Y1622793D02*
G03X1967924Y1622832I-195J-461D01*
G01X1968119Y1622793D02*
X1968600Y1622589D01*
X1968686Y1622542D02*
G03X1968600Y1622589I-281J-413D01*
G01X1968686Y1622542D02*
G03Y1627922I1824J2690D01*
G01X1968600Y1627875D02*
G03X1968686Y1627922I-195J461D01*
G01X1968600Y1627875D02*
X1968119Y1627672D01*
X1967924Y1627632D02*
G03X1968119Y1627672I0J500D01*
G01X1967924Y1627632D02*
X1959196D01*
X1959001Y1627672D02*
G03X1959196Y1627632I195J460D01*
G01X1959001Y1627672D02*
X1958520Y1627875D01*
X1958434Y1627922D02*
G03X1958520Y1627875I281J414D01*
G01X1955805Y1646795D02*
G03Y1640670I-1695J-3063D01*
G01X1956047Y1640732D02*
G03X1955805Y1640670I-0J-500D01*
G01X1956047Y1640732D02*
X1969774D01*
X1970016Y1640670D02*
G03X1969774Y1640732I-242J-438D01*
G01X1970016Y1640670D02*
G03X1973405I1694J3062D01*
G01X1973647Y1640732D02*
G03X1973405Y1640670I-0J-500D01*
G01X1973647Y1640732D02*
X1985374D01*
X1985616Y1640670D02*
G03X1985374Y1640732I-242J-438D01*
G01X1985616Y1640670D02*
G03X1989005I1694J3062D01*
G01X1989247Y1640732D02*
G03X1989005Y1640670I-0J-500D01*
G01X1989247Y1640732D02*
X2020574D01*
X2020816Y1640670D02*
G03X2020574Y1640732I-242J-438D01*
G01X2020816Y1640670D02*
G03X2024205I1694J3062D01*
G01X2024447Y1640732D02*
G03X2024205Y1640670I-0J-500D01*
G01X2024447Y1640732D02*
X2026764D01*
X2026943Y1639766D02*
G03X2026764Y1640732I-179J466D01*
G01X2026943Y1639766D02*
G03X2027498Y1633540I1167J-3034D01*
G01X2027592Y1633513D02*
G03X2027498Y1633540I-188J-464D01*
G01X2027592Y1633513D02*
X2028076Y1633317D01*
X2028242Y1633207D02*
G03X2028076Y1633317I-354J-354D01*
G01X2028242Y1633207D02*
X2029964Y1631485D01*
X2030110Y1631131D02*
G03X2029964Y1631485I-500J0D01*
G01X2030110Y1631131D02*
Y1615518D01*
X2030071Y1615323D02*
G03X2030110Y1615518I-461J195D01*
G01X2030071Y1615323D02*
X2029867Y1614842D01*
X2029820Y1614756D02*
G03X2029867Y1614842I-413J281D01*
G01X2029820Y1614756D02*
G03X2032088Y1609710I2690J-1824D01*
G01X2032514Y1609123D02*
G03X2032088Y1609710I-491J91D01*
G01X2032514Y1609123D02*
G03X2038400Y1610356I3196J-591D01*
G01X2038353Y1610442D02*
G03X2038400Y1610356I461J195D01*
G01X2038353Y1610442D02*
X2038150Y1610923D01*
X2038110Y1611118D02*
G03X2038150Y1610923I500J0D01*
G01X2038110Y1611118D02*
Y1611186D01*
X2039077Y1611365D02*
G03X2038110Y1611186I-467J-179D01*
G01X2039077Y1611365D02*
G03X2042722Y1615724I3033J1167D01*
G01X2042629Y1615752D02*
G03X2042722Y1615724I188J463D01*
G01X2042629Y1615752D02*
X2042145Y1615948D01*
X2041979Y1616058D02*
G03X2042145Y1615948I353J353D01*
G01X2041979Y1616058D02*
X2041457Y1616580D01*
X2041310Y1616934D02*
G03X2041457Y1616580I500J-0D01*
G01X2041310Y1616934D02*
Y1627546D01*
X2041350Y1627741D02*
G03X2041310Y1627546I460J-195D01*
G01X2041350Y1627741D02*
X2041553Y1628222D01*
X2041600Y1628308D02*
G03X2041553Y1628222I414J-281D01*
G01X2041600Y1628308D02*
G03X2039287Y1633360I-2690J1824D01*
G01X2038860Y1633734D02*
G03X2039287Y1633360I484J123D01*
G01X2038860Y1633734D02*
G03X2033546Y1635357I-3150J-802D01*
G01X2032860Y1635377D02*
G03X2033546Y1635357I353J353D01*
G01X2032860Y1635377D02*
X2031636Y1636601D01*
X2031526Y1636767D02*
G03X2031636Y1636601I463J187D01*
G01X2031526Y1636767D02*
X2031330Y1637251D01*
X2031302Y1637344D02*
G03X2031330Y1637251I491J95D01*
G01X2031302Y1637344D02*
G03X2029277Y1639766I-3192J-612D01*
G01X2029457Y1640732D02*
G03X2029277Y1639766I-0J-500D01*
G01X2029457Y1640732D02*
X2040110D01*
G03X2042232Y1641611I0J3000*
G01X2044232Y1643611*
G03X2045110Y1645732I-2122J2121*
G01Y1664196*
X2045173Y1664438D02*
G03X2045110Y1664196I437J-242D01*
G01X2045173Y1664438D02*
G03X2039048I-3063J1694D01*
G01X2039110Y1664196D02*
G03X2039048Y1664438I-500J-0D01*
G01X2039110Y1664196D02*
Y1647232D01*
X2038610Y1646732D02*
G03X2039110Y1647232I0J500D01*
G01X2038610Y1646732D02*
X2024447D01*
X2024205Y1646795D02*
G03X2024447Y1646732I242J437D01*
G01X2024205Y1646795D02*
G03X2020816I-1695J-3063D01*
G01X2020574Y1646732D02*
G03X2020816Y1646795I-0J500D01*
G01X2020574Y1646732D02*
X1989247D01*
X1989005Y1646795D02*
G03X1989247Y1646732I242J437D01*
G01X1989005Y1646795D02*
G03X1985616I-1695J-3063D01*
G01X1985374Y1646732D02*
G03X1985616Y1646795I-0J500D01*
G01X1985374Y1646732D02*
X1973647D01*
X1973405Y1646795D02*
G03X1973647Y1646732I242J437D01*
G01X1973405Y1646795D02*
G03X1970016I-1695J-3063D01*
G01X1969774Y1646732D02*
G03X1970016Y1646795I-0J500D01*
G01X1969774Y1646732D02*
X1956047D01*
X1955805Y1646795D02*
G03X1956047Y1646732I242J437D01*
G01X1969934Y1673622D02*
G03X1967747Y1667703I-1824J-2690D01*
G01X1968067Y1666876D02*
G03X1967747Y1667703I-375J330D01*
G01X1968067Y1666876D02*
G03X1968289Y1662360I2443J-2144D01*
G01X1968235Y1661587D02*
G03X1968289Y1662360I-288J408D01*
G01X1968235Y1661587D02*
G03X1968665Y1656021I1875J-2655D01*
G01X1968879Y1655328D02*
G03X1968665Y1656021I-436J245D01*
G01X1968879Y1655328D02*
G03X1974865Y1652952I2831J-1596D01*
G01X1975351Y1653332D02*
G03X1974865Y1652952I-0J-500D01*
G01X1975351Y1653332D02*
X1993024D01*
X1993219Y1653293D02*
G03X1993024Y1653332I-195J-461D01*
G01X1993219Y1653293D02*
X1993700Y1653089D01*
X1993786Y1653042D02*
G03X1993700Y1653089I-281J-413D01*
G01X1993786Y1653042D02*
G03X1997300Y1652956I1824J2690D01*
G01X1998060Y1652530D02*
G03X1997300Y1652956I-500J-1D01*
G01X1998060Y1652530D02*
G03X2004473Y1653281I3250J2D01*
G01X2004793Y1653868D02*
G03X2004473Y1653281I166J-472D01*
G01X2004793Y1653868D02*
G03X2006517Y1655293I-1083J3064D01*
G01X2007037Y1655533D02*
G03X2006517Y1655293I-89J-492D01*
G01X2007037Y1655533D02*
G03X2010815Y1659275I573J3199D01*
G01X2011041Y1659782D02*
G03X2010815Y1659275I267J-424D01*
G01X2011041Y1659782D02*
G03X2011297Y1659960I-1731J2750D01*
G01X2012044Y1659800D02*
G03X2011297Y1659960I-441J-235D01*
G01X2012044Y1659800D02*
G03X2015151Y1658091I2866J1532D01*
G01X2015631Y1657825D02*
G03X2015151Y1658091I-443J-232D01*
G01X2015631Y1657825D02*
G03X2021200Y1661156I2879J1507D01*
G01X2021153Y1661242D02*
G03X2021200Y1661156I461J195D01*
G01X2021153Y1661242D02*
X2020950Y1661723D01*
X2020910Y1661918D02*
G03X2020950Y1661723I500J0D01*
G01X2020910Y1661918D02*
Y1663732D01*
G03X2020207Y1665429I-2400J0*
G01X2016257Y1669380*
X2016110Y1669734D02*
G03X2016257Y1669380I500J-0D01*
G01X2016110Y1669734D02*
Y1682346D01*
X2016150Y1682541D02*
G03X2016110Y1682346I460J-195D01*
G01X2016150Y1682541D02*
X2016353Y1683022D01*
X2016400Y1683108D02*
G03X2016353Y1683022I414J-281D01*
G01X2016400Y1683108D02*
G03X2013572Y1688179I-2690J1824D01*
G01X2013091Y1688874D02*
G03X2013572Y1688179I460J-195D01*
G01X2013091Y1688874D02*
X2013153Y1689022D01*
X2013200Y1689108D02*
G03X2013153Y1689022I414J-281D01*
G01X2013200Y1689108D02*
G03X2010073Y1694153I-2690J1824D01*
G01X2009593Y1694366D02*
G03X2010073Y1694153I413J282D01*
G01X2009593Y1694366D02*
G03X2006669Y1695773I-2683J-1834D01*
G01X2006189Y1696040D02*
G03X2006669Y1695773I443J232D01*
G01X2006189Y1696040D02*
G03X2003069Y1697773I-2879J-1508D01*
G01X2002589Y1698040D02*
G03X2003069Y1697773I443J232D01*
G01X2002589Y1698040D02*
G03X1998753Y1699638I-2879J-1508D01*
G01X1998219Y1699798D02*
G03X1998753Y1699638I386J318D01*
G01X1998219Y1699798D02*
G03X1993020Y1695908I-2509J-2066D01*
G01X1993067Y1695822D02*
G03X1993020Y1695908I-460J-195D01*
G01X1993067Y1695822D02*
X1993271Y1695341D01*
X1993310Y1695146D02*
G03X1993271Y1695341I-500J0D01*
G01X1993310Y1695146D02*
Y1693732D01*
G03X1994013Y1692035I2400J0*
G01X1995164Y1690885*
X1995310Y1690531D02*
G03X1995164Y1690885I-500J0D01*
G01X1995310Y1690531D02*
Y1673479D01*
X1994344Y1673299D02*
G03X1995310Y1673479I466J180D01*
G01X1994344Y1673299D02*
G03X1988413Y1673606I-3034J-1167D01*
G01X1987968Y1673332D02*
G03X1988413Y1673606I-0J500D01*
G01X1987968Y1673332D02*
X1970696D01*
X1970501Y1673372D02*
G03X1970696Y1673332I195J460D01*
G01X1970501Y1673372D02*
X1970020Y1673575D01*
X1969934Y1673622D02*
G03X1970020Y1673575I281J414D01*
G01X1967299Y1665231D02*
X1884610D01*
X1967285Y1664331D02*
X1884610D01*
X1967532Y1663431D02*
X1884610D01*
X1968119Y1662531D02*
X1884610D01*
X1968289Y1661631D02*
X1884610D01*
X1967403Y1660731D02*
X1884610D01*
X1966987Y1659831D02*
X1884610D01*
X1966860Y1658931D02*
X1884610D01*
X1966988Y1658031D02*
X1884610D01*
X1967405Y1657131D02*
X1884610D01*
X1968303Y1656231D02*
X1884610D01*
X1968881Y1655331D02*
X1884610D01*
X1968536Y1654431D02*
X1884610D01*
X1968466Y1653531D02*
X1884610D01*
X1968653Y1652631D02*
X1884610D01*
X1969149Y1651731D02*
X1884610D01*
X1970246Y1650831D02*
X1884610D01*
X1999362Y1649931D02*
X1884610D01*
X2039110Y1649031D02*
X1884610D01*
X2039110Y1648131D02*
X1884610D01*
X1954014Y1647231D02*
X1884610D01*
X1951766Y1646331D02*
X1884610D01*
X1951050Y1645431D02*
X1884610D01*
X1950703Y1644531D02*
X1884610D01*
X1950612Y1643631D02*
X1884610D01*
X1950757Y1642731D02*
X1884610D01*
X1951172Y1641831D02*
X1884610D01*
X1952012Y1640931D02*
X1884610D01*
X2027222Y1640031D02*
X1884610D01*
X2025917Y1639131D02*
X1884610D01*
X2025226Y1638231D02*
X1884610D01*
X2024916Y1637331D02*
X1884610D01*
X2024874Y1636431D02*
X1884610D01*
X2025090Y1635531D02*
X1884610D01*
X2025631Y1634631D02*
X1884610D01*
X2026863Y1633731D02*
X1884610D01*
X2028617Y1632831D02*
X1884610D01*
X2029517Y1631931D02*
X1884610D01*
X2030110Y1631031D02*
X1884610D01*
X2030110Y1630131D02*
X1884610D01*
X2030110Y1629231D02*
X1884610D01*
X1955630Y1628331D02*
X1884610D01*
X1954217Y1627431D02*
X1884610D01*
X1953631Y1626531D02*
X1884610D01*
X1953385Y1625631D02*
X1884610D01*
X1953399Y1624731D02*
X1884610D01*
X1953678Y1623831D02*
X1884610D01*
X1954315Y1622931D02*
X1884610D01*
X1956050Y1622031D02*
X1884610D01*
X2030110Y1621131D02*
X1884610D01*
X2030110Y1620231D02*
X1884610D01*
X2030110Y1619331D02*
X1884610D01*
X2030110Y1618431D02*
X1884610D01*
X2030110Y1617531D02*
X1884610D01*
X2030110Y1616631D02*
X1884610D01*
X2030110Y1615731D02*
X1884610D01*
X2029862Y1614831D02*
X1884610D01*
X2029417Y1613931D02*
X1884610D01*
X2029262Y1613031D02*
X1884610D01*
X2029361Y1612131D02*
X1884610D01*
X2029741Y1611231D02*
X1884610D01*
X2030562Y1610331D02*
X1884610D01*
X2032473Y1609431D02*
X1884610D01*
X2032460Y1608531D02*
X1884610D01*
X2032588Y1607631D02*
X1884610D01*
X2033005Y1606731D02*
X1884610D01*
X2033903Y1605831D02*
X1884610D01*
X2115610Y1604931D02*
X1884610D01*
X2115610Y1604031D02*
X1884610D01*
X2115610Y1603131D02*
X1884610D01*
X2115610Y1602231D02*
X1884610D01*
X2115610Y1601331D02*
X1884610D01*
X2115610Y1600431D02*
X1884610D01*
X2115610Y1599531D02*
X1884610D01*
X2115610Y1598631D02*
X1884610D01*
X2115610Y1597731D02*
X1884610D01*
X2115610Y1596831D02*
X1884610D01*
X2115610Y1595931D02*
X1884610D01*
X2003840Y1595031D02*
X1884610D01*
X2002747Y1594131D02*
X1884610D01*
X2002252Y1593231D02*
X1884610D01*
X2002066Y1592331D02*
X1884610D01*
X2002137Y1591431D02*
X1884610D01*
X2002482Y1590531D02*
X1884610D01*
X2003235Y1589631D02*
X1884610D01*
X1973274Y1588731D02*
X1884610D01*
X1971659Y1587831D02*
X1884610D01*
X1970997Y1586931D02*
X1884610D01*
X1970681Y1586031D02*
X1884610D01*
X1970616Y1585131D02*
X1884610D01*
X1970788Y1584231D02*
X1884610D01*
X1971239Y1583331D02*
X1884610D01*
X1972153Y1582431D02*
X1884610D01*
X2024469Y1581531D02*
X1884610D01*
X2025188Y1580631D02*
X1884610D01*
X2025639Y1579731D02*
X1884610D01*
X2026553Y1578831D02*
X1884610D01*
X2115610Y1577931D02*
X1884610D01*
X2115610Y1577031D02*
X1884610D01*
X2115610Y1576131D02*
X1884610D01*
X2115610Y1575231D02*
X1884610D01*
X1960094Y1574331D02*
X1884610D01*
X1959250Y1573431D02*
X1884610D01*
X1958779Y1572531D02*
X1884610D01*
X1958551Y1571631D02*
X1884610D01*
X1958512Y1570731D02*
X1884610D01*
X1958536Y1569831D02*
X1884610D01*
X1958735Y1568931D02*
X1884610D01*
X1959168Y1568031D02*
X1884610D01*
X1959946Y1567131D02*
X1884610D01*
X1959832Y1566231D02*
X1884610D01*
X1959105Y1565331D02*
X1884610D01*
X1958701Y1564431D02*
X1884610D01*
X1958526Y1563531D02*
X1884610D01*
X1958512Y1562631D02*
X1884610D01*
X1958566Y1561731D02*
X1884610D01*
X1958819Y1560831D02*
X1884610D01*
X1959324Y1559931D02*
X1884610D01*
X1960230Y1559031D02*
X1884610D01*
X2115610Y1558131D02*
X1884610D01*
X2115610Y1557231D02*
X1884610D01*
X2115610Y1556331D02*
X1884610D01*
X2115610Y1555431D02*
X1884610D01*
X2115610Y1554531D02*
X1884610D01*
X2115610Y1553631D02*
X1884610D01*
X2115610Y1552731D02*
X1884610D01*
X2115610Y1551831D02*
X1884610D01*
X2115610Y1550931D02*
X1884610D01*
X2115610Y1550031D02*
X1884610D01*
X2115610Y1549131D02*
X1884610D01*
X2115402Y1548231D02*
X1884610D01*
X2114502Y1547331D02*
X1884610D01*
X2113602Y1546431D02*
X1884610D01*
X2112702Y1545531D02*
X1884610D01*
X2111802Y1544631D02*
X1884919D01*
X1967577Y1666131D02*
X1885216D01*
X2110902Y1543731D02*
X1885819D01*
X1968160Y1667031D02*
X1886116D01*
X2110002Y1542831D02*
X1886719D01*
X1966863Y1667931D02*
X1887016D01*
X2109102Y1541931D02*
X1887619D01*
X2108202Y1541031D02*
X1888519D01*
X2107302Y1540131D02*
X1889419D01*
X2106402Y1539231D02*
X1890319D01*
X1985853Y1538331D02*
X1891219D01*
X1983738Y1537431D02*
X1892119D01*
X1974230Y1536531D02*
X1893019D01*
X1972966Y1535631D02*
X1893919D01*
X1962237Y1534731D02*
X1894819D01*
X1961111Y1533831D02*
X1895719D01*
X1960524Y1532931D02*
X1896619D01*
X1960223Y1532031D02*
X1897519D01*
X1965631Y1668831D02*
X1905735D01*
X1960143Y1531131D02*
X1905912D01*
X1965090Y1669731D02*
X1908789D01*
X1960270Y1530231D02*
X1908888D01*
X1964874Y1670631D02*
X1910804D01*
X1960627Y1529331D02*
X1910877D01*
X1964916Y1671531D02*
X1912376D01*
X1961299Y1528431D02*
X1912436D01*
X1965226Y1672431D02*
X1913681D01*
X1962679Y1527531D02*
X1913732D01*
X1965917Y1673331D02*
X1914797D01*
X1996871Y1526631D02*
X1914841D01*
X1988829Y1674231D02*
X1915769D01*
X1996881Y1525731D02*
X1915807D01*
X1990057Y1675131D02*
X1916624D01*
X1962437Y1524831D02*
X1916658D01*
X1995310Y1676031D02*
X1917383D01*
X1961201Y1523931D02*
X1917413D01*
X1995310Y1676931D02*
X1918057D01*
X1960573Y1523031D02*
X1918084D01*
X1995310Y1677831D02*
X1918658D01*
X1960245Y1522131D02*
X1918682D01*
X1995310Y1678731D02*
X1919192D01*
X1960142Y1521231D02*
X1919214D01*
X1995310Y1679631D02*
X1919666D01*
X1960245Y1520331D02*
X1919685D01*
X1995310Y1680531D02*
X1920084D01*
X1960574Y1519431D02*
X1920101D01*
X1995310Y1681431D02*
X1920450D01*
X1961203Y1518531D02*
X1920465D01*
X1995310Y1682331D02*
X1920767D01*
X1962443Y1517631D02*
X1920780D01*
X1995310Y1683231D02*
X1921037D01*
X1982385Y1516731D02*
X1921048D01*
X1995310Y1684131D02*
X1921263D01*
X1982947Y1515831D02*
X1921271D01*
X1995310Y1685031D02*
X1921445D01*
X1983899Y1514931D02*
X1921452D01*
X1995310Y1685931D02*
X1921585D01*
X2078410Y1514031D02*
X1921598D01*
X2059904Y1701231D02*
X1921610D01*
X1993758Y1700331D02*
X1921610D01*
X1992939Y1699431D02*
X1921610D01*
X1992560Y1698531D02*
X1921610D01*
X1992462Y1697631D02*
X1921610D01*
X1992618Y1696731D02*
X1921610D01*
X1993063Y1695831D02*
X1921610D01*
X1993310Y1694931D02*
X1921610D01*
X1993310Y1694031D02*
X1921610D01*
X1993387Y1693131D02*
X1921610D01*
X1993838Y1692231D02*
X1921610D01*
X1994717Y1691331D02*
X1921610D01*
X1995310Y1690431D02*
X1921675D01*
X1995310Y1686831D02*
X1921684D01*
X1995310Y1689531D02*
X1921738D01*
X1995310Y1687731D02*
X1921742D01*
X1995310Y1688631D02*
X1921760D01*
X2059004Y1702131D02*
X1922216D01*
X2078313Y1513131D02*
X1922419D01*
X2058104Y1703031D02*
X1923116D01*
X2078255Y1512231D02*
X1923319D01*
X2057204Y1703931D02*
X1924016D01*
X2077502Y1511331D02*
X1924219D01*
X2056304Y1704831D02*
X1924916D01*
X2076602Y1510431D02*
X1925119D01*
X2075702Y1509531D02*
X1926019D01*
X2074802Y1508631D02*
X1926919D01*
X2073902Y1507731D02*
X1927819D01*
X2073002Y1506831D02*
X1928719D01*
X2072102Y1505931D02*
X1929619D01*
X2071202Y1505031D02*
X1930519D01*
X2070302Y1504131D02*
X1931419D01*
X2069402Y1503231D02*
X1932319D01*
X2068502Y1502331D02*
X1933219D01*
X2067602Y1501431D02*
X1934119D01*
X2066702Y1500531D02*
X1935019D01*
X2065802Y1499631D02*
X1935919D01*
X2064902Y1498731D02*
X1936819D01*
X2064002Y1497831D02*
X1937719D01*
X2063102Y1496931D02*
X1938619D01*
X2062202Y1496031D02*
X1939519D01*
X2061302Y1495131D02*
X1940419D01*
X1971614Y1647231D02*
X1954207D01*
X1969950Y1622031D02*
X1957171D01*
X1969530Y1628331D02*
X1957590D01*
X1975978Y1559031D02*
X1965124D01*
X1975842Y1574331D02*
X1965260D01*
X1975694Y1567131D02*
X1965409D01*
X1975580Y1566231D02*
X1965523D01*
X1972679Y1527531D02*
X1965542D01*
X1972443Y1517631D02*
X1965777D01*
X1972437Y1524831D02*
X1965783D01*
X1972066Y1534731D02*
X1965983D01*
X1975072Y1559931D02*
X1966031D01*
X1974998Y1573431D02*
X1966104D01*
X1974916Y1568031D02*
X1966186D01*
X1974853Y1565331D02*
X1966250D01*
X1974567Y1560831D02*
X1966535D01*
X1974527Y1572531D02*
X1966575D01*
X1974483Y1568931D02*
X1966620D01*
X1974449Y1564431D02*
X1966653D01*
X1974314Y1561731D02*
X1966788D01*
X1974299Y1571631D02*
X1966804D01*
X1974284Y1569831D02*
X1966819D01*
X1974274Y1563531D02*
X1966828D01*
X1974260Y1570731D02*
X1966843D01*
X1974260Y1562631D02*
X1966843D01*
X1971299Y1528431D02*
X1966921D01*
X1971203Y1518531D02*
X1967017D01*
X1971201Y1523931D02*
X1967020D01*
X1971111Y1533831D02*
X1967110D01*
X1970627Y1529331D02*
X1967594D01*
X1970574Y1519431D02*
X1967646D01*
X1970573Y1523031D02*
X1967648D01*
X1970524Y1532931D02*
X1967697D01*
X1970270Y1530231D02*
X1967950D01*
X1970245Y1520331D02*
X1967975D01*
X1970245Y1522131D02*
X1967976D01*
X1970223Y1532031D02*
X1967998D01*
X1970143Y1531131D02*
X1968077D01*
X1970142Y1521231D02*
X1968079D01*
X2030110Y1622031D02*
X1971071D01*
X2030110Y1628331D02*
X1971490D01*
X1987214Y1647231D02*
X1971807D01*
X2030110Y1622931D02*
X1972805D01*
X2030110Y1627431D02*
X1972904D01*
X1998541Y1650831D02*
X1973175D01*
X2030110Y1623831D02*
X1973443D01*
X2030110Y1626531D02*
X1973490D01*
X2030110Y1624731D02*
X1973721D01*
X2030110Y1625631D02*
X1973736D01*
X1998161Y1651731D02*
X1974271D01*
X1994638Y1652631D02*
X1974768D01*
X2004019Y1588731D02*
X1974946D01*
X1997039Y1527531D02*
X1975542D01*
X1982065Y1517631D02*
X1975777D01*
X1997070Y1524831D02*
X1975783D01*
X1997406Y1528431D02*
X1976921D01*
X1981937Y1518531D02*
X1977017D01*
X1997463Y1523931D02*
X1977020D01*
X1985067Y1529331D02*
X1977594D01*
X1981986Y1519431D02*
X1977646D01*
X1984798Y1523031D02*
X1977648D01*
X1983271Y1530231D02*
X1977950D01*
X1982216Y1520331D02*
X1977975D01*
X1983406Y1522131D02*
X1977976D01*
X1982660Y1521231D02*
X1978079D01*
X1983852Y1559031D02*
X1980873D01*
X1991590Y1574331D02*
X1981008D01*
X1984953Y1567131D02*
X1981157D01*
X1983454Y1566231D02*
X1981271D01*
X1982946Y1559931D02*
X1981779D01*
X1990746Y1573431D02*
X1981852D01*
X1990664Y1568031D02*
X1981934D01*
X1982708Y1565331D02*
X1982016D01*
X1990275Y1572531D02*
X1982323D01*
X1990231Y1568931D02*
X1982368D01*
X1990047Y1571631D02*
X1982552D01*
X1990032Y1569831D02*
X1982567D01*
X1990008Y1570731D02*
X1982591D01*
X1993254Y1538331D02*
X1987328D01*
X2022414Y1647231D02*
X1987407D01*
X1991442Y1567131D02*
X1987645D01*
X1992199Y1523031D02*
X1988383D01*
X1999600Y1559031D02*
X1988747D01*
X1993178Y1566231D02*
X1989145D01*
X1991301Y1514931D02*
X1989282D01*
X1998694Y1559931D02*
X1989653D01*
X1990808Y1522131D02*
X1989775D01*
X1998475Y1565331D02*
X1989872D01*
X1998189Y1560831D02*
X1990157D01*
X1998071Y1564431D02*
X1990275D01*
X1997936Y1561731D02*
X1990410D01*
X1997896Y1563531D02*
X1990451D01*
X1997882Y1562631D02*
X1990465D01*
X1995310Y1675131D02*
X1992563D01*
X1995310Y1674231D02*
X1993792D01*
X1995288Y1673331D02*
X1994331D01*
X2000774Y1538331D02*
X1994730D01*
X1999202Y1566231D02*
X1995169D01*
X1998129Y1523031D02*
X1995785D01*
X1998050Y1652631D02*
X1996582D01*
X2006340Y1514931D02*
X1996683D01*
X1999464Y1574331D02*
X1996756D01*
X1999316Y1567131D02*
X1996905D01*
X1999305Y1522131D02*
X1997177D01*
X1998620Y1573431D02*
X1997600D01*
X2005388Y1515831D02*
X1997636D01*
X2060804Y1700331D02*
X1997662D01*
X1998538Y1568031D02*
X1997682D01*
X2005101Y1521231D02*
X1997923D01*
X2004826Y1516731D02*
X1998198D01*
X2004657Y1520331D02*
X1998367D01*
X2004506Y1517631D02*
X1998518D01*
X2004427Y1519431D02*
X1998597D01*
X2004378Y1518531D02*
X1998645D01*
X2061704Y1699431D02*
X2001180D01*
X2008294Y1538331D02*
X2002250D01*
X2062604Y1698531D02*
X2002273D01*
X2039110Y1649931D02*
X2003259D01*
X2005846Y1522131D02*
X2003719D01*
X2039110Y1650831D02*
X2004079D01*
X2063504Y1697631D02*
X2004290D01*
X2006201Y1537431D02*
X2004342D01*
X2039110Y1651731D02*
X2004460D01*
X2039110Y1653531D02*
X2004478D01*
X2007474Y1559031D02*
X2004495D01*
X2039110Y1652631D02*
X2004559D01*
X2015213Y1574331D02*
X2004630D01*
X2008576Y1567131D02*
X2004779D01*
X2007076Y1566231D02*
X2004893D01*
X2005649Y1523031D02*
X2004895D01*
X2006568Y1559931D02*
X2005401D01*
X2014368Y1573431D02*
X2005474D01*
X2014286Y1568031D02*
X2005556D01*
X2006330Y1565331D02*
X2005638D01*
X2064404Y1696731D02*
X2005704D01*
X2039110Y1654431D02*
X2005785D01*
X2013897Y1572531D02*
X2005945D01*
X2013853Y1568931D02*
X2005990D01*
X2013669Y1571631D02*
X2006174D01*
X2013654Y1569831D02*
X2006189D01*
X2013630Y1570731D02*
X2006213D01*
X2065304Y1695831D02*
X2006397D01*
X2039110Y1655331D02*
X2006541D01*
X2115610Y1595031D02*
X2006780D01*
X2115610Y1594131D02*
X2007873D01*
X2115610Y1593231D02*
X2008369D01*
X2115610Y1592331D02*
X2008673D01*
X2066204Y1694931D02*
X2009103D01*
X2115610Y1591431D02*
X2009547D01*
X2017538Y1656231D02*
X2009685D01*
X2015813Y1538331D02*
X2009769D01*
X2016119Y1657131D02*
X2010438D01*
X2015429Y1658031D02*
X2010784D01*
X2012720Y1658931D02*
X2010854D01*
X2012026Y1659831D02*
X2011117D01*
X2015064Y1567131D02*
X2011267D01*
X2067104Y1694031D02*
X2011490D01*
X2013860Y1514931D02*
X2011723D01*
X2013721Y1537431D02*
X2011862D01*
X2015348Y1559031D02*
X2012369D01*
X2014950Y1566231D02*
X2012767D01*
X2068004Y1693131D02*
X2012904D01*
X2072504Y1688631D02*
X2013053D01*
X2014442Y1559931D02*
X2013275D01*
X2071604Y1689531D02*
X2013443D01*
X2068904Y1692231D02*
X2013490D01*
X2014204Y1565331D02*
X2013512D01*
X2070704Y1690431D02*
X2013721D01*
X2069804Y1691331D02*
X2013736D01*
X2073404Y1687731D02*
X2015363D01*
X2078804Y1682331D02*
X2016110D01*
X2079550Y1681431D02*
X2016110D01*
X2079916Y1680531D02*
X2016110D01*
X2080334Y1679631D02*
X2016110D01*
X2080808Y1678731D02*
X2016110D01*
X2081342Y1677831D02*
X2016110D01*
X2081943Y1676931D02*
X2016110D01*
X2082617Y1676031D02*
X2016110D01*
X2083376Y1675131D02*
X2016110D01*
X2084231Y1674231D02*
X2016110D01*
X2085203Y1673331D02*
X2016110D01*
X2086319Y1672431D02*
X2016110D01*
X2087624Y1671531D02*
X2016110D01*
X2089196Y1670631D02*
X2016110D01*
X2091211Y1669731D02*
X2016110D01*
X2074304Y1686831D02*
X2016348D01*
X2077904Y1683231D02*
X2016479D01*
X2075204Y1685931D02*
X2016803D01*
X2039882Y1668831D02*
X2016806D01*
X2077004Y1684131D02*
X2016860D01*
X2076104Y1685031D02*
X2016959D01*
X2030853Y1538331D02*
X2017289D01*
X2039108Y1667931D02*
X2017706D01*
X2038728Y1667031D02*
X2018606D01*
X2028899Y1514931D02*
X2019242D01*
X2028760Y1537431D02*
X2019382D01*
X2039110Y1656231D02*
X2019482D01*
X2038610Y1666131D02*
X2019506D01*
X2028484Y1530231D02*
X2019658D01*
X2028406Y1522131D02*
X2019736D01*
X2028208Y1523031D02*
X2019934D01*
X2028113Y1529331D02*
X2020028D01*
X2027947Y1515831D02*
X2020195D01*
X2023222Y1559031D02*
X2020243D01*
X2027868Y1536531D02*
X2020274D01*
X2023087Y1574331D02*
X2020378D01*
X2038728Y1665231D02*
X2020385D01*
X2027727Y1531131D02*
X2020415D01*
X2027660Y1521231D02*
X2020482D01*
X2027541Y1523931D02*
X2020600D01*
X2027485Y1528431D02*
X2020657D01*
X2027385Y1516731D02*
X2020757D01*
X2027338Y1535631D02*
X2020804D01*
X2039092Y1664331D02*
X2020834D01*
X2027255Y1532031D02*
X2020887D01*
X2039110Y1657131D02*
X2020901D01*
X2039110Y1663431D02*
X2020910D01*
X2039110Y1662531D02*
X2020910D01*
X2027216Y1520331D02*
X2020926D01*
X2039110Y1661631D02*
X2020989D01*
X2027149Y1524831D02*
X2020993D01*
X2027118Y1527531D02*
X2021024D01*
X2027065Y1517631D02*
X2021077D01*
X2027041Y1534731D02*
X2021100D01*
X2027002Y1532931D02*
X2021139D01*
X2022316Y1559931D02*
X2021149D01*
X2026986Y1519431D02*
X2021156D01*
X2026960Y1525731D02*
X2021182D01*
X2026950Y1526631D02*
X2021192D01*
X2026937Y1518531D02*
X2021204D01*
X2026934Y1533831D02*
X2021208D01*
X2022242Y1573431D02*
X2021222D01*
X2039110Y1660731D02*
X2021444D01*
X2039110Y1658031D02*
X2021488D01*
X2039110Y1659831D02*
X2021722D01*
X2039110Y1658931D02*
X2021735D01*
X2039110Y1647231D02*
X2022607D01*
X2031096Y1559031D02*
X2028117D01*
X2030961Y1574331D02*
X2028252D01*
X2115610Y1640031D02*
X2028999D01*
X2030190Y1559931D02*
X2029023D01*
X2030116Y1573431D02*
X2029096D01*
X2115610Y1639131D02*
X2030303D01*
X2032835Y1578831D02*
X2030468D01*
X2115610Y1638231D02*
X2030994D01*
X2115610Y1637331D02*
X2031305D01*
X2032052Y1579731D02*
X2031399D01*
X2115610Y1636431D02*
X2031806D01*
X2038372Y1538331D02*
X2032328D01*
X2033758Y1635531D02*
X2032706D01*
X2036419Y1514931D02*
X2034282D01*
X2115610Y1590531D02*
X2034415D01*
X2036280Y1537431D02*
X2034421D01*
X2115610Y1589631D02*
X2035747D01*
X2115610Y1559031D02*
X2035991D01*
X2115610Y1574331D02*
X2036126D01*
X2115610Y1567131D02*
X2036275D01*
X2115610Y1566231D02*
X2036389D01*
X2115610Y1588731D02*
X2036647D01*
X2115610Y1559931D02*
X2036897D01*
X2115610Y1573431D02*
X2036970D01*
X2115610Y1578831D02*
X2036985D01*
X2115610Y1568031D02*
X2037052D01*
X2115610Y1565331D02*
X2037116D01*
X2115610Y1587831D02*
X2037243D01*
X2115610Y1560831D02*
X2037401D01*
X2115610Y1586931D02*
X2037410D01*
X2115610Y1586031D02*
X2037410D01*
X2115610Y1585131D02*
X2037410D01*
X2115610Y1584231D02*
X2037410D01*
X2115610Y1572531D02*
X2037441D01*
X2115610Y1568931D02*
X2037486D01*
X2115610Y1605831D02*
X2037517D01*
X2115610Y1564431D02*
X2037519D01*
X2115610Y1583331D02*
X2037525D01*
X2115610Y1561731D02*
X2037654D01*
X2115610Y1635531D02*
X2037662D01*
X2115610Y1571631D02*
X2037670D01*
X2115610Y1569831D02*
X2037685D01*
X2115610Y1563531D02*
X2037695D01*
X2115610Y1570731D02*
X2037709D01*
X2115610Y1562631D02*
X2037709D01*
X2115610Y1579731D02*
X2037738D01*
X2115610Y1582431D02*
X2037969D01*
X2115610Y1580631D02*
X2038084D01*
X2039132Y1611231D02*
X2038112D01*
X2115610Y1581531D02*
X2038154D01*
X2115610Y1606731D02*
X2038415D01*
X2039719Y1610331D02*
X2038417D01*
X2115610Y1634631D02*
X2038481D01*
X2115610Y1607631D02*
X2038833D01*
X2041138Y1609431D02*
X2038834D01*
X2115610Y1633731D02*
X2038861D01*
X2115610Y1608531D02*
X2038960D01*
X2105502Y1538331D02*
X2039848D01*
X2115610Y1632831D02*
X2040721D01*
X2115610Y1640931D02*
X2041184D01*
X2115610Y1627431D02*
X2041310D01*
X2115610Y1626531D02*
X2041310D01*
X2115610Y1625631D02*
X2041310D01*
X2115610Y1624731D02*
X2041310D01*
X2115610Y1623831D02*
X2041310D01*
X2115610Y1622931D02*
X2041310D01*
X2115610Y1622031D02*
X2041310D01*
X2115610Y1621131D02*
X2041310D01*
X2115610Y1620231D02*
X2041310D01*
X2115610Y1619331D02*
X2041310D01*
X2115610Y1618431D02*
X2041310D01*
X2115610Y1617531D02*
X2041310D01*
X2115610Y1616631D02*
X2041412D01*
X2115610Y1628331D02*
X2041615D01*
X2115610Y1631931D02*
X2041617D01*
X2078548Y1514931D02*
X2041801D01*
X2104602Y1537431D02*
X2041941D01*
X2115610Y1629231D02*
X2042033D01*
X2115610Y1631031D02*
X2042034D01*
X2115610Y1630131D02*
X2042160D01*
X2091112Y1530231D02*
X2042217D01*
X2081318Y1522131D02*
X2042295D01*
X2115610Y1641831D02*
X2042452D01*
X2081916Y1523031D02*
X2042493D01*
X2089123Y1529331D02*
X2042587D01*
X2115610Y1615731D02*
X2042692D01*
X2078729Y1515831D02*
X2042754D01*
X2103702Y1536531D02*
X2042833D01*
X2094088Y1531131D02*
X2042974D01*
X2080786Y1521231D02*
X2043041D01*
X2115610Y1609431D02*
X2043082D01*
X2082587Y1523931D02*
X2043159D01*
X2087564Y1528431D02*
X2043216D01*
X2078952Y1516731D02*
X2043316D01*
X2115610Y1642731D02*
X2043352D01*
X2102802Y1535631D02*
X2043363D01*
X2099202Y1532031D02*
X2043446D01*
X2080315Y1520331D02*
X2043485D01*
X2083342Y1524831D02*
X2043552D01*
X2086268Y1527531D02*
X2043583D01*
X2079220Y1517631D02*
X2043636D01*
X2101902Y1534731D02*
X2043659D01*
X2100102Y1532931D02*
X2043698D01*
X2079899Y1519431D02*
X2043715D01*
X2084193Y1525731D02*
X2043741D01*
X2085159Y1526631D02*
X2043751D01*
X2079535Y1518531D02*
X2043763D01*
X2101002Y1533831D02*
X2043767D01*
X2115610Y1643631D02*
X2044251D01*
X2094265Y1668831D02*
X2044339D01*
X2115610Y1614831D02*
X2044408D01*
X2115610Y1610331D02*
X2044501D01*
X2115610Y1644531D02*
X2044859D01*
X2115610Y1613931D02*
X2045044D01*
X2115610Y1611231D02*
X2045088D01*
X2115610Y1645431D02*
X2045095D01*
X2107204Y1663431D02*
X2045110D01*
X2108104Y1662531D02*
X2045110D01*
X2109004Y1661631D02*
X2045110D01*
X2109904Y1660731D02*
X2045110D01*
X2110804Y1659831D02*
X2045110D01*
X2111704Y1658931D02*
X2045110D01*
X2112604Y1658031D02*
X2045110D01*
X2113504Y1657131D02*
X2045110D01*
X2114404Y1656231D02*
X2045110D01*
X2115304Y1655331D02*
X2045110D01*
X2115610Y1654431D02*
X2045110D01*
X2115610Y1653531D02*
X2045110D01*
X2115610Y1652631D02*
X2045110D01*
X2115610Y1651731D02*
X2045110D01*
X2115610Y1650831D02*
X2045110D01*
X2115610Y1649931D02*
X2045110D01*
X2115610Y1649031D02*
X2045110D01*
X2115610Y1648131D02*
X2045110D01*
X2115610Y1647231D02*
X2045110D01*
X2115610Y1646331D02*
X2045110D01*
X2102704Y1667931D02*
X2045113D01*
X2106304Y1664331D02*
X2045129D01*
X2115610Y1613031D02*
X2045322D01*
X2115610Y1612131D02*
X2045335D01*
X2105404Y1665231D02*
X2045492D01*
X2103604Y1667031D02*
X2045493D01*
X2104504Y1666131D02*
X2045610D01*
X2110236Y1491732D02*
G03X2118110Y1499606I0J7874D01*
G01Y1700394*
G03X2110236Y1708268I-7874J-0*
G01X1889764*
G03X1881890Y1700394I-0J-7874*
G01Y1499606*
G03X1889764Y1491732I7874J0*
G01X2110236*
G54D14*
X2054110Y1499732D03*
X2062110D03*
X2046110D03*
X2030110D03*
X2014110D03*
X2022110D03*
X2006110D03*
X1998110D03*
X1990110D03*
X1974110D03*
X1982110D03*
X1966110D03*
X1958110D03*
X1950110D03*
X1942110D03*
X2074110Y1511732D03*
X2070110Y1507732D03*
X2054110D03*
X2062110D03*
X2046110D03*
X2030110D03*
X2022110D03*
X1954110D03*
X1946110D03*
X1938110D03*
X1930110D03*
X2074110Y1519732D03*
X2054110Y1515732D03*
X1954110D03*
Y1523732D03*
X1930110Y1515732D03*
Y1523732D03*
X1922110Y1515732D03*
Y1523732D03*
X2074110Y1527732D03*
X2082110D03*
X2066110D03*
X2058110D03*
X1930110Y1531732D03*
X1914110D03*
X1922110D03*
X1906110D03*
X2110110Y1543732D03*
X2094110Y1535732D03*
X2102110D03*
X2094110Y1543732D03*
X2102110D03*
X2086110Y1535732D03*
Y1543732D03*
X2078110Y1535732D03*
Y1543732D03*
X2070110Y1535732D03*
Y1543732D03*
X2062110Y1535732D03*
Y1543732D03*
X1930110Y1539732D03*
X1914110D03*
X1922110D03*
X1906110D03*
X1898110D03*
X1890110D03*
X2110110Y1551732D03*
X2094110D03*
X2102110D03*
X2086110D03*
X2078110D03*
X2070110D03*
X2062110D03*
X1974110D03*
X1982110D03*
X1966110D03*
X1958110D03*
X1930110Y1547732D03*
X1922110D03*
X1914110D03*
X1906110D03*
X1898110D03*
X1890110D03*
X2110110Y1559732D03*
X2102110D03*
X2094110D03*
X2086110D03*
X2078110D03*
X2070110D03*
X2062110D03*
X1930110Y1555732D03*
X1914110D03*
X1922110D03*
X1906110Y1563732D03*
Y1555732D03*
X1898110D03*
X1890110Y1563732D03*
Y1555732D03*
X2110110Y1567732D03*
X2094110D03*
X2102110D03*
X2086110D03*
X2078110D03*
X2070110D03*
X2110110Y1575732D03*
Y1583732D03*
X2102110Y1575732D03*
X2094110D03*
Y1583732D03*
X2102110D03*
X2086110Y1575732D03*
Y1583732D03*
X2078110Y1575732D03*
Y1583732D03*
X2070110Y1575732D03*
Y1583732D03*
X2062110Y1575732D03*
Y1583732D03*
X2028510Y1581732D03*
X2022110Y1581332D03*
X1997710Y1577332D03*
X1938110Y1575732D03*
X2110110Y1591732D03*
X2102110D03*
X2094110D03*
X2086110D03*
X2078110D03*
X2070110D03*
X2062110D03*
X1974110Y1585332D03*
X2110110Y1599732D03*
X2094110D03*
X2102110D03*
X2086110D03*
X2078110D03*
X2070110D03*
X2062110D03*
X1934110Y1595732D03*
X1942110D03*
X1934110Y1603732D03*
X1942110D03*
X1926110Y1595732D03*
Y1603732D03*
X1918110Y1595732D03*
Y1603732D03*
X1910110D03*
X2110110Y1607732D03*
X2094110D03*
X2102110D03*
X2086110D03*
X2078110D03*
X2070110D03*
X2062110D03*
X1942110Y1611732D03*
X1934110D03*
X1926110D03*
X1918110D03*
X1910110D03*
X1902110D03*
X1894110D03*
X1886110D03*
X2110110Y1615732D03*
Y1623732D03*
X2094110Y1615732D03*
Y1623732D03*
X2102110D03*
Y1615732D03*
X2086110D03*
Y1623732D03*
X2078110Y1615732D03*
Y1623732D03*
X2070110Y1615732D03*
Y1623732D03*
X2062110Y1615732D03*
Y1623732D03*
X1998510Y1619732D03*
X1977710Y1619332D03*
X1942110Y1619732D03*
X1934110D03*
X1926110D03*
X1918110D03*
X1910110D03*
X1894110D03*
X1902110D03*
X1886110D03*
X1978110Y1628132D03*
X1934110Y1627732D03*
X1926110D03*
X1918110D03*
X1910110D03*
X1894110D03*
X1902110D03*
X1886110D03*
X2022510Y1643732D03*
X1987310D03*
X1971710D03*
X1954110D03*
X1950110D03*
X1934110Y1635732D03*
Y1643732D03*
X1942110D03*
X1926110Y1635732D03*
Y1643732D03*
X1918110Y1635732D03*
Y1643732D03*
X1910110Y1635732D03*
Y1643732D03*
X1902110Y1635732D03*
X1894110D03*
Y1643732D03*
X1902110D03*
X1886110Y1635732D03*
Y1643732D03*
X1950110Y1651732D03*
X1934110D03*
X1942110D03*
X1926110D03*
X1918110D03*
X1910110D03*
X1894110D03*
X1902110D03*
X1886110D03*
X2110110Y1655732D03*
X2102110D03*
X2094110D03*
X2102110Y1663732D03*
X2094110D03*
X2086110Y1655732D03*
Y1663732D03*
X2078110Y1655732D03*
Y1663732D03*
X2070110Y1655732D03*
Y1663732D03*
X2062110Y1655732D03*
Y1663732D03*
X2054110Y1655732D03*
Y1663732D03*
X1950110Y1659732D03*
X1934110D03*
X1942110D03*
X1926110D03*
X1918110D03*
X1910110D03*
X1894110D03*
X1902110D03*
X1886110D03*
X2078110Y1671732D03*
X2070110D03*
X2054110D03*
X2062110D03*
X2042110Y1666132D03*
X1934110Y1667732D03*
X1942110D03*
X1926110D03*
X1918110D03*
X1910110D03*
X1894110D03*
X1902110D03*
X2078110Y1679732D03*
X2070110D03*
X2062110D03*
X2054110D03*
X1934110Y1675732D03*
X1942110D03*
X1934110Y1683732D03*
X1942110D03*
X1926110Y1675732D03*
Y1683732D03*
X2070110Y1687732D03*
X2062110D03*
X2034110Y1691732D03*
X2042110D03*
X2026110D03*
X2018110D03*
X1934110D03*
X1926110D03*
X2062110Y1695732D03*
X2054110Y1699732D03*
X2046110D03*
X2038110D03*
X2030110D03*
X2014110D03*
X2022110D03*
X2006110D03*
X1950110D03*
X1934110D03*
X1942110D03*
X1926110D03*
G54D15*
X1994715Y1535224D02*
X2000789D01*
X1994715Y1532241D02*
X2000789D01*
X1995650Y1533732D02*
X1999854D01*
X1993992D02*
X2001512D01*
X1987313Y1535224D02*
X1993270D01*
X1987313Y1532241D02*
X1993270D01*
X1988248Y1533732D02*
X1992335D01*
X1986591D02*
X1993992D01*
X1973671Y1532096D02*
X1974110Y1532532D01*
X1974549Y1532096*
X1985386Y1534871D02*
X1982695Y1533732D01*
X1985386Y1532594*
X1982695Y1533732D02*
X1984933D01*
X1974110Y1531232D02*
Y1532532D01*
X1975310Y1533732*
X1986591*
X2028510Y1581732D02*
X2024910Y1585332D01*
X2005310*
X1974110D02*
X2005310D01*
X2022510Y1643732D02*
X2040110D01*
X2042110Y1645732*
Y1666132*
X2022510Y1643732D02*
X1987310D01*
X1971710*
X1954110*
G54D17*
X2034910Y1581332D03*
X2005310Y1592132D03*
Y1585332D03*
X1967710Y1591332D03*
X2042110Y1612532D03*
X2035710Y1608532D03*
X2030910Y1608932D03*
X2032510Y1612932D03*
X2038910Y1630132D03*
X2035710Y1632932D03*
X1970510Y1625232D03*
X1956610D03*
X2028110Y1636732D03*
X2023310Y1654132D03*
X2001310Y1652532D03*
X1971710Y1653732D03*
X2018510Y1659332D03*
X2014910Y1661332D03*
X2009310Y1662532D03*
X2007610Y1658732D03*
X2003710Y1656932D03*
X1995610Y1655732D03*
X1993310Y1664732D03*
X1990910Y1661732D03*
X1993110Y1658732D03*
X1970510Y1664732D03*
X1970110Y1658932D03*
X1973310Y1661732D03*
X1950910Y1664532D03*
X1991310Y1672132D03*
X1990910Y1667732D03*
X1973710D03*
X1968110Y1670932D03*
X2013710Y1684932D03*
X2006910Y1692532D03*
X2010510Y1690932D03*
X2003310Y1694532D03*
X1995710Y1697732D03*
X1999710Y1696532D03*
G54D23*
X2042086Y1613382D02*
X2040698Y1613945D01*
X2041261Y1612556*
X2040698Y1613945D02*
X2041509Y1613133D01*
X2038326Y1629515D02*
X2038910Y1628135D01*
X2039494Y1629515*
X2038910Y1628135D02*
Y1629282D01*
X2042110Y1612532D02*
X2038910Y1615732D01*
Y1630132*
X2035126Y1609150D02*
X2035710Y1610530D01*
X2036294Y1609150*
X2035710Y1610530D02*
Y1609382D01*
X2035126Y1632315D02*
X2035710Y1630935D01*
X2036294Y1632315*
X2035710Y1630935D02*
Y1632082D01*
Y1608532D02*
Y1632932D01*
X2031926Y1613550D02*
X2032510Y1614930D01*
X2033094Y1613550*
X2032510Y1614930D02*
Y1613782D01*
X2028960Y1636708D02*
X2029523Y1635320D01*
X2028134Y1635883*
X2029523Y1635320D02*
X2028711Y1636131D01*
X2032510Y1612932D02*
Y1632332D01*
X2028110Y1636732*
X1969893Y1625816D02*
X1968513Y1625232D01*
X1969893Y1624648*
X1968513Y1625232D02*
X1969660D01*
X1957228Y1625816D02*
X1958608Y1625232D01*
X1957228Y1624648*
X1958608Y1625232D02*
X1957460D01*
X1970510D02*
X1956610D01*
X2000726Y1653150D02*
X2001310Y1654530D01*
X2001894Y1653150*
X2001310Y1654530D02*
Y1653382D01*
X1995126Y1697115D02*
X1995710Y1695735D01*
X1996294Y1697115*
X1995710Y1695735D02*
Y1696882D01*
X2001310Y1652532D02*
Y1654932D01*
X1997710Y1658532*
Y1691732*
X1995710Y1693732*
Y1697732*
X1971734Y1654582D02*
X1973123Y1655145D01*
X1972560Y1653756*
X1973123Y1655145D02*
X1972311Y1654333D01*
X1994993Y1656316D02*
X1993613Y1655732D01*
X1994993Y1655148*
X1993613Y1655732D02*
X1994760D01*
X1971710Y1653732D02*
X1973710Y1655732D01*
X1995610*
X2017926Y1659950D02*
X2018510Y1661330D01*
X2019094Y1659950*
X2018510Y1661330D02*
Y1660182D01*
X2013126Y1684315D02*
X2013710Y1682935D01*
X2014294Y1684315*
X2013710Y1682935D02*
Y1684082D01*
X2018510Y1659332D02*
Y1663732D01*
X2013710Y1668532*
Y1684932*
X2014886Y1662182D02*
X2013498Y1662745D01*
X2014061Y1661356*
X2013498Y1662745D02*
X2014309Y1661933D01*
X2009926Y1690315D02*
X2010510Y1688935D01*
X2011094Y1690315*
X2010510Y1688935D02*
Y1690082D01*
X2014910Y1661332D02*
X2010510Y1665732D01*
Y1690932*
X2009286Y1663382D02*
X2007898Y1663945D01*
X2008461Y1662556*
X2007898Y1663945D02*
X2008709Y1663133D01*
X2006326Y1691915D02*
X2006910Y1690535D01*
X2007494Y1691915*
X2006910Y1690535D02*
Y1691682D01*
X2009310Y1662532D02*
X2006910Y1664932D01*
Y1692532*
X2007586Y1659582D02*
X2006198Y1660145D01*
X2006761Y1658756*
X2006198Y1660145D02*
X2007009Y1659333D01*
X2002726Y1693915D02*
X2003310Y1692535D01*
X2003894Y1693915*
X2003310Y1692535D02*
Y1693682D01*
X2007610Y1658732D02*
X2003310Y1663032D01*
Y1694532*
X2003686Y1657782D02*
X2002298Y1658345D01*
X2002861Y1656956*
X2002298Y1658345D02*
X2003109Y1657533D01*
X1999126Y1695915D02*
X1999710Y1694535D01*
X2000294Y1695915*
X1999710Y1694535D02*
Y1695682D01*
X2003710Y1656932D02*
X1999710Y1660932D01*
Y1696532*
X1990293Y1662316D02*
X1988913Y1661732D01*
X1990293Y1661148*
X1988913Y1661732D02*
X1990060D01*
X1973928Y1662316D02*
X1975308Y1661732D01*
X1973928Y1661148*
X1975308Y1661732D02*
X1974160D01*
X1990910D02*
X1973310D01*
X1992493Y1659316D02*
X1991113Y1658732D01*
X1992493Y1658148*
X1991113Y1658732D02*
X1992260D01*
X1970850Y1659350D02*
X1972098Y1658732D01*
X1970393Y1658131*
X1972098Y1658732D02*
X1970949Y1658794D01*
X1993110Y1658732D02*
X1970310D01*
X1970110Y1658932*
X1971128Y1665316D02*
X1972508Y1664732D01*
X1971128Y1664148*
X1972508Y1664732D02*
X1971360D01*
X1992693Y1665316D02*
X1991313Y1664732D01*
X1992693Y1664148*
X1991313Y1664732D02*
X1992460D01*
X1970510D02*
X1993310D01*
X1990293Y1668316D02*
X1988913Y1667732D01*
X1990293Y1667148*
X1988913Y1667732D02*
X1990060D01*
X1974328Y1668316D02*
X1975708Y1667732D01*
X1974328Y1667148*
X1975708Y1667732D02*
X1974560D01*
X1990910D02*
X1973710D01*
X1968728Y1671516D02*
X1970108Y1670932D01*
X1968728Y1670348*
X1970108Y1670932D02*
X1968960D01*
X1990464Y1672054D02*
X1990110Y1670932D01*
X1991232Y1671286*
X1990709Y1671531D02*
X1990110Y1670932D01*
X1968110*
X1990110D02*
X1991310Y1672132D01*
G54D24*
G54D37*
X1974110Y1531232D03*
X1964110D03*
X1974110Y1521232D03*
X1964110D03*
X1969110Y1536252D03*
X1969310Y1516252D03*
G54D38*
X2062102Y1518732D03*
X1941118D03*
G54D39*
X2039110Y1505740D03*
X1964110D03*
G54D44*
X1907638Y1577732D03*
Y1595512D03*
G54D47*
X1901575Y1511417D03*
X2098425Y1688583D03*
Y1511417D03*
X1901575Y1688583D03*
G54D50*
X1962677Y1570669D03*
Y1562795D03*
X1970551Y1570669D03*
Y1562795D03*
X1978425Y1570669D03*
Y1562795D03*
X1986299Y1570669D03*
Y1562795D03*
X1994173Y1570669D03*
Y1562795D03*
X2002047Y1570669D03*
Y1562795D03*
X2009921Y1570669D03*
Y1562795D03*
X2017795Y1570669D03*
Y1562795D03*
X2025669Y1570669D03*
Y1562795D03*
X2033543Y1570669D03*
Y1562795D03*
G54D52*
X2039110Y1533732D03*
X2031591D03*
X2024071D03*
X2016551D03*
X2009031D03*
X2001512D03*
X1993992D03*
X2031591Y1526232D03*
X2024071D03*
X2016551D03*
X2009031D03*
X2001512D03*
X1993992D03*
X1986591D03*
X2039110Y1518732D03*
X2031591D03*
X2024071D03*
X2016551D03*
X2009031D03*
X2001512D03*
X1993992D03*
X1986591D03*
X2039110Y1526232D03*
X1986591Y1533732D03*
G54D53*
X1895827Y1570610D03*
Y1602894D03*
G74*
X0Y0D02*
M02*
