*
*
G04 PADS 9.5 Build Number: 522968 generated Gerber (RS-274-X) file*
G04 PC Version=2.1*
*
%IN "MT-RGBLVDS-A1 (2).pcb"*%
*
%MOIN*%
*
%FSLAX35Y35*%
*
*
*
*
G04 PC Standard Apertures*
*
*
G04 Thermal Relief Aperture macro.*
%AMTER*
1,1,$1,0,0*
1,0,$1-$2,0,0*
21,0,$3,$4,0,0,45*
21,0,$3,$4,0,0,135*
%
*
*
G04 Annular Aperture macro.*
%AMANN*
1,1,$1,0,0*
1,0,$2,0,0*
%
*
*
G04 Odd Aperture macro.*
%AMODD*
1,1,$1,0,0*
1,0,$1-0.005,0,0*
%
*
*
G04 PC Custom Aperture Macros*
*
*
*
*
*
*
G04 PC Aperture Table*
*
%ADD010C,0.01*%
%ADD024C,0.001*%
*
*
*
*
G04 PC Circuitry*
G04 Layer Name MT-RGBLVDS-A1 (2).pcb - circuitry*
%LPD*%
*
*
G04 PC Custom Flashes*
G04 Layer Name MT-RGBLVDS-A1 (2).pcb - flashes*
%LPD*%
*
*
G04 PC Circuitry*
G04 Layer Name MT-RGBLVDS-A1 (2).pcb - circuitry*
%LPD*%
*
G54D10*
G01X2106890Y1518000D02*
X2114890D01*
Y1526000*
X2106890*
Y1518000*
X2110890Y1522000D02*
Y1526000D01*
X2114409Y1518000D02*
X2122409D01*
Y1526000*
X2114409*
Y1518000*
X2118409Y1522000D02*
Y1526000D01*
X2121929Y1518000D02*
X2129929D01*
Y1526000*
X2121929*
Y1518000*
X2125929Y1522000D02*
Y1526000D01*
X2129449Y1518000D02*
X2137449D01*
Y1526000*
X2129449*
Y1518000*
X2133449Y1522000D02*
Y1526000D01*
X2136969Y1518000D02*
X2144969D01*
Y1526000*
X2136969*
Y1518000*
X2140969Y1522000D02*
Y1526000D01*
X2144488Y1518000D02*
X2152488D01*
Y1526000*
X2144488*
Y1518000*
X2148488Y1522000D02*
Y1526000D01*
X2152008Y1518000D02*
X2160008D01*
Y1526000*
X2152008*
Y1518000*
X2156008Y1522000D02*
Y1526000D01*
X2114409Y1510500D02*
X2122409D01*
Y1518500*
X2114409*
Y1510500*
X2118409Y1514500D02*
Y1518500D01*
X2121929Y1510500D02*
X2129929D01*
Y1518500*
X2121929*
Y1510500*
X2125929Y1514500D02*
Y1518500D01*
X2129449Y1510500D02*
X2137449D01*
Y1518500*
X2129449*
Y1510500*
X2133449Y1514500D02*
Y1518500D01*
X2136969Y1510500D02*
X2144969D01*
Y1518500*
X2136969*
Y1510500*
X2140969Y1514500D02*
Y1518500D01*
X2144488Y1510500D02*
X2152488D01*
Y1518500*
X2144488*
Y1510500*
X2148488Y1514500D02*
Y1518500D01*
X2152008Y1510500D02*
X2160008D01*
Y1518500*
X2152008*
Y1510500*
X2156008Y1514500D02*
Y1518500D01*
X2159409Y1510500D02*
X2167409D01*
Y1518500*
X2159409*
Y1510500*
X2163409Y1514500D02*
Y1518500D01*
X2106890Y1503000D02*
X2114890D01*
Y1511000*
X2106890*
Y1503000*
X2110890Y1507000D02*
Y1511000D01*
X2114409Y1503000D02*
X2122409D01*
Y1511000*
X2114409*
Y1503000*
X2118409Y1507000D02*
Y1511000D01*
X2121929Y1503000D02*
X2129929D01*
Y1511000*
X2121929*
Y1503000*
X2125929Y1507000D02*
Y1511000D01*
X2129449Y1503000D02*
X2137449D01*
Y1511000*
X2129449*
Y1503000*
X2133449Y1507000D02*
Y1511000D01*
X2136969Y1503000D02*
X2144969D01*
Y1511000*
X2136969*
Y1503000*
X2140969Y1507000D02*
Y1511000D01*
X2144488Y1503000D02*
X2152488D01*
Y1511000*
X2144488*
Y1503000*
X2148488Y1507000D02*
Y1511000D01*
X2152008Y1503000D02*
X2160008D01*
Y1511000*
X2152008*
Y1503000*
X2156008Y1507000D02*
Y1511000D01*
X2159409Y1503000D02*
X2167409D01*
Y1511000*
X2159409*
Y1503000*
X2163409Y1507000D02*
Y1511000D01*
X2171890Y1515500D02*
X2179890D01*
X2171890Y1523500*
X2179890*
X2171890Y1515500*
X2181890D02*
X2189890D01*
X2181890Y1523500*
X2189890*
X2181890Y1515500*
X2171890Y1505500D02*
X2179890D01*
X2171890Y1513500*
X2179890*
X2171890Y1505500*
X2181890D02*
X2189890D01*
X2181890Y1513500*
X2189890*
X2181890Y1505500*
X2176890Y1520520D02*
X2184890D01*
X2176890Y1528520*
X2184890*
X2176890Y1520520*
X2176690Y1500520D02*
X2184690D01*
X2176690Y1508520*
X2184690*
X2176690Y1500520*
X2083898Y1503000D02*
X2091898Y1511000D01*
Y1503000*
X2083898Y1511000*
Y1503000*
X2204882D02*
X2212882Y1511000D01*
Y1503000*
X2204882Y1511000*
Y1503000*
X2106890Y1490008D02*
X2114890Y1498008D01*
Y1490008*
X2106890Y1498008*
Y1490008*
X2181890D02*
X2189890Y1498008D01*
Y1490008*
X2181890Y1498008*
Y1490008*
X2106890Y1510500D02*
X2114890D01*
Y1518500*
X2106890*
Y1510500*
X2110890Y1514500D02*
Y1518500D01*
X2159409Y1518000D02*
X2167409D01*
Y1526000*
X2159409*
Y1518000*
X2163409Y1522000D02*
Y1526000D01*
X2238362Y1566000D02*
X2246362D01*
X2242362Y1562000D02*
Y1570000D01*
X2245271Y1571281D02*
X2244362Y1568000D01*
X2245271Y1571281D02*
X2246180Y1568000D01*
X2244703Y1569094D02*
X2245839D01*
X2238362Y1583780D02*
X2246362D01*
X2242362Y1579780D02*
Y1587780D01*
X2245271Y1589061D02*
X2244362Y1585780D01*
X2245271Y1589061D02*
X2246180Y1585780D01*
X2244703Y1586873D02*
X2245839D01*
X2250173Y1558878D02*
X2258173D01*
X2254173Y1554878D02*
Y1562878D01*
X2256173Y1564159D02*
Y1560878D01*
Y1564159D02*
X2257195D01*
X2257536Y1564003*
X2257650Y1563846*
X2257764Y1563534*
Y1563221*
X2257650Y1562909*
X2257536Y1562753*
X2257195Y1562596*
X2256173D02*
X2257195D01*
X2257536Y1562440*
X2257650Y1562284*
X2257764Y1561971*
Y1561503*
X2257650Y1561190*
X2257536Y1561034*
X2257195Y1560878*
X2256173*
X2250173Y1591162D02*
X2258173D01*
X2254173Y1587162D02*
Y1595162D01*
X2256173Y1596443D02*
Y1593162D01*
Y1596443D02*
X2257195D01*
X2257536Y1596287*
X2257650Y1596131*
X2257764Y1595818*
Y1595506*
X2257650Y1595193*
X2257536Y1595037*
X2257195Y1594881*
X2256173D02*
X2257195D01*
X2257536Y1594724*
X2257650Y1594568*
X2257764Y1594256*
Y1593787*
X2257650Y1593474*
X2257536Y1593318*
X2257195Y1593162*
X2256173*
X2244425Y1499685D02*
X2252425D01*
X2248425Y1495685D02*
Y1503685D01*
X2252130Y1504185D02*
X2252016Y1504498D01*
X2251789Y1504810*
X2251562Y1504966*
X2251107*
X2250880Y1504810*
X2250652Y1504498*
X2250539Y1504185*
X2250425Y1503716*
Y1502935*
X2250539Y1502466*
X2250652Y1502154*
X2250880Y1501841*
X2251107Y1501685*
X2251562*
X2251789Y1501841*
X2252016Y1502154*
X2252130Y1502466*
X2047575Y1676850D02*
X2055575D01*
X2051575Y1672850D02*
Y1680850D01*
X2055279Y1681350D02*
X2055166Y1681663D01*
X2054938Y1681975*
X2054711Y1682132*
X2054257*
X2054029Y1681975*
X2053802Y1681663*
X2053688Y1681350*
X2053575Y1680882*
Y1680100*
X2053688Y1679632*
X2053802Y1679319*
X2054029Y1679007*
X2054257Y1678850*
X2054711*
X2054938Y1679007*
X2055166Y1679319*
X2055279Y1679632*
X2047575Y1499685D02*
X2055575D01*
X2051575Y1495685D02*
Y1503685D01*
X2055279Y1504185D02*
X2055166Y1504498D01*
X2054938Y1504810*
X2054711Y1504966*
X2054257*
X2054029Y1504810*
X2053802Y1504498*
X2053688Y1504185*
X2053575Y1503716*
Y1502935*
X2053688Y1502466*
X2053802Y1502154*
X2054029Y1501841*
X2054257Y1501685*
X2054711*
X2054938Y1501841*
X2055166Y1502154*
X2055279Y1502466*
X2244425Y1676850D02*
X2252425D01*
X2248425Y1672850D02*
Y1680850D01*
X2252130Y1681350D02*
X2252016Y1681663D01*
X2251789Y1681975*
X2251562Y1682132*
X2251107*
X2250880Y1681975*
X2250652Y1681663*
X2250539Y1681350*
X2250425Y1680882*
Y1680100*
X2250539Y1679632*
X2250652Y1679319*
X2250880Y1679007*
X2251107Y1678850*
X2251562*
X2251789Y1679007*
X2252016Y1679319*
X2252130Y1679632*
X2183323Y1558937D02*
X2191323D01*
X2187323Y1554937D02*
Y1562937D01*
X2189323Y1564218D02*
Y1560937D01*
Y1564218D02*
X2190118D01*
X2190459Y1564062*
X2190686Y1563750*
X2190800Y1563437*
X2190914Y1562968*
Y1562187*
X2190800Y1561718*
X2190686Y1561406*
X2190459Y1561093*
X2190118Y1560937*
X2189323*
X2183323Y1551063D02*
X2191323D01*
X2187323Y1547063D02*
Y1555063D01*
X2189323Y1556344D02*
Y1553063D01*
Y1556344D02*
X2190118D01*
X2190459Y1556188*
X2190686Y1555875*
X2190800Y1555563*
X2190914Y1555094*
Y1554313*
X2190800Y1553844*
X2190686Y1553532*
X2190459Y1553219*
X2190118Y1553063*
X2189323*
X2175449Y1558937D02*
X2183449D01*
X2179449Y1554937D02*
Y1562937D01*
X2181449Y1564218D02*
Y1560937D01*
Y1564218D02*
X2182244D01*
X2182585Y1564062*
X2182812Y1563750*
X2182926Y1563437*
X2183040Y1562968*
Y1562187*
X2182926Y1561718*
X2182812Y1561406*
X2182585Y1561093*
X2182244Y1560937*
X2181449*
X2175449Y1551063D02*
X2183449D01*
X2179449Y1547063D02*
Y1555063D01*
X2181449Y1556344D02*
Y1553063D01*
Y1556344D02*
X2182244D01*
X2182585Y1556188*
X2182812Y1555875*
X2182926Y1555563*
X2183040Y1555094*
Y1554313*
X2182926Y1553844*
X2182812Y1553532*
X2182585Y1553219*
X2182244Y1553063*
X2181449*
X2167575Y1558937D02*
X2175575D01*
X2171575Y1554937D02*
Y1562937D01*
X2173575Y1564218D02*
Y1560937D01*
Y1564218D02*
X2174370D01*
X2174711Y1564062*
X2174938Y1563750*
X2175052Y1563437*
X2175166Y1562968*
Y1562187*
X2175052Y1561718*
X2174938Y1561406*
X2174711Y1561093*
X2174370Y1560937*
X2173575*
X2167575Y1551063D02*
X2175575D01*
X2171575Y1547063D02*
Y1555063D01*
X2173575Y1556344D02*
Y1553063D01*
Y1556344D02*
X2174370D01*
X2174711Y1556188*
X2174938Y1555875*
X2175052Y1555563*
X2175166Y1555094*
Y1554313*
X2175052Y1553844*
X2174938Y1553532*
X2174711Y1553219*
X2174370Y1553063*
X2173575*
X2159701Y1558937D02*
X2167701D01*
X2163701Y1554937D02*
Y1562937D01*
X2165701Y1564218D02*
Y1560937D01*
Y1564218D02*
X2166496D01*
X2166837Y1564062*
X2167064Y1563750*
X2167178Y1563437*
X2167292Y1562968*
Y1562187*
X2167178Y1561718*
X2167064Y1561406*
X2166837Y1561093*
X2166496Y1560937*
X2165701*
X2159701Y1551063D02*
X2167701D01*
X2163701Y1547063D02*
Y1555063D01*
X2165701Y1556344D02*
Y1553063D01*
Y1556344D02*
X2166496D01*
X2166837Y1556188*
X2167064Y1555875*
X2167178Y1555563*
X2167292Y1555094*
Y1554313*
X2167178Y1553844*
X2167064Y1553532*
X2166837Y1553219*
X2166496Y1553063*
X2165701*
X2151827Y1558937D02*
X2159827D01*
X2155827Y1554937D02*
Y1562937D01*
X2157827Y1564218D02*
Y1560937D01*
Y1564218D02*
X2158622D01*
X2158963Y1564062*
X2159190Y1563750*
X2159304Y1563437*
X2159418Y1562968*
Y1562187*
X2159304Y1561718*
X2159190Y1561406*
X2158963Y1561093*
X2158622Y1560937*
X2157827*
X2151827Y1551063D02*
X2159827D01*
X2155827Y1547063D02*
Y1555063D01*
X2157827Y1556344D02*
Y1553063D01*
Y1556344D02*
X2158622D01*
X2158963Y1556188*
X2159190Y1555875*
X2159304Y1555563*
X2159418Y1555094*
Y1554313*
X2159304Y1553844*
X2159190Y1553532*
X2158963Y1553219*
X2158622Y1553063*
X2157827*
X2143953Y1558937D02*
X2151953D01*
X2147953Y1554937D02*
Y1562937D01*
X2149953Y1564218D02*
Y1560937D01*
Y1564218D02*
X2150748D01*
X2151089Y1564062*
X2151316Y1563750*
X2151430Y1563437*
X2151544Y1562968*
Y1562187*
X2151430Y1561718*
X2151316Y1561406*
X2151089Y1561093*
X2150748Y1560937*
X2149953*
X2143953Y1551063D02*
X2151953D01*
X2147953Y1547063D02*
Y1555063D01*
X2149953Y1556344D02*
Y1553063D01*
Y1556344D02*
X2150748D01*
X2151089Y1556188*
X2151316Y1555875*
X2151430Y1555563*
X2151544Y1555094*
Y1554313*
X2151430Y1553844*
X2151316Y1553532*
X2151089Y1553219*
X2150748Y1553063*
X2149953*
X2136079Y1558937D02*
X2144079D01*
X2140079Y1554937D02*
Y1562937D01*
X2142079Y1564218D02*
Y1560937D01*
Y1564218D02*
X2142874D01*
X2143215Y1564062*
X2143442Y1563750*
X2143556Y1563437*
X2143670Y1562968*
Y1562187*
X2143556Y1561718*
X2143442Y1561406*
X2143215Y1561093*
X2142874Y1560937*
X2142079*
X2136079Y1551063D02*
X2144079D01*
X2140079Y1547063D02*
Y1555063D01*
X2142079Y1556344D02*
Y1553063D01*
Y1556344D02*
X2142874D01*
X2143215Y1556188*
X2143442Y1555875*
X2143556Y1555563*
X2143670Y1555094*
Y1554313*
X2143556Y1553844*
X2143442Y1553532*
X2143215Y1553219*
X2142874Y1553063*
X2142079*
X2128205Y1558937D02*
X2136205D01*
X2132205Y1554937D02*
Y1562937D01*
X2134205Y1564218D02*
Y1560937D01*
Y1564218D02*
X2135000D01*
X2135341Y1564062*
X2135568Y1563750*
X2135682Y1563437*
X2135796Y1562968*
Y1562187*
X2135682Y1561718*
X2135568Y1561406*
X2135341Y1561093*
X2135000Y1560937*
X2134205*
X2128205Y1551063D02*
X2136205D01*
X2132205Y1547063D02*
Y1555063D01*
X2134205Y1556344D02*
Y1553063D01*
Y1556344D02*
X2135000D01*
X2135341Y1556188*
X2135568Y1555875*
X2135682Y1555563*
X2135796Y1555094*
Y1554313*
X2135682Y1553844*
X2135568Y1553532*
X2135341Y1553219*
X2135000Y1553063*
X2134205*
X2120331Y1558937D02*
X2128331D01*
X2124331Y1554937D02*
Y1562937D01*
X2126331Y1564218D02*
Y1560937D01*
Y1564218D02*
X2127126D01*
X2127467Y1564062*
X2127694Y1563750*
X2127808Y1563437*
X2127922Y1562968*
Y1562187*
X2127808Y1561718*
X2127694Y1561406*
X2127467Y1561093*
X2127126Y1560937*
X2126331*
X2120331Y1551063D02*
X2128331D01*
X2124331Y1547063D02*
Y1555063D01*
X2126331Y1556344D02*
Y1553063D01*
Y1556344D02*
X2127126D01*
X2127467Y1556188*
X2127694Y1555875*
X2127808Y1555563*
X2127922Y1555094*
Y1554313*
X2127808Y1553844*
X2127694Y1553532*
X2127467Y1553219*
X2127126Y1553063*
X2126331*
X2112457Y1558937D02*
X2120457D01*
X2116457Y1554937D02*
Y1562937D01*
X2118457Y1564218D02*
Y1560937D01*
Y1564218D02*
X2119252D01*
X2119593Y1564062*
X2119820Y1563750*
X2119934Y1563437*
X2120048Y1562968*
Y1562187*
X2119934Y1561718*
X2119820Y1561406*
X2119593Y1561093*
X2119252Y1560937*
X2118457*
X2112457Y1551063D02*
X2120457D01*
X2116457Y1547063D02*
Y1555063D01*
X2118457Y1556344D02*
Y1553063D01*
Y1556344D02*
X2119252D01*
X2119593Y1556188*
X2119820Y1555875*
X2119934Y1555563*
X2120048Y1555094*
Y1554313*
X2119934Y1553844*
X2119820Y1553532*
X2119593Y1553219*
X2119252Y1553063*
X2118457*
X2091890Y1484000D02*
X2099890Y1492000D01*
X2091890D02*
X2099890Y1484000D01*
X2083890D02*
X2091890Y1492000D01*
X2083890D02*
X2091890Y1484000D01*
X2099890D02*
X2107890Y1492000D01*
X2099890D02*
X2107890Y1484000D01*
X2115890D02*
X2123890Y1492000D01*
X2115890D02*
X2123890Y1484000D01*
X2131890D02*
X2139890Y1492000D01*
X2131890D02*
X2139890Y1484000D01*
X2123890D02*
X2131890Y1492000D01*
X2123890D02*
X2131890Y1484000D01*
X2139890D02*
X2147890Y1492000D01*
X2139890D02*
X2147890Y1484000D01*
X2155890Y1492000*
X2147890D02*
X2155890Y1484000D01*
X2163890Y1492000*
X2155890D02*
X2163890Y1484000D01*
X2171890D02*
X2179890Y1492000D01*
X2171890D02*
X2179890Y1484000D01*
X2163890D02*
X2171890Y1492000D01*
X2163890D02*
X2171890Y1484000D01*
X2179890D02*
X2187890Y1492000D01*
X2179890D02*
X2187890Y1484000D01*
X2195890Y1492000*
X2187890D02*
X2195890Y1484000D01*
X2203890Y1492000*
X2195890D02*
X2203890Y1484000D01*
X2211890Y1492000*
X2203890D02*
X2211890Y1484000D01*
X2071890Y1496000D02*
X2079890Y1504000D01*
X2071890D02*
X2079890Y1496000D01*
X2075890Y1492000D02*
X2083890Y1500000D01*
X2075890D02*
X2083890Y1492000D01*
X2091890D02*
X2099890Y1500000D01*
X2091890D02*
X2099890Y1492000D01*
X2083890D02*
X2091890Y1500000D01*
X2083890D02*
X2091890Y1492000D01*
X2099890D02*
X2107890Y1500000D01*
X2099890D02*
X2107890Y1492000D01*
X2115890D02*
X2123890Y1500000D01*
X2115890D02*
X2123890Y1492000D01*
X2131890Y1500000*
X2123890D02*
X2131890Y1492000D01*
X2191890D02*
X2199890Y1500000D01*
X2191890D02*
X2199890Y1492000D01*
X2207890Y1500000*
X2199890D02*
X2207890Y1492000D01*
X2215890Y1500000*
X2207890D02*
X2215890Y1492000D01*
X2223890Y1500000*
X2215890D02*
X2223890Y1492000D01*
X2071890Y1504000D02*
X2079890Y1512000D01*
X2071890D02*
X2079890Y1504000D01*
X2091890Y1500000D02*
X2099890Y1508000D01*
X2091890D02*
X2099890Y1500000D01*
X2191890D02*
X2199890Y1508000D01*
X2191890D02*
X2199890Y1500000D01*
X2191890Y1508000D02*
X2199890Y1516000D01*
X2191890D02*
X2199890Y1508000D01*
X2215890Y1500000D02*
X2223890Y1508000D01*
X2215890D02*
X2223890Y1500000D01*
X2215890Y1508000D02*
X2223890Y1516000D01*
X2215890D02*
X2223890Y1508000D01*
Y1500000D02*
X2231890Y1508000D01*
X2223890D02*
X2231890Y1500000D01*
X2223890Y1508000D02*
X2231890Y1516000D01*
X2223890D02*
X2231890Y1508000D01*
X2071890Y1512000D02*
X2079890Y1520000D01*
X2071890D02*
X2079890Y1512000D01*
X2063890D02*
X2071890Y1520000D01*
X2063890D02*
X2071890Y1512000D01*
X2079890D02*
X2087890Y1520000D01*
X2079890D02*
X2087890Y1512000D01*
X2095890Y1520000*
X2087890D02*
X2095890Y1512000D01*
X2215890Y1516000D02*
X2223890Y1524000D01*
X2215890D02*
X2223890Y1516000D01*
X2231890D02*
X2239890Y1524000D01*
X2231890D02*
X2239890Y1516000D01*
X2223890D02*
X2231890Y1524000D01*
X2223890D02*
X2231890Y1516000D01*
X2239890D02*
X2247890Y1524000D01*
X2239890D02*
X2247890Y1516000D01*
X2035890Y1528000D02*
X2043890Y1536000D01*
X2035890D02*
X2043890Y1528000D01*
X2051890Y1520000D02*
X2059890Y1528000D01*
X2051890D02*
X2059890Y1520000D01*
X2043890D02*
X2051890Y1528000D01*
X2043890D02*
X2051890Y1520000D01*
Y1528000D02*
X2059890Y1536000D01*
X2051890D02*
X2059890Y1528000D01*
X2043890D02*
X2051890Y1536000D01*
X2043890D02*
X2051890Y1528000D01*
X2059890Y1520000D02*
X2067890Y1528000D01*
X2059890D02*
X2067890Y1520000D01*
X2059890Y1528000D02*
X2067890Y1536000D01*
X2059890D02*
X2067890Y1528000D01*
Y1520000D02*
X2075890Y1528000D01*
X2067890D02*
X2075890Y1520000D01*
X2067890Y1528000D02*
X2075890Y1536000D01*
X2067890D02*
X2075890Y1528000D01*
Y1520000D02*
X2083890Y1528000D01*
X2075890D02*
X2083890Y1520000D01*
X2075890Y1528000D02*
X2083890Y1536000D01*
X2075890D02*
X2083890Y1528000D01*
Y1520000D02*
X2091890Y1528000D01*
X2083890D02*
X2091890Y1520000D01*
X2083890Y1528000D02*
X2091890Y1536000D01*
X2083890D02*
X2091890Y1528000D01*
X2215890Y1524000D02*
X2223890Y1532000D01*
X2215890D02*
X2223890Y1524000D01*
X2231890D02*
X2239890Y1532000D01*
X2231890D02*
X2239890Y1524000D01*
X2223890D02*
X2231890Y1532000D01*
X2223890D02*
X2231890Y1524000D01*
X2239890D02*
X2247890Y1532000D01*
X2239890D02*
X2247890Y1524000D01*
X2255890Y1532000*
X2247890D02*
X2255890Y1524000D01*
X2263890Y1532000*
X2255890D02*
X2263890Y1524000D01*
X2035890Y1536000D02*
X2043890Y1544000D01*
X2035890D02*
X2043890Y1536000D01*
X2051890D02*
X2059890Y1544000D01*
X2051890D02*
X2059890Y1536000D01*
X2043890D02*
X2051890Y1544000D01*
X2043890D02*
X2051890Y1536000D01*
X2059890D02*
X2067890Y1544000D01*
X2059890D02*
X2067890Y1536000D01*
X2075890Y1544000*
X2067890D02*
X2075890Y1536000D01*
X2083890Y1544000*
X2075890D02*
X2083890Y1536000D01*
X2091890Y1544000*
X2083890D02*
X2091890Y1536000D01*
X2171890D02*
X2179890Y1544000D01*
X2171890D02*
X2179890Y1536000D01*
X2163890D02*
X2171890Y1544000D01*
X2163890D02*
X2171890Y1536000D01*
X2179890D02*
X2187890Y1544000D01*
X2179890D02*
X2187890Y1536000D01*
X2195890Y1544000*
X2187890D02*
X2195890Y1536000D01*
X2215890Y1532000D02*
X2223890Y1540000D01*
X2215890D02*
X2223890Y1532000D01*
X2231890Y1540000*
X2223890D02*
X2231890Y1532000D01*
X2239890Y1540000*
X2231890D02*
X2239890Y1532000D01*
X2247890Y1540000*
X2239890D02*
X2247890Y1532000D01*
X2255890Y1540000*
X2247890D02*
X2255890Y1532000D01*
X2263890Y1540000*
X2255890D02*
X2263890Y1532000D01*
X2035890Y1544000D02*
X2043890Y1552000D01*
X2035890D02*
X2043890Y1544000D01*
X2051890Y1552000*
X2043890D02*
X2051890Y1544000D01*
X2059890Y1552000*
X2051890D02*
X2059890Y1544000D01*
X2067890Y1552000*
X2059890D02*
X2067890Y1544000D01*
X2075890Y1552000*
X2067890D02*
X2075890Y1544000D01*
X2083890Y1552000*
X2075890D02*
X2083890Y1544000D01*
X2091890Y1552000*
X2083890D02*
X2091890Y1544000D01*
X2215890Y1540000D02*
X2223890Y1548000D01*
X2215890D02*
X2223890Y1540000D01*
X2231890D02*
X2239890Y1548000D01*
X2231890D02*
X2239890Y1540000D01*
X2223890D02*
X2231890Y1548000D01*
X2223890D02*
X2231890Y1540000D01*
X2239890Y1548000D02*
X2247890Y1556000D01*
X2239890D02*
X2247890Y1548000D01*
X2239890Y1540000D02*
X2247890Y1548000D01*
X2239890D02*
X2247890Y1540000D01*
X2255890Y1548000*
X2247890D02*
X2255890Y1540000D01*
Y1548000D02*
X2263890Y1556000D01*
X2255890D02*
X2263890Y1548000D01*
X2255890Y1540000D02*
X2263890Y1548000D01*
X2255890D02*
X2263890Y1540000D01*
X2035890Y1552000D02*
X2043890Y1560000D01*
X2035890D02*
X2043890Y1552000D01*
X2051890D02*
X2059890Y1560000D01*
X2051890D02*
X2059890Y1552000D01*
X2043890D02*
X2051890Y1560000D01*
X2043890D02*
X2051890Y1552000D01*
X2059890D02*
X2067890Y1560000D01*
X2059890D02*
X2067890Y1552000D01*
X2075890Y1560000*
X2067890D02*
X2075890Y1552000D01*
X2083890Y1560000*
X2075890D02*
X2083890Y1552000D01*
X2035890Y1560000D02*
X2043890Y1568000D01*
X2035890D02*
X2043890Y1560000D01*
X2035890Y1568000D02*
X2043890Y1576000D01*
X2035890D02*
X2043890Y1568000D01*
Y1560000D02*
X2051890Y1568000D01*
X2043890D02*
X2051890Y1560000D01*
X2059890Y1568000*
X2051890D02*
X2059890Y1560000D01*
X2051890Y1568000D02*
X2059890Y1576000D01*
X2051890D02*
X2059890Y1568000D01*
X2043890D02*
X2051890Y1576000D01*
X2043890D02*
X2051890Y1568000D01*
X2059890Y1560000D02*
X2067890Y1568000D01*
X2059890D02*
X2067890Y1560000D01*
X2059890Y1568000D02*
X2067890Y1576000D01*
X2059890D02*
X2067890Y1568000D01*
Y1560000D02*
X2075890Y1568000D01*
X2067890D02*
X2075890Y1560000D01*
X2067890Y1568000D02*
X2075890Y1576000D01*
X2067890D02*
X2075890Y1568000D01*
Y1560000D02*
X2083890Y1568000D01*
X2075890D02*
X2083890Y1560000D01*
X2075890Y1568000D02*
X2083890Y1576000D01*
X2075890D02*
X2083890Y1568000D01*
Y1560000D02*
X2091890Y1568000D01*
X2083890D02*
X2091890Y1560000D01*
X2083890Y1568000D02*
X2091890Y1576000D01*
X2083890D02*
X2091890Y1568000D01*
X2115090Y1565600D02*
X2119090Y1569600D01*
X2115090Y1573600*
X2111090Y1569600*
X2115090Y1565600*
Y1569600D02*
Y1573600D01*
X2117490Y1566000D02*
X2125490Y1574000D01*
X2117490D02*
X2125490Y1566000D01*
X2123890Y1565600D02*
X2131890Y1573600D01*
X2123890D02*
X2131890Y1565600D01*
X2148290Y1561600D02*
X2156290Y1569600D01*
X2148290D02*
X2156290Y1561600D01*
X2207890Y1560000D02*
X2215890Y1568000D01*
X2207890D02*
X2215890Y1560000D01*
X2035890Y1576000D02*
X2043890Y1584000D01*
X2035890D02*
X2043890Y1576000D01*
X2051890Y1584000*
X2043890D02*
X2051890Y1576000D01*
X2059890Y1584000*
X2051890D02*
X2059890Y1576000D01*
X2067890Y1584000*
X2059890D02*
X2067890Y1576000D01*
X2075890Y1584000*
X2067890D02*
X2075890Y1576000D01*
X2083890Y1584000*
X2075890D02*
X2083890Y1576000D01*
X2091890Y1584000*
X2083890D02*
X2091890Y1576000D01*
X2144690Y1576400D02*
X2148690Y1580400D01*
X2144690Y1584400*
X2140690Y1580400*
X2144690Y1576400*
Y1580400D02*
Y1584400D01*
Y1569600D02*
X2148690Y1573600D01*
X2144690Y1577600*
X2140690Y1573600*
X2144690Y1569600*
Y1573600D02*
Y1577600D01*
X2171890Y1569600D02*
X2179890Y1577600D01*
X2171890D02*
X2179890Y1569600D01*
X2182290Y1575600D02*
X2186290Y1579600D01*
X2182290Y1583600*
X2178290Y1579600*
X2182290Y1575600*
Y1579600D02*
Y1583600D01*
X2035890Y1584000D02*
X2043890Y1592000D01*
X2035890D02*
X2043890Y1584000D01*
X2051890D02*
X2059890Y1592000D01*
X2051890D02*
X2059890Y1584000D01*
X2043890D02*
X2051890Y1592000D01*
X2043890D02*
X2051890Y1584000D01*
X2059890D02*
X2067890Y1592000D01*
X2059890D02*
X2067890Y1584000D01*
X2075890Y1592000*
X2067890D02*
X2075890Y1584000D01*
X2083890Y1592000*
X2075890D02*
X2083890Y1584000D01*
X2091890Y1592000*
X2083890D02*
X2091890Y1584000D01*
X2211890Y1580000D02*
X2219890Y1588000D01*
X2211890D02*
X2219890Y1580000D01*
X2203890D02*
X2211890Y1588000D01*
X2203890D02*
X2211890Y1580000D01*
Y1588000D02*
X2219890Y1596000D01*
X2211890D02*
X2219890Y1588000D01*
X2203890D02*
X2211890Y1596000D01*
X2203890D02*
X2211890Y1588000D01*
X2219890Y1580000D02*
X2227890Y1588000D01*
X2219890D02*
X2227890Y1580000D01*
X2219890Y1588000D02*
X2227890Y1596000D01*
X2219890D02*
X2227890Y1588000D01*
Y1580000D02*
X2235890Y1588000D01*
X2227890D02*
X2235890Y1580000D01*
X2227890Y1588000D02*
X2235890Y1596000D01*
X2227890D02*
X2235890Y1588000D01*
X2243890Y1596000*
X2235890D02*
X2243890Y1588000D01*
X2035890Y1592000D02*
X2043890Y1600000D01*
X2035890D02*
X2043890Y1592000D01*
X2051890D02*
X2059890Y1600000D01*
X2051890D02*
X2059890Y1592000D01*
X2043890D02*
X2051890Y1600000D01*
X2043890D02*
X2051890Y1592000D01*
X2059890D02*
X2067890Y1600000D01*
X2059890D02*
X2067890Y1592000D01*
X2075890Y1600000*
X2067890D02*
X2075890Y1592000D01*
X2083890Y1600000*
X2075890D02*
X2083890Y1592000D01*
X2091890Y1600000*
X2083890D02*
X2091890Y1592000D01*
X2107890Y1596800D02*
X2111890Y1600800D01*
X2107890Y1604800*
X2103890Y1600800*
X2107890Y1596800*
Y1600800D02*
Y1604800D01*
X2114290Y1592800D02*
X2118290Y1596800D01*
X2114290Y1600800*
X2110290Y1596800*
X2114290Y1592800*
Y1596800D02*
Y1600800D01*
X2119090Y1593200D02*
X2123090Y1597200D01*
X2119090Y1601200*
X2115090Y1597200*
X2119090Y1593200*
Y1597200D02*
Y1601200D01*
X2117490Y1597200D02*
X2121490Y1601200D01*
X2117490Y1605200*
X2113490Y1601200*
X2117490Y1597200*
Y1601200D02*
Y1605200D01*
X2203890Y1596000D02*
X2211890Y1604000D01*
X2203890D02*
X2211890Y1596000D01*
X2219890Y1604000*
X2211890D02*
X2219890Y1596000D01*
X2227890Y1604000*
X2219890D02*
X2227890Y1596000D01*
X2235890Y1604000*
X2227890D02*
X2235890Y1596000D01*
X2243890Y1604000*
X2235890D02*
X2243890Y1596000D01*
X2251890Y1604000*
X2243890D02*
X2251890Y1596000D01*
X2259890Y1604000*
X2251890D02*
X2259890Y1596000D01*
X2267890Y1604000*
X2259890D02*
X2267890Y1596000D01*
X2035890Y1600000D02*
X2043890Y1608000D01*
X2035890D02*
X2043890Y1600000D01*
X2035890Y1608000D02*
X2043890Y1616000D01*
X2035890D02*
X2043890Y1608000D01*
X2051890Y1600000D02*
X2059890Y1608000D01*
X2051890D02*
X2059890Y1600000D01*
X2051890Y1608000D02*
X2059890Y1616000D01*
X2051890D02*
X2059890Y1608000D01*
X2043890D02*
X2051890Y1616000D01*
X2043890D02*
X2051890Y1608000D01*
X2043890Y1600000D02*
X2051890Y1608000D01*
X2043890D02*
X2051890Y1600000D01*
X2059890D02*
X2067890Y1608000D01*
X2059890D02*
X2067890Y1600000D01*
X2059890Y1608000D02*
X2067890Y1616000D01*
X2059890D02*
X2067890Y1608000D01*
Y1600000D02*
X2075890Y1608000D01*
X2067890D02*
X2075890Y1600000D01*
X2067890Y1608000D02*
X2075890Y1616000D01*
X2067890D02*
X2075890Y1608000D01*
Y1600000D02*
X2083890Y1608000D01*
X2075890D02*
X2083890Y1600000D01*
X2075890Y1608000D02*
X2083890Y1616000D01*
X2075890D02*
X2083890Y1608000D01*
Y1600000D02*
X2091890Y1608000D01*
X2083890D02*
X2091890Y1600000D01*
X2083890Y1608000D02*
X2091890Y1616000D01*
X2083890D02*
X2091890Y1608000D01*
X2147490Y1604000D02*
X2155490Y1612000D01*
X2147490D02*
X2155490Y1604000D01*
X2168290Y1603600D02*
X2176290Y1611600D01*
X2168290D02*
X2176290Y1603600D01*
X2203890Y1604000D02*
X2211890Y1612000D01*
X2203890D02*
X2211890Y1604000D01*
X2219890Y1612000*
X2211890D02*
X2219890Y1604000D01*
X2227890Y1612000*
X2219890D02*
X2227890Y1604000D01*
X2235890Y1612000*
X2227890D02*
X2235890Y1604000D01*
X2243890Y1612000*
X2235890D02*
X2243890Y1604000D01*
X2251890D02*
X2259890Y1612000D01*
X2251890D02*
X2259890Y1604000D01*
X2243890D02*
X2251890Y1612000D01*
X2243890D02*
X2251890Y1604000D01*
X2259890D02*
X2267890Y1612000D01*
X2259890D02*
X2267890Y1604000D01*
X2111090Y1614400D02*
X2115090Y1618400D01*
X2111090Y1622400*
X2107090Y1618400*
X2111090Y1614400*
Y1618400D02*
Y1622400D01*
X2114290Y1617200D02*
X2118290Y1621200D01*
X2114290Y1625200*
X2110290Y1621200*
X2114290Y1617200*
Y1621200D02*
Y1625200D01*
X2167890Y1612400D02*
X2175890Y1620400D01*
X2167890D02*
X2175890Y1612400D01*
X2179490Y1609500D02*
X2183490Y1613500D01*
X2179490Y1617500*
X2175490Y1613500*
X2179490Y1609500*
Y1613500D02*
Y1617500D01*
X2193390Y1609500D02*
X2197390Y1613500D01*
X2193390Y1617500*
X2189390Y1613500*
X2193390Y1609500*
Y1613500D02*
Y1617500D01*
X2211890Y1612000D02*
X2219890Y1620000D01*
X2211890D02*
X2219890Y1612000D01*
X2227890Y1620000*
X2219890D02*
X2227890Y1612000D01*
X2235890Y1620000*
X2227890D02*
X2235890Y1612000D01*
X2243890Y1620000*
X2235890D02*
X2243890Y1612000D01*
X2251890D02*
X2259890Y1620000D01*
X2251890D02*
X2259890Y1612000D01*
X2243890D02*
X2251890Y1620000D01*
X2243890D02*
X2251890Y1612000D01*
X2259890D02*
X2267890Y1620000D01*
X2259890D02*
X2267890Y1612000D01*
X2121890Y1621000D02*
X2125890Y1625000D01*
X2121890Y1629000*
X2117890Y1625000*
X2121890Y1621000*
Y1625000D02*
Y1629000D01*
X2123490Y1628000D02*
X2131490Y1636000D01*
X2123490D02*
X2131490Y1628000D01*
X2158690D02*
X2166690Y1636000D01*
X2158690D02*
X2166690Y1628000D01*
X2174290D02*
X2182290Y1636000D01*
X2174290D02*
X2182290Y1628000D01*
X2191890D02*
X2199890Y1636000D01*
X2191890D02*
X2199890Y1628000D01*
X2195890D02*
X2203890Y1636000D01*
X2195890D02*
X2203890Y1628000D01*
X2211890Y1620000D02*
X2219890Y1628000D01*
X2211890D02*
X2219890Y1620000D01*
X2211890Y1628000D02*
X2219890Y1636000D01*
X2211890D02*
X2219890Y1628000D01*
X2203890D02*
X2211890Y1636000D01*
X2203890D02*
X2211890Y1628000D01*
X2219890Y1620000D02*
X2227890Y1628000D01*
X2219890D02*
X2227890Y1620000D01*
X2219890Y1628000D02*
X2227890Y1636000D01*
X2219890D02*
X2227890Y1628000D01*
Y1620000D02*
X2235890Y1628000D01*
X2227890D02*
X2235890Y1620000D01*
X2227890Y1628000D02*
X2235890Y1636000D01*
X2227890D02*
X2235890Y1628000D01*
Y1620000D02*
X2243890Y1628000D01*
X2235890D02*
X2243890Y1620000D01*
X2235890Y1628000D02*
X2243890Y1636000D01*
X2235890D02*
X2243890Y1628000D01*
Y1620000D02*
X2251890Y1628000D01*
X2243890D02*
X2251890Y1620000D01*
X2259890Y1628000*
X2251890D02*
X2259890Y1620000D01*
X2251890Y1628000D02*
X2259890Y1636000D01*
X2251890D02*
X2259890Y1628000D01*
X2243890D02*
X2251890Y1636000D01*
X2243890D02*
X2251890Y1628000D01*
X2259890Y1620000D02*
X2267890Y1628000D01*
X2259890D02*
X2267890Y1620000D01*
X2259890Y1628000D02*
X2267890Y1636000D01*
X2259890D02*
X2267890Y1628000D01*
X2126690Y1638400D02*
X2130690Y1642400D01*
X2126690Y1646400*
X2122690Y1642400*
X2126690Y1638400*
Y1642400D02*
Y1646400D01*
X2148690Y1636800D02*
X2152690Y1640800D01*
X2148690Y1644800*
X2144690Y1640800*
X2148690Y1636800*
Y1640800D02*
Y1644800D01*
X2178290Y1638000D02*
X2182290Y1642000D01*
X2178290Y1646000*
X2174290Y1642000*
X2178290Y1638000*
Y1642000D02*
Y1646000D01*
X2195890Y1636000D02*
X2203890Y1644000D01*
X2195890D02*
X2203890Y1636000D01*
X2211890D02*
X2219890Y1644000D01*
X2211890D02*
X2219890Y1636000D01*
X2203890D02*
X2211890Y1644000D01*
X2203890D02*
X2211890Y1636000D01*
X2219890D02*
X2227890Y1644000D01*
X2219890D02*
X2227890Y1636000D01*
X2235890Y1644000*
X2227890D02*
X2235890Y1636000D01*
X2243890Y1644000*
X2235890D02*
X2243890Y1636000D01*
X2251890D02*
X2259890Y1644000D01*
X2251890D02*
X2259890Y1636000D01*
X2243890D02*
X2251890Y1644000D01*
X2243890D02*
X2251890Y1636000D01*
X2259890D02*
X2267890Y1644000D01*
X2259890D02*
X2267890Y1636000D01*
X2035890Y1640000D02*
X2043890Y1648000D01*
X2035890D02*
X2043890Y1640000D01*
X2051890Y1648000*
X2043890D02*
X2051890Y1640000D01*
X2059890Y1648000*
X2051890D02*
X2059890Y1640000D01*
X2043890Y1648000D02*
X2051890Y1656000D01*
X2043890D02*
X2051890Y1648000D01*
X2059890Y1656000*
X2051890D02*
X2059890Y1648000D01*
Y1640000D02*
X2067890Y1648000D01*
X2059890D02*
X2067890Y1640000D01*
X2059890Y1648000D02*
X2067890Y1656000D01*
X2059890D02*
X2067890Y1648000D01*
Y1640000D02*
X2075890Y1648000D01*
X2067890D02*
X2075890Y1640000D01*
X2067890Y1648000D02*
X2075890Y1656000D01*
X2067890D02*
X2075890Y1648000D01*
Y1640000D02*
X2083890Y1648000D01*
X2075890D02*
X2083890Y1640000D01*
X2075890Y1648000D02*
X2083890Y1656000D01*
X2075890D02*
X2083890Y1648000D01*
Y1640000D02*
X2091890Y1648000D01*
X2083890D02*
X2091890Y1640000D01*
X2083890Y1648000D02*
X2091890Y1656000D01*
X2083890D02*
X2091890Y1648000D01*
Y1640000D02*
X2099890Y1648000D01*
X2091890D02*
X2099890Y1640000D01*
X2091890Y1648000D02*
X2099890Y1656000D01*
X2091890D02*
X2099890Y1648000D01*
X2131490Y1643600D02*
X2135490Y1647600D01*
X2131490Y1651600*
X2127490Y1647600*
X2131490Y1643600*
Y1647600D02*
Y1651600D01*
X2135090Y1645600D02*
X2139090Y1649600D01*
X2135090Y1653600*
X2131090Y1649600*
X2135090Y1645600*
Y1649600D02*
Y1653600D01*
X2140690Y1646800D02*
X2144690Y1650800D01*
X2140690Y1654800*
X2136690Y1650800*
X2140690Y1646800*
Y1650800D02*
Y1654800D01*
X2142390Y1643000D02*
X2146390Y1647000D01*
X2142390Y1651000*
X2138390Y1647000*
X2142390Y1643000*
Y1647000D02*
Y1651000D01*
X2146290Y1641200D02*
X2150290Y1645200D01*
X2146290Y1649200*
X2142290Y1645200*
X2146290Y1641200*
Y1645200D02*
Y1649200D01*
X2154390Y1640000D02*
X2158390Y1644000D01*
X2154390Y1648000*
X2150390Y1644000*
X2154390Y1640000*
Y1644000D02*
Y1648000D01*
X2156690Y1649000D02*
X2160690Y1653000D01*
X2156690Y1657000*
X2152690Y1653000*
X2156690Y1649000*
Y1653000D02*
Y1657000D01*
X2159090Y1646000D02*
X2163090Y1650000D01*
X2159090Y1654000*
X2155090Y1650000*
X2159090Y1646000*
Y1650000D02*
Y1654000D01*
X2156890Y1643000D02*
X2160890Y1647000D01*
X2156890Y1651000*
X2152890Y1647000*
X2156890Y1643000*
Y1647000D02*
Y1651000D01*
X2179490Y1649000D02*
X2183490Y1653000D01*
X2179490Y1657000*
X2175490Y1653000*
X2179490Y1649000*
Y1653000D02*
Y1657000D01*
X2179890Y1643200D02*
X2183890Y1647200D01*
X2179890Y1651200*
X2175890Y1647200*
X2179890Y1643200*
Y1647200D02*
Y1651200D01*
X2176690Y1646000D02*
X2180690Y1650000D01*
X2176690Y1654000*
X2172690Y1650000*
X2176690Y1646000*
Y1650000D02*
Y1654000D01*
X2195890Y1644000D02*
X2203890Y1652000D01*
X2195890D02*
X2203890Y1644000D01*
X2199090Y1648800D02*
X2203090Y1652800D01*
X2199090Y1656800*
X2195090Y1652800*
X2199090Y1648800*
Y1652800D02*
Y1656800D01*
X2211890Y1644000D02*
X2219890Y1652000D01*
X2211890D02*
X2219890Y1644000D01*
X2203890D02*
X2211890Y1652000D01*
X2203890D02*
X2211890Y1644000D01*
X2219890D02*
X2227890Y1652000D01*
X2219890D02*
X2227890Y1644000D01*
X2235890Y1652000*
X2227890D02*
X2235890Y1644000D01*
X2243890Y1652000*
X2235890D02*
X2243890Y1644000D01*
X2251890D02*
X2259890Y1652000D01*
X2251890D02*
X2259890Y1644000D01*
X2243890D02*
X2251890Y1652000D01*
X2243890D02*
X2251890Y1644000D01*
X2259890D02*
X2267890Y1652000D01*
X2259890D02*
X2267890Y1644000D01*
X2067890Y1656000D02*
X2075890Y1664000D01*
X2067890D02*
X2075890Y1656000D01*
X2083890Y1664000*
X2075890D02*
X2083890Y1656000D01*
X2091890D02*
X2099890Y1664000D01*
X2091890D02*
X2099890Y1656000D01*
X2083890D02*
X2091890Y1664000D01*
X2083890D02*
X2091890Y1656000D01*
X2103890Y1650400D02*
X2111890Y1658400D01*
X2103890D02*
X2111890Y1650400D01*
X2158690Y1656400D02*
X2162690Y1660400D01*
X2158690Y1664400*
X2154690Y1660400*
X2158690Y1656400*
Y1660400D02*
Y1664400D01*
X2159090Y1652000D02*
X2163090Y1656000D01*
X2159090Y1660000*
X2155090Y1656000*
X2159090Y1652000*
Y1656000D02*
Y1660000D01*
X2176290Y1652000D02*
X2180290Y1656000D01*
X2176290Y1660000*
X2172290Y1656000*
X2176290Y1652000*
Y1656000D02*
Y1660000D01*
X2181890Y1655200D02*
X2185890Y1659200D01*
X2181890Y1663200*
X2177890Y1659200*
X2181890Y1655200*
Y1659200D02*
Y1663200D01*
X2211890Y1652000D02*
X2219890Y1660000D01*
X2211890D02*
X2219890Y1652000D01*
X2203890D02*
X2211890Y1660000D01*
X2203890D02*
X2211890Y1652000D01*
X2219890D02*
X2227890Y1660000D01*
X2219890D02*
X2227890Y1652000D01*
X2235890Y1660000*
X2227890D02*
X2235890Y1652000D01*
X2243890Y1660000*
X2235890D02*
X2243890Y1652000D01*
X2251890D02*
X2259890Y1660000D01*
X2251890D02*
X2259890Y1652000D01*
X2243890D02*
X2251890Y1660000D01*
X2243890D02*
X2251890Y1652000D01*
X2067890Y1664000D02*
X2075890Y1672000D01*
X2067890D02*
X2075890Y1664000D01*
X2083890Y1672000*
X2075890D02*
X2083890Y1664000D01*
X2091890Y1672000*
X2083890D02*
X2091890Y1664000D01*
X2099890Y1672000*
X2091890D02*
X2099890Y1664000D01*
X2136290Y1669200D02*
X2140290Y1673200D01*
X2136290Y1677200*
X2132290Y1673200*
X2136290Y1669200*
Y1673200D02*
Y1677200D01*
X2211890Y1660000D02*
X2219890Y1668000D01*
X2211890D02*
X2219890Y1660000D01*
X2203890D02*
X2211890Y1668000D01*
X2203890D02*
X2211890Y1660000D01*
Y1668000D02*
X2219890Y1676000D01*
X2211890D02*
X2219890Y1668000D01*
X2203890D02*
X2211890Y1676000D01*
X2203890D02*
X2211890Y1668000D01*
X2219890Y1660000D02*
X2227890Y1668000D01*
X2219890D02*
X2227890Y1660000D01*
X2219890Y1668000D02*
X2227890Y1676000D01*
X2219890D02*
X2227890Y1668000D01*
X2075890Y1672000D02*
X2083890Y1680000D01*
X2075890D02*
X2083890Y1672000D01*
X2091890Y1680000*
X2083890D02*
X2091890Y1672000D01*
X2111890Y1676000D02*
X2119890Y1684000D01*
X2111890D02*
X2119890Y1676000D01*
X2103890D02*
X2111890Y1684000D01*
X2103890D02*
X2111890Y1676000D01*
X2119890D02*
X2127890Y1684000D01*
X2119890D02*
X2127890Y1676000D01*
X2135890Y1684000*
X2127890D02*
X2135890Y1676000D01*
X2143090Y1676800D02*
X2147090Y1680800D01*
X2143090Y1684800*
X2139090Y1680800*
X2143090Y1676800*
Y1680800D02*
Y1684800D01*
X2139490Y1675200D02*
X2143490Y1679200D01*
X2139490Y1683200*
X2135490Y1679200*
X2139490Y1675200*
Y1679200D02*
Y1683200D01*
X2146690Y1678800D02*
X2150690Y1682800D01*
X2146690Y1686800*
X2142690Y1682800*
X2146690Y1678800*
Y1682800D02*
Y1686800D01*
X2211890Y1676000D02*
X2219890Y1684000D01*
X2211890D02*
X2219890Y1676000D01*
X2227890Y1684000*
X2219890D02*
X2227890Y1676000D01*
X2083890Y1680000D02*
X2091890Y1688000D01*
X2083890D02*
X2091890Y1680000D01*
Y1684000D02*
X2099890Y1692000D01*
X2091890D02*
X2099890Y1684000D01*
X2107890Y1692000*
X2099890D02*
X2107890Y1684000D01*
X2115890Y1692000*
X2107890D02*
X2115890Y1684000D01*
X2123890Y1692000*
X2115890D02*
X2123890Y1684000D01*
X2131890D02*
X2139890Y1692000D01*
X2131890D02*
X2139890Y1684000D01*
X2123890D02*
X2131890Y1692000D01*
X2123890D02*
X2131890Y1684000D01*
X2139890D02*
X2147890Y1692000D01*
X2139890D02*
X2147890Y1684000D01*
X2154290Y1682000D02*
X2158290Y1686000D01*
X2154290Y1690000*
X2150290Y1686000*
X2154290Y1682000*
Y1686000D02*
Y1690000D01*
X2150290Y1680800D02*
X2154290Y1684800D01*
X2150290Y1688800*
X2146290Y1684800*
X2150290Y1680800*
Y1684800D02*
Y1688800D01*
X2195890Y1684000D02*
X2203890Y1692000D01*
X2195890D02*
X2203890Y1684000D01*
X2211890D02*
X2219890Y1692000D01*
X2211890D02*
X2219890Y1684000D01*
X2203890D02*
X2211890Y1692000D01*
X2203890D02*
X2211890Y1684000D01*
X2219890D02*
X2227890Y1692000D01*
X2219890D02*
X2227890Y1684000D01*
X2031890Y1487874D02*
G75*
G03X2039764Y1480000I7874J0D01*
G01X2031890Y1487874D02*
Y1688661D01*
X2039764Y1696535D02*
G03X2031890Y1688661I-0J-7874D01*
G01X2039764Y1696535D02*
X2260236D01*
X2268110Y1688661D02*
G03X2260236Y1696535I-7874J0D01*
G01X2268110Y1688661D02*
Y1487874D01*
X2260236Y1480000D02*
G03X2268110Y1487874I0J7874D01*
G01X2260236Y1480000D02*
X2039764D01*
X2031890Y1710000D02*
X2131545D01*
X2031890D02*
X2041890Y1712500D01*
Y1707500*
X2031890Y1710000*
X2268110D02*
X2168455D01*
X2268110D02*
X2258110Y1707500D01*
Y1712500*
X2268110Y1710000*
X2031890Y1681850D02*
Y1715000D01*
X2268110Y1681850D02*
Y1715000D01*
X2137273Y1711875D02*
X2137045Y1712500D01*
X2136364Y1712813*
X2136364D02*
X2135909D01*
X2135909D02*
X2135227Y1712500D01*
X2134773Y1711563*
X2134773D02*
X2134545Y1710000D01*
Y1708438*
X2134545D02*
X2134773Y1707188D01*
X2134773D02*
X2135227Y1706563D01*
X2135227D02*
X2135909Y1706250D01*
X2136136*
X2136818Y1706563*
X2136818D02*
X2137273Y1707188D01*
X2137273D02*
X2137500Y1708125D01*
Y1708438*
X2137500D02*
X2137273Y1709375D01*
X2136818Y1710000*
X2136136Y1710313*
X2136136D02*
X2135909D01*
X2135909D02*
X2135227Y1710000D01*
X2134773Y1709375*
X2134545Y1708438*
X2140909Y1712813D02*
X2140227Y1712500D01*
X2139773Y1711563*
X2139773D02*
X2139545Y1710000D01*
Y1709063*
X2139545D02*
X2139773Y1707500D01*
X2140227Y1706563*
X2140227D02*
X2140909Y1706250D01*
X2141364*
X2142045Y1706563*
X2142045D02*
X2142500Y1707500D01*
X2142727Y1709063*
X2142727D02*
Y1710000D01*
X2142500Y1711563*
X2142500D02*
X2142045Y1712500D01*
X2141364Y1712813*
X2141364D02*
X2140909D01*
X2145000Y1706875D02*
X2144773Y1706563D01*
X2144773D02*
X2145000Y1706250D01*
X2145227Y1706563*
X2145227D02*
X2145000Y1706875D01*
X2148636Y1712813D02*
X2147955Y1712500D01*
X2147500Y1711563*
X2147500D02*
X2147273Y1710000D01*
Y1709063*
X2147273D02*
X2147500Y1707500D01*
X2147955Y1706563*
X2147955D02*
X2148636Y1706250D01*
X2149091*
X2149773Y1706563*
X2149773D02*
X2150227Y1707500D01*
X2150455Y1709063*
X2150455D02*
Y1710000D01*
X2150227Y1711563*
X2150227D02*
X2149773Y1712500D01*
X2149091Y1712813*
X2149091D02*
X2148636D01*
X2152500Y1710625D02*
Y1706250D01*
Y1709375D02*
X2153182Y1710313D01*
X2153182D02*
X2153636Y1710625D01*
X2154318*
X2154773Y1710313*
X2154773D02*
X2155000Y1709375D01*
Y1706250*
Y1709375D02*
X2155682Y1710313D01*
X2155682D02*
X2156136Y1710625D01*
X2156818*
X2157273Y1710313*
X2157273D02*
X2157500Y1709375D01*
Y1706250*
X2159545Y1710625D02*
Y1706250D01*
Y1709375D02*
X2160227Y1710313D01*
X2160227D02*
X2160682Y1710625D01*
X2161364*
X2161818Y1710313*
X2161818D02*
X2162045Y1709375D01*
Y1706250*
Y1709375D02*
X2162727Y1710313D01*
X2162727D02*
X2163182Y1710625D01*
X2163864*
X2164318Y1710313*
X2164318D02*
X2164545Y1709375D01*
Y1706250*
X1996690Y1480000D02*
Y1581518D01*
Y1480000D02*
X1994190Y1490000D01*
X1999190*
X1996690Y1480000*
Y1696535D02*
Y1595018D01*
Y1696535D02*
X1999190Y1686535D01*
X1994190*
X1996690Y1696535*
X2026890Y1480000D02*
X1991690D01*
X2026890Y1696535D02*
X1991690D01*
X1983849Y1591080D02*
X1981576D01*
X1981349Y1588268*
X1981576Y1588580*
X1982258Y1588893*
X1982940*
X1983622Y1588580*
X1984076Y1587955*
X1984303Y1587018*
X1984076Y1586393*
X1983849Y1585455*
X1983394Y1584830*
X1982712Y1584518*
X1982031*
X1981349Y1584830*
X1981122Y1585143*
X1980894Y1585768*
X1989303Y1591080D02*
X1987031D01*
X1986803Y1588268*
X1987031Y1588580*
X1987712Y1588893*
X1988394*
X1989076Y1588580*
X1989531Y1587955*
X1989758Y1587018*
X1989531Y1586393*
X1989303Y1585455*
X1988849Y1584830*
X1988167Y1584518*
X1987485*
X1986803Y1584830*
X1986576Y1585143*
X1986349Y1585768*
X1992031Y1585143D02*
X1991803Y1584830D01*
X1992031Y1584518*
X1992258Y1584830*
X1992031Y1585143*
X1995667Y1591080D02*
X1994985Y1590768D01*
X1994531Y1589830*
X1994303Y1588268*
Y1587330*
X1994531Y1585768*
X1994985Y1584830*
X1995667Y1584518*
X1996122*
X1996803Y1584830*
X1997258Y1585768*
X1997485Y1587330*
Y1588268*
X1997258Y1589830*
X1996803Y1590768*
X1996122Y1591080*
X1995667*
X1999531Y1588893D02*
Y1584518D01*
Y1587643D02*
X2000212Y1588580D01*
X2000667Y1588893*
X2001349*
X2001803Y1588580*
X2002031Y1587643*
Y1584518*
Y1587643D02*
X2002712Y1588580D01*
X2003167Y1588893*
X2003849*
X2004303Y1588580*
X2004531Y1587643*
Y1584518*
X2006576Y1588893D02*
Y1584518D01*
Y1587643D02*
X2007258Y1588580D01*
X2007712Y1588893*
X2008394*
X2008849Y1588580*
X2009076Y1587643*
Y1584518*
Y1587643D02*
X2009758Y1588580D01*
X2010212Y1588893*
X2010894*
X2011349Y1588580*
X2011576Y1587643*
Y1584518*
X1731890Y1720000D02*
X1989890D01*
X1731890Y1696000D02*
X1989890D01*
X1731890Y1672000D02*
X1989890D01*
X1731890Y1648000D02*
X1989890D01*
X1731890Y1624000D02*
X1989890D01*
X1731890Y1600000D02*
X1989890D01*
X1731890Y1576000D02*
X1989890D01*
X1731890Y1552000D02*
X1989890D01*
X1731890Y1528000D02*
X1989890D01*
X1731890Y1504000D02*
X1989890D01*
X1731890Y1480000D02*
X1989890D01*
X1731890Y1720000D02*
Y1480000D01*
X1815890Y1720000D02*
Y1480000D01*
X1851890Y1720000D02*
Y1480000D01*
X1887890Y1720000D02*
Y1480000D01*
X1941890Y1720000D02*
Y1480000D01*
X1989890Y1720000D02*
Y1480000D01*
X1760708Y1702000D02*
X1762253Y1704375D01*
X1762617Y1706375*
Y1709625*
X1762981Y1709875*
X1770072*
X1770435Y1709625*
Y1707000*
X1770072Y1706750*
X1762617*
X1766708D02*
X1767435Y1705000D01*
X1769344Y1703125*
X1771617Y1702000*
X1777435Y1704625D02*
X1776708Y1705875D01*
X1775617Y1706750*
X1774072Y1708500D02*
X1784162D01*
X1781981Y1710250D02*
Y1702000D01*
X1781617Y1701750*
X1778981Y1702250*
X1820708Y1705000D02*
X1825981D01*
X1825253D02*
X1824435Y1703500D01*
X1823344Y1702625*
X1821072Y1701750*
X1825253D02*
X1823344Y1702875D01*
X1821435Y1703500*
Y1703750*
X1822617Y1704625*
X1823344Y1705875*
Y1706125D02*
Y1710250D01*
X1821072D02*
X1821799Y1709000D01*
X1824435D02*
X1825253Y1710250D01*
X1825981Y1708500D02*
X1821072D01*
X1820708Y1706375D02*
X1822253Y1707250D01*
X1823344Y1708500*
X1825617Y1707000*
X1826344D02*
X1827072Y1708750D01*
Y1710250*
Y1708750D02*
X1831981D01*
X1831253D02*
X1830435Y1706125D01*
X1828617Y1703125*
X1826708Y1701750*
X1831617D02*
X1830072Y1703125D01*
X1828253Y1706125*
X1827435Y1708750*
X1834072Y1702000D02*
X1844981D01*
X1844162Y1703125D02*
X1834799D01*
X1835617Y1704625D02*
Y1706375D01*
X1835981Y1706750*
X1843435*
X1843799Y1706375*
Y1704625*
X1843435Y1704375*
X1835981*
X1835617Y1704625*
Y1705500D02*
X1843799D01*
X1839708Y1706750D02*
Y1702000D01*
X1834435Y1707625D02*
X1845344D01*
X1835617Y1708750D02*
Y1709875D01*
X1835981Y1710250*
X1843435*
X1843799Y1709875*
Y1708750*
X1843435Y1708500*
X1835981*
X1835617Y1708750*
Y1709375D02*
X1843799D01*
X1857435Y1705500D02*
X1858981Y1706750D01*
X1860072Y1708125*
X1858981Y1706750D02*
Y1701750D01*
X1863435Y1703750D02*
X1861981Y1705250D01*
X1861253Y1706750D02*
X1867981D01*
X1866435Y1707875D02*
Y1702000D01*
X1866072Y1701750*
X1864617Y1702000*
X1863435Y1703750D02*
X1861981Y1705250D01*
X1856708Y1708750D02*
X1858253Y1709625D01*
X1858617Y1710500*
X1858253Y1709625D02*
X1862344D01*
X1860799Y1708500D02*
X1859344Y1709625D01*
X1864253Y1710500D02*
X1863799Y1709625D01*
X1862708Y1708750*
X1863799Y1709625D02*
X1867981D01*
X1866435Y1708500D02*
X1865344Y1709625D01*
X1870072Y1706125D02*
X1880617D01*
X1873072D02*
X1872344Y1704625D01*
X1872708Y1704375*
X1878708*
X1879072Y1704125*
X1878708Y1702000*
X1878344Y1701750*
X1875344Y1702000*
X1871981Y1707875D02*
Y1709625D01*
X1872344Y1709875*
X1878708*
X1879072Y1709625*
Y1707875*
X1878708Y1707625*
X1872344*
X1871981Y1707875*
X1917390Y1708000D02*
Y1708375D01*
X1917662Y1709125*
X1917935Y1709500*
X1918481Y1709875*
X1919572*
X1920117Y1709500*
X1920390Y1709125*
X1920662Y1708375*
Y1707625*
X1920390Y1706875*
X1920117Y1706500*
X1919026Y1705750*
Y1704625*
Y1702750D02*
X1918753Y1702375D01*
X1919026Y1702000*
X1919299Y1702375*
X1919026Y1702750*
X1923117Y1708000D02*
Y1708375D01*
X1923390Y1709125*
X1923662Y1709500*
X1924208Y1709875*
X1925299*
X1925844Y1709500*
X1926117Y1709125*
X1926390Y1708375*
Y1707625*
X1926117Y1706875*
X1925844Y1706500*
X1924753Y1705750*
Y1704625*
Y1702750D02*
X1924481Y1702375D01*
X1924753Y1702000*
X1925026Y1702375*
X1924753Y1702750*
X1958572Y1709875D02*
Y1702000D01*
X1956662Y1709875D02*
X1960481D01*
X1964572D02*
X1964026Y1709500D01*
X1963481Y1708750*
X1963208Y1708000*
X1962935Y1706875*
Y1705000*
X1963208Y1703875*
X1963481Y1703125*
X1964026Y1702375*
X1964572Y1702000*
X1965662*
X1966208Y1702375*
X1966753Y1703125*
X1967026Y1703875*
X1967299Y1705000*
Y1706875*
X1967026Y1708000*
X1966753Y1708750*
X1966208Y1709500*
X1965662Y1709875*
X1964572*
X1969753D02*
Y1702000D01*
X1973026*
X1737890Y1684375D02*
X1738435Y1684750D01*
X1739253Y1685875*
Y1678000*
X1744981Y1684750D02*
X1744708Y1685500D01*
X1743890Y1685875*
X1743344*
X1742526Y1685500*
X1741981Y1684375*
X1741708Y1682500*
Y1680625*
X1741981Y1679125*
X1742526Y1678375*
X1743344Y1678000*
X1743617*
X1744435Y1678375*
X1744981Y1679125*
X1745253Y1680250*
Y1680625*
X1744981Y1681750*
X1744435Y1682500*
X1743617Y1682875*
X1743344*
X1742526Y1682500*
X1741981Y1681750*
X1741708Y1680625*
X1824935Y1684000D02*
Y1684375D01*
X1825208Y1685125*
X1825481Y1685500*
X1826026Y1685875*
X1827117*
X1827662Y1685500*
X1827935Y1685125*
X1828208Y1684375*
Y1683625*
X1827935Y1682875*
X1827390Y1681750*
X1824662Y1678000*
X1828481*
X1832299Y1685875D02*
X1831481Y1685500D01*
X1831208Y1684750*
Y1684000*
X1831481Y1683250*
X1832026Y1682875*
X1833117Y1682500*
X1833935Y1682125*
X1834481Y1681375*
X1834753Y1680625*
Y1679500*
X1834481Y1678750*
X1834208Y1678375*
X1833390Y1678000*
X1832299*
X1831481Y1678375*
X1831208Y1678750*
X1830935Y1679500*
Y1680625*
X1831208Y1681375*
X1831753Y1682125*
X1832572Y1682500*
X1833662Y1682875*
X1834208Y1683250*
X1834481Y1684000*
Y1684750*
X1834208Y1685500*
X1833390Y1685875*
X1832299*
X1837753D02*
X1840753D01*
X1839117Y1682875*
X1839935*
X1840481Y1682500*
X1840753Y1682125*
X1841026Y1681000*
Y1680250*
X1840753Y1679125*
X1840208Y1678375*
X1839390Y1678000*
X1838572*
X1837753Y1678375*
X1837481Y1678750*
X1837208Y1679500*
X1863890Y1678000D02*
X1875890Y1690000D01*
X1863890D02*
X1875890Y1678000D01*
X1896526Y1685875D02*
X1898708Y1682125D01*
Y1678000*
X1900890Y1685875D02*
X1898708Y1682125D01*
X1903344Y1685875D02*
Y1678000D01*
Y1685875D02*
X1906890D01*
X1903344Y1682125D02*
X1905526D01*
X1903344Y1678000D02*
X1906890D01*
X1913162Y1684750D02*
X1912617Y1685500D01*
X1911799Y1685875*
X1910708*
X1909890Y1685500*
X1909344Y1684750*
Y1684000*
X1909617Y1683250*
X1909890Y1682875*
X1910435Y1682500*
X1912072Y1681750*
X1912617Y1681375*
X1912890Y1681000*
X1913162Y1680250*
Y1679125*
X1912617Y1678375*
X1911799Y1678000*
X1910708*
X1909890Y1678375*
X1909344Y1679125*
X1949708Y1684750D02*
Y1678000D01*
X1947253Y1681375D02*
X1952162D01*
X1959526Y1687375D02*
X1954617Y1675375D01*
X1961981Y1681375D02*
X1966890D01*
X1970981Y1685875D02*
X1970162Y1685500D01*
X1969617Y1684375*
X1969344Y1682500*
Y1681375*
X1969617Y1679500*
X1970162Y1678375*
X1970981Y1678000*
X1971526*
X1972344Y1678375*
X1972890Y1679500*
X1973162Y1681375*
Y1682500*
X1972890Y1684375*
X1972344Y1685500*
X1971526Y1685875*
X1970981*
X1975890Y1678750D02*
X1975617Y1678375D01*
X1975890Y1678000*
X1976162Y1678375*
X1975890Y1678750*
X1980253Y1685875D02*
X1979435Y1685500D01*
X1978890Y1684375*
X1978617Y1682500*
Y1681375*
X1978890Y1679500*
X1979435Y1678375*
X1980253Y1678000*
X1980799*
X1981617Y1678375*
X1982162Y1679500*
X1982435Y1681375*
Y1682500*
X1982162Y1684375*
X1981617Y1685500*
X1980799Y1685875*
X1980253*
X1738435Y1661875D02*
X1741435D01*
X1739799Y1658875*
X1740617*
X1741162Y1658500*
X1741435Y1658125*
X1741708Y1657000*
Y1656250*
X1741435Y1655125*
X1740890Y1654375*
X1740072Y1654000*
X1739253*
X1738435Y1654375*
X1738162Y1654750*
X1737890Y1655500*
X1747708Y1661875D02*
X1744981D01*
X1744708Y1658500*
X1744981Y1658875*
X1745799Y1659250*
X1746617*
X1747435Y1658875*
X1747981Y1658125*
X1748253Y1657000*
X1747981Y1656250*
X1747708Y1655125*
X1747162Y1654375*
X1746344Y1654000*
X1745526*
X1744708Y1654375*
X1744435Y1654750*
X1744162Y1655500*
X1827935Y1660000D02*
Y1660375D01*
X1828208Y1661125*
X1828481Y1661500*
X1829026Y1661875*
X1830117*
X1830662Y1661500*
X1830935Y1661125*
X1831208Y1660375*
Y1659625*
X1830935Y1658875*
X1830390Y1657750*
X1827662Y1654000*
X1831481*
X1836662Y1661875D02*
X1833935Y1656625D01*
X1838026*
X1836662Y1661875D02*
Y1654000D01*
X1863890D02*
X1875890D01*
Y1666000*
X1863890*
Y1654000*
X1869890Y1660000D02*
Y1666000D01*
X1896526Y1661875D02*
X1898708Y1658125D01*
Y1654000*
X1900890Y1661875D02*
X1898708Y1658125D01*
X1903344Y1661875D02*
Y1654000D01*
Y1661875D02*
X1906890D01*
X1903344Y1658125D02*
X1905526D01*
X1903344Y1654000D02*
X1906890D01*
X1913162Y1660750D02*
X1912617Y1661500D01*
X1911799Y1661875*
X1910708*
X1909890Y1661500*
X1909344Y1660750*
Y1660000*
X1909617Y1659250*
X1909890Y1658875*
X1910435Y1658500*
X1912072Y1657750*
X1912617Y1657375*
X1912890Y1657000*
X1913162Y1656250*
Y1655125*
X1912617Y1654375*
X1911799Y1654000*
X1910708*
X1909890Y1654375*
X1909344Y1655125*
X1949708Y1660750D02*
Y1654000D01*
X1947253Y1657375D02*
X1952162D01*
X1959526Y1663375D02*
X1954617Y1651375D01*
X1961981Y1657375D02*
X1966890D01*
X1970981Y1661875D02*
X1970162Y1661500D01*
X1969617Y1660375*
X1969344Y1658500*
Y1657375*
X1969617Y1655500*
X1970162Y1654375*
X1970981Y1654000*
X1971526*
X1972344Y1654375*
X1972890Y1655500*
X1973162Y1657375*
Y1658500*
X1972890Y1660375*
X1972344Y1661500*
X1971526Y1661875*
X1970981*
X1975890Y1654750D02*
X1975617Y1654375D01*
X1975890Y1654000*
X1976162Y1654375*
X1975890Y1654750*
X1980253Y1661875D02*
X1979435Y1661500D01*
X1978890Y1660375*
X1978617Y1658500*
Y1657375*
X1978890Y1655500*
X1979435Y1654375*
X1980253Y1654000*
X1980799*
X1981617Y1654375*
X1982162Y1655500*
X1982435Y1657375*
Y1658500*
X1982162Y1660375*
X1981617Y1661500*
X1980799Y1661875*
X1980253*
X1737890Y1636375D02*
X1738435Y1636750D01*
X1739253Y1637875*
Y1630000*
X1741981Y1636000D02*
Y1636375D01*
X1742253Y1637125*
X1742526Y1637500*
X1743072Y1637875*
X1744162*
X1744708Y1637500*
X1744981Y1637125*
X1745253Y1636375*
Y1635625*
X1744981Y1634875*
X1744435Y1633750*
X1741708Y1630000*
X1745526*
X1828481Y1637875D02*
X1831481D01*
X1829844Y1634875*
X1830662*
X1831208Y1634500*
X1831481Y1634125*
X1831753Y1633000*
Y1632250*
X1831481Y1631125*
X1830935Y1630375*
X1830117Y1630000*
X1829299*
X1828481Y1630375*
X1828208Y1630750*
X1827935Y1631500*
X1837753Y1635250D02*
X1837481Y1634125D01*
X1836935Y1633375*
X1836117Y1633000*
X1835844*
X1835026Y1633375*
X1834481Y1634125*
X1834208Y1635250*
Y1635625*
X1834481Y1636750*
X1835026Y1637500*
X1835844Y1637875*
X1836117*
X1836935Y1637500*
X1837481Y1636750*
X1837753Y1635250*
Y1633375*
X1837481Y1631500*
X1836935Y1630375*
X1836117Y1630000*
X1835572*
X1834753Y1630375*
X1834481Y1631125*
X1869890Y1630000D02*
X1875890Y1636000D01*
X1869890Y1642000*
X1863890Y1636000*
X1869890Y1630000*
Y1636000D02*
Y1642000D01*
X1896526Y1637875D02*
X1898708Y1634125D01*
Y1630000*
X1900890Y1637875D02*
X1898708Y1634125D01*
X1903344Y1637875D02*
Y1630000D01*
Y1637875D02*
X1906890D01*
X1903344Y1634125D02*
X1905526D01*
X1903344Y1630000D02*
X1906890D01*
X1913162Y1636750D02*
X1912617Y1637500D01*
X1911799Y1637875*
X1910708*
X1909890Y1637500*
X1909344Y1636750*
Y1636000*
X1909617Y1635250*
X1909890Y1634875*
X1910435Y1634500*
X1912072Y1633750*
X1912617Y1633375*
X1912890Y1633000*
X1913162Y1632250*
Y1631125*
X1912617Y1630375*
X1911799Y1630000*
X1910708*
X1909890Y1630375*
X1909344Y1631125*
X1949708Y1636750D02*
Y1630000D01*
X1947253Y1633375D02*
X1952162D01*
X1959526Y1639375D02*
X1954617Y1627375D01*
X1961981Y1633375D02*
X1966890D01*
X1970981Y1637875D02*
X1970162Y1637500D01*
X1969617Y1636375*
X1969344Y1634500*
Y1633375*
X1969617Y1631500*
X1970162Y1630375*
X1970981Y1630000*
X1971526*
X1972344Y1630375*
X1972890Y1631500*
X1973162Y1633375*
Y1634500*
X1972890Y1636375*
X1972344Y1637500*
X1971526Y1637875*
X1970981*
X1975890Y1630750D02*
X1975617Y1630375D01*
X1975890Y1630000*
X1976162Y1630375*
X1975890Y1630750*
X1980253Y1637875D02*
X1979435Y1637500D01*
X1978890Y1636375*
X1978617Y1634500*
Y1633375*
X1978890Y1631500*
X1979435Y1630375*
X1980253Y1630000*
X1980799*
X1981617Y1630375*
X1982162Y1631500*
X1982435Y1633375*
Y1634500*
X1982162Y1636375*
X1981617Y1637500*
X1980799Y1637875*
X1980253*
X1738162Y1612000D02*
Y1612375D01*
X1738435Y1613125*
X1738708Y1613500*
X1739253Y1613875*
X1740344*
X1740890Y1613500*
X1741162Y1613125*
X1741435Y1612375*
Y1611625*
X1741162Y1610875*
X1740617Y1609750*
X1737890Y1606000*
X1741708*
X1747435Y1612750D02*
X1747162Y1613500D01*
X1746344Y1613875*
X1745799*
X1744981Y1613500*
X1744435Y1612375*
X1744162Y1610500*
Y1608625*
X1744435Y1607125*
X1744981Y1606375*
X1745799Y1606000*
X1746072*
X1746890Y1606375*
X1747435Y1607125*
X1747708Y1608250*
Y1608625*
X1747435Y1609750*
X1746890Y1610500*
X1746072Y1610875*
X1745799*
X1744981Y1610500*
X1744435Y1609750*
X1744162Y1608625*
X1750435Y1606750D02*
X1750162Y1606375D01*
X1750435Y1606000*
X1750708Y1606375*
X1750435Y1606750*
X1756981Y1613875D02*
X1754253Y1606000D01*
X1753162Y1613875D02*
X1756981D01*
X1763253D02*
X1760526Y1606000D01*
X1759435Y1613875D02*
X1763253D01*
X1834344Y1612750D02*
X1834072Y1613500D01*
X1833253Y1613875*
X1832708*
X1831890Y1613500*
X1831344Y1612375*
X1831072Y1610500*
Y1608625*
X1831344Y1607125*
X1831890Y1606375*
X1832708Y1606000*
X1832981*
X1833799Y1606375*
X1834344Y1607125*
X1834617Y1608250*
Y1608625*
X1834344Y1609750*
X1833799Y1610500*
X1832981Y1610875*
X1832708*
X1831890Y1610500*
X1831344Y1609750*
X1831072Y1608625*
X1863890Y1606000D02*
X1875890D01*
X1863890Y1618000*
X1875890*
X1863890Y1606000*
X1896526Y1613875D02*
X1898708Y1610125D01*
Y1606000*
X1900890Y1613875D02*
X1898708Y1610125D01*
X1903344Y1613875D02*
Y1606000D01*
Y1613875D02*
X1906890D01*
X1903344Y1610125D02*
X1905526D01*
X1903344Y1606000D02*
X1906890D01*
X1913162Y1612750D02*
X1912617Y1613500D01*
X1911799Y1613875*
X1910708*
X1909890Y1613500*
X1909344Y1612750*
Y1612000*
X1909617Y1611250*
X1909890Y1610875*
X1910435Y1610500*
X1912072Y1609750*
X1912617Y1609375*
X1912890Y1609000*
X1913162Y1608250*
Y1607125*
X1912617Y1606375*
X1911799Y1606000*
X1910708*
X1909890Y1606375*
X1909344Y1607125*
X1949708Y1612750D02*
Y1606000D01*
X1947253Y1609375D02*
X1952162D01*
X1959526Y1615375D02*
X1954617Y1603375D01*
X1961981Y1609375D02*
X1966890D01*
X1970981Y1613875D02*
X1970162Y1613500D01*
X1969617Y1612375*
X1969344Y1610500*
Y1609375*
X1969617Y1607500*
X1970162Y1606375*
X1970981Y1606000*
X1971526*
X1972344Y1606375*
X1972890Y1607500*
X1973162Y1609375*
Y1610500*
X1972890Y1612375*
X1972344Y1613500*
X1971526Y1613875*
X1970981*
X1975890Y1606750D02*
X1975617Y1606375D01*
X1975890Y1606000*
X1976162Y1606375*
X1975890Y1606750*
X1980253Y1613875D02*
X1979435Y1613500D01*
X1978890Y1612375*
X1978617Y1610500*
Y1609375*
X1978890Y1607500*
X1979435Y1606375*
X1980253Y1606000*
X1980799*
X1981617Y1606375*
X1982162Y1607500*
X1982435Y1609375*
Y1610500*
X1982162Y1612375*
X1981617Y1613500*
X1980799Y1613875*
X1980253*
X1741708Y1589875D02*
X1738981Y1582000D01*
X1737890Y1589875D02*
X1741708D01*
X1747708D02*
X1744981D01*
X1744708Y1586500*
X1744981Y1586875*
X1745799Y1587250*
X1746617*
X1747435Y1586875*
X1747981Y1586125*
X1748253Y1585000*
X1747981Y1584250*
X1747708Y1583125*
X1747162Y1582375*
X1746344Y1582000*
X1745526*
X1744708Y1582375*
X1744435Y1582750*
X1744162Y1583500*
X1750981Y1582750D02*
X1750708Y1582375D01*
X1750981Y1582000*
X1751253Y1582375*
X1750981Y1582750*
X1757253Y1587250D02*
X1756981Y1586125D01*
X1756435Y1585375*
X1755617Y1585000*
X1755344*
X1754526Y1585375*
X1753981Y1586125*
X1753708Y1587250*
Y1587625*
X1753981Y1588750*
X1754526Y1589500*
X1755344Y1589875*
X1755617*
X1756435Y1589500*
X1756981Y1588750*
X1757253Y1587250*
Y1585375*
X1756981Y1583500*
X1756435Y1582375*
X1755617Y1582000*
X1755072*
X1754253Y1582375*
X1753981Y1583125*
X1761072Y1589875D02*
X1760253Y1589500D01*
X1759981Y1588750*
Y1588000*
X1760253Y1587250*
X1760799Y1586875*
X1761890Y1586500*
X1762708Y1586125*
X1763253Y1585375*
X1763526Y1584625*
Y1583500*
X1763253Y1582750*
X1762981Y1582375*
X1762162Y1582000*
X1761072*
X1760253Y1582375*
X1759981Y1582750*
X1759708Y1583500*
Y1584625*
X1759981Y1585375*
X1760526Y1586125*
X1761344Y1586500*
X1762435Y1586875*
X1762981Y1587250*
X1763253Y1588000*
Y1588750*
X1762981Y1589500*
X1762162Y1589875*
X1761072*
X1833526D02*
X1830799Y1584625D01*
X1834890*
X1833526Y1589875D02*
Y1582000D01*
X1863890D02*
X1875890Y1594000D01*
Y1582000*
X1863890Y1594000*
Y1582000*
X1896526Y1589875D02*
X1898708Y1586125D01*
Y1582000*
X1900890Y1589875D02*
X1898708Y1586125D01*
X1903344Y1589875D02*
Y1582000D01*
Y1589875D02*
X1906890D01*
X1903344Y1586125D02*
X1905526D01*
X1903344Y1582000D02*
X1906890D01*
X1913162Y1588750D02*
X1912617Y1589500D01*
X1911799Y1589875*
X1910708*
X1909890Y1589500*
X1909344Y1588750*
Y1588000*
X1909617Y1587250*
X1909890Y1586875*
X1910435Y1586500*
X1912072Y1585750*
X1912617Y1585375*
X1912890Y1585000*
X1913162Y1584250*
Y1583125*
X1912617Y1582375*
X1911799Y1582000*
X1910708*
X1909890Y1582375*
X1909344Y1583125*
X1949708Y1588750D02*
Y1582000D01*
X1947253Y1585375D02*
X1952162D01*
X1959526Y1591375D02*
X1954617Y1579375D01*
X1961981Y1585375D02*
X1966890D01*
X1970981Y1589875D02*
X1970162Y1589500D01*
X1969617Y1588375*
X1969344Y1586500*
Y1585375*
X1969617Y1583500*
X1970162Y1582375*
X1970981Y1582000*
X1971526*
X1972344Y1582375*
X1972890Y1583500*
X1973162Y1585375*
Y1586500*
X1972890Y1588375*
X1972344Y1589500*
X1971526Y1589875*
X1970981*
X1975890Y1582750D02*
X1975617Y1582375D01*
X1975890Y1582000*
X1976162Y1582375*
X1975890Y1582750*
X1980253Y1589875D02*
X1979435Y1589500D01*
X1978890Y1588375*
X1978617Y1586500*
Y1585375*
X1978890Y1583500*
X1979435Y1582375*
X1980253Y1582000*
X1980799*
X1981617Y1582375*
X1982162Y1583500*
X1982435Y1585375*
Y1586500*
X1982162Y1588375*
X1981617Y1589500*
X1980799Y1589875*
X1980253*
X1738435Y1565875D02*
X1741435D01*
X1739799Y1562875*
X1740617*
X1741162Y1562500*
X1741435Y1562125*
X1741708Y1561000*
Y1560250*
X1741435Y1559125*
X1740890Y1558375*
X1740072Y1558000*
X1739253*
X1738435Y1558375*
X1738162Y1558750*
X1737890Y1559500*
X1745799Y1565875D02*
X1744981Y1565500D01*
X1744435Y1564375*
X1744162Y1562500*
Y1561375*
X1744435Y1559500*
X1744981Y1558375*
X1745799Y1558000*
X1746344*
X1747162Y1558375*
X1747708Y1559500*
X1747981Y1561375*
Y1562500*
X1747708Y1564375*
X1747162Y1565500*
X1746344Y1565875*
X1745799*
X1831208Y1564000D02*
Y1564375D01*
X1831481Y1565125*
X1831753Y1565500*
X1832299Y1565875*
X1833390*
X1833935Y1565500*
X1834208Y1565125*
X1834481Y1564375*
Y1563625*
X1834208Y1562875*
X1833662Y1561750*
X1830935Y1558000*
X1834753*
X1863890Y1564000D02*
X1875890D01*
X1869890Y1558000D02*
Y1570000D01*
X1874635Y1573300D02*
X1872890Y1567000D01*
X1874635Y1573300D02*
X1876381Y1567000D01*
X1873544Y1569100D02*
X1875726D01*
X1896526Y1565875D02*
X1898708Y1562125D01*
Y1558000*
X1900890Y1565875D02*
X1898708Y1562125D01*
X1903344Y1565875D02*
Y1558000D01*
Y1565875D02*
X1906890D01*
X1903344Y1562125D02*
X1905526D01*
X1903344Y1558000D02*
X1906890D01*
X1913162Y1564750D02*
X1912617Y1565500D01*
X1911799Y1565875*
X1910708*
X1909890Y1565500*
X1909344Y1564750*
Y1564000*
X1909617Y1563250*
X1909890Y1562875*
X1910435Y1562500*
X1912072Y1561750*
X1912617Y1561375*
X1912890Y1561000*
X1913162Y1560250*
Y1559125*
X1912617Y1558375*
X1911799Y1558000*
X1910708*
X1909890Y1558375*
X1909344Y1559125*
X1949708Y1564750D02*
Y1558000D01*
X1947253Y1561375D02*
X1952162D01*
X1959526Y1567375D02*
X1954617Y1555375D01*
X1961981Y1561375D02*
X1966890D01*
X1970981Y1565875D02*
X1970162Y1565500D01*
X1969617Y1564375*
X1969344Y1562500*
Y1561375*
X1969617Y1559500*
X1970162Y1558375*
X1970981Y1558000*
X1971526*
X1972344Y1558375*
X1972890Y1559500*
X1973162Y1561375*
Y1562500*
X1972890Y1564375*
X1972344Y1565500*
X1971526Y1565875*
X1970981*
X1975890Y1558750D02*
X1975617Y1558375D01*
X1975890Y1558000*
X1976162Y1558375*
X1975890Y1558750*
X1980253Y1565875D02*
X1979435Y1565500D01*
X1978890Y1564375*
X1978617Y1562500*
Y1561375*
X1978890Y1559500*
X1979435Y1558375*
X1980253Y1558000*
X1980799*
X1981617Y1558375*
X1982162Y1559500*
X1982435Y1561375*
Y1562500*
X1982162Y1564375*
X1981617Y1565500*
X1980799Y1565875*
X1980253*
X1738162Y1540000D02*
Y1540375D01*
X1738435Y1541125*
X1738708Y1541500*
X1739253Y1541875*
X1740344*
X1740890Y1541500*
X1741162Y1541125*
X1741435Y1540375*
Y1539625*
X1741162Y1538875*
X1740617Y1537750*
X1737890Y1534000*
X1741708*
X1747435Y1540750D02*
X1747162Y1541500D01*
X1746344Y1541875*
X1745799*
X1744981Y1541500*
X1744435Y1540375*
X1744162Y1538500*
Y1536625*
X1744435Y1535125*
X1744981Y1534375*
X1745799Y1534000*
X1746072*
X1746890Y1534375*
X1747435Y1535125*
X1747708Y1536250*
Y1536625*
X1747435Y1537750*
X1746890Y1538500*
X1746072Y1538875*
X1745799*
X1744981Y1538500*
X1744435Y1537750*
X1744162Y1536625*
X1831208Y1540000D02*
Y1540375D01*
X1831481Y1541125*
X1831753Y1541500*
X1832299Y1541875*
X1833390*
X1833935Y1541500*
X1834208Y1541125*
X1834481Y1540375*
Y1539625*
X1834208Y1538875*
X1833662Y1537750*
X1830935Y1534000*
X1834753*
X1863890Y1540000D02*
X1875890D01*
X1869890Y1534000D02*
Y1546000D01*
X1872890Y1549300D02*
Y1543000D01*
Y1549300D02*
X1874853D01*
X1875508Y1549000*
X1875726Y1548700*
X1875944Y1548100*
Y1547500*
X1875726Y1546900*
X1875508Y1546600*
X1874853Y1546300*
X1872890D02*
X1874853D01*
X1875508Y1546000*
X1875726Y1545700*
X1875944Y1545100*
Y1544200*
X1875726Y1543600*
X1875508Y1543300*
X1874853Y1543000*
X1872890*
X1896526Y1541875D02*
X1898708Y1538125D01*
Y1534000*
X1900890Y1541875D02*
X1898708Y1538125D01*
X1903344Y1541875D02*
Y1534000D01*
Y1541875D02*
X1906890D01*
X1903344Y1538125D02*
X1905526D01*
X1903344Y1534000D02*
X1906890D01*
X1913162Y1540750D02*
X1912617Y1541500D01*
X1911799Y1541875*
X1910708*
X1909890Y1541500*
X1909344Y1540750*
Y1540000*
X1909617Y1539250*
X1909890Y1538875*
X1910435Y1538500*
X1912072Y1537750*
X1912617Y1537375*
X1912890Y1537000*
X1913162Y1536250*
Y1535125*
X1912617Y1534375*
X1911799Y1534000*
X1910708*
X1909890Y1534375*
X1909344Y1535125*
X1949708Y1540750D02*
Y1534000D01*
X1947253Y1537375D02*
X1952162D01*
X1959526Y1543375D02*
X1954617Y1531375D01*
X1961981Y1537375D02*
X1966890D01*
X1970981Y1541875D02*
X1970162Y1541500D01*
X1969617Y1540375*
X1969344Y1538500*
Y1537375*
X1969617Y1535500*
X1970162Y1534375*
X1970981Y1534000*
X1971526*
X1972344Y1534375*
X1972890Y1535500*
X1973162Y1537375*
Y1538500*
X1972890Y1540375*
X1972344Y1541500*
X1971526Y1541875*
X1970981*
X1975890Y1534750D02*
X1975617Y1534375D01*
X1975890Y1534000*
X1976162Y1534375*
X1975890Y1534750*
X1980253Y1541875D02*
X1979435Y1541500D01*
X1978890Y1540375*
X1978617Y1538500*
Y1537375*
X1978890Y1535500*
X1979435Y1534375*
X1980253Y1534000*
X1980799*
X1981617Y1534375*
X1982162Y1535500*
X1982435Y1537375*
Y1538500*
X1982162Y1540375*
X1981617Y1541500*
X1980799Y1541875*
X1980253*
X1737890Y1516375D02*
X1738435Y1516750D01*
X1739253Y1517875*
Y1510000*
X1742253Y1517875D02*
X1745253D01*
X1743617Y1514875*
X1744435*
X1744981Y1514500*
X1745253Y1514125*
X1745526Y1513000*
Y1512250*
X1745253Y1511125*
X1744708Y1510375*
X1743890Y1510000*
X1743072*
X1742253Y1510375*
X1741981Y1510750*
X1741708Y1511500*
X1751799Y1517875D02*
X1749072Y1510000D01*
X1747981Y1517875D02*
X1751799D01*
X1754526Y1510750D02*
X1754253Y1510375D01*
X1754526Y1510000*
X1754799Y1510375*
X1754526Y1510750*
X1758617Y1517875D02*
X1757799Y1517500D01*
X1757526Y1516750*
Y1516000*
X1757799Y1515250*
X1758344Y1514875*
X1759435Y1514500*
X1760253Y1514125*
X1760799Y1513375*
X1761072Y1512625*
Y1511500*
X1760799Y1510750*
X1760526Y1510375*
X1759708Y1510000*
X1758617*
X1757799Y1510375*
X1757526Y1510750*
X1757253Y1511500*
Y1512625*
X1757526Y1513375*
X1758072Y1514125*
X1758890Y1514500*
X1759981Y1514875*
X1760526Y1515250*
X1760799Y1516000*
Y1516750*
X1760526Y1517500*
X1759708Y1517875*
X1758617*
X1833526D02*
X1830799Y1512625D01*
X1834890*
X1833526Y1517875D02*
Y1510000D01*
X1863890Y1516000D02*
X1875890D01*
X1869890Y1510000D02*
Y1522000D01*
X1876162Y1523800D02*
X1875944Y1524400D01*
X1875508Y1525000*
X1875072Y1525300*
X1874199*
X1873762Y1525000*
X1873326Y1524400*
X1873108Y1523800*
X1872890Y1522900*
Y1521400*
X1873108Y1520500*
X1873326Y1519900*
X1873762Y1519300*
X1874199Y1519000*
X1875072*
X1875508Y1519300*
X1875944Y1519900*
X1876162Y1520500*
X1896526Y1517875D02*
X1898708Y1514125D01*
Y1510000*
X1900890Y1517875D02*
X1898708Y1514125D01*
X1903344Y1517875D02*
Y1510000D01*
Y1517875D02*
X1906890D01*
X1903344Y1514125D02*
X1905526D01*
X1903344Y1510000D02*
X1906890D01*
X1913162Y1516750D02*
X1912617Y1517500D01*
X1911799Y1517875*
X1910708*
X1909890Y1517500*
X1909344Y1516750*
Y1516000*
X1909617Y1515250*
X1909890Y1514875*
X1910435Y1514500*
X1912072Y1513750*
X1912617Y1513375*
X1912890Y1513000*
X1913162Y1512250*
Y1511125*
X1912617Y1510375*
X1911799Y1510000*
X1910708*
X1909890Y1510375*
X1909344Y1511125*
X1949708Y1516750D02*
Y1510000D01*
X1947253Y1513375D02*
X1952162D01*
X1959526Y1519375D02*
X1954617Y1507375D01*
X1961981Y1513375D02*
X1966890D01*
X1970981Y1517875D02*
X1970162Y1517500D01*
X1969617Y1516375*
X1969344Y1514500*
Y1513375*
X1969617Y1511500*
X1970162Y1510375*
X1970981Y1510000*
X1971526*
X1972344Y1510375*
X1972890Y1511500*
X1973162Y1513375*
Y1514500*
X1972890Y1516375*
X1972344Y1517500*
X1971526Y1517875*
X1970981*
X1975890Y1510750D02*
X1975617Y1510375D01*
X1975890Y1510000*
X1976162Y1510375*
X1975890Y1510750*
X1980253Y1517875D02*
X1979435Y1517500D01*
X1978890Y1516375*
X1978617Y1514500*
Y1513375*
X1978890Y1511500*
X1979435Y1510375*
X1980253Y1510000*
X1980799*
X1981617Y1510375*
X1982162Y1511500*
X1982435Y1513375*
Y1514500*
X1982162Y1516375*
X1981617Y1517500*
X1980799Y1517875*
X1980253*
X1738435Y1493875D02*
X1741435D01*
X1739799Y1490875*
X1740617*
X1741162Y1490500*
X1741435Y1490125*
X1741708Y1489000*
Y1488250*
X1741435Y1487125*
X1740890Y1486375*
X1740072Y1486000*
X1739253*
X1738435Y1486375*
X1738162Y1486750*
X1737890Y1487500*
X1744162Y1492375D02*
X1744708Y1492750D01*
X1745526Y1493875*
Y1486000*
X1748253Y1486750D02*
X1747981Y1486375D01*
X1748253Y1486000*
X1748526Y1486375*
X1748253Y1486750*
X1754526Y1493875D02*
X1751799D01*
X1751526Y1490500*
X1751799Y1490875*
X1752617Y1491250*
X1753435*
X1754253Y1490875*
X1754799Y1490125*
X1755072Y1489000*
X1754799Y1488250*
X1754526Y1487125*
X1753981Y1486375*
X1753162Y1486000*
X1752344*
X1751526Y1486375*
X1751253Y1486750*
X1750981Y1487500*
X1828072Y1492000D02*
Y1492375D01*
X1828344Y1493125*
X1828617Y1493500*
X1829162Y1493875*
X1830253*
X1830799Y1493500*
X1831072Y1493125*
X1831344Y1492375*
Y1491625*
X1831072Y1490875*
X1830526Y1489750*
X1827799Y1486000*
X1831617*
X1835708Y1493875D02*
X1834890Y1493500D01*
X1834344Y1492375*
X1834072Y1490500*
Y1489375*
X1834344Y1487500*
X1834890Y1486375*
X1835708Y1486000*
X1836253*
X1837072Y1486375*
X1837617Y1487500*
X1837890Y1489375*
Y1490500*
X1837617Y1492375*
X1837072Y1493500*
X1836253Y1493875*
X1835708*
X1863890Y1492000D02*
X1875890D01*
X1869890Y1486000D02*
Y1498000D01*
X1872890Y1501300D02*
Y1495000D01*
Y1501300D02*
X1874417D01*
X1875072Y1501000*
X1875508Y1500400*
X1875726Y1499800*
X1875944Y1498900*
Y1497400*
X1875726Y1496500*
X1875508Y1495900*
X1875072Y1495300*
X1874417Y1495000*
X1872890*
X1896526Y1493875D02*
X1898708Y1490125D01*
Y1486000*
X1900890Y1493875D02*
X1898708Y1490125D01*
X1903344Y1493875D02*
Y1486000D01*
Y1493875D02*
X1906890D01*
X1903344Y1490125D02*
X1905526D01*
X1903344Y1486000D02*
X1906890D01*
X1913162Y1492750D02*
X1912617Y1493500D01*
X1911799Y1493875*
X1910708*
X1909890Y1493500*
X1909344Y1492750*
Y1492000*
X1909617Y1491250*
X1909890Y1490875*
X1910435Y1490500*
X1912072Y1489750*
X1912617Y1489375*
X1912890Y1489000*
X1913162Y1488250*
Y1487125*
X1912617Y1486375*
X1911799Y1486000*
X1910708*
X1909890Y1486375*
X1909344Y1487125*
X1949708Y1492750D02*
Y1486000D01*
X1947253Y1489375D02*
X1952162D01*
X1959526Y1495375D02*
X1954617Y1483375D01*
X1961981Y1489375D02*
X1966890D01*
X1970981Y1493875D02*
X1970162Y1493500D01*
X1969617Y1492375*
X1969344Y1490500*
Y1489375*
X1969617Y1487500*
X1970162Y1486375*
X1970981Y1486000*
X1971526*
X1972344Y1486375*
X1972890Y1487500*
X1973162Y1489375*
Y1490500*
X1972890Y1492375*
X1972344Y1493500*
X1971526Y1493875*
X1970981*
X1975890Y1486750D02*
X1975617Y1486375D01*
X1975890Y1486000*
X1976162Y1486375*
X1975890Y1486750*
X1980253Y1493875D02*
X1979435Y1493500D01*
X1978890Y1492375*
X1978617Y1490500*
Y1489375*
X1978890Y1487500*
X1979435Y1486375*
X1980253Y1486000*
X1980799*
X1981617Y1486375*
X1982162Y1487500*
X1982435Y1489375*
Y1490500*
X1982162Y1492375*
X1981617Y1493500*
X1980799Y1493875*
X1980253*
G54D24*
X2031890Y1676850D02*
X2031892D01*
X2268110D02*
X2268113D01*
X2031890Y1480000D02*
X2031892D01*
X2031890Y1696535D02*
X2031892D01*
G74*
X0Y0D02*
M02*
