%
T1C.012F095S3
X00824Y01168
X0076Y01208
X00792Y01384
X00824Y01412
X01076Y01992
X01044Y01932
X01032Y01696
X00996Y01676
X00948Y01624
X009Y0145
X00856Y01212
X00872Y01172
X00832Y00896
X01128Y00936
X01128Y01004
X01168Y01608
X01225Y0164
X01144Y01652
X01105Y0167
X0125Y0167
X01272Y017
X01088Y01708
X01248Y0173
X01272Y0176
X01268Y01804
X01112Y02008
X01148Y02028
X01184Y02048
X01224Y0206
X015Y01792
X01444Y0176
X01476Y0173
X01672Y01728
X01448Y017
X0148Y01672
X01464Y0162
X01476Y01335
X01615Y01335
X01504Y00996
T2C.016F095S3
X0024Y0044
X0016Y0044
X0032Y0044
X0024Y0052
X0016Y0052
X0008Y0052
X0032Y0052
X0008Y006
X0024Y006
X0016Y006
X0032Y006
X0008Y0068
X0016Y0068
X0024Y0068
X0032Y0068
X0008Y0076
X0024Y0076
X0016Y0076
X0032Y0076
X0008Y0084
X0016Y0084
X0024Y0084
X0032Y0084
X0024Y0092
X0016Y0092
X0008Y0092
X0032Y0092
X0008Y01
X0016Y01
X0024Y01
X0032Y01
X0008Y0108
X0024Y0108
X0016Y0108
X0032Y0108
X0008Y0116
X0024Y0116
X0016Y0116
X0032Y0116
X0008Y0124
X0024Y0124
X0016Y0124
X0032Y0124
X0016Y0132
X0008Y0132
X0024Y0132
X0032Y0132
X0008Y0164
X0016Y0164
X0024Y0164
X0032Y0164
X0024Y0172
X0016Y0172
X0032Y0172
X0056Y0204
X0048Y0196
X0056Y0196
X004Y0188
X0048Y0188
X0056Y0188
X004Y018
X0048Y018
X0056Y018
X004Y0172
X0048Y0172
X0056Y0172
X004Y0164
X0048Y0164
X0056Y0164
X004Y0132
X0048Y0132
X0056Y0132
X004Y0124
X0048Y0124
X0056Y0124
X004Y0116
X0048Y0116
X0056Y0116
X0048Y0108
X0056Y0108
X004Y0108
X0056Y01
X004Y01
X0048Y01
X0056Y0092
X0048Y0092
X004Y0092
X0048Y0084
X0056Y0084
X004Y0084
X004Y0076
X0048Y0076
X0056Y0068
X004Y0068
X0048Y0068
X0056Y006
X004Y006
X0048Y006
X0048Y0052
X004Y0052
X0056Y0052
X004Y0044
X0048Y0044
X0056Y0044
X0052Y0036
X0036Y0036
X0044Y0036
X0044Y0028
X0044Y002
X0048Y0016
X0056Y0016
X0056Y0008
X0064Y0008
X0072Y0008
X0064Y0016
X0072Y0016
X0064Y0024
X006Y0036
X0064Y0164
X0064Y0172
X0076Y01744
X0064Y018
X0064Y0188
X0076Y02
X0064Y0208
X0072Y0208
X008Y0208
X0088Y0208
X0104Y0208
X0096Y0208
X0084Y02
X0092Y02
X01Y02
X00956Y0152
X00896Y009
X0096Y00896
X0088Y0016
X0096Y0016
X0096Y0008
X0104Y0008
X0088Y0008
X0112Y0008
X012Y0008
X0128Y0008
X0152Y0008
X0144Y0008
X0136Y0008
X0144Y006
X0136Y006
X0152Y006
X01204Y00856
X0144Y00936
X01404Y01276
X01196Y0128
X014Y01364
X01308Y0152
X01464Y0152
X0112Y0208
X0168Y0208
X0176Y0208
X0176Y0192
X0176Y0184
X0176Y0176
X0168Y0168
X0176Y0168
X0168Y016
X0176Y016
X0176Y0152
X0164Y0152
X0168Y0152
X0176Y0128
X0176Y012
X0176Y0112
X0176Y0104
X018Y0084
X016Y006
X0164Y0032
X0164Y0024
X0164Y0016
X018Y0016
X0172Y0016
X0176Y0008
X0168Y0008
X016Y0008
X0188Y0016
X0188Y0024
X0196Y0024
X0196Y0032
X0188Y0032
X0188Y004
X0204Y004
X0196Y004
X0188Y0048
X0204Y0048
X0196Y0048
X0188Y0056
X0196Y0056
X0204Y0056
X0196Y0064
X0188Y0064
X0204Y0064
X0184Y0104
X0192Y0104
X02Y0104
X0184Y0112
X0192Y0112
X02Y0112
X02Y012
X0192Y012
X0184Y012
X0184Y0128
X02Y0128
X0192Y0128
X0184Y0136
X0192Y0136
X02Y0136
X0192Y0144
X02Y0144
X0184Y0144
X02Y0152
X0192Y0152
X0184Y0152
X0184Y016
X0192Y016
X02Y016
X0184Y0168
X0192Y0168
X02Y0168
X0184Y0176
X0192Y0176
X02Y0176
X0192Y0184
X0184Y0184
X0192Y0192
X0184Y0192
X0192Y02
X0184Y02
X0184Y0208
X0192Y0208
X0208Y0176
X0224Y0176
X0216Y0176
X0216Y0168
X0232Y0168
X0208Y0168
X0224Y0168
X0208Y016
X0224Y016
X0216Y016
X0232Y016
X0208Y0152
X0224Y0152
X0216Y0152
X0232Y0152
X0208Y0144
X0216Y0144
X0224Y0144
X0232Y0144
X0232Y0136
X0216Y0136
X0208Y0136
X0224Y0136
X0216Y0128
X0208Y0128
X0224Y0128
X0232Y0128
X0232Y012
X0224Y012
X0208Y012
X0216Y012
X0208Y0112
X0212Y0072
X0228Y0072
X0212Y0064
X0228Y0064
X022Y0064
X0212Y0056
X022Y0056
X0228Y0056
X0228Y0048
X0212Y0048
X022Y0048
X0212Y004
T3C.026F197S55
X022228Y007888
X022228Y011116
T4C.02677F197S55
X01488Y002452
X0144Y00295
X0154Y00295
X0154Y00395
X0144Y00395
X0149Y004452
T5C.03F197S55
X021047Y0086
X021047Y010378
T6C.0315F197S55
X010031Y007106
X009244Y007106
X008457Y007106
X010031Y007894
X008457Y007894
X009244Y007894
X013181Y007894
X012394Y007894
X011606Y007894
X010819Y007894
X015543Y007894
X014756Y007894
X013969Y007894
X010819Y007106
X013181Y007106
X015543Y007106
X011606Y007106
X014756Y007106
X012394Y007106
X013969Y007106
T7C.035F197S55
X0079Y0027
X0079Y00345
X0079Y0042
X010156Y0042
X008652Y0042
X009404Y0042
X010156Y00345
X008652Y00345
X009404Y00345
X009404Y0027
X010156Y0027
X008652Y0027
X010908Y0027
X01166Y0027
X012412Y0027
X013152Y0027
X010908Y00345
X012412Y00345
X013152Y00345
X01166Y00345
X010908Y0042
X01166Y0042
X012412Y0042
X013152Y0042
T8C.07598F081S55
X0079Y001401
X005601Y0027
X017699Y0027
X0154Y001401
T9C.1378F035S794
X001969Y001969
X001969Y019685
X021654Y019685
X021654Y001969
M30
