*
*
G04 PADS 9.5 Build Number: 522968 generated Gerber (RS-274-X) file*
G04 PC Version=2.1*
*
%IN "MT-RGBLVDS-A1 (2).pcb"*%
*
%MOIN*%
*
%FSLAX35Y35*%
*
*
*
*
G04 PC Standard Apertures*
*
*
G04 Thermal Relief Aperture macro.*
%AMTER*
1,1,$1,0,0*
1,0,$1-$2,0,0*
21,0,$3,$4,0,0,45*
21,0,$3,$4,0,0,135*
%
*
*
G04 Annular Aperture macro.*
%AMANN*
1,1,$1,0,0*
1,0,$2,0,0*
%
*
*
G04 Odd Aperture macro.*
%AMODD*
1,1,$1,0,0*
1,0,$1-0.005,0,0*
%
*
*
G04 PC Custom Aperture Macros*
*
*
*
*
*
*
G04 PC Aperture Table*
*
%ADD010C,0.01*%
%ADD020R,0.04X0.04*%
%ADD024C,0.001*%
%ADD056C,0.05224*%
%ADD057C,0.04437*%
%ADD058C,0.105*%
%ADD059C,0.09161*%
%ADD060O,0.015X0.07*%
%ADD061R,0.06287X0.05067*%
%ADD062R,0.06X0.021*%
%ADD063O,0.06012X0.04831*%
%ADD064R,0.08X0.087*%
%ADD065R,0.08X0.075*%
%ADD066C,0.22154*%
%ADD067R,0.017X0.065*%
%ADD068R,0.075X0.085*%
%ADD069O,0.04831X0.05618*%
*
*
*
*
G04 PC Circuitry*
G04 Layer Name MT-RGBLVDS-A1 (2).pcb - circuitry*
%LPD*%
*
*
G04 PC Custom Flashes*
G04 Layer Name MT-RGBLVDS-A1 (2).pcb - flashes*
%LPD*%
*
*
G04 PC Circuitry*
G04 Layer Name MT-RGBLVDS-A1 (2).pcb - circuitry*
%LPD*%
*
G54D10*
G01X1881890Y1499606D02*
G75*
G03X1889764Y1491732I7874J0D01*
G01X1881890Y1499606D02*
Y1700394D01*
X1889764Y1708268D02*
G03X1881890Y1700394I-0J-7874D01*
G01X1889764Y1708268D02*
X2110236D01*
X2118110Y1700394D02*
G03X2110236Y1708268I-7874J-0D01*
G01X2118110Y1700394D02*
Y1499606D01*
X2110236Y1491732D02*
G03X2118110Y1499606I0J7874D01*
G01X2110236Y1491732D02*
X1889764D01*
G54D20*
X2079890Y1563482D03*
Y1569982D03*
X1977890Y1585482D03*
Y1591982D03*
X2004290Y1585482D03*
Y1591982D03*
X2037390Y1591482D03*
Y1584982D03*
X2085890Y1563482D03*
Y1569982D03*
X2054890Y1631282D03*
Y1637782D03*
X2045890D03*
Y1631282D03*
X1997890Y1585482D03*
Y1591982D03*
X1971490Y1585482D03*
Y1591982D03*
X1965090D03*
Y1585482D03*
X1957890Y1655282D03*
Y1661782D03*
G54D24*
G54D56*
X1960890Y1533732D03*
X1968409D03*
X1975929D03*
X1983449D03*
X1990969D03*
X1998488D03*
X2006008D03*
X1968409Y1526232D03*
X1975929D03*
X1983449D03*
X1990969D03*
X1998488D03*
X2006008D03*
X2013409D03*
X1960890Y1518732D03*
X1968409D03*
X1975929D03*
X1983449D03*
X1990969D03*
X1998488D03*
X2006008D03*
X2013409D03*
X1960890Y1526232D03*
X2013409Y1533732D03*
G54D57*
X2025890Y1531232D03*
X2035890D03*
X2025890Y1521232D03*
X2035890D03*
X2030890Y1536252D03*
X2030690Y1516252D03*
G54D58*
X1937898Y1518732D03*
X2058882D03*
G54D59*
X1960890Y1505740D03*
X2035890D03*
G54D60*
X2028350Y1636482D03*
X2026390D03*
X2024430D03*
X2022470D03*
X2020510D03*
X2018550D03*
X2016590D03*
X2014630D03*
X2012670D03*
X2010710D03*
X2008750D03*
X2006790D03*
X2004830D03*
X2002870D03*
X2000910D03*
X1998950D03*
X1996990D03*
X1995030D03*
X1993070D03*
X1991110D03*
X1989150D03*
X1987190D03*
X1985230D03*
X1983270D03*
X1981310D03*
X1979350D03*
X1977390D03*
X1975430D03*
Y1606982D03*
X1977390D03*
X1979350D03*
X1981310D03*
X1983270D03*
X1985230D03*
X1987190D03*
X1989150D03*
X1991110D03*
X1993070D03*
X1995030D03*
X1996990D03*
X1998950D03*
X2000910D03*
X2002870D03*
X2004830D03*
X2006790D03*
X2008750D03*
X2010710D03*
X2012670D03*
X2014630D03*
X2016590D03*
X2018550D03*
X2020510D03*
X2022470D03*
X2024430D03*
X2026390D03*
X2028350D03*
G54D61*
X2071890Y1563228D03*
Y1570236D03*
G54D62*
X2093642Y1581634D03*
Y1584193D03*
Y1586752D03*
Y1589311D03*
Y1591870D03*
G54D63*
X2092362Y1577732D03*
Y1595512D03*
G54D64*
X2104173Y1570610D03*
Y1602894D03*
G54D65*
Y1582224D03*
Y1591280D03*
G54D66*
X2098425Y1511417D03*
X1901575Y1688583D03*
Y1511417D03*
X2098425Y1688583D03*
G54D67*
X2051102Y1678937D03*
X2049134D03*
X2047165D03*
X2045197D03*
X2043228D03*
X2041260D03*
X2039291D03*
X2037323D03*
X2035354D03*
X2033386D03*
X2031417D03*
X2029449D03*
X2027480D03*
X2025512D03*
X2023543D03*
X2021575D03*
X2019606D03*
X2017638D03*
X2015669D03*
X2013701D03*
X2011732D03*
X2009764D03*
X2007795D03*
X2005827D03*
X2003858D03*
X2001890D03*
X1999921D03*
X1997953D03*
X1995984D03*
X1994016D03*
X1992047D03*
X1990079D03*
X1988110D03*
X1986142D03*
X1984173D03*
X1982205D03*
X1980236D03*
X1978268D03*
X1976299D03*
X1974331D03*
X1972362D03*
X1970394D03*
X1968425D03*
X1966457D03*
X1964488D03*
X1962520D03*
X1960551D03*
X1958583D03*
X1956614D03*
X1954646D03*
G54D68*
X2057402Y1691732D03*
X1948346D03*
G54D69*
X2037323Y1570669D03*
Y1562795D03*
X2029449Y1570669D03*
Y1562795D03*
X2021575Y1570669D03*
Y1562795D03*
X2013701Y1570669D03*
Y1562795D03*
X2005827Y1570669D03*
Y1562795D03*
X1997953Y1570669D03*
Y1562795D03*
X1990079Y1570669D03*
Y1562795D03*
X1982205Y1570669D03*
Y1562795D03*
X1974331Y1570669D03*
Y1562795D03*
X1966457Y1570669D03*
Y1562795D03*
G74*
X0Y0D02*
M02*
