*
*
G04 PADS 9.5 Build Number: 522968 generated Gerber (RS-274-X) file*
G04 PC Version=2.1*
*
%IN "MT-RGBLVDS-A1 (2).pcb"*%
*
%MOIN*%
*
%FSLAX35Y35*%
*
*
*
*
G04 PC Standard Apertures*
*
*
G04 Thermal Relief Aperture macro.*
%AMTER*
1,1,$1,0,0*
1,0,$1-$2,0,0*
21,0,$3,$4,0,0,45*
21,0,$3,$4,0,0,135*
%
*
*
G04 Annular Aperture macro.*
%AMANN*
1,1,$1,0,0*
1,0,$2,0,0*
%
*
*
G04 Odd Aperture macro.*
%AMODD*
1,1,$1,0,0*
1,0,$1-0.005,0,0*
%
*
*
G04 PC Custom Aperture Macros*
*
*
*
*
*
*
G04 PC Aperture Table*
*
%ADD010C,0.01*%
%ADD024C,0.001*%
%ADD057C,0.04437*%
%ADD058C,0.105*%
%ADD059C,0.09161*%
%ADD063O,0.06012X0.04831*%
%ADD066C,0.22154*%
%ADD069O,0.04831X0.05618*%
%ADD070C,0.05815*%
%ADD071R,0.082X0.06*%
*
*
*
*
G04 PC Circuitry*
G04 Layer Name MT-RGBLVDS-A1 (2).pcb - circuitry*
%LPD*%
*
*
G04 PC Custom Flashes*
G04 Layer Name MT-RGBLVDS-A1 (2).pcb - flashes*
%LPD*%
*
*
G04 PC Circuitry*
G04 Layer Name MT-RGBLVDS-A1 (2).pcb - circuitry*
%LPD*%
*
G54D10*
G01X2110236Y1491732D02*
G75*
G03X2118110Y1499606I0J7874D01*
G01Y1700394*
G03X2110236Y1708268I-7874J-0*
G01X1889764*
G03X1881890Y1700394I-0J-7874*
G01Y1499606*
G03X1889764Y1491732I7874J0*
G01X2110236*
G54D24*
G54D57*
X1974110Y1531232D03*
X1964110D03*
X1974110Y1521232D03*
X1964110D03*
X1969110Y1536252D03*
X1969310Y1516252D03*
G54D58*
X2062102Y1518732D03*
X1941118D03*
G54D59*
X2039110Y1505740D03*
X1964110D03*
G54D63*
X1907638Y1577732D03*
Y1595512D03*
G54D66*
X1901575Y1511417D03*
X2098425Y1688583D03*
Y1511417D03*
X1901575Y1688583D03*
G54D69*
X1962677Y1570669D03*
Y1562795D03*
X1970551Y1570669D03*
Y1562795D03*
X1978425Y1570669D03*
Y1562795D03*
X1986299Y1570669D03*
Y1562795D03*
X1994173Y1570669D03*
Y1562795D03*
X2002047Y1570669D03*
Y1562795D03*
X2009921Y1570669D03*
Y1562795D03*
X2017795Y1570669D03*
Y1562795D03*
X2025669Y1570669D03*
Y1562795D03*
X2033543Y1570669D03*
Y1562795D03*
G54D70*
X2039110Y1533732D03*
X2031591D03*
X2024071D03*
X2016551D03*
X2009031D03*
X2001512D03*
X1993992D03*
X2031591Y1526232D03*
X2024071D03*
X2016551D03*
X2009031D03*
X2001512D03*
X1993992D03*
X1986591D03*
X2039110Y1518732D03*
X2031591D03*
X2024071D03*
X2016551D03*
X2009031D03*
X2001512D03*
X1993992D03*
X1986591D03*
X2039110Y1526232D03*
X1986591Y1533732D03*
G54D71*
X1895827Y1570610D03*
Y1602894D03*
G74*
X0Y0D02*
M02*
