*
*
G04 PADS 9.5 Build Number: 522968 generated Gerber (RS-274-X) file*
G04 PC Version=2.1*
*
%IN "MT-MacthCar V1.0.0.pcb"*%
*
%MOIN*%
*
%FSLAX35Y35*%
*
*
*
*
G04 PC Standard Apertures*
*
*
G04 Thermal Relief Aperture macro.*
%AMTER*
1,1,$1,0,0*
1,0,$1-$2,0,0*
21,0,$3,$4,0,0,45*
21,0,$3,$4,0,0,135*
%
*
*
G04 Annular Aperture macro.*
%AMANN*
1,1,$1,0,0*
1,0,$2,0,0*
%
*
*
G04 Odd Aperture macro.*
%AMODD*
1,1,$1,0,0*
1,0,$1-0.005,0,0*
%
*
*
G04 PC Custom Aperture Macros*
*
*
*
*
*
*
G04 PC Aperture Table*
*
%ADD010C,0.001*%
%ADD011R,0.035X0.035*%
%ADD012R,0.036X0.036*%
%ADD013R,0.036X0.05*%
%ADD014R,0.05X0.036*%
%ADD015R,0.06X0.06*%
%ADD016R,0.06X0.05*%
%ADD018R,0.05X0.06*%
%ADD021R,0.11811X0.06299*%
%ADD022R,0.09449X0.07874*%
%ADD023C,0.01*%
%ADD026R,0.1X0.02362*%
%ADD027O,0.1X0.02362*%
%ADD028R,0.11811X0.05906*%
%ADD029R,0.07874X0.02992*%
%ADD030R,0.02362X0.1*%
%ADD031O,0.02362X0.1*%
%ADD032R,0.058X0.03543*%
%ADD033O,0.13779X0.08*%
%ADD034R,0.07874X0.03543*%
%ADD035R,0.08X0.16*%
%ADD036R,0.16X0.08*%
%ADD037R,0.07874X0.09449*%
%ADD038O,0.2X0.07*%
%ADD040R,0.05118X0.09843*%
%ADD041R,0.11811X0.06496*%
%ADD042O,0.024X0.08*%
%ADD043O,0.01181X0.07087*%
%ADD044O,0.07087X0.01181*%
%ADD046R,0.1X0.08*%
%ADD050R,0.09842X0.07874*%
%ADD052R,0.056X0.052*%
%ADD053R,0.052X0.056*%
%ADD065C,0.002*%
%ADD066C,0.00787*%
*
*
*
*
G04 PC Circuitry*
G04 Layer Name MT-MacthCar V1.0.0.pcb - circuitry*
%LPD*%
*
*
G04 PC Custom Flashes*
G04 Layer Name MT-MacthCar V1.0.0.pcb - flashes*
%LPD*%
*
*
G04 PC Circuitry*
G04 Layer Name MT-MacthCar V1.0.0.pcb - circuitry*
%LPD*%
*
G54D10*
G54D11*
G01X2089742Y1731724D03*
X2096242D03*
X2082242D03*
X2075742D03*
X1980992Y1756474D03*
Y1762974D03*
X1994992Y1748974D03*
Y1742474D03*
X1993492Y1874474D03*
Y1867974D03*
X1868492Y1748974D03*
Y1742474D03*
X1854992D03*
Y1748974D03*
X1993492Y1854974D03*
Y1861474D03*
X2086992Y1855474D03*
Y1861974D03*
X2078992Y1755474D03*
Y1761974D03*
Y1748974D03*
Y1742474D03*
X1847992Y1748974D03*
Y1742474D03*
Y1762974D03*
Y1756474D03*
X1819992Y1617474D03*
Y1623974D03*
X1840992Y1692974D03*
Y1686474D03*
X1826992Y1617474D03*
Y1623974D03*
X1847992Y1730974D03*
Y1724474D03*
X1833992Y1623974D03*
Y1617474D03*
X1847992Y1713974D03*
Y1707474D03*
X1840992Y1617474D03*
Y1623974D03*
X1847992Y1692974D03*
Y1686474D03*
X1973992Y1756474D03*
Y1762974D03*
X1861992Y1707474D03*
Y1713974D03*
X1889492Y1686474D03*
Y1692974D03*
X1980992Y1770474D03*
Y1776974D03*
X1973992Y1770474D03*
Y1776974D03*
X1994992D03*
Y1770474D03*
X1938992Y1794474D03*
Y1800974D03*
X1882492Y1686474D03*
Y1692974D03*
X1994992Y1721474D03*
Y1727974D03*
X1887992Y1853974D03*
Y1847474D03*
X1854992Y1724474D03*
Y1730974D03*
X1988992Y1727974D03*
Y1721474D03*
X1948742Y1700724D03*
X1955242D03*
X1938242D03*
X1931742D03*
X1892242Y1704724D03*
X1885742D03*
X1911742Y1700724D03*
X1918242D03*
X1840992Y1631474D03*
Y1637974D03*
X1899992Y1847474D03*
Y1853974D03*
X1905992Y1847474D03*
Y1853974D03*
X1931992Y1794474D03*
Y1800974D03*
X1862242Y1674724D03*
X1868742D03*
X1847992Y1631474D03*
Y1637974D03*
X2073992Y1876474D03*
Y1882974D03*
X1819992Y1637974D03*
Y1631474D03*
X1854992Y1692974D03*
Y1686474D03*
X2106992Y1756474D03*
Y1762974D03*
X1991492Y1517974D03*
Y1524474D03*
X1833992Y1692974D03*
Y1686474D03*
X1916992Y1811474D03*
Y1817974D03*
X1928992Y1811474D03*
Y1817974D03*
X1958992Y1811474D03*
Y1817974D03*
X1922992Y1811474D03*
Y1817974D03*
X1940992Y1811474D03*
Y1817974D03*
X1946992Y1811474D03*
Y1817974D03*
X1910992Y1811474D03*
Y1817974D03*
X1934992Y1811474D03*
Y1817974D03*
X1952992Y1811474D03*
Y1817974D03*
X1935242Y1612724D03*
X1941742D03*
X1873992Y1847474D03*
Y1853974D03*
X1882033Y1847474D03*
Y1853974D03*
X1910992Y1804974D03*
Y1798474D03*
X1865992Y1847474D03*
Y1853974D03*
X1859992D03*
Y1847474D03*
X1959242Y1636724D03*
X1952742D03*
X1978992Y1856474D03*
Y1862974D03*
X1847992Y1770474D03*
Y1776974D03*
X2067992Y1876474D03*
Y1882974D03*
X2078992Y1855474D03*
Y1861974D03*
X1999492Y1874474D03*
Y1867974D03*
Y1854974D03*
Y1861474D03*
X1994992Y1790974D03*
Y1784474D03*
X1987992Y1776974D03*
Y1770474D03*
Y1748974D03*
Y1742474D03*
X1833992Y1631474D03*
Y1637974D03*
X2078992Y1790974D03*
Y1784474D03*
X1826992Y1631474D03*
Y1637974D03*
X2078992Y1776974D03*
Y1770474D03*
X2099992Y1784474D03*
Y1790974D03*
X2144992Y1741974D03*
Y1735474D03*
X1854992Y1707474D03*
Y1713974D03*
X1826992Y1686474D03*
Y1692974D03*
X1987992Y1812474D03*
Y1818974D03*
X2093992Y1847974D03*
Y1841474D03*
X2078992Y1847974D03*
Y1841474D03*
Y1819974D03*
Y1813474D03*
Y1805974D03*
Y1799474D03*
X1954992Y1800974D03*
Y1794474D03*
X1947992Y1800974D03*
Y1794474D03*
X1964992Y1811474D03*
Y1817974D03*
X1970992Y1811474D03*
Y1817974D03*
X1994992Y1804974D03*
Y1798474D03*
X2093992Y1784474D03*
Y1790974D03*
X2171992Y1755974D03*
Y1749474D03*
Y1769974D03*
Y1763474D03*
X2093992Y1770474D03*
Y1776974D03*
X2162992Y1769974D03*
Y1763474D03*
X1966992Y1770474D03*
Y1776974D03*
X2093992Y1755474D03*
Y1761974D03*
X2155992Y1763474D03*
Y1769974D03*
X2086992Y1761974D03*
Y1755474D03*
Y1776974D03*
Y1770474D03*
X2148992Y1769974D03*
Y1763474D03*
X2086992Y1805974D03*
Y1799474D03*
X2093992Y1861974D03*
Y1855474D03*
X2086992Y1847974D03*
Y1841474D03*
Y1833974D03*
Y1827474D03*
Y1819974D03*
Y1813474D03*
X1994992Y1812474D03*
Y1818974D03*
X2078992Y1833974D03*
Y1827474D03*
X1987992Y1804974D03*
Y1798474D03*
X1962492Y1794474D03*
Y1800974D03*
X2086992Y1790974D03*
Y1784474D03*
X1858992Y1656474D03*
Y1662974D03*
X2134992Y1741974D03*
Y1735474D03*
X1893992Y1847474D03*
Y1853974D03*
X1876992Y1656474D03*
Y1662974D03*
G54D12*
X1983742Y1525224D03*
X1976242D03*
X2086992Y1748474D03*
Y1740974D03*
X1981242Y1749724D03*
X1973742D03*
X1977242Y1783724D03*
X1984742D03*
X1989242Y1755724D03*
X1996742D03*
X2145992Y1846974D03*
Y1854474D03*
X2114742Y1792224D03*
X2107242D03*
X2159742Y1756724D03*
X2152242D03*
X2131742Y1773724D03*
X2124242D03*
X2103242Y1769724D03*
X2110742D03*
X1916242Y1824724D03*
X1923742D03*
X1934242D03*
X1941742D03*
X1952242D03*
X1959742D03*
G54D13*
X1979942Y1517224D03*
X1977442Y1741724D03*
X1981042Y1791724D03*
X1993042Y1763724D03*
X2110992Y1784224D03*
X2155992Y1748724D03*
X2127942Y1765724D03*
X2107042Y1777724D03*
X1920042Y1832724D03*
X1938042D03*
X1956042D03*
G54D14*
X2094992Y1744674D03*
X2137992Y1850724D03*
G54D15*
X2141992Y1800724D03*
Y1786724D03*
X2120992Y1843724D03*
Y1857724D03*
X2127992Y1829724D03*
Y1815724D03*
X2127966Y1786724D03*
Y1800724D03*
X2107040Y1857717D03*
Y1844217D03*
X1939040Y1636717D03*
Y1623217D03*
X2155992Y1738724D03*
X2169992D03*
X1833491Y1573750D03*
X1847491D03*
G54D16*
X1989492Y1507724D03*
X1980492D03*
G54D18*
X1877492Y1748724D03*
Y1739724D03*
X1872992Y1684224D03*
Y1693224D03*
X2106992Y1747224D03*
Y1738224D03*
G54D21*
X2052992Y1852724D03*
Y1862724D03*
X2016992D03*
Y1852724D03*
X2018992Y1775224D03*
Y1765224D03*
X2054992D03*
Y1775224D03*
X2052992Y1874724D03*
Y1884724D03*
X2016992D03*
Y1874724D03*
X2018992Y1753724D03*
Y1743724D03*
X2054992D03*
Y1753724D03*
G54D22*
X2119992Y1731850D03*
Y1747598D03*
G54D23*
X1852099Y1603724D02*
X1855685D01*
X1857392Y1602017*
Y1590432*
X1855685Y1588724*
X1852099*
X1850392Y1590432*
Y1602017*
X1852099Y1603724*
Y1588724D02*
X1855685D01*
X1851099Y1589724D02*
X1856685D01*
X1850392Y1590724D02*
X1857392D01*
X1850392Y1591724D02*
X1857392D01*
X1850392Y1592724D02*
X1857392D01*
X1850392Y1593724D02*
X1857392D01*
X1850392Y1594724D02*
X1857392D01*
X1850392Y1595724D02*
X1857392D01*
X1850392Y1596724D02*
X1857392D01*
X1850392Y1597724D02*
X1857392D01*
X1850392Y1598724D02*
X1857392D01*
X1850392Y1599724D02*
X1857392D01*
X1850392Y1600724D02*
X1857392D01*
X1850392Y1601724D02*
X1857392D01*
X1851099Y1602724D02*
X1856685D01*
X1852099Y1603724D02*
X1855685D01*
X1850992Y1589832D02*
Y1602617D01*
X1851992Y1588832D02*
Y1603617D01*
X1852992Y1588724D02*
Y1603724D01*
X1853992Y1588724D02*
Y1603724D01*
X1854992Y1588724D02*
Y1603724D01*
X1855992Y1589032D02*
Y1603417D01*
X1856992Y1590032D02*
Y1602417D01*
X1923992Y1575617D02*
Y1572032D01*
X1922285Y1570324*
X1910699*
X1908992Y1572032*
Y1575617*
X1910699Y1577324*
X1922285*
X1923992Y1575617*
X1910299Y1570724D02*
X1922685D01*
X1909299Y1571724D02*
X1923685D01*
X1908992Y1572724D02*
X1923992D01*
X1908992Y1573724D02*
X1923992D01*
X1908992Y1574724D02*
X1923992D01*
X1909099Y1575724D02*
X1923885D01*
X1910099Y1576724D02*
X1922885D01*
X1908992Y1572032D02*
Y1575617D01*
X1909992Y1571032D02*
Y1576617D01*
X1910992Y1570324D02*
Y1577324D01*
X1911992Y1570324D02*
Y1577324D01*
X1912992Y1570324D02*
Y1577324D01*
X1913992Y1570324D02*
Y1577324D01*
X1914992Y1570324D02*
Y1577324D01*
X1915992Y1570324D02*
Y1577324D01*
X1916992Y1570324D02*
Y1577324D01*
X1917992Y1570324D02*
Y1577324D01*
X1918992Y1570324D02*
Y1577324D01*
X1919992Y1570324D02*
Y1577324D01*
X1920992Y1570324D02*
Y1577324D01*
X1921992Y1570324D02*
Y1577324D01*
X1922992Y1571032D02*
Y1576617D01*
X1923992Y1572032D02*
Y1575617D01*
Y1613617D02*
Y1610032D01*
X1922285Y1608324*
X1910699*
X1908992Y1610032*
Y1613617*
X1910699Y1615324*
X1922285*
X1923992Y1613617*
X1910299Y1608724D02*
X1922685D01*
X1909299Y1609724D02*
X1923685D01*
X1908992Y1610724D02*
X1923992D01*
X1908992Y1611724D02*
X1923992D01*
X1908992Y1612724D02*
X1923992D01*
X1909099Y1613724D02*
X1923885D01*
X1910099Y1614724D02*
X1922885D01*
X1908992Y1610032D02*
Y1613617D01*
X1909992Y1609032D02*
Y1614617D01*
X1910992Y1608324D02*
Y1615324D01*
X1911992Y1608324D02*
Y1615324D01*
X1912992Y1608324D02*
Y1615324D01*
X1913992Y1608324D02*
Y1615324D01*
X1914992Y1608324D02*
Y1615324D01*
X1915992Y1608324D02*
Y1615324D01*
X1916992Y1608324D02*
Y1615324D01*
X1917992Y1608324D02*
Y1615324D01*
X1918992Y1608324D02*
Y1615324D01*
X1919992Y1608324D02*
Y1615324D01*
X1920992Y1608324D02*
Y1615324D01*
X1921992Y1608324D02*
Y1615324D01*
X1922992Y1609032D02*
Y1614617D01*
X1923992Y1610032D02*
Y1613617D01*
X1957492Y1575617D02*
Y1572032D01*
X1955785Y1570324*
X1944199*
X1942492Y1572032*
Y1575617*
X1944199Y1577324*
X1955785*
X1957492Y1575617*
X1943799Y1570724D02*
X1956185D01*
X1942799Y1571724D02*
X1957185D01*
X1942492Y1572724D02*
X1957492D01*
X1942492Y1573724D02*
X1957492D01*
X1942492Y1574724D02*
X1957492D01*
X1942599Y1575724D02*
X1957385D01*
X1943599Y1576724D02*
X1956385D01*
X1942992Y1571532D02*
Y1576117D01*
X1943992Y1570532D02*
Y1577117D01*
X1944992Y1570324D02*
Y1577324D01*
X1945992Y1570324D02*
Y1577324D01*
X1946992Y1570324D02*
Y1577324D01*
X1947992Y1570324D02*
Y1577324D01*
X1948992Y1570324D02*
Y1577324D01*
X1949992Y1570324D02*
Y1577324D01*
X1950992Y1570324D02*
Y1577324D01*
X1951992Y1570324D02*
Y1577324D01*
X1952992Y1570324D02*
Y1577324D01*
X1953992Y1570324D02*
Y1577324D01*
X1954992Y1570324D02*
Y1577324D01*
X1955992Y1570532D02*
Y1577117D01*
X1956992Y1571532D02*
Y1576117D01*
G54D26*
X1993017Y1826700D03*
G54D27*
Y1831700D03*
Y1836700D03*
Y1841700D03*
X1973017D03*
Y1836700D03*
Y1831700D03*
Y1826700D03*
G54D28*
X2060592Y1807724D03*
Y1817724D03*
Y1827724D03*
Y1837724D03*
X2013392D03*
Y1827724D03*
Y1817724D03*
Y1807724D03*
G54D29*
X2015732Y1795224D03*
Y1790224D03*
Y1785224D03*
X2058252D03*
Y1790224D03*
Y1795224D03*
G54D30*
X1824468Y1651200D03*
X2098968Y1805700D03*
G54D31*
X1829468Y1651200D03*
X1834468D03*
X1839468D03*
Y1671200D03*
X1834468D03*
X1829468D03*
X1824468D03*
X2103968Y1805700D03*
X2108968D03*
X2113968D03*
Y1825700D03*
X2108968D03*
X2103968D03*
X2098968D03*
G54D32*
X1951017Y1624726D03*
Y1612937D03*
G54D33*
X1961568Y1618742D03*
G54D34*
X1952068Y1618842D03*
G54D35*
X1828092Y1596224D03*
G54D36*
X1916492Y1599624D03*
Y1637624D03*
X1949992Y1599624D03*
G54D37*
X1980118Y1493724D03*
X1995866D03*
X1903118Y1664724D03*
X1918866D03*
G54D38*
X1963858Y1686724D03*
X1922126D03*
G54D40*
X1878047Y1636535D03*
X1868992D03*
X1859937D03*
G54D41*
X1868992Y1612913D03*
G54D42*
X1890462Y1829744D03*
X1885462D03*
X1880462D03*
X1875462D03*
X1870462D03*
X1865462D03*
X1860462D03*
X1855462D03*
Y1807744D03*
X1860462D03*
X1865462D03*
X1870462D03*
X1875462D03*
X1880462D03*
X1885462D03*
X1890462D03*
G54D43*
X1907112Y1726725D03*
X1909078D03*
X1911047D03*
X1913015D03*
X1914984D03*
X1916952D03*
X1918921D03*
X1920889D03*
X1922858D03*
X1924826D03*
X1926795D03*
X1928763D03*
X1930732D03*
X1932700D03*
X1934669D03*
X1936637D03*
X1938606D03*
X1940574D03*
X1942543D03*
X1944511D03*
X1944313Y1783953D03*
X1942344D03*
X1940376D03*
X1938407D03*
X1936439D03*
X1934470D03*
X1932502D03*
X1930533D03*
X1928565D03*
X1926596D03*
X1924628D03*
X1922659D03*
X1920691D03*
X1918722D03*
X1916754D03*
X1914785D03*
X1912817D03*
X1910848D03*
X1908880D03*
X1906911D03*
G54D44*
X1954246Y1736640D03*
Y1738609D03*
Y1740577D03*
Y1742546D03*
Y1744514D03*
Y1746483D03*
Y1748451D03*
Y1750420D03*
Y1752388D03*
Y1754357D03*
Y1756325D03*
Y1758294D03*
Y1760262D03*
Y1762231D03*
Y1764199D03*
Y1766168D03*
Y1768136D03*
Y1770105D03*
Y1772073D03*
Y1774042D03*
X1896964Y1774056D03*
Y1772087D03*
Y1770119D03*
Y1768150D03*
Y1766182D03*
Y1764213D03*
Y1762245D03*
Y1760276D03*
Y1758308D03*
Y1756339D03*
Y1754371D03*
Y1752402D03*
Y1750434D03*
Y1748465D03*
Y1746497D03*
Y1744528D03*
Y1742560D03*
Y1740591D03*
Y1738623D03*
Y1736654D03*
G54D46*
X2141992Y1815724D03*
Y1829724D03*
G54D50*
X1901015Y1683069D03*
G54D52*
X1877992Y1765474D03*
Y1773974D03*
X1868492Y1765474D03*
Y1773974D03*
X1971992Y1728974D03*
Y1720474D03*
X1858992Y1765474D03*
Y1773974D03*
X1980992Y1728974D03*
Y1720474D03*
X1866992Y1655474D03*
Y1663974D03*
X1884992Y1655474D03*
Y1663974D03*
G54D53*
X1992242Y1479724D03*
X1983742D03*
X1917242Y1860724D03*
X1925742D03*
X1936742D03*
X1945242D03*
X1956742D03*
X1965242D03*
G54D65*
X1884492Y1536182D02*
G75*
G03X1890492I3000J0D01*
G01Y1564126*
G03X1884492I-3000J0*
G01Y1536182*
G54D66*
X1812992Y1312598D02*
G03X1820866Y1304724I7874J0D01*
G01X2179134*
G03X2187008Y1312598I-0J7874*
G01Y1887402*
G03X2179134Y1895276I-7874J-0*
G01X1820866*
G03X1812992Y1887402I0J-7874*
G01Y1312598*
X1841535Y1324409D02*
G03X1841535I-8858J0D01*
G01X2176181D02*
G03X2176181I-8858J0D01*
G01X1841535Y1875591D02*
G03X1841535I-8858J0D01*
G01X2176181D02*
G03X2176181I-8858J0D01*
G74*
G01X0Y0D02*
M02*
