*
*
G04 PADS 9.5 Build Number: 522968 generated Gerber (RS-274-X) file*
G04 PC Version=2.1*
*
%IN "MT-Baseboard V1.0.000.p"*%
*
%MOIN*%
*
%FSLAX35Y35*%
*
*
*
*
G04 PC Standard Apertures*
*
*
G04 Thermal Relief Aperture macro.*
%AMTER*
1,1,$1,0,0*
1,0,$1-$2,0,0*
21,0,$3,$4,0,0,45*
21,0,$3,$4,0,0,135*
%
*
*
G04 Annular Aperture macro.*
%AMANN*
1,1,$1,0,0*
1,0,$2,0,0*
%
*
*
G04 Odd Aperture macro.*
%AMODD*
1,1,$1,0,0*
1,0,$1-0.005,0,0*
%
*
*
G04 PC Custom Aperture Macros*
*
*
*
*
*
*
G04 PC Aperture Table*
*
%ADD010C,0.01*%
%ADD012C,0.001*%
%ADD058C,0.002*%
%ADD205C,0.05118*%
*
*
*
*
G04 PC Circuitry*
G04 Layer Name MT-Baseboard V1.0.000.p - circuitry*
%LPD*%
*
*
G04 PC Custom Flashes*
G04 Layer Name MT-Baseboard V1.0.000.p - flashes*
%LPD*%
*
*
G04 PC Circuitry*
G04 Layer Name MT-Baseboard V1.0.000.p - circuitry*
%LPD*%
*
G54D10*
G01X2530799Y1327224D02*
Y1615750D01*
Y1327224D02*
X2533299Y1337224D01*
X2528299*
X2530799Y1327224*
Y1917776D02*
Y1629250D01*
Y1917776D02*
X2528299Y1907776D01*
X2533299*
X2530799Y1917776*
X2496299Y1327224D02*
X2535799D01*
X2496299Y1917776D02*
X2535799D01*
X2548071Y1624063D02*
X2547617Y1624375D01*
X2546935Y1625313*
X2546935D02*
Y1618750D01*
X2541935Y1625313D02*
X2544208D01*
X2544208D02*
X2544435Y1622500D01*
X2544208Y1622813*
X2544208D02*
X2543526Y1623125D01*
X2542844*
X2542162Y1622813*
X2542162D02*
X2541708Y1622188D01*
X2541708D02*
X2541480Y1621250D01*
X2541708Y1620625*
X2541935Y1619688*
X2541935D02*
X2542390Y1619063D01*
X2542390D02*
X2543071Y1618750D01*
X2543753*
X2544435Y1619063*
X2544435D02*
X2544662Y1619375D01*
X2544890Y1620000*
X2538071Y1625313D02*
X2538753Y1625000D01*
X2539208Y1624063*
X2539208D02*
X2539435Y1622500D01*
Y1621563*
X2539435D02*
X2539208Y1620000D01*
X2538753Y1619063*
X2538753D02*
X2538071Y1618750D01*
X2537617*
X2536935Y1619063*
X2536935D02*
X2536480Y1620000D01*
X2536253Y1621563*
X2536253D02*
Y1622500D01*
X2536480Y1624063*
X2536480D02*
X2536935Y1625000D01*
X2537617Y1625313*
X2537617D02*
X2538071D01*
X2533980Y1619375D02*
X2534208Y1619063D01*
X2534208D02*
X2533980Y1618750D01*
X2533753Y1619063*
X2533753D02*
X2533980Y1619375D01*
X2530344Y1625313D02*
X2531026Y1625000D01*
X2531480Y1624063*
X2531480D02*
X2531708Y1622500D01*
Y1621563*
X2531708D02*
X2531480Y1620000D01*
X2531026Y1619063*
X2531026D02*
X2530344Y1618750D01*
X2529890*
X2529208Y1619063*
X2529208D02*
X2528753Y1620000D01*
X2528526Y1621563*
X2528526D02*
Y1622500D01*
X2528753Y1624063*
X2528753D02*
X2529208Y1625000D01*
X2529890Y1625313*
X2529890D02*
X2530344D01*
X2526480Y1623125D02*
Y1618750D01*
Y1621875D02*
X2525799Y1622813D01*
X2525799D02*
X2525344Y1623125D01*
X2524662*
X2524208Y1622813*
X2524208D02*
X2523980Y1621875D01*
Y1618750*
Y1621875D02*
X2523299Y1622813D01*
X2523299D02*
X2522844Y1623125D01*
X2522162*
X2521708Y1622813*
X2521708D02*
X2521480Y1621875D01*
Y1618750*
X2519435Y1623125D02*
Y1618750D01*
Y1621875D02*
X2518753Y1622813D01*
X2518753D02*
X2518299Y1623125D01*
X2517617*
X2517162Y1622813*
X2517162D02*
X2516935Y1621875D01*
Y1618750*
Y1621875D02*
X2516253Y1622813D01*
X2516253D02*
X2515799Y1623125D01*
X2515117*
X2514662Y1622813*
X2514662D02*
X2514435Y1621875D01*
Y1618750*
X1451929Y1287224D02*
X1950432D01*
X1451929D02*
X1461929Y1284724D01*
Y1289724*
X1451929Y1287224*
X2491299D02*
X1992795D01*
X2491299D02*
X2481299Y1289724D01*
Y1284724*
X2491299Y1287224*
X1451929Y1322224D02*
Y1282224D01*
X2491299Y1322224D02*
Y1282224D01*
X1989568Y1288474D02*
Y1288787D01*
X1989341Y1289412*
X1989114Y1289724*
X1988659Y1290037*
X1987750*
X1987295Y1289724*
X1987068Y1289412*
X1986841Y1288787*
Y1288162*
X1987068Y1287537*
X1987523Y1286599*
X1989795Y1283474*
X1986614*
X1981841Y1289099D02*
X1982068Y1289724D01*
X1982750Y1290037*
X1983205*
X1983886Y1289724*
X1984341Y1288787*
X1984568Y1287224*
Y1285662*
X1984341Y1284412*
X1983886Y1283787*
X1983205Y1283474*
X1982977*
X1982295Y1283787*
X1981841Y1284412*
X1981614Y1285349*
Y1285662*
X1981841Y1286599*
X1982295Y1287224*
X1982977Y1287537*
X1983205*
X1983886Y1287224*
X1984341Y1286599*
X1984568Y1285662*
X1977295Y1290037D02*
X1979568Y1285662D01*
X1976159*
X1977295Y1290037D02*
Y1283474D01*
X1973886Y1284099D02*
X1974114Y1283787D01*
X1973886Y1283474*
X1973659Y1283787*
X1973886Y1284099*
X1970250Y1290037D02*
X1970932Y1289724D01*
X1971386Y1288787*
X1971614Y1287224*
Y1286287*
X1971386Y1284724*
X1970932Y1283787*
X1970250Y1283474*
X1969795*
X1969114Y1283787*
X1968659Y1284724*
X1968432Y1286287*
Y1287224*
X1968659Y1288787*
X1969114Y1289724*
X1969795Y1290037*
X1970250*
X1966386Y1287849D02*
Y1283474D01*
Y1286599D02*
X1965705Y1287537D01*
X1965250Y1287849*
X1964568*
X1964114Y1287537*
X1963886Y1286599*
Y1283474*
Y1286599D02*
X1963205Y1287537D01*
X1962750Y1287849*
X1962068*
X1961614Y1287537*
X1961386Y1286599*
Y1283474*
X1959341Y1287849D02*
Y1283474D01*
Y1286599D02*
X1958659Y1287537D01*
X1958205Y1287849*
X1957523*
X1957068Y1287537*
X1956841Y1286599*
Y1283474*
Y1286599D02*
X1956159Y1287537D01*
X1955705Y1287849*
X1955023*
X1954568Y1287537*
X1954341Y1286599*
Y1283474*
G54D12*
X2491299Y1327224D02*
X2491296D01*
X2491299Y1917776D02*
X2491296D01*
X1451929Y1327224D02*
X1451926D01*
X2491299D02*
X2491296D01*
G54D58*
X2487362D02*
G75*
G03X2491299Y1331161I-0J3937D01*
G01Y1913839*
G03X2487362Y1917776I-3937J-0*
G01X1455866*
G03X1451929Y1913839I-0J-3937*
G01Y1331161*
G03X1455866Y1327224I3937J0*
G01X2487362*
G54D205*
X2379299Y1392724D03*
X1788799Y1613724D03*
X2178299Y1842224D03*
X2189299D03*
X1938899Y1575624D03*
X1640899Y1644424D03*
G74*
X0Y0D02*
M02*
