*
*
G04 PADS 9.5 Build Number: 522968 generated Gerber (RS-274-X) file*
G04 PC Version=2.1*
*
%IN "MT-Baseboard V1.0.000.p"*%
*
%MOIN*%
*
%FSLAX35Y35*%
*
*
*
*
G04 PC Standard Apertures*
*
*
G04 Thermal Relief Aperture macro.*
%AMTER*
1,1,$1,0,0*
1,0,$1-$2,0,0*
21,0,$3,$4,0,0,45*
21,0,$3,$4,0,0,135*
%
*
*
G04 Annular Aperture macro.*
%AMANN*
1,1,$1,0,0*
1,0,$2,0,0*
%
*
*
G04 Odd Aperture macro.*
%AMODD*
1,1,$1,0,0*
1,0,$1-0.005,0,0*
%
*
*
G04 PC Custom Aperture Macros*
*
*
*
*
*
*
G04 PC Aperture Table*
*
%ADD010C,0.01*%
%ADD012C,0.001*%
%ADD058C,0.002*%
%ADD059C,0.005*%
*
*
*
*
G04 PC Circuitry*
G04 Layer Name MT-Baseboard V1.0.000.p - circuitry*
%LPD*%
*
*
G04 PC Custom Flashes*
G04 Layer Name MT-Baseboard V1.0.000.p - flashes*
%LPD*%
*
*
G04 PC Circuitry*
G04 Layer Name MT-Baseboard V1.0.000.p - circuitry*
%LPD*%
*
G54D10*
G01X2412803Y1370224D02*
G75*
G03X2412803I-5118J0D01*
G01X1822303Y1591224D02*
G03X1822303I-5118J0D01*
G01X2211803Y1819724D02*
G03X2211803I-5118J0D01*
G01X2222803D02*
G03X2222803I-5118J0D01*
G01X1972403Y1553124D02*
G03X1972403I-5118J0D01*
G01X1674403Y1621924D02*
G03X1674403I-5118J0D01*
G54D12*
G54D58*
G01X2515748Y1304724D02*
G03X2519685Y1308661I0J3937D01*
G01Y1891339*
G03X2515748Y1895276I-3937J-0*
G01X1484252*
G03X1480315Y1891339I-0J-3937*
G01Y1308661*
G03X1484252Y1304724I3937J0*
G01X2515748*
G54D59*
X2404844Y1381653D02*
Y1378371D01*
X2404049Y1381653D02*
X2405640D01*
X2406662D02*
Y1378371D01*
Y1381653D02*
X2407685D01*
X2408026Y1381496*
X2408140Y1381340*
X2408253Y1381028*
Y1380559*
X2408140Y1380246*
X2408026Y1380090*
X2407685Y1379934*
X2406662*
X2409503Y1381653D02*
X2410753D01*
X2410071Y1380403*
X2410412*
X2410640Y1380246*
X2410753Y1380090*
X2410867Y1379621*
Y1379309*
X2410753Y1378840*
X2410526Y1378528*
X2410185Y1378371*
X2409844*
X2409503Y1378528*
X2409390Y1378684*
X2409276Y1378996*
X1966394Y1566853D02*
Y1563571D01*
X1965599Y1566853D02*
X1967190D01*
X1968212D02*
Y1563571D01*
Y1566853D02*
X1969235D01*
X1969576Y1566696*
X1969690Y1566540*
X1969803Y1566228*
Y1565759*
X1969690Y1565446*
X1969576Y1565290*
X1969235Y1565134*
X1968212*
X1972417Y1566853D02*
X1971280Y1563571D01*
X1970826Y1566853D02*
X1972417D01*
X1666901Y1632853D02*
Y1629571D01*
X1666105Y1632853D02*
X1667696D01*
X1668719D02*
Y1629571D01*
Y1632853D02*
X1669742D01*
X1670083Y1632696*
X1670196Y1632540*
X1670310Y1632228*
Y1631759*
X1670196Y1631446*
X1670083Y1631290*
X1669742Y1631134*
X1668719*
X1672810Y1631759D02*
X1672696Y1631290D01*
X1672469Y1630978*
X1672128Y1630821*
X1672015*
X1671674Y1630978*
X1671446Y1631290*
X1671333Y1631759*
Y1631915*
X1671446Y1632384*
X1671674Y1632696*
X1672015Y1632853*
X1672128*
X1672469Y1632696*
X1672696Y1632384*
X1672810Y1631759*
Y1630978*
X1672696Y1630196*
X1672469Y1629728*
X1672128Y1629571*
X1671901*
X1671560Y1629728*
X1671446Y1630040*
X2204980Y1813006D02*
Y1809724D01*
X2204185Y1813006D02*
X2205776D01*
X2206799D02*
Y1809724D01*
Y1813006D02*
X2207821D01*
X2208162Y1812849*
X2208276Y1812693*
X2208390Y1812381*
Y1811912*
X2208276Y1811599*
X2208162Y1811443*
X2207821Y1811287*
X2206799*
X2209412Y1812381D02*
X2209640Y1812537D01*
X2209980Y1813006*
Y1809724*
X2215480Y1813006D02*
Y1809724D01*
X2214685Y1813006D02*
X2216276D01*
X2217299D02*
Y1809724D01*
Y1813006D02*
X2218321D01*
X2218662Y1812849*
X2218776Y1812693*
X2218890Y1812381*
Y1811912*
X2218776Y1811599*
X2218662Y1811443*
X2218321Y1811287*
X2217299*
X2220026Y1812224D02*
Y1812381D01*
X2220140Y1812693*
X2220253Y1812849*
X2220480Y1813006*
X2220935*
X2221162Y1812849*
X2221276Y1812693*
X2221390Y1812381*
Y1812068*
X2221276Y1811756*
X2221049Y1811287*
X2219912Y1809724*
X2221503*
X1814480Y1602006D02*
Y1598724D01*
X1813685Y1602006D02*
X1815276D01*
X1816299D02*
Y1598724D01*
Y1602006D02*
X1817321D01*
X1817662Y1601849*
X1817776Y1601693*
X1817890Y1601381*
Y1600912*
X1817776Y1600599*
X1817662Y1600443*
X1817321Y1600287*
X1816299*
X1818912Y1601381D02*
X1819140Y1601537D01*
X1819480Y1602006*
Y1598724*
X1821185Y1602006D02*
X1820844Y1601849D01*
X1820617Y1601381*
X1820503Y1600599*
Y1600131*
X1820617Y1599349*
X1820844Y1598881*
X1821185Y1598724*
X1821412*
X1821753Y1598881*
X1821980Y1599349*
X1822094Y1600131*
Y1600599*
X1821980Y1601381*
X1821753Y1601849*
X1821412Y1602006*
X1821185*
G74*
X0Y0D02*
M02*
