*
*
G04 PADS 9.5 Build Number: 522968 generated Gerber (RS-274-X) file*
G04 PC Version=2.1*
*
%IN "ATSAMA5D2x-A.pcb"*%
*
%MOIN*%
*
%FSLAX35Y35*%
*
*
*
*
G04 PC Standard Apertures*
*
*
G04 Thermal Relief Aperture macro.*
%AMTER*
1,1,$1,0,0*
1,0,$1-$2,0,0*
21,0,$3,$4,0,0,45*
21,0,$3,$4,0,0,135*
%
*
*
G04 Annular Aperture macro.*
%AMANN*
1,1,$1,0,0*
1,0,$2,0,0*
%
*
*
G04 Odd Aperture macro.*
%AMODD*
1,1,$1,0,0*
1,0,$1-0.005,0,0*
%
*
*
G04 PC Custom Aperture Macros*
*
*
*
*
*
*
G04 PC Aperture Table*
*
%ADD056C,0.03*%
%ADD060C,0.002*%
%ADD103C,0.001*%
%ADD186O,0.10433X0.02559*%
*
*
*
*
G04 PC Circuitry*
G04 Layer Name ATSAMA5D2x-A.pcb - circuitry*
%LPD*%
*
*
G04 PC Custom Flashes*
G04 Layer Name ATSAMA5D2x-A.pcb - flashes*
%LPD*%
*
*
G04 PC Circuitry*
G04 Layer Name ATSAMA5D2x-A.pcb - circuitry*
%LPD*%
*
G54D56*
G01X1983168Y1560062D03*
X2054268Y1465362D03*
X1937568Y1728062D03*
X2062068Y1465362D03*
X1968768Y1569962D03*
X1984668Y1632962D03*
X1960968Y1560062D03*
X1971468Y1464662D03*
X2014668Y1471562D03*
X2061768Y1496762D03*
X2007768Y1466362D03*
X1987268Y1575662D03*
X1984968Y1620962D03*
X1951068D03*
X2061768Y1471862D03*
X2029968Y1465862D03*
X2035068D03*
X2045268Y1483862D03*
X1985768Y1466362D03*
X1932768Y1502262D03*
Y1486562D03*
G54D60*
X2108268Y1743701D02*
G75*
G03X2104331Y1747638I-3937J-0D01*
G01X1895669*
G03X1891732Y1743701I0J-3937*
G01Y1456299*
G03X1895669Y1452362I3937J0*
G01X2104331*
G03X2108268Y1456299I-0J3937*
G01Y1743701*
G54D103*
G54D186*
X2085394Y1724174D03*
X2101142Y1724161D03*
X2085394Y1719174D03*
Y1714174D03*
Y1709174D03*
Y1704174D03*
Y1699174D03*
Y1694174D03*
Y1689174D03*
Y1684174D03*
Y1679174D03*
Y1674174D03*
Y1669174D03*
Y1664174D03*
Y1659174D03*
Y1654174D03*
Y1649174D03*
Y1644174D03*
Y1639174D03*
Y1634174D03*
Y1629174D03*
Y1624174D03*
Y1619174D03*
Y1614174D03*
Y1609174D03*
Y1604174D03*
Y1599174D03*
Y1594174D03*
Y1589174D03*
Y1584174D03*
Y1579174D03*
Y1574174D03*
Y1569174D03*
Y1564174D03*
Y1559174D03*
Y1554174D03*
Y1549174D03*
Y1544174D03*
Y1539174D03*
Y1534174D03*
Y1529174D03*
Y1524174D03*
Y1519174D03*
Y1514174D03*
Y1509174D03*
Y1504174D03*
Y1499174D03*
Y1494174D03*
Y1489174D03*
Y1484174D03*
Y1479174D03*
X2101142Y1719161D03*
Y1714161D03*
Y1709161D03*
Y1704161D03*
Y1699161D03*
Y1694161D03*
Y1689161D03*
Y1684161D03*
Y1679161D03*
Y1674161D03*
Y1669161D03*
Y1664161D03*
Y1659161D03*
Y1654161D03*
Y1649161D03*
Y1644161D03*
Y1639161D03*
Y1634161D03*
Y1629161D03*
Y1624161D03*
Y1619161D03*
Y1614161D03*
Y1609161D03*
Y1604161D03*
Y1599161D03*
Y1594161D03*
Y1589161D03*
Y1584161D03*
Y1579161D03*
Y1574161D03*
Y1569161D03*
Y1564161D03*
Y1559161D03*
Y1554161D03*
Y1549161D03*
Y1544161D03*
Y1539161D03*
Y1534161D03*
Y1529161D03*
Y1524161D03*
Y1519161D03*
Y1514161D03*
Y1509161D03*
Y1504161D03*
Y1499161D03*
Y1494161D03*
Y1489161D03*
Y1484161D03*
Y1479161D03*
X1899394Y1724174D03*
X1915142Y1724161D03*
X1899394Y1719174D03*
Y1714174D03*
Y1709174D03*
Y1704174D03*
Y1699174D03*
Y1694174D03*
Y1689174D03*
Y1684174D03*
Y1679174D03*
Y1674174D03*
Y1669174D03*
Y1664174D03*
Y1659174D03*
Y1654174D03*
Y1649174D03*
Y1644174D03*
Y1639174D03*
Y1634174D03*
Y1629174D03*
Y1624174D03*
Y1619174D03*
Y1614174D03*
Y1609174D03*
Y1604174D03*
Y1599174D03*
Y1594174D03*
Y1589174D03*
Y1584174D03*
Y1579174D03*
Y1574174D03*
Y1569174D03*
Y1564174D03*
Y1559174D03*
Y1554174D03*
Y1549174D03*
Y1544174D03*
Y1539174D03*
Y1534174D03*
Y1529174D03*
Y1524174D03*
Y1519174D03*
Y1514174D03*
Y1509174D03*
Y1504174D03*
Y1499174D03*
Y1494174D03*
Y1489174D03*
Y1484174D03*
Y1479174D03*
X1915142Y1719161D03*
Y1714161D03*
Y1709161D03*
Y1704161D03*
Y1699161D03*
Y1694161D03*
Y1689161D03*
Y1684161D03*
Y1679161D03*
Y1674161D03*
Y1669161D03*
Y1664161D03*
Y1659161D03*
Y1654161D03*
Y1649161D03*
Y1644161D03*
Y1639161D03*
Y1634161D03*
Y1629161D03*
Y1624161D03*
Y1619161D03*
Y1614161D03*
Y1609161D03*
Y1604161D03*
Y1599161D03*
Y1594161D03*
Y1589161D03*
Y1584161D03*
Y1579161D03*
Y1574161D03*
Y1569161D03*
Y1564161D03*
Y1559161D03*
Y1554161D03*
Y1549161D03*
Y1544161D03*
Y1539161D03*
Y1534161D03*
Y1529161D03*
Y1524161D03*
Y1519161D03*
Y1514161D03*
Y1509161D03*
Y1504161D03*
Y1499161D03*
Y1494161D03*
Y1489161D03*
Y1484161D03*
Y1479161D03*
G74*
X0Y0D02*
M02*
