*
*
G04 PADS 9.5 Build Number: 522968 generated Gerber (RS-274-X) file*
G04 PC Version=2.1*
*
%IN "MT-MiniDC-V1.2.0 (2).pc"*%
*
%MOIN*%
*
%FSLAX35Y35*%
*
*
*
*
G04 PC Standard Apertures*
*
*
G04 Thermal Relief Aperture macro.*
%AMTER*
1,1,$1,0,0*
1,0,$1-$2,0,0*
21,0,$3,$4,0,0,45*
21,0,$3,$4,0,0,135*
%
*
*
G04 Annular Aperture macro.*
%AMANN*
1,1,$1,0,0*
1,0,$2,0,0*
%
*
*
G04 Odd Aperture macro.*
%AMODD*
1,1,$1,0,0*
1,0,$1-0.005,0,0*
%
*
*
G04 PC Custom Aperture Macros*
*
*
*
*
*
*
G04 PC Aperture Table*
*
%ADD010C,0.01*%
%ADD012R,0.06X0.06*%
%ADD024C,0.001*%
%ADD036R,0.035X0.035*%
%ADD038R,0.06299X0.11811*%
%ADD039R,0.03543X0.058*%
%ADD040O,0.08X0.13779*%
%ADD041R,0.03543X0.07874*%
%ADD044R,0.09449X0.07874*%
%ADD045R,0.1X0.02362*%
%ADD046O,0.1X0.02362*%
%ADD048R,0.06X0.05*%
%ADD049O,0.07X0.2*%
%ADD050R,0.058X0.03543*%
%ADD051O,0.13779X0.08*%
%ADD052R,0.07874X0.03543*%
%ADD053R,0.11811X0.06299*%
%ADD054O,0.024X0.08*%
%ADD055R,0.02362X0.1*%
%ADD056O,0.02362X0.1*%
%ADD057R,0.07874X0.02362*%
%ADD058O,0.07874X0.02362*%
%ADD059R,0.1X0.08*%
%ADD060R,0.08X0.1*%
%ADD063R,0.02756X0.09842*%
%ADD064O,0.02756X0.09842*%
%ADD065C,0.03937*%
%ADD066R,0.05X0.06*%
%ADD067O,0.07087X0.01102*%
%ADD068O,0.01102X0.07087*%
%ADD071R,0.16X0.08*%
%ADD072R,0.07874X0.09449*%
%ADD073O,0.25591X0.09843*%
%ADD074R,0.056X0.052*%
%ADD075R,0.052X0.056*%
%ADD076O,0.09843X0.25591*%
%ADD077R,0.036X0.036*%
%ADD078R,0.036X0.05*%
*
*
*
*
G04 PC Circuitry*
G04 Layer Name MT-MiniDC-V1.2.0 (2).pc - circuitry*
%LPD*%
*
*
G04 PC Custom Flashes*
G04 Layer Name MT-MiniDC-V1.2.0 (2).pc - flashes*
%LPD*%
*
*
G04 PC Circuitry*
G04 Layer Name MT-MiniDC-V1.2.0 (2).pc - circuitry*
%LPD*%
*
G54D10*
G01X1892780Y1703942D02*
Y1707528D01*
X1894487Y1709235*
X1906072*
X1907780Y1707528*
Y1703942*
X1906072Y1702235*
X1894487*
X1892780Y1703942*
X1893887Y1702835D02*
X1906672D01*
X1892887Y1703835D02*
X1907672D01*
X1892780Y1704835D02*
X1907780D01*
X1892780Y1705835D02*
X1907780D01*
X1892780Y1706835D02*
X1907780D01*
X1893087Y1707835D02*
X1907472D01*
X1894087Y1708835D02*
X1906472D01*
X1892780Y1703942D02*
Y1707528D01*
X1893780Y1702942D02*
Y1708528D01*
X1894780Y1702235D02*
Y1709235D01*
X1895780Y1702235D02*
Y1709235D01*
X1896780Y1702235D02*
Y1709235D01*
X1897780Y1702235D02*
Y1709235D01*
X1898780Y1702235D02*
Y1709235D01*
X1899780Y1702235D02*
Y1709235D01*
X1900780Y1702235D02*
Y1709235D01*
X1901780Y1702235D02*
Y1709235D01*
X1902780Y1702235D02*
Y1709235D01*
X1903780Y1702235D02*
Y1709235D01*
X1904780Y1702235D02*
Y1709235D01*
X1905780Y1702235D02*
Y1709235D01*
X1906780Y1702942D02*
Y1708528D01*
X1907780Y1703942D02*
Y1707528D01*
X2058780Y1683728D02*
Y1680142D01*
X2057072Y1678435*
X2045487*
X2043780Y1680142*
Y1683728*
X2045487Y1685435*
X2057072*
X2058780Y1683728*
X2045087Y1678835D02*
X2057472D01*
X2044087Y1679835D02*
X2058472D01*
X2043780Y1680835D02*
X2058780D01*
X2043780Y1681835D02*
X2058780D01*
X2043780Y1682835D02*
X2058780D01*
X2043887Y1683835D02*
X2058672D01*
X2044887Y1684835D02*
X2057672D01*
X2043780Y1680142D02*
Y1683728D01*
X2044780Y1679142D02*
Y1684728D01*
X2045780Y1678435D02*
Y1685435D01*
X2046780Y1678435D02*
Y1685435D01*
X2047780Y1678435D02*
Y1685435D01*
X2048780Y1678435D02*
Y1685435D01*
X2049780Y1678435D02*
Y1685435D01*
X2050780Y1678435D02*
Y1685435D01*
X2051780Y1678435D02*
Y1685435D01*
X2052780Y1678435D02*
Y1685435D01*
X2053780Y1678435D02*
Y1685435D01*
X2054780Y1678435D02*
Y1685435D01*
X2055780Y1678435D02*
Y1685435D01*
X2056780Y1678435D02*
Y1685435D01*
X2057780Y1679142D02*
Y1684728D01*
X2058780Y1680142D02*
Y1683728D01*
X1790780Y1687728D02*
Y1684142D01*
X1789072Y1682435*
X1777487*
X1775780Y1684142*
Y1687728*
X1777487Y1689435*
X1789072*
X1790780Y1687728*
X1777087Y1682835D02*
X1789472D01*
X1776087Y1683835D02*
X1790472D01*
X1775780Y1684835D02*
X1790780D01*
X1775780Y1685835D02*
X1790780D01*
X1775780Y1686835D02*
X1790780D01*
X1775887Y1687835D02*
X1790672D01*
X1776887Y1688835D02*
X1789672D01*
X1775780Y1684142D02*
Y1687728D01*
X1776780Y1683142D02*
Y1688728D01*
X1777780Y1682435D02*
Y1689435D01*
X1778780Y1682435D02*
Y1689435D01*
X1779780Y1682435D02*
Y1689435D01*
X1780780Y1682435D02*
Y1689435D01*
X1781780Y1682435D02*
Y1689435D01*
X1782780Y1682435D02*
Y1689435D01*
X1783780Y1682435D02*
Y1689435D01*
X1784780Y1682435D02*
Y1689435D01*
X1785780Y1682435D02*
Y1689435D01*
X1786780Y1682435D02*
Y1689435D01*
X1787780Y1682435D02*
Y1689435D01*
X1788780Y1682435D02*
Y1689435D01*
X1789780Y1683142D02*
Y1688728D01*
X1790780Y1684142D02*
Y1687728D01*
X2086780Y1525942D02*
Y1529528D01*
X2088487Y1531235*
X2100072*
X2101780Y1529528*
Y1525942*
X2100072Y1524235*
X2088487*
X2086780Y1525942*
X2087887Y1524835D02*
X2100672D01*
X2086887Y1525835D02*
X2101672D01*
X2086780Y1526835D02*
X2101780D01*
X2086780Y1527835D02*
X2101780D01*
X2086780Y1528835D02*
X2101780D01*
X2087087Y1529835D02*
X2101472D01*
X2088087Y1530835D02*
X2100472D01*
X2086780Y1525942D02*
Y1529528D01*
X2087780Y1524942D02*
Y1530528D01*
X2088780Y1524235D02*
Y1531235D01*
X2089780Y1524235D02*
Y1531235D01*
X2090780Y1524235D02*
Y1531235D01*
X2091780Y1524235D02*
Y1531235D01*
X2092780Y1524235D02*
Y1531235D01*
X2093780Y1524235D02*
Y1531235D01*
X2094780Y1524235D02*
Y1531235D01*
X2095780Y1524235D02*
Y1531235D01*
X2096780Y1524235D02*
Y1531235D01*
X2097780Y1524235D02*
Y1531235D01*
X2098780Y1524235D02*
Y1531235D01*
X2099780Y1524235D02*
Y1531235D01*
X2100780Y1524942D02*
Y1530528D01*
X2101780Y1525942D02*
Y1529528D01*
X2228346Y1422835D02*
G75*
G03X2236220Y1430709I0J7874D01*
G01Y1769291*
G03X2228346Y1777165I-7874J0*
G01X1771654*
G03X1763780Y1769291I-0J-7874*
G01Y1430709*
G03X1771654Y1422835I7874J-0*
G01X2228346*
X2226378Y1757480D02*
G03X2226378I-9843J0D01*
G01Y1442520D02*
G03X2226378I-9843J0D01*
G01X1793307D02*
G03X1793307I-9842J0D01*
G01Y1757480D02*
G03X1793307I-9842J0D01*
G54D12*
G01X2158780Y1501585D03*
Y1488085D03*
X2170780Y1531585D03*
Y1518085D03*
X2213780Y1518335D03*
Y1532335D03*
X2225780Y1545335D03*
Y1559335D03*
X2069780Y1511835D03*
Y1525835D03*
X2057780Y1511835D03*
Y1525835D03*
X2186530Y1555835D03*
X2200030D03*
X2194780Y1488085D03*
Y1501585D03*
X2214530Y1611835D03*
X2228030D03*
X2213780Y1719085D03*
Y1732585D03*
X2140030Y1611835D03*
X2126530D03*
X2136780Y1737585D03*
Y1724085D03*
X2170780Y1501835D03*
Y1487835D03*
X2124780Y1737835D03*
Y1723835D03*
X2092780Y1737835D03*
Y1723835D03*
X2201780Y1719835D03*
Y1733835D03*
X2168780Y1737835D03*
Y1723835D03*
X2146780Y1531835D03*
Y1517835D03*
X2158780Y1531835D03*
Y1517835D03*
X2225780Y1518335D03*
Y1532335D03*
X2182780Y1487835D03*
Y1501835D03*
X1878780Y1657085D03*
Y1643585D03*
G54D24*
G54D36*
X1929530Y1734335D03*
X1923030D03*
X1917530D03*
X1911030D03*
X1905530D03*
X1899030D03*
X1893530D03*
X1887030D03*
X1881530D03*
X1875030D03*
X2051780Y1476585D03*
Y1483085D03*
X2063780D03*
Y1476585D03*
X2015780Y1569585D03*
Y1576085D03*
X2003780Y1569585D03*
Y1576085D03*
X2045780Y1551585D03*
Y1558085D03*
X2021780Y1551585D03*
Y1558085D03*
Y1569585D03*
Y1576085D03*
X2015780Y1476585D03*
Y1483085D03*
X1979780Y1476585D03*
Y1483085D03*
X2027780D03*
Y1476585D03*
X2009780Y1569585D03*
Y1576085D03*
X1991780Y1483085D03*
Y1476585D03*
Y1569585D03*
Y1576085D03*
X1997780Y1569585D03*
Y1576085D03*
Y1551585D03*
Y1558085D03*
X2057780Y1483085D03*
Y1476585D03*
X2021780Y1483085D03*
Y1476585D03*
X1985780Y1483085D03*
Y1476585D03*
X1946530Y1476835D03*
X1953030D03*
X1825530Y1740335D03*
X1832030D03*
X1818530D03*
X1812030D03*
X1971280Y1739585D03*
Y1746085D03*
X1965280Y1739585D03*
Y1746085D03*
X1847280Y1598585D03*
Y1592085D03*
X1859280Y1598585D03*
Y1592085D03*
X1814280Y1598585D03*
Y1592085D03*
X1826280Y1598585D03*
Y1592085D03*
X1832780Y1577085D03*
Y1583585D03*
X1866280Y1577085D03*
Y1583585D03*
X1795780Y1577085D03*
Y1583585D03*
X2045780Y1575585D03*
Y1569085D03*
X2039530Y1649335D03*
X2046030D03*
X2039530Y1643335D03*
X2046030D03*
X1989280Y1739585D03*
Y1746085D03*
X1987280Y1689585D03*
Y1696085D03*
X1957280Y1689585D03*
Y1696085D03*
X2039780Y1575585D03*
Y1569085D03*
X2046030Y1667335D03*
X2039530D03*
X1981280Y1689585D03*
Y1696085D03*
X1951280Y1689585D03*
Y1696085D03*
X1983280Y1739585D03*
Y1746085D03*
X1853780Y1636085D03*
Y1629585D03*
X1835780Y1618085D03*
Y1611585D03*
X1847780Y1629585D03*
Y1636085D03*
X1841780Y1629585D03*
Y1636085D03*
X1823780Y1611585D03*
Y1618085D03*
X1955280Y1551585D03*
Y1558085D03*
X1974280Y1551585D03*
Y1558085D03*
X1964530Y1476835D03*
X1971030D03*
X1777280Y1592085D03*
Y1598585D03*
X1934280Y1551585D03*
Y1558085D03*
X1922530Y1476835D03*
X1929030D03*
X1789780Y1583585D03*
Y1577085D03*
X2033780Y1575585D03*
Y1569085D03*
X2195530Y1620835D03*
X2202030D03*
X1977280Y1746085D03*
Y1739585D03*
X2000780Y1746085D03*
Y1739585D03*
X2027780Y1689585D03*
Y1696085D03*
Y1710085D03*
Y1703585D03*
X2011780Y1746085D03*
Y1739585D03*
X2140030Y1621835D03*
X2146530D03*
X1841780Y1618085D03*
Y1611585D03*
X1853780Y1648085D03*
Y1641585D03*
X1911280Y1602585D03*
Y1596085D03*
X1829780Y1618085D03*
Y1611585D03*
X1817780Y1618085D03*
Y1611585D03*
X1911280Y1609585D03*
Y1616085D03*
X1871780Y1684085D03*
Y1677585D03*
X1835780Y1684085D03*
Y1677585D03*
X1835280Y1700585D03*
Y1707085D03*
X1955280Y1576085D03*
Y1569585D03*
X2039530Y1661335D03*
X2046030D03*
X2021780Y1696085D03*
Y1689585D03*
X2039530Y1655335D03*
X2046030D03*
X1900030Y1656335D03*
X1893530D03*
X1900030Y1644335D03*
X1893530D03*
X1985780Y1576085D03*
Y1569585D03*
X1979780Y1576085D03*
Y1569585D03*
X1963280Y1689585D03*
Y1696085D03*
X1969280Y1689585D03*
Y1696085D03*
X1949280Y1576085D03*
Y1569585D03*
X2015780Y1696085D03*
Y1689585D03*
X1900030Y1650335D03*
X1893530D03*
X1975280Y1689585D03*
Y1696085D03*
X1942280Y1576085D03*
Y1569585D03*
X1826780Y1577085D03*
Y1583585D03*
X1820280Y1598585D03*
Y1592085D03*
X1860280Y1577085D03*
Y1583585D03*
X1853280Y1598585D03*
Y1592085D03*
X2009780Y1689585D03*
Y1696085D03*
X2074780Y1563585D03*
Y1570085D03*
X2215780Y1569585D03*
Y1576085D03*
X2221780Y1569585D03*
Y1576085D03*
X2170030Y1560835D03*
X2163530D03*
Y1566835D03*
X2170030D03*
X2074780Y1558085D03*
Y1551585D03*
X2068780Y1558085D03*
Y1551585D03*
X2056780Y1558085D03*
Y1551585D03*
X2062780Y1563585D03*
Y1570085D03*
X2056780Y1563585D03*
Y1570085D03*
X2094530Y1471835D03*
X2101030D03*
X2170030Y1554835D03*
X2163530D03*
X1928280Y1558085D03*
Y1551585D03*
X1949280Y1558085D03*
Y1551585D03*
X2227780Y1569585D03*
Y1576085D03*
Y1581585D03*
Y1588085D03*
X2215780D03*
Y1581585D03*
X1922530Y1470835D03*
X1929030D03*
X1946530D03*
X1953030D03*
X2080780Y1563585D03*
Y1570085D03*
X1789280Y1598585D03*
Y1592085D03*
X2221780Y1581585D03*
Y1588085D03*
X1783280Y1598585D03*
Y1592085D03*
X2080780Y1558085D03*
Y1551585D03*
X2062780D03*
Y1558085D03*
X1964530Y1470835D03*
X1971030D03*
X1968280Y1558085D03*
Y1551585D03*
X2095280Y1611585D03*
Y1618085D03*
X2088780Y1611585D03*
Y1618085D03*
X2173280Y1611585D03*
Y1618085D03*
X2183780Y1611585D03*
Y1618085D03*
X1847780Y1684085D03*
Y1677585D03*
X1841780D03*
Y1684085D03*
X1859780D03*
Y1677585D03*
X1865780D03*
Y1684085D03*
X1881530Y1740335D03*
X1875030D03*
X1893530D03*
X1887030D03*
X1905530D03*
X1899030D03*
X1917530D03*
X1911030D03*
X1929530D03*
X1923030D03*
X1911030Y1728335D03*
X1917530D03*
X1875030D03*
X1881530D03*
X1887030D03*
X1893530D03*
X1923030D03*
X1929530D03*
X1899030D03*
X1905530D03*
X1853780Y1677585D03*
Y1684085D03*
G54D38*
X2043780Y1536835D03*
X2033780D03*
Y1500835D03*
X2043780D03*
X2020780Y1536835D03*
X2010780D03*
Y1500835D03*
X2020780D03*
X1999780Y1536835D03*
X1989780D03*
Y1500835D03*
X1999780D03*
X1968780D03*
X1978780D03*
Y1536835D03*
X1968780D03*
X1947780Y1500835D03*
X1957780D03*
Y1536835D03*
X1947780D03*
X1926780Y1500835D03*
X1936780D03*
Y1536835D03*
X1926780D03*
G54D39*
X2063817Y1468841D03*
X2052028D03*
X2027817D03*
X2016028D03*
X1991817D03*
X1980028D03*
G54D40*
X2057833Y1458290D03*
X2021833D03*
X1985833D03*
G54D41*
X2057933Y1467790D03*
X2021933D03*
X1985933D03*
G54D44*
X2075780Y1456961D03*
Y1472709D03*
X2039780Y1456961D03*
Y1472709D03*
X2003780Y1456961D03*
Y1472709D03*
X1899780Y1510961D03*
Y1526709D03*
X1913780Y1510961D03*
Y1526709D03*
X2146780Y1486961D03*
Y1502709D03*
G54D45*
X2201804Y1572810D03*
X2078804Y1581810D03*
G54D46*
X2201804Y1577810D03*
Y1582810D03*
Y1587810D03*
X2181804D03*
Y1582810D03*
Y1577810D03*
Y1572810D03*
X2078804Y1586810D03*
Y1591810D03*
Y1596810D03*
X2058804D03*
Y1591810D03*
Y1586810D03*
Y1581810D03*
G54D48*
X1860280Y1566835D03*
X1851280D03*
X1828280D03*
X1819280D03*
X1792280D03*
X1783280D03*
X2201780Y1611835D03*
X2192780D03*
X2153780D03*
X2162780D03*
X2113780Y1611335D03*
X2104780D03*
X2068280D03*
X2077280D03*
G54D49*
X1894780Y1588835D03*
Y1622835D03*
G54D50*
X2184479Y1545735D03*
Y1533935D03*
G54D51*
X2195030Y1539835D03*
G54D52*
X2185530D03*
G54D53*
X2147779Y1554835D03*
Y1564835D03*
Y1574835D03*
Y1584835D03*
X2104472D03*
Y1574835D03*
Y1564835D03*
Y1554835D03*
G54D54*
X2015750Y1729854D03*
X2010750D03*
X2005750D03*
X2000750D03*
X1995750D03*
X1990750D03*
X1985750D03*
X1980750D03*
Y1707854D03*
X1985750D03*
X1990750D03*
X1995750D03*
X2000750D03*
X2005750D03*
X2010750D03*
X2015750D03*
G54D55*
X1817755Y1632810D03*
G54D56*
X1822755D03*
X1827755D03*
X1832755D03*
Y1652810D03*
X1827755D03*
X1822755D03*
X1817755D03*
G54D57*
X1850295Y1710859D03*
G54D58*
X1850413Y1705859D03*
Y1700859D03*
Y1695859D03*
X1871082D03*
Y1700859D03*
Y1705859D03*
Y1710859D03*
G54D59*
X2154780Y1723835D03*
Y1737835D03*
X2186780D03*
Y1723835D03*
X2078780D03*
Y1737835D03*
X2110780D03*
Y1723835D03*
G54D60*
X2050780Y1740835D03*
X2036780D03*
X2050780Y1723835D03*
X2036780D03*
G54D63*
X1781780Y1617085D03*
G54D64*
Y1648585D03*
G54D65*
X1772280Y1729335D03*
X2180780Y1429835D03*
X2225780Y1730835D03*
G54D66*
X2060780Y1665835D03*
Y1656835D03*
G54D67*
X1929244Y1667283D03*
Y1665315D03*
Y1663346D03*
Y1661378D03*
Y1659409D03*
Y1657441D03*
Y1655472D03*
Y1653504D03*
Y1651535D03*
Y1649567D03*
Y1647598D03*
Y1645630D03*
Y1643661D03*
Y1641693D03*
Y1639724D03*
Y1637756D03*
Y1635787D03*
Y1633819D03*
Y1631850D03*
Y1629882D03*
Y1627913D03*
Y1625945D03*
Y1623976D03*
Y1622008D03*
Y1620039D03*
Y1618071D03*
Y1616102D03*
Y1614134D03*
Y1612165D03*
Y1610197D03*
Y1608228D03*
Y1606260D03*
Y1604291D03*
Y1602323D03*
Y1600354D03*
Y1598386D03*
X2012315D03*
Y1600354D03*
Y1602323D03*
Y1604291D03*
Y1606260D03*
Y1608228D03*
Y1610197D03*
Y1612165D03*
Y1614134D03*
Y1616102D03*
Y1618071D03*
Y1620039D03*
Y1622008D03*
Y1623976D03*
Y1625945D03*
Y1627913D03*
Y1629882D03*
Y1631850D03*
Y1633819D03*
Y1635787D03*
Y1637756D03*
Y1639724D03*
Y1641693D03*
Y1643661D03*
Y1645630D03*
Y1647598D03*
Y1649567D03*
Y1651535D03*
Y1653504D03*
Y1655472D03*
Y1657441D03*
Y1659409D03*
Y1661378D03*
Y1663346D03*
Y1665315D03*
Y1667283D03*
G54D68*
X1936331Y1591299D03*
X1938299D03*
X1940268D03*
X1942236D03*
X1944205D03*
X1946173D03*
X1948142D03*
X1950110D03*
X1952079D03*
X1954047D03*
X1956016D03*
X1957984D03*
X1959953D03*
X1961921D03*
X1963890D03*
X1965858D03*
X1967827D03*
X1969795D03*
X1971764D03*
X1973732D03*
X1975701D03*
X1977669D03*
X1979638D03*
X1981606D03*
X1983575D03*
X1985543D03*
X1987512D03*
X1989480D03*
X1991449D03*
X1993417D03*
X1995386D03*
X1997354D03*
X1999323D03*
X2001291D03*
X2003260D03*
X2005228D03*
Y1674370D03*
X2003260D03*
X2001291D03*
X1999323D03*
X1997354D03*
X1995386D03*
X1993417D03*
X1991449D03*
X1989480D03*
X1987512D03*
X1985543D03*
X1983575D03*
X1981606D03*
X1979638D03*
X1977669D03*
X1975701D03*
X1973732D03*
X1971764D03*
X1969795D03*
X1967827D03*
X1965858D03*
X1963890D03*
X1961921D03*
X1959953D03*
X1957984D03*
X1956016D03*
X1954047D03*
X1952079D03*
X1950110D03*
X1948142D03*
X1946173D03*
X1944205D03*
X1942236D03*
X1940268D03*
X1938299D03*
X1936331D03*
G54D71*
X1900280Y1679935D03*
X2051280Y1707735D03*
X1783280Y1711735D03*
X2094280Y1501935D03*
G54D72*
X1779906Y1554835D03*
X1795654D03*
X1815906D03*
X1831654D03*
X1847906D03*
X1863654D03*
G54D73*
X1814780Y1707071D03*
Y1686598D03*
X2217780Y1478598D03*
Y1499071D03*
G54D74*
X2182780Y1514585D03*
Y1523085D03*
X2213780Y1547085D03*
Y1555585D03*
X2193780Y1523085D03*
Y1514585D03*
X1920780Y1691585D03*
Y1700085D03*
G54D75*
X2165530Y1543835D03*
X2174030D03*
G54D76*
X2156043Y1464335D03*
X2176516D03*
G54D77*
X2056980Y1639335D03*
X2064480D03*
X1853580Y1584335D03*
X1846080D03*
X1783580Y1584835D03*
X1776080D03*
X1820580Y1584335D03*
X1813080D03*
X1989580Y1558835D03*
X1982080D03*
X2013580D03*
X2006080D03*
X2037580D03*
X2030080D03*
G54D78*
X2060780Y1647335D03*
X1849780Y1576335D03*
X1779780Y1576835D03*
X1816780Y1576335D03*
X1985780Y1550835D03*
X2009780D03*
X2033780D03*
G74*
X0Y0D02*
M02*
