*
*
G04 PADS 9.5 Build Number: 522968 generated Gerber (RS-274-X) file*
G04 PC Version=2.1*
*
%IN "MT-MacthCar V1.0.0 (2)."*%
*
%MOIN*%
*
%FSLAX35Y35*%
*
*
*
*
G04 PC Standard Apertures*
*
*
G04 Thermal Relief Aperture macro.*
%AMTER*
1,1,$1,0,0*
1,0,$1-$2,0,0*
21,0,$3,$4,0,0,45*
21,0,$3,$4,0,0,135*
%
*
*
G04 Annular Aperture macro.*
%AMANN*
1,1,$1,0,0*
1,0,$2,0,0*
%
*
*
G04 Odd Aperture macro.*
%AMODD*
1,1,$1,0,0*
1,0,$1-0.005,0,0*
%
*
*
G04 PC Custom Aperture Macros*
*
*
*
*
*
*
G04 PC Aperture Table*
*
%ADD010C,0.001*%
%ADD023C,0.01*%
%ADD066C,0.00787*%
*
*
*
*
G04 PC Circuitry*
G04 Layer Name MT-MacthCar V1.0.0 (2). - circuitry*
%LPD*%
*
*
G04 PC Custom Flashes*
G04 Layer Name MT-MacthCar V1.0.0 (2). - flashes*
%LPD*%
*
*
G04 PC Circuitry*
G04 Layer Name MT-MacthCar V1.0.0 (2). - circuitry*
%LPD*%
*
G54D10*
G54D23*
G01X1968045Y1840278D02*
X1976045D01*
Y1848278*
X1968045*
Y1840278*
X1972045Y1844278D02*
Y1848278D01*
X1968045Y1830278D02*
X1976045D01*
Y1838278*
X1968045*
Y1830278*
X1972045Y1834278D02*
Y1838278D01*
X1968045Y1820278D02*
X1976045D01*
Y1828278*
X1968045*
Y1820278*
X1972045Y1824278D02*
Y1828278D01*
X1968045Y1810278D02*
X1976045D01*
Y1818278*
X1968045*
Y1810278*
X1972045Y1814278D02*
Y1818278D01*
X1968045Y1800278D02*
X1976045D01*
Y1808278*
X1968045*
Y1800278*
X1972045Y1804278D02*
Y1808278D01*
X1968045Y1790278D02*
X1976045D01*
Y1798278*
X1968045*
Y1790278*
X1972045Y1794278D02*
Y1798278D01*
X2126281Y1316746D02*
X2134281D01*
X2126281Y1324746*
X2134281*
X2126281Y1316746*
X2155809Y1312809D02*
X2163809D01*
X2155809Y1320809*
X2163809*
X2155809Y1312809*
X2217045Y1328278D02*
X2225045Y1336278D01*
Y1328278*
X2217045Y1336278*
Y1328278*
Y1348278D02*
X2225045Y1356278D01*
Y1348278*
X2217045Y1356278*
Y1348278*
X1968045Y1767778D02*
X1976045D01*
Y1775778*
X1968045*
Y1767778*
X1972045Y1771778D02*
Y1775778D01*
X1968045Y1757778D02*
X1976045D01*
Y1765778*
X1968045*
Y1757778*
X1972045Y1761778D02*
Y1765778D01*
X1968045Y1747778D02*
X1976045D01*
Y1755778*
X1968045*
Y1747778*
X1972045Y1751778D02*
Y1755778D01*
X1968045Y1737778D02*
X1976045D01*
Y1745778*
X1968045*
Y1737778*
X1972045Y1741778D02*
Y1745778D01*
X1968045Y1719778D02*
X1976045D01*
X1972045Y1715778D02*
Y1723778D01*
X1974954Y1725059D02*
X1974045Y1721778D01*
X1974954Y1725059D02*
X1975863Y1721778D01*
X1974386Y1722871D02*
X1975523D01*
X1968045Y1709778D02*
X1976045D01*
X1972045Y1705778D02*
Y1713778D01*
X1974954Y1715059D02*
X1974045Y1711778D01*
X1974954Y1715059D02*
X1975863Y1711778D01*
X1974386Y1712871D02*
X1975523D01*
X2010565Y1341951D02*
X2018565D01*
X2010565Y1349951*
X2018565*
X2010565Y1341951*
Y1313604D02*
X2018565D01*
X2010565Y1321604*
X2018565*
X2010565Y1313604*
X2075526Y1341951D02*
X2083526D01*
X2075526Y1349951*
X2083526*
X2075526Y1341951*
Y1313604D02*
X2083526D01*
X2075526Y1321604*
X2083526*
X2075526Y1313604*
X1994301Y1546502D02*
X2002301D01*
X1998301Y1542502D02*
Y1550502D01*
X2000301Y1551783D02*
Y1548502D01*
Y1551783D02*
X2001324D01*
X2001665Y1551627*
X2001778Y1551471*
X2001892Y1551158*
Y1550846*
X2001778Y1550533*
X2001665Y1550377*
X2001324Y1550221*
X2000301D02*
X2001324D01*
X2001665Y1550064*
X2001778Y1549908*
X2001892Y1549596*
Y1549127*
X2001778Y1548814*
X2001665Y1548658*
X2001324Y1548502*
X2000301*
X1992333Y1387053D02*
X2000333D01*
X1996333Y1383053D02*
Y1391053D01*
X1998333Y1392334D02*
Y1389053D01*
Y1392334D02*
X1999355D01*
X1999696Y1392178*
X1999810Y1392022*
X1999924Y1391709*
Y1391397*
X1999810Y1391084*
X1999696Y1390928*
X1999355Y1390772*
X1998333D02*
X1999355D01*
X1999696Y1390616*
X1999810Y1390459*
X1999924Y1390147*
Y1389678*
X1999810Y1389366*
X1999696Y1389209*
X1999355Y1389053*
X1998333*
X2041545Y1387053D02*
X2049545D01*
X2045545Y1383053D02*
Y1391053D01*
X2047545Y1392334D02*
Y1389053D01*
Y1392334D02*
X2048568D01*
X2048909Y1392178*
X2049023Y1392022*
X2049136Y1391709*
Y1391397*
X2049023Y1391084*
X2048909Y1390928*
X2048568Y1390772*
X2047545D02*
X2048568D01*
X2048909Y1390616*
X2049023Y1390459*
X2049136Y1390147*
Y1389678*
X2049023Y1389366*
X2048909Y1389209*
X2048568Y1389053*
X2047545*
X2090758Y1387053D02*
X2098758D01*
X2094758Y1383053D02*
Y1391053D01*
X2096758Y1392334D02*
Y1389053D01*
Y1392334D02*
X2097781D01*
X2098122Y1392178*
X2098235Y1392022*
X2098349Y1391709*
Y1391397*
X2098235Y1391084*
X2098122Y1390928*
X2097781Y1390772*
X2096758D02*
X2097781D01*
X2098122Y1390616*
X2098235Y1390459*
X2098349Y1390147*
Y1389678*
X2098235Y1389366*
X2098122Y1389209*
X2097781Y1389053*
X2096758*
X2010049Y1546502D02*
X2018049D01*
X2014049Y1542502D02*
Y1550502D01*
X2016049Y1551783D02*
Y1548502D01*
Y1551783D02*
X2017072D01*
X2017413Y1551627*
X2017526Y1551471*
X2017640Y1551158*
Y1550846*
X2017526Y1550533*
X2017413Y1550377*
X2017072Y1550221*
X2016049D02*
X2017072D01*
X2017413Y1550064*
X2017526Y1549908*
X2017640Y1549596*
Y1549127*
X2017526Y1548814*
X2017413Y1548658*
X2017072Y1548502*
X2016049*
X2025797Y1546502D02*
X2033797D01*
X2029797Y1542502D02*
Y1550502D01*
X2031797Y1551783D02*
Y1548502D01*
Y1551783D02*
X2032820D01*
X2033161Y1551627*
X2033275Y1551471*
X2033388Y1551158*
Y1550846*
X2033275Y1550533*
X2033161Y1550377*
X2032820Y1550221*
X2031797D02*
X2032820D01*
X2033161Y1550064*
X2033275Y1549908*
X2033388Y1549596*
Y1549127*
X2033275Y1548814*
X2033161Y1548658*
X2032820Y1548502*
X2031797*
X2041545Y1546502D02*
X2049545D01*
X2045545Y1542502D02*
Y1550502D01*
X2047545Y1551783D02*
Y1548502D01*
Y1551783D02*
X2048568D01*
X2048909Y1551627*
X2049023Y1551471*
X2049136Y1551158*
Y1550846*
X2049023Y1550533*
X2048909Y1550377*
X2048568Y1550221*
X2047545D02*
X2048568D01*
X2048909Y1550064*
X2049023Y1549908*
X2049136Y1549596*
Y1549127*
X2049023Y1548814*
X2048909Y1548658*
X2048568Y1548502*
X2047545*
X2057293Y1546502D02*
X2065293D01*
X2061293Y1542502D02*
Y1550502D01*
X2063293Y1551783D02*
Y1548502D01*
Y1551783D02*
X2064316D01*
X2064657Y1551627*
X2064771Y1551471*
X2064884Y1551158*
Y1550846*
X2064771Y1550533*
X2064657Y1550377*
X2064316Y1550221*
X2063293D02*
X2064316D01*
X2064657Y1550064*
X2064771Y1549908*
X2064884Y1549596*
Y1549127*
X2064771Y1548814*
X2064657Y1548658*
X2064316Y1548502*
X2063293*
X2073041Y1546502D02*
X2081041D01*
X2077041Y1542502D02*
Y1550502D01*
X2079041Y1551783D02*
Y1548502D01*
Y1551783D02*
X2080064D01*
X2080405Y1551627*
X2080519Y1551471*
X2080632Y1551158*
Y1550846*
X2080519Y1550533*
X2080405Y1550377*
X2080064Y1550221*
X2079041D02*
X2080064D01*
X2080405Y1550064*
X2080519Y1549908*
X2080632Y1549596*
Y1549127*
X2080519Y1548814*
X2080405Y1548658*
X2080064Y1548502*
X2079041*
X2173045Y1345978D02*
X2181045D01*
X2177045Y1341978D02*
Y1349978D01*
X2180750Y1350478D02*
X2180636Y1350790D01*
X2180409Y1351103*
X2180182Y1351259*
X2179727*
X2179500Y1351103*
X2179273Y1350790*
X2179159Y1350478*
X2179045Y1350009*
Y1349228*
X2179159Y1348759*
X2179273Y1348446*
X2179500Y1348134*
X2179727Y1347978*
X2180182*
X2180409Y1348134*
X2180636Y1348446*
X2180750Y1348759*
X2094305Y1341978D02*
X2102305Y1349978D01*
Y1341978*
X2094305Y1349978*
Y1341978*
X2044551Y1704756D02*
X2052551D01*
X2048551Y1700756D02*
Y1708756D01*
X2050551Y1710038D02*
Y1706756D01*
Y1710038D02*
X2051347D01*
X2051688Y1709881*
X2051915Y1709569*
X2052029Y1709256*
X2052142Y1708788*
Y1708006*
X2052029Y1707538*
X2051915Y1707225*
X2051688Y1706913*
X2051347Y1706756*
X2050551*
X2049751Y1704856D02*
X2057751D01*
X2053751Y1700856D02*
Y1708856D01*
X2055751Y1710138D02*
Y1706856D01*
Y1710138D02*
X2056547D01*
X2056888Y1709981*
X2057115Y1709669*
X2057229Y1709356*
X2057342Y1708888*
Y1708106*
X2057229Y1707638*
X2057115Y1707325*
X2056888Y1707013*
X2056547Y1706856*
X2055751*
X2319136Y1409384D02*
X2327136D01*
X2323136Y1405384D02*
Y1413384D01*
X2325136Y1414665D02*
Y1411384D01*
Y1414665D02*
X2326613D01*
X2325136Y1413103D02*
X2326045D01*
X2325136Y1411384D02*
X2326613D01*
X2319136Y1384778D02*
X2327136D01*
X2323136Y1380778D02*
Y1388778D01*
X2325136Y1390059D02*
Y1386778D01*
Y1390059D02*
X2326613D01*
X2325136Y1388496D02*
X2326045D01*
X2325136Y1386778D02*
X2326613D01*
X2319136Y1360171D02*
X2327136D01*
X2323136Y1356171D02*
Y1364171D01*
X2325136Y1365453D02*
Y1362171D01*
Y1365453D02*
X2326613D01*
X2325136Y1363890D02*
X2326045D01*
X2325136Y1362171D02*
X2326613D01*
X2267955Y1409384D02*
X2275955D01*
X2271955Y1405384D02*
Y1413384D01*
X2273955Y1414665D02*
Y1411384D01*
Y1414665D02*
X2275432D01*
X2273955Y1413103D02*
X2274864D01*
X2273955Y1411384D02*
X2275432D01*
X2267955Y1384778D02*
X2275955D01*
X2271955Y1380778D02*
Y1388778D01*
X2273955Y1390059D02*
Y1386778D01*
Y1390059D02*
X2275432D01*
X2273955Y1388496D02*
X2274864D01*
X2273955Y1386778D02*
X2275432D01*
X2267955Y1360171D02*
X2275955D01*
X2271955Y1356171D02*
Y1364171D01*
X2273955Y1365453D02*
Y1362171D01*
Y1365453D02*
X2275432D01*
X2273955Y1363890D02*
X2274864D01*
X2273955Y1362171D02*
X2275432D01*
X2319136Y1501884D02*
X2327136D01*
X2323136Y1497884D02*
Y1505884D01*
X2325136Y1507165D02*
Y1503884D01*
Y1507165D02*
X2326613D01*
X2325136Y1505603D02*
X2326045D01*
X2325136Y1503884D02*
X2326613D01*
X2319136Y1477278D02*
X2327136D01*
X2323136Y1473278D02*
Y1481278D01*
X2325136Y1482559D02*
Y1479278D01*
Y1482559D02*
X2326613D01*
X2325136Y1480996D02*
X2326045D01*
X2325136Y1479278D02*
X2326613D01*
X2319136Y1452671D02*
X2327136D01*
X2323136Y1448671D02*
Y1456671D01*
X2325136Y1457953D02*
Y1454671D01*
Y1457953D02*
X2326613D01*
X2325136Y1456390D02*
X2326045D01*
X2325136Y1454671D02*
X2326613D01*
X2267955Y1501884D02*
X2275955D01*
X2271955Y1497884D02*
Y1505884D01*
X2273955Y1507165D02*
Y1503884D01*
Y1507165D02*
X2275432D01*
X2273955Y1505603D02*
X2274864D01*
X2273955Y1503884D02*
X2275432D01*
X2267955Y1477278D02*
X2275955D01*
X2271955Y1473278D02*
Y1481278D01*
X2273955Y1482559D02*
Y1479278D01*
Y1482559D02*
X2275432D01*
X2273955Y1480996D02*
X2274864D01*
X2273955Y1479278D02*
X2275432D01*
X2267955Y1452671D02*
X2275955D01*
X2271955Y1448671D02*
Y1456671D01*
X2273955Y1457953D02*
Y1454671D01*
Y1457953D02*
X2275432D01*
X2273955Y1456390D02*
X2274864D01*
X2273955Y1454671D02*
X2275432D01*
X2319136Y1594384D02*
X2327136D01*
X2323136Y1590384D02*
Y1598384D01*
X2325136Y1599665D02*
Y1596384D01*
Y1599665D02*
X2326613D01*
X2325136Y1598103D02*
X2326045D01*
X2325136Y1596384D02*
X2326613D01*
X2319136Y1569778D02*
X2327136D01*
X2323136Y1565778D02*
Y1573778D01*
X2325136Y1575059D02*
Y1571778D01*
Y1575059D02*
X2326613D01*
X2325136Y1573496D02*
X2326045D01*
X2325136Y1571778D02*
X2326613D01*
X2319136Y1545171D02*
X2327136D01*
X2323136Y1541171D02*
Y1549171D01*
X2325136Y1550453D02*
Y1547171D01*
Y1550453D02*
X2326613D01*
X2325136Y1548890D02*
X2326045D01*
X2325136Y1547171D02*
X2326613D01*
X2267955Y1594384D02*
X2275955D01*
X2271955Y1590384D02*
Y1598384D01*
X2273955Y1599665D02*
Y1596384D01*
Y1599665D02*
X2275432D01*
X2273955Y1598103D02*
X2274864D01*
X2273955Y1596384D02*
X2275432D01*
X2267955Y1569778D02*
X2275955D01*
X2271955Y1565778D02*
Y1573778D01*
X2273955Y1575059D02*
Y1571778D01*
Y1575059D02*
X2275432D01*
X2273955Y1573496D02*
X2274864D01*
X2273955Y1571778D02*
X2275432D01*
X2267955Y1545171D02*
X2275955D01*
X2271955Y1541171D02*
Y1549171D01*
X2273955Y1550453D02*
Y1547171D01*
Y1550453D02*
X2275432D01*
X2273955Y1548890D02*
X2274864D01*
X2273955Y1547171D02*
X2275432D01*
X2319136Y1686884D02*
X2327136D01*
X2323136Y1682884D02*
Y1690884D01*
X2325136Y1692165D02*
Y1688884D01*
Y1692165D02*
X2326613D01*
X2325136Y1690603D02*
X2326045D01*
X2325136Y1688884D02*
X2326613D01*
X2319136Y1662278D02*
X2327136D01*
X2323136Y1658278D02*
Y1666278D01*
X2325136Y1667559D02*
Y1664278D01*
Y1667559D02*
X2326613D01*
X2325136Y1665996D02*
X2326045D01*
X2325136Y1664278D02*
X2326613D01*
X2319136Y1637671D02*
X2327136D01*
X2323136Y1633671D02*
Y1641671D01*
X2325136Y1642953D02*
Y1639671D01*
Y1642953D02*
X2326613D01*
X2325136Y1641390D02*
X2326045D01*
X2325136Y1639671D02*
X2326613D01*
X2267955Y1686884D02*
X2275955D01*
X2271955Y1682884D02*
Y1690884D01*
X2273955Y1692165D02*
Y1688884D01*
Y1692165D02*
X2275432D01*
X2273955Y1690603D02*
X2274864D01*
X2273955Y1688884D02*
X2275432D01*
X2267955Y1662278D02*
X2275955D01*
X2271955Y1658278D02*
Y1666278D01*
X2273955Y1667559D02*
Y1664278D01*
Y1667559D02*
X2275432D01*
X2273955Y1665996D02*
X2274864D01*
X2273955Y1664278D02*
X2275432D01*
X2267955Y1637671D02*
X2275955D01*
X2271955Y1633671D02*
Y1641671D01*
X2273955Y1642953D02*
Y1639671D01*
Y1642953D02*
X2275432D01*
X2273955Y1641390D02*
X2274864D01*
X2273955Y1639671D02*
X2275432D01*
X2317045Y1794778D02*
X2325045D01*
X2321045Y1790778D02*
Y1798778D01*
X2323045Y1800059D02*
Y1796778D01*
Y1800059D02*
X2324523D01*
X2323045Y1798496D02*
X2323954D01*
X2317045Y1809778D02*
X2325045D01*
X2321045Y1805778D02*
Y1813778D01*
X2323045Y1815059D02*
Y1811778D01*
Y1815059D02*
X2324523D01*
X2323045Y1813496D02*
X2323954D01*
X2317045Y1824778D02*
X2325045D01*
X2321045Y1820778D02*
Y1828778D01*
X2323045Y1830059D02*
Y1826778D01*
Y1830059D02*
X2324523D01*
X2323045Y1828496D02*
X2323954D01*
X2317045Y1839778D02*
X2325045D01*
X2321045Y1835778D02*
Y1843778D01*
X2323045Y1845059D02*
Y1841778D01*
Y1845059D02*
X2324523D01*
X2323045Y1843496D02*
X2323954D01*
X2282045Y1880778D02*
X2290045D01*
X2286045Y1876778D02*
Y1884778D01*
X2288045Y1886059D02*
Y1882778D01*
Y1886059D02*
X2289523D01*
X2288045Y1884496D02*
X2288954D01*
X2267045Y1880778D02*
X2275045D01*
X2271045Y1876778D02*
Y1884778D01*
X2273045Y1886059D02*
Y1882778D01*
Y1886059D02*
X2274523D01*
X2273045Y1884496D02*
X2273954D01*
X2252045Y1880778D02*
X2260045D01*
X2256045Y1876778D02*
Y1884778D01*
X2258045Y1886059D02*
Y1882778D01*
Y1886059D02*
X2259523D01*
X2258045Y1884496D02*
X2258954D01*
X2237045Y1880778D02*
X2245045D01*
X2241045Y1876778D02*
Y1884778D01*
X2243045Y1886059D02*
Y1882778D01*
Y1886059D02*
X2244523D01*
X2243045Y1884496D02*
X2243954D01*
X2059545Y1881778D02*
X2067545D01*
X2063545Y1877778D02*
Y1885778D01*
X2065545Y1887059D02*
Y1883778D01*
Y1887059D02*
X2067023D01*
X2065545Y1885496D02*
X2066454D01*
X2044545Y1881778D02*
X2052545D01*
X2048545Y1877778D02*
Y1885778D01*
X2050545Y1887059D02*
Y1883778D01*
Y1887059D02*
X2052023D01*
X2050545Y1885496D02*
X2051454D01*
X2029545Y1881778D02*
X2037545D01*
X2033545Y1877778D02*
Y1885778D01*
X2035545Y1887059D02*
Y1883778D01*
Y1887059D02*
X2037023D01*
X2035545Y1885496D02*
X2036454D01*
X2014545Y1881778D02*
X2022545D01*
X2018545Y1877778D02*
Y1885778D01*
X2020545Y1887059D02*
Y1883778D01*
Y1887059D02*
X2022023D01*
X2020545Y1885496D02*
X2021454D01*
X2117045Y1881778D02*
X2125045D01*
Y1889778*
X2117045*
Y1881778*
X2121045Y1885778D02*
Y1889778D01*
X2107045Y1881778D02*
X2115045D01*
Y1889778*
X2107045*
Y1881778*
X2111045Y1885778D02*
Y1889778D01*
X2097045Y1881778D02*
X2105045D01*
Y1889778*
X2097045*
Y1881778*
X2101045Y1885778D02*
Y1889778D01*
X2087045Y1881778D02*
X2095045D01*
Y1889778*
X2087045*
Y1881778*
X2091045Y1885778D02*
Y1889778D01*
X2066045Y1849778D02*
X2074045D01*
X2070045Y1845778D02*
Y1853778D01*
X2073750Y1854278D02*
X2073636Y1854590D01*
X2073409Y1854903*
X2073182Y1855059*
X2072727*
X2072500Y1854903*
X2072273Y1854590*
X2072159Y1854278*
X2072045Y1853809*
Y1853028*
X2072159Y1852559*
X2072273Y1852246*
X2072500Y1851934*
X2072727Y1851778*
X2073182*
X2073409Y1851934*
X2073636Y1852246*
X2073750Y1852559*
Y1853028*
X2073182D02*
X2073750D01*
X2066045Y1839778D02*
X2074045D01*
X2070045Y1835778D02*
Y1843778D01*
X2073750Y1844278D02*
X2073636Y1844590D01*
X2073409Y1844903*
X2073182Y1845059*
X2072727*
X2072500Y1844903*
X2072273Y1844590*
X2072159Y1844278*
X2072045Y1843809*
Y1843028*
X2072159Y1842559*
X2072273Y1842246*
X2072500Y1841934*
X2072727Y1841778*
X2073182*
X2073409Y1841934*
X2073636Y1842246*
X2073750Y1842559*
Y1843028*
X2073182D02*
X2073750D01*
X2084045Y1849778D02*
X2092045D01*
X2088045Y1845778D02*
Y1853778D01*
X2091750Y1854278D02*
X2091636Y1854590D01*
X2091409Y1854903*
X2091182Y1855059*
X2090727*
X2090500Y1854903*
X2090273Y1854590*
X2090159Y1854278*
X2090045Y1853809*
Y1853028*
X2090159Y1852559*
X2090273Y1852246*
X2090500Y1851934*
X2090727Y1851778*
X2091182*
X2091409Y1851934*
X2091636Y1852246*
X2091750Y1852559*
Y1853028*
X2091182D02*
X2091750D01*
X2084045Y1839778D02*
X2092045D01*
X2088045Y1835778D02*
Y1843778D01*
X2091750Y1844278D02*
X2091636Y1844590D01*
X2091409Y1844903*
X2091182Y1845059*
X2090727*
X2090500Y1844903*
X2090273Y1844590*
X2090159Y1844278*
X2090045Y1843809*
Y1843028*
X2090159Y1842559*
X2090273Y1842246*
X2090500Y1841934*
X2090727Y1841778*
X2091182*
X2091409Y1841934*
X2091636Y1842246*
X2091750Y1842559*
Y1843028*
X2091182D02*
X2091750D01*
X2102045Y1849778D02*
X2110045D01*
X2106045Y1845778D02*
Y1853778D01*
X2109750Y1854278D02*
X2109636Y1854590D01*
X2109409Y1854903*
X2109182Y1855059*
X2108727*
X2108500Y1854903*
X2108273Y1854590*
X2108159Y1854278*
X2108045Y1853809*
Y1853028*
X2108159Y1852559*
X2108273Y1852246*
X2108500Y1851934*
X2108727Y1851778*
X2109182*
X2109409Y1851934*
X2109636Y1852246*
X2109750Y1852559*
Y1853028*
X2109182D02*
X2109750D01*
X2102045Y1839778D02*
X2110045D01*
X2106045Y1835778D02*
Y1843778D01*
X2109750Y1844278D02*
X2109636Y1844590D01*
X2109409Y1844903*
X2109182Y1845059*
X2108727*
X2108500Y1844903*
X2108273Y1844590*
X2108159Y1844278*
X2108045Y1843809*
Y1843028*
X2108159Y1842559*
X2108273Y1842246*
X2108500Y1841934*
X2108727Y1841778*
X2109182*
X2109409Y1841934*
X2109636Y1842246*
X2109750Y1842559*
Y1843028*
X2109182D02*
X2109750D01*
X2147325Y1582699D02*
X2155325D01*
X2151325Y1578699D02*
Y1586699D01*
X2153325Y1587980D02*
Y1584699D01*
X2154916Y1587980D02*
Y1584699D01*
X2153325Y1586418D02*
X2154916D01*
X2147325Y1622856D02*
X2155325D01*
X2151325Y1618856D02*
Y1626856D01*
X2153325Y1628138D02*
Y1624856D01*
X2154916Y1628138D02*
Y1624856D01*
X2153325Y1626575D02*
X2154916D01*
X2207167Y1567738D02*
X2215167D01*
X2211167Y1563738D02*
Y1571738D01*
X2213167Y1573019D02*
Y1569738D01*
X2197167Y1637817D02*
X2205167D01*
X2201167Y1633817D02*
Y1641817D01*
X2203167Y1643098D02*
Y1639817D01*
X2147325Y1401699D02*
X2155325D01*
X2151325Y1397699D02*
Y1405699D01*
X2153325Y1406980D02*
Y1403699D01*
X2154916Y1406980D02*
Y1403699D01*
X2153325Y1405418D02*
X2154916D01*
X2147325Y1441856D02*
X2155325D01*
X2151325Y1437856D02*
Y1445856D01*
X2153325Y1447138D02*
Y1443856D01*
X2154916Y1447138D02*
Y1443856D01*
X2153325Y1445575D02*
X2154916D01*
X2207167Y1386738D02*
X2215167D01*
X2211167Y1382738D02*
Y1390738D01*
X2213167Y1392019D02*
Y1388738D01*
X2197167Y1456817D02*
X2205167D01*
X2201167Y1452817D02*
Y1460817D01*
X2203167Y1462098D02*
Y1458817D01*
X1978730Y1324463D02*
X1986730D01*
X1982730Y1320463D02*
Y1328463D01*
X1985867Y1329744D02*
Y1327244D01*
X1985753Y1326775*
X1985639Y1326619*
X1985412Y1326463*
X1985185*
X1984958Y1326619*
X1984844Y1326775*
X1984730Y1327244*
Y1327556*
X1978762Y1332869D02*
X1986762D01*
X1982762Y1328869D02*
Y1336869D01*
X1984762Y1338151D02*
Y1334869D01*
X1986353Y1338151D02*
X1984762Y1335963D01*
X1985330Y1336744D02*
X1986353Y1334869D01*
X1987162Y1324470D02*
X1995162D01*
X1991162Y1320470D02*
Y1328470D01*
X1993162Y1329752D02*
Y1326470D01*
X1994753Y1329752D02*
X1993162Y1327564D01*
X1993730Y1328345D02*
X1994753Y1326470D01*
X1978717Y1315980D02*
X1986717D01*
X1982717Y1311980D02*
Y1319980D01*
X1984717Y1321261D02*
Y1317980D01*
X1986308Y1321261D02*
X1984717Y1319073D01*
X1985285Y1319855D02*
X1986308Y1317980D01*
X1970272Y1324470D02*
X1978272D01*
X1974272Y1320470D02*
Y1328470D01*
X1976272Y1329752D02*
Y1326470D01*
X1977863Y1329752D02*
X1976272Y1327564D01*
X1976841Y1328345D02*
X1977863Y1326470D01*
X1984802Y1330296D02*
X1992802D01*
X1988802Y1326296D02*
Y1334296D01*
X1990802Y1335577D02*
Y1332296D01*
X1992393Y1335577D02*
X1990802Y1333390D01*
X1991371Y1334171D02*
X1992393Y1332296D01*
X1972635Y1330341D02*
X1980635D01*
X1976635Y1326341D02*
Y1334341D01*
X1978635Y1335622D02*
Y1332341D01*
X1980225Y1335622D02*
X1978635Y1333434D01*
X1979203Y1334216D02*
X1980225Y1332341D01*
X1972498Y1318854D02*
X1980498D01*
X1976498Y1314854D02*
Y1322854D01*
X1978498Y1324135D02*
Y1320854D01*
X1980089Y1324135D02*
X1978498Y1321947D01*
X1979066Y1322729D02*
X1980089Y1320854D01*
X1985126Y1318953D02*
X1993126D01*
X1989126Y1314953D02*
Y1322953D01*
X1991126Y1324234D02*
Y1320953D01*
X1992717Y1324234D02*
X1991126Y1322047D01*
X1991694Y1322828D02*
X1992717Y1320953D01*
X1970545Y1358278D02*
X1978545D01*
X1974545Y1354278D02*
Y1362278D01*
X1976545Y1363559D02*
Y1360278D01*
X1977909*
X2207045Y1360778D02*
X2215045D01*
X2211045Y1356778D02*
Y1364778D01*
X2213045Y1366059D02*
Y1362778D01*
X2214409*
X2201045Y1360778D02*
X2209045D01*
X2205045Y1356778D02*
Y1364778D01*
X2207045Y1366059D02*
Y1362778D01*
X2208409*
X2207045Y1366778D02*
X2215045D01*
X2211045Y1362778D02*
Y1370778D01*
X2213045Y1372059D02*
Y1368778D01*
X2214409*
X2201045Y1366778D02*
X2209045D01*
X2205045Y1362778D02*
Y1370778D01*
X2207045Y1372059D02*
Y1368778D01*
X2208409*
X2201045Y1378778D02*
X2209045D01*
X2205045Y1374778D02*
Y1382778D01*
X2207045Y1384059D02*
Y1380778D01*
X2208409*
X2201045Y1354778D02*
X2209045D01*
X2205045Y1350778D02*
Y1358778D01*
X2207045Y1360059D02*
Y1356778D01*
X2208409*
X2207045Y1354778D02*
X2215045D01*
X2211045Y1350778D02*
Y1358778D01*
X2213045Y1360059D02*
Y1356778D01*
X2214409*
X2207045Y1372778D02*
X2215045D01*
X2211045Y1368778D02*
Y1376778D01*
X2213045Y1378059D02*
Y1374778D01*
X2214409*
X2201045Y1372778D02*
X2209045D01*
X2205045Y1368778D02*
Y1376778D01*
X2207045Y1378059D02*
Y1374778D01*
X2208409*
X2243045Y1360778D02*
X2251045D01*
X2247045Y1356778D02*
Y1364778D01*
X2249045Y1366059D02*
Y1362778D01*
X2250409*
X2237045Y1360778D02*
X2245045D01*
X2241045Y1356778D02*
Y1364778D01*
X2243045Y1366059D02*
Y1362778D01*
X2244409*
X2231045Y1360778D02*
X2239045D01*
X2235045Y1356778D02*
Y1364778D01*
X2237045Y1366059D02*
Y1362778D01*
X2238409*
X2225045Y1360778D02*
X2233045D01*
X2229045Y1356778D02*
Y1364778D01*
X2231045Y1366059D02*
Y1362778D01*
X2232409*
X2219045Y1360778D02*
X2227045D01*
X2223045Y1356778D02*
Y1364778D01*
X2225045Y1366059D02*
Y1362778D01*
X2226409*
X2213045Y1360778D02*
X2221045D01*
X2217045Y1356778D02*
Y1364778D01*
X2219045Y1366059D02*
Y1362778D01*
X2220409*
X2243045Y1366778D02*
X2251045D01*
X2247045Y1362778D02*
Y1370778D01*
X2249045Y1372059D02*
Y1368778D01*
X2250409*
X2237045Y1366778D02*
X2245045D01*
X2241045Y1362778D02*
Y1370778D01*
X2243045Y1372059D02*
Y1368778D01*
X2244409*
X2231045Y1366778D02*
X2239045D01*
X2235045Y1362778D02*
Y1370778D01*
X2237045Y1372059D02*
Y1368778D01*
X2238409*
X2225045Y1366778D02*
X2233045D01*
X2229045Y1362778D02*
Y1370778D01*
X2231045Y1372059D02*
Y1368778D01*
X2232409*
X2219045Y1366778D02*
X2227045D01*
X2223045Y1362778D02*
Y1370778D01*
X2225045Y1372059D02*
Y1368778D01*
X2226409*
X2213045Y1366778D02*
X2221045D01*
X2217045Y1362778D02*
Y1370778D01*
X2219045Y1372059D02*
Y1368778D01*
X2220409*
X2243045Y1378778D02*
X2251045D01*
X2247045Y1374778D02*
Y1382778D01*
X2249045Y1384059D02*
Y1380778D01*
X2250409*
X2237045Y1378778D02*
X2245045D01*
X2241045Y1374778D02*
Y1382778D01*
X2243045Y1384059D02*
Y1380778D01*
X2244409*
X2231045Y1378778D02*
X2239045D01*
X2235045Y1374778D02*
Y1382778D01*
X2237045Y1384059D02*
Y1380778D01*
X2238409*
X2213045Y1378778D02*
X2221045D01*
X2217045Y1374778D02*
Y1382778D01*
X2219045Y1384059D02*
Y1380778D01*
X2220409*
X2225045Y1378778D02*
X2233045D01*
X2229045Y1374778D02*
Y1382778D01*
X2231045Y1384059D02*
Y1380778D01*
X2232409*
X2219045Y1378778D02*
X2227045D01*
X2223045Y1374778D02*
Y1382778D01*
X2225045Y1384059D02*
Y1380778D01*
X2226409*
X2243045Y1384778D02*
X2251045D01*
X2247045Y1380778D02*
Y1388778D01*
X2249045Y1390059D02*
Y1386778D01*
X2250409*
X2237045Y1384778D02*
X2245045D01*
X2241045Y1380778D02*
Y1388778D01*
X2243045Y1390059D02*
Y1386778D01*
X2244409*
X2231045Y1384778D02*
X2239045D01*
X2235045Y1380778D02*
Y1388778D01*
X2237045Y1390059D02*
Y1386778D01*
X2238409*
X2225045Y1384778D02*
X2233045D01*
X2229045Y1380778D02*
Y1388778D01*
X2231045Y1390059D02*
Y1386778D01*
X2232409*
X2219045Y1384778D02*
X2227045D01*
X2223045Y1380778D02*
Y1388778D01*
X2225045Y1390059D02*
Y1386778D01*
X2226409*
X2231045Y1354778D02*
X2239045D01*
X2235045Y1350778D02*
Y1358778D01*
X2237045Y1360059D02*
Y1356778D01*
X2238409*
X2225045Y1354778D02*
X2233045D01*
X2229045Y1350778D02*
Y1358778D01*
X2231045Y1360059D02*
Y1356778D01*
X2232409*
X2237045Y1354778D02*
X2245045D01*
X2241045Y1350778D02*
Y1358778D01*
X2243045Y1360059D02*
Y1356778D01*
X2244409*
X2243045Y1354778D02*
X2251045D01*
X2247045Y1350778D02*
Y1358778D01*
X2249045Y1360059D02*
Y1356778D01*
X2250409*
X2243045Y1372778D02*
X2251045D01*
X2247045Y1368778D02*
Y1376778D01*
X2249045Y1378059D02*
Y1374778D01*
X2250409*
X2237045Y1372778D02*
X2245045D01*
X2241045Y1368778D02*
Y1376778D01*
X2243045Y1378059D02*
Y1374778D01*
X2244409*
X2231045Y1372778D02*
X2239045D01*
X2235045Y1368778D02*
Y1376778D01*
X2237045Y1378059D02*
Y1374778D01*
X2238409*
X2225045Y1372778D02*
X2233045D01*
X2229045Y1368778D02*
Y1376778D01*
X2231045Y1378059D02*
Y1374778D01*
X2232409*
X2219045Y1372778D02*
X2227045D01*
X2223045Y1368778D02*
Y1376778D01*
X2225045Y1378059D02*
Y1374778D01*
X2226409*
X2213045Y1372778D02*
X2221045D01*
X2217045Y1368778D02*
Y1376778D01*
X2219045Y1378059D02*
Y1374778D01*
X2220409*
X2285045Y1360778D02*
X2293045D01*
X2289045Y1356778D02*
Y1364778D01*
X2291045Y1366059D02*
Y1362778D01*
X2292409*
X2279045Y1360778D02*
X2287045D01*
X2283045Y1356778D02*
Y1364778D01*
X2285045Y1366059D02*
Y1362778D01*
X2286409*
X2255045Y1360778D02*
X2263045D01*
X2259045Y1356778D02*
Y1364778D01*
X2261045Y1366059D02*
Y1362778D01*
X2262409*
X2249045Y1360778D02*
X2257045D01*
X2253045Y1356778D02*
Y1364778D01*
X2255045Y1366059D02*
Y1362778D01*
X2256409*
X2285045Y1366778D02*
X2293045D01*
X2289045Y1362778D02*
Y1370778D01*
X2291045Y1372059D02*
Y1368778D01*
X2292409*
X2279045Y1366778D02*
X2287045D01*
X2283045Y1362778D02*
Y1370778D01*
X2285045Y1372059D02*
Y1368778D01*
X2286409*
X2255045Y1366778D02*
X2263045D01*
X2259045Y1362778D02*
Y1370778D01*
X2261045Y1372059D02*
Y1368778D01*
X2262409*
X2249045Y1366778D02*
X2257045D01*
X2253045Y1362778D02*
Y1370778D01*
X2255045Y1372059D02*
Y1368778D01*
X2256409*
X2279045Y1378778D02*
X2287045D01*
X2283045Y1374778D02*
Y1382778D01*
X2285045Y1384059D02*
Y1380778D01*
X2286409*
X2279045Y1384778D02*
X2287045D01*
X2283045Y1380778D02*
Y1388778D01*
X2285045Y1390059D02*
Y1386778D01*
X2286409*
X2255045Y1378778D02*
X2263045D01*
X2259045Y1374778D02*
Y1382778D01*
X2261045Y1384059D02*
Y1380778D01*
X2262409*
X2249045Y1378778D02*
X2257045D01*
X2253045Y1374778D02*
Y1382778D01*
X2255045Y1384059D02*
Y1380778D01*
X2256409*
X2255045Y1384778D02*
X2263045D01*
X2259045Y1380778D02*
Y1388778D01*
X2261045Y1390059D02*
Y1386778D01*
X2262409*
X2249045Y1384778D02*
X2257045D01*
X2253045Y1380778D02*
Y1388778D01*
X2255045Y1390059D02*
Y1386778D01*
X2256409*
X2279045Y1354778D02*
X2287045D01*
X2283045Y1350778D02*
Y1358778D01*
X2285045Y1360059D02*
Y1356778D01*
X2286409*
X2285045Y1354778D02*
X2293045D01*
X2289045Y1350778D02*
Y1358778D01*
X2291045Y1360059D02*
Y1356778D01*
X2292409*
X2255045Y1354778D02*
X2263045D01*
X2259045Y1350778D02*
Y1358778D01*
X2261045Y1360059D02*
Y1356778D01*
X2262409*
X2249045Y1354778D02*
X2257045D01*
X2253045Y1350778D02*
Y1358778D01*
X2255045Y1360059D02*
Y1356778D01*
X2256409*
X2285045Y1372778D02*
X2293045D01*
X2289045Y1368778D02*
Y1376778D01*
X2291045Y1378059D02*
Y1374778D01*
X2292409*
X2279045Y1372778D02*
X2287045D01*
X2283045Y1368778D02*
Y1376778D01*
X2285045Y1378059D02*
Y1374778D01*
X2286409*
X2273045Y1372778D02*
X2281045D01*
X2277045Y1368778D02*
Y1376778D01*
X2279045Y1378059D02*
Y1374778D01*
X2280409*
X2267045Y1372778D02*
X2275045D01*
X2271045Y1368778D02*
Y1376778D01*
X2273045Y1378059D02*
Y1374778D01*
X2274409*
X2261045Y1372778D02*
X2269045D01*
X2265045Y1368778D02*
Y1376778D01*
X2267045Y1378059D02*
Y1374778D01*
X2268409*
X2255045Y1372778D02*
X2263045D01*
X2259045Y1368778D02*
Y1376778D01*
X2261045Y1378059D02*
Y1374778D01*
X2262409*
X2249045Y1372778D02*
X2257045D01*
X2253045Y1368778D02*
Y1376778D01*
X2255045Y1378059D02*
Y1374778D01*
X2256409*
X2327045Y1350778D02*
X2335045Y1358778D01*
X2327045D02*
X2335045Y1350778D01*
X2327045Y1354778D02*
X2335045Y1362778D01*
X2327045D02*
X2335045Y1354778D01*
X2327045Y1358778D02*
X2335045Y1366778D01*
X2327045D02*
X2335045Y1358778D01*
X2327045Y1362778D02*
X2335045Y1370778D01*
X2327045D02*
X2335045Y1362778D01*
X2327045Y1374778D02*
X2335045Y1382778D01*
X2327045D02*
X2335045Y1374778D01*
X2327045Y1378778D02*
X2335045Y1386778D01*
X2327045D02*
X2335045Y1378778D01*
X2327045Y1382778D02*
X2335045Y1390778D01*
X2327045D02*
X2335045Y1382778D01*
X2309045Y1360778D02*
X2317045D01*
X2313045Y1356778D02*
Y1364778D01*
X2315045Y1366059D02*
Y1362778D01*
X2316409*
X2303045Y1360778D02*
X2311045D01*
X2307045Y1356778D02*
Y1364778D01*
X2309045Y1366059D02*
Y1362778D01*
X2310409*
X2297045Y1360778D02*
X2305045D01*
X2301045Y1356778D02*
Y1364778D01*
X2303045Y1366059D02*
Y1362778D01*
X2304409*
X2291045Y1360778D02*
X2299045D01*
X2295045Y1356778D02*
Y1364778D01*
X2297045Y1366059D02*
Y1362778D01*
X2298409*
X2309045Y1366778D02*
X2317045D01*
X2313045Y1362778D02*
Y1370778D01*
X2315045Y1372059D02*
Y1368778D01*
X2316409*
X2303045Y1366778D02*
X2311045D01*
X2307045Y1362778D02*
Y1370778D01*
X2309045Y1372059D02*
Y1368778D01*
X2310409*
X2297045Y1366778D02*
X2305045D01*
X2301045Y1362778D02*
Y1370778D01*
X2303045Y1372059D02*
Y1368778D01*
X2304409*
X2291045Y1366778D02*
X2299045D01*
X2295045Y1362778D02*
Y1370778D01*
X2297045Y1372059D02*
Y1368778D01*
X2298409*
X2297045Y1372778D02*
X2305045D01*
X2301045Y1368778D02*
Y1376778D01*
X2303045Y1378059D02*
Y1374778D01*
X2304409*
X2291045Y1372778D02*
X2299045D01*
X2295045Y1368778D02*
Y1376778D01*
X2297045Y1378059D02*
Y1374778D01*
X2298409*
X2291045Y1354778D02*
X2299045D01*
X2295045Y1350778D02*
Y1358778D01*
X2297045Y1360059D02*
Y1356778D01*
X2298409*
X2297045Y1354778D02*
X2305045D01*
X2301045Y1350778D02*
Y1358778D01*
X2303045Y1360059D02*
Y1356778D01*
X2304409*
X2303045Y1354778D02*
X2311045D01*
X2307045Y1350778D02*
Y1358778D01*
X2309045Y1360059D02*
Y1356778D01*
X2310409*
X2309045Y1354778D02*
X2317045D01*
X2313045Y1350778D02*
Y1358778D01*
X2315045Y1360059D02*
Y1356778D01*
X2316409*
X2309045Y1384778D02*
X2317045D01*
X2313045Y1380778D02*
Y1388778D01*
X2315045Y1390059D02*
Y1386778D01*
X2316409*
X2309045Y1378778D02*
X2317045D01*
X2313045Y1374778D02*
Y1382778D01*
X2315045Y1384059D02*
Y1380778D01*
X2316409*
X2327045Y1372778D02*
X2335045D01*
X2331045Y1368778D02*
Y1376778D01*
X2333045Y1378059D02*
Y1374778D01*
X2334409*
X2321045Y1372778D02*
X2329045D01*
X2325045Y1368778D02*
Y1376778D01*
X2327045Y1378059D02*
Y1374778D01*
X2328409*
X2315045Y1372778D02*
X2323045D01*
X2319045Y1368778D02*
Y1376778D01*
X2321045Y1378059D02*
Y1374778D01*
X2322409*
X2309045Y1372778D02*
X2317045D01*
X2313045Y1368778D02*
Y1376778D01*
X2315045Y1378059D02*
Y1374778D01*
X2316409*
X2303045Y1372778D02*
X2311045D01*
X2307045Y1368778D02*
Y1376778D01*
X2309045Y1378059D02*
Y1374778D01*
X2310409*
X2207045Y1396778D02*
X2215045D01*
X2211045Y1392778D02*
Y1400778D01*
X2213045Y1402059D02*
Y1398778D01*
X2214409*
X2201045Y1396778D02*
X2209045D01*
X2205045Y1392778D02*
Y1400778D01*
X2207045Y1402059D02*
Y1398778D01*
X2208409*
X2207045Y1408778D02*
X2215045D01*
X2211045Y1404778D02*
Y1412778D01*
X2213045Y1414059D02*
Y1410778D01*
X2214409*
X2201045Y1408778D02*
X2209045D01*
X2205045Y1404778D02*
Y1412778D01*
X2207045Y1414059D02*
Y1410778D01*
X2208409*
X2207045Y1414778D02*
X2215045D01*
X2211045Y1410778D02*
Y1418778D01*
X2213045Y1420059D02*
Y1416778D01*
X2214409*
X2201045Y1414778D02*
X2209045D01*
X2205045Y1410778D02*
Y1418778D01*
X2207045Y1420059D02*
Y1416778D01*
X2208409*
X2201045Y1402778D02*
X2209045D01*
X2205045Y1398778D02*
Y1406778D01*
X2207045Y1408059D02*
Y1404778D01*
X2208409*
X2207045Y1402778D02*
X2215045D01*
X2211045Y1398778D02*
Y1406778D01*
X2213045Y1408059D02*
Y1404778D01*
X2214409*
X2243045Y1396778D02*
X2251045D01*
X2247045Y1392778D02*
Y1400778D01*
X2249045Y1402059D02*
Y1398778D01*
X2250409*
X2237045Y1396778D02*
X2245045D01*
X2241045Y1392778D02*
Y1400778D01*
X2243045Y1402059D02*
Y1398778D01*
X2244409*
X2231045Y1396778D02*
X2239045D01*
X2235045Y1392778D02*
Y1400778D01*
X2237045Y1402059D02*
Y1398778D01*
X2238409*
X2225045Y1396778D02*
X2233045D01*
X2229045Y1392778D02*
Y1400778D01*
X2231045Y1402059D02*
Y1398778D01*
X2232409*
X2219045Y1396778D02*
X2227045D01*
X2223045Y1392778D02*
Y1400778D01*
X2225045Y1402059D02*
Y1398778D01*
X2226409*
X2213045Y1396778D02*
X2221045D01*
X2217045Y1392778D02*
Y1400778D01*
X2219045Y1402059D02*
Y1398778D01*
X2220409*
X2243045Y1408778D02*
X2251045D01*
X2247045Y1404778D02*
Y1412778D01*
X2249045Y1414059D02*
Y1410778D01*
X2250409*
X2237045Y1408778D02*
X2245045D01*
X2241045Y1404778D02*
Y1412778D01*
X2243045Y1414059D02*
Y1410778D01*
X2244409*
X2231045Y1408778D02*
X2239045D01*
X2235045Y1404778D02*
Y1412778D01*
X2237045Y1414059D02*
Y1410778D01*
X2238409*
X2225045Y1408778D02*
X2233045D01*
X2229045Y1404778D02*
Y1412778D01*
X2231045Y1414059D02*
Y1410778D01*
X2232409*
X2219045Y1408778D02*
X2227045D01*
X2223045Y1404778D02*
Y1412778D01*
X2225045Y1414059D02*
Y1410778D01*
X2226409*
X2213045Y1408778D02*
X2221045D01*
X2217045Y1404778D02*
Y1412778D01*
X2219045Y1414059D02*
Y1410778D01*
X2220409*
X2243045Y1414778D02*
X2251045D01*
X2247045Y1410778D02*
Y1418778D01*
X2249045Y1420059D02*
Y1416778D01*
X2250409*
X2237045Y1414778D02*
X2245045D01*
X2241045Y1410778D02*
Y1418778D01*
X2243045Y1420059D02*
Y1416778D01*
X2244409*
X2231045Y1414778D02*
X2239045D01*
X2235045Y1410778D02*
Y1418778D01*
X2237045Y1420059D02*
Y1416778D01*
X2238409*
X2225045Y1414778D02*
X2233045D01*
X2229045Y1410778D02*
Y1418778D01*
X2231045Y1420059D02*
Y1416778D01*
X2232409*
X2219045Y1414778D02*
X2227045D01*
X2223045Y1410778D02*
Y1418778D01*
X2225045Y1420059D02*
Y1416778D01*
X2226409*
X2213045Y1414778D02*
X2221045D01*
X2217045Y1410778D02*
Y1418778D01*
X2219045Y1420059D02*
Y1416778D01*
X2220409*
X2219045Y1390778D02*
X2227045D01*
X2223045Y1386778D02*
Y1394778D01*
X2225045Y1396059D02*
Y1392778D01*
X2226409*
X2225045Y1390778D02*
X2233045D01*
X2229045Y1386778D02*
Y1394778D01*
X2231045Y1396059D02*
Y1392778D01*
X2232409*
X2231045Y1390778D02*
X2239045D01*
X2235045Y1386778D02*
Y1394778D01*
X2237045Y1396059D02*
Y1392778D01*
X2238409*
X2237045Y1390778D02*
X2245045D01*
X2241045Y1386778D02*
Y1394778D01*
X2243045Y1396059D02*
Y1392778D01*
X2244409*
X2243045Y1390778D02*
X2251045D01*
X2247045Y1386778D02*
Y1394778D01*
X2249045Y1396059D02*
Y1392778D01*
X2250409*
X2213045Y1402778D02*
X2221045D01*
X2217045Y1398778D02*
Y1406778D01*
X2219045Y1408059D02*
Y1404778D01*
X2220409*
X2219045Y1402778D02*
X2227045D01*
X2223045Y1398778D02*
Y1406778D01*
X2225045Y1408059D02*
Y1404778D01*
X2226409*
X2225045Y1402778D02*
X2233045D01*
X2229045Y1398778D02*
Y1406778D01*
X2231045Y1408059D02*
Y1404778D01*
X2232409*
X2231045Y1402778D02*
X2239045D01*
X2235045Y1398778D02*
Y1406778D01*
X2237045Y1408059D02*
Y1404778D01*
X2238409*
X2237045Y1402778D02*
X2245045D01*
X2241045Y1398778D02*
Y1406778D01*
X2243045Y1408059D02*
Y1404778D01*
X2244409*
X2243045Y1402778D02*
X2251045D01*
X2247045Y1398778D02*
Y1406778D01*
X2249045Y1408059D02*
Y1404778D01*
X2250409*
X2279045Y1390778D02*
X2287045D01*
X2283045Y1386778D02*
Y1394778D01*
X2285045Y1396059D02*
Y1392778D01*
X2286409*
X2255045Y1396778D02*
X2263045D01*
X2259045Y1392778D02*
Y1400778D01*
X2261045Y1402059D02*
Y1398778D01*
X2262409*
X2249045Y1396778D02*
X2257045D01*
X2253045Y1392778D02*
Y1400778D01*
X2255045Y1402059D02*
Y1398778D01*
X2256409*
X2255045Y1408778D02*
X2263045D01*
X2259045Y1404778D02*
Y1412778D01*
X2261045Y1414059D02*
Y1410778D01*
X2262409*
X2249045Y1408778D02*
X2257045D01*
X2253045Y1404778D02*
Y1412778D01*
X2255045Y1414059D02*
Y1410778D01*
X2256409*
X2283045Y1408778D02*
X2291045D01*
X2287045Y1404778D02*
Y1412778D01*
X2289045Y1414059D02*
Y1410778D01*
X2290409*
X2277045Y1408778D02*
X2285045D01*
X2281045Y1404778D02*
Y1412778D01*
X2283045Y1414059D02*
Y1410778D01*
X2284409*
X2283045Y1414778D02*
X2291045D01*
X2287045Y1410778D02*
Y1418778D01*
X2289045Y1420059D02*
Y1416778D01*
X2290409*
X2277045Y1414778D02*
X2285045D01*
X2281045Y1410778D02*
Y1418778D01*
X2283045Y1420059D02*
Y1416778D01*
X2284409*
X2255045Y1414778D02*
X2263045D01*
X2259045Y1410778D02*
Y1418778D01*
X2261045Y1420059D02*
Y1416778D01*
X2262409*
X2249045Y1414778D02*
X2257045D01*
X2253045Y1410778D02*
Y1418778D01*
X2255045Y1420059D02*
Y1416778D01*
X2256409*
X2277045Y1402778D02*
X2285045D01*
X2281045Y1398778D02*
Y1406778D01*
X2283045Y1408059D02*
Y1404778D01*
X2284409*
X2283045Y1402778D02*
X2291045D01*
X2287045Y1398778D02*
Y1406778D01*
X2289045Y1408059D02*
Y1404778D01*
X2290409*
X2287045Y1396778D02*
X2295045D01*
X2291045Y1392778D02*
Y1400778D01*
X2293045Y1402059D02*
Y1398778D01*
X2294409*
X2281045Y1396778D02*
X2289045D01*
X2285045Y1392778D02*
Y1400778D01*
X2287045Y1402059D02*
Y1398778D01*
X2288409*
X2275045Y1396778D02*
X2283045D01*
X2279045Y1392778D02*
Y1400778D01*
X2281045Y1402059D02*
Y1398778D01*
X2282409*
X2269045Y1396778D02*
X2277045D01*
X2273045Y1392778D02*
Y1400778D01*
X2275045Y1402059D02*
Y1398778D01*
X2276409*
X2263045Y1396778D02*
X2271045D01*
X2267045Y1392778D02*
Y1400778D01*
X2269045Y1402059D02*
Y1398778D01*
X2270409*
X2249045Y1390778D02*
X2257045D01*
X2253045Y1386778D02*
Y1394778D01*
X2255045Y1396059D02*
Y1392778D01*
X2256409*
X2255045Y1390778D02*
X2263045D01*
X2259045Y1386778D02*
Y1394778D01*
X2261045Y1396059D02*
Y1392778D01*
X2262409*
X2249045Y1402778D02*
X2257045D01*
X2253045Y1398778D02*
Y1406778D01*
X2255045Y1408059D02*
Y1404778D01*
X2256409*
X2255045Y1402778D02*
X2263045D01*
X2259045Y1398778D02*
Y1406778D01*
X2261045Y1408059D02*
Y1404778D01*
X2262409*
X2327045Y1398778D02*
X2335045Y1406778D01*
X2327045D02*
X2335045Y1398778D01*
X2327045Y1402778D02*
X2335045Y1410778D01*
X2327045D02*
X2335045Y1402778D01*
X2327045Y1406778D02*
X2335045Y1414778D01*
X2327045D02*
X2335045Y1406778D01*
X2327045Y1410778D02*
X2335045Y1418778D01*
X2327045D02*
X2335045Y1410778D01*
X2327045Y1386778D02*
X2335045Y1394778D01*
X2327045D02*
X2335045Y1386778D01*
X2307045Y1408778D02*
X2315045D01*
X2311045Y1404778D02*
Y1412778D01*
X2313045Y1414059D02*
Y1410778D01*
X2314409*
X2301045Y1408778D02*
X2309045D01*
X2305045Y1404778D02*
Y1412778D01*
X2307045Y1414059D02*
Y1410778D01*
X2308409*
X2295045Y1408778D02*
X2303045D01*
X2299045Y1404778D02*
Y1412778D01*
X2301045Y1414059D02*
Y1410778D01*
X2302409*
X2289045Y1408778D02*
X2297045D01*
X2293045Y1404778D02*
Y1412778D01*
X2295045Y1414059D02*
Y1410778D01*
X2296409*
X2307045Y1414778D02*
X2315045D01*
X2311045Y1410778D02*
Y1418778D01*
X2313045Y1420059D02*
Y1416778D01*
X2314409*
X2301045Y1414778D02*
X2309045D01*
X2305045Y1410778D02*
Y1418778D01*
X2307045Y1420059D02*
Y1416778D01*
X2308409*
X2295045Y1414778D02*
X2303045D01*
X2299045Y1410778D02*
Y1418778D01*
X2301045Y1420059D02*
Y1416778D01*
X2302409*
X2289045Y1414778D02*
X2297045D01*
X2293045Y1410778D02*
Y1418778D01*
X2295045Y1420059D02*
Y1416778D01*
X2296409*
X2289045Y1402778D02*
X2297045D01*
X2293045Y1398778D02*
Y1406778D01*
X2295045Y1408059D02*
Y1404778D01*
X2296409*
X2295045Y1402778D02*
X2303045D01*
X2299045Y1398778D02*
Y1406778D01*
X2301045Y1408059D02*
Y1404778D01*
X2302409*
X2301045Y1402778D02*
X2309045D01*
X2305045Y1398778D02*
Y1406778D01*
X2307045Y1408059D02*
Y1404778D01*
X2308409*
X2307045Y1402778D02*
X2315045D01*
X2311045Y1398778D02*
Y1406778D01*
X2313045Y1408059D02*
Y1404778D01*
X2314409*
X2327045Y1396778D02*
X2335045D01*
X2331045Y1392778D02*
Y1400778D01*
X2333045Y1402059D02*
Y1398778D01*
X2334409*
X2321045Y1396778D02*
X2329045D01*
X2325045Y1392778D02*
Y1400778D01*
X2327045Y1402059D02*
Y1398778D01*
X2328409*
X2315045Y1396778D02*
X2323045D01*
X2319045Y1392778D02*
Y1400778D01*
X2321045Y1402059D02*
Y1398778D01*
X2322409*
X2309045Y1396778D02*
X2317045D01*
X2313045Y1392778D02*
Y1400778D01*
X2315045Y1402059D02*
Y1398778D01*
X2316409*
X2301045Y1396778D02*
X2309045D01*
X2305045Y1392778D02*
Y1400778D01*
X2307045Y1402059D02*
Y1398778D01*
X2308409*
X2309045Y1390778D02*
X2317045D01*
X2313045Y1386778D02*
Y1394778D01*
X2315045Y1396059D02*
Y1392778D01*
X2316409*
X2207045Y1452778D02*
X2215045D01*
X2211045Y1448778D02*
Y1456778D01*
X2213045Y1458059D02*
Y1454778D01*
X2214409*
X2203045Y1446778D02*
X2211045D01*
X2207045Y1442778D02*
Y1450778D01*
X2209045Y1452059D02*
Y1448778D01*
X2210409*
X2197045Y1446778D02*
X2205045D01*
X2201045Y1442778D02*
Y1450778D01*
X2203045Y1452059D02*
Y1448778D01*
X2204409*
X2191045Y1446778D02*
X2199045D01*
X2195045Y1442778D02*
Y1450778D01*
X2197045Y1452059D02*
Y1448778D01*
X2198409*
X2207045Y1458778D02*
X2215045D01*
X2211045Y1454778D02*
Y1462778D01*
X2213045Y1464059D02*
Y1460778D01*
X2214409*
X2205045Y1464778D02*
X2213045D01*
X2209045Y1460778D02*
Y1468778D01*
X2211045Y1470059D02*
Y1466778D01*
X2212409*
X2245045Y1446778D02*
X2253045D01*
X2249045Y1442778D02*
Y1450778D01*
X2251045Y1452059D02*
Y1448778D01*
X2252409*
X2239045Y1446778D02*
X2247045D01*
X2243045Y1442778D02*
Y1450778D01*
X2245045Y1452059D02*
Y1448778D01*
X2246409*
X2233045Y1446778D02*
X2241045D01*
X2237045Y1442778D02*
Y1450778D01*
X2239045Y1452059D02*
Y1448778D01*
X2240409*
X2227045Y1446778D02*
X2235045D01*
X2231045Y1442778D02*
Y1450778D01*
X2233045Y1452059D02*
Y1448778D01*
X2234409*
X2221045Y1446778D02*
X2229045D01*
X2225045Y1442778D02*
Y1450778D01*
X2227045Y1452059D02*
Y1448778D01*
X2228409*
X2243045Y1452778D02*
X2251045D01*
X2247045Y1448778D02*
Y1456778D01*
X2249045Y1458059D02*
Y1454778D01*
X2250409*
X2243045Y1458778D02*
X2251045D01*
X2247045Y1454778D02*
Y1462778D01*
X2249045Y1464059D02*
Y1460778D01*
X2250409*
X2237045Y1458778D02*
X2245045D01*
X2241045Y1454778D02*
Y1462778D01*
X2243045Y1464059D02*
Y1460778D01*
X2244409*
X2237045Y1452778D02*
X2245045D01*
X2241045Y1448778D02*
Y1456778D01*
X2243045Y1458059D02*
Y1454778D01*
X2244409*
X2231045Y1452778D02*
X2239045D01*
X2235045Y1448778D02*
Y1456778D01*
X2237045Y1458059D02*
Y1454778D01*
X2238409*
X2225045Y1452778D02*
X2233045D01*
X2229045Y1448778D02*
Y1456778D01*
X2231045Y1458059D02*
Y1454778D01*
X2232409*
X2219045Y1452778D02*
X2227045D01*
X2223045Y1448778D02*
Y1456778D01*
X2225045Y1458059D02*
Y1454778D01*
X2226409*
X2213045Y1452778D02*
X2221045D01*
X2217045Y1448778D02*
Y1456778D01*
X2219045Y1458059D02*
Y1454778D01*
X2220409*
X2215045Y1446778D02*
X2223045D01*
X2219045Y1442778D02*
Y1450778D01*
X2221045Y1452059D02*
Y1448778D01*
X2222409*
X2209045Y1446778D02*
X2217045D01*
X2213045Y1442778D02*
Y1450778D01*
X2215045Y1452059D02*
Y1448778D01*
X2216409*
X2231045Y1458778D02*
X2239045D01*
X2235045Y1454778D02*
Y1462778D01*
X2237045Y1464059D02*
Y1460778D01*
X2238409*
X2225045Y1458778D02*
X2233045D01*
X2229045Y1454778D02*
Y1462778D01*
X2231045Y1464059D02*
Y1460778D01*
X2232409*
X2219045Y1458778D02*
X2227045D01*
X2223045Y1454778D02*
Y1462778D01*
X2225045Y1464059D02*
Y1460778D01*
X2226409*
X2213045Y1458778D02*
X2221045D01*
X2217045Y1454778D02*
Y1462778D01*
X2219045Y1464059D02*
Y1460778D01*
X2220409*
X2247045Y1464778D02*
X2255045D01*
X2251045Y1460778D02*
Y1468778D01*
X2253045Y1470059D02*
Y1466778D01*
X2254409*
X2241045Y1464778D02*
X2249045D01*
X2245045Y1460778D02*
Y1468778D01*
X2247045Y1470059D02*
Y1466778D01*
X2248409*
X2235045Y1464778D02*
X2243045D01*
X2239045Y1460778D02*
Y1468778D01*
X2241045Y1470059D02*
Y1466778D01*
X2242409*
X2229045Y1464778D02*
X2237045D01*
X2233045Y1460778D02*
Y1468778D01*
X2235045Y1470059D02*
Y1466778D01*
X2236409*
X2223045Y1464778D02*
X2231045D01*
X2227045Y1460778D02*
Y1468778D01*
X2229045Y1470059D02*
Y1466778D01*
X2230409*
X2217045Y1464778D02*
X2225045D01*
X2221045Y1460778D02*
Y1468778D01*
X2223045Y1470059D02*
Y1466778D01*
X2224409*
X2211045Y1464778D02*
X2219045D01*
X2215045Y1460778D02*
Y1468778D01*
X2217045Y1470059D02*
Y1466778D01*
X2218409*
X2283045Y1446778D02*
X2291045D01*
X2287045Y1442778D02*
Y1450778D01*
X2289045Y1452059D02*
Y1448778D01*
X2290409*
X2277045Y1446778D02*
X2285045D01*
X2281045Y1442778D02*
Y1450778D01*
X2283045Y1452059D02*
Y1448778D01*
X2284409*
X2283045Y1452778D02*
X2291045D01*
X2287045Y1448778D02*
Y1456778D01*
X2289045Y1458059D02*
Y1454778D01*
X2290409*
X2277045Y1452778D02*
X2285045D01*
X2281045Y1448778D02*
Y1456778D01*
X2283045Y1458059D02*
Y1454778D01*
X2284409*
X2283045Y1458778D02*
X2291045D01*
X2287045Y1454778D02*
Y1462778D01*
X2289045Y1464059D02*
Y1460778D01*
X2290409*
X2277045Y1458778D02*
X2285045D01*
X2281045Y1454778D02*
Y1462778D01*
X2283045Y1464059D02*
Y1460778D01*
X2284409*
X2283045Y1464778D02*
X2291045D01*
X2287045Y1460778D02*
Y1468778D01*
X2289045Y1470059D02*
Y1466778D01*
X2290409*
X2277045Y1464778D02*
X2285045D01*
X2281045Y1460778D02*
Y1468778D01*
X2283045Y1470059D02*
Y1466778D01*
X2284409*
X2257045Y1446778D02*
X2265045D01*
X2261045Y1442778D02*
Y1450778D01*
X2263045Y1452059D02*
Y1448778D01*
X2264409*
X2251045Y1446778D02*
X2259045D01*
X2255045Y1442778D02*
Y1450778D01*
X2257045Y1452059D02*
Y1448778D01*
X2258409*
X2255045Y1452778D02*
X2263045D01*
X2259045Y1448778D02*
Y1456778D01*
X2261045Y1458059D02*
Y1454778D01*
X2262409*
X2255045Y1458778D02*
X2263045D01*
X2259045Y1454778D02*
Y1462778D01*
X2261045Y1464059D02*
Y1460778D01*
X2262409*
X2249045Y1452778D02*
X2257045D01*
X2253045Y1448778D02*
Y1456778D01*
X2255045Y1458059D02*
Y1454778D01*
X2256409*
X2249045Y1458778D02*
X2257045D01*
X2253045Y1454778D02*
Y1462778D01*
X2255045Y1464059D02*
Y1460778D01*
X2256409*
X2265045Y1464778D02*
X2273045D01*
X2269045Y1460778D02*
Y1468778D01*
X2271045Y1470059D02*
Y1466778D01*
X2272409*
X2271045Y1464778D02*
X2279045D01*
X2275045Y1460778D02*
Y1468778D01*
X2277045Y1470059D02*
Y1466778D01*
X2278409*
X2259045Y1464778D02*
X2267045D01*
X2263045Y1460778D02*
Y1468778D01*
X2265045Y1470059D02*
Y1466778D01*
X2266409*
X2253045Y1464778D02*
X2261045D01*
X2257045Y1460778D02*
Y1468778D01*
X2259045Y1470059D02*
Y1466778D01*
X2260409*
X2327045Y1442778D02*
X2335045Y1450778D01*
X2327045D02*
X2335045Y1442778D01*
X2327045Y1446778D02*
X2335045Y1454778D01*
X2327045D02*
X2335045Y1446778D01*
X2327045Y1450778D02*
X2335045Y1458778D01*
X2327045D02*
X2335045Y1450778D01*
X2327045Y1454778D02*
X2335045Y1462778D01*
X2327045D02*
X2335045Y1454778D01*
X2309045Y1446778D02*
X2317045D01*
X2313045Y1442778D02*
Y1450778D01*
X2315045Y1452059D02*
Y1448778D01*
X2316409*
X2301045Y1446778D02*
X2309045D01*
X2305045Y1442778D02*
Y1450778D01*
X2307045Y1452059D02*
Y1448778D01*
X2308409*
X2295045Y1446778D02*
X2303045D01*
X2299045Y1442778D02*
Y1450778D01*
X2301045Y1452059D02*
Y1448778D01*
X2302409*
X2289045Y1446778D02*
X2297045D01*
X2293045Y1442778D02*
Y1450778D01*
X2295045Y1452059D02*
Y1448778D01*
X2296409*
X2309045Y1452778D02*
X2317045D01*
X2313045Y1448778D02*
Y1456778D01*
X2315045Y1458059D02*
Y1454778D01*
X2316409*
X2301045Y1452778D02*
X2309045D01*
X2305045Y1448778D02*
Y1456778D01*
X2307045Y1458059D02*
Y1454778D01*
X2308409*
X2295045Y1452778D02*
X2303045D01*
X2299045Y1448778D02*
Y1456778D01*
X2301045Y1458059D02*
Y1454778D01*
X2302409*
X2289045Y1452778D02*
X2297045D01*
X2293045Y1448778D02*
Y1456778D01*
X2295045Y1458059D02*
Y1454778D01*
X2296409*
X2307045Y1458778D02*
X2315045D01*
X2311045Y1454778D02*
Y1462778D01*
X2313045Y1464059D02*
Y1460778D01*
X2314409*
X2301045Y1458778D02*
X2309045D01*
X2305045Y1454778D02*
Y1462778D01*
X2307045Y1464059D02*
Y1460778D01*
X2308409*
X2295045Y1458778D02*
X2303045D01*
X2299045Y1454778D02*
Y1462778D01*
X2301045Y1464059D02*
Y1460778D01*
X2302409*
X2289045Y1458778D02*
X2297045D01*
X2293045Y1454778D02*
Y1462778D01*
X2295045Y1464059D02*
Y1460778D01*
X2296409*
X2325045Y1464778D02*
X2333045D01*
X2329045Y1460778D02*
Y1468778D01*
X2331045Y1470059D02*
Y1466778D01*
X2332409*
X2319045Y1464778D02*
X2327045D01*
X2323045Y1460778D02*
Y1468778D01*
X2325045Y1470059D02*
Y1466778D01*
X2326409*
X2313045Y1464778D02*
X2321045D01*
X2317045Y1460778D02*
Y1468778D01*
X2319045Y1470059D02*
Y1466778D01*
X2320409*
X2307045Y1464778D02*
X2315045D01*
X2311045Y1460778D02*
Y1468778D01*
X2313045Y1470059D02*
Y1466778D01*
X2314409*
X2301045Y1464778D02*
X2309045D01*
X2305045Y1460778D02*
Y1468778D01*
X2307045Y1470059D02*
Y1466778D01*
X2308409*
X2295045Y1464778D02*
X2303045D01*
X2299045Y1460778D02*
Y1468778D01*
X2301045Y1470059D02*
Y1466778D01*
X2302409*
X2289045Y1464778D02*
X2297045D01*
X2293045Y1460778D02*
Y1468778D01*
X2295045Y1470059D02*
Y1466778D01*
X2296409*
X2203045Y1470778D02*
X2211045D01*
X2207045Y1466778D02*
Y1474778D01*
X2209045Y1476059D02*
Y1472778D01*
X2210409*
X2197045Y1470778D02*
X2205045D01*
X2201045Y1466778D02*
Y1474778D01*
X2203045Y1476059D02*
Y1472778D01*
X2204409*
X2191045Y1470778D02*
X2199045D01*
X2195045Y1466778D02*
Y1474778D01*
X2197045Y1476059D02*
Y1472778D01*
X2198409*
X2203045Y1476778D02*
X2211045D01*
X2207045Y1472778D02*
Y1480778D01*
X2209045Y1482059D02*
Y1478778D01*
X2210409*
X2197045Y1476778D02*
X2205045D01*
X2201045Y1472778D02*
Y1480778D01*
X2203045Y1482059D02*
Y1478778D01*
X2204409*
X2191045Y1476778D02*
X2199045D01*
X2195045Y1472778D02*
Y1480778D01*
X2197045Y1482059D02*
Y1478778D01*
X2198409*
X2203045Y1482778D02*
X2211045D01*
X2207045Y1478778D02*
Y1486778D01*
X2209045Y1488059D02*
Y1484778D01*
X2210409*
X2197045Y1482778D02*
X2205045D01*
X2201045Y1478778D02*
Y1486778D01*
X2203045Y1488059D02*
Y1484778D01*
X2204409*
X2191045Y1482778D02*
X2199045D01*
X2195045Y1478778D02*
Y1486778D01*
X2197045Y1488059D02*
Y1484778D01*
X2198409*
X2203045Y1488778D02*
X2211045D01*
X2207045Y1484778D02*
Y1492778D01*
X2209045Y1494059D02*
Y1490778D01*
X2210409*
X2197045Y1488778D02*
X2205045D01*
X2201045Y1484778D02*
Y1492778D01*
X2203045Y1494059D02*
Y1490778D01*
X2204409*
X2191045Y1488778D02*
X2199045D01*
X2195045Y1484778D02*
Y1492778D01*
X2197045Y1494059D02*
Y1490778D01*
X2198409*
X2203045Y1494778D02*
X2211045D01*
X2207045Y1490778D02*
Y1498778D01*
X2209045Y1500059D02*
Y1496778D01*
X2210409*
X2197045Y1494778D02*
X2205045D01*
X2201045Y1490778D02*
Y1498778D01*
X2203045Y1500059D02*
Y1496778D01*
X2204409*
X2191045Y1494778D02*
X2199045D01*
X2195045Y1490778D02*
Y1498778D01*
X2197045Y1500059D02*
Y1496778D01*
X2198409*
X2191045Y1500778D02*
X2199045D01*
X2195045Y1496778D02*
Y1504778D01*
X2197045Y1506059D02*
Y1502778D01*
X2198409*
X2197045Y1500778D02*
X2205045D01*
X2201045Y1496778D02*
Y1504778D01*
X2203045Y1506059D02*
Y1502778D01*
X2204409*
X2203045Y1500778D02*
X2211045D01*
X2207045Y1496778D02*
Y1504778D01*
X2209045Y1506059D02*
Y1502778D01*
X2210409*
X2197045Y1506778D02*
X2205045D01*
X2201045Y1502778D02*
Y1510778D01*
X2203045Y1512059D02*
Y1508778D01*
X2204409*
X2191045Y1506778D02*
X2199045D01*
X2195045Y1502778D02*
Y1510778D01*
X2197045Y1512059D02*
Y1508778D01*
X2198409*
X2203045Y1506778D02*
X2211045D01*
X2207045Y1502778D02*
Y1510778D01*
X2209045Y1512059D02*
Y1508778D01*
X2210409*
X2245045Y1470778D02*
X2253045D01*
X2249045Y1466778D02*
Y1474778D01*
X2251045Y1476059D02*
Y1472778D01*
X2252409*
X2239045Y1470778D02*
X2247045D01*
X2243045Y1466778D02*
Y1474778D01*
X2245045Y1476059D02*
Y1472778D01*
X2246409*
X2233045Y1470778D02*
X2241045D01*
X2237045Y1466778D02*
Y1474778D01*
X2239045Y1476059D02*
Y1472778D01*
X2240409*
X2227045Y1470778D02*
X2235045D01*
X2231045Y1466778D02*
Y1474778D01*
X2233045Y1476059D02*
Y1472778D01*
X2234409*
X2221045Y1470778D02*
X2229045D01*
X2225045Y1466778D02*
Y1474778D01*
X2227045Y1476059D02*
Y1472778D01*
X2228409*
X2215045Y1470778D02*
X2223045D01*
X2219045Y1466778D02*
Y1474778D01*
X2221045Y1476059D02*
Y1472778D01*
X2222409*
X2209045Y1470778D02*
X2217045D01*
X2213045Y1466778D02*
Y1474778D01*
X2215045Y1476059D02*
Y1472778D01*
X2216409*
X2245045Y1476778D02*
X2253045D01*
X2249045Y1472778D02*
Y1480778D01*
X2251045Y1482059D02*
Y1478778D01*
X2252409*
X2239045Y1476778D02*
X2247045D01*
X2243045Y1472778D02*
Y1480778D01*
X2245045Y1482059D02*
Y1478778D01*
X2246409*
X2245045Y1482778D02*
X2253045D01*
X2249045Y1478778D02*
Y1486778D01*
X2251045Y1488059D02*
Y1484778D01*
X2252409*
X2239045Y1482778D02*
X2247045D01*
X2243045Y1478778D02*
Y1486778D01*
X2245045Y1488059D02*
Y1484778D01*
X2246409*
X2233045Y1476778D02*
X2241045D01*
X2237045Y1472778D02*
Y1480778D01*
X2239045Y1482059D02*
Y1478778D01*
X2240409*
X2227045Y1476778D02*
X2235045D01*
X2231045Y1472778D02*
Y1480778D01*
X2233045Y1482059D02*
Y1478778D01*
X2234409*
X2221045Y1476778D02*
X2229045D01*
X2225045Y1472778D02*
Y1480778D01*
X2227045Y1482059D02*
Y1478778D01*
X2228409*
X2215045Y1476778D02*
X2223045D01*
X2219045Y1472778D02*
Y1480778D01*
X2221045Y1482059D02*
Y1478778D01*
X2222409*
X2209045Y1476778D02*
X2217045D01*
X2213045Y1472778D02*
Y1480778D01*
X2215045Y1482059D02*
Y1478778D01*
X2216409*
X2233045Y1482778D02*
X2241045D01*
X2237045Y1478778D02*
Y1486778D01*
X2239045Y1488059D02*
Y1484778D01*
X2240409*
X2227045Y1482778D02*
X2235045D01*
X2231045Y1478778D02*
Y1486778D01*
X2233045Y1488059D02*
Y1484778D01*
X2234409*
X2221045Y1482778D02*
X2229045D01*
X2225045Y1478778D02*
Y1486778D01*
X2227045Y1488059D02*
Y1484778D01*
X2228409*
X2215045Y1482778D02*
X2223045D01*
X2219045Y1478778D02*
Y1486778D01*
X2221045Y1488059D02*
Y1484778D01*
X2222409*
X2209045Y1482778D02*
X2217045D01*
X2213045Y1478778D02*
Y1486778D01*
X2215045Y1488059D02*
Y1484778D01*
X2216409*
X2245045Y1488778D02*
X2253045D01*
X2249045Y1484778D02*
Y1492778D01*
X2251045Y1494059D02*
Y1490778D01*
X2252409*
X2239045Y1488778D02*
X2247045D01*
X2243045Y1484778D02*
Y1492778D01*
X2245045Y1494059D02*
Y1490778D01*
X2246409*
X2233045Y1488778D02*
X2241045D01*
X2237045Y1484778D02*
Y1492778D01*
X2239045Y1494059D02*
Y1490778D01*
X2240409*
X2227045Y1488778D02*
X2235045D01*
X2231045Y1484778D02*
Y1492778D01*
X2233045Y1494059D02*
Y1490778D01*
X2234409*
X2221045Y1488778D02*
X2229045D01*
X2225045Y1484778D02*
Y1492778D01*
X2227045Y1494059D02*
Y1490778D01*
X2228409*
X2215045Y1488778D02*
X2223045D01*
X2219045Y1484778D02*
Y1492778D01*
X2221045Y1494059D02*
Y1490778D01*
X2222409*
X2209045Y1488778D02*
X2217045D01*
X2213045Y1484778D02*
Y1492778D01*
X2215045Y1494059D02*
Y1490778D01*
X2216409*
X2245045Y1494778D02*
X2253045D01*
X2249045Y1490778D02*
Y1498778D01*
X2251045Y1500059D02*
Y1496778D01*
X2252409*
X2239045Y1494778D02*
X2247045D01*
X2243045Y1490778D02*
Y1498778D01*
X2245045Y1500059D02*
Y1496778D01*
X2246409*
X2233045Y1494778D02*
X2241045D01*
X2237045Y1490778D02*
Y1498778D01*
X2239045Y1500059D02*
Y1496778D01*
X2240409*
X2227045Y1494778D02*
X2235045D01*
X2231045Y1490778D02*
Y1498778D01*
X2233045Y1500059D02*
Y1496778D01*
X2234409*
X2221045Y1494778D02*
X2229045D01*
X2225045Y1490778D02*
Y1498778D01*
X2227045Y1500059D02*
Y1496778D01*
X2228409*
X2215045Y1494778D02*
X2223045D01*
X2219045Y1490778D02*
Y1498778D01*
X2221045Y1500059D02*
Y1496778D01*
X2222409*
X2209045Y1494778D02*
X2217045D01*
X2213045Y1490778D02*
Y1498778D01*
X2215045Y1500059D02*
Y1496778D01*
X2216409*
X2245045Y1500778D02*
X2253045D01*
X2249045Y1496778D02*
Y1504778D01*
X2251045Y1506059D02*
Y1502778D01*
X2252409*
X2239045Y1500778D02*
X2247045D01*
X2243045Y1496778D02*
Y1504778D01*
X2245045Y1506059D02*
Y1502778D01*
X2246409*
X2233045Y1500778D02*
X2241045D01*
X2237045Y1496778D02*
Y1504778D01*
X2239045Y1506059D02*
Y1502778D01*
X2240409*
X2209045Y1506778D02*
X2217045D01*
X2213045Y1502778D02*
Y1510778D01*
X2215045Y1512059D02*
Y1508778D01*
X2216409*
X2209045Y1500778D02*
X2217045D01*
X2213045Y1496778D02*
Y1504778D01*
X2215045Y1506059D02*
Y1502778D01*
X2216409*
X2215045Y1500778D02*
X2223045D01*
X2219045Y1496778D02*
Y1504778D01*
X2221045Y1506059D02*
Y1502778D01*
X2222409*
X2221045Y1500778D02*
X2229045D01*
X2225045Y1496778D02*
Y1504778D01*
X2227045Y1506059D02*
Y1502778D01*
X2228409*
X2227045Y1500778D02*
X2235045D01*
X2231045Y1496778D02*
Y1504778D01*
X2233045Y1506059D02*
Y1502778D01*
X2234409*
X2233045Y1506778D02*
X2241045D01*
X2237045Y1502778D02*
Y1510778D01*
X2239045Y1512059D02*
Y1508778D01*
X2240409*
X2227045Y1506778D02*
X2235045D01*
X2231045Y1502778D02*
Y1510778D01*
X2233045Y1512059D02*
Y1508778D01*
X2234409*
X2239045Y1506778D02*
X2247045D01*
X2243045Y1502778D02*
Y1510778D01*
X2245045Y1512059D02*
Y1508778D01*
X2246409*
X2245045Y1506778D02*
X2253045D01*
X2249045Y1502778D02*
Y1510778D01*
X2251045Y1512059D02*
Y1508778D01*
X2252409*
X2215045Y1506778D02*
X2223045D01*
X2219045Y1502778D02*
Y1510778D01*
X2221045Y1512059D02*
Y1508778D01*
X2222409*
X2221045Y1506778D02*
X2229045D01*
X2225045Y1502778D02*
Y1510778D01*
X2227045Y1512059D02*
Y1508778D01*
X2228409*
X2287045Y1488778D02*
X2295045D01*
X2291045Y1484778D02*
Y1492778D01*
X2293045Y1494059D02*
Y1490778D01*
X2294409*
X2281045Y1488778D02*
X2289045D01*
X2285045Y1484778D02*
Y1492778D01*
X2287045Y1494059D02*
Y1490778D01*
X2288409*
X2275045Y1488778D02*
X2283045D01*
X2279045Y1484778D02*
Y1492778D01*
X2281045Y1494059D02*
Y1490778D01*
X2282409*
X2269045Y1488778D02*
X2277045D01*
X2273045Y1484778D02*
Y1492778D01*
X2275045Y1494059D02*
Y1490778D01*
X2276409*
X2263045Y1488778D02*
X2271045D01*
X2267045Y1484778D02*
Y1492778D01*
X2269045Y1494059D02*
Y1490778D01*
X2270409*
X2283045Y1494778D02*
X2291045D01*
X2287045Y1490778D02*
Y1498778D01*
X2289045Y1500059D02*
Y1496778D01*
X2290409*
X2277045Y1494778D02*
X2285045D01*
X2281045Y1490778D02*
Y1498778D01*
X2283045Y1500059D02*
Y1496778D01*
X2284409*
X2283045Y1500778D02*
X2291045D01*
X2287045Y1496778D02*
Y1504778D01*
X2289045Y1506059D02*
Y1502778D01*
X2290409*
X2277045Y1500778D02*
X2285045D01*
X2281045Y1496778D02*
Y1504778D01*
X2283045Y1506059D02*
Y1502778D01*
X2284409*
X2283045Y1506778D02*
X2291045D01*
X2287045Y1502778D02*
Y1510778D01*
X2289045Y1512059D02*
Y1508778D01*
X2290409*
X2277045Y1506778D02*
X2285045D01*
X2281045Y1502778D02*
Y1510778D01*
X2283045Y1512059D02*
Y1508778D01*
X2284409*
X2279045Y1470778D02*
X2287045D01*
X2283045Y1466778D02*
Y1474778D01*
X2285045Y1476059D02*
Y1472778D01*
X2286409*
X2279045Y1476778D02*
X2287045D01*
X2283045Y1472778D02*
Y1480778D01*
X2285045Y1482059D02*
Y1478778D01*
X2286409*
X2279045Y1482778D02*
X2287045D01*
X2283045Y1478778D02*
Y1486778D01*
X2285045Y1488059D02*
Y1484778D01*
X2286409*
X2257045Y1470778D02*
X2265045D01*
X2261045Y1466778D02*
Y1474778D01*
X2263045Y1476059D02*
Y1472778D01*
X2264409*
X2251045Y1470778D02*
X2259045D01*
X2255045Y1466778D02*
Y1474778D01*
X2257045Y1476059D02*
Y1472778D01*
X2258409*
X2257045Y1476778D02*
X2265045D01*
X2261045Y1472778D02*
Y1480778D01*
X2263045Y1482059D02*
Y1478778D01*
X2264409*
X2251045Y1476778D02*
X2259045D01*
X2255045Y1472778D02*
Y1480778D01*
X2257045Y1482059D02*
Y1478778D01*
X2258409*
X2257045Y1482778D02*
X2265045D01*
X2261045Y1478778D02*
Y1486778D01*
X2263045Y1488059D02*
Y1484778D01*
X2264409*
X2251045Y1482778D02*
X2259045D01*
X2255045Y1478778D02*
Y1486778D01*
X2257045Y1488059D02*
Y1484778D01*
X2258409*
X2257045Y1488778D02*
X2265045D01*
X2261045Y1484778D02*
Y1492778D01*
X2263045Y1494059D02*
Y1490778D01*
X2264409*
X2251045Y1488778D02*
X2259045D01*
X2255045Y1484778D02*
Y1492778D01*
X2257045Y1494059D02*
Y1490778D01*
X2258409*
X2257045Y1494778D02*
X2265045D01*
X2261045Y1490778D02*
Y1498778D01*
X2263045Y1500059D02*
Y1496778D01*
X2264409*
X2251045Y1494778D02*
X2259045D01*
X2255045Y1490778D02*
Y1498778D01*
X2257045Y1500059D02*
Y1496778D01*
X2258409*
X2257045Y1500778D02*
X2265045D01*
X2261045Y1496778D02*
Y1504778D01*
X2263045Y1506059D02*
Y1502778D01*
X2264409*
X2251045Y1500778D02*
X2259045D01*
X2255045Y1496778D02*
Y1504778D01*
X2257045Y1506059D02*
Y1502778D01*
X2258409*
X2251045Y1506778D02*
X2259045D01*
X2255045Y1502778D02*
Y1510778D01*
X2257045Y1512059D02*
Y1508778D01*
X2258409*
X2257045Y1506778D02*
X2265045D01*
X2261045Y1502778D02*
Y1510778D01*
X2263045Y1512059D02*
Y1508778D01*
X2264409*
X2327045Y1466778D02*
X2335045Y1474778D01*
X2327045D02*
X2335045Y1466778D01*
X2327045Y1470778D02*
X2335045Y1478778D01*
X2327045D02*
X2335045Y1470778D01*
X2327045Y1474778D02*
X2335045Y1482778D01*
X2327045D02*
X2335045Y1474778D01*
X2327045Y1478778D02*
X2335045Y1486778D01*
X2327045D02*
X2335045Y1478778D01*
X2327045Y1490778D02*
X2335045Y1498778D01*
X2327045D02*
X2335045Y1490778D01*
X2327045Y1494778D02*
X2335045Y1502778D01*
X2327045D02*
X2335045Y1494778D01*
X2327045Y1498778D02*
X2335045Y1506778D01*
X2327045D02*
X2335045Y1498778D01*
X2327045Y1502778D02*
X2335045Y1510778D01*
X2327045D02*
X2335045Y1502778D01*
X2325045Y1488778D02*
X2333045D01*
X2329045Y1484778D02*
Y1492778D01*
X2331045Y1494059D02*
Y1490778D01*
X2332409*
X2319045Y1488778D02*
X2327045D01*
X2323045Y1484778D02*
Y1492778D01*
X2325045Y1494059D02*
Y1490778D01*
X2326409*
X2313045Y1488778D02*
X2321045D01*
X2317045Y1484778D02*
Y1492778D01*
X2319045Y1494059D02*
Y1490778D01*
X2320409*
X2307045Y1488778D02*
X2315045D01*
X2311045Y1484778D02*
Y1492778D01*
X2313045Y1494059D02*
Y1490778D01*
X2314409*
X2301045Y1488778D02*
X2309045D01*
X2305045Y1484778D02*
Y1492778D01*
X2307045Y1494059D02*
Y1490778D01*
X2308409*
X2307045Y1494778D02*
X2315045D01*
X2311045Y1490778D02*
Y1498778D01*
X2313045Y1500059D02*
Y1496778D01*
X2314409*
X2301045Y1494778D02*
X2309045D01*
X2305045Y1490778D02*
Y1498778D01*
X2307045Y1500059D02*
Y1496778D01*
X2308409*
X2295045Y1494778D02*
X2303045D01*
X2299045Y1490778D02*
Y1498778D01*
X2301045Y1500059D02*
Y1496778D01*
X2302409*
X2289045Y1494778D02*
X2297045D01*
X2293045Y1490778D02*
Y1498778D01*
X2295045Y1500059D02*
Y1496778D01*
X2296409*
X2307045Y1500778D02*
X2315045D01*
X2311045Y1496778D02*
Y1504778D01*
X2313045Y1506059D02*
Y1502778D01*
X2314409*
X2301045Y1500778D02*
X2309045D01*
X2305045Y1496778D02*
Y1504778D01*
X2307045Y1506059D02*
Y1502778D01*
X2308409*
X2295045Y1500778D02*
X2303045D01*
X2299045Y1496778D02*
Y1504778D01*
X2301045Y1506059D02*
Y1502778D01*
X2302409*
X2289045Y1500778D02*
X2297045D01*
X2293045Y1496778D02*
Y1504778D01*
X2295045Y1506059D02*
Y1502778D01*
X2296409*
X2307045Y1506778D02*
X2315045D01*
X2311045Y1502778D02*
Y1510778D01*
X2313045Y1512059D02*
Y1508778D01*
X2314409*
X2301045Y1506778D02*
X2309045D01*
X2305045Y1502778D02*
Y1510778D01*
X2307045Y1512059D02*
Y1508778D01*
X2308409*
X2295045Y1506778D02*
X2303045D01*
X2299045Y1502778D02*
Y1510778D01*
X2301045Y1512059D02*
Y1508778D01*
X2302409*
X2289045Y1506778D02*
X2297045D01*
X2293045Y1502778D02*
Y1510778D01*
X2295045Y1512059D02*
Y1508778D01*
X2296409*
X2309045Y1470778D02*
X2317045D01*
X2313045Y1466778D02*
Y1474778D01*
X2315045Y1476059D02*
Y1472778D01*
X2316409*
X2309045Y1476778D02*
X2317045D01*
X2313045Y1472778D02*
Y1480778D01*
X2315045Y1482059D02*
Y1478778D01*
X2316409*
X2309045Y1482778D02*
X2317045D01*
X2313045Y1478778D02*
Y1486778D01*
X2315045Y1488059D02*
Y1484778D01*
X2316409*
X1979045Y1546778D02*
X1987045D01*
X1983045Y1542778D02*
Y1550778D01*
X1985045Y1552059D02*
Y1548778D01*
X1986409*
X1973045Y1546778D02*
X1981045D01*
X1977045Y1542778D02*
Y1550778D01*
X1979045Y1552059D02*
Y1548778D01*
X1980409*
X2122545Y1526278D02*
X2130545Y1534278D01*
X2122545D02*
X2130545Y1526278D01*
X2140045Y1531778D02*
X2148045Y1539778D01*
X2140045D02*
X2148045Y1531778D01*
X2203045Y1540778D02*
X2211045D01*
X2207045Y1536778D02*
Y1544778D01*
X2209045Y1546059D02*
Y1542778D01*
X2210409*
X2205045Y1546778D02*
X2213045D01*
X2209045Y1542778D02*
Y1550778D01*
X2211045Y1552059D02*
Y1548778D01*
X2212409*
X2245045Y1540778D02*
X2253045D01*
X2249045Y1536778D02*
Y1544778D01*
X2251045Y1546059D02*
Y1542778D01*
X2252409*
X2239045Y1540778D02*
X2247045D01*
X2243045Y1536778D02*
Y1544778D01*
X2245045Y1546059D02*
Y1542778D01*
X2246409*
X2233045Y1540778D02*
X2241045D01*
X2237045Y1536778D02*
Y1544778D01*
X2239045Y1546059D02*
Y1542778D01*
X2240409*
X2227045Y1540778D02*
X2235045D01*
X2231045Y1536778D02*
Y1544778D01*
X2233045Y1546059D02*
Y1542778D01*
X2234409*
X2221045Y1540778D02*
X2229045D01*
X2225045Y1536778D02*
Y1544778D01*
X2227045Y1546059D02*
Y1542778D01*
X2228409*
X2215045Y1540778D02*
X2223045D01*
X2219045Y1536778D02*
Y1544778D01*
X2221045Y1546059D02*
Y1542778D01*
X2222409*
X2209045Y1540778D02*
X2217045D01*
X2213045Y1536778D02*
Y1544778D01*
X2215045Y1546059D02*
Y1542778D01*
X2216409*
X2211045Y1546778D02*
X2219045D01*
X2215045Y1542778D02*
Y1550778D01*
X2217045Y1552059D02*
Y1548778D01*
X2218409*
X2217045Y1546778D02*
X2225045D01*
X2221045Y1542778D02*
Y1550778D01*
X2223045Y1552059D02*
Y1548778D01*
X2224409*
X2223045Y1546778D02*
X2231045D01*
X2227045Y1542778D02*
Y1550778D01*
X2229045Y1552059D02*
Y1548778D01*
X2230409*
X2229045Y1546778D02*
X2237045D01*
X2233045Y1542778D02*
Y1550778D01*
X2235045Y1552059D02*
Y1548778D01*
X2236409*
X2235045Y1546778D02*
X2243045D01*
X2239045Y1542778D02*
Y1550778D01*
X2241045Y1552059D02*
Y1548778D01*
X2242409*
X2241045Y1546778D02*
X2249045D01*
X2245045Y1542778D02*
Y1550778D01*
X2247045Y1552059D02*
Y1548778D01*
X2248409*
X2247045Y1546778D02*
X2255045D01*
X2251045Y1542778D02*
Y1550778D01*
X2253045Y1552059D02*
Y1548778D01*
X2254409*
X2277045Y1544778D02*
X2285045D01*
X2281045Y1540778D02*
Y1548778D01*
X2283045Y1550059D02*
Y1546778D01*
X2284409*
X2283045Y1538778D02*
X2291045D01*
X2287045Y1534778D02*
Y1542778D01*
X2289045Y1544059D02*
Y1540778D01*
X2290409*
X2277045Y1538778D02*
X2285045D01*
X2281045Y1534778D02*
Y1542778D01*
X2283045Y1544059D02*
Y1540778D01*
X2284409*
X2257045D02*
X2265045D01*
X2261045Y1536778D02*
Y1544778D01*
X2263045Y1546059D02*
Y1542778D01*
X2264409*
X2251045Y1540778D02*
X2259045D01*
X2255045Y1536778D02*
Y1544778D01*
X2257045Y1546059D02*
Y1542778D01*
X2258409*
X2283045Y1544778D02*
X2291045D01*
X2287045Y1540778D02*
Y1548778D01*
X2289045Y1550059D02*
Y1546778D01*
X2290409*
X2259045D02*
X2267045D01*
X2263045Y1542778D02*
Y1550778D01*
X2265045Y1552059D02*
Y1548778D01*
X2266409*
X2253045Y1546778D02*
X2261045D01*
X2257045Y1542778D02*
Y1550778D01*
X2259045Y1552059D02*
Y1548778D01*
X2260409*
X2327045Y1542778D02*
X2335045Y1550778D01*
X2327045D02*
X2335045Y1542778D01*
X2295045Y1538778D02*
X2303045D01*
X2299045Y1534778D02*
Y1542778D01*
X2301045Y1544059D02*
Y1540778D01*
X2302409*
X2289045Y1538778D02*
X2297045D01*
X2293045Y1534778D02*
Y1542778D01*
X2295045Y1544059D02*
Y1540778D01*
X2296409*
X2301045Y1538778D02*
X2309045D01*
X2305045Y1534778D02*
Y1542778D01*
X2307045Y1544059D02*
Y1540778D01*
X2308409*
X2307045Y1538778D02*
X2315045D01*
X2311045Y1534778D02*
Y1542778D01*
X2313045Y1544059D02*
Y1540778D01*
X2314409*
X2327045Y1538778D02*
X2335045Y1546778D01*
X2327045D02*
X2335045Y1538778D01*
X2327045Y1534778D02*
X2335045Y1542778D01*
X2327045D02*
X2335045Y1534778D01*
X2307045Y1544778D02*
X2315045D01*
X2311045Y1540778D02*
Y1548778D01*
X2313045Y1550059D02*
Y1546778D01*
X2314409*
X2301045Y1544778D02*
X2309045D01*
X2305045Y1540778D02*
Y1548778D01*
X2307045Y1550059D02*
Y1546778D01*
X2308409*
X2295045Y1544778D02*
X2303045D01*
X2299045Y1540778D02*
Y1548778D01*
X2301045Y1550059D02*
Y1546778D01*
X2302409*
X2289045Y1544778D02*
X2297045D01*
X2293045Y1540778D02*
Y1548778D01*
X2295045Y1550059D02*
Y1546778D01*
X2296409*
X1987045Y1558778D02*
X1995045D01*
X1991045Y1554778D02*
Y1562778D01*
X1993045Y1564059D02*
Y1560778D01*
X1994409*
X1993045Y1558778D02*
X2001045D01*
X1997045Y1554778D02*
Y1562778D01*
X1999045Y1564059D02*
Y1560778D01*
X2000409*
X1999045Y1558778D02*
X2007045D01*
X2003045Y1554778D02*
Y1562778D01*
X2005045Y1564059D02*
Y1560778D01*
X2006409*
X2005045Y1556778D02*
X2013045D01*
X2009045Y1552778D02*
Y1560778D01*
X2011045Y1562059D02*
Y1558778D01*
X2012409*
X1981045Y1564778D02*
X1989045D01*
X1985045Y1560778D02*
Y1568778D01*
X1987045Y1570059D02*
Y1566778D01*
X1988409*
X1975045Y1564778D02*
X1983045D01*
X1979045Y1560778D02*
Y1568778D01*
X1981045Y1570059D02*
Y1566778D01*
X1982409*
X1981045Y1558778D02*
X1989045D01*
X1985045Y1554778D02*
Y1562778D01*
X1987045Y1564059D02*
Y1560778D01*
X1988409*
X1975045Y1558778D02*
X1983045D01*
X1979045Y1554778D02*
Y1562778D01*
X1981045Y1564059D02*
Y1560778D01*
X1982409*
X1981045Y1552778D02*
X1989045D01*
X1985045Y1548778D02*
Y1556778D01*
X1987045Y1558059D02*
Y1554778D01*
X1988409*
X1975045Y1552778D02*
X1983045D01*
X1979045Y1548778D02*
Y1556778D01*
X1981045Y1558059D02*
Y1554778D01*
X1982409*
X1969045Y1550778D02*
X1977045D01*
X1973045Y1546778D02*
Y1554778D01*
X1975045Y1556059D02*
Y1552778D01*
X1976409*
X1969045Y1556778D02*
X1977045D01*
X1973045Y1552778D02*
Y1560778D01*
X1975045Y1562059D02*
Y1558778D01*
X1976409*
X1969045Y1562778D02*
X1977045D01*
X1973045Y1558778D02*
Y1566778D01*
X1975045Y1568059D02*
Y1564778D01*
X1976409*
X1969045Y1568778D02*
X1977045D01*
X1973045Y1564778D02*
Y1572778D01*
X1975045Y1574059D02*
Y1570778D01*
X1976409*
X1969045Y1574778D02*
X1977045D01*
X1973045Y1570778D02*
Y1578778D01*
X1975045Y1580059D02*
Y1576778D01*
X1976409*
X1969045Y1580778D02*
X1977045D01*
X1973045Y1576778D02*
Y1584778D01*
X1975045Y1586059D02*
Y1582778D01*
X1976409*
X1975045Y1580778D02*
X1983045D01*
X1979045Y1576778D02*
Y1584778D01*
X1981045Y1586059D02*
Y1582778D01*
X1982409*
X1981045D02*
X1989045D01*
X1985045Y1578778D02*
Y1586778D01*
X1987045Y1588059D02*
Y1584778D01*
X1988409*
X1974045Y1581778D02*
X1982045Y1589778D01*
X1974045D02*
X1982045Y1581778D01*
X1973045Y1569778D02*
X1981045Y1577778D01*
X1973045D02*
X1981045Y1569778D01*
X2011045Y1556778D02*
X2019045D01*
X2015045Y1552778D02*
Y1560778D01*
X2017045Y1562059D02*
Y1558778D01*
X2018409*
X2205045Y1552778D02*
X2213045D01*
X2209045Y1548778D02*
Y1556778D01*
X2211045Y1558059D02*
Y1554778D01*
X2212409*
X2203045Y1576778D02*
X2211045D01*
X2207045Y1572778D02*
Y1580778D01*
X2209045Y1582059D02*
Y1578778D01*
X2210409*
X2203045Y1582778D02*
X2211045D01*
X2207045Y1578778D02*
Y1586778D01*
X2209045Y1588059D02*
Y1584778D01*
X2210409*
X2205045Y1558778D02*
X2213045D01*
X2209045Y1554778D02*
Y1562778D01*
X2211045Y1564059D02*
Y1560778D01*
X2212409*
X2211045Y1552778D02*
X2219045D01*
X2215045Y1548778D02*
Y1556778D01*
X2217045Y1558059D02*
Y1554778D01*
X2218409*
X2217045Y1552778D02*
X2225045D01*
X2221045Y1548778D02*
Y1556778D01*
X2223045Y1558059D02*
Y1554778D01*
X2224409*
X2223045Y1552778D02*
X2231045D01*
X2227045Y1548778D02*
Y1556778D01*
X2229045Y1558059D02*
Y1554778D01*
X2230409*
X2229045Y1552778D02*
X2237045D01*
X2233045Y1548778D02*
Y1556778D01*
X2235045Y1558059D02*
Y1554778D01*
X2236409*
X2235045Y1552778D02*
X2243045D01*
X2239045Y1548778D02*
Y1556778D01*
X2241045Y1558059D02*
Y1554778D01*
X2242409*
X2247045Y1552778D02*
X2255045D01*
X2251045Y1548778D02*
Y1556778D01*
X2253045Y1558059D02*
Y1554778D01*
X2254409*
X2241045Y1552778D02*
X2249045D01*
X2245045Y1548778D02*
Y1556778D01*
X2247045Y1558059D02*
Y1554778D01*
X2248409*
X2217045Y1564778D02*
X2225045D01*
X2221045Y1560778D02*
Y1568778D01*
X2223045Y1570059D02*
Y1566778D01*
X2224409*
X2223045Y1564778D02*
X2231045D01*
X2227045Y1560778D02*
Y1568778D01*
X2229045Y1570059D02*
Y1566778D01*
X2230409*
X2247045Y1576778D02*
X2255045D01*
X2251045Y1572778D02*
Y1580778D01*
X2253045Y1582059D02*
Y1578778D01*
X2254409*
X2247045Y1570778D02*
X2255045D01*
X2251045Y1566778D02*
Y1574778D01*
X2253045Y1576059D02*
Y1572778D01*
X2254409*
X2247045Y1564778D02*
X2255045D01*
X2251045Y1560778D02*
Y1568778D01*
X2253045Y1570059D02*
Y1566778D01*
X2254409*
X2247045Y1582778D02*
X2255045D01*
X2251045Y1578778D02*
Y1586778D01*
X2253045Y1588059D02*
Y1584778D01*
X2254409*
X2229045Y1564778D02*
X2237045D01*
X2233045Y1560778D02*
Y1568778D01*
X2235045Y1570059D02*
Y1566778D01*
X2236409*
X2229045Y1582778D02*
X2237045D01*
X2233045Y1578778D02*
Y1586778D01*
X2235045Y1588059D02*
Y1584778D01*
X2236409*
X2223045Y1582778D02*
X2231045D01*
X2227045Y1578778D02*
Y1586778D01*
X2229045Y1588059D02*
Y1584778D01*
X2230409*
X2235045Y1564778D02*
X2243045D01*
X2239045Y1560778D02*
Y1568778D01*
X2241045Y1570059D02*
Y1566778D01*
X2242409*
X2209045Y1576778D02*
X2217045D01*
X2213045Y1572778D02*
Y1580778D01*
X2215045Y1582059D02*
Y1578778D01*
X2216409*
X2209045Y1582778D02*
X2217045D01*
X2213045Y1578778D02*
Y1586778D01*
X2215045Y1588059D02*
Y1584778D01*
X2216409*
X2235045Y1570778D02*
X2243045D01*
X2239045Y1566778D02*
Y1574778D01*
X2241045Y1576059D02*
Y1572778D01*
X2242409*
X2223045Y1576778D02*
X2231045D01*
X2227045Y1572778D02*
Y1580778D01*
X2229045Y1582059D02*
Y1578778D01*
X2230409*
X2229045Y1576778D02*
X2237045D01*
X2233045Y1572778D02*
Y1580778D01*
X2235045Y1582059D02*
Y1578778D01*
X2236409*
X2217045Y1570778D02*
X2225045D01*
X2221045Y1566778D02*
Y1574778D01*
X2223045Y1576059D02*
Y1572778D01*
X2224409*
X2241045Y1564778D02*
X2249045D01*
X2245045Y1560778D02*
Y1568778D01*
X2247045Y1570059D02*
Y1566778D01*
X2248409*
X2241045Y1576778D02*
X2249045D01*
X2245045Y1572778D02*
Y1580778D01*
X2247045Y1582059D02*
Y1578778D01*
X2248409*
X2241045Y1582778D02*
X2249045D01*
X2245045Y1578778D02*
Y1586778D01*
X2247045Y1588059D02*
Y1584778D01*
X2248409*
X2235045Y1582778D02*
X2243045D01*
X2239045Y1578778D02*
Y1586778D01*
X2241045Y1588059D02*
Y1584778D01*
X2242409*
X2229045Y1570778D02*
X2237045D01*
X2233045Y1566778D02*
Y1574778D01*
X2235045Y1576059D02*
Y1572778D01*
X2236409*
X2217045Y1582778D02*
X2225045D01*
X2221045Y1578778D02*
Y1586778D01*
X2223045Y1588059D02*
Y1584778D01*
X2224409*
X2217045Y1576778D02*
X2225045D01*
X2221045Y1572778D02*
Y1580778D01*
X2223045Y1582059D02*
Y1578778D01*
X2224409*
X2211045Y1558778D02*
X2219045D01*
X2215045Y1554778D02*
Y1562778D01*
X2217045Y1564059D02*
Y1560778D01*
X2218409*
X2247045Y1558778D02*
X2255045D01*
X2251045Y1554778D02*
Y1562778D01*
X2253045Y1564059D02*
Y1560778D01*
X2254409*
X2241045Y1558778D02*
X2249045D01*
X2245045Y1554778D02*
Y1562778D01*
X2247045Y1564059D02*
Y1560778D01*
X2248409*
X2235045Y1558778D02*
X2243045D01*
X2239045Y1554778D02*
Y1562778D01*
X2241045Y1564059D02*
Y1560778D01*
X2242409*
X2229045Y1558778D02*
X2237045D01*
X2233045Y1554778D02*
Y1562778D01*
X2235045Y1564059D02*
Y1560778D01*
X2236409*
X2223045Y1558778D02*
X2231045D01*
X2227045Y1554778D02*
Y1562778D01*
X2229045Y1564059D02*
Y1560778D01*
X2230409*
X2217045Y1558778D02*
X2225045D01*
X2221045Y1554778D02*
Y1562778D01*
X2223045Y1564059D02*
Y1560778D01*
X2224409*
X2235045Y1576778D02*
X2243045D01*
X2239045Y1572778D02*
Y1580778D01*
X2241045Y1582059D02*
Y1578778D01*
X2242409*
X2223045Y1570778D02*
X2231045D01*
X2227045Y1566778D02*
Y1574778D01*
X2229045Y1576059D02*
Y1572778D01*
X2230409*
X2241045Y1570778D02*
X2249045D01*
X2245045Y1566778D02*
Y1574778D01*
X2247045Y1576059D02*
Y1572778D01*
X2248409*
X2283045Y1550778D02*
X2291045D01*
X2287045Y1546778D02*
Y1554778D01*
X2289045Y1556059D02*
Y1552778D01*
X2290409*
X2277045Y1550778D02*
X2285045D01*
X2281045Y1546778D02*
Y1554778D01*
X2283045Y1556059D02*
Y1552778D01*
X2284409*
X2253045D02*
X2261045D01*
X2257045Y1548778D02*
Y1556778D01*
X2259045Y1558059D02*
Y1554778D01*
X2260409*
X2259045Y1552778D02*
X2267045D01*
X2263045Y1548778D02*
Y1556778D01*
X2265045Y1558059D02*
Y1554778D01*
X2266409*
X2277045Y1582778D02*
X2285045D01*
X2281045Y1578778D02*
Y1586778D01*
X2283045Y1588059D02*
Y1584778D01*
X2284409*
X2283045Y1582778D02*
X2291045D01*
X2287045Y1578778D02*
Y1586778D01*
X2289045Y1588059D02*
Y1584778D01*
X2290409*
X2253045Y1564778D02*
X2261045D01*
X2257045Y1560778D02*
Y1568778D01*
X2259045Y1570059D02*
Y1566778D01*
X2260409*
X2259045Y1582778D02*
X2267045D01*
X2263045Y1578778D02*
Y1586778D01*
X2265045Y1588059D02*
Y1584778D01*
X2266409*
X2253045Y1582778D02*
X2261045D01*
X2257045Y1578778D02*
Y1586778D01*
X2259045Y1588059D02*
Y1584778D01*
X2260409*
X2253045Y1576778D02*
X2261045D01*
X2257045Y1572778D02*
Y1580778D01*
X2259045Y1582059D02*
Y1578778D01*
X2260409*
X2253045Y1570778D02*
X2261045D01*
X2257045Y1566778D02*
Y1574778D01*
X2259045Y1576059D02*
Y1572778D01*
X2260409*
X2259045Y1576778D02*
X2267045D01*
X2263045Y1572778D02*
Y1580778D01*
X2265045Y1582059D02*
Y1578778D01*
X2266409*
X2259045Y1570778D02*
X2267045D01*
X2263045Y1566778D02*
Y1574778D01*
X2265045Y1576059D02*
Y1572778D01*
X2266409*
X2279045Y1570778D02*
X2287045D01*
X2283045Y1566778D02*
Y1574778D01*
X2285045Y1576059D02*
Y1572778D01*
X2286409*
X2279045Y1564778D02*
X2287045D01*
X2283045Y1560778D02*
Y1568778D01*
X2285045Y1570059D02*
Y1566778D01*
X2286409*
X2279045Y1576778D02*
X2287045D01*
X2283045Y1572778D02*
Y1580778D01*
X2285045Y1582059D02*
Y1578778D01*
X2286409*
X2259045Y1558778D02*
X2267045D01*
X2263045Y1554778D02*
Y1562778D01*
X2265045Y1564059D02*
Y1560778D01*
X2266409*
X2253045Y1558778D02*
X2261045D01*
X2257045Y1554778D02*
Y1562778D01*
X2259045Y1564059D02*
Y1560778D01*
X2260409*
X2265545Y1556778D02*
X2273545D01*
X2269545Y1552778D02*
Y1560778D01*
X2271545Y1562059D02*
Y1558778D01*
X2272909*
X2271545Y1556778D02*
X2279545D01*
X2275545Y1552778D02*
Y1560778D01*
X2277545Y1562059D02*
Y1558778D01*
X2278909*
X2277545Y1556778D02*
X2285545D01*
X2281545Y1552778D02*
Y1560778D01*
X2283545Y1562059D02*
Y1558778D01*
X2284909*
X2283545Y1556778D02*
X2291545D01*
X2287545Y1552778D02*
Y1560778D01*
X2289545Y1562059D02*
Y1558778D01*
X2290909*
X2271045Y1582778D02*
X2279045D01*
X2275045Y1578778D02*
Y1586778D01*
X2277045Y1588059D02*
Y1584778D01*
X2278409*
X2265045Y1582778D02*
X2273045D01*
X2269045Y1578778D02*
Y1586778D01*
X2271045Y1588059D02*
Y1584778D01*
X2272409*
X2259045Y1564778D02*
X2267045D01*
X2263045Y1560778D02*
Y1568778D01*
X2265045Y1570059D02*
Y1566778D01*
X2266409*
X2327045Y1560778D02*
X2335045Y1568778D01*
X2327045D02*
X2335045Y1560778D01*
X2327045Y1546778D02*
X2335045Y1554778D01*
X2327045D02*
X2335045Y1546778D01*
X2327045Y1564778D02*
X2335045Y1572778D01*
X2327045D02*
X2335045Y1564778D01*
X2327045Y1568778D02*
X2335045Y1576778D01*
X2327045D02*
X2335045Y1568778D01*
X2327045Y1572778D02*
X2335045Y1580778D01*
X2327045D02*
X2335045Y1572778D01*
X2289045Y1582778D02*
X2297045D01*
X2293045Y1578778D02*
Y1586778D01*
X2295045Y1588059D02*
Y1584778D01*
X2296409*
X2295045Y1582778D02*
X2303045D01*
X2299045Y1578778D02*
Y1586778D01*
X2301045Y1588059D02*
Y1584778D01*
X2302409*
X2289045Y1550778D02*
X2297045D01*
X2293045Y1546778D02*
Y1554778D01*
X2295045Y1556059D02*
Y1552778D01*
X2296409*
X2295045Y1550778D02*
X2303045D01*
X2299045Y1546778D02*
Y1554778D01*
X2301045Y1556059D02*
Y1552778D01*
X2302409*
X2301045Y1550778D02*
X2309045D01*
X2305045Y1546778D02*
Y1554778D01*
X2307045Y1556059D02*
Y1552778D01*
X2308409*
X2307045Y1550778D02*
X2315045D01*
X2311045Y1546778D02*
Y1554778D01*
X2313045Y1556059D02*
Y1552778D01*
X2314409*
X2301045Y1582778D02*
X2309045D01*
X2305045Y1578778D02*
Y1586778D01*
X2307045Y1588059D02*
Y1584778D01*
X2308409*
X2307045Y1582778D02*
X2315045D01*
X2311045Y1578778D02*
Y1586778D01*
X2313045Y1588059D02*
Y1584778D01*
X2314409*
X2309045Y1564778D02*
X2317045D01*
X2313045Y1560778D02*
Y1568778D01*
X2315045Y1570059D02*
Y1566778D01*
X2316409*
X2309045Y1570778D02*
X2317045D01*
X2313045Y1566778D02*
Y1574778D01*
X2315045Y1576059D02*
Y1572778D01*
X2316409*
X2309045Y1576778D02*
X2317045D01*
X2313045Y1572778D02*
Y1580778D01*
X2315045Y1582059D02*
Y1578778D01*
X2316409*
X2301545Y1556778D02*
X2309545D01*
X2305545Y1552778D02*
Y1560778D01*
X2307545Y1562059D02*
Y1558778D01*
X2308909*
X2307545Y1556778D02*
X2315545D01*
X2311545Y1552778D02*
Y1560778D01*
X2313545Y1562059D02*
Y1558778D01*
X2314909*
X2313545Y1556778D02*
X2321545D01*
X2317545Y1552778D02*
Y1560778D01*
X2319545Y1562059D02*
Y1558778D01*
X2320909*
X2319545Y1556778D02*
X2327545D01*
X2323545Y1552778D02*
Y1560778D01*
X2325545Y1562059D02*
Y1558778D01*
X2326909*
X2325545Y1556778D02*
X2333545D01*
X2329545Y1552778D02*
Y1560778D01*
X2331545Y1562059D02*
Y1558778D01*
X2332909*
X2289545Y1556778D02*
X2297545D01*
X2293545Y1552778D02*
Y1560778D01*
X2295545Y1562059D02*
Y1558778D01*
X2296909*
X2295545Y1556778D02*
X2303545D01*
X2299545Y1552778D02*
Y1560778D01*
X2301545Y1562059D02*
Y1558778D01*
X2302909*
X2315045Y1582778D02*
X2323045D01*
X2319045Y1578778D02*
Y1586778D01*
X2321045Y1588059D02*
Y1584778D01*
X2322409*
X2321045Y1582778D02*
X2329045D01*
X2325045Y1578778D02*
Y1586778D01*
X2327045Y1588059D02*
Y1584778D01*
X2328409*
X2327545Y1582778D02*
X2335545D01*
X2331545Y1578778D02*
Y1586778D01*
X2333545Y1588059D02*
Y1584778D01*
X2334909*
X1981045Y1588778D02*
X1989045D01*
X1985045Y1584778D02*
Y1592778D01*
X1987045Y1594059D02*
Y1590778D01*
X1988409*
X1981045Y1594778D02*
X1989045D01*
X1985045Y1590778D02*
Y1598778D01*
X1987045Y1600059D02*
Y1596778D01*
X1988409*
X1981045Y1600778D02*
X1989045D01*
X1985045Y1596778D02*
Y1604778D01*
X1987045Y1606059D02*
Y1602778D01*
X1988409*
X1981045Y1606778D02*
X1989045D01*
X1985045Y1602778D02*
Y1610778D01*
X1987045Y1612059D02*
Y1608778D01*
X1988409*
X1969045Y1607778D02*
X1977045Y1615778D01*
X1969045D02*
X1977045Y1607778D01*
X2023045Y1588778D02*
X2031045D01*
X2027045Y1584778D02*
Y1592778D01*
X2029045Y1594059D02*
Y1590778D01*
X2030409*
X2017045Y1588778D02*
X2025045D01*
X2021045Y1584778D02*
Y1592778D01*
X2023045Y1594059D02*
Y1590778D01*
X2024409*
X2011045Y1588778D02*
X2019045D01*
X2015045Y1584778D02*
Y1592778D01*
X2017045Y1594059D02*
Y1590778D01*
X2018409*
X2025045Y1594778D02*
X2033045D01*
X2029045Y1590778D02*
Y1598778D01*
X2031045Y1600059D02*
Y1596778D01*
X2032409*
X2019045Y1594778D02*
X2027045D01*
X2023045Y1590778D02*
Y1598778D01*
X2025045Y1600059D02*
Y1596778D01*
X2026409*
X2013045Y1600778D02*
X2021045D01*
X2017045Y1596778D02*
Y1604778D01*
X2019045Y1606059D02*
Y1602778D01*
X2020409*
X2019045Y1600778D02*
X2027045D01*
X2023045Y1596778D02*
Y1604778D01*
X2025045Y1606059D02*
Y1602778D01*
X2026409*
X2025045Y1600778D02*
X2033045D01*
X2029045Y1596778D02*
Y1604778D01*
X2031045Y1606059D02*
Y1602778D01*
X2032409*
X2025045Y1606778D02*
X2033045D01*
X2029045Y1602778D02*
Y1610778D01*
X2031045Y1612059D02*
Y1608778D01*
X2032409*
X2023045Y1624778D02*
X2031045D01*
X2027045Y1620778D02*
Y1628778D01*
X2029045Y1630059D02*
Y1626778D01*
X2030409*
X2017045Y1624778D02*
X2025045D01*
X2021045Y1620778D02*
Y1628778D01*
X2023045Y1630059D02*
Y1626778D01*
X2024409*
X2011045Y1624778D02*
X2019045D01*
X2015045Y1620778D02*
Y1628778D01*
X2017045Y1630059D02*
Y1626778D01*
X2018409*
X2079545Y1618778D02*
X2083545Y1622778D01*
X2079545Y1626778*
X2075545Y1622778*
X2079545Y1618778*
Y1622778D02*
Y1626778D01*
X2084545Y1608278D02*
X2088545Y1612278D01*
X2084545Y1616278*
X2080545Y1612278*
X2084545Y1608278*
Y1612278D02*
Y1616278D01*
X2084045Y1603278D02*
X2088045Y1607278D01*
X2084045Y1611278*
X2080045Y1607278*
X2084045Y1603278*
Y1607278D02*
Y1611278D01*
X2083545Y1598278D02*
X2087545Y1602278D01*
X2083545Y1606278*
X2079545Y1602278*
X2083545Y1598278*
Y1602278D02*
Y1606278D01*
X2079045Y1598278D02*
X2083045Y1602278D01*
X2079045Y1606278*
X2075045Y1602278*
X2079045Y1598278*
Y1602278D02*
Y1606278D01*
Y1603278D02*
X2083045Y1607278D01*
X2079045Y1611278*
X2075045Y1607278*
X2079045Y1603278*
Y1607278D02*
Y1611278D01*
Y1613278D02*
X2083045Y1617278D01*
X2079045Y1621278*
X2075045Y1617278*
X2079045Y1613278*
Y1617278D02*
Y1621278D01*
Y1608278D02*
X2083045Y1612278D01*
X2079045Y1616278*
X2075045Y1612278*
X2079045Y1608278*
Y1612278D02*
Y1616278D01*
X2203045Y1588778D02*
X2211045D01*
X2207045Y1584778D02*
Y1592778D01*
X2209045Y1594059D02*
Y1590778D01*
X2210409*
X2203045Y1600778D02*
X2211045D01*
X2207045Y1596778D02*
Y1604778D01*
X2209045Y1606059D02*
Y1602778D01*
X2210409*
X2203045Y1594778D02*
X2211045D01*
X2207045Y1590778D02*
Y1598778D01*
X2209045Y1600059D02*
Y1596778D01*
X2210409*
X2235045Y1588778D02*
X2243045D01*
X2239045Y1584778D02*
Y1592778D01*
X2241045Y1594059D02*
Y1590778D01*
X2242409*
X2247045Y1588778D02*
X2255045D01*
X2251045Y1584778D02*
Y1592778D01*
X2253045Y1594059D02*
Y1590778D01*
X2254409*
X2247045Y1594778D02*
X2255045D01*
X2251045Y1590778D02*
Y1598778D01*
X2253045Y1600059D02*
Y1596778D01*
X2254409*
X2247045Y1600778D02*
X2255045D01*
X2251045Y1596778D02*
Y1604778D01*
X2253045Y1606059D02*
Y1602778D01*
X2254409*
X2235045Y1594778D02*
X2243045D01*
X2239045Y1590778D02*
Y1598778D01*
X2241045Y1600059D02*
Y1596778D01*
X2242409*
X2229045Y1588778D02*
X2237045D01*
X2233045Y1584778D02*
Y1592778D01*
X2235045Y1594059D02*
Y1590778D01*
X2236409*
X2229045Y1600778D02*
X2237045D01*
X2233045Y1596778D02*
Y1604778D01*
X2235045Y1606059D02*
Y1602778D01*
X2236409*
X2235045Y1600778D02*
X2243045D01*
X2239045Y1596778D02*
Y1604778D01*
X2241045Y1606059D02*
Y1602778D01*
X2242409*
X2223045Y1588778D02*
X2231045D01*
X2227045Y1584778D02*
Y1592778D01*
X2229045Y1594059D02*
Y1590778D01*
X2230409*
X2217045Y1600778D02*
X2225045D01*
X2221045Y1596778D02*
Y1604778D01*
X2223045Y1606059D02*
Y1602778D01*
X2224409*
X2241045Y1600778D02*
X2249045D01*
X2245045Y1596778D02*
Y1604778D01*
X2247045Y1606059D02*
Y1602778D01*
X2248409*
X2209045Y1588778D02*
X2217045D01*
X2213045Y1584778D02*
Y1592778D01*
X2215045Y1594059D02*
Y1590778D01*
X2216409*
X2217045Y1588778D02*
X2225045D01*
X2221045Y1584778D02*
Y1592778D01*
X2223045Y1594059D02*
Y1590778D01*
X2224409*
X2229045Y1594778D02*
X2237045D01*
X2233045Y1590778D02*
Y1598778D01*
X2235045Y1600059D02*
Y1596778D01*
X2236409*
X2241045Y1588778D02*
X2249045D01*
X2245045Y1584778D02*
Y1592778D01*
X2247045Y1594059D02*
Y1590778D01*
X2248409*
X2209045Y1600778D02*
X2217045D01*
X2213045Y1596778D02*
Y1604778D01*
X2215045Y1606059D02*
Y1602778D01*
X2216409*
X2217045Y1594778D02*
X2225045D01*
X2221045Y1590778D02*
Y1598778D01*
X2223045Y1600059D02*
Y1596778D01*
X2224409*
X2223045Y1600778D02*
X2231045D01*
X2227045Y1596778D02*
Y1604778D01*
X2229045Y1606059D02*
Y1602778D01*
X2230409*
X2241045Y1594778D02*
X2249045D01*
X2245045Y1590778D02*
Y1598778D01*
X2247045Y1600059D02*
Y1596778D01*
X2248409*
X2209045Y1594778D02*
X2217045D01*
X2213045Y1590778D02*
Y1598778D01*
X2215045Y1600059D02*
Y1596778D01*
X2216409*
X2223045Y1594778D02*
X2231045D01*
X2227045Y1590778D02*
Y1598778D01*
X2229045Y1600059D02*
Y1596778D01*
X2230409*
X2259045Y1594778D02*
X2267045D01*
X2263045Y1590778D02*
Y1598778D01*
X2265045Y1600059D02*
Y1596778D01*
X2266409*
X2259045Y1588778D02*
X2267045D01*
X2263045Y1584778D02*
Y1592778D01*
X2265045Y1594059D02*
Y1590778D01*
X2266409*
X2253045Y1594778D02*
X2261045D01*
X2257045Y1590778D02*
Y1598778D01*
X2259045Y1600059D02*
Y1596778D01*
X2260409*
X2253045Y1588778D02*
X2261045D01*
X2257045Y1584778D02*
Y1592778D01*
X2259045Y1594059D02*
Y1590778D01*
X2260409*
X2253045Y1600778D02*
X2261045D01*
X2257045Y1596778D02*
Y1604778D01*
X2259045Y1606059D02*
Y1602778D01*
X2260409*
X2283045Y1600778D02*
X2291045D01*
X2287045Y1596778D02*
Y1604778D01*
X2289045Y1606059D02*
Y1602778D01*
X2290409*
X2277045Y1600778D02*
X2285045D01*
X2281045Y1596778D02*
Y1604778D01*
X2283045Y1606059D02*
Y1602778D01*
X2284409*
X2259045Y1600778D02*
X2267045D01*
X2263045Y1596778D02*
Y1604778D01*
X2265045Y1606059D02*
Y1602778D01*
X2266409*
X2283045Y1588778D02*
X2291045D01*
X2287045Y1584778D02*
Y1592778D01*
X2289045Y1594059D02*
Y1590778D01*
X2290409*
X2277045Y1588778D02*
X2285045D01*
X2281045Y1584778D02*
Y1592778D01*
X2283045Y1594059D02*
Y1590778D01*
X2284409*
X2283045Y1594778D02*
X2291045D01*
X2287045Y1590778D02*
Y1598778D01*
X2289045Y1600059D02*
Y1596778D01*
X2290409*
X2277045Y1594778D02*
X2285045D01*
X2281045Y1590778D02*
Y1598778D01*
X2283045Y1600059D02*
Y1596778D01*
X2284409*
X2327045D02*
X2335045Y1604778D01*
X2327045D02*
X2335045Y1596778D01*
X2327045Y1592778D02*
X2335045Y1600778D01*
X2327045D02*
X2335045Y1592778D01*
X2307045Y1600778D02*
X2315045D01*
X2311045Y1596778D02*
Y1604778D01*
X2313045Y1606059D02*
Y1602778D01*
X2314409*
X2301045Y1600778D02*
X2309045D01*
X2305045Y1596778D02*
Y1604778D01*
X2307045Y1606059D02*
Y1602778D01*
X2308409*
X2295045Y1600778D02*
X2303045D01*
X2299045Y1596778D02*
Y1604778D01*
X2301045Y1606059D02*
Y1602778D01*
X2302409*
X2289045Y1600778D02*
X2297045D01*
X2293045Y1596778D02*
Y1604778D01*
X2295045Y1606059D02*
Y1602778D01*
X2296409*
X2327045Y1584778D02*
X2335045Y1592778D01*
X2327045D02*
X2335045Y1584778D01*
X2327045Y1588778D02*
X2335045Y1596778D01*
X2327045D02*
X2335045Y1588778D01*
X2307045D02*
X2315045D01*
X2311045Y1584778D02*
Y1592778D01*
X2313045Y1594059D02*
Y1590778D01*
X2314409*
X2301045Y1588778D02*
X2309045D01*
X2305045Y1584778D02*
Y1592778D01*
X2307045Y1594059D02*
Y1590778D01*
X2308409*
X2295045Y1588778D02*
X2303045D01*
X2299045Y1584778D02*
Y1592778D01*
X2301045Y1594059D02*
Y1590778D01*
X2302409*
X2289045Y1588778D02*
X2297045D01*
X2293045Y1584778D02*
Y1592778D01*
X2295045Y1594059D02*
Y1590778D01*
X2296409*
X2307045Y1594778D02*
X2315045D01*
X2311045Y1590778D02*
Y1598778D01*
X2313045Y1600059D02*
Y1596778D01*
X2314409*
X2301045Y1594778D02*
X2309045D01*
X2305045Y1590778D02*
Y1598778D01*
X2307045Y1600059D02*
Y1596778D01*
X2308409*
X2295045Y1594778D02*
X2303045D01*
X2299045Y1590778D02*
Y1598778D01*
X2301045Y1600059D02*
Y1596778D01*
X2302409*
X2289045Y1594778D02*
X2297045D01*
X2293045Y1590778D02*
Y1598778D01*
X2295045Y1600059D02*
Y1596778D01*
X2296409*
X1989045Y1647278D02*
X1997045Y1655278D01*
X1989045D02*
X1997045Y1647278D01*
X1999545Y1657278D02*
X2007545Y1665278D01*
X1999545D02*
X2007545Y1657278D01*
X1987045Y1637278D02*
X1995045Y1645278D01*
X1987045D02*
X1995045Y1637278D01*
X1980045D02*
X1988045Y1645278D01*
X1980045D02*
X1988045Y1637278D01*
X1991045Y1657278D02*
X1999045Y1665278D01*
X1991045D02*
X1999045Y1657278D01*
X2016045Y1640778D02*
X2024045Y1648778D01*
X2016045D02*
X2024045Y1640778D01*
Y1624778D02*
X2032045Y1632778D01*
X2024045D02*
X2032045Y1624778D01*
X2111045Y1635778D02*
X2119045D01*
X2115045Y1631778D02*
Y1639778D01*
X2117045Y1641059D02*
Y1637778D01*
Y1641059D02*
X2117954Y1637778D01*
X2118863Y1641059D02*
X2117954Y1637778D01*
X2118863Y1641059D02*
Y1637778D01*
X2111045Y1640778D02*
X2119045D01*
X2115045Y1636778D02*
Y1644778D01*
X2117045Y1646059D02*
Y1642778D01*
Y1646059D02*
X2117954Y1642778D01*
X2118863Y1646059D02*
X2117954Y1642778D01*
X2118863Y1646059D02*
Y1642778D01*
X2141545Y1658278D02*
X2149545D01*
X2145545Y1654278D02*
Y1662278D01*
X2147545Y1663559D02*
Y1660278D01*
X2148909*
X2136045Y1652278D02*
X2144045D01*
X2140045Y1648278D02*
Y1656278D01*
X2142045Y1657559D02*
Y1654278D01*
X2143409*
X2207045Y1634778D02*
X2215045D01*
X2211045Y1630778D02*
Y1638778D01*
X2213045Y1640059D02*
Y1636778D01*
X2214409*
X2201045Y1646778D02*
X2209045D01*
X2205045Y1642778D02*
Y1650778D01*
X2207045Y1652059D02*
Y1648778D01*
X2208409*
X2207045Y1640778D02*
X2215045D01*
X2211045Y1636778D02*
Y1644778D01*
X2213045Y1646059D02*
Y1642778D01*
X2214409*
X2207045Y1652778D02*
X2215045D01*
X2211045Y1648778D02*
Y1656778D01*
X2213045Y1658059D02*
Y1654778D01*
X2214409*
X2201045Y1652778D02*
X2209045D01*
X2205045Y1648778D02*
Y1656778D01*
X2207045Y1658059D02*
Y1654778D01*
X2208409*
X2195045Y1652778D02*
X2203045D01*
X2199045Y1648778D02*
Y1656778D01*
X2201045Y1658059D02*
Y1654778D01*
X2202409*
X2195045Y1658778D02*
X2203045D01*
X2199045Y1654778D02*
Y1662778D01*
X2201045Y1664059D02*
Y1660778D01*
X2202409*
X2201045Y1658778D02*
X2209045D01*
X2205045Y1654778D02*
Y1662778D01*
X2207045Y1664059D02*
Y1660778D01*
X2208409*
X2207045Y1658778D02*
X2215045D01*
X2211045Y1654778D02*
Y1662778D01*
X2213045Y1664059D02*
Y1660778D01*
X2214409*
X2207045Y1664778D02*
X2215045D01*
X2211045Y1660778D02*
Y1668778D01*
X2213045Y1670059D02*
Y1666778D01*
X2214409*
X2201045Y1664778D02*
X2209045D01*
X2205045Y1660778D02*
Y1668778D01*
X2207045Y1670059D02*
Y1666778D01*
X2208409*
X2195045Y1664778D02*
X2203045D01*
X2199045Y1660778D02*
Y1668778D01*
X2201045Y1670059D02*
Y1666778D01*
X2202409*
X2207045Y1646778D02*
X2215045D01*
X2211045Y1642778D02*
Y1650778D01*
X2213045Y1652059D02*
Y1648778D01*
X2214409*
X2213045Y1634778D02*
X2221045D01*
X2217045Y1630778D02*
Y1638778D01*
X2219045Y1640059D02*
Y1636778D01*
X2220409*
X2219045Y1634778D02*
X2227045D01*
X2223045Y1630778D02*
Y1638778D01*
X2225045Y1640059D02*
Y1636778D01*
X2226409*
X2225045Y1634778D02*
X2233045D01*
X2229045Y1630778D02*
Y1638778D01*
X2231045Y1640059D02*
Y1636778D01*
X2232409*
X2231045Y1634778D02*
X2239045D01*
X2235045Y1630778D02*
Y1638778D01*
X2237045Y1640059D02*
Y1636778D01*
X2238409*
X2237045Y1634778D02*
X2245045D01*
X2241045Y1630778D02*
Y1638778D01*
X2243045Y1640059D02*
Y1636778D01*
X2244409*
X2243045Y1634778D02*
X2251045D01*
X2247045Y1630778D02*
Y1638778D01*
X2249045Y1640059D02*
Y1636778D01*
X2250409*
X2243045Y1640778D02*
X2251045D01*
X2247045Y1636778D02*
Y1644778D01*
X2249045Y1646059D02*
Y1642778D01*
X2250409*
X2237045Y1640778D02*
X2245045D01*
X2241045Y1636778D02*
Y1644778D01*
X2243045Y1646059D02*
Y1642778D01*
X2244409*
X2231045Y1640778D02*
X2239045D01*
X2235045Y1636778D02*
Y1644778D01*
X2237045Y1646059D02*
Y1642778D01*
X2238409*
X2225045Y1640778D02*
X2233045D01*
X2229045Y1636778D02*
Y1644778D01*
X2231045Y1646059D02*
Y1642778D01*
X2232409*
X2219045Y1640778D02*
X2227045D01*
X2223045Y1636778D02*
Y1644778D01*
X2225045Y1646059D02*
Y1642778D01*
X2226409*
X2213045Y1640778D02*
X2221045D01*
X2217045Y1636778D02*
Y1644778D01*
X2219045Y1646059D02*
Y1642778D01*
X2220409*
X2243045Y1652778D02*
X2251045D01*
X2247045Y1648778D02*
Y1656778D01*
X2249045Y1658059D02*
Y1654778D01*
X2250409*
X2237045Y1652778D02*
X2245045D01*
X2241045Y1648778D02*
Y1656778D01*
X2243045Y1658059D02*
Y1654778D01*
X2244409*
X2231045Y1652778D02*
X2239045D01*
X2235045Y1648778D02*
Y1656778D01*
X2237045Y1658059D02*
Y1654778D01*
X2238409*
X2225045Y1652778D02*
X2233045D01*
X2229045Y1648778D02*
Y1656778D01*
X2231045Y1658059D02*
Y1654778D01*
X2232409*
X2219045Y1652778D02*
X2227045D01*
X2223045Y1648778D02*
Y1656778D01*
X2225045Y1658059D02*
Y1654778D01*
X2226409*
X2213045Y1652778D02*
X2221045D01*
X2217045Y1648778D02*
Y1656778D01*
X2219045Y1658059D02*
Y1654778D01*
X2220409*
X2213045Y1658778D02*
X2221045D01*
X2217045Y1654778D02*
Y1662778D01*
X2219045Y1664059D02*
Y1660778D01*
X2220409*
X2219045Y1658778D02*
X2227045D01*
X2223045Y1654778D02*
Y1662778D01*
X2225045Y1664059D02*
Y1660778D01*
X2226409*
X2225045Y1658778D02*
X2233045D01*
X2229045Y1654778D02*
Y1662778D01*
X2231045Y1664059D02*
Y1660778D01*
X2232409*
X2231045Y1658778D02*
X2239045D01*
X2235045Y1654778D02*
Y1662778D01*
X2237045Y1664059D02*
Y1660778D01*
X2238409*
X2237045Y1658778D02*
X2245045D01*
X2241045Y1654778D02*
Y1662778D01*
X2243045Y1664059D02*
Y1660778D01*
X2244409*
X2243045Y1658778D02*
X2251045D01*
X2247045Y1654778D02*
Y1662778D01*
X2249045Y1664059D02*
Y1660778D01*
X2250409*
X2243045Y1664778D02*
X2251045D01*
X2247045Y1660778D02*
Y1668778D01*
X2249045Y1670059D02*
Y1666778D01*
X2250409*
X2237045Y1664778D02*
X2245045D01*
X2241045Y1660778D02*
Y1668778D01*
X2243045Y1670059D02*
Y1666778D01*
X2244409*
X2231045Y1664778D02*
X2239045D01*
X2235045Y1660778D02*
Y1668778D01*
X2237045Y1670059D02*
Y1666778D01*
X2238409*
X2225045Y1664778D02*
X2233045D01*
X2229045Y1660778D02*
Y1668778D01*
X2231045Y1670059D02*
Y1666778D01*
X2232409*
X2219045Y1664778D02*
X2227045D01*
X2223045Y1660778D02*
Y1668778D01*
X2225045Y1670059D02*
Y1666778D01*
X2226409*
X2213045Y1664778D02*
X2221045D01*
X2217045Y1660778D02*
Y1668778D01*
X2219045Y1670059D02*
Y1666778D01*
X2220409*
X2243045Y1646778D02*
X2251045D01*
X2247045Y1642778D02*
Y1650778D01*
X2249045Y1652059D02*
Y1648778D01*
X2250409*
X2237045Y1646778D02*
X2245045D01*
X2241045Y1642778D02*
Y1650778D01*
X2243045Y1652059D02*
Y1648778D01*
X2244409*
X2231045Y1646778D02*
X2239045D01*
X2235045Y1642778D02*
Y1650778D01*
X2237045Y1652059D02*
Y1648778D01*
X2238409*
X2225045Y1646778D02*
X2233045D01*
X2229045Y1642778D02*
Y1650778D01*
X2231045Y1652059D02*
Y1648778D01*
X2232409*
X2219045Y1646778D02*
X2227045D01*
X2223045Y1642778D02*
Y1650778D01*
X2225045Y1652059D02*
Y1648778D01*
X2226409*
X2213045Y1646778D02*
X2221045D01*
X2217045Y1642778D02*
Y1650778D01*
X2219045Y1652059D02*
Y1648778D01*
X2220409*
X2277045Y1646778D02*
X2285045D01*
X2281045Y1642778D02*
Y1650778D01*
X2283045Y1652059D02*
Y1648778D01*
X2284409*
X2283045Y1634778D02*
X2291045D01*
X2287045Y1630778D02*
Y1638778D01*
X2289045Y1640059D02*
Y1636778D01*
X2290409*
X2277045Y1634778D02*
X2285045D01*
X2281045Y1630778D02*
Y1638778D01*
X2283045Y1640059D02*
Y1636778D01*
X2284409*
X2249045Y1634778D02*
X2257045D01*
X2253045Y1630778D02*
Y1638778D01*
X2255045Y1640059D02*
Y1636778D01*
X2256409*
X2255045Y1634778D02*
X2263045D01*
X2259045Y1630778D02*
Y1638778D01*
X2261045Y1640059D02*
Y1636778D01*
X2262409*
X2255045Y1640778D02*
X2263045D01*
X2259045Y1636778D02*
Y1644778D01*
X2261045Y1646059D02*
Y1642778D01*
X2262409*
X2249045Y1640778D02*
X2257045D01*
X2253045Y1636778D02*
Y1644778D01*
X2255045Y1646059D02*
Y1642778D01*
X2256409*
X2283045Y1646778D02*
X2291045D01*
X2287045Y1642778D02*
Y1650778D01*
X2289045Y1652059D02*
Y1648778D01*
X2290409*
X2265045Y1649778D02*
X2273045D01*
X2269045Y1645778D02*
Y1653778D01*
X2271045Y1655059D02*
Y1651778D01*
X2272409*
X2271045Y1649778D02*
X2279045D01*
X2275045Y1645778D02*
Y1653778D01*
X2277045Y1655059D02*
Y1651778D01*
X2278409*
X2255045Y1652778D02*
X2263045D01*
X2259045Y1648778D02*
Y1656778D01*
X2261045Y1658059D02*
Y1654778D01*
X2262409*
X2249045Y1652778D02*
X2257045D01*
X2253045Y1648778D02*
Y1656778D01*
X2255045Y1658059D02*
Y1654778D01*
X2256409*
X2249045Y1658778D02*
X2257045D01*
X2253045Y1654778D02*
Y1662778D01*
X2255045Y1664059D02*
Y1660778D01*
X2256409*
X2255045Y1658778D02*
X2263045D01*
X2259045Y1654778D02*
Y1662778D01*
X2261045Y1664059D02*
Y1660778D01*
X2262409*
X2255045Y1664778D02*
X2263045D01*
X2259045Y1660778D02*
Y1668778D01*
X2261045Y1670059D02*
Y1666778D01*
X2262409*
X2249045Y1664778D02*
X2257045D01*
X2253045Y1660778D02*
Y1668778D01*
X2255045Y1670059D02*
Y1666778D01*
X2256409*
X2255045Y1646778D02*
X2263045D01*
X2259045Y1642778D02*
Y1650778D01*
X2261045Y1652059D02*
Y1648778D01*
X2262409*
X2249045Y1646778D02*
X2257045D01*
X2253045Y1642778D02*
Y1650778D01*
X2255045Y1652059D02*
Y1648778D01*
X2256409*
X2279045Y1652778D02*
X2287045D01*
X2283045Y1648778D02*
Y1656778D01*
X2285045Y1658059D02*
Y1654778D01*
X2286409*
X2277045Y1640778D02*
X2285045D01*
X2281045Y1636778D02*
Y1644778D01*
X2283045Y1646059D02*
Y1642778D01*
X2284409*
X2283045Y1640778D02*
X2291045D01*
X2287045Y1636778D02*
Y1644778D01*
X2289045Y1646059D02*
Y1642778D01*
X2290409*
X2279045Y1664778D02*
X2287045D01*
X2283045Y1660778D02*
Y1668778D01*
X2285045Y1670059D02*
Y1666778D01*
X2286409*
X2279045Y1658778D02*
X2287045D01*
X2283045Y1654778D02*
Y1662778D01*
X2285045Y1664059D02*
Y1660778D01*
X2286409*
X2321045Y1650778D02*
X2329045D01*
X2325045Y1646778D02*
Y1654778D01*
X2327045Y1656059D02*
Y1652778D01*
X2328409*
X2315045Y1650778D02*
X2323045D01*
X2319045Y1646778D02*
Y1654778D01*
X2321045Y1656059D02*
Y1652778D01*
X2322409*
X2301045Y1646778D02*
X2309045D01*
X2305045Y1642778D02*
Y1650778D01*
X2307045Y1652059D02*
Y1648778D01*
X2308409*
X2289045Y1646778D02*
X2297045D01*
X2293045Y1642778D02*
Y1650778D01*
X2295045Y1652059D02*
Y1648778D01*
X2296409*
X2295045Y1646778D02*
X2303045D01*
X2299045Y1642778D02*
Y1650778D01*
X2301045Y1652059D02*
Y1648778D01*
X2302409*
X2327045Y1640778D02*
X2335045Y1648778D01*
X2327045D02*
X2335045Y1640778D01*
X2327045Y1634778D02*
X2335045Y1642778D01*
X2327045D02*
X2335045Y1634778D01*
X2327045Y1628778D02*
X2335045Y1636778D01*
X2327045D02*
X2335045Y1628778D01*
X2301045Y1634778D02*
X2309045D01*
X2305045Y1630778D02*
Y1638778D01*
X2307045Y1640059D02*
Y1636778D01*
X2308409*
X2307045Y1634778D02*
X2315045D01*
X2311045Y1630778D02*
Y1638778D01*
X2313045Y1640059D02*
Y1636778D01*
X2314409*
X2289045Y1634778D02*
X2297045D01*
X2293045Y1630778D02*
Y1638778D01*
X2295045Y1640059D02*
Y1636778D01*
X2296409*
X2295045Y1634778D02*
X2303045D01*
X2299045Y1630778D02*
Y1638778D01*
X2301045Y1640059D02*
Y1636778D01*
X2302409*
X2307045Y1640778D02*
X2315045D01*
X2311045Y1636778D02*
Y1644778D01*
X2313045Y1646059D02*
Y1642778D01*
X2314409*
X2307045Y1646778D02*
X2315045D01*
X2311045Y1642778D02*
Y1650778D01*
X2313045Y1652059D02*
Y1648778D01*
X2314409*
X2326545Y1650278D02*
X2334545D01*
X2330545Y1646278D02*
Y1654278D01*
X2332545Y1655559D02*
Y1652278D01*
X2333909*
X2327045Y1654778D02*
X2335045Y1662778D01*
X2327045D02*
X2335045Y1654778D01*
X2327045Y1660778D02*
X2335045Y1668778D01*
X2327045D02*
X2335045Y1660778D01*
X2309045Y1652778D02*
X2317045D01*
X2313045Y1648778D02*
Y1656778D01*
X2315045Y1658059D02*
Y1654778D01*
X2316409*
X2289045Y1640778D02*
X2297045D01*
X2293045Y1636778D02*
Y1644778D01*
X2295045Y1646059D02*
Y1642778D01*
X2296409*
X2295045Y1640778D02*
X2303045D01*
X2299045Y1636778D02*
Y1644778D01*
X2301045Y1646059D02*
Y1642778D01*
X2302409*
X2301045Y1640778D02*
X2309045D01*
X2305045Y1636778D02*
Y1644778D01*
X2307045Y1646059D02*
Y1642778D01*
X2308409*
X2309045Y1664778D02*
X2317045D01*
X2313045Y1660778D02*
Y1668778D01*
X2315045Y1670059D02*
Y1666778D01*
X2316409*
X2309045Y1658778D02*
X2317045D01*
X2313045Y1654778D02*
Y1662778D01*
X2315045Y1664059D02*
Y1660778D01*
X2316409*
X1963045Y1668778D02*
X1971045D01*
X1967045Y1664778D02*
Y1672778D01*
X1969045Y1674059D02*
Y1670778D01*
X1970409*
X1963045Y1674778D02*
X1971045D01*
X1967045Y1670778D02*
Y1678778D01*
X1969045Y1680059D02*
Y1676778D01*
X1970409*
X1976545Y1689278D02*
X1984545Y1697278D01*
X1976545D02*
X1984545Y1689278D01*
X1994545Y1703278D02*
X1998545Y1707278D01*
X1994545Y1711278*
X1990545Y1707278*
X1994545Y1703278*
Y1707278D02*
Y1711278D01*
X2047045Y1692778D02*
X2055045D01*
X2051045Y1688778D02*
Y1696778D01*
X2053045Y1698059D02*
Y1694778D01*
X2054409*
X2041045Y1692778D02*
X2049045D01*
X2045045Y1688778D02*
Y1696778D01*
X2047045Y1698059D02*
Y1694778D01*
X2048409*
X2043045Y1698778D02*
X2051045D01*
X2047045Y1694778D02*
Y1702778D01*
X2049045Y1704059D02*
Y1700778D01*
X2050409*
X2037045Y1698778D02*
X2045045D01*
X2041045Y1694778D02*
Y1702778D01*
X2043045Y1704059D02*
Y1700778D01*
X2044409*
X2035545Y1677778D02*
X2043545Y1685778D01*
X2035545D02*
X2043545Y1677778D01*
X2032045Y1696778D02*
X2040045Y1704778D01*
X2032045D02*
X2040045Y1696778D01*
X2023045Y1663778D02*
X2031045Y1671778D01*
X2023045D02*
X2031045Y1663778D01*
X2019045Y1694278D02*
X2027045Y1702278D01*
X2019045D02*
X2027045Y1694278D01*
X2028545Y1678278D02*
X2036545Y1686278D01*
X2028545D02*
X2036545Y1678278D01*
X2013045Y1664278D02*
X2021045Y1672278D01*
X2013045D02*
X2021045Y1664278D01*
X2061045Y1694778D02*
X2069045D01*
X2065045Y1690778D02*
Y1698778D01*
X2067045Y1700059D02*
Y1696778D01*
X2068409*
X2069045Y1694778D02*
X2077045D01*
X2073045Y1690778D02*
Y1698778D01*
X2075045Y1700059D02*
Y1696778D01*
X2076409*
X2073045Y1700778D02*
X2081045D01*
X2077045Y1696778D02*
Y1704778D01*
X2079045Y1706059D02*
Y1702778D01*
X2080409*
X2075045Y1694778D02*
X2083045D01*
X2079045Y1690778D02*
Y1698778D01*
X2081045Y1700059D02*
Y1696778D01*
X2082409*
X2083045Y1692778D02*
X2091045D01*
X2087045Y1688778D02*
Y1696778D01*
X2089045Y1698059D02*
Y1694778D01*
X2090409*
X2083045Y1676778D02*
X2091045D01*
X2087045Y1672778D02*
Y1680778D01*
X2089045Y1682059D02*
Y1678778D01*
X2090409*
X2077045Y1676778D02*
X2085045D01*
X2081045Y1672778D02*
Y1680778D01*
X2083045Y1682059D02*
Y1678778D01*
X2084409*
X2071045Y1676778D02*
X2079045D01*
X2075045Y1672778D02*
Y1680778D01*
X2077045Y1682059D02*
Y1678778D01*
X2078409*
X2057045D02*
X2065045D01*
X2061045Y1674778D02*
Y1682778D01*
X2063045Y1684059D02*
Y1680778D01*
X2064409*
X2053045Y1692778D02*
X2061045D01*
X2057045Y1688778D02*
Y1696778D01*
X2059045Y1698059D02*
Y1694778D01*
X2060409*
X2049045Y1698778D02*
X2057045D01*
X2053045Y1694778D02*
Y1702778D01*
X2055045Y1704059D02*
Y1700778D01*
X2056409*
X2076045Y1702778D02*
X2080045Y1706778D01*
X2076045Y1710778*
X2072045Y1706778*
X2076045Y1702778*
Y1706778D02*
Y1710778D01*
X2069045Y1669278D02*
X2073045Y1673278D01*
X2069045Y1677278*
X2065045Y1673278*
X2069045Y1669278*
Y1673278D02*
Y1677278D01*
X2101045Y1694778D02*
X2109045D01*
X2105045Y1690778D02*
Y1698778D01*
X2107045Y1700059D02*
Y1696778D01*
X2108409*
X2095045Y1692778D02*
X2103045D01*
X2099045Y1688778D02*
Y1696778D01*
X2101045Y1698059D02*
Y1694778D01*
X2102409*
X2123045Y1698778D02*
X2131045D01*
X2127045Y1694778D02*
Y1702778D01*
X2129045Y1704059D02*
Y1700778D01*
X2130409*
X2117045Y1698778D02*
X2125045D01*
X2121045Y1694778D02*
Y1702778D01*
X2123045Y1704059D02*
Y1700778D01*
X2124409*
X2111045Y1698778D02*
X2119045D01*
X2115045Y1694778D02*
Y1702778D01*
X2117045Y1704059D02*
Y1700778D01*
X2118409*
X2127045Y1704778D02*
X2135045D01*
X2131045Y1700778D02*
Y1708778D01*
X2133045Y1710059D02*
Y1706778D01*
X2134409*
X2121045Y1704778D02*
X2129045D01*
X2125045Y1700778D02*
Y1708778D01*
X2127045Y1710059D02*
Y1706778D01*
X2128409*
X2115045Y1704778D02*
X2123045D01*
X2119045Y1700778D02*
Y1708778D01*
X2121045Y1710059D02*
Y1706778D01*
X2122409*
X2109045Y1704778D02*
X2117045D01*
X2113045Y1700778D02*
Y1708778D01*
X2115045Y1710059D02*
Y1706778D01*
X2116409*
X2113045Y1676778D02*
X2121045D01*
X2117045Y1672778D02*
Y1680778D01*
X2119045Y1682059D02*
Y1678778D01*
X2120409*
X2107045Y1676778D02*
X2115045D01*
X2111045Y1672778D02*
Y1680778D01*
X2113045Y1682059D02*
Y1678778D01*
X2114409*
X2101045Y1676778D02*
X2109045D01*
X2105045Y1672778D02*
Y1680778D01*
X2107045Y1682059D02*
Y1678778D01*
X2108409*
X2095045Y1676778D02*
X2103045D01*
X2099045Y1672778D02*
Y1680778D01*
X2101045Y1682059D02*
Y1678778D01*
X2102409*
X2089045Y1676778D02*
X2097045D01*
X2093045Y1672778D02*
Y1680778D01*
X2095045Y1682059D02*
Y1678778D01*
X2096409*
X2201045Y1670778D02*
X2209045D01*
X2205045Y1666778D02*
Y1674778D01*
X2207045Y1676059D02*
Y1672778D01*
X2208409*
X2207045Y1670778D02*
X2215045D01*
X2211045Y1666778D02*
Y1674778D01*
X2213045Y1676059D02*
Y1672778D01*
X2214409*
X2207045Y1676778D02*
X2215045D01*
X2211045Y1672778D02*
Y1680778D01*
X2213045Y1682059D02*
Y1678778D01*
X2214409*
X2213045Y1670778D02*
X2221045D01*
X2217045Y1666778D02*
Y1674778D01*
X2219045Y1676059D02*
Y1672778D01*
X2220409*
X2219045Y1670778D02*
X2227045D01*
X2223045Y1666778D02*
Y1674778D01*
X2225045Y1676059D02*
Y1672778D01*
X2226409*
X2225045Y1670778D02*
X2233045D01*
X2229045Y1666778D02*
Y1674778D01*
X2231045Y1676059D02*
Y1672778D01*
X2232409*
X2231045Y1670778D02*
X2239045D01*
X2235045Y1666778D02*
Y1674778D01*
X2237045Y1676059D02*
Y1672778D01*
X2238409*
X2237045Y1670778D02*
X2245045D01*
X2241045Y1666778D02*
Y1674778D01*
X2243045Y1676059D02*
Y1672778D01*
X2244409*
X2243045Y1670778D02*
X2251045D01*
X2247045Y1666778D02*
Y1674778D01*
X2249045Y1676059D02*
Y1672778D01*
X2250409*
X2213045Y1682778D02*
X2221045D01*
X2217045Y1678778D02*
Y1686778D01*
X2219045Y1688059D02*
Y1684778D01*
X2220409*
X2219045Y1682778D02*
X2227045D01*
X2223045Y1678778D02*
Y1686778D01*
X2225045Y1688059D02*
Y1684778D01*
X2226409*
X2225045Y1682778D02*
X2233045D01*
X2229045Y1678778D02*
Y1686778D01*
X2231045Y1688059D02*
Y1684778D01*
X2232409*
X2231045Y1682778D02*
X2239045D01*
X2235045Y1678778D02*
Y1686778D01*
X2237045Y1688059D02*
Y1684778D01*
X2238409*
X2237045Y1682778D02*
X2245045D01*
X2241045Y1678778D02*
Y1686778D01*
X2243045Y1688059D02*
Y1684778D01*
X2244409*
X2243045Y1682778D02*
X2251045D01*
X2247045Y1678778D02*
Y1686778D01*
X2249045Y1688059D02*
Y1684778D01*
X2250409*
X2243045Y1688778D02*
X2251045D01*
X2247045Y1684778D02*
Y1692778D01*
X2249045Y1694059D02*
Y1690778D01*
X2250409*
X2237045Y1688778D02*
X2245045D01*
X2241045Y1684778D02*
Y1692778D01*
X2243045Y1694059D02*
Y1690778D01*
X2244409*
X2231045Y1688778D02*
X2239045D01*
X2235045Y1684778D02*
Y1692778D01*
X2237045Y1694059D02*
Y1690778D01*
X2238409*
X2225045Y1688778D02*
X2233045D01*
X2229045Y1684778D02*
Y1692778D01*
X2231045Y1694059D02*
Y1690778D01*
X2232409*
X2219045Y1688778D02*
X2227045D01*
X2223045Y1684778D02*
Y1692778D01*
X2225045Y1694059D02*
Y1690778D01*
X2226409*
X2231045Y1694778D02*
X2239045D01*
X2235045Y1690778D02*
Y1698778D01*
X2237045Y1700059D02*
Y1696778D01*
X2238409*
X2237045Y1694778D02*
X2245045D01*
X2241045Y1690778D02*
Y1698778D01*
X2243045Y1700059D02*
Y1696778D01*
X2244409*
X2225045Y1694778D02*
X2233045D01*
X2229045Y1690778D02*
Y1698778D01*
X2231045Y1700059D02*
Y1696778D01*
X2232409*
X2243045Y1694778D02*
X2251045D01*
X2247045Y1690778D02*
Y1698778D01*
X2249045Y1700059D02*
Y1696778D01*
X2250409*
X2237045Y1700778D02*
X2245045D01*
X2241045Y1696778D02*
Y1704778D01*
X2243045Y1706059D02*
Y1702778D01*
X2244409*
X2231045Y1700778D02*
X2239045D01*
X2235045Y1696778D02*
Y1704778D01*
X2237045Y1706059D02*
Y1702778D01*
X2238409*
X2243045Y1700778D02*
X2251045D01*
X2247045Y1696778D02*
Y1704778D01*
X2249045Y1706059D02*
Y1702778D01*
X2250409*
X2213045Y1676778D02*
X2221045D01*
X2217045Y1672778D02*
Y1680778D01*
X2219045Y1682059D02*
Y1678778D01*
X2220409*
X2219045Y1676778D02*
X2227045D01*
X2223045Y1672778D02*
Y1680778D01*
X2225045Y1682059D02*
Y1678778D01*
X2226409*
X2225045Y1676778D02*
X2233045D01*
X2229045Y1672778D02*
Y1680778D01*
X2231045Y1682059D02*
Y1678778D01*
X2232409*
X2231045Y1676778D02*
X2239045D01*
X2235045Y1672778D02*
Y1680778D01*
X2237045Y1682059D02*
Y1678778D01*
X2238409*
X2237045Y1676778D02*
X2245045D01*
X2241045Y1672778D02*
Y1680778D01*
X2243045Y1682059D02*
Y1678778D01*
X2244409*
X2243045Y1676778D02*
X2251045D01*
X2247045Y1672778D02*
Y1680778D01*
X2249045Y1682059D02*
Y1678778D01*
X2250409*
X2249045Y1670778D02*
X2257045D01*
X2253045Y1666778D02*
Y1674778D01*
X2255045Y1676059D02*
Y1672778D01*
X2256409*
X2255045Y1670778D02*
X2263045D01*
X2259045Y1666778D02*
Y1674778D01*
X2261045Y1676059D02*
Y1672778D01*
X2262409*
X2279045Y1682778D02*
X2287045D01*
X2283045Y1678778D02*
Y1686778D01*
X2285045Y1688059D02*
Y1684778D01*
X2286409*
X2285045Y1682778D02*
X2293045D01*
X2289045Y1678778D02*
Y1686778D01*
X2291045Y1688059D02*
Y1684778D01*
X2292409*
X2249045Y1682778D02*
X2257045D01*
X2253045Y1678778D02*
Y1686778D01*
X2255045Y1688059D02*
Y1684778D01*
X2256409*
X2255045Y1682778D02*
X2263045D01*
X2259045Y1678778D02*
Y1686778D01*
X2261045Y1688059D02*
Y1684778D01*
X2262409*
X2285045Y1688778D02*
X2293045D01*
X2289045Y1684778D02*
Y1692778D01*
X2291045Y1694059D02*
Y1690778D01*
X2292409*
X2279045Y1688778D02*
X2287045D01*
X2283045Y1684778D02*
Y1692778D01*
X2285045Y1694059D02*
Y1690778D01*
X2286409*
X2255045Y1688778D02*
X2263045D01*
X2259045Y1684778D02*
Y1692778D01*
X2261045Y1694059D02*
Y1690778D01*
X2262409*
X2249045Y1688778D02*
X2257045D01*
X2253045Y1684778D02*
Y1692778D01*
X2255045Y1694059D02*
Y1690778D01*
X2256409*
X2249045Y1694778D02*
X2257045D01*
X2253045Y1690778D02*
Y1698778D01*
X2255045Y1700059D02*
Y1696778D01*
X2256409*
X2255045Y1694778D02*
X2263045D01*
X2259045Y1690778D02*
Y1698778D01*
X2261045Y1700059D02*
Y1696778D01*
X2262409*
X2279045Y1694778D02*
X2287045D01*
X2283045Y1690778D02*
Y1698778D01*
X2285045Y1700059D02*
Y1696778D01*
X2286409*
X2285045Y1694778D02*
X2293045D01*
X2289045Y1690778D02*
Y1698778D01*
X2291045Y1700059D02*
Y1696778D01*
X2292409*
X2285045Y1700778D02*
X2293045D01*
X2289045Y1696778D02*
Y1704778D01*
X2291045Y1706059D02*
Y1702778D01*
X2292409*
X2279045Y1700778D02*
X2287045D01*
X2283045Y1696778D02*
Y1704778D01*
X2285045Y1706059D02*
Y1702778D01*
X2286409*
X2273045Y1700778D02*
X2281045D01*
X2277045Y1696778D02*
Y1704778D01*
X2279045Y1706059D02*
Y1702778D01*
X2280409*
X2267045Y1700778D02*
X2275045D01*
X2271045Y1696778D02*
Y1704778D01*
X2273045Y1706059D02*
Y1702778D01*
X2274409*
X2255045Y1700778D02*
X2263045D01*
X2259045Y1696778D02*
Y1704778D01*
X2261045Y1706059D02*
Y1702778D01*
X2262409*
X2261045Y1700778D02*
X2269045D01*
X2265045Y1696778D02*
Y1704778D01*
X2267045Y1706059D02*
Y1702778D01*
X2268409*
X2249045Y1700778D02*
X2257045D01*
X2253045Y1696778D02*
Y1704778D01*
X2255045Y1706059D02*
Y1702778D01*
X2256409*
X2279045Y1670778D02*
X2287045D01*
X2283045Y1666778D02*
Y1674778D01*
X2285045Y1676059D02*
Y1672778D01*
X2286409*
X2249045Y1676778D02*
X2257045D01*
X2253045Y1672778D02*
Y1680778D01*
X2255045Y1682059D02*
Y1678778D01*
X2256409*
X2255045Y1676778D02*
X2263045D01*
X2259045Y1672778D02*
Y1680778D01*
X2261045Y1682059D02*
Y1678778D01*
X2262409*
X2261045Y1676778D02*
X2269045D01*
X2265045Y1672778D02*
Y1680778D01*
X2267045Y1682059D02*
Y1678778D01*
X2268409*
X2267045Y1676778D02*
X2275045D01*
X2271045Y1672778D02*
Y1680778D01*
X2273045Y1682059D02*
Y1678778D01*
X2274409*
X2273045Y1676778D02*
X2281045D01*
X2277045Y1672778D02*
Y1680778D01*
X2279045Y1682059D02*
Y1678778D01*
X2280409*
X2279045Y1676778D02*
X2287045D01*
X2283045Y1672778D02*
Y1680778D01*
X2285045Y1682059D02*
Y1678778D01*
X2286409*
X2285045Y1676778D02*
X2293045D01*
X2289045Y1672778D02*
Y1680778D01*
X2291045Y1682059D02*
Y1678778D01*
X2292409*
X2327045Y1690778D02*
X2335045Y1698778D01*
X2327045D02*
X2335045Y1690778D01*
X2327045Y1666778D02*
X2335045Y1674778D01*
X2327045D02*
X2335045Y1666778D01*
X2327045Y1676778D02*
X2335045D01*
X2331045Y1672778D02*
Y1680778D01*
X2333045Y1682059D02*
Y1678778D01*
X2334409*
X2321045Y1676778D02*
X2329045D01*
X2325045Y1672778D02*
Y1680778D01*
X2327045Y1682059D02*
Y1678778D01*
X2328409*
X2291045Y1682778D02*
X2299045D01*
X2295045Y1678778D02*
Y1686778D01*
X2297045Y1688059D02*
Y1684778D01*
X2298409*
X2297045Y1682778D02*
X2305045D01*
X2301045Y1678778D02*
Y1686778D01*
X2303045Y1688059D02*
Y1684778D01*
X2304409*
X2303045Y1682778D02*
X2311045D01*
X2307045Y1678778D02*
Y1686778D01*
X2309045Y1688059D02*
Y1684778D01*
X2310409*
X2309045Y1682778D02*
X2317045D01*
X2313045Y1678778D02*
Y1686778D01*
X2315045Y1688059D02*
Y1684778D01*
X2316409*
X2327045Y1678778D02*
X2335045Y1686778D01*
X2327045D02*
X2335045Y1678778D01*
X2327045Y1684778D02*
X2335045Y1692778D01*
X2327045D02*
X2335045Y1684778D01*
X2309045Y1688778D02*
X2317045D01*
X2313045Y1684778D02*
Y1692778D01*
X2315045Y1694059D02*
Y1690778D01*
X2316409*
X2303045Y1688778D02*
X2311045D01*
X2307045Y1684778D02*
Y1692778D01*
X2309045Y1694059D02*
Y1690778D01*
X2310409*
X2297045Y1688778D02*
X2305045D01*
X2301045Y1684778D02*
Y1692778D01*
X2303045Y1694059D02*
Y1690778D01*
X2304409*
X2291045Y1688778D02*
X2299045D01*
X2295045Y1684778D02*
Y1692778D01*
X2297045Y1694059D02*
Y1690778D01*
X2298409*
X2291045Y1694778D02*
X2299045D01*
X2295045Y1690778D02*
Y1698778D01*
X2297045Y1700059D02*
Y1696778D01*
X2298409*
X2297045Y1694778D02*
X2305045D01*
X2301045Y1690778D02*
Y1698778D01*
X2303045Y1700059D02*
Y1696778D01*
X2304409*
X2303045Y1694778D02*
X2311045D01*
X2307045Y1690778D02*
Y1698778D01*
X2309045Y1700059D02*
Y1696778D01*
X2310409*
X2309045Y1694778D02*
X2317045D01*
X2313045Y1690778D02*
Y1698778D01*
X2315045Y1700059D02*
Y1696778D01*
X2316409*
X2327045Y1700778D02*
X2335045D01*
X2331045Y1696778D02*
Y1704778D01*
X2333045Y1706059D02*
Y1702778D01*
X2334409*
X2321045Y1700778D02*
X2329045D01*
X2325045Y1696778D02*
Y1704778D01*
X2327045Y1706059D02*
Y1702778D01*
X2328409*
X2315045Y1700778D02*
X2323045D01*
X2319045Y1696778D02*
Y1704778D01*
X2321045Y1706059D02*
Y1702778D01*
X2322409*
X2309045Y1700778D02*
X2317045D01*
X2313045Y1696778D02*
Y1704778D01*
X2315045Y1706059D02*
Y1702778D01*
X2316409*
X2303045Y1700778D02*
X2311045D01*
X2307045Y1696778D02*
Y1704778D01*
X2309045Y1706059D02*
Y1702778D01*
X2310409*
X2297045Y1700778D02*
X2305045D01*
X2301045Y1696778D02*
Y1704778D01*
X2303045Y1706059D02*
Y1702778D01*
X2304409*
X2291045Y1700778D02*
X2299045D01*
X2295045Y1696778D02*
Y1704778D01*
X2297045Y1706059D02*
Y1702778D01*
X2298409*
X2309045Y1670778D02*
X2317045D01*
X2313045Y1666778D02*
Y1674778D01*
X2315045Y1676059D02*
Y1672778D01*
X2316409*
X2291045Y1676778D02*
X2299045D01*
X2295045Y1672778D02*
Y1680778D01*
X2297045Y1682059D02*
Y1678778D01*
X2298409*
X2297045Y1676778D02*
X2305045D01*
X2301045Y1672778D02*
Y1680778D01*
X2303045Y1682059D02*
Y1678778D01*
X2304409*
X2303045Y1676778D02*
X2311045D01*
X2307045Y1672778D02*
Y1680778D01*
X2309045Y1682059D02*
Y1678778D01*
X2310409*
X2309045Y1676778D02*
X2317045D01*
X2313045Y1672778D02*
Y1680778D01*
X2315045Y1682059D02*
Y1678778D01*
X2316409*
X2315045Y1676778D02*
X2323045D01*
X2319045Y1672778D02*
Y1680778D01*
X2321045Y1682059D02*
Y1678778D01*
X2322409*
X1963045Y1728778D02*
X1971045D01*
X1967045Y1724778D02*
Y1732778D01*
X1969045Y1734059D02*
Y1730778D01*
X1970409*
X1963045Y1734778D02*
X1971045D01*
X1967045Y1730778D02*
Y1738778D01*
X1969045Y1740059D02*
Y1736778D01*
X1970409*
X1975045Y1728778D02*
X1983045D01*
X1979045Y1724778D02*
Y1732778D01*
X1981045Y1734059D02*
Y1730778D01*
X1982409*
X1969045Y1728778D02*
X1977045D01*
X1973045Y1724778D02*
Y1732778D01*
X1975045Y1734059D02*
Y1730778D01*
X1976409*
X1975045Y1734778D02*
X1983045D01*
X1979045Y1730778D02*
Y1738778D01*
X1981045Y1740059D02*
Y1736778D01*
X1982409*
X1969045Y1734778D02*
X1977045D01*
X1973045Y1730778D02*
Y1738778D01*
X1975045Y1740059D02*
Y1736778D01*
X1976409*
X1982045Y1711278D02*
X1990045Y1719278D01*
X1982045D02*
X1990045Y1711278D01*
X2001045Y1713278D02*
X2009045Y1721278D01*
X2001045D02*
X2009045Y1713278D01*
X2047045Y1720778D02*
X2055045D01*
X2051045Y1716778D02*
Y1724778D01*
X2053045Y1726059D02*
Y1722778D01*
X2054409*
X2041045Y1720778D02*
X2049045D01*
X2045045Y1716778D02*
Y1724778D01*
X2047045Y1726059D02*
Y1722778D01*
X2048409*
X2035045Y1720778D02*
X2043045D01*
X2039045Y1716778D02*
Y1724778D01*
X2041045Y1726059D02*
Y1722778D01*
X2042409*
X2029045Y1720778D02*
X2037045D01*
X2033045Y1716778D02*
Y1724778D01*
X2035045Y1726059D02*
Y1722778D01*
X2036409*
X2023045Y1720778D02*
X2031045D01*
X2027045Y1716778D02*
Y1724778D01*
X2029045Y1726059D02*
Y1722778D01*
X2030409*
X2045045Y1726778D02*
X2053045D01*
X2049045Y1722778D02*
Y1730778D01*
X2051045Y1732059D02*
Y1728778D01*
X2052409*
X2039045Y1726778D02*
X2047045D01*
X2043045Y1722778D02*
Y1730778D01*
X2045045Y1732059D02*
Y1728778D01*
X2046409*
X2033045Y1726778D02*
X2041045D01*
X2037045Y1722778D02*
Y1730778D01*
X2039045Y1732059D02*
Y1728778D01*
X2040409*
X2027045Y1726778D02*
X2035045D01*
X2031045Y1722778D02*
Y1730778D01*
X2033045Y1732059D02*
Y1728778D01*
X2034409*
X2021045Y1726778D02*
X2029045D01*
X2025045Y1722778D02*
Y1730778D01*
X2027045Y1732059D02*
Y1728778D01*
X2028409*
X2015045Y1720778D02*
X2023045D01*
X2019045Y1716778D02*
Y1724778D01*
X2021045Y1726059D02*
Y1722778D01*
X2022409*
X2015045Y1726778D02*
X2023045D01*
X2019045Y1722778D02*
Y1730778D01*
X2021045Y1732059D02*
Y1728778D01*
X2022409*
X2015045Y1734778D02*
X2023045D01*
X2019045Y1730778D02*
Y1738778D01*
X2021045Y1740059D02*
Y1736778D01*
X2022409*
X2035045Y1740278D02*
X2043045Y1748278D01*
X2035045D02*
X2043045Y1740278D01*
X2013045Y1709778D02*
X2021045Y1717778D01*
X2013045D02*
X2021045Y1709778D01*
X2076545Y1742778D02*
X2084545D01*
X2080545Y1738778D02*
Y1746778D01*
X2082545Y1748059D02*
Y1744778D01*
X2083909*
X2071045Y1742778D02*
X2079045D01*
X2075045Y1738778D02*
Y1746778D01*
X2077045Y1748059D02*
Y1744778D01*
X2078409*
X2065045Y1742778D02*
X2073045D01*
X2069045Y1738778D02*
Y1746778D01*
X2071045Y1748059D02*
Y1744778D01*
X2072409*
X2069045Y1731778D02*
X2077045Y1739778D01*
X2069045D02*
X2077045Y1731778D01*
X2079045Y1714778D02*
X2083045Y1718778D01*
X2079045Y1722778*
X2075045Y1718778*
X2079045Y1714778*
Y1718778D02*
Y1722778D01*
Y1706278D02*
X2083045Y1710278D01*
X2079045Y1714278*
X2075045Y1710278*
X2079045Y1706278*
Y1710278D02*
Y1714278D01*
X2069045Y1716278D02*
X2077045Y1724278D01*
X2069045D02*
X2077045Y1716278D01*
X2093045Y1746778D02*
X2101045D01*
X2097045Y1742778D02*
Y1750778D01*
X2099045Y1752059D02*
Y1748778D01*
X2100409*
X2115045Y1736778D02*
X2123045D01*
X2119045Y1732778D02*
Y1740778D01*
X2121045Y1742059D02*
Y1738778D01*
X2122409*
X2117045Y1742778D02*
X2125045D01*
X2121045Y1738778D02*
Y1746778D01*
X2123045Y1748059D02*
Y1744778D01*
X2124409*
X2109045Y1710778D02*
X2117045D01*
X2113045Y1706778D02*
Y1714778D01*
X2115045Y1716059D02*
Y1712778D01*
X2116409*
X2103045Y1710778D02*
X2111045D01*
X2107045Y1706778D02*
Y1714778D01*
X2109045Y1716059D02*
Y1712778D01*
X2110409*
X2097045Y1710778D02*
X2105045D01*
X2101045Y1706778D02*
Y1714778D01*
X2103045Y1716059D02*
Y1712778D01*
X2104409*
X2109045Y1716778D02*
X2117045D01*
X2113045Y1712778D02*
Y1720778D01*
X2115045Y1722059D02*
Y1718778D01*
X2116409*
X2103045Y1716778D02*
X2111045D01*
X2107045Y1712778D02*
Y1720778D01*
X2109045Y1722059D02*
Y1718778D01*
X2110409*
X2097045Y1716778D02*
X2105045D01*
X2101045Y1712778D02*
Y1720778D01*
X2103045Y1722059D02*
Y1718778D01*
X2104409*
X2109045Y1722778D02*
X2117045D01*
X2113045Y1718778D02*
Y1726778D01*
X2115045Y1728059D02*
Y1724778D01*
X2116409*
X2103045Y1722778D02*
X2111045D01*
X2107045Y1718778D02*
Y1726778D01*
X2109045Y1728059D02*
Y1724778D01*
X2110409*
X2097045Y1722778D02*
X2105045D01*
X2101045Y1718778D02*
Y1726778D01*
X2103045Y1728059D02*
Y1724778D01*
X2104409*
X2109045Y1735778D02*
X2117045Y1743778D01*
X2109045D02*
X2117045Y1735778D01*
X2095545Y1725278D02*
X2103545Y1733278D01*
X2095545D02*
X2103545Y1725278D01*
X2147045Y1720778D02*
X2155045D01*
X2151045Y1716778D02*
Y1724778D01*
X2153045Y1726059D02*
Y1722778D01*
X2154409*
X2153045Y1728778D02*
X2161045D01*
X2157045Y1724778D02*
Y1732778D01*
X2159045Y1734059D02*
Y1730778D01*
X2160409*
X2157045Y1734778D02*
X2165045D01*
X2161045Y1730778D02*
Y1738778D01*
X2163045Y1740059D02*
Y1736778D01*
X2164409*
X2146545Y1738278D02*
X2154545Y1746278D01*
X2146545D02*
X2154545Y1738278D01*
X2146545Y1724278D02*
X2154545Y1732278D01*
X2146545D02*
X2154545Y1724278D01*
X2233045Y1733278D02*
X2241045Y1741278D01*
X2233045D02*
X2241045Y1733278D01*
X2238545D02*
X2246545Y1741278D01*
X2238545D02*
X2246545Y1733278D01*
X2209045Y1734278D02*
X2217045D01*
X2213045Y1730278D02*
Y1738278D01*
X2215045Y1739559D02*
Y1736278D01*
X2216409*
X2214045Y1728778D02*
X2222045D01*
X2218045Y1724778D02*
Y1732778D01*
X2220045Y1734059D02*
Y1730778D01*
X2221409*
X2253045Y1727778D02*
X2261045Y1735778D01*
X2253045D02*
X2261045Y1727778D01*
X2295545Y1731778D02*
X2303545Y1739778D01*
X2295545D02*
X2303545Y1731778D01*
X1963045Y1780778D02*
X1971045D01*
X1967045Y1776778D02*
Y1784778D01*
X1969045Y1786059D02*
Y1782778D01*
X1970409*
X1963045Y1786778D02*
X1971045D01*
X1967045Y1782778D02*
Y1790778D01*
X1969045Y1792059D02*
Y1788778D01*
X1970409*
X1975045Y1780778D02*
X1983045D01*
X1979045Y1776778D02*
Y1784778D01*
X1981045Y1786059D02*
Y1782778D01*
X1982409*
X1969045Y1780778D02*
X1977045D01*
X1973045Y1776778D02*
Y1784778D01*
X1975045Y1786059D02*
Y1782778D01*
X1976409*
X1975045Y1786778D02*
X1983045D01*
X1979045Y1782778D02*
Y1790778D01*
X1981045Y1792059D02*
Y1788778D01*
X1982409*
X1969045Y1786778D02*
X1977045D01*
X1973045Y1782778D02*
Y1790778D01*
X1975045Y1792059D02*
Y1788778D01*
X1976409*
X2001045Y1748278D02*
X2009045Y1756278D01*
X2001045D02*
X2009045Y1748278D01*
X1989545Y1766778D02*
X1997545Y1774778D01*
X1989545D02*
X1997545Y1766778D01*
X2028045Y1753778D02*
X2036045Y1761778D01*
X2028045D02*
X2036045Y1753778D01*
X2024045D02*
X2032045Y1761778D01*
X2024045D02*
X2032045Y1753778D01*
X2020045D02*
X2028045Y1761778D01*
X2020045D02*
X2028045Y1753778D01*
X2025045Y1777278D02*
X2033045Y1785278D01*
X2025045D02*
X2033045Y1777278D01*
X2019545Y1770278D02*
X2027545Y1778278D01*
X2019545D02*
X2027545Y1770278D01*
X2010045D02*
X2018045Y1778278D01*
X2010045D02*
X2018045Y1770278D01*
X2077045Y1748778D02*
X2085045D01*
X2081045Y1744778D02*
Y1752778D01*
X2083045Y1754059D02*
Y1750778D01*
X2084409*
X2071045Y1748778D02*
X2079045D01*
X2075045Y1744778D02*
Y1752778D01*
X2077045Y1754059D02*
Y1750778D01*
X2078409*
X2065045Y1748778D02*
X2073045D01*
X2069045Y1744778D02*
Y1752778D01*
X2071045Y1754059D02*
Y1750778D01*
X2072409*
X2077045Y1754778D02*
X2085045D01*
X2081045Y1750778D02*
Y1758778D01*
X2083045Y1760059D02*
Y1756778D01*
X2084409*
X2077045Y1766778D02*
X2085045D01*
X2081045Y1762778D02*
Y1770778D01*
X2083045Y1772059D02*
Y1768778D01*
X2084409*
X2071045Y1754778D02*
X2079045D01*
X2075045Y1750778D02*
Y1758778D01*
X2077045Y1760059D02*
Y1756778D01*
X2078409*
X2065045Y1754778D02*
X2073045D01*
X2069045Y1750778D02*
Y1758778D01*
X2071045Y1760059D02*
Y1756778D01*
X2072409*
X2077045Y1760778D02*
X2085045D01*
X2081045Y1756778D02*
Y1764778D01*
X2083045Y1766059D02*
Y1762778D01*
X2084409*
X2065045Y1760778D02*
X2073045D01*
X2069045Y1756778D02*
Y1764778D01*
X2071045Y1766059D02*
Y1762778D01*
X2072409*
X2071045Y1760778D02*
X2079045D01*
X2075045Y1756778D02*
Y1764778D01*
X2077045Y1766059D02*
Y1762778D01*
X2078409*
X2071045Y1766778D02*
X2079045D01*
X2075045Y1762778D02*
Y1770778D01*
X2077045Y1772059D02*
Y1768778D01*
X2078409*
X2065045Y1766778D02*
X2073045D01*
X2069045Y1762778D02*
Y1770778D01*
X2071045Y1772059D02*
Y1768778D01*
X2072409*
X2075045Y1774778D02*
X2083045D01*
X2079045Y1770778D02*
Y1778778D01*
X2081045Y1780059D02*
Y1776778D01*
X2082409*
X2050045Y1765278D02*
X2058045Y1773278D01*
X2050045D02*
X2058045Y1765278D01*
X2081045Y1769778D02*
X2089045Y1777778D01*
X2081045D02*
X2089045Y1769778D01*
X2058545Y1772778D02*
X2066545Y1780778D01*
X2058545D02*
X2066545Y1772778D01*
X2096045Y1783778D02*
X2104045D01*
X2100045Y1779778D02*
Y1787778D01*
X2102045Y1789059D02*
Y1785778D01*
X2103409*
X2091045Y1770778D02*
X2099045D01*
X2095045Y1766778D02*
Y1774778D01*
X2097045Y1776059D02*
Y1772778D01*
X2098409*
X2093545Y1751278D02*
X2101545Y1759278D01*
X2093545D02*
X2101545Y1751278D01*
X2127045Y1775778D02*
X2135045Y1783778D01*
X2127045D02*
X2135045Y1775778D01*
X2127045Y1761778D02*
X2135045Y1769778D01*
X2127045D02*
X2135045Y1761778D01*
X2117045Y1745778D02*
X2125045Y1753778D01*
X2117045D02*
X2125045Y1745778D01*
X2153545Y1766278D02*
X2161545Y1774278D01*
X2153545D02*
X2161545Y1766278D01*
X2146045Y1751778D02*
X2154045Y1759778D01*
X2146045D02*
X2154045Y1751778D01*
X2199045Y1781278D02*
X2203045Y1785278D01*
X2199045Y1789278*
X2195045Y1785278*
X2199045Y1781278*
Y1785278D02*
Y1789278D01*
X2217045Y1744778D02*
X2225045Y1752778D01*
X2217045D02*
X2225045Y1744778D01*
X2221045Y1766778D02*
X2229045Y1774778D01*
X2221045D02*
X2229045Y1766778D01*
X2246545Y1762778D02*
X2254545D01*
X2250545Y1758778D02*
Y1766778D01*
X2252545Y1768059D02*
Y1764778D01*
X2253909*
X2221545Y1780778D02*
X2229545Y1788778D01*
X2221545D02*
X2229545Y1780778D01*
X2216045Y1762778D02*
X2224045D01*
X2220045Y1758778D02*
Y1766778D01*
X2222045Y1768059D02*
Y1764778D01*
X2223409*
X2285045Y1768778D02*
X2293045Y1776778D01*
X2285045D02*
X2293045Y1768778D01*
X2261045Y1772778D02*
X2269045Y1780778D01*
X2261045D02*
X2269045Y1772778D01*
X2247545Y1773778D02*
X2255545Y1781778D01*
X2247545D02*
X2255545Y1773778D01*
X2322545Y1779278D02*
X2330545Y1787278D01*
X2322545D02*
X2330545Y1779278D01*
X2314045Y1780778D02*
X2322045Y1788778D01*
X2314045D02*
X2322045Y1780778D01*
X2299045Y1786778D02*
X2307045D01*
X2303045Y1782778D02*
Y1790778D01*
X2305045Y1792059D02*
Y1788778D01*
X2306409*
X2290045Y1766278D02*
X2298045Y1774278D01*
X2290045D02*
X2298045Y1766278D01*
X2294045Y1782778D02*
X2302045Y1790778D01*
X2294045D02*
X2302045Y1782778D01*
X1983545Y1795778D02*
X1991545Y1803778D01*
X1983545D02*
X1991545Y1795778D01*
X1977545D02*
X1985545Y1803778D01*
X1977545D02*
X1985545Y1795778D01*
X1984045Y1805778D02*
X1992045Y1813778D01*
X1984045D02*
X1992045Y1805778D01*
X1978545D02*
X1986545Y1813778D01*
X1978545D02*
X1986545Y1805778D01*
X1981045Y1815278D02*
X1989045Y1823278D01*
X1981045D02*
X1989045Y1815278D01*
X1980545Y1800278D02*
X1988545Y1808278D01*
X1980545D02*
X1988545Y1800278D01*
X1976545Y1815278D02*
X1984545Y1823278D01*
X1976545D02*
X1984545Y1815278D01*
X1986045D02*
X1994045Y1823278D01*
X1986045D02*
X1994045Y1815278D01*
X1975545Y1800278D02*
X1983545Y1808278D01*
X1975545D02*
X1983545Y1800278D01*
X2001045Y1818778D02*
X2009045D01*
X2005045Y1814778D02*
Y1822778D01*
X2007045Y1824059D02*
Y1820778D01*
X2008409*
X1985045Y1800278D02*
X1993045Y1808278D01*
X1985045D02*
X1993045Y1800278D01*
X2046045Y1784278D02*
X2054045Y1792278D01*
X2046045D02*
X2054045Y1784278D01*
X2042545Y1788278D02*
X2050545Y1796278D01*
X2042545D02*
X2050545Y1788278D01*
X2015045Y1818778D02*
X2023045D01*
X2019045Y1814778D02*
Y1822778D01*
X2021045Y1824059D02*
Y1820778D01*
X2022409*
X2009045Y1818778D02*
X2017045D01*
X2013045Y1814778D02*
Y1822778D01*
X2015045Y1824059D02*
Y1820778D01*
X2016409*
X2031545Y1797778D02*
X2039545Y1805778D01*
X2031545D02*
X2039545Y1797778D01*
X2073545Y1820778D02*
X2081545Y1828778D01*
X2073545D02*
X2081545Y1820778D01*
X2082045Y1807778D02*
X2086045Y1811778D01*
X2082045Y1815778*
X2078045Y1811778*
X2082045Y1807778*
Y1811778D02*
Y1815778D01*
X2074045Y1790778D02*
X2082045Y1798778D01*
X2074045D02*
X2082045Y1790778D01*
X2085045Y1787278D02*
X2093045Y1795278D01*
X2085045D02*
X2093045Y1787278D01*
X2057045Y1804278D02*
X2065045Y1812278D01*
X2057045D02*
X2065045Y1804278D01*
X2057045Y1789278D02*
X2065045Y1797278D01*
X2057045D02*
X2065045Y1789278D01*
X2109545Y1819278D02*
X2117545Y1827278D01*
X2109545D02*
X2117545Y1819278D01*
X2106045Y1807778D02*
X2110045Y1811778D01*
X2106045Y1815778*
X2102045Y1811778*
X2106045Y1807778*
Y1811778D02*
Y1815778D01*
X2108545Y1797278D02*
X2112545Y1801278D01*
X2108545Y1805278*
X2104545Y1801278*
X2108545Y1797278*
Y1801278D02*
Y1805278D01*
X2112045Y1807778D02*
X2116045Y1811778D01*
X2112045Y1815778*
X2108045Y1811778*
X2112045Y1807778*
Y1811778D02*
Y1815778D01*
X2123545Y1787778D02*
X2131545Y1795778D01*
X2123545D02*
X2131545Y1787778D01*
X2101545Y1797278D02*
X2105545Y1801278D01*
X2101545Y1805278*
X2097545Y1801278*
X2101545Y1797278*
Y1801278D02*
Y1805278D01*
X2118045Y1789778D02*
X2122045Y1793778D01*
X2118045Y1797778*
X2114045Y1793778*
X2118045Y1789778*
Y1793778D02*
Y1797778D01*
Y1807778D02*
X2122045Y1811778D01*
X2118045Y1815778*
X2114045Y1811778*
X2118045Y1807778*
Y1811778D02*
Y1815778D01*
X2126545Y1792778D02*
X2130545Y1796778D01*
X2126545Y1800778*
X2122545Y1796778*
X2126545Y1792778*
Y1796778D02*
Y1800778D01*
X2148045Y1793778D02*
X2156045D01*
X2152045Y1789778D02*
Y1797778D01*
X2154045Y1799059D02*
Y1795778D01*
X2155409*
X2150545Y1801278D02*
X2158545Y1809278D01*
X2150545D02*
X2158545Y1801278D01*
X2201045Y1813778D02*
X2205045Y1817778D01*
X2201045Y1821778*
X2197045Y1817778*
X2201045Y1813778*
Y1817778D02*
Y1821778D01*
X2221045Y1815778D02*
X2229045Y1823778D01*
X2221045D02*
X2229045Y1815778D01*
X2239045Y1798778D02*
X2247045D01*
X2243045Y1794778D02*
Y1802778D01*
X2245045Y1804059D02*
Y1800778D01*
X2246409*
X2221045Y1819778D02*
X2225045Y1823778D01*
X2221045Y1827778*
X2217045Y1823778*
X2221045Y1819778*
Y1823778D02*
Y1827778D01*
Y1795778D02*
X2229045Y1803778D01*
X2221045D02*
X2229045Y1795778D01*
X2263045Y1810778D02*
X2271045Y1818778D01*
X2263045D02*
X2271045Y1810778D01*
X2255045D02*
X2263045Y1818778D01*
X2255045D02*
X2263045Y1810778D01*
X2257045Y1788278D02*
X2265045Y1796278D01*
X2257045D02*
X2265045Y1788278D01*
Y1798778D02*
X2273045Y1806778D01*
X2265045D02*
X2273045Y1798778D01*
X2259045Y1810778D02*
X2267045Y1818778D01*
X2259045D02*
X2267045Y1810778D01*
X2275045Y1818778*
X2267045D02*
X2275045Y1810778D01*
X2265045Y1804778D02*
X2273045Y1812778D01*
X2265045D02*
X2273045Y1804778D01*
X2308045Y1799278D02*
X2316045Y1807278D01*
X2308045D02*
X2316045Y1799278D01*
X2302045Y1804778D02*
X2310045Y1812778D01*
X2302045D02*
X2310045Y1804778D01*
X2306545Y1807778D02*
X2314545Y1815778D01*
X2306545D02*
X2314545Y1807778D01*
X2327045Y1807278D02*
X2335045Y1815278D01*
X2327045D02*
X2335045Y1807278D01*
X2326545Y1814278D02*
X2334545Y1822278D01*
X2326545D02*
X2334545Y1814278D01*
X2327045Y1820278D02*
X2335045Y1828278D01*
X2327045D02*
X2335045Y1820278D01*
X2297045Y1800778D02*
X2305045Y1808778D01*
X2297045D02*
X2305045Y1800778D01*
X2327545Y1786778D02*
X2335545Y1794778D01*
X2327545D02*
X2335545Y1786778D01*
X2327545Y1797778D02*
X2335545Y1805778D01*
X2327545D02*
X2335545Y1797778D01*
X1988545Y1835278D02*
X1996545Y1843278D01*
X1988545D02*
X1996545Y1835278D01*
X1983045D02*
X1991045Y1843278D01*
X1983045D02*
X1991045Y1835278D01*
X1977045D02*
X1985045Y1843278D01*
X1977045D02*
X1985045Y1835278D01*
X1988045Y1824778D02*
X1996045Y1832778D01*
X1988045D02*
X1996045Y1824778D01*
X1982045D02*
X1990045Y1832778D01*
X1982045D02*
X1990045Y1824778D01*
X1976545D02*
X1984545Y1832778D01*
X1976545D02*
X1984545Y1824778D01*
X2040045Y1862278D02*
X2048045Y1870278D01*
X2040045D02*
X2048045Y1862278D01*
X2040045Y1839778D02*
X2048045Y1847778D01*
X2040045D02*
X2048045Y1839778D01*
X2034045Y1854778D02*
X2042045Y1862778D01*
X2034045D02*
X2042045Y1854778D01*
X2057045Y1856778D02*
X2065045Y1864778D01*
X2057045D02*
X2065045Y1856778D01*
X2076045D02*
X2084045Y1864778D01*
X2076045D02*
X2084045Y1856778D01*
X2090545Y1823778D02*
X2098545Y1831778D01*
X2090545D02*
X2098545Y1823778D01*
X2111295Y1852278D02*
X2119295Y1860278D01*
X2111295D02*
X2119295Y1852278D01*
X2129045Y1848278D02*
X2133045Y1852278D01*
X2129045Y1856278*
X2125045Y1852278*
X2129045Y1848278*
Y1852278D02*
Y1856278D01*
X2096045Y1856778D02*
X2104045Y1864778D01*
X2096045D02*
X2104045Y1856778D01*
X2149045Y1838778D02*
X2157045D01*
X2153045Y1834778D02*
Y1842778D01*
X2155045Y1844059D02*
Y1840778D01*
X2156409*
X2161045Y1844778D02*
X2169045D01*
X2165045Y1840778D02*
Y1848778D01*
X2167045Y1850059D02*
Y1846778D01*
X2168409*
X2155045Y1844778D02*
X2163045D01*
X2159045Y1840778D02*
Y1848778D01*
X2161045Y1850059D02*
Y1846778D01*
X2162409*
X2149045Y1844778D02*
X2157045D01*
X2153045Y1840778D02*
Y1848778D01*
X2155045Y1850059D02*
Y1846778D01*
X2156409*
X2155045Y1862778D02*
X2163045D01*
X2159045Y1858778D02*
Y1866778D01*
X2161045Y1868059D02*
Y1864778D01*
X2162409*
X2134545Y1857278D02*
X2142545Y1865278D01*
X2134545D02*
X2142545Y1857278D01*
X2243545Y1837778D02*
X2251545Y1845778D01*
X2243545D02*
X2251545Y1837778D01*
X2225045Y1835778D02*
X2233045Y1843778D01*
X2225045D02*
X2233045Y1835778D01*
X2218045Y1847778D02*
X2226045D01*
X2222045Y1843778D02*
Y1851778D01*
X2224045Y1853059D02*
Y1849778D01*
X2225409*
X2233045Y1866278D02*
X2241045D01*
X2237045Y1862278D02*
Y1870278D01*
X2239045Y1871559D02*
Y1868278D01*
X2240409*
X2241545Y1823778D02*
X2245545Y1827778D01*
X2241545Y1831778*
X2237545Y1827778*
X2241545Y1823778*
Y1827778D02*
Y1831778D01*
X2225045Y1823778D02*
X2229045Y1827778D01*
X2225045Y1831778*
X2221045Y1827778*
X2225045Y1823778*
Y1827778D02*
Y1831778D01*
X2241545Y1829778D02*
X2245545Y1833778D01*
X2241545Y1837778*
X2237545Y1833778*
X2241545Y1829778*
Y1833778D02*
Y1837778D01*
X2215045Y1833778D02*
X2223045Y1841778D01*
X2215045D02*
X2223045Y1833778D01*
X2283045Y1856778D02*
X2291045Y1864778D01*
X2283045D02*
X2291045Y1856778D01*
X2277045D02*
X2285045Y1864778D01*
X2277045D02*
X2285045Y1856778D01*
X2253045Y1835278D02*
X2261045Y1843278D01*
X2253045D02*
X2261045Y1835278D01*
X2298045Y1849778D02*
X2306045Y1857778D01*
X2298045D02*
X2306045Y1849778D01*
X2305545Y1829278D02*
X2313545Y1837278D01*
X2305545D02*
X2313545Y1829278D01*
X2327045Y1835278D02*
X2335045Y1843278D01*
X2327045D02*
X2335045Y1835278D01*
X2327045Y1827278D02*
X2335045Y1835278D01*
X2327045D02*
X2335045Y1827278D01*
X2326545Y1848278D02*
X2334545Y1856278D01*
X2326545D02*
X2334545Y1848278D01*
X2289045Y1856778D02*
X2297045Y1864778D01*
X2289045D02*
X2297045Y1856778D01*
X2005045Y1886778D02*
X2013045D01*
X2009045Y1882778D02*
Y1890778D01*
X2011045Y1892059D02*
Y1888778D01*
X2012409*
X2005045Y1880778D02*
X2013045D01*
X2009045Y1876778D02*
Y1884778D01*
X2011045Y1886059D02*
Y1882778D01*
X2012409*
X2005045Y1874778D02*
X2013045D01*
X2009045Y1870778D02*
Y1878778D01*
X2011045Y1880059D02*
Y1876778D01*
X2012409*
X2047045Y1890778D02*
X2055045D01*
X2051045Y1886778D02*
Y1894778D01*
X2053045Y1896059D02*
Y1892778D01*
X2054409*
X2041045Y1890778D02*
X2049045D01*
X2045045Y1886778D02*
Y1894778D01*
X2047045Y1896059D02*
Y1892778D01*
X2048409*
X2035045Y1890778D02*
X2043045D01*
X2039045Y1886778D02*
Y1894778D01*
X2041045Y1896059D02*
Y1892778D01*
X2042409*
X2029045Y1890778D02*
X2037045D01*
X2033045Y1886778D02*
Y1894778D01*
X2035045Y1896059D02*
Y1892778D01*
X2036409*
X2023045Y1890778D02*
X2031045D01*
X2027045Y1886778D02*
Y1894778D01*
X2029045Y1896059D02*
Y1892778D01*
X2030409*
X2017045Y1890778D02*
X2025045D01*
X2021045Y1886778D02*
Y1894778D01*
X2023045Y1896059D02*
Y1892778D01*
X2024409*
X2011045Y1890778D02*
X2019045D01*
X2015045Y1886778D02*
Y1894778D01*
X2017045Y1896059D02*
Y1892778D01*
X2018409*
X2045045Y1872778D02*
X2053045D01*
X2049045Y1868778D02*
Y1876778D01*
X2051045Y1878059D02*
Y1874778D01*
X2052409*
X2039045Y1872778D02*
X2047045D01*
X2043045Y1868778D02*
Y1876778D01*
X2045045Y1878059D02*
Y1874778D01*
X2046409*
X2033045Y1872778D02*
X2041045D01*
X2037045Y1868778D02*
Y1876778D01*
X2039045Y1878059D02*
Y1874778D01*
X2040409*
X2075045Y1872778D02*
X2083045D01*
X2079045Y1868778D02*
Y1876778D01*
X2081045Y1878059D02*
Y1874778D01*
X2082409*
X2079045Y1876778D02*
X2087045D01*
X2083045Y1872778D02*
Y1880778D01*
X2085045Y1882059D02*
Y1878778D01*
X2086409*
X2071045Y1876778D02*
X2079045D01*
X2075045Y1872778D02*
Y1880778D01*
X2077045Y1882059D02*
Y1878778D01*
X2078409*
X2079045Y1884778D02*
X2087045D01*
X2083045Y1880778D02*
Y1888778D01*
X2085045Y1890059D02*
Y1886778D01*
X2086409*
X2071045Y1884778D02*
X2079045D01*
X2075045Y1880778D02*
Y1888778D01*
X2077045Y1890059D02*
Y1886778D01*
X2078409*
X2079045Y1890778D02*
X2087045D01*
X2083045Y1886778D02*
Y1894778D01*
X2085045Y1896059D02*
Y1892778D01*
X2086409*
X2071045Y1890778D02*
X2079045D01*
X2075045Y1886778D02*
Y1894778D01*
X2077045Y1896059D02*
Y1892778D01*
X2078409*
X2065045Y1890778D02*
X2073045D01*
X2069045Y1886778D02*
Y1894778D01*
X2071045Y1896059D02*
Y1892778D01*
X2072409*
X2059045Y1890778D02*
X2067045D01*
X2063045Y1886778D02*
Y1894778D01*
X2065045Y1896059D02*
Y1892778D01*
X2066409*
X2053045Y1890778D02*
X2061045D01*
X2057045Y1886778D02*
Y1894778D01*
X2059045Y1896059D02*
Y1892778D01*
X2060409*
X2051045Y1872778D02*
X2059045D01*
X2055045Y1868778D02*
Y1876778D01*
X2057045Y1878059D02*
Y1874778D01*
X2058409*
X2088045Y1871778D02*
X2092045Y1875778D01*
X2088045Y1879778*
X2084045Y1875778*
X2088045Y1871778*
Y1875778D02*
Y1879778D01*
X2110545Y1890778D02*
X2118545D01*
X2114545Y1886778D02*
Y1894778D01*
X2116545Y1896059D02*
Y1892778D01*
X2117909*
X2092045Y1891278D02*
X2100045D01*
X2096045Y1887278D02*
Y1895278D01*
X2098045Y1896559D02*
Y1893278D01*
X2099409*
X2103545Y1891278D02*
X2111545D01*
X2107545Y1887278D02*
Y1895278D01*
X2109545Y1896559D02*
Y1893278D01*
X2110909*
X2125045Y1876778D02*
X2133045D01*
X2129045Y1872778D02*
Y1880778D01*
X2131045Y1882059D02*
Y1878778D01*
X2132409*
X2125045Y1882778D02*
X2133045D01*
X2129045Y1878778D02*
Y1886778D01*
X2131045Y1888059D02*
Y1884778D01*
X2132409*
X2125045Y1888778D02*
X2133045D01*
X2129045Y1884778D02*
Y1892778D01*
X2131045Y1894059D02*
Y1890778D01*
X2132409*
X2107045Y1878778D02*
X2115045D01*
X2111045Y1874778D02*
Y1882778D01*
X2113045Y1884059D02*
Y1880778D01*
X2114409*
X2151045Y1867778D02*
X2159045D01*
X2155045Y1863778D02*
Y1871778D01*
X2157045Y1873059D02*
Y1869778D01*
X2158409*
X2165045Y1890778D02*
X2173045D01*
X2169045Y1886778D02*
Y1894778D01*
X2171045Y1896059D02*
Y1892778D01*
X2172409*
X2159045Y1890778D02*
X2167045D01*
X2163045Y1886778D02*
Y1894778D01*
X2165045Y1896059D02*
Y1892778D01*
X2166409*
X2153045Y1890778D02*
X2161045D01*
X2157045Y1886778D02*
Y1894778D01*
X2159045Y1896059D02*
Y1892778D01*
X2160409*
X2153045Y1884278D02*
X2161045D01*
X2157045Y1880278D02*
Y1888278D01*
X2159045Y1889559D02*
Y1886278D01*
X2160409*
X2225045Y1879278D02*
X2233045Y1887278D01*
X2225045D02*
X2233045Y1879278D01*
X2283045Y1886778D02*
X2291045Y1894778D01*
X2283045D02*
X2291045Y1886778D01*
X2277045D02*
X2285045Y1894778D01*
X2277045D02*
X2285045Y1886778D01*
X2271045D02*
X2279045Y1894778D01*
X2271045D02*
X2279045Y1886778D01*
X2265045D02*
X2273045Y1894778D01*
X2265045D02*
X2273045Y1886778D01*
X2259045D02*
X2267045Y1894778D01*
X2259045D02*
X2267045Y1886778D01*
X2289045D02*
X2297045Y1894778D01*
X2289045D02*
X2297045Y1886778D01*
X1663045Y1760778D02*
X1921045D01*
X1663045Y1736778D02*
X1921045D01*
X1663045Y1712778D02*
X1921045D01*
X1663045Y1688778D02*
X1921045D01*
X1663045Y1664778D02*
X1921045D01*
X1663045Y1640778D02*
X1921045D01*
X1663045Y1616778D02*
X1921045D01*
X1663045Y1592778D02*
X1921045D01*
X1663045Y1568778D02*
X1921045D01*
X1663045Y1544778D02*
X1921045D01*
X1663045Y1520778D02*
X1921045D01*
X1663045Y1496778D02*
X1921045D01*
X1663045Y1472778D02*
X1921045D01*
X1663045Y1448778D02*
X1921045D01*
X1663045Y1424778D02*
X1921045D01*
X1663045Y1400778D02*
X1921045D01*
X1663045Y1376778D02*
X1921045D01*
X1663045Y1352778D02*
X1921045D01*
X1663045Y1328778D02*
X1921045D01*
X1663045Y1304778D02*
X1921045D01*
X1663045Y1760778D02*
Y1304778D01*
X1747045Y1760778D02*
Y1304778D01*
X1783045Y1760778D02*
Y1304778D01*
X1819045Y1760778D02*
Y1304778D01*
X1873045Y1760778D02*
Y1304778D01*
X1921045Y1760778D02*
Y1304778D01*
X1691863Y1742778D02*
X1693409Y1745153D01*
X1693773Y1747153*
Y1750403*
X1694136Y1750653*
X1701227*
X1701591Y1750403*
Y1747778*
X1701227Y1747528*
X1693773*
X1697863D02*
X1698591Y1745778D01*
X1700500Y1743903*
X1702773Y1742778*
X1708591Y1745403D02*
X1707863Y1746653D01*
X1706773Y1747528*
X1705227Y1749278D02*
X1715318D01*
X1713136Y1751028D02*
Y1742778D01*
X1712773Y1742528*
X1710136Y1743028*
X1751863Y1745778D02*
X1757136D01*
X1756409D02*
X1755591Y1744278D01*
X1754500Y1743403*
X1752227Y1742528*
X1756409D02*
X1754500Y1743653D01*
X1752591Y1744278*
Y1744528*
X1753773Y1745403*
X1754500Y1746653*
Y1746903D02*
Y1751028D01*
X1752227D02*
X1752954Y1749778D01*
X1755591D02*
X1756409Y1751028D01*
X1757136Y1749278D02*
X1752227D01*
X1751863Y1747153D02*
X1753409Y1748028D01*
X1754500Y1749278*
X1756773Y1747778*
X1757500D02*
X1758227Y1749528D01*
Y1751028*
Y1749528D02*
X1763136D01*
X1762409D02*
X1761591Y1746903D01*
X1759773Y1743903*
X1757863Y1742528*
X1762773D02*
X1761227Y1743903D01*
X1759409Y1746903*
X1758591Y1749528*
X1765227Y1742778D02*
X1776136D01*
X1775318Y1743903D02*
X1765954D01*
X1766773Y1745403D02*
Y1747153D01*
X1767136Y1747528*
X1774591*
X1774954Y1747153*
Y1745403*
X1774591Y1745153*
X1767136*
X1766773Y1745403*
Y1746278D02*
X1774954D01*
X1770863Y1747528D02*
Y1742778D01*
X1765591Y1748403D02*
X1776500D01*
X1766773Y1749528D02*
Y1750653D01*
X1767136Y1751028*
X1774591*
X1774954Y1750653*
Y1749528*
X1774591Y1749278*
X1767136*
X1766773Y1749528*
Y1750153D02*
X1774954D01*
X1788591Y1746278D02*
X1790136Y1747528D01*
X1791227Y1748903*
X1790136Y1747528D02*
Y1742528D01*
X1794591Y1744528D02*
X1793136Y1746028D01*
X1792409Y1747528D02*
X1799136D01*
X1797591Y1748653D02*
Y1742778D01*
X1797227Y1742528*
X1795773Y1742778*
X1794591Y1744528D02*
X1793136Y1746028D01*
X1787863Y1749528D02*
X1789409Y1750403D01*
X1789773Y1751278*
X1789409Y1750403D02*
X1793500D01*
X1791954Y1749278D02*
X1790500Y1750403D01*
X1795409Y1751278D02*
X1794954Y1750403D01*
X1793863Y1749528*
X1794954Y1750403D02*
X1799136D01*
X1797591Y1749278D02*
X1796500Y1750403D01*
X1801227Y1746903D02*
X1811773D01*
X1804227D02*
X1803500Y1745403D01*
X1803863Y1745153*
X1809863*
X1810227Y1744903*
X1809863Y1742778*
X1809500Y1742528*
X1806500Y1742778*
X1803136Y1748653D02*
Y1750403D01*
X1803500Y1750653*
X1809863*
X1810227Y1750403*
Y1748653*
X1809863Y1748403*
X1803500*
X1803136Y1748653*
X1848545Y1748778D02*
Y1749153D01*
X1848818Y1749903*
X1849091Y1750278*
X1849636Y1750653*
X1850727*
X1851273Y1750278*
X1851545Y1749903*
X1851818Y1749153*
Y1748403*
X1851545Y1747653*
X1851273Y1747278*
X1850182Y1746528*
Y1745403*
Y1743528D02*
X1849909Y1743153D01*
X1850182Y1742778*
X1850454Y1743153*
X1850182Y1743528*
X1854273Y1748778D02*
Y1749153D01*
X1854545Y1749903*
X1854818Y1750278*
X1855363Y1750653*
X1856454*
X1857000Y1750278*
X1857273Y1749903*
X1857545Y1749153*
Y1748403*
X1857273Y1747653*
X1857000Y1747278*
X1855909Y1746528*
Y1745403*
Y1743528D02*
X1855636Y1743153D01*
X1855909Y1742778*
X1856182Y1743153*
X1855909Y1743528*
X1889727Y1750653D02*
Y1742778D01*
X1887818Y1750653D02*
X1891636D01*
X1895727D02*
X1895182Y1750278D01*
X1894636Y1749528*
X1894363Y1748778*
X1894091Y1747653*
Y1745778*
X1894363Y1744653*
X1894636Y1743903*
X1895182Y1743153*
X1895727Y1742778*
X1896818*
X1897363Y1743153*
X1897909Y1743903*
X1898182Y1744653*
X1898454Y1745778*
Y1747653*
X1898182Y1748778*
X1897909Y1749528*
X1897363Y1750278*
X1896818Y1750653*
X1895727*
X1900909D02*
Y1742778D01*
X1904182*
X1669045Y1725153D02*
X1669591Y1725528D01*
X1670409Y1726653*
Y1718778*
X1676136Y1725528D02*
X1675863Y1726278D01*
X1675045Y1726653*
X1674500*
X1673682Y1726278*
X1673136Y1725153*
X1672863Y1723278*
Y1721403*
X1673136Y1719903*
X1673682Y1719153*
X1674500Y1718778*
X1674773*
X1675591Y1719153*
X1676136Y1719903*
X1676409Y1721028*
Y1721403*
X1676136Y1722528*
X1675591Y1723278*
X1674773Y1723653*
X1674500*
X1673682Y1723278*
X1673136Y1722528*
X1672863Y1721403*
X1757045Y1725153D02*
X1757591Y1725528D01*
X1758409Y1726653*
Y1718778*
X1764682Y1726653D02*
X1761954Y1718778D01*
X1760863Y1726653D02*
X1764682D01*
X1768500D02*
X1767682Y1726278D01*
X1767409Y1725528*
Y1724778*
X1767682Y1724028*
X1768227Y1723653*
X1769318Y1723278*
X1770136Y1722903*
X1770682Y1722153*
X1770954Y1721403*
Y1720278*
X1770682Y1719528*
X1770409Y1719153*
X1769591Y1718778*
X1768500*
X1767682Y1719153*
X1767409Y1719528*
X1767136Y1720278*
Y1721403*
X1767409Y1722153*
X1767954Y1722903*
X1768773Y1723278*
X1769863Y1723653*
X1770409Y1724028*
X1770682Y1724778*
Y1725528*
X1770409Y1726278*
X1769591Y1726653*
X1768500*
X1795045Y1718778D02*
X1807045Y1730778D01*
X1795045D02*
X1807045Y1718778D01*
X1827682Y1726653D02*
X1829863Y1722903D01*
Y1718778*
X1832045Y1726653D02*
X1829863Y1722903D01*
X1834500Y1726653D02*
Y1718778D01*
Y1726653D02*
X1838045D01*
X1834500Y1722903D02*
X1836682D01*
X1834500Y1718778D02*
X1838045D01*
X1844318Y1725528D02*
X1843773Y1726278D01*
X1842954Y1726653*
X1841863*
X1841045Y1726278*
X1840500Y1725528*
Y1724778*
X1840773Y1724028*
X1841045Y1723653*
X1841591Y1723278*
X1843227Y1722528*
X1843773Y1722153*
X1844045Y1721778*
X1844318Y1721028*
Y1719903*
X1843773Y1719153*
X1842954Y1718778*
X1841863*
X1841045Y1719153*
X1840500Y1719903*
X1880863Y1725528D02*
Y1718778D01*
X1878409Y1722153D02*
X1883318D01*
X1890682Y1728153D02*
X1885773Y1716153D01*
X1893136Y1722153D02*
X1898045D01*
X1902136Y1726653D02*
X1901318Y1726278D01*
X1900773Y1725153*
X1900500Y1723278*
Y1722153*
X1900773Y1720278*
X1901318Y1719153*
X1902136Y1718778*
X1902682*
X1903500Y1719153*
X1904045Y1720278*
X1904318Y1722153*
Y1723278*
X1904045Y1725153*
X1903500Y1726278*
X1902682Y1726653*
X1902136*
X1907045Y1719528D02*
X1906773Y1719153D01*
X1907045Y1718778*
X1907318Y1719153*
X1907045Y1719528*
X1911409Y1726653D02*
X1910591Y1726278D01*
X1910045Y1725153*
X1909773Y1723278*
Y1722153*
X1910045Y1720278*
X1910591Y1719153*
X1911409Y1718778*
X1911954*
X1912773Y1719153*
X1913318Y1720278*
X1913591Y1722153*
Y1723278*
X1913318Y1725153*
X1912773Y1726278*
X1911954Y1726653*
X1911409*
X1669591Y1702653D02*
X1672591D01*
X1670954Y1699653*
X1671773*
X1672318Y1699278*
X1672591Y1698903*
X1672863Y1697778*
Y1697028*
X1672591Y1695903*
X1672045Y1695153*
X1671227Y1694778*
X1670409*
X1669591Y1695153*
X1669318Y1695528*
X1669045Y1696278*
X1678863Y1702653D02*
X1676136D01*
X1675863Y1699278*
X1676136Y1699653*
X1676954Y1700028*
X1677773*
X1678591Y1699653*
X1679136Y1698903*
X1679409Y1697778*
X1679136Y1697028*
X1678863Y1695903*
X1678318Y1695153*
X1677500Y1694778*
X1676682*
X1675863Y1695153*
X1675591Y1695528*
X1675318Y1696278*
X1760045Y1701153D02*
X1760591Y1701528D01*
X1761409Y1702653*
Y1694778*
X1766591Y1702653D02*
X1763863Y1697403D01*
X1767954*
X1766591Y1702653D02*
Y1694778D01*
X1795045D02*
X1807045D01*
Y1706778*
X1795045*
Y1694778*
X1801045Y1700778D02*
Y1706778D01*
X1827682Y1702653D02*
X1829863Y1698903D01*
Y1694778*
X1832045Y1702653D02*
X1829863Y1698903D01*
X1834500Y1702653D02*
Y1694778D01*
Y1702653D02*
X1838045D01*
X1834500Y1698903D02*
X1836682D01*
X1834500Y1694778D02*
X1838045D01*
X1844318Y1701528D02*
X1843773Y1702278D01*
X1842954Y1702653*
X1841863*
X1841045Y1702278*
X1840500Y1701528*
Y1700778*
X1840773Y1700028*
X1841045Y1699653*
X1841591Y1699278*
X1843227Y1698528*
X1843773Y1698153*
X1844045Y1697778*
X1844318Y1697028*
Y1695903*
X1843773Y1695153*
X1842954Y1694778*
X1841863*
X1841045Y1695153*
X1840500Y1695903*
X1880863Y1701528D02*
Y1694778D01*
X1878409Y1698153D02*
X1883318D01*
X1890682Y1704153D02*
X1885773Y1692153D01*
X1893136Y1698153D02*
X1898045D01*
X1902136Y1702653D02*
X1901318Y1702278D01*
X1900773Y1701153*
X1900500Y1699278*
Y1698153*
X1900773Y1696278*
X1901318Y1695153*
X1902136Y1694778*
X1902682*
X1903500Y1695153*
X1904045Y1696278*
X1904318Y1698153*
Y1699278*
X1904045Y1701153*
X1903500Y1702278*
X1902682Y1702653*
X1902136*
X1907045Y1695528D02*
X1906773Y1695153D01*
X1907045Y1694778*
X1907318Y1695153*
X1907045Y1695528*
X1911409Y1702653D02*
X1910591Y1702278D01*
X1910045Y1701153*
X1909773Y1699278*
Y1698153*
X1910045Y1696278*
X1910591Y1695153*
X1911409Y1694778*
X1911954*
X1912773Y1695153*
X1913318Y1696278*
X1913591Y1698153*
Y1699278*
X1913318Y1701153*
X1912773Y1702278*
X1911954Y1702653*
X1911409*
X1669045Y1677153D02*
X1669591Y1677528D01*
X1670409Y1678653*
Y1670778*
X1673136Y1676778D02*
Y1677153D01*
X1673409Y1677903*
X1673682Y1678278*
X1674227Y1678653*
X1675318*
X1675863Y1678278*
X1676136Y1677903*
X1676409Y1677153*
Y1676403*
X1676136Y1675653*
X1675591Y1674528*
X1672863Y1670778*
X1676682*
X1759363Y1676778D02*
Y1677153D01*
X1759636Y1677903*
X1759909Y1678278*
X1760454Y1678653*
X1761545*
X1762091Y1678278*
X1762363Y1677903*
X1762636Y1677153*
Y1676403*
X1762363Y1675653*
X1761818Y1674528*
X1759091Y1670778*
X1762909*
X1768909Y1676028D02*
X1768636Y1674903D01*
X1768091Y1674153*
X1767273Y1673778*
X1767000*
X1766182Y1674153*
X1765636Y1674903*
X1765363Y1676028*
Y1676403*
X1765636Y1677528*
X1766182Y1678278*
X1767000Y1678653*
X1767273*
X1768091Y1678278*
X1768636Y1677528*
X1768909Y1676028*
Y1674153*
X1768636Y1672278*
X1768091Y1671153*
X1767273Y1670778*
X1766727*
X1765909Y1671153*
X1765636Y1671903*
X1801045Y1670778D02*
X1807045Y1676778D01*
X1801045Y1682778*
X1795045Y1676778*
X1801045Y1670778*
Y1676778D02*
Y1682778D01*
X1827682Y1678653D02*
X1829863Y1674903D01*
Y1670778*
X1832045Y1678653D02*
X1829863Y1674903D01*
X1834500Y1678653D02*
Y1670778D01*
Y1678653D02*
X1838045D01*
X1834500Y1674903D02*
X1836682D01*
X1834500Y1670778D02*
X1838045D01*
X1844318Y1677528D02*
X1843773Y1678278D01*
X1842954Y1678653*
X1841863*
X1841045Y1678278*
X1840500Y1677528*
Y1676778*
X1840773Y1676028*
X1841045Y1675653*
X1841591Y1675278*
X1843227Y1674528*
X1843773Y1674153*
X1844045Y1673778*
X1844318Y1673028*
Y1671903*
X1843773Y1671153*
X1842954Y1670778*
X1841863*
X1841045Y1671153*
X1840500Y1671903*
X1880863Y1677528D02*
Y1670778D01*
X1878409Y1674153D02*
X1883318D01*
X1890682Y1680153D02*
X1885773Y1668153D01*
X1893136Y1674153D02*
X1898045D01*
X1902136Y1678653D02*
X1901318Y1678278D01*
X1900773Y1677153*
X1900500Y1675278*
Y1674153*
X1900773Y1672278*
X1901318Y1671153*
X1902136Y1670778*
X1902682*
X1903500Y1671153*
X1904045Y1672278*
X1904318Y1674153*
Y1675278*
X1904045Y1677153*
X1903500Y1678278*
X1902682Y1678653*
X1902136*
X1907045Y1671528D02*
X1906773Y1671153D01*
X1907045Y1670778*
X1907318Y1671153*
X1907045Y1671528*
X1911409Y1678653D02*
X1910591Y1678278D01*
X1910045Y1677153*
X1909773Y1675278*
Y1674153*
X1910045Y1672278*
X1910591Y1671153*
X1911409Y1670778*
X1911954*
X1912773Y1671153*
X1913318Y1672278*
X1913591Y1674153*
Y1675278*
X1913318Y1677153*
X1912773Y1678278*
X1911954Y1678653*
X1911409*
X1669591Y1654653D02*
X1672591D01*
X1670954Y1651653*
X1671773*
X1672318Y1651278*
X1672591Y1650903*
X1672863Y1649778*
Y1649028*
X1672591Y1647903*
X1672045Y1647153*
X1671227Y1646778*
X1670409*
X1669591Y1647153*
X1669318Y1647528*
X1669045Y1648278*
X1678863Y1652028D02*
X1678591Y1650903D01*
X1678045Y1650153*
X1677227Y1649778*
X1676954*
X1676136Y1650153*
X1675591Y1650903*
X1675318Y1652028*
Y1652403*
X1675591Y1653528*
X1676136Y1654278*
X1676954Y1654653*
X1677227*
X1678045Y1654278*
X1678591Y1653528*
X1678863Y1652028*
Y1650153*
X1678591Y1648278*
X1678045Y1647153*
X1677227Y1646778*
X1676682*
X1675863Y1647153*
X1675591Y1647903*
X1681591Y1647528D02*
X1681318Y1647153D01*
X1681591Y1646778*
X1681863Y1647153*
X1681591Y1647528*
X1684863Y1654653D02*
X1687863D01*
X1686227Y1651653*
X1687045*
X1687591Y1651278*
X1687863Y1650903*
X1688136Y1649778*
Y1649028*
X1687863Y1647903*
X1687318Y1647153*
X1686500Y1646778*
X1685682*
X1684863Y1647153*
X1684591Y1647528*
X1684318Y1648278*
X1694409Y1654653D02*
X1691682Y1646778D01*
X1690591Y1654653D02*
X1694409D01*
X1765500Y1653528D02*
X1765227Y1654278D01*
X1764409Y1654653*
X1763863*
X1763045Y1654278*
X1762500Y1653153*
X1762227Y1651278*
Y1649403*
X1762500Y1647903*
X1763045Y1647153*
X1763863Y1646778*
X1764136*
X1764954Y1647153*
X1765500Y1647903*
X1765773Y1649028*
Y1649403*
X1765500Y1650528*
X1764954Y1651278*
X1764136Y1651653*
X1763863*
X1763045Y1651278*
X1762500Y1650528*
X1762227Y1649403*
X1795045Y1646778D02*
X1807045D01*
X1795045Y1658778*
X1807045*
X1795045Y1646778*
X1827682Y1654653D02*
X1829863Y1650903D01*
Y1646778*
X1832045Y1654653D02*
X1829863Y1650903D01*
X1834500Y1654653D02*
Y1646778D01*
Y1654653D02*
X1838045D01*
X1834500Y1650903D02*
X1836682D01*
X1834500Y1646778D02*
X1838045D01*
X1844318Y1653528D02*
X1843773Y1654278D01*
X1842954Y1654653*
X1841863*
X1841045Y1654278*
X1840500Y1653528*
Y1652778*
X1840773Y1652028*
X1841045Y1651653*
X1841591Y1651278*
X1843227Y1650528*
X1843773Y1650153*
X1844045Y1649778*
X1844318Y1649028*
Y1647903*
X1843773Y1647153*
X1842954Y1646778*
X1841863*
X1841045Y1647153*
X1840500Y1647903*
X1880863Y1653528D02*
Y1646778D01*
X1878409Y1650153D02*
X1883318D01*
X1890682Y1656153D02*
X1885773Y1644153D01*
X1893136Y1650153D02*
X1898045D01*
X1902136Y1654653D02*
X1901318Y1654278D01*
X1900773Y1653153*
X1900500Y1651278*
Y1650153*
X1900773Y1648278*
X1901318Y1647153*
X1902136Y1646778*
X1902682*
X1903500Y1647153*
X1904045Y1648278*
X1904318Y1650153*
Y1651278*
X1904045Y1653153*
X1903500Y1654278*
X1902682Y1654653*
X1902136*
X1907045Y1647528D02*
X1906773Y1647153D01*
X1907045Y1646778*
X1907318Y1647153*
X1907045Y1647528*
X1911409Y1654653D02*
X1910591Y1654278D01*
X1910045Y1653153*
X1909773Y1651278*
Y1650153*
X1910045Y1648278*
X1910591Y1647153*
X1911409Y1646778*
X1911954*
X1912773Y1647153*
X1913318Y1648278*
X1913591Y1650153*
Y1651278*
X1913318Y1653153*
X1912773Y1654278*
X1911954Y1654653*
X1911409*
X1669591Y1630653D02*
X1672591D01*
X1670954Y1627653*
X1671773*
X1672318Y1627278*
X1672591Y1626903*
X1672863Y1625778*
Y1625028*
X1672591Y1623903*
X1672045Y1623153*
X1671227Y1622778*
X1670409*
X1669591Y1623153*
X1669318Y1623528*
X1669045Y1624278*
X1675318Y1629153D02*
X1675863Y1629528D01*
X1676682Y1630653*
Y1622778*
X1679409Y1623528D02*
X1679136Y1623153D01*
X1679409Y1622778*
X1679682Y1623153*
X1679409Y1623528*
X1685682Y1630653D02*
X1682954D01*
X1682682Y1627278*
X1682954Y1627653*
X1683773Y1628028*
X1684591*
X1685409Y1627653*
X1685954Y1626903*
X1686227Y1625778*
X1685954Y1625028*
X1685682Y1623903*
X1685136Y1623153*
X1684318Y1622778*
X1683500*
X1682682Y1623153*
X1682409Y1623528*
X1682136Y1624278*
X1762636Y1630653D02*
X1765636D01*
X1764000Y1627653*
X1764818*
X1765363Y1627278*
X1765636Y1626903*
X1765909Y1625778*
Y1625028*
X1765636Y1623903*
X1765091Y1623153*
X1764273Y1622778*
X1763454*
X1762636Y1623153*
X1762363Y1623528*
X1762091Y1624278*
X1795045Y1622778D02*
X1807045Y1634778D01*
Y1622778*
X1795045Y1634778*
Y1622778*
X1827682Y1630653D02*
X1829863Y1626903D01*
Y1622778*
X1832045Y1630653D02*
X1829863Y1626903D01*
X1834500Y1630653D02*
Y1622778D01*
Y1630653D02*
X1838045D01*
X1834500Y1626903D02*
X1836682D01*
X1834500Y1622778D02*
X1838045D01*
X1844318Y1629528D02*
X1843773Y1630278D01*
X1842954Y1630653*
X1841863*
X1841045Y1630278*
X1840500Y1629528*
Y1628778*
X1840773Y1628028*
X1841045Y1627653*
X1841591Y1627278*
X1843227Y1626528*
X1843773Y1626153*
X1844045Y1625778*
X1844318Y1625028*
Y1623903*
X1843773Y1623153*
X1842954Y1622778*
X1841863*
X1841045Y1623153*
X1840500Y1623903*
X1880863Y1629528D02*
Y1622778D01*
X1878409Y1626153D02*
X1883318D01*
X1890682Y1632153D02*
X1885773Y1620153D01*
X1893136Y1626153D02*
X1898045D01*
X1902136Y1630653D02*
X1901318Y1630278D01*
X1900773Y1629153*
X1900500Y1627278*
Y1626153*
X1900773Y1624278*
X1901318Y1623153*
X1902136Y1622778*
X1902682*
X1903500Y1623153*
X1904045Y1624278*
X1904318Y1626153*
Y1627278*
X1904045Y1629153*
X1903500Y1630278*
X1902682Y1630653*
X1902136*
X1907045Y1623528D02*
X1906773Y1623153D01*
X1907045Y1622778*
X1907318Y1623153*
X1907045Y1623528*
X1911409Y1630653D02*
X1910591Y1630278D01*
X1910045Y1629153*
X1909773Y1627278*
Y1626153*
X1910045Y1624278*
X1910591Y1623153*
X1911409Y1622778*
X1911954*
X1912773Y1623153*
X1913318Y1624278*
X1913591Y1626153*
Y1627278*
X1913318Y1629153*
X1912773Y1630278*
X1911954Y1630653*
X1911409*
X1669591Y1606653D02*
X1672591D01*
X1670954Y1603653*
X1671773*
X1672318Y1603278*
X1672591Y1602903*
X1672863Y1601778*
Y1601028*
X1672591Y1599903*
X1672045Y1599153*
X1671227Y1598778*
X1670409*
X1669591Y1599153*
X1669318Y1599528*
X1669045Y1600278*
X1675863Y1606653D02*
X1678863D01*
X1677227Y1603653*
X1678045*
X1678591Y1603278*
X1678863Y1602903*
X1679136Y1601778*
Y1601028*
X1678863Y1599903*
X1678318Y1599153*
X1677500Y1598778*
X1676682*
X1675863Y1599153*
X1675591Y1599528*
X1675318Y1600278*
X1681863Y1599528D02*
X1681591Y1599153D01*
X1681863Y1598778*
X1682136Y1599153*
X1681863Y1599528*
X1687318Y1606653D02*
X1684591Y1601403D01*
X1688682*
X1687318Y1606653D02*
Y1598778D01*
X1694409Y1605528D02*
X1694136Y1606278D01*
X1693318Y1606653*
X1692773*
X1691954Y1606278*
X1691409Y1605153*
X1691136Y1603278*
Y1601403*
X1691409Y1599903*
X1691954Y1599153*
X1692773Y1598778*
X1693045*
X1693863Y1599153*
X1694409Y1599903*
X1694682Y1601028*
Y1601403*
X1694409Y1602528*
X1693863Y1603278*
X1693045Y1603653*
X1692773*
X1691954Y1603278*
X1691409Y1602528*
X1691136Y1601403*
X1762363Y1604778D02*
Y1605153D01*
X1762636Y1605903*
X1762909Y1606278*
X1763454Y1606653*
X1764545*
X1765091Y1606278*
X1765363Y1605903*
X1765636Y1605153*
Y1604403*
X1765363Y1603653*
X1764818Y1602528*
X1762091Y1598778*
X1765909*
X1795045Y1604778D02*
X1807045D01*
X1801045Y1598778D02*
Y1610778D01*
X1805791Y1614078D02*
X1804045Y1607778D01*
X1805791Y1614078D02*
X1807536Y1607778D01*
X1804700Y1609878D02*
X1806882D01*
X1827682Y1606653D02*
X1829863Y1602903D01*
Y1598778*
X1832045Y1606653D02*
X1829863Y1602903D01*
X1834500Y1606653D02*
Y1598778D01*
Y1606653D02*
X1838045D01*
X1834500Y1602903D02*
X1836682D01*
X1834500Y1598778D02*
X1838045D01*
X1844318Y1605528D02*
X1843773Y1606278D01*
X1842954Y1606653*
X1841863*
X1841045Y1606278*
X1840500Y1605528*
Y1604778*
X1840773Y1604028*
X1841045Y1603653*
X1841591Y1603278*
X1843227Y1602528*
X1843773Y1602153*
X1844045Y1601778*
X1844318Y1601028*
Y1599903*
X1843773Y1599153*
X1842954Y1598778*
X1841863*
X1841045Y1599153*
X1840500Y1599903*
X1880863Y1605528D02*
Y1598778D01*
X1878409Y1602153D02*
X1883318D01*
X1890682Y1608153D02*
X1885773Y1596153D01*
X1893136Y1602153D02*
X1898045D01*
X1902136Y1606653D02*
X1901318Y1606278D01*
X1900773Y1605153*
X1900500Y1603278*
Y1602153*
X1900773Y1600278*
X1901318Y1599153*
X1902136Y1598778*
X1902682*
X1903500Y1599153*
X1904045Y1600278*
X1904318Y1602153*
Y1603278*
X1904045Y1605153*
X1903500Y1606278*
X1902682Y1606653*
X1902136*
X1907045Y1599528D02*
X1906773Y1599153D01*
X1907045Y1598778*
X1907318Y1599153*
X1907045Y1599528*
X1911409Y1606653D02*
X1910591Y1606278D01*
X1910045Y1605153*
X1909773Y1603278*
Y1602153*
X1910045Y1600278*
X1910591Y1599153*
X1911409Y1598778*
X1911954*
X1912773Y1599153*
X1913318Y1600278*
X1913591Y1602153*
Y1603278*
X1913318Y1605153*
X1912773Y1606278*
X1911954Y1606653*
X1911409*
X1672591Y1582653D02*
X1669863D01*
X1669591Y1579278*
X1669863Y1579653*
X1670682Y1580028*
X1671500*
X1672318Y1579653*
X1672863Y1578903*
X1673136Y1577778*
X1672863Y1577028*
X1672591Y1575903*
X1672045Y1575153*
X1671227Y1574778*
X1670409*
X1669591Y1575153*
X1669318Y1575528*
X1669045Y1576278*
X1679136Y1580028D02*
X1678863Y1578903D01*
X1678318Y1578153*
X1677500Y1577778*
X1677227*
X1676409Y1578153*
X1675863Y1578903*
X1675591Y1580028*
Y1580403*
X1675863Y1581528*
X1676409Y1582278*
X1677227Y1582653*
X1677500*
X1678318Y1582278*
X1678863Y1581528*
X1679136Y1580028*
Y1578153*
X1678863Y1576278*
X1678318Y1575153*
X1677500Y1574778*
X1676954*
X1676136Y1575153*
X1675863Y1575903*
X1681863Y1575528D02*
X1681591Y1575153D01*
X1681863Y1574778*
X1682136Y1575153*
X1681863Y1575528*
X1686227Y1582653D02*
X1685409Y1582278D01*
X1684863Y1581153*
X1684591Y1579278*
Y1578153*
X1684863Y1576278*
X1685409Y1575153*
X1686227Y1574778*
X1686773*
X1687591Y1575153*
X1688136Y1576278*
X1688409Y1578153*
Y1579278*
X1688136Y1581153*
X1687591Y1582278*
X1686773Y1582653*
X1686227*
X1694409D02*
X1691682D01*
X1691409Y1579278*
X1691682Y1579653*
X1692500Y1580028*
X1693318*
X1694136Y1579653*
X1694682Y1578903*
X1694954Y1577778*
X1694682Y1577028*
X1694409Y1575903*
X1693863Y1575153*
X1693045Y1574778*
X1692227*
X1691409Y1575153*
X1691136Y1575528*
X1690863Y1576278*
X1765773Y1580028D02*
X1765500Y1578903D01*
X1764954Y1578153*
X1764136Y1577778*
X1763863*
X1763045Y1578153*
X1762500Y1578903*
X1762227Y1580028*
Y1580403*
X1762500Y1581528*
X1763045Y1582278*
X1763863Y1582653*
X1764136*
X1764954Y1582278*
X1765500Y1581528*
X1765773Y1580028*
Y1578153*
X1765500Y1576278*
X1764954Y1575153*
X1764136Y1574778*
X1763591*
X1762773Y1575153*
X1762500Y1575903*
X1795045Y1580778D02*
X1807045D01*
X1801045Y1574778D02*
Y1586778D01*
X1804045Y1590078D02*
Y1583778D01*
Y1590078D02*
X1806009D01*
X1806663Y1589778*
X1806882Y1589478*
X1807100Y1588878*
Y1588278*
X1806882Y1587678*
X1806663Y1587378*
X1806009Y1587078*
X1804045D02*
X1806009D01*
X1806663Y1586778*
X1806882Y1586478*
X1807100Y1585878*
Y1584978*
X1806882Y1584378*
X1806663Y1584078*
X1806009Y1583778*
X1804045*
X1827682Y1582653D02*
X1829863Y1578903D01*
Y1574778*
X1832045Y1582653D02*
X1829863Y1578903D01*
X1834500Y1582653D02*
Y1574778D01*
Y1582653D02*
X1838045D01*
X1834500Y1578903D02*
X1836682D01*
X1834500Y1574778D02*
X1838045D01*
X1844318Y1581528D02*
X1843773Y1582278D01*
X1842954Y1582653*
X1841863*
X1841045Y1582278*
X1840500Y1581528*
Y1580778*
X1840773Y1580028*
X1841045Y1579653*
X1841591Y1579278*
X1843227Y1578528*
X1843773Y1578153*
X1844045Y1577778*
X1844318Y1577028*
Y1575903*
X1843773Y1575153*
X1842954Y1574778*
X1841863*
X1841045Y1575153*
X1840500Y1575903*
X1880863Y1581528D02*
Y1574778D01*
X1878409Y1578153D02*
X1883318D01*
X1890682Y1584153D02*
X1885773Y1572153D01*
X1893136Y1578153D02*
X1898045D01*
X1902136Y1582653D02*
X1901318Y1582278D01*
X1900773Y1581153*
X1900500Y1579278*
Y1578153*
X1900773Y1576278*
X1901318Y1575153*
X1902136Y1574778*
X1902682*
X1903500Y1575153*
X1904045Y1576278*
X1904318Y1578153*
Y1579278*
X1904045Y1581153*
X1903500Y1582278*
X1902682Y1582653*
X1902136*
X1907045Y1575528D02*
X1906773Y1575153D01*
X1907045Y1574778*
X1907318Y1575153*
X1907045Y1575528*
X1911409Y1582653D02*
X1910591Y1582278D01*
X1910045Y1581153*
X1909773Y1579278*
Y1578153*
X1910045Y1576278*
X1910591Y1575153*
X1911409Y1574778*
X1911954*
X1912773Y1575153*
X1913318Y1576278*
X1913591Y1578153*
Y1579278*
X1913318Y1581153*
X1912773Y1582278*
X1911954Y1582653*
X1911409*
X1669591Y1558653D02*
X1672591D01*
X1670954Y1555653*
X1671773*
X1672318Y1555278*
X1672591Y1554903*
X1672863Y1553778*
Y1553028*
X1672591Y1551903*
X1672045Y1551153*
X1671227Y1550778*
X1670409*
X1669591Y1551153*
X1669318Y1551528*
X1669045Y1552278*
X1675318Y1557153D02*
X1675863Y1557528D01*
X1676682Y1558653*
Y1550778*
X1679409Y1551528D02*
X1679136Y1551153D01*
X1679409Y1550778*
X1679682Y1551153*
X1679409Y1551528*
X1685682Y1558653D02*
X1682954D01*
X1682682Y1555278*
X1682954Y1555653*
X1683773Y1556028*
X1684591*
X1685409Y1555653*
X1685954Y1554903*
X1686227Y1553778*
X1685954Y1553028*
X1685682Y1551903*
X1685136Y1551153*
X1684318Y1550778*
X1683500*
X1682682Y1551153*
X1682409Y1551528*
X1682136Y1552278*
X1763318Y1557153D02*
X1763863Y1557528D01*
X1764682Y1558653*
Y1550778*
X1795045Y1556778D02*
X1807045D01*
X1801045Y1550778D02*
Y1562778D01*
X1807318Y1564578D02*
X1807100Y1565178D01*
X1806663Y1565778*
X1806227Y1566078*
X1805354*
X1804918Y1565778*
X1804482Y1565178*
X1804263Y1564578*
X1804045Y1563678*
Y1562178*
X1804263Y1561278*
X1804482Y1560678*
X1804918Y1560078*
X1805354Y1559778*
X1806227*
X1806663Y1560078*
X1807100Y1560678*
X1807318Y1561278*
X1827682Y1558653D02*
X1829863Y1554903D01*
Y1550778*
X1832045Y1558653D02*
X1829863Y1554903D01*
X1834500Y1558653D02*
Y1550778D01*
Y1558653D02*
X1838045D01*
X1834500Y1554903D02*
X1836682D01*
X1834500Y1550778D02*
X1838045D01*
X1844318Y1557528D02*
X1843773Y1558278D01*
X1842954Y1558653*
X1841863*
X1841045Y1558278*
X1840500Y1557528*
Y1556778*
X1840773Y1556028*
X1841045Y1555653*
X1841591Y1555278*
X1843227Y1554528*
X1843773Y1554153*
X1844045Y1553778*
X1844318Y1553028*
Y1551903*
X1843773Y1551153*
X1842954Y1550778*
X1841863*
X1841045Y1551153*
X1840500Y1551903*
X1880863Y1557528D02*
Y1550778D01*
X1878409Y1554153D02*
X1883318D01*
X1890682Y1560153D02*
X1885773Y1548153D01*
X1893136Y1554153D02*
X1898045D01*
X1902136Y1558653D02*
X1901318Y1558278D01*
X1900773Y1557153*
X1900500Y1555278*
Y1554153*
X1900773Y1552278*
X1901318Y1551153*
X1902136Y1550778*
X1902682*
X1903500Y1551153*
X1904045Y1552278*
X1904318Y1554153*
Y1555278*
X1904045Y1557153*
X1903500Y1558278*
X1902682Y1558653*
X1902136*
X1907045Y1551528D02*
X1906773Y1551153D01*
X1907045Y1550778*
X1907318Y1551153*
X1907045Y1551528*
X1911409Y1558653D02*
X1910591Y1558278D01*
X1910045Y1557153*
X1909773Y1555278*
Y1554153*
X1910045Y1552278*
X1910591Y1551153*
X1911409Y1550778*
X1911954*
X1912773Y1551153*
X1913318Y1552278*
X1913591Y1554153*
Y1555278*
X1913318Y1557153*
X1912773Y1558278*
X1911954Y1558653*
X1911409*
X1669318Y1532778D02*
Y1533153D01*
X1669591Y1533903*
X1669863Y1534278*
X1670409Y1534653*
X1671500*
X1672045Y1534278*
X1672318Y1533903*
X1672591Y1533153*
Y1532403*
X1672318Y1531653*
X1671773Y1530528*
X1669045Y1526778*
X1672863*
X1676954Y1534653D02*
X1676136Y1534278D01*
X1675591Y1533153*
X1675318Y1531278*
Y1530153*
X1675591Y1528278*
X1676136Y1527153*
X1676954Y1526778*
X1677500*
X1678318Y1527153*
X1678863Y1528278*
X1679136Y1530153*
Y1531278*
X1678863Y1533153*
X1678318Y1534278*
X1677500Y1534653*
X1676954*
X1762363Y1532778D02*
Y1533153D01*
X1762636Y1533903*
X1762909Y1534278*
X1763454Y1534653*
X1764545*
X1765091Y1534278*
X1765363Y1533903*
X1765636Y1533153*
Y1532403*
X1765363Y1531653*
X1764818Y1530528*
X1762091Y1526778*
X1765909*
X1795045Y1532778D02*
X1807045D01*
X1801045Y1526778D02*
Y1538778D01*
X1804045Y1542078D02*
Y1535778D01*
Y1542078D02*
X1805573D01*
X1806227Y1541778*
X1806663Y1541178*
X1806882Y1540578*
X1807100Y1539678*
Y1538178*
X1806882Y1537278*
X1806663Y1536678*
X1806227Y1536078*
X1805573Y1535778*
X1804045*
X1827682Y1534653D02*
X1829863Y1530903D01*
Y1526778*
X1832045Y1534653D02*
X1829863Y1530903D01*
X1834500Y1534653D02*
Y1526778D01*
Y1534653D02*
X1838045D01*
X1834500Y1530903D02*
X1836682D01*
X1834500Y1526778D02*
X1838045D01*
X1844318Y1533528D02*
X1843773Y1534278D01*
X1842954Y1534653*
X1841863*
X1841045Y1534278*
X1840500Y1533528*
Y1532778*
X1840773Y1532028*
X1841045Y1531653*
X1841591Y1531278*
X1843227Y1530528*
X1843773Y1530153*
X1844045Y1529778*
X1844318Y1529028*
Y1527903*
X1843773Y1527153*
X1842954Y1526778*
X1841863*
X1841045Y1527153*
X1840500Y1527903*
X1880863Y1533528D02*
Y1526778D01*
X1878409Y1530153D02*
X1883318D01*
X1890682Y1536153D02*
X1885773Y1524153D01*
X1893136Y1530153D02*
X1898045D01*
X1902136Y1534653D02*
X1901318Y1534278D01*
X1900773Y1533153*
X1900500Y1531278*
Y1530153*
X1900773Y1528278*
X1901318Y1527153*
X1902136Y1526778*
X1902682*
X1903500Y1527153*
X1904045Y1528278*
X1904318Y1530153*
Y1531278*
X1904045Y1533153*
X1903500Y1534278*
X1902682Y1534653*
X1902136*
X1907045Y1527528D02*
X1906773Y1527153D01*
X1907045Y1526778*
X1907318Y1527153*
X1907045Y1527528*
X1911409Y1534653D02*
X1910591Y1534278D01*
X1910045Y1533153*
X1909773Y1531278*
Y1530153*
X1910045Y1528278*
X1910591Y1527153*
X1911409Y1526778*
X1911954*
X1912773Y1527153*
X1913318Y1528278*
X1913591Y1530153*
Y1531278*
X1913318Y1533153*
X1912773Y1534278*
X1911954Y1534653*
X1911409*
X1669045Y1509153D02*
X1669591Y1509528D01*
X1670409Y1510653*
Y1502778*
X1672863Y1509153D02*
X1673409Y1509528D01*
X1674227Y1510653*
Y1502778*
X1678318Y1510653D02*
X1677500Y1510278D01*
X1676954Y1509153*
X1676682Y1507278*
Y1506153*
X1676954Y1504278*
X1677500Y1503153*
X1678318Y1502778*
X1678863*
X1679682Y1503153*
X1680227Y1504278*
X1680500Y1506153*
Y1507278*
X1680227Y1509153*
X1679682Y1510278*
X1678863Y1510653*
X1678318*
X1683227Y1503528D02*
X1682954Y1503153D01*
X1683227Y1502778*
X1683500Y1503153*
X1683227Y1503528*
X1686227Y1508778D02*
Y1509153D01*
X1686500Y1509903*
X1686773Y1510278*
X1687318Y1510653*
X1688409*
X1688954Y1510278*
X1689227Y1509903*
X1689500Y1509153*
Y1508403*
X1689227Y1507653*
X1688682Y1506528*
X1685954Y1502778*
X1689773*
X1694954Y1510653D02*
X1692227Y1505403D01*
X1696318*
X1694954Y1510653D02*
Y1502778D01*
X1759091Y1508778D02*
Y1509153D01*
X1759363Y1509903*
X1759636Y1510278*
X1760182Y1510653*
X1761273*
X1761818Y1510278*
X1762091Y1509903*
X1762363Y1509153*
Y1508403*
X1762091Y1507653*
X1761545Y1506528*
X1758818Y1502778*
X1762636*
X1767818Y1510653D02*
X1765091Y1505403D01*
X1769182*
X1767818Y1510653D02*
Y1502778D01*
X1795045Y1508778D02*
X1807045D01*
X1801045Y1502778D02*
Y1514778D01*
X1804045Y1518078D02*
Y1511778D01*
Y1518078D02*
X1806882D01*
X1804045Y1515078D02*
X1805791D01*
X1804045Y1511778D02*
X1806882D01*
X1827682Y1510653D02*
X1829863Y1506903D01*
Y1502778*
X1832045Y1510653D02*
X1829863Y1506903D01*
X1834500Y1510653D02*
Y1502778D01*
Y1510653D02*
X1838045D01*
X1834500Y1506903D02*
X1836682D01*
X1834500Y1502778D02*
X1838045D01*
X1844318Y1509528D02*
X1843773Y1510278D01*
X1842954Y1510653*
X1841863*
X1841045Y1510278*
X1840500Y1509528*
Y1508778*
X1840773Y1508028*
X1841045Y1507653*
X1841591Y1507278*
X1843227Y1506528*
X1843773Y1506153*
X1844045Y1505778*
X1844318Y1505028*
Y1503903*
X1843773Y1503153*
X1842954Y1502778*
X1841863*
X1841045Y1503153*
X1840500Y1503903*
X1880863Y1509528D02*
Y1502778D01*
X1878409Y1506153D02*
X1883318D01*
X1890682Y1512153D02*
X1885773Y1500153D01*
X1893136Y1506153D02*
X1898045D01*
X1902136Y1510653D02*
X1901318Y1510278D01*
X1900773Y1509153*
X1900500Y1507278*
Y1506153*
X1900773Y1504278*
X1901318Y1503153*
X1902136Y1502778*
X1902682*
X1903500Y1503153*
X1904045Y1504278*
X1904318Y1506153*
Y1507278*
X1904045Y1509153*
X1903500Y1510278*
X1902682Y1510653*
X1902136*
X1907045Y1503528D02*
X1906773Y1503153D01*
X1907045Y1502778*
X1907318Y1503153*
X1907045Y1503528*
X1911409Y1510653D02*
X1910591Y1510278D01*
X1910045Y1509153*
X1909773Y1507278*
Y1506153*
X1910045Y1504278*
X1910591Y1503153*
X1911409Y1502778*
X1911954*
X1912773Y1503153*
X1913318Y1504278*
X1913591Y1506153*
Y1507278*
X1913318Y1509153*
X1912773Y1510278*
X1911954Y1510653*
X1911409*
X1672318Y1485528D02*
X1672045Y1486278D01*
X1671227Y1486653*
X1670682*
X1669863Y1486278*
X1669318Y1485153*
X1669045Y1483278*
Y1481403*
X1669318Y1479903*
X1669863Y1479153*
X1670682Y1478778*
X1670954*
X1671773Y1479153*
X1672318Y1479903*
X1672591Y1481028*
Y1481403*
X1672318Y1482528*
X1671773Y1483278*
X1670954Y1483653*
X1670682*
X1669863Y1483278*
X1669318Y1482528*
X1669045Y1481403*
X1678318Y1485528D02*
X1678045Y1486278D01*
X1677227Y1486653*
X1676682*
X1675863Y1486278*
X1675318Y1485153*
X1675045Y1483278*
Y1481403*
X1675318Y1479903*
X1675863Y1479153*
X1676682Y1478778*
X1676954*
X1677773Y1479153*
X1678318Y1479903*
X1678591Y1481028*
Y1481403*
X1678318Y1482528*
X1677773Y1483278*
X1676954Y1483653*
X1676682*
X1675863Y1483278*
X1675318Y1482528*
X1675045Y1481403*
X1681318Y1479528D02*
X1681045Y1479153D01*
X1681318Y1478778*
X1681591Y1479153*
X1681318Y1479528*
X1687591Y1484028D02*
X1687318Y1482903D01*
X1686773Y1482153*
X1685954Y1481778*
X1685682*
X1684863Y1482153*
X1684318Y1482903*
X1684045Y1484028*
Y1484403*
X1684318Y1485528*
X1684863Y1486278*
X1685682Y1486653*
X1685954*
X1686773Y1486278*
X1687318Y1485528*
X1687591Y1484028*
Y1482153*
X1687318Y1480278*
X1686773Y1479153*
X1685954Y1478778*
X1685409*
X1684591Y1479153*
X1684318Y1479903*
X1690591Y1486653D02*
X1693591D01*
X1691954Y1483653*
X1692773*
X1693318Y1483278*
X1693591Y1482903*
X1693863Y1481778*
Y1481028*
X1693591Y1479903*
X1693045Y1479153*
X1692227Y1478778*
X1691409*
X1690591Y1479153*
X1690318Y1479528*
X1690045Y1480278*
X1760182Y1485153D02*
X1760727Y1485528D01*
X1761545Y1486653*
Y1478778*
X1764273Y1484778D02*
Y1485153D01*
X1764545Y1485903*
X1764818Y1486278*
X1765363Y1486653*
X1766454*
X1767000Y1486278*
X1767273Y1485903*
X1767545Y1485153*
Y1484403*
X1767273Y1483653*
X1766727Y1482528*
X1764000Y1478778*
X1767818*
X1795045Y1484778D02*
X1807045D01*
X1801045Y1478778D02*
Y1490778D01*
X1804045Y1494078D02*
Y1487778D01*
Y1494078D02*
X1806882D01*
X1804045Y1491078D02*
X1805791D01*
X1827682Y1486653D02*
X1829863Y1482903D01*
Y1478778*
X1832045Y1486653D02*
X1829863Y1482903D01*
X1834500Y1486653D02*
Y1478778D01*
Y1486653D02*
X1838045D01*
X1834500Y1482903D02*
X1836682D01*
X1834500Y1478778D02*
X1838045D01*
X1844318Y1485528D02*
X1843773Y1486278D01*
X1842954Y1486653*
X1841863*
X1841045Y1486278*
X1840500Y1485528*
Y1484778*
X1840773Y1484028*
X1841045Y1483653*
X1841591Y1483278*
X1843227Y1482528*
X1843773Y1482153*
X1844045Y1481778*
X1844318Y1481028*
Y1479903*
X1843773Y1479153*
X1842954Y1478778*
X1841863*
X1841045Y1479153*
X1840500Y1479903*
X1880863Y1485528D02*
Y1478778D01*
X1878409Y1482153D02*
X1883318D01*
X1890682Y1488153D02*
X1885773Y1476153D01*
X1893136Y1482153D02*
X1898045D01*
X1902136Y1486653D02*
X1901318Y1486278D01*
X1900773Y1485153*
X1900500Y1483278*
Y1482153*
X1900773Y1480278*
X1901318Y1479153*
X1902136Y1478778*
X1902682*
X1903500Y1479153*
X1904045Y1480278*
X1904318Y1482153*
Y1483278*
X1904045Y1485153*
X1903500Y1486278*
X1902682Y1486653*
X1902136*
X1907045Y1479528D02*
X1906773Y1479153D01*
X1907045Y1478778*
X1907318Y1479153*
X1907045Y1479528*
X1911409Y1486653D02*
X1910591Y1486278D01*
X1910045Y1485153*
X1909773Y1483278*
Y1482153*
X1910045Y1480278*
X1910591Y1479153*
X1911409Y1478778*
X1911954*
X1912773Y1479153*
X1913318Y1480278*
X1913591Y1482153*
Y1483278*
X1913318Y1485153*
X1912773Y1486278*
X1911954Y1486653*
X1911409*
X1669591Y1462653D02*
X1672591D01*
X1670954Y1459653*
X1671773*
X1672318Y1459278*
X1672591Y1458903*
X1672863Y1457778*
Y1457028*
X1672591Y1455903*
X1672045Y1455153*
X1671227Y1454778*
X1670409*
X1669591Y1455153*
X1669318Y1455528*
X1669045Y1456278*
X1675591Y1460778D02*
Y1461153D01*
X1675863Y1461903*
X1676136Y1462278*
X1676682Y1462653*
X1677773*
X1678318Y1462278*
X1678591Y1461903*
X1678863Y1461153*
Y1460403*
X1678591Y1459653*
X1678045Y1458528*
X1675318Y1454778*
X1679136*
X1765500Y1461528D02*
X1765227Y1462278D01*
X1764409Y1462653*
X1763863*
X1763045Y1462278*
X1762500Y1461153*
X1762227Y1459278*
Y1457403*
X1762500Y1455903*
X1763045Y1455153*
X1763863Y1454778*
X1764136*
X1764954Y1455153*
X1765500Y1455903*
X1765773Y1457028*
Y1457403*
X1765500Y1458528*
X1764954Y1459278*
X1764136Y1459653*
X1763863*
X1763045Y1459278*
X1762500Y1458528*
X1762227Y1457403*
X1795045Y1460778D02*
X1807045D01*
X1801045Y1454778D02*
Y1466778D01*
X1807318Y1468578D02*
X1807100Y1469178D01*
X1806663Y1469778*
X1806227Y1470078*
X1805354*
X1804918Y1469778*
X1804482Y1469178*
X1804263Y1468578*
X1804045Y1467678*
Y1466178*
X1804263Y1465278*
X1804482Y1464678*
X1804918Y1464078*
X1805354Y1463778*
X1806227*
X1806663Y1464078*
X1807100Y1464678*
X1807318Y1465278*
Y1466178*
X1806227D02*
X1807318D01*
X1827682Y1462653D02*
X1829863Y1458903D01*
Y1454778*
X1832045Y1462653D02*
X1829863Y1458903D01*
X1834500Y1462653D02*
Y1454778D01*
Y1462653D02*
X1838045D01*
X1834500Y1458903D02*
X1836682D01*
X1834500Y1454778D02*
X1838045D01*
X1844318Y1461528D02*
X1843773Y1462278D01*
X1842954Y1462653*
X1841863*
X1841045Y1462278*
X1840500Y1461528*
Y1460778*
X1840773Y1460028*
X1841045Y1459653*
X1841591Y1459278*
X1843227Y1458528*
X1843773Y1458153*
X1844045Y1457778*
X1844318Y1457028*
Y1455903*
X1843773Y1455153*
X1842954Y1454778*
X1841863*
X1841045Y1455153*
X1840500Y1455903*
X1880863Y1461528D02*
Y1454778D01*
X1878409Y1458153D02*
X1883318D01*
X1890682Y1464153D02*
X1885773Y1452153D01*
X1893136Y1458153D02*
X1898045D01*
X1902136Y1462653D02*
X1901318Y1462278D01*
X1900773Y1461153*
X1900500Y1459278*
Y1458153*
X1900773Y1456278*
X1901318Y1455153*
X1902136Y1454778*
X1902682*
X1903500Y1455153*
X1904045Y1456278*
X1904318Y1458153*
Y1459278*
X1904045Y1461153*
X1903500Y1462278*
X1902682Y1462653*
X1902136*
X1907045Y1455528D02*
X1906773Y1455153D01*
X1907045Y1454778*
X1907318Y1455153*
X1907045Y1455528*
X1911409Y1462653D02*
X1910591Y1462278D01*
X1910045Y1461153*
X1909773Y1459278*
Y1458153*
X1910045Y1456278*
X1910591Y1455153*
X1911409Y1454778*
X1911954*
X1912773Y1455153*
X1913318Y1456278*
X1913591Y1458153*
Y1459278*
X1913318Y1461153*
X1912773Y1462278*
X1911954Y1462653*
X1911409*
X1671773Y1438653D02*
X1669045Y1433403D01*
X1673136*
X1671773Y1438653D02*
Y1430778D01*
X1679136Y1438653D02*
X1676409D01*
X1676136Y1435278*
X1676409Y1435653*
X1677227Y1436028*
X1678045*
X1678863Y1435653*
X1679409Y1434903*
X1679682Y1433778*
X1679409Y1433028*
X1679136Y1431903*
X1678591Y1431153*
X1677773Y1430778*
X1676954*
X1676136Y1431153*
X1675863Y1431528*
X1675591Y1432278*
X1764682Y1438653D02*
X1761954Y1433403D01*
X1766045*
X1764682Y1438653D02*
Y1430778D01*
X1795045Y1436778D02*
X1807045D01*
X1801045Y1430778D02*
Y1442778D01*
X1804045Y1446078D02*
Y1439778D01*
X1807100Y1446078D02*
Y1439778D01*
X1804045Y1443078D02*
X1807100D01*
X1827682Y1438653D02*
X1829863Y1434903D01*
Y1430778*
X1832045Y1438653D02*
X1829863Y1434903D01*
X1834500Y1438653D02*
Y1430778D01*
Y1438653D02*
X1838045D01*
X1834500Y1434903D02*
X1836682D01*
X1834500Y1430778D02*
X1838045D01*
X1844318Y1437528D02*
X1843773Y1438278D01*
X1842954Y1438653*
X1841863*
X1841045Y1438278*
X1840500Y1437528*
Y1436778*
X1840773Y1436028*
X1841045Y1435653*
X1841591Y1435278*
X1843227Y1434528*
X1843773Y1434153*
X1844045Y1433778*
X1844318Y1433028*
Y1431903*
X1843773Y1431153*
X1842954Y1430778*
X1841863*
X1841045Y1431153*
X1840500Y1431903*
X1880863Y1437528D02*
Y1430778D01*
X1878409Y1434153D02*
X1883318D01*
X1890682Y1440153D02*
X1885773Y1428153D01*
X1893136Y1434153D02*
X1898045D01*
X1902136Y1438653D02*
X1901318Y1438278D01*
X1900773Y1437153*
X1900500Y1435278*
Y1434153*
X1900773Y1432278*
X1901318Y1431153*
X1902136Y1430778*
X1902682*
X1903500Y1431153*
X1904045Y1432278*
X1904318Y1434153*
Y1435278*
X1904045Y1437153*
X1903500Y1438278*
X1902682Y1438653*
X1902136*
X1907045Y1431528D02*
X1906773Y1431153D01*
X1907045Y1430778*
X1907318Y1431153*
X1907045Y1431528*
X1911409Y1438653D02*
X1910591Y1438278D01*
X1910045Y1437153*
X1909773Y1435278*
Y1434153*
X1910045Y1432278*
X1910591Y1431153*
X1911409Y1430778*
X1911954*
X1912773Y1431153*
X1913318Y1432278*
X1913591Y1434153*
Y1435278*
X1913318Y1437153*
X1912773Y1438278*
X1911954Y1438653*
X1911409*
X1670409Y1414653D02*
X1669591Y1414278D01*
X1669318Y1413528*
Y1412778*
X1669591Y1412028*
X1670136Y1411653*
X1671227Y1411278*
X1672045Y1410903*
X1672591Y1410153*
X1672863Y1409403*
Y1408278*
X1672591Y1407528*
X1672318Y1407153*
X1671500Y1406778*
X1670409*
X1669591Y1407153*
X1669318Y1407528*
X1669045Y1408278*
Y1409403*
X1669318Y1410153*
X1669863Y1410903*
X1670682Y1411278*
X1671773Y1411653*
X1672318Y1412028*
X1672591Y1412778*
Y1413528*
X1672318Y1414278*
X1671500Y1414653*
X1670409*
X1678863D02*
X1676136D01*
X1675863Y1411278*
X1676136Y1411653*
X1676954Y1412028*
X1677773*
X1678591Y1411653*
X1679136Y1410903*
X1679409Y1409778*
X1679136Y1409028*
X1678863Y1407903*
X1678318Y1407153*
X1677500Y1406778*
X1676682*
X1675863Y1407153*
X1675591Y1407528*
X1675318Y1408278*
X1764682Y1414653D02*
X1761954Y1409403D01*
X1766045*
X1764682Y1414653D02*
Y1406778D01*
X1795045Y1412778D02*
X1807045D01*
X1801045Y1406778D02*
Y1418778D01*
X1804045Y1422078D02*
Y1415778D01*
X1827682Y1414653D02*
X1829863Y1410903D01*
Y1406778*
X1832045Y1414653D02*
X1829863Y1410903D01*
X1834500Y1414653D02*
Y1406778D01*
Y1414653D02*
X1838045D01*
X1834500Y1410903D02*
X1836682D01*
X1834500Y1406778D02*
X1838045D01*
X1844318Y1413528D02*
X1843773Y1414278D01*
X1842954Y1414653*
X1841863*
X1841045Y1414278*
X1840500Y1413528*
Y1412778*
X1840773Y1412028*
X1841045Y1411653*
X1841591Y1411278*
X1843227Y1410528*
X1843773Y1410153*
X1844045Y1409778*
X1844318Y1409028*
Y1407903*
X1843773Y1407153*
X1842954Y1406778*
X1841863*
X1841045Y1407153*
X1840500Y1407903*
X1880863Y1413528D02*
Y1406778D01*
X1878409Y1410153D02*
X1883318D01*
X1890682Y1416153D02*
X1885773Y1404153D01*
X1893136Y1410153D02*
X1898045D01*
X1902136Y1414653D02*
X1901318Y1414278D01*
X1900773Y1413153*
X1900500Y1411278*
Y1410153*
X1900773Y1408278*
X1901318Y1407153*
X1902136Y1406778*
X1902682*
X1903500Y1407153*
X1904045Y1408278*
X1904318Y1410153*
Y1411278*
X1904045Y1413153*
X1903500Y1414278*
X1902682Y1414653*
X1902136*
X1907045Y1407528D02*
X1906773Y1407153D01*
X1907045Y1406778*
X1907318Y1407153*
X1907045Y1407528*
X1911409Y1414653D02*
X1910591Y1414278D01*
X1910045Y1413153*
X1909773Y1411278*
Y1410153*
X1910045Y1408278*
X1910591Y1407153*
X1911409Y1406778*
X1911954*
X1912773Y1407153*
X1913318Y1408278*
X1913591Y1410153*
Y1411278*
X1913318Y1413153*
X1912773Y1414278*
X1911954Y1414653*
X1911409*
X1669045Y1389153D02*
X1669591Y1389528D01*
X1670409Y1390653*
Y1382778*
X1676682Y1390653D02*
X1673954Y1382778D01*
X1672863Y1390653D02*
X1676682D01*
X1682954D02*
X1680227Y1382778D01*
X1679136Y1390653D02*
X1682954D01*
X1685682Y1383528D02*
X1685409Y1383153D01*
X1685682Y1382778*
X1685954Y1383153*
X1685682Y1383528*
X1688409Y1389153D02*
X1688954Y1389528D01*
X1689773Y1390653*
Y1382778*
X1696045Y1390653D02*
X1693318Y1382778D01*
X1692227Y1390653D02*
X1696045D01*
X1763318Y1389153D02*
X1763863Y1389528D01*
X1764682Y1390653*
Y1382778*
X1795045Y1388778D02*
X1807045D01*
X1801045Y1382778D02*
Y1394778D01*
X1806227Y1398078D02*
Y1393278D01*
X1806009Y1392378*
X1805791Y1392078*
X1805354Y1391778*
X1804918*
X1804482Y1392078*
X1804263Y1392378*
X1804045Y1393278*
Y1393878*
X1827682Y1390653D02*
X1829863Y1386903D01*
Y1382778*
X1832045Y1390653D02*
X1829863Y1386903D01*
X1834500Y1390653D02*
Y1382778D01*
Y1390653D02*
X1838045D01*
X1834500Y1386903D02*
X1836682D01*
X1834500Y1382778D02*
X1838045D01*
X1844318Y1389528D02*
X1843773Y1390278D01*
X1842954Y1390653*
X1841863*
X1841045Y1390278*
X1840500Y1389528*
Y1388778*
X1840773Y1388028*
X1841045Y1387653*
X1841591Y1387278*
X1843227Y1386528*
X1843773Y1386153*
X1844045Y1385778*
X1844318Y1385028*
Y1383903*
X1843773Y1383153*
X1842954Y1382778*
X1841863*
X1841045Y1383153*
X1840500Y1383903*
X1880863Y1389528D02*
Y1382778D01*
X1878409Y1386153D02*
X1883318D01*
X1890682Y1392153D02*
X1885773Y1380153D01*
X1893136Y1386153D02*
X1898045D01*
X1902136Y1390653D02*
X1901318Y1390278D01*
X1900773Y1389153*
X1900500Y1387278*
Y1386153*
X1900773Y1384278*
X1901318Y1383153*
X1902136Y1382778*
X1902682*
X1903500Y1383153*
X1904045Y1384278*
X1904318Y1386153*
Y1387278*
X1904045Y1389153*
X1903500Y1390278*
X1902682Y1390653*
X1902136*
X1907045Y1383528D02*
X1906773Y1383153D01*
X1907045Y1382778*
X1907318Y1383153*
X1907045Y1383528*
X1911409Y1390653D02*
X1910591Y1390278D01*
X1910045Y1389153*
X1909773Y1387278*
Y1386153*
X1910045Y1384278*
X1910591Y1383153*
X1911409Y1382778*
X1911954*
X1912773Y1383153*
X1913318Y1384278*
X1913591Y1386153*
Y1387278*
X1913318Y1389153*
X1912773Y1390278*
X1911954Y1390653*
X1911409*
X1669045Y1365153D02*
X1669591Y1365528D01*
X1670409Y1366653*
Y1358778*
X1676409Y1364028D02*
X1676136Y1362903D01*
X1675591Y1362153*
X1674773Y1361778*
X1674500*
X1673682Y1362153*
X1673136Y1362903*
X1672863Y1364028*
Y1364403*
X1673136Y1365528*
X1673682Y1366278*
X1674500Y1366653*
X1674773*
X1675591Y1366278*
X1676136Y1365528*
X1676409Y1364028*
Y1362153*
X1676136Y1360278*
X1675591Y1359153*
X1674773Y1358778*
X1674227*
X1673409Y1359153*
X1673136Y1359903*
X1679136Y1359528D02*
X1678863Y1359153D01*
X1679136Y1358778*
X1679409Y1359153*
X1679136Y1359528*
X1685136Y1365528D02*
X1684863Y1366278D01*
X1684045Y1366653*
X1683500*
X1682682Y1366278*
X1682136Y1365153*
X1681863Y1363278*
Y1361403*
X1682136Y1359903*
X1682682Y1359153*
X1683500Y1358778*
X1683773*
X1684591Y1359153*
X1685136Y1359903*
X1685409Y1361028*
Y1361403*
X1685136Y1362528*
X1684591Y1363278*
X1683773Y1363653*
X1683500*
X1682682Y1363278*
X1682136Y1362528*
X1681863Y1361403*
X1691409Y1364028D02*
X1691136Y1362903D01*
X1690591Y1362153*
X1689773Y1361778*
X1689500*
X1688682Y1362153*
X1688136Y1362903*
X1687863Y1364028*
Y1364403*
X1688136Y1365528*
X1688682Y1366278*
X1689500Y1366653*
X1689773*
X1690591Y1366278*
X1691136Y1365528*
X1691409Y1364028*
Y1362153*
X1691136Y1360278*
X1690591Y1359153*
X1689773Y1358778*
X1689227*
X1688409Y1359153*
X1688136Y1359903*
X1763454Y1366653D02*
X1762636Y1366278D01*
X1762363Y1365528*
Y1364778*
X1762636Y1364028*
X1763182Y1363653*
X1764273Y1363278*
X1765091Y1362903*
X1765636Y1362153*
X1765909Y1361403*
Y1360278*
X1765636Y1359528*
X1765363Y1359153*
X1764545Y1358778*
X1763454*
X1762636Y1359153*
X1762363Y1359528*
X1762091Y1360278*
Y1361403*
X1762363Y1362153*
X1762909Y1362903*
X1763727Y1363278*
X1764818Y1363653*
X1765363Y1364028*
X1765636Y1364778*
Y1365528*
X1765363Y1366278*
X1764545Y1366653*
X1763454*
X1795045Y1364778D02*
X1807045D01*
X1801045Y1358778D02*
Y1370778D01*
X1804045Y1374078D02*
Y1367778D01*
X1807100Y1374078D02*
X1804045Y1369878D01*
X1805136Y1371378D02*
X1807100Y1367778D01*
X1827682Y1366653D02*
X1829863Y1362903D01*
Y1358778*
X1832045Y1366653D02*
X1829863Y1362903D01*
X1834500Y1366653D02*
Y1358778D01*
Y1366653D02*
X1838045D01*
X1834500Y1362903D02*
X1836682D01*
X1834500Y1358778D02*
X1838045D01*
X1844318Y1365528D02*
X1843773Y1366278D01*
X1842954Y1366653*
X1841863*
X1841045Y1366278*
X1840500Y1365528*
Y1364778*
X1840773Y1364028*
X1841045Y1363653*
X1841591Y1363278*
X1843227Y1362528*
X1843773Y1362153*
X1844045Y1361778*
X1844318Y1361028*
Y1359903*
X1843773Y1359153*
X1842954Y1358778*
X1841863*
X1841045Y1359153*
X1840500Y1359903*
X1880863Y1365528D02*
Y1358778D01*
X1878409Y1362153D02*
X1883318D01*
X1890682Y1368153D02*
X1885773Y1356153D01*
X1893136Y1362153D02*
X1898045D01*
X1902136Y1366653D02*
X1901318Y1366278D01*
X1900773Y1365153*
X1900500Y1363278*
Y1362153*
X1900773Y1360278*
X1901318Y1359153*
X1902136Y1358778*
X1902682*
X1903500Y1359153*
X1904045Y1360278*
X1904318Y1362153*
Y1363278*
X1904045Y1365153*
X1903500Y1366278*
X1902682Y1366653*
X1902136*
X1907045Y1359528D02*
X1906773Y1359153D01*
X1907045Y1358778*
X1907318Y1359153*
X1907045Y1359528*
X1911409Y1366653D02*
X1910591Y1366278D01*
X1910045Y1365153*
X1909773Y1363278*
Y1362153*
X1910045Y1360278*
X1910591Y1359153*
X1911409Y1358778*
X1911954*
X1912773Y1359153*
X1913318Y1360278*
X1913591Y1362153*
Y1363278*
X1913318Y1365153*
X1912773Y1366278*
X1911954Y1366653*
X1911409*
X1669318Y1340778D02*
Y1341153D01*
X1669591Y1341903*
X1669863Y1342278*
X1670409Y1342653*
X1671500*
X1672045Y1342278*
X1672318Y1341903*
X1672591Y1341153*
Y1340403*
X1672318Y1339653*
X1671773Y1338528*
X1669045Y1334778*
X1672863*
X1678863Y1342653D02*
X1676136D01*
X1675863Y1339278*
X1676136Y1339653*
X1676954Y1340028*
X1677773*
X1678591Y1339653*
X1679136Y1338903*
X1679409Y1337778*
X1679136Y1337028*
X1678863Y1335903*
X1678318Y1335153*
X1677500Y1334778*
X1676682*
X1675863Y1335153*
X1675591Y1335528*
X1675318Y1336278*
X1757182Y1342653D02*
X1756363Y1342278D01*
X1756091Y1341528*
Y1340778*
X1756363Y1340028*
X1756909Y1339653*
X1758000Y1339278*
X1758818Y1338903*
X1759363Y1338153*
X1759636Y1337403*
Y1336278*
X1759363Y1335528*
X1759091Y1335153*
X1758273Y1334778*
X1757182*
X1756363Y1335153*
X1756091Y1335528*
X1755818Y1336278*
Y1337403*
X1756091Y1338153*
X1756636Y1338903*
X1757454Y1339278*
X1758545Y1339653*
X1759091Y1340028*
X1759363Y1340778*
Y1341528*
X1759091Y1342278*
X1758273Y1342653*
X1757182*
X1763454D02*
X1762636Y1342278D01*
X1762363Y1341528*
Y1340778*
X1762636Y1340028*
X1763182Y1339653*
X1764273Y1339278*
X1765091Y1338903*
X1765636Y1338153*
X1765909Y1337403*
Y1336278*
X1765636Y1335528*
X1765363Y1335153*
X1764545Y1334778*
X1763454*
X1762636Y1335153*
X1762363Y1335528*
X1762091Y1336278*
Y1337403*
X1762363Y1338153*
X1762909Y1338903*
X1763727Y1339278*
X1764818Y1339653*
X1765363Y1340028*
X1765636Y1340778*
Y1341528*
X1765363Y1342278*
X1764545Y1342653*
X1763454*
X1768909D02*
X1771909D01*
X1770273Y1339653*
X1771091*
X1771636Y1339278*
X1771909Y1338903*
X1772182Y1337778*
Y1337028*
X1771909Y1335903*
X1771363Y1335153*
X1770545Y1334778*
X1769727*
X1768909Y1335153*
X1768636Y1335528*
X1768363Y1336278*
X1795045Y1340778D02*
X1807045D01*
X1801045Y1334778D02*
Y1346778D01*
X1804045Y1350078D02*
Y1343778D01*
X1806663*
X1827682Y1342653D02*
X1829863Y1338903D01*
Y1334778*
X1832045Y1342653D02*
X1829863Y1338903D01*
X1834500Y1342653D02*
Y1334778D01*
Y1342653D02*
X1838045D01*
X1834500Y1338903D02*
X1836682D01*
X1834500Y1334778D02*
X1838045D01*
X1844318Y1341528D02*
X1843773Y1342278D01*
X1842954Y1342653*
X1841863*
X1841045Y1342278*
X1840500Y1341528*
Y1340778*
X1840773Y1340028*
X1841045Y1339653*
X1841591Y1339278*
X1843227Y1338528*
X1843773Y1338153*
X1844045Y1337778*
X1844318Y1337028*
Y1335903*
X1843773Y1335153*
X1842954Y1334778*
X1841863*
X1841045Y1335153*
X1840500Y1335903*
X1880863Y1341528D02*
Y1334778D01*
X1878409Y1338153D02*
X1883318D01*
X1890682Y1344153D02*
X1885773Y1332153D01*
X1893136Y1338153D02*
X1898045D01*
X1902136Y1342653D02*
X1901318Y1342278D01*
X1900773Y1341153*
X1900500Y1339278*
Y1338153*
X1900773Y1336278*
X1901318Y1335153*
X1902136Y1334778*
X1902682*
X1903500Y1335153*
X1904045Y1336278*
X1904318Y1338153*
Y1339278*
X1904045Y1341153*
X1903500Y1342278*
X1902682Y1342653*
X1902136*
X1907045Y1335528D02*
X1906773Y1335153D01*
X1907045Y1334778*
X1907318Y1335153*
X1907045Y1335528*
X1911409Y1342653D02*
X1910591Y1342278D01*
X1910045Y1341153*
X1909773Y1339278*
Y1338153*
X1910045Y1336278*
X1910591Y1335153*
X1911409Y1334778*
X1911954*
X1912773Y1335153*
X1913318Y1336278*
X1913591Y1338153*
Y1339278*
X1913318Y1341153*
X1912773Y1342278*
X1911954Y1342653*
X1911409*
X1669318Y1316778D02*
Y1317153D01*
X1669591Y1317903*
X1669863Y1318278*
X1670409Y1318653*
X1671500*
X1672045Y1318278*
X1672318Y1317903*
X1672591Y1317153*
Y1316403*
X1672318Y1315653*
X1671773Y1314528*
X1669045Y1310778*
X1672863*
X1676682Y1318653D02*
X1675863Y1318278D01*
X1675591Y1317528*
Y1316778*
X1675863Y1316028*
X1676409Y1315653*
X1677500Y1315278*
X1678318Y1314903*
X1678863Y1314153*
X1679136Y1313403*
Y1312278*
X1678863Y1311528*
X1678591Y1311153*
X1677773Y1310778*
X1676682*
X1675863Y1311153*
X1675591Y1311528*
X1675318Y1312278*
Y1313403*
X1675591Y1314153*
X1676136Y1314903*
X1676954Y1315278*
X1678045Y1315653*
X1678591Y1316028*
X1678863Y1316778*
Y1317528*
X1678591Y1318278*
X1677773Y1318653*
X1676682*
X1762363Y1316778D02*
Y1317153D01*
X1762636Y1317903*
X1762909Y1318278*
X1763454Y1318653*
X1764545*
X1765091Y1318278*
X1765363Y1317903*
X1765636Y1317153*
Y1316403*
X1765363Y1315653*
X1764818Y1314528*
X1762091Y1310778*
X1765909*
X1795045Y1316778D02*
X1807045D01*
X1801045Y1310778D02*
Y1322778D01*
X1804045Y1326078D02*
Y1319778D01*
Y1326078D02*
X1805791Y1319778D01*
X1807536Y1326078D02*
X1805791Y1319778D01*
X1807536Y1326078D02*
Y1319778D01*
X1827682Y1318653D02*
X1829863Y1314903D01*
Y1310778*
X1832045Y1318653D02*
X1829863Y1314903D01*
X1834500Y1318653D02*
Y1310778D01*
Y1318653D02*
X1838045D01*
X1834500Y1314903D02*
X1836682D01*
X1834500Y1310778D02*
X1838045D01*
X1844318Y1317528D02*
X1843773Y1318278D01*
X1842954Y1318653*
X1841863*
X1841045Y1318278*
X1840500Y1317528*
Y1316778*
X1840773Y1316028*
X1841045Y1315653*
X1841591Y1315278*
X1843227Y1314528*
X1843773Y1314153*
X1844045Y1313778*
X1844318Y1313028*
Y1311903*
X1843773Y1311153*
X1842954Y1310778*
X1841863*
X1841045Y1311153*
X1840500Y1311903*
X1880863Y1317528D02*
Y1310778D01*
X1878409Y1314153D02*
X1883318D01*
X1890682Y1320153D02*
X1885773Y1308153D01*
X1893136Y1314153D02*
X1898045D01*
X1902136Y1318653D02*
X1901318Y1318278D01*
X1900773Y1317153*
X1900500Y1315278*
Y1314153*
X1900773Y1312278*
X1901318Y1311153*
X1902136Y1310778*
X1902682*
X1903500Y1311153*
X1904045Y1312278*
X1904318Y1314153*
Y1315278*
X1904045Y1317153*
X1903500Y1318278*
X1902682Y1318653*
X1902136*
X1907045Y1311528D02*
X1906773Y1311153D01*
X1907045Y1310778*
X1907318Y1311153*
X1907045Y1311528*
X1911409Y1318653D02*
X1910591Y1318278D01*
X1910045Y1317153*
X1909773Y1315278*
Y1314153*
X1910045Y1312278*
X1910591Y1311153*
X1911409Y1310778*
X1911954*
X1912773Y1311153*
X1913318Y1312278*
X1913591Y1314153*
Y1315278*
X1913318Y1317153*
X1912773Y1318278*
X1911954Y1318653*
X1911409*
G54D66*
X1963045Y1312652D02*
G75*
G03X1970919Y1304778I7874J-0D01*
G01X2329187*
G03X2337061Y1312652I0J7874*
G01Y1887455*
G03X2329187Y1895329I-7874J-0*
G01X1970919*
G03X1963045Y1887455I0J-7874*
G01Y1312652*
X1991589Y1324463D02*
G03X1991589I-8859J0D01*
G01X2326234D02*
G03X2326234I-8858J0D01*
G01X1991589Y1875644D02*
G03X1991589I-8859J0D01*
G01X2326234D02*
G03X2326234I-8858J0D01*
G74*
G01X0Y0D02*
M02*
