%
T1C.012F0S0
X0116Y02975
X0116Y03025
X0116Y03075
X01205Y02975
X0121Y03025
X01215Y03075
X01165Y0318
X0116Y03125
X0116Y04055
X0113Y0402
X0106Y03685
X00315Y04025
X0116Y0414
X0119Y0507
X01385Y04965
X0143Y0507
X01455Y04965
X0149Y0507
X0155Y0489
X0155Y0507
X01635Y0492
X0236Y04805
X02785Y0523
X02785Y0529
X0262Y0523
X0258Y0519
X0238Y0513
X0166Y05475
X0125Y0571
T2C.016F0S0
X0368Y005
X0368Y0054
X0368Y0058
X0368Y0062
X0368Y0074
X0368Y0078
X0368Y0082
X0368Y0086
X0368Y0102
X0368Y0106
X0368Y011
X0368Y0098
X0368Y0142
X0368Y0146
X0368Y015
X0368Y0154
X0368Y0166
X0368Y017
X0368Y0174
X0368Y0178
X0368Y019
X0368Y0194
X0368Y0198
X0368Y0202
X0368Y0234
X0368Y0238
X0368Y0242
X0368Y026
X0368Y0246
X0368Y0264
X0368Y0268
X0368Y0272
X0368Y0284
X0181Y0231
X01635Y02255
X0015Y0281
X0014Y0269
X001Y0307
X0021Y03365
X0028Y03365
X003Y03465
X0032Y03565
X00405Y03565
X0057Y034
X0065Y0324
X0368Y0292
X0368Y0328
X0368Y0288
X0368Y034
X0368Y0334
X0368Y0296
X0368Y0354
X0368Y036
X0368Y0366
X0368Y0378
X0368Y0384
X0368Y039
X00765Y0377
X0073Y0396
X00695Y03775
X0064Y0363
X006Y03935
X0054Y03635
X0054Y0409
X0023Y04105
X00175Y03885
X0042Y04125
X0042Y04475
X0061Y0453
X0065Y0453
X0069Y0453
X0076Y04395
X011Y0431
X011Y04155
X01345Y04505
X01365Y04245
X015Y0435
X0158Y0445
X0168Y0461
X0187Y0451
X01875Y04375
X01875Y04235
X0258Y0444
X0274Y04325
X02795Y04325
X0294Y0427
X03365Y0431
X03685Y0486
X03635Y04785
X0355Y048
X0335Y0482
X0331Y04655
X0326Y0468
X0302Y0472
X02885Y0473
X02625Y048
X0262Y0466
X01945Y04655
X0168Y0475
X0122Y0469
X00995Y0472
X0091Y04645
X0087Y04835
X0066Y04765
X00605Y04695
X0051Y04695
X00305Y0466
X00165Y04995
X00185Y0495
X00195Y0505
X00215Y04995
X00245Y0495
X0025Y0505
X0026Y04995
X00725Y0497
X00835Y04875
X0098Y05035
X0098Y04885
X0115Y049
X0126Y04865
X01645Y0487
X01915Y05005
X0262Y0495
X0296Y051
X0298Y04875
X03Y051
X0304Y051
X0306Y0504
X0306Y0498
X0308Y051
X0338Y05
X0343Y0504
X03475Y0507
X0349Y04985
X0368Y05065
X03685Y0497
X0368Y05195
X0368Y05345
X0368Y05265
X03675Y05135
X03465Y05285
X0294Y05345
X0266Y0535
X0262Y0515
X0256Y0533
X01505Y05185
X01315Y0523
X01145Y052
X00295Y05345
X0029Y0524
X0027Y05145
X0024Y05345
X0023Y0524
X0022Y05145
X0018Y05345
X00175Y05145
X00175Y0524
X0075Y0554
X0081Y0539
X0081Y05615
X0098Y0556
X0117Y0556
X0137Y0556
X015225Y05515
X01755Y05565
X0266Y05785
X02845Y0537
X03Y0586
X0306Y0586
X0312Y0586
X0318Y0586
X0318Y0556
X0324Y0586
X0324Y0556
X033Y0556
X033Y0586
X0339Y0549
X03675Y05475
T3C.01969F0S0
X001123Y001969
X001345Y001408
X001359Y002556
X001967Y00112
X001972Y002809
X002576Y002552
X002608Y001418
X002812Y001969
T4C.02F0S0
X008551Y039998
X009071Y040008
T5C.025F0S0
X00115Y00535
X0242Y0056
X0242Y005
X0248Y0056
X0248Y005
X0254Y0056
X026Y0056
X0266Y0056
X0266Y005
X0272Y005
X0272Y0056
X0278Y0056
X0278Y005
X0284Y0056
X0284Y005
X029Y0056
X029Y005
X0296Y0056
X0296Y005
X032Y005
X032Y0056
X0326Y0056
X0326Y005
X0332Y0056
X0332Y005
X0338Y0056
X0338Y005
X0344Y0056
X0344Y005
X035Y0056
X035Y005
X0368Y0068
X0362Y0068
X0356Y0068
X035Y0062
X035Y008
X035Y0074
X035Y0068
X035Y0086
X0344Y0062
X0344Y0068
X0338Y0062
X0338Y0068
X0332Y0062
X0332Y0068
X0326Y0062
X0326Y0068
X032Y0062
X032Y0074
X032Y008
X032Y0068
X032Y0086
X0314Y0068
X0308Y0068
X0302Y0068
X0296Y008
X0296Y0062
X0296Y0074
X0296Y0068
X0296Y0086
X029Y0062
X029Y008
X029Y0074
X029Y0068
X029Y0086
X0284Y0074
X0284Y0062
X0284Y008
X0284Y0068
X0284Y0086
X0278Y008
X0278Y0074
X0278Y0086
X0278Y0062
X0278Y0068
X0272Y0062
X0272Y008
X0272Y0086
X0272Y0074
X0272Y0068
X0266Y008
X0266Y0074
X0266Y0068
X0266Y0086
X0266Y0062
X026Y008
X026Y0086
X026Y0062
X026Y0074
X026Y0068
X0254Y0068
X0254Y0074
X0254Y0062
X0248Y0068
X0248Y0062
X0242Y0068
X0242Y0062
X0242Y0074
X0242Y0092
X0242Y0104
X0242Y011
X0242Y0098
X0248Y0092
X0248Y0104
X0248Y011
X0248Y0098
X0254Y0104
X0254Y011
X0254Y0092
X0254Y0098
X026Y011
X026Y0104
X026Y0098
X026Y0092
X0266Y0104
X0266Y011
X0266Y0098
X0266Y0092
X0272Y0092
X0272Y011
X0272Y0098
X0272Y0104
X0278Y0092
X0278Y0098
X0278Y011
X0278Y0104
X0284Y0104
X0284Y011
X0284Y0098
X0284Y0092
X029Y0104
X029Y011
X029Y0092
X029Y0098
X0296Y011
X0296Y0092
X0296Y0098
X0296Y0104
X0304Y0092
X031Y0092
X0316Y0092
X0318Y011
X0318Y0104
X0318Y0098
X0322Y0092
X0324Y011
X0324Y0104
X0324Y0098
X0328Y0092
X033Y0104
X033Y011
X033Y0098
X0336Y011
X0336Y0104
X0336Y0098
X0342Y011
X0342Y0104
X0342Y0098
X0342Y0092
X0348Y0098
X0348Y011
X0348Y0104
X035Y0092
X0356Y0092
X0362Y0092
X0368Y0092
X0366Y016
X036Y016
X0354Y016
X035Y0142
X035Y0148
X0348Y0154
X0348Y016
X0342Y0142
X0342Y0148
X0342Y0154
X0342Y016
X0336Y0142
X0336Y0148
X0336Y0154
X0336Y016
X033Y0142
X033Y0148
X033Y0154
X033Y016
X0324Y0142
X0324Y0148
X0324Y0154
X0324Y016
X0318Y0142
X0318Y0148
X0318Y0154
X0318Y016
X0312Y016
X0306Y016
X03Y016
X0298Y0142
X0296Y0148
X0296Y0154
X0294Y016
X0292Y0142
X029Y0148
X029Y0154
X0288Y016
X0286Y0142
X0284Y0148
X0284Y0154
X0282Y016
X028Y0142
X0278Y0154
X0278Y0148
X0276Y016
X0274Y0142
X0272Y0154
X0272Y0148
X027Y016
X0268Y0142
X0266Y0148
X0266Y0154
X0264Y016
X0262Y0142
X026Y0154
X026Y0148
X0258Y016
X0256Y0142
X0254Y0154
X0254Y0148
X0252Y016
X025Y0142
X0248Y0148
X0248Y0154
X0246Y016
X0244Y0142
X0238Y0142
X0232Y0142
X0232Y0166
X0232Y0172
X0232Y0178
X0232Y0184
X0238Y0172
X0238Y0166
X0238Y0178
X0238Y0184
X0244Y0166
X0244Y0184
X0244Y0178
X0244Y0172
X025Y0166
X025Y0172
X025Y0178
X025Y0184
X0256Y0166
X0256Y0172
X0256Y0178
X0256Y0184
X0262Y0172
X0262Y0166
X0262Y0178
X0262Y0184
X0268Y0172
X0268Y0178
X0268Y0184
X0268Y0166
X0274Y0178
X0274Y0166
X0274Y0184
X0274Y0172
X028Y0172
X028Y0184
X028Y0178
X028Y0166
X0286Y0178
X0286Y0166
X0286Y0172
X0286Y0184
X0292Y0166
X0292Y0172
X0292Y0178
X0292Y0184
X0298Y0166
X0298Y0172
X0298Y0178
X0298Y0184
X0304Y0184
X031Y0184
X0316Y0184
X032Y0172
X032Y0166
X032Y0178
X0322Y0184
X0328Y0184
X0342Y0184
X0348Y0184
X035Y0166
X035Y0172
X035Y0178
X0354Y0184
X036Y0184
X0366Y0184
X0348Y019
X0348Y0196
X0348Y0202
X0342Y019
X0342Y0196
X0342Y0202
X0336Y019
X0336Y0196
X0336Y0202
X033Y019
X033Y0196
X033Y0202
X0324Y0196
X0324Y0202
X0324Y019
X0318Y019
X0318Y0202
X0318Y0196
X0298Y019
X0298Y0196
X0298Y0202
X0292Y019
X0292Y0196
X0292Y0202
X0286Y019
X0286Y0196
X0286Y0202
X028Y019
X028Y0196
X028Y0202
X0274Y019
X0274Y0196
X0274Y0202
X0268Y0202
X0268Y019
X0268Y0196
X0262Y019
X0262Y0202
X0262Y0196
X0256Y019
X0256Y0202
X0256Y0196
X025Y019
X025Y0202
X025Y0196
X0244Y0196
X0244Y019
X0244Y0202
X0238Y0202
X0238Y019
X0238Y0196
X0232Y0196
X0232Y019
X0232Y0202
X0244Y0236
X025Y0236
X0256Y0236
X0262Y0236
X0268Y0236
X0274Y0236
X028Y0236
X0286Y0236
X0292Y0236
X0298Y0236
X0318Y0234
X0324Y0234
X033Y0234
X0336Y0234
X0342Y0234
X0348Y0234
X03665Y0252
X03605Y0252
X03545Y0252
X035Y026
X03485Y0252
X0348Y024
X0348Y0246
X03425Y0252
X0342Y024
X0342Y0246
X03365Y0252
X0336Y024
X0336Y0246
X03305Y0252
X033Y024
X033Y0246
X03245Y0252
X0324Y0246
X0324Y024
X032Y026
X03185Y0252
X0318Y0246
X0318Y024
X03125Y0252
X03065Y0252
X03Y0248
X03Y0254
X03Y026
X03Y0242
X0294Y0248
X0294Y026
X0294Y0254
X0294Y0242
X0288Y0248
X0288Y026
X0288Y0254
X0288Y0242
X0282Y0248
X0282Y026
X0282Y0254
X0282Y0242
X0276Y026
X0276Y0248
X0276Y0254
X0276Y0242
X027Y0254
X027Y0242
X027Y0248
X027Y026
X0264Y0254
X0264Y0242
X0264Y026
X0264Y0248
X0258Y0254
X0258Y026
X0258Y0248
X0258Y0242
X0252Y0248
X0252Y0242
X0252Y0254
X0246Y0248
X0246Y0242
X0246Y0254
X0052Y0252
X0046Y0252
X004Y0254
X0034Y0254
X0028Y0254
X0022Y0248
X0022Y026
X0022Y0254
X002Y0242
X0016Y026
X0016Y0248
X0016Y0254
X0014Y0242
X001Y0246
X001Y0258
X001Y0252
X001Y027
X001Y0276
X001Y0264
X0016Y0276
X0022Y0278
X0022Y0284
X0052Y0284
X0058Y0284
X0064Y0284
X0244Y0278
X0244Y0272
X0244Y0284
X025Y0278
X025Y0272
X025Y0284
X0258Y0266
X0258Y0278
X0258Y0272
X0258Y0284
X0264Y0272
X0264Y0278
X0264Y0266
X0264Y0284
X027Y0266
X027Y0278
X027Y0272
X027Y0284
X0276Y0278
X0276Y0272
X0276Y0284
X0276Y0266
X0282Y0266
X0282Y0278
X0282Y0272
X0282Y0284
X0288Y0272
X0288Y0266
X0288Y0278
X0288Y0284
X0294Y0266
X0294Y0278
X0294Y0272
X0294Y0284
X03Y0272
X03Y0278
X03Y0266
X03Y0284
X0306Y0278
X0312Y0278
X0318Y0278
X0318Y0284
X032Y0272
X032Y0266
X0324Y0284
X0324Y0278
X033Y0278
X033Y0284
X0336Y0284
X0336Y0278
X0342Y0284
X0342Y0278
X0348Y0284
X0348Y0278
X035Y0266
X035Y0272
X0356Y0278
X0362Y0278
X03685Y0278
X0348Y0296
X0348Y029
X0342Y0296
X0342Y029
X0336Y0296
X0336Y029
X033Y0296
X033Y029
X0324Y0296
X0324Y029
X0318Y0296
X0318Y029
X03Y029
X03Y0296
X0294Y029
X0294Y0296
X0288Y0296
X0288Y029
X0282Y0296
X0282Y029
X0276Y0296
X0276Y029
X027Y029
X027Y0296
X0264Y0296
X0264Y029
X0258Y0296
X0258Y029
X025Y0296
X025Y029
X0244Y0296
X0244Y029
X0066Y0296
X0066Y029
X0066Y0302
X006Y0296
X006Y029
X0054Y0296
X0022Y029
X0022Y0302
X0022Y0296
X0052Y032
X0058Y032
X0064Y032
X0248Y033
X0248Y0336
X0254Y033
X0254Y0336
X026Y0336
X026Y033
X0266Y0336
X0266Y033
X0272Y0336
X0272Y033
X0278Y033
X0278Y0336
X0284Y033
X0284Y0336
X029Y033
X029Y0336
X0296Y033
X0296Y0336
X0318Y033
X0318Y0336
X0324Y033
X0324Y0336
X033Y033
X033Y0336
X0336Y033
X0336Y0336
X0342Y033
X0342Y0336
X0348Y0336
X0348Y033
X03675Y03455
X0362Y0346
X0356Y0346
X035Y0348
X035Y036
X035Y0354
X0348Y0342
X0342Y0342
X0336Y0342
X033Y0342
X0324Y0342
X032Y0348
X032Y036
X032Y0354
X0318Y0342
X0312Y0345
X0306Y0345
X0296Y0348
X0296Y0354
X0296Y036
X0296Y0342
X029Y0348
X029Y0354
X029Y036
X029Y0342
X0284Y0342
X0284Y036
X0284Y0354
X0284Y0348
X0278Y0342
X0278Y0354
X0278Y036
X0278Y0348
X0272Y036
X0272Y0354
X0272Y0342
X0272Y0348
X0266Y036
X0266Y0342
X0266Y0348
X0266Y0354
X026Y036
X026Y0348
X026Y0342
X026Y0354
X0254Y0348
X0254Y0354
X0254Y036
X0254Y0342
X0248Y0354
X0248Y036
X0248Y0342
X0248Y0348
X0242Y0342
X0242Y0354
X0242Y036
X0242Y0348
X0236Y0354
X0236Y036
X0236Y0348
X01825Y03535
X0177Y03475
X0004Y0364
X0004Y037
X0098Y0374
X0112Y0372
X0118Y0372
X0124Y0372
X013Y0372
X0136Y0372
X0142Y0372
X0148Y0372
X0154Y0372
X0242Y0366
X0248Y0366
X0248Y0372
X0254Y0366
X0254Y0378
X0254Y0372
X026Y0366
X026Y0378
X026Y0384
X026Y0372
X0266Y0378
X0266Y0384
X0266Y0366
X0266Y0372
X0272Y0384
X0272Y0378
X0272Y0366
X0272Y0372
X0278Y0366
X0278Y0384
X0278Y0378
X0278Y0372
X0284Y0384
X0284Y0378
X0284Y0366
X0284Y0372
X029Y0366
X029Y0378
X029Y0384
X029Y0372
X0296Y0366
X0296Y0378
X0296Y0384
X0296Y0372
X0302Y0372
X0308Y0372
X0314Y0372
X032Y0384
X032Y0378
X032Y0366
X032Y0372
X0326Y0384
X0326Y0378
X0326Y0372
X0332Y0378
X0332Y0384
X0332Y0372
X0338Y0378
X0338Y0384
X0338Y0372
X0344Y0384
X0344Y0378
X0344Y0372
X035Y0366
X035Y0378
X035Y0384
X035Y0372
X0356Y0372
X0362Y0372
X0368Y0372
X0368Y0396
X0362Y0396
X0356Y0396
X035Y039
X035Y0396
X0344Y039
X0344Y0396
X0338Y039
X0338Y0396
X0332Y039
X0332Y0396
X0326Y0396
X0326Y039
X032Y039
X032Y0396
X0314Y0396
X0308Y0396
X0302Y0396
X0296Y0396
X0296Y039
X029Y0396
X029Y039
X0284Y0396
X0284Y039
X0278Y0396
X0278Y039
X0272Y039
X0272Y0396
X0266Y039
X0168Y04
X0164Y0394
X0162Y04
X0158Y0394
X0156Y04
X0152Y0394
X015Y04
X015Y0406
X0144Y0406
X0142Y039
X0138Y0406
X0136Y0388
X0124Y0388
X0116Y039
X0114Y0396
X011Y039
X0102Y039
X0094Y0388
X009Y0394
X0088Y0388
X0084Y0394
X0082Y0388
X0078Y0394
X0004Y0424
X0004Y043
X001Y043
X001Y0424
X0016Y043
X0016Y0424
X0056Y0416
X0056Y0422
X0056Y043
X0062Y0422
X0064Y0416
X0068Y0422
X007Y0416
X0074Y0422
X0076Y0416
X008Y0422
X0082Y0416
X0086Y0422
X0088Y0416
X0138Y0412
X0138Y0418
X0144Y0412
X0144Y0418
X015Y0418
X015Y0412
X0156Y0432
X0188Y0416
X0194Y0424
X0198Y043
X025Y04295
X0255Y0424
X02875Y0458
X0257Y0458
X0158Y0438
X0134Y0442
X0118Y0444
X0118Y045
X0118Y0456
X01175Y0438
X0112Y045
X0112Y0444
X0112Y0456
X0112Y0438
X0106Y0456
X0106Y045
X0106Y0438
X0106Y0444
X0004Y0476
X0004Y0482
X001Y0482
X001Y0476
X0016Y0476
X0016Y0482
X0106Y0462
X0112Y0462
X0116Y047
X0118Y0462
X0132Y0466
X0137Y0479
X0189Y0489
X028Y0494
X034Y0482
X0259Y0543
X0202Y054
X0196Y054
X0196Y0558
X019Y054
X019Y0534
X0056Y0514
X005Y0514
X0042Y0514
X0046Y0582
X0046Y0576
X0046Y057
X0052Y0586
X0058Y0586
X0064Y0586
X007Y0586
X0074Y0568
X0076Y0586
X008Y0568
X0082Y0586
X0086Y0568
X0088Y0586
X0092Y0568
X0094Y0586
X01Y0586
X0106Y0586
X0112Y058
X0112Y0586
X0112Y0572
X0116Y0568
X012Y0586
X012Y0572
X012Y058
X0148Y0574
X01515Y0586
X0166Y0572
X0166Y0578
X0166Y0584
X0192Y0563
X0194Y0586
X0194Y05795
X02Y0586
X0206Y0586
X0274Y05615
X01445Y05865
X0133Y05865
T6C.028F0S0
X0152Y0331
X0152Y0336
T7C.0315F0S0
X0214Y00412
T8C.0315F0S0
X013526Y00412
X0258Y00475
X0258Y00275
T9C.032F0S0
X0107Y0535
X0125Y0535
X0143Y0535
X0143Y0545
X0125Y0545
X0107Y0545
T10C.03346F0S0
X0009Y0405
X0009Y0415
T11C.035F0S0
X0009Y0457
X0009Y0447
X0009Y0437
X0009Y0467
X0009Y04995
X0009Y04895
X0009Y05095
X0009Y05295
X0009Y05195
X0009Y05395
X0128Y0581
X0138Y0581
X0148Y0581
X0158Y0581
T12C.03937F0S0
X005152Y001283
X005152Y004117
X011648Y001283
X011648Y004117
X016724Y001597
X019676Y001203
T13C.045F0S0
X018828Y009692
X018828Y013708
X018828Y027792
X018828Y031808
T14C.05905F0S0
X003329Y008228
X00825Y008228
X013171Y008228
X0114Y024172
X009825Y024172
X00825Y024172
X006675Y024172
X0051Y024172
X003526Y024172
T15C.06693F0S0
X0358Y049
X0358Y0505
X0358Y052
X0358Y0535
X0323Y0576
X0308Y0576
X0293Y0576
X0278Y0576
X01005Y0577
X00855Y0577
X00705Y0577
X00555Y0577
T16C.085F0S0
X023812Y015204
X024812Y008196
X024812Y026296
X023812Y033304
T17C.11024F0S0
X030891Y005539
X030891Y008
X030891Y010461
X036009Y008
X036009Y010461
X036009Y005539
X036009Y014789
X036009Y01725
X036009Y019711
X030891Y014789
X030891Y01725
X030891Y019711
X030891Y024039
X030891Y0265
X030891Y028961
X036009Y0265
X036009Y028961
X036009Y024039
X036009Y033289
X036009Y03575
X036009Y038211
X030891Y033289
X030891Y03575
X030891Y038211
T18C.17717F0S0
X001969Y001969
M30
