*
*
G04 PADS 9.5 Build Number: 522968 generated Gerber (RS-274-X) file*
G04 PC Version=2.1*
*
%IN "MT-MacthCar V1.0.0 (2)."*%
*
%MOIN*%
*
%FSLAX35Y35*%
*
*
*
*
G04 PC Standard Apertures*
*
*
G04 Thermal Relief Aperture macro.*
%AMTER*
1,1,$1,0,0*
1,0,$1-$2,0,0*
21,0,$3,$4,0,0,45*
21,0,$3,$4,0,0,135*
%
*
*
G04 Annular Aperture macro.*
%AMANN*
1,1,$1,0,0*
1,0,$2,0,0*
%
*
*
G04 Odd Aperture macro.*
%AMODD*
1,1,$1,0,0*
1,0,$1-0.005,0,0*
%
*
*
G04 PC Custom Aperture Macros*
*
*
*
*
*
*
G04 PC Aperture Table*
*
%ADD010C,0.001*%
%ADD023C,0.01*%
%ADD065C,0.002*%
%ADD066C,0.00787*%
%ADD011R,0.04X0.04*%
%ADD012R,0.041X0.041*%
%ADD013R,0.041X0.055*%
%ADD014R,0.055X0.041*%
%ADD015R,0.065X0.065*%
%ADD016R,0.065X0.055*%
%ADD017O,0.085X0.065*%
%ADD018R,0.055X0.065*%
%ADD019C,0.07587*%
%ADD020C,0.06406*%
%ADD021R,0.12311X0.06799*%
%ADD022R,0.09949X0.08374*%
%ADD023C,0.065*%
%ADD024C,0.08374*%
%ADD025R,0.105X0.02862*%
%ADD026O,0.105X0.02862*%
%ADD027R,0.12311X0.06406*%
%ADD028R,0.08374X0.03492*%
%ADD029R,0.02862X0.105*%
%ADD030O,0.02862X0.105*%
%ADD031R,0.063X0.04043*%
%ADD032O,0.14279X0.085*%
%ADD033R,0.08374X0.04043*%
%ADD034R,0.085X0.165*%
%ADD035R,0.165X0.085*%
%ADD036R,0.08374X0.09949*%
%ADD037O,0.205X0.075*%
%ADD038C,0.13098*%
%ADD039R,0.05618X0.10343*%
%ADD040R,0.12311X0.06996*%
%ADD041O,0.029X0.085*%
%ADD042O,0.01681X0.07587*%
%ADD043O,0.07587X0.01681*%
%ADD044O,0.065X0.085*%
%ADD045R,0.105X0.085*%
%ADD046C,0.165*%
%ADD047C,0.085*%
%ADD048O,0.033X0.035*%
%ADD049R,0.10342X0.08374*%
%ADD050R,0.13098X0.16248*%
%ADD051R,0.061X0.057*%
%ADD052R,0.057X0.061*%
%ADD053R,0.09555X0.09555*%
%ADD054C,0.09555*%
%ADD055C,0.24122*%
%ADD056C,0.04437*%
%ADD011R,0.055X0.055*%
%ADD012C,0.055*%
*
*
*
*
G04 PC Circuitry*
G04 Layer Name MT-MacthCar V1.0.0 (2). - circuitry*
%LPD*%
*
*
G04 PC Custom Flashes*
G04 Layer Name MT-MacthCar V1.0.0 (2). - flashes*
%LPD*%
*
*
G04 PC Circuitry*
G04 Layer Name MT-MacthCar V1.0.0 (2). - circuitry*
%LPD*%
*
G54D10*
G54D23*
G01X1819242Y1718328D02*
Y1721121D01*
X1820596Y1722474*
X1823389*
X1824742Y1721121*
Y1718328*
X1823389Y1716974*
X1820596*
X1819242Y1718328*
X1819846Y1717724D02*
X1824139D01*
X1819242Y1718724D02*
X1824742D01*
X1819242Y1719724D02*
X1824742D01*
X1819242Y1720724D02*
X1824742D01*
X1819846Y1721724D02*
X1824139D01*
X1819992Y1717578D02*
Y1721871D01*
X1820992Y1716974D02*
Y1722474D01*
X1821992Y1716974D02*
Y1722474D01*
X1822992Y1716974D02*
Y1722474D01*
X1823992Y1717578D02*
Y1721871D01*
X1821992Y1709724D03*
X1851996Y1603974D02*
X1855789D01*
X1857642Y1602121*
Y1590328*
X1855789Y1588474*
X1851996*
X1850142Y1590328*
Y1602121*
X1851996Y1603974*
X1851746Y1588724D02*
X1856039D01*
X1850746Y1589724D02*
X1857039D01*
X1850142Y1590724D02*
X1857642D01*
X1850142Y1591724D02*
X1857642D01*
X1850142Y1592724D02*
X1857642D01*
X1850142Y1593724D02*
X1857642D01*
X1850142Y1594724D02*
X1857642D01*
X1850142Y1595724D02*
X1857642D01*
X1850142Y1596724D02*
X1857642D01*
X1850142Y1597724D02*
X1857642D01*
X1850142Y1598724D02*
X1857642D01*
X1850142Y1599724D02*
X1857642D01*
X1850142Y1600724D02*
X1857642D01*
X1850142Y1601724D02*
X1857642D01*
X1850746Y1602724D02*
X1857039D01*
X1851746Y1603724D02*
X1856039D01*
X1850992Y1589478D02*
Y1602971D01*
X1851992Y1588478D02*
Y1603971D01*
X1852992Y1588474D02*
Y1603974D01*
X1853992Y1588474D02*
Y1603974D01*
X1854992Y1588474D02*
Y1603974D01*
X1855992Y1588678D02*
Y1603771D01*
X1856992Y1589678D02*
Y1602771D01*
X1924242Y1575721D02*
Y1571928D01*
X1922389Y1570074*
X1910596*
X1908742Y1571928*
Y1575721*
X1910596Y1577574*
X1922389*
X1924242Y1575721*
X1909946Y1570724D02*
X1923039D01*
X1908946Y1571724D02*
X1924039D01*
X1908742Y1572724D02*
X1924242D01*
X1908742Y1573724D02*
X1924242D01*
X1908742Y1574724D02*
X1924242D01*
X1908746Y1575724D02*
X1924239D01*
X1909746Y1576724D02*
X1923239D01*
X1908992Y1571678D02*
Y1575971D01*
X1909992Y1570678D02*
Y1576971D01*
X1910992Y1570074D02*
Y1577574D01*
X1911992Y1570074D02*
Y1577574D01*
X1912992Y1570074D02*
Y1577574D01*
X1913992Y1570074D02*
Y1577574D01*
X1914992Y1570074D02*
Y1577574D01*
X1915992Y1570074D02*
Y1577574D01*
X1916992Y1570074D02*
Y1577574D01*
X1917992Y1570074D02*
Y1577574D01*
X1918992Y1570074D02*
Y1577574D01*
X1919992Y1570074D02*
Y1577574D01*
X1920992Y1570074D02*
Y1577574D01*
X1921992Y1570074D02*
Y1577574D01*
X1922992Y1570678D02*
Y1576971D01*
X1923992Y1571678D02*
Y1575971D01*
X1924242Y1613721D02*
Y1609928D01*
X1922389Y1608074*
X1910596*
X1908742Y1609928*
Y1613721*
X1910596Y1615574*
X1922389*
X1924242Y1613721*
X1909946Y1608724D02*
X1923039D01*
X1908946Y1609724D02*
X1924039D01*
X1908742Y1610724D02*
X1924242D01*
X1908742Y1611724D02*
X1924242D01*
X1908742Y1612724D02*
X1924242D01*
X1908746Y1613724D02*
X1924239D01*
X1909746Y1614724D02*
X1923239D01*
X1908992Y1609678D02*
Y1613971D01*
X1909992Y1608678D02*
Y1614971D01*
X1910992Y1608074D02*
Y1615574D01*
X1911992Y1608074D02*
Y1615574D01*
X1912992Y1608074D02*
Y1615574D01*
X1913992Y1608074D02*
Y1615574D01*
X1914992Y1608074D02*
Y1615574D01*
X1915992Y1608074D02*
Y1615574D01*
X1916992Y1608074D02*
Y1615574D01*
X1917992Y1608074D02*
Y1615574D01*
X1918992Y1608074D02*
Y1615574D01*
X1919992Y1608074D02*
Y1615574D01*
X1920992Y1608074D02*
Y1615574D01*
X1921992Y1608074D02*
Y1615574D01*
X1922992Y1608678D02*
Y1614971D01*
X1923992Y1609678D02*
Y1613971D01*
X1957742Y1575721D02*
Y1571928D01*
X1955889Y1570074*
X1944096*
X1942242Y1571928*
Y1575721*
X1944096Y1577574*
X1955889*
X1957742Y1575721*
X1943446Y1570724D02*
X1956539D01*
X1942446Y1571724D02*
X1957539D01*
X1942242Y1572724D02*
X1957742D01*
X1942242Y1573724D02*
X1957742D01*
X1942242Y1574724D02*
X1957742D01*
X1942246Y1575724D02*
X1957739D01*
X1943246Y1576724D02*
X1956739D01*
X1942992Y1571178D02*
Y1576471D01*
X1943992Y1570178D02*
Y1577471D01*
X1944992Y1570074D02*
Y1577574D01*
X1945992Y1570074D02*
Y1577574D01*
X1946992Y1570074D02*
Y1577574D01*
X1947992Y1570074D02*
Y1577574D01*
X1948992Y1570074D02*
Y1577574D01*
X1949992Y1570074D02*
Y1577574D01*
X1950992Y1570074D02*
Y1577574D01*
X1951992Y1570074D02*
Y1577574D01*
X1952992Y1570074D02*
Y1577574D01*
X1953992Y1570074D02*
Y1577574D01*
X1954992Y1570074D02*
Y1577574D01*
X1955992Y1570178D02*
Y1577471D01*
X1956992Y1571178D02*
Y1576471D01*
X2026992Y1345924D03*
X1948252D03*
G54D65*
X2054992Y1416624D02*
G75*
G03X2053092Y1414724I0J-1900D01*
G01X2054992Y1416624D02*
X2113492D01*
X2115392Y1414724D02*
G03X2113492Y1416624I-1900J0D01*
G01Y1412824D02*
G03X2115392Y1414724I0J1900D01*
G01X2113492Y1412824D02*
X2054992D01*
X2053092Y1414724D02*
G03X2054992Y1412824I1900J0D01*
G01Y1410624D02*
G03X2053092Y1408724I0J-1900D01*
G01X2054992Y1410624D02*
X2113492D01*
X2115392Y1408724D02*
G03X2113492Y1410624I-1900J0D01*
G01Y1406824D02*
G03X2115392Y1408724I0J1900D01*
G01X2113492Y1406824D02*
X2054992D01*
X2053092Y1408724D02*
G03X2054992Y1406824I1900J0D01*
G01Y1398624D02*
G03X2053092Y1396724I0J-1900D01*
G01X2054992Y1398624D02*
X2181492D01*
X2183392Y1396724D02*
G03X2181492Y1398624I-1900J0D01*
G01Y1394824D02*
G03X2183392Y1396724I0J1900D01*
G01X2181492Y1394824D02*
X2054992D01*
X2053092Y1396724D02*
G03X2054992Y1394824I1900J0D01*
G01X2130492Y1416624D02*
G03X2128592Y1414724I0J-1900D01*
G01X2130492Y1416624D02*
X2164492D01*
X2166392Y1414724D02*
G03X2164492Y1416624I-1900J0D01*
G01Y1412824D02*
G03X2166392Y1414724I0J1900D01*
G01X2164492Y1412824D02*
X2130492D01*
X2128592Y1414724D02*
G03X2130492Y1412824I1900J0D01*
G01Y1410624D02*
G03X2128592Y1408724I0J-1900D01*
G01X2130492Y1410624D02*
X2164492D01*
X2166392Y1408724D02*
G03X2164492Y1410624I-1900J0D01*
G01Y1406824D02*
G03X2166392Y1408724I0J1900D01*
G01X2164492Y1406824D02*
X2130492D01*
X2128592Y1408724D02*
G03X2130492Y1406824I1900J0D01*
G01X2054992Y1404624D02*
G03X2053092Y1402724I0J-1900D01*
G01X2054992Y1404624D02*
X2113492D01*
X2115392Y1402724D02*
G03X2113492Y1404624I-1900J0D01*
G01Y1400824D02*
G03X2115392Y1402724I0J1900D01*
G01X2113492Y1400824D02*
X2054992D01*
X2053092Y1402724D02*
G03X2054992Y1400824I1900J0D01*
G01X2130492Y1404624D02*
G03X2128592Y1402724I0J-1900D01*
G01X2130492Y1404624D02*
X2164492D01*
X2166392Y1402724D02*
G03X2164492Y1404624I-1900J0D01*
G01Y1400824D02*
G03X2166392Y1402724I0J1900D01*
G01X2164492Y1400824D02*
X2130492D01*
X2128592Y1402724D02*
G03X2130492Y1400824I1900J0D01*
G01X2054992Y1380624D02*
G03X2053092Y1378724I0J-1900D01*
G01X2054992Y1380624D02*
X2113492D01*
X2115392Y1378724D02*
G03X2113492Y1380624I-1900J0D01*
G01Y1376824D02*
G03X2115392Y1378724I0J1900D01*
G01X2113492Y1376824D02*
X2054992D01*
X2053092Y1378724D02*
G03X2054992Y1376824I1900J0D01*
G01Y1374624D02*
G03X2053092Y1372724I0J-1900D01*
G01X2054992Y1374624D02*
X2181492D01*
X2183392Y1372724D02*
G03X2181492Y1374624I-1900J0D01*
G01Y1370824D02*
G03X2183392Y1372724I0J1900D01*
G01X2181492Y1370824D02*
X2054992D01*
X2053092Y1372724D02*
G03X2054992Y1370824I1900J0D01*
G01Y1368624D02*
G03X2053092Y1366724I0J-1900D01*
G01X2054992Y1368624D02*
X2113492D01*
X2115392Y1366724D02*
G03X2113492Y1368624I-1900J0D01*
G01Y1364824D02*
G03X2115392Y1366724I0J1900D01*
G01X2113492Y1364824D02*
X2054992D01*
X2053092Y1366724D02*
G03X2054992Y1364824I1900J0D01*
G01Y1362624D02*
G03X2053092Y1360724I0J-1900D01*
G01X2054992Y1362624D02*
X2113492D01*
X2115392Y1360724D02*
G03X2113492Y1362624I-1900J0D01*
G01Y1358824D02*
G03X2115392Y1360724I0J1900D01*
G01X2113492Y1358824D02*
X2054992D01*
X2053092Y1360724D02*
G03X2054992Y1358824I1900J0D01*
G01Y1356624D02*
G03X2053092Y1354724I0J-1900D01*
G01X2054992Y1356624D02*
X2113492D01*
X2115392Y1354724D02*
G03X2113492Y1356624I-1900J0D01*
G01Y1352824D02*
G03X2115392Y1354724I0J1900D01*
G01X2113492Y1352824D02*
X2054992D01*
X2053092Y1354724D02*
G03X2054992Y1352824I1900J0D01*
G01X2130492Y1356624D02*
G03X2128592Y1354724I0J-1900D01*
G01X2130492Y1356624D02*
X2164492D01*
X2166392Y1354724D02*
G03X2164492Y1356624I-1900J0D01*
G01Y1352824D02*
G03X2166392Y1354724I0J1900D01*
G01X2164492Y1352824D02*
X2130492D01*
X2128592Y1354724D02*
G03X2130492Y1352824I1900J0D01*
G01Y1362624D02*
G03X2128592Y1360724I0J-1900D01*
G01X2130492Y1362624D02*
X2164492D01*
X2166392Y1360724D02*
G03X2164492Y1362624I-1900J0D01*
G01Y1358824D02*
G03X2166392Y1360724I0J1900D01*
G01X2164492Y1358824D02*
X2130492D01*
X2128592Y1360724D02*
G03X2130492Y1358824I1900J0D01*
G01Y1368624D02*
G03X2128592Y1366724I0J-1900D01*
G01X2130492Y1368624D02*
X2164492D01*
X2166392Y1366724D02*
G03X2164492Y1368624I-1900J0D01*
G01Y1364824D02*
G03X2166392Y1366724I0J1900D01*
G01X2164492Y1364824D02*
X2130492D01*
X2128592Y1366724D02*
G03X2130492Y1364824I1900J0D01*
G01X2132992Y1393124D02*
G03X2131092Y1391224I0J-1900D01*
G01Y1378724*
G03X2132992Y1376824I1900J0*
X2134892Y1378724I0J1900*
G01Y1391224*
G03X2132992Y1393124I-1900J0*
G01X2162992D02*
G03X2161092Y1391224I0J-1900D01*
G01Y1378724*
G03X2162992Y1376824I1900J0*
X2164892Y1378724I0J1900*
G01Y1391224*
G03X2162992Y1393124I-1900J0*
G01X2070492Y1392624D02*
G03X2068592Y1390724I0J-1900D01*
X2070492Y1388824I1900J0*
G01X2113492*
G03X2115392Y1390724I0J1900*
X2113492Y1392624I-1900J0*
G01X2070492*
X2115392Y1384724D02*
G03X2113492Y1386624I-1900J0D01*
G01Y1382824D02*
G03X2115392Y1384724I0J1900D01*
G01X2113492Y1382824D02*
X2070492D01*
X2068592Y1384724D02*
G03X2070492Y1382824I1900J0D01*
G01Y1386624D02*
G03X2068592Y1384724I0J-1900D01*
G01X2070492Y1386624D02*
X2113492D01*
X2044929Y1508624D02*
G03Y1504824I-0J-1900D01*
G01X2113492*
G03Y1508624I0J1900*
G01X2044929*
X2045224Y1502624D02*
G03Y1498824I0J-1900D01*
G01X2113492*
G03Y1502624I0J1900*
G01X2045224*
X2044992Y1496624D02*
G03Y1492824I0J-1900D01*
G01X2113492*
G03Y1496624I0J1900*
G01X2044992*
X2045315Y1490624D02*
G03Y1486824I0J-1900D01*
G01X2181492*
G03Y1490624I0J1900*
G01X2045315*
Y1484624D02*
G03Y1480824I0J-1900D01*
G01X2113492*
G03Y1484624I0J1900*
G01X2045315*
X2045224Y1478624D02*
G03Y1474824I0J-1900D01*
G01X2113492*
G03Y1478624I0J1900*
G01X2045224*
X2045315Y1472624D02*
G03Y1468824I0J-1900D01*
G01X2113492*
G03Y1472624I0J1900*
G01X2045315*
Y1466624D02*
G03Y1462824I0J-1900D01*
G01X2181492*
G03Y1466624I0J1900*
G01X2045315*
X2130492Y1508624D02*
G03X2128592Y1506724I0J-1900D01*
G01X2130492Y1508624D02*
X2164492D01*
X2166392Y1506724D02*
G03X2164492Y1508624I-1900J0D01*
G01Y1504824D02*
G03X2166392Y1506724I0J1900D01*
G01X2164492Y1504824D02*
X2130492D01*
X2128592Y1506724D02*
G03X2130492Y1504824I1900J0D01*
G01Y1502624D02*
G03X2128592Y1500724I0J-1900D01*
G01X2130492Y1502624D02*
X2164492D01*
X2166392Y1500724D02*
G03X2164492Y1502624I-1900J0D01*
G01Y1498824D02*
G03X2166392Y1500724I0J1900D01*
G01X2164492Y1498824D02*
X2130492D01*
X2128592Y1500724D02*
G03X2130492Y1498824I1900J0D01*
G01Y1496624D02*
G03X2128592Y1494724I0J-1900D01*
G01X2130492Y1496624D02*
X2164492D01*
X2166392Y1494724D02*
G03X2164492Y1496624I-1900J0D01*
G01Y1492824D02*
G03X2166392Y1494724I0J1900D01*
G01X2164492Y1492824D02*
X2130492D01*
X2128592Y1494724D02*
G03X2130492Y1492824I1900J0D01*
G01Y1460624D02*
G03X2128592Y1458724I0J-1900D01*
G01X2130492Y1460624D02*
X2164492D01*
X2166392Y1458724D02*
G03X2164492Y1460624I-1900J0D01*
G01Y1456824D02*
G03X2166392Y1458724I0J1900D01*
G01X2164492Y1456824D02*
X2130492D01*
X2128592Y1458724D02*
G03X2130492Y1456824I1900J0D01*
G01Y1454624D02*
G03X2128592Y1452724I0J-1900D01*
G01X2130492Y1454624D02*
X2164492D01*
X2166392Y1452724D02*
G03X2164492Y1454624I-1900J0D01*
G01Y1450824D02*
G03X2166392Y1452724I0J1900D01*
G01X2164492Y1450824D02*
X2130492D01*
X2128592Y1452724D02*
G03X2130492Y1450824I1900J0D01*
G01Y1448624D02*
G03X2128592Y1446724I0J-1900D01*
G01X2130492Y1448624D02*
X2164492D01*
X2166392Y1446724D02*
G03X2164492Y1448624I-1900J0D01*
G01Y1444824D02*
G03X2166392Y1446724I0J1900D01*
G01X2164492Y1444824D02*
X2130492D01*
X2128592Y1446724D02*
G03X2130492Y1444824I1900J0D01*
G01X2060992Y1460624D02*
G03X2059092Y1458724I0J-1900D01*
X2060992Y1456824I1900J0*
G01X2113492*
G03X2115392Y1458724I0J1900*
X2113492Y1460624I-1900J0*
G01X2060992*
Y1454624D02*
G03X2059092Y1452724I0J-1900D01*
X2060992Y1450824I1900J0*
G01X2113492*
G03X2115392Y1452724I0J1900*
X2113492Y1454624I-1900J0*
G01X2060992*
X2132992Y1485124D02*
G03X2131092Y1483224I0J-1900D01*
G01Y1470724*
G03X2132992Y1468824I1900J0*
X2134892Y1470724I0J1900*
G01Y1483224*
G03X2132992Y1485124I-1900J0*
G01X2162992D02*
G03X2161092Y1483224I0J-1900D01*
G01Y1470724*
G03X2162992Y1468824I1900J0*
X2164892Y1470724I0J1900*
G01Y1483224*
G03X2162992Y1485124I-1900J0*
G01X2045429Y1448624D02*
G03Y1444824I-0J-1900D01*
G01X2113492*
G03Y1448624I0J1900*
G01X2045429*
X2084992Y1703124D02*
G03X2083092Y1701224I0J-1900D01*
G01Y1700724*
G03X2084992Y1698824I1900J0*
G01X2180992*
G03X2182892Y1700724I0J1900*
G01Y1701224*
G03X2180992Y1703124I-1900J0*
G01X2084992*
X2130492Y1596624D02*
G03X2128592Y1594724I0J-1900D01*
G01X2130492Y1596624D02*
X2164492D01*
X2166392Y1594724D02*
G03X2164492Y1596624I-1900J0D01*
G01Y1592824D02*
G03X2166392Y1594724I0J1900D01*
G01X2164492Y1592824D02*
X2130492D01*
X2128592Y1594724D02*
G03X2130492Y1592824I1900J0D01*
G01Y1590624D02*
G03X2128592Y1588724I0J-1900D01*
G01X2130492Y1590624D02*
X2164492D01*
X2166392Y1588724D02*
G03X2164492Y1590624I-1900J0D01*
G01Y1586824D02*
G03X2166392Y1588724I0J1900D01*
G01X2164492Y1586824D02*
X2130492D01*
X2128592Y1588724D02*
G03X2130492Y1586824I1900J0D01*
G01Y1602624D02*
G03X2128592Y1600724I0J-1900D01*
G01X2130492Y1602624D02*
X2164492D01*
X2166392Y1600724D02*
G03X2164492Y1602624I-1900J0D01*
G01Y1598824D02*
G03X2166392Y1600724I0J1900D01*
G01X2164492Y1598824D02*
X2130492D01*
X2128592Y1600724D02*
G03X2130492Y1598824I1900J0D01*
G01Y1546624D02*
G03X2128592Y1544724I0J-1900D01*
G01X2130492Y1546624D02*
X2164492D01*
X2166392Y1544724D02*
G03X2164492Y1546624I-1900J0D01*
G01Y1542824D02*
G03X2166392Y1544724I0J1900D01*
G01X2164492Y1542824D02*
X2130492D01*
X2128592Y1544724D02*
G03X2130492Y1542824I1900J0D01*
G01Y1540624D02*
G03X2128592Y1538724I0J-1900D01*
G01X2130492Y1540624D02*
X2164492D01*
X2166392Y1538724D02*
G03X2164492Y1540624I-1900J0D01*
G01Y1536824D02*
G03X2166392Y1538724I0J1900D01*
G01X2164492Y1536824D02*
X2130492D01*
X2128592Y1538724D02*
G03X2130492Y1536824I1900J0D01*
G01Y1552624D02*
G03X2128592Y1550724I0J-1900D01*
G01X2130492Y1552624D02*
X2164492D01*
X2166392Y1550724D02*
G03X2164492Y1552624I-1900J0D01*
G01Y1548824D02*
G03X2166392Y1550724I0J1900D01*
G01X2164492Y1548824D02*
X2130492D01*
X2128592Y1550724D02*
G03X2130492Y1548824I1900J0D01*
G01Y1684624D02*
G03X2128592Y1682724I0J-1900D01*
G01X2130492Y1684624D02*
X2164492D01*
X2166392Y1682724D02*
G03X2164492Y1684624I-1900J0D01*
G01Y1680824D02*
G03X2166392Y1682724I0J1900D01*
G01X2164492Y1680824D02*
X2130492D01*
X2128592Y1682724D02*
G03X2130492Y1680824I1900J0D01*
G01Y1690624D02*
G03X2128592Y1688724I0J-1900D01*
G01X2130492Y1690624D02*
X2164492D01*
X2166392Y1688724D02*
G03X2164492Y1690624I-1900J0D01*
G01Y1686824D02*
G03X2166392Y1688724I0J1900D01*
G01X2164492Y1686824D02*
X2130492D01*
X2128592Y1688724D02*
G03X2130492Y1686824I1900J0D01*
G01Y1696624D02*
G03X2128592Y1694724I0J-1900D01*
G01X2130492Y1696624D02*
X2164492D01*
X2166392Y1694724D02*
G03X2164492Y1696624I-1900J0D01*
G01Y1692824D02*
G03X2166392Y1694724I0J1900D01*
G01X2164492Y1692824D02*
X2130492D01*
X2128592Y1694724D02*
G03X2130492Y1692824I1900J0D01*
G01Y1636624D02*
G03X2128592Y1634724I0J-1900D01*
G01X2130492Y1636624D02*
X2164492D01*
X2166392Y1634724D02*
G03X2164492Y1636624I-1900J0D01*
G01Y1632824D02*
G03X2166392Y1634724I0J1900D01*
G01X2164492Y1632824D02*
X2130492D01*
X2128592Y1634724D02*
G03X2130492Y1632824I1900J0D01*
G01Y1642624D02*
G03X2128592Y1640724I0J-1900D01*
G01X2130492Y1642624D02*
X2164492D01*
X2166392Y1640724D02*
G03X2164492Y1642624I-1900J0D01*
G01Y1638824D02*
G03X2166392Y1640724I0J1900D01*
G01X2164492Y1638824D02*
X2130492D01*
X2128592Y1640724D02*
G03X2130492Y1638824I1900J0D01*
G01Y1648624D02*
G03X2128592Y1646724I0J-1900D01*
G01X2130492Y1648624D02*
X2164492D01*
X2166392Y1646724D02*
G03X2164492Y1648624I-1900J0D01*
G01Y1644824D02*
G03X2166392Y1646724I0J1900D01*
G01X2164492Y1644824D02*
X2130492D01*
X2128592Y1646724D02*
G03X2130492Y1644824I1900J0D01*
G01X2132992Y1578624D02*
G03X2131092Y1576724I0J-1900D01*
G01Y1564224*
G03X2132992Y1562324I1900J0*
X2134892Y1564224I0J1900*
G01Y1576724*
G03X2132992Y1578624I-1900J0*
G01X2162992D02*
G03X2161092Y1576724I0J-1900D01*
G01Y1564224*
G03X2162992Y1562324I1900J0*
X2164892Y1564224I0J1900*
G01Y1576724*
G03X2162992Y1578624I-1900J0*
G01X2134892Y1671224D02*
G03X2131092I-1900J0D01*
G01Y1652513*
G03X2134892I1900J0*
G01Y1671224*
X2164892D02*
G03X2161092I-1900J0D01*
G01Y1652165*
G03X2164892I1900J-0*
G01Y1671224*
X2055492Y1602624D02*
G03X2053592Y1600724I0J-1900D01*
G01X2055492Y1602624D02*
X2113992D01*
X2115892Y1600724D02*
G03X2113992Y1602624I-1900J0D01*
G01Y1598824D02*
G03X2115892Y1600724I0J1900D01*
G01X2113992Y1598824D02*
X2055492D01*
X2053592Y1600724D02*
G03X2055492Y1598824I1900J0D01*
G01Y1596624D02*
G03X2053592Y1594724I0J-1900D01*
G01X2055492Y1596624D02*
X2113992D01*
X2115892Y1594724D02*
G03X2113992Y1596624I-1900J0D01*
G01Y1592824D02*
G03X2115892Y1594724I0J1900D01*
G01X2113992Y1592824D02*
X2055492D01*
X2053592Y1594724D02*
G03X2055492Y1592824I1900J0D01*
G01Y1590624D02*
G03X2053592Y1588724I0J-1900D01*
G01X2055492Y1590624D02*
X2113992D01*
X2115892Y1588724D02*
G03X2113992Y1590624I-1900J0D01*
G01Y1586824D02*
G03X2115892Y1588724I0J1900D01*
G01X2113992Y1586824D02*
X2055492D01*
X2053592Y1588724D02*
G03X2055492Y1586824I1900J0D01*
G01X2054992Y1584624D02*
G03X2053092Y1582724I0J-1900D01*
G01X2054992Y1584624D02*
X2181492D01*
X2183392Y1582724D02*
G03X2181492Y1584624I-1900J0D01*
G01Y1580824D02*
G03X2183392Y1582724I0J1900D01*
G01X2181492Y1580824D02*
X2054992D01*
X2053092Y1582724D02*
G03X2054992Y1580824I1900J0D01*
G01X2070492Y1572624D02*
G03X2068592Y1570724I0J-1900D01*
X2070492Y1568824I1900J0*
G01X2113492*
G03X2115392Y1570724I0J1900*
X2113492Y1572624I-1900J0*
G01X2070492*
X2115392Y1564724D02*
G03X2113492Y1566624I-1900J0D01*
G01Y1562824D02*
G03X2115392Y1564724I0J1900D01*
G01X2113492Y1562824D02*
X2070492D01*
X2068592Y1564724D02*
G03X2070492Y1562824I1900J0D01*
G01Y1566624D02*
G03X2068592Y1564724I0J-1900D01*
G01X2070492Y1566624D02*
X2113492D01*
X2054992Y1578624D02*
G03X2053092Y1576724I0J-1900D01*
X2054992Y1574824I1900J0*
G01X2113492*
G03X2115392Y1576724I0J1900*
X2113492Y1578624I-1900J0*
G01X2054992*
Y1542624D02*
G03X2053092Y1540724I0J-1900D01*
G01X2054992Y1542624D02*
X2113492D01*
X2115392Y1540724D02*
G03X2113492Y1542624I-1900J0D01*
G01Y1538824D02*
G03X2115392Y1540724I0J1900D01*
G01X2113492Y1538824D02*
X2054992D01*
X2053092Y1540724D02*
G03X2054992Y1538824I1900J0D01*
G01Y1548624D02*
G03X2053092Y1546724I0J-1900D01*
G01X2054992Y1548624D02*
X2113492D01*
X2115392Y1546724D02*
G03X2113492Y1548624I-1900J0D01*
G01Y1544824D02*
G03X2115392Y1546724I0J1900D01*
G01X2113492Y1544824D02*
X2054992D01*
X2053092Y1546724D02*
G03X2054992Y1544824I1900J0D01*
G01Y1554624D02*
G03X2053092Y1552724I0J-1900D01*
G01X2054992Y1554624D02*
X2113492D01*
X2115392Y1552724D02*
G03X2113492Y1554624I-1900J0D01*
G01Y1550824D02*
G03X2115392Y1552724I0J1900D01*
G01X2113492Y1550824D02*
X2054992D01*
X2053092Y1552724D02*
G03X2054992Y1550824I1900J0D01*
G01X2078492Y1696624D02*
G03X2077092Y1695224I0J-1400D01*
G01X2078492Y1696624D02*
X2113992D01*
X2115392Y1695224D02*
G03X2113992Y1696624I-1400J0D01*
G01X2115392Y1695224D02*
Y1694224D01*
X2113992Y1692824D02*
G03X2115392Y1694224I0J1400D01*
G01X2113992Y1692824D02*
X2078492D01*
X2077092Y1694224D02*
G03X2078492Y1692824I1400J0D01*
G01X2077092Y1694224D02*
Y1695224D01*
X2072492Y1690624D02*
G03X2071092Y1689224I0J-1400D01*
G01X2072492Y1690624D02*
X2113992D01*
X2115392Y1689224D02*
G03X2113992Y1690624I-1400J0D01*
G01X2115392Y1689224D02*
Y1688224D01*
X2113992Y1686824D02*
G03X2115392Y1688224I0J1400D01*
G01X2113992Y1686824D02*
X2072492D01*
X2071092Y1688224D02*
G03X2072492Y1686824I1400J0D01*
G01X2071092Y1688224D02*
Y1689224D01*
X2066492Y1684624D02*
G03X2065092Y1683224I0J-1400D01*
G01X2066492Y1684624D02*
X2113992D01*
X2115392Y1683224D02*
G03X2113992Y1684624I-1400J0D01*
G01X2115392Y1683224D02*
Y1681724D01*
X2113992Y1680324D02*
G03X2115392Y1681724I0J1400D01*
G01X2113992Y1680324D02*
X2066492D01*
X2065092Y1681724D02*
G03X2066492Y1680324I1400J0D01*
G01X2065092Y1681724D02*
Y1683224D01*
X2060992Y1678624D02*
G03X2059092Y1676724I0J-1900D01*
G01X2060992Y1678624D02*
X2180992D01*
X2182892Y1676724D02*
G03X2180992Y1678624I-1900J0D01*
G01Y1674824D02*
G03X2182892Y1676724I0J1900D01*
G01X2180992Y1674824D02*
X2060992D01*
X2059092Y1676724D02*
G03X2060992Y1674824I1900J0D01*
G01X2054492Y1672624D02*
G03X2053092Y1671224I0J-1400D01*
G01X2054492Y1672624D02*
X2113992D01*
X2115392Y1671224D02*
G03X2113992Y1672624I-1400J0D01*
G01X2115392Y1671224D02*
Y1670224D01*
X2113992Y1668824D02*
G03X2115392Y1670224I0J1400D01*
G01X2113992Y1668824D02*
X2054492D01*
X2053092Y1670224D02*
G03X2054492Y1668824I1400J0D01*
G01X2053092Y1670224D02*
Y1671224D01*
X2048492Y1666624D02*
G03X2047092Y1665224I0J-1400D01*
G01X2048492Y1666624D02*
X2113992D01*
X2115392Y1665224D02*
G03X2113992Y1666624I-1400J0D01*
G01X2115392Y1665224D02*
Y1664224D01*
X2113992Y1662824D02*
G03X2115392Y1664224I0J1400D01*
G01X2113992Y1662824D02*
X2048492D01*
X2047092Y1664224D02*
G03X2048492Y1662824I1400J0D01*
G01X2047092Y1664224D02*
Y1665224D01*
X2044992Y1660624D02*
G03X2043092Y1658724I0J-1900D01*
G01X2044992Y1660624D02*
X2113492D01*
X2115392Y1658724D02*
G03X2113492Y1660624I-1900J0D01*
G01Y1656824D02*
G03X2115392Y1658724I0J1900D01*
G01X2113492Y1656824D02*
X2044992D01*
X2043092Y1658724D02*
G03X2044992Y1656824I1900J0D01*
G01Y1654624D02*
G03X2043092Y1652724I0J-1900D01*
G01X2044992Y1654624D02*
X2113492D01*
X2115392Y1652724D02*
G03X2113492Y1654624I-1900J0D01*
G01Y1650824D02*
G03X2115392Y1652724I0J1900D01*
G01X2113492Y1650824D02*
X2044992D01*
X2043092Y1652724D02*
G03X2044992Y1650824I1900J0D01*
G01Y1648624D02*
G03X2043092Y1646724I0J-1900D01*
G01X2044992Y1648624D02*
X2113492D01*
X2115392Y1646724D02*
G03X2113492Y1648624I-1900J0D01*
G01Y1644824D02*
G03X2115392Y1646724I0J1900D01*
G01X2113492Y1644824D02*
X2044992D01*
X2043092Y1646724D02*
G03X2044992Y1644824I1900J0D01*
G01X2118492Y1651624D02*
G03X2116592Y1649724I0J-1900D01*
G01X2118492Y1651624D02*
X2124992D01*
X2126892Y1649724D02*
G03X2124992Y1651624I-1900J0D01*
G01Y1647824D02*
G03X2126892Y1649724I0J1900D01*
G01X2124992Y1647824D02*
X2118492D01*
X2116592Y1649724D02*
G03X2118492Y1647824I1900J0D01*
G01X2168992Y1652624D02*
G03X2167092Y1650724I0J-1900D01*
G01X2168992Y1652624D02*
X2180992D01*
X2182892Y1650724D02*
G03X2180992Y1652624I-1900J0D01*
G01Y1648824D02*
G03X2182892Y1650724I0J1900D01*
G01X2180992Y1648824D02*
X2168992D01*
X2167092Y1650724D02*
G03X2168992Y1648824I1900J0D01*
G01X2060992Y1642624D02*
G03X2059092Y1640724I0J-1900D01*
G01X2060992Y1642624D02*
X2113492D01*
X2115392Y1640724D02*
G03X2113492Y1642624I-1900J0D01*
G01Y1638824D02*
G03X2115392Y1640724I0J1900D01*
G01X2113492Y1638824D02*
X2060992D01*
X2059092Y1640724D02*
G03X2060992Y1638824I1900J0D01*
G01Y1636624D02*
G03X2059092Y1634724I0J-1900D01*
G01X2060992Y1636624D02*
X2113492D01*
X2115392Y1634724D02*
G03X2113492Y1636624I-1900J0D01*
G01Y1632824D02*
G03X2115392Y1634724I0J1900D01*
G01X2113492Y1632824D02*
X2060992D01*
X2059092Y1634724D02*
G03X2060992Y1632824I1900J0D01*
G01X2180492Y1697124D02*
G03X2179592Y1696224I0J-900D01*
G01X2180492Y1697124D02*
X2181992D01*
X2182892Y1696224D02*
G03X2181992Y1697124I-900J0D01*
G01X2182892Y1696224D02*
Y1681724D01*
X2181992Y1680824D02*
G03X2182892Y1681724I0J900D01*
G01X2181992Y1680824D02*
X2180492D01*
X2179592Y1681724D02*
G03X2180492Y1680824I900J0D01*
G01X2179592Y1681724D02*
Y1696224D01*
X2180492Y1673124D02*
G03X2179592Y1672224I0J-900D01*
G01X2180492Y1673124D02*
X2181492D01*
X2182392Y1672224D02*
G03X2181492Y1673124I-900J0D01*
G01X2182392Y1672224D02*
Y1655224D01*
X2181492Y1654324D02*
G03X2182392Y1655224I0J900D01*
G01X2181492Y1654324D02*
X2180492D01*
X2179592Y1655224D02*
G03X2180492Y1654324I900J0D01*
G01X2179592Y1655224D02*
Y1672224D01*
X2180492Y1646624D02*
G03X2179592Y1645724I0J-900D01*
G01X2180492Y1646624D02*
X2181492D01*
X2182392Y1645724D02*
G03X2181492Y1646624I-900J0D01*
G01X2182392Y1645724D02*
Y1631724D01*
X2181492Y1630824D02*
G03X2182392Y1631724I0J900D01*
G01X2181492Y1630824D02*
X2180492D01*
X2179592Y1631724D02*
G03X2180492Y1630824I900J0D01*
G01X2179592Y1631724D02*
Y1645724D01*
X2180992Y1602124D02*
G03X2179592Y1600724I0J-1400D01*
G01X2182392D02*
G03X2180992Y1602124I-1400J0D01*
G01X2182392Y1600724D02*
Y1588224D01*
X2180992Y1586824D02*
G03X2182392Y1588224I0J1400D01*
G01X2179592D02*
G03X2180992Y1586824I1400J0D01*
G01X2179592Y1588224D02*
Y1600724D01*
X2180992Y1578624D02*
G03X2179592Y1577224I0J-1400D01*
G01X2182392D02*
G03X2180992Y1578624I-1400J0D01*
G01X2182392Y1577224D02*
Y1563724D01*
X2180992Y1562324D02*
G03X2182392Y1563724I0J1400D01*
G01X2179592D02*
G03X2180992Y1562324I1400J0D01*
G01X2179592Y1563724D02*
Y1577224D01*
X2180992Y1552624D02*
G03X2179592Y1551224I0J-1400D01*
G01X2182392D02*
G03X2180992Y1552624I-1400J0D01*
G01X2182392Y1551224D02*
Y1538724D01*
X2180992Y1537324D02*
G03X2182392Y1538724I0J1400D01*
G01X2179592D02*
G03X2180992Y1537324I1400J0D01*
G01X2179592Y1538724D02*
Y1551224D01*
X2180992Y1460624D02*
G03X2179592Y1459224I0J-1400D01*
G01X2182392D02*
G03X2180992Y1460624I-1400J0D01*
G01X2182392Y1459224D02*
Y1446724D01*
X2180992Y1445324D02*
G03X2182392Y1446724I0J1400D01*
G01X2179592D02*
G03X2180992Y1445324I1400J0D01*
G01X2179592Y1446724D02*
Y1459224D01*
X2180992Y1484624D02*
G03X2179592Y1483224I0J-1400D01*
G01X2182392D02*
G03X2180992Y1484624I-1400J0D01*
G01X2182392Y1483224D02*
Y1469724D01*
X2180992Y1468324D02*
G03X2182392Y1469724I0J1400D01*
G01X2179592D02*
G03X2180992Y1468324I1400J0D01*
G01X2179592Y1469724D02*
Y1483224D01*
X2180992Y1508124D02*
G03X2179592Y1506724I0J-1400D01*
G01X2182392D02*
G03X2180992Y1508124I-1400J0D01*
G01X2182392Y1506724D02*
Y1494224D01*
X2180992Y1492824D02*
G03X2182392Y1494224I0J1400D01*
G01X2179592D02*
G03X2180992Y1492824I1400J0D01*
G01X2179592Y1494224D02*
Y1506724D01*
X2180992Y1368624D02*
G03X2179592Y1367224I0J-1400D01*
G01X2182392D02*
G03X2180992Y1368624I-1400J0D01*
G01X2182392Y1367224D02*
Y1354724D01*
X2180992Y1353324D02*
G03X2182392Y1354724I0J1400D01*
G01X2179592D02*
G03X2180992Y1353324I1400J0D01*
G01X2179592Y1354724D02*
Y1367224D01*
X2180992Y1392624D02*
G03X2179592Y1391224I0J-1400D01*
G01X2182392D02*
G03X2180992Y1392624I-1400J0D01*
G01X2182392Y1391224D02*
Y1377724D01*
X2180992Y1376324D02*
G03X2182392Y1377724I0J1400D01*
G01X2179592D02*
G03X2180992Y1376324I1400J0D01*
G01X2179592Y1377724D02*
Y1391224D01*
X2180992Y1416124D02*
G03X2179592Y1414724I0J-1400D01*
G01X2182392D02*
G03X2180992Y1416124I-1400J0D01*
G01X2182392Y1414724D02*
Y1402224D01*
X2180992Y1400824D02*
G03X2182392Y1402224I0J1400D01*
G01X2179592D02*
G03X2180992Y1400824I1400J0D01*
G01X2179592Y1402224D02*
Y1414724D01*
X2054992Y1560624D02*
G03X2053092Y1558724I0J-1900D01*
X2054992Y1556824I1900J0*
G01X2112992*
G03X2114892Y1558724I0J1900*
X2112992Y1560624I-1900J0*
G01X2054992*
X2119492Y1558624D02*
G03Y1554824I0J-1900D01*
G01X2180669*
G03Y1558624I0J1900*
G01X2119492*
X2053094Y1414803D02*
X2115390D01*
X2053095Y1414623D02*
X2115389D01*
X2053110Y1414983D02*
X2115374D01*
X2053113Y1414443D02*
X2115371D01*
X2053143Y1415163D02*
X2115341D01*
X2053149Y1414263D02*
X2115335D01*
X2053196Y1415343D02*
X2115289D01*
X2053204Y1414083D02*
X2115281D01*
X2053268Y1415523D02*
X2115216D01*
X2053279Y1413903D02*
X2115205D01*
X2053364Y1415703D02*
X2115121D01*
X2053377Y1413723D02*
X2115107D01*
X2053486Y1415883D02*
X2114998D01*
X2053504Y1413543D02*
X2114980D01*
X2053644Y1416063D02*
X2114840D01*
X2053667Y1413363D02*
X2114818D01*
X2053850Y1416243D02*
X2114634D01*
X2053881Y1413183D02*
X2114603D01*
X2054141Y1416423D02*
X2114343D01*
X2054188Y1413003D02*
X2114297D01*
X2054708Y1416603D02*
X2113776D01*
X2053094Y1408803D02*
X2115390D01*
X2053095Y1408623D02*
X2115389D01*
X2053110Y1408983D02*
X2115374D01*
X2053113Y1408443D02*
X2115371D01*
X2053143Y1409163D02*
X2115341D01*
X2053149Y1408263D02*
X2115335D01*
X2053196Y1409343D02*
X2115289D01*
X2053204Y1408083D02*
X2115281D01*
X2053268Y1409523D02*
X2115216D01*
X2053279Y1407903D02*
X2115205D01*
X2053364Y1409703D02*
X2115121D01*
X2053377Y1407723D02*
X2115107D01*
X2053486Y1409883D02*
X2114998D01*
X2053504Y1407543D02*
X2114980D01*
X2053644Y1410063D02*
X2114840D01*
X2053667Y1407363D02*
X2114818D01*
X2053850Y1410243D02*
X2114634D01*
X2053881Y1407183D02*
X2114603D01*
X2054141Y1410423D02*
X2114343D01*
X2054188Y1407003D02*
X2114297D01*
X2054708Y1410603D02*
X2113776D01*
X2053094Y1396803D02*
X2183390D01*
X2053095Y1396623D02*
X2183389D01*
X2053110Y1396983D02*
X2183374D01*
X2053113Y1396443D02*
X2183371D01*
X2053143Y1397163D02*
X2183341D01*
X2053149Y1396263D02*
X2183335D01*
X2053196Y1397343D02*
X2183289D01*
X2053204Y1396083D02*
X2183281D01*
X2053268Y1397523D02*
X2183216D01*
X2053279Y1395903D02*
X2183205D01*
X2053364Y1397703D02*
X2183121D01*
X2053377Y1395723D02*
X2183107D01*
X2053486Y1397883D02*
X2182998D01*
X2053504Y1395543D02*
X2182980D01*
X2053644Y1398063D02*
X2182840D01*
X2053667Y1395363D02*
X2182818D01*
X2053850Y1398243D02*
X2182634D01*
X2053881Y1395183D02*
X2182603D01*
X2054141Y1398423D02*
X2182343D01*
X2054188Y1395003D02*
X2182297D01*
X2054708Y1398603D02*
X2181776D01*
X2128594Y1414803D02*
X2166390D01*
X2128595Y1414623D02*
X2166389D01*
X2128610Y1414983D02*
X2166374D01*
X2128613Y1414443D02*
X2166371D01*
X2128643Y1415163D02*
X2166341D01*
X2128649Y1414263D02*
X2166335D01*
X2128696Y1415343D02*
X2166289D01*
X2128704Y1414083D02*
X2166281D01*
X2128768Y1415523D02*
X2166216D01*
X2128779Y1413903D02*
X2166205D01*
X2128864Y1415703D02*
X2166121D01*
X2128877Y1413723D02*
X2166107D01*
X2128986Y1415883D02*
X2165998D01*
X2129004Y1413543D02*
X2165980D01*
X2129144Y1416063D02*
X2165840D01*
X2129167Y1413363D02*
X2165818D01*
X2129350Y1416243D02*
X2165634D01*
X2129381Y1413183D02*
X2165603D01*
X2129641Y1416423D02*
X2165343D01*
X2129688Y1413003D02*
X2165297D01*
X2130208Y1416603D02*
X2164776D01*
X2128594Y1408803D02*
X2166390D01*
X2128595Y1408623D02*
X2166389D01*
X2128610Y1408983D02*
X2166374D01*
X2128613Y1408443D02*
X2166371D01*
X2128643Y1409163D02*
X2166341D01*
X2128649Y1408263D02*
X2166335D01*
X2128696Y1409343D02*
X2166289D01*
X2128704Y1408083D02*
X2166281D01*
X2128768Y1409523D02*
X2166216D01*
X2128779Y1407903D02*
X2166205D01*
X2128864Y1409703D02*
X2166121D01*
X2128877Y1407723D02*
X2166107D01*
X2128986Y1409883D02*
X2165998D01*
X2129004Y1407543D02*
X2165980D01*
X2129144Y1410063D02*
X2165840D01*
X2129167Y1407363D02*
X2165818D01*
X2129350Y1410243D02*
X2165634D01*
X2129381Y1407183D02*
X2165603D01*
X2129641Y1410423D02*
X2165343D01*
X2129688Y1407003D02*
X2165297D01*
X2130208Y1410603D02*
X2164776D01*
X2053094Y1402803D02*
X2115390D01*
X2053095Y1402623D02*
X2115389D01*
X2053110Y1402983D02*
X2115374D01*
X2053113Y1402443D02*
X2115371D01*
X2053143Y1403163D02*
X2115341D01*
X2053149Y1402263D02*
X2115335D01*
X2053196Y1403343D02*
X2115289D01*
X2053204Y1402083D02*
X2115281D01*
X2053268Y1403523D02*
X2115216D01*
X2053279Y1401903D02*
X2115205D01*
X2053364Y1403703D02*
X2115121D01*
X2053377Y1401723D02*
X2115107D01*
X2053486Y1403883D02*
X2114998D01*
X2053504Y1401543D02*
X2114980D01*
X2053644Y1404063D02*
X2114840D01*
X2053667Y1401363D02*
X2114818D01*
X2053850Y1404243D02*
X2114634D01*
X2053881Y1401183D02*
X2114603D01*
X2054141Y1404423D02*
X2114343D01*
X2054188Y1401003D02*
X2114297D01*
X2054708Y1404603D02*
X2113776D01*
X2128594Y1402803D02*
X2166390D01*
X2128595Y1402623D02*
X2166389D01*
X2128610Y1402983D02*
X2166374D01*
X2128613Y1402443D02*
X2166371D01*
X2128643Y1403163D02*
X2166341D01*
X2128649Y1402263D02*
X2166335D01*
X2128696Y1403343D02*
X2166289D01*
X2128704Y1402083D02*
X2166281D01*
X2128768Y1403523D02*
X2166216D01*
X2128779Y1401903D02*
X2166205D01*
X2128864Y1403703D02*
X2166121D01*
X2128877Y1401723D02*
X2166107D01*
X2128986Y1403883D02*
X2165998D01*
X2129004Y1401543D02*
X2165980D01*
X2129144Y1404063D02*
X2165840D01*
X2129167Y1401363D02*
X2165818D01*
X2129350Y1404243D02*
X2165634D01*
X2129381Y1401183D02*
X2165603D01*
X2129641Y1404423D02*
X2165343D01*
X2129688Y1401003D02*
X2165297D01*
X2130208Y1404603D02*
X2164776D01*
X2053094Y1378803D02*
X2115390D01*
X2053095Y1378623D02*
X2115389D01*
X2053110Y1378983D02*
X2115374D01*
X2053113Y1378443D02*
X2115371D01*
X2053143Y1379163D02*
X2115341D01*
X2053149Y1378263D02*
X2115335D01*
X2053196Y1379343D02*
X2115289D01*
X2053204Y1378083D02*
X2115281D01*
X2053268Y1379523D02*
X2115216D01*
X2053279Y1377903D02*
X2115205D01*
X2053364Y1379703D02*
X2115121D01*
X2053377Y1377723D02*
X2115107D01*
X2053486Y1379883D02*
X2114998D01*
X2053504Y1377543D02*
X2114980D01*
X2053644Y1380063D02*
X2114840D01*
X2053667Y1377363D02*
X2114818D01*
X2053850Y1380243D02*
X2114634D01*
X2053881Y1377183D02*
X2114603D01*
X2054141Y1380423D02*
X2114343D01*
X2054188Y1377003D02*
X2114297D01*
X2054708Y1380603D02*
X2113776D01*
X2053094Y1372803D02*
X2183390D01*
X2053095Y1372623D02*
X2183389D01*
X2053110Y1372983D02*
X2183374D01*
X2053113Y1372443D02*
X2183371D01*
X2053143Y1373163D02*
X2183341D01*
X2053149Y1372263D02*
X2183335D01*
X2053196Y1373343D02*
X2183289D01*
X2053204Y1372083D02*
X2183281D01*
X2053268Y1373523D02*
X2183216D01*
X2053279Y1371903D02*
X2183205D01*
X2053364Y1373703D02*
X2183121D01*
X2053377Y1371723D02*
X2183107D01*
X2053486Y1373883D02*
X2182998D01*
X2053504Y1371543D02*
X2182980D01*
X2053644Y1374063D02*
X2182840D01*
X2053667Y1371363D02*
X2182818D01*
X2053850Y1374243D02*
X2182634D01*
X2053881Y1371183D02*
X2182603D01*
X2054141Y1374423D02*
X2182343D01*
X2054188Y1371003D02*
X2182297D01*
X2054708Y1374603D02*
X2181776D01*
X2053094Y1366803D02*
X2115390D01*
X2053095Y1366623D02*
X2115389D01*
X2053110Y1366983D02*
X2115374D01*
X2053113Y1366443D02*
X2115371D01*
X2053143Y1367163D02*
X2115341D01*
X2053149Y1366263D02*
X2115335D01*
X2053196Y1367343D02*
X2115289D01*
X2053204Y1366083D02*
X2115281D01*
X2053268Y1367523D02*
X2115216D01*
X2053279Y1365903D02*
X2115205D01*
X2053364Y1367703D02*
X2115121D01*
X2053377Y1365723D02*
X2115107D01*
X2053486Y1367883D02*
X2114998D01*
X2053504Y1365543D02*
X2114980D01*
X2053644Y1368063D02*
X2114840D01*
X2053667Y1365363D02*
X2114818D01*
X2053850Y1368243D02*
X2114634D01*
X2053881Y1365183D02*
X2114603D01*
X2054141Y1368423D02*
X2114343D01*
X2054188Y1365003D02*
X2114297D01*
X2054708Y1368603D02*
X2113776D01*
X2053094Y1360803D02*
X2115390D01*
X2053095Y1360623D02*
X2115389D01*
X2053110Y1360983D02*
X2115374D01*
X2053113Y1360443D02*
X2115371D01*
X2053143Y1361163D02*
X2115341D01*
X2053149Y1360263D02*
X2115335D01*
X2053196Y1361343D02*
X2115289D01*
X2053204Y1360083D02*
X2115281D01*
X2053268Y1361523D02*
X2115216D01*
X2053279Y1359903D02*
X2115205D01*
X2053364Y1361703D02*
X2115121D01*
X2053377Y1359723D02*
X2115107D01*
X2053486Y1361883D02*
X2114998D01*
X2053504Y1359543D02*
X2114980D01*
X2053644Y1362063D02*
X2114840D01*
X2053667Y1359363D02*
X2114818D01*
X2053850Y1362243D02*
X2114634D01*
X2053881Y1359183D02*
X2114603D01*
X2054141Y1362423D02*
X2114343D01*
X2054188Y1359003D02*
X2114297D01*
X2054708Y1362603D02*
X2113776D01*
X2053094Y1354803D02*
X2115390D01*
X2053095Y1354623D02*
X2115389D01*
X2053110Y1354983D02*
X2115374D01*
X2053113Y1354443D02*
X2115371D01*
X2053143Y1355163D02*
X2115341D01*
X2053149Y1354263D02*
X2115335D01*
X2053196Y1355343D02*
X2115289D01*
X2053204Y1354083D02*
X2115281D01*
X2053268Y1355523D02*
X2115216D01*
X2053279Y1353903D02*
X2115205D01*
X2053364Y1355703D02*
X2115121D01*
X2053377Y1353723D02*
X2115107D01*
X2053486Y1355883D02*
X2114998D01*
X2053504Y1353543D02*
X2114980D01*
X2053644Y1356063D02*
X2114840D01*
X2053667Y1353363D02*
X2114818D01*
X2053850Y1356243D02*
X2114634D01*
X2053881Y1353183D02*
X2114603D01*
X2054141Y1356423D02*
X2114343D01*
X2054188Y1353003D02*
X2114297D01*
X2054708Y1356603D02*
X2113776D01*
X2128594Y1354803D02*
X2166390D01*
X2128595Y1354623D02*
X2166389D01*
X2128610Y1354983D02*
X2166374D01*
X2128613Y1354443D02*
X2166371D01*
X2128643Y1355163D02*
X2166341D01*
X2128649Y1354263D02*
X2166335D01*
X2128696Y1355343D02*
X2166289D01*
X2128704Y1354083D02*
X2166281D01*
X2128768Y1355523D02*
X2166216D01*
X2128779Y1353903D02*
X2166205D01*
X2128864Y1355703D02*
X2166121D01*
X2128877Y1353723D02*
X2166107D01*
X2128986Y1355883D02*
X2165998D01*
X2129004Y1353543D02*
X2165980D01*
X2129144Y1356063D02*
X2165840D01*
X2129167Y1353363D02*
X2165818D01*
X2129350Y1356243D02*
X2165634D01*
X2129381Y1353183D02*
X2165603D01*
X2129641Y1356423D02*
X2165343D01*
X2129688Y1353003D02*
X2165297D01*
X2130208Y1356603D02*
X2164776D01*
X2128594Y1360803D02*
X2166390D01*
X2128595Y1360623D02*
X2166389D01*
X2128610Y1360983D02*
X2166374D01*
X2128613Y1360443D02*
X2166371D01*
X2128643Y1361163D02*
X2166341D01*
X2128649Y1360263D02*
X2166335D01*
X2128696Y1361343D02*
X2166289D01*
X2128704Y1360083D02*
X2166281D01*
X2128768Y1361523D02*
X2166216D01*
X2128779Y1359903D02*
X2166205D01*
X2128864Y1361703D02*
X2166121D01*
X2128877Y1359723D02*
X2166107D01*
X2128986Y1361883D02*
X2165998D01*
X2129004Y1359543D02*
X2165980D01*
X2129144Y1362063D02*
X2165840D01*
X2129167Y1359363D02*
X2165818D01*
X2129350Y1362243D02*
X2165634D01*
X2129381Y1359183D02*
X2165603D01*
X2129641Y1362423D02*
X2165343D01*
X2129688Y1359003D02*
X2165297D01*
X2130208Y1362603D02*
X2164776D01*
X2128594Y1366803D02*
X2166390D01*
X2128595Y1366623D02*
X2166389D01*
X2128610Y1366983D02*
X2166374D01*
X2128613Y1366443D02*
X2166371D01*
X2128643Y1367163D02*
X2166341D01*
X2128649Y1366263D02*
X2166335D01*
X2128696Y1367343D02*
X2166289D01*
X2128704Y1366083D02*
X2166281D01*
X2128768Y1367523D02*
X2166216D01*
X2128779Y1365903D02*
X2166205D01*
X2128864Y1367703D02*
X2166121D01*
X2128877Y1365723D02*
X2166107D01*
X2128986Y1367883D02*
X2165998D01*
X2129004Y1365543D02*
X2165980D01*
X2129144Y1368063D02*
X2165840D01*
X2129167Y1365363D02*
X2165818D01*
X2129350Y1368243D02*
X2165634D01*
X2129381Y1365183D02*
X2165603D01*
X2129641Y1368423D02*
X2165343D01*
X2129688Y1365003D02*
X2165297D01*
X2130208Y1368603D02*
X2164776D01*
X2131092Y1391223D02*
X2134892D01*
X2131092Y1391043D02*
X2134892D01*
X2131092Y1390863D02*
X2134892D01*
X2131092Y1390683D02*
X2134892D01*
X2131092Y1390503D02*
X2134892D01*
X2131092Y1390323D02*
X2134892D01*
X2131092Y1390143D02*
X2134892D01*
X2131092Y1389963D02*
X2134892D01*
X2131092Y1389783D02*
X2134892D01*
X2131092Y1389603D02*
X2134892D01*
X2131092Y1389423D02*
X2134892D01*
X2131092Y1389243D02*
X2134892D01*
X2131092Y1389063D02*
X2134892D01*
X2131092Y1388883D02*
X2134892D01*
X2131092Y1388703D02*
X2134892D01*
X2131092Y1388523D02*
X2134892D01*
X2131092Y1388343D02*
X2134892D01*
X2131092Y1388163D02*
X2134892D01*
X2131092Y1387983D02*
X2134892D01*
X2131092Y1387803D02*
X2134892D01*
X2131092Y1387623D02*
X2134892D01*
X2131092Y1387443D02*
X2134892D01*
X2131092Y1387263D02*
X2134892D01*
X2131092Y1387083D02*
X2134892D01*
X2131092Y1386903D02*
X2134892D01*
X2131092Y1386723D02*
X2134892D01*
X2131092Y1386543D02*
X2134892D01*
X2131092Y1386363D02*
X2134892D01*
X2131092Y1386183D02*
X2134892D01*
X2131092Y1386003D02*
X2134892D01*
X2131092Y1385823D02*
X2134892D01*
X2131092Y1385643D02*
X2134892D01*
X2131092Y1385463D02*
X2134892D01*
X2131092Y1385283D02*
X2134892D01*
X2131092Y1385103D02*
X2134892D01*
X2131092Y1384923D02*
X2134892D01*
X2131092Y1384743D02*
X2134892D01*
X2131092Y1384563D02*
X2134892D01*
X2131092Y1384383D02*
X2134892D01*
X2131092Y1384203D02*
X2134892D01*
X2131092Y1384023D02*
X2134892D01*
X2131092Y1383843D02*
X2134892D01*
X2131092Y1383663D02*
X2134892D01*
X2131092Y1383483D02*
X2134892D01*
X2131092Y1383303D02*
X2134892D01*
X2131092Y1383123D02*
X2134892D01*
X2131092Y1382943D02*
X2134892D01*
X2131092Y1382763D02*
X2134892D01*
X2131092Y1382583D02*
X2134892D01*
X2131092Y1382403D02*
X2134892D01*
X2131092Y1382223D02*
X2134892D01*
X2131092Y1382043D02*
X2134892D01*
X2131092Y1381863D02*
X2134892D01*
X2131092Y1381683D02*
X2134892D01*
X2131092Y1381503D02*
X2134892D01*
X2131092Y1381323D02*
X2134892D01*
X2131092Y1381143D02*
X2134892D01*
X2131092Y1380963D02*
X2134892D01*
X2131092Y1380783D02*
X2134892D01*
X2131092Y1380603D02*
X2134892D01*
X2131092Y1380423D02*
X2134892D01*
X2131092Y1380243D02*
X2134892D01*
X2131092Y1380063D02*
X2134892D01*
X2131092Y1379883D02*
X2134892D01*
X2131092Y1379703D02*
X2134892D01*
X2131092Y1379523D02*
X2134892D01*
X2131092Y1379343D02*
X2134892D01*
X2131092Y1379163D02*
X2134892D01*
X2131092Y1378983D02*
X2134892D01*
X2131092Y1378803D02*
X2134892D01*
X2131095Y1378623D02*
X2134889D01*
X2131101Y1391403D02*
X2134884D01*
X2131113Y1378443D02*
X2134871D01*
X2131126Y1391583D02*
X2134858D01*
X2131149Y1378263D02*
X2134835D01*
X2131170Y1391763D02*
X2134814D01*
X2131204Y1378083D02*
X2134781D01*
X2131233Y1391943D02*
X2134751D01*
X2131279Y1377903D02*
X2134705D01*
X2131318Y1392123D02*
X2134666D01*
X2131377Y1377723D02*
X2134607D01*
X2131428Y1392303D02*
X2134556D01*
X2131504Y1377543D02*
X2134480D01*
X2131569Y1392483D02*
X2134415D01*
X2131667Y1377363D02*
X2134318D01*
X2131751Y1392663D02*
X2134233D01*
X2131881Y1377183D02*
X2134103D01*
X2131997Y1392843D02*
X2133987D01*
X2132188Y1377003D02*
X2133797D01*
X2132380Y1393023D02*
X2133604D01*
X2161092Y1391223D02*
X2164892D01*
X2161092Y1391043D02*
X2164892D01*
X2161092Y1390863D02*
X2164892D01*
X2161092Y1390683D02*
X2164892D01*
X2161092Y1390503D02*
X2164892D01*
X2161092Y1390323D02*
X2164892D01*
X2161092Y1390143D02*
X2164892D01*
X2161092Y1389963D02*
X2164892D01*
X2161092Y1389783D02*
X2164892D01*
X2161092Y1389603D02*
X2164892D01*
X2161092Y1389423D02*
X2164892D01*
X2161092Y1389243D02*
X2164892D01*
X2161092Y1389063D02*
X2164892D01*
X2161092Y1388883D02*
X2164892D01*
X2161092Y1388703D02*
X2164892D01*
X2161092Y1388523D02*
X2164892D01*
X2161092Y1388343D02*
X2164892D01*
X2161092Y1388163D02*
X2164892D01*
X2161092Y1387983D02*
X2164892D01*
X2161092Y1387803D02*
X2164892D01*
X2161092Y1387623D02*
X2164892D01*
X2161092Y1387443D02*
X2164892D01*
X2161092Y1387263D02*
X2164892D01*
X2161092Y1387083D02*
X2164892D01*
X2161092Y1386903D02*
X2164892D01*
X2161092Y1386723D02*
X2164892D01*
X2161092Y1386543D02*
X2164892D01*
X2161092Y1386363D02*
X2164892D01*
X2161092Y1386183D02*
X2164892D01*
X2161092Y1386003D02*
X2164892D01*
X2161092Y1385823D02*
X2164892D01*
X2161092Y1385643D02*
X2164892D01*
X2161092Y1385463D02*
X2164892D01*
X2161092Y1385283D02*
X2164892D01*
X2161092Y1385103D02*
X2164892D01*
X2161092Y1384923D02*
X2164892D01*
X2161092Y1384743D02*
X2164892D01*
X2161092Y1384563D02*
X2164892D01*
X2161092Y1384383D02*
X2164892D01*
X2161092Y1384203D02*
X2164892D01*
X2161092Y1384023D02*
X2164892D01*
X2161092Y1383843D02*
X2164892D01*
X2161092Y1383663D02*
X2164892D01*
X2161092Y1383483D02*
X2164892D01*
X2161092Y1383303D02*
X2164892D01*
X2161092Y1383123D02*
X2164892D01*
X2161092Y1382943D02*
X2164892D01*
X2161092Y1382763D02*
X2164892D01*
X2161092Y1382583D02*
X2164892D01*
X2161092Y1382403D02*
X2164892D01*
X2161092Y1382223D02*
X2164892D01*
X2161092Y1382043D02*
X2164892D01*
X2161092Y1381863D02*
X2164892D01*
X2161092Y1381683D02*
X2164892D01*
X2161092Y1381503D02*
X2164892D01*
X2161092Y1381323D02*
X2164892D01*
X2161092Y1381143D02*
X2164892D01*
X2161092Y1380963D02*
X2164892D01*
X2161092Y1380783D02*
X2164892D01*
X2161092Y1380603D02*
X2164892D01*
X2161092Y1380423D02*
X2164892D01*
X2161092Y1380243D02*
X2164892D01*
X2161092Y1380063D02*
X2164892D01*
X2161092Y1379883D02*
X2164892D01*
X2161092Y1379703D02*
X2164892D01*
X2161092Y1379523D02*
X2164892D01*
X2161092Y1379343D02*
X2164892D01*
X2161092Y1379163D02*
X2164892D01*
X2161092Y1378983D02*
X2164892D01*
X2161092Y1378803D02*
X2164892D01*
X2161095Y1378623D02*
X2164889D01*
X2161101Y1391403D02*
X2164884D01*
X2161113Y1378443D02*
X2164871D01*
X2161126Y1391583D02*
X2164858D01*
X2161149Y1378263D02*
X2164835D01*
X2161170Y1391763D02*
X2164814D01*
X2161204Y1378083D02*
X2164781D01*
X2161233Y1391943D02*
X2164751D01*
X2161279Y1377903D02*
X2164705D01*
X2161318Y1392123D02*
X2164666D01*
X2161377Y1377723D02*
X2164607D01*
X2161428Y1392303D02*
X2164556D01*
X2161504Y1377543D02*
X2164480D01*
X2161569Y1392483D02*
X2164415D01*
X2161667Y1377363D02*
X2164318D01*
X2161751Y1392663D02*
X2164233D01*
X2161881Y1377183D02*
X2164103D01*
X2161997Y1392843D02*
X2163987D01*
X2162188Y1377003D02*
X2163797D01*
X2162380Y1393023D02*
X2163604D01*
X2068594Y1390803D02*
X2115390D01*
X2068595Y1390623D02*
X2115389D01*
X2068610Y1390983D02*
X2115374D01*
X2068613Y1390443D02*
X2115371D01*
X2068643Y1391163D02*
X2115341D01*
X2068649Y1390263D02*
X2115335D01*
X2068696Y1391343D02*
X2115289D01*
X2068704Y1390083D02*
X2115281D01*
X2068768Y1391523D02*
X2115216D01*
X2068779Y1389903D02*
X2115205D01*
X2068864Y1391703D02*
X2115121D01*
X2068877Y1389723D02*
X2115107D01*
X2068986Y1391883D02*
X2114998D01*
X2069004Y1389543D02*
X2114980D01*
X2069144Y1392063D02*
X2114840D01*
X2069167Y1389363D02*
X2114818D01*
X2069350Y1392243D02*
X2114634D01*
X2069381Y1389183D02*
X2114603D01*
X2069641Y1392423D02*
X2114343D01*
X2069688Y1389003D02*
X2114297D01*
X2070208Y1392603D02*
X2113776D01*
X2068594Y1384803D02*
X2115390D01*
X2068595Y1384623D02*
X2115389D01*
X2068610Y1384983D02*
X2115374D01*
X2068613Y1384443D02*
X2115371D01*
X2068643Y1385163D02*
X2115341D01*
X2068649Y1384263D02*
X2115335D01*
X2068696Y1385343D02*
X2115289D01*
X2068704Y1384083D02*
X2115281D01*
X2068768Y1385523D02*
X2115216D01*
X2068779Y1383903D02*
X2115205D01*
X2068864Y1385703D02*
X2115121D01*
X2068877Y1383723D02*
X2115107D01*
X2068986Y1385883D02*
X2114998D01*
X2069004Y1383543D02*
X2114980D01*
X2069144Y1386063D02*
X2114840D01*
X2069167Y1383363D02*
X2114818D01*
X2069350Y1386243D02*
X2114634D01*
X2069381Y1383183D02*
X2114603D01*
X2069641Y1386423D02*
X2114343D01*
X2069688Y1383003D02*
X2114297D01*
X2070208Y1386603D02*
X2113776D01*
X2043030Y1506803D02*
X2115390D01*
X2043031Y1506623D02*
X2115389D01*
X2043046Y1506983D02*
X2115374D01*
X2043050Y1506443D02*
X2115371D01*
X2043080Y1507163D02*
X2115341D01*
X2043085Y1506263D02*
X2115335D01*
X2043132Y1507343D02*
X2115289D01*
X2043140Y1506083D02*
X2115281D01*
X2043205Y1507523D02*
X2115216D01*
X2043215Y1505903D02*
X2115205D01*
X2043300Y1507703D02*
X2115121D01*
X2043314Y1505723D02*
X2115107D01*
X2043423Y1507883D02*
X2114998D01*
X2043440Y1505543D02*
X2114980D01*
X2043580Y1508063D02*
X2114840D01*
X2043603Y1505363D02*
X2114818D01*
X2043787Y1508243D02*
X2114634D01*
X2043818Y1505183D02*
X2114603D01*
X2044077Y1508423D02*
X2114343D01*
X2044124Y1505003D02*
X2114297D01*
X2044645Y1508603D02*
X2113776D01*
X2043326Y1500803D02*
X2115390D01*
X2043327Y1500623D02*
X2115389D01*
X2043342Y1500983D02*
X2115374D01*
X2043345Y1500443D02*
X2115371D01*
X2043376Y1501163D02*
X2115341D01*
X2043381Y1500263D02*
X2115335D01*
X2043428Y1501343D02*
X2115289D01*
X2043436Y1500083D02*
X2115281D01*
X2043500Y1501523D02*
X2115216D01*
X2043511Y1499903D02*
X2115205D01*
X2043596Y1501703D02*
X2115121D01*
X2043609Y1499723D02*
X2115107D01*
X2043718Y1501883D02*
X2114998D01*
X2043736Y1499543D02*
X2114980D01*
X2043876Y1502063D02*
X2114840D01*
X2043899Y1499363D02*
X2114818D01*
X2044082Y1502243D02*
X2114634D01*
X2044113Y1499183D02*
X2114603D01*
X2044373Y1502423D02*
X2114343D01*
X2044420Y1499003D02*
X2114297D01*
X2044940Y1502603D02*
X2113776D01*
X2043094Y1494803D02*
X2115390D01*
X2043095Y1494623D02*
X2115389D01*
X2043110Y1494983D02*
X2115374D01*
X2043113Y1494443D02*
X2115371D01*
X2043143Y1495163D02*
X2115341D01*
X2043149Y1494263D02*
X2115335D01*
X2043196Y1495343D02*
X2115289D01*
X2043204Y1494083D02*
X2115281D01*
X2043268Y1495523D02*
X2115216D01*
X2043279Y1493903D02*
X2115205D01*
X2043364Y1495703D02*
X2115121D01*
X2043377Y1493723D02*
X2115107D01*
X2043486Y1495883D02*
X2114998D01*
X2043504Y1493543D02*
X2114980D01*
X2043644Y1496063D02*
X2114840D01*
X2043667Y1493363D02*
X2114818D01*
X2043850Y1496243D02*
X2114634D01*
X2043881Y1493183D02*
X2114603D01*
X2044141Y1496423D02*
X2114343D01*
X2044188Y1493003D02*
X2114297D01*
X2044708Y1496603D02*
X2113776D01*
X2043417Y1488803D02*
X2183390D01*
X2043418Y1488623D02*
X2183389D01*
X2043433Y1488983D02*
X2183374D01*
X2043436Y1488443D02*
X2183371D01*
X2043466Y1489163D02*
X2183341D01*
X2043472Y1488263D02*
X2183335D01*
X2043519Y1489343D02*
X2183289D01*
X2043527Y1488083D02*
X2183281D01*
X2043591Y1489523D02*
X2183216D01*
X2043602Y1487903D02*
X2183205D01*
X2043686Y1489703D02*
X2183121D01*
X2043700Y1487723D02*
X2183107D01*
X2043809Y1489883D02*
X2182998D01*
X2043827Y1487543D02*
X2182980D01*
X2043967Y1490063D02*
X2182840D01*
X2043990Y1487363D02*
X2182818D01*
X2044173Y1490243D02*
X2182634D01*
X2044204Y1487183D02*
X2182603D01*
X2044464Y1490423D02*
X2182343D01*
X2044511Y1487003D02*
X2182297D01*
X2045031Y1490603D02*
X2181776D01*
X2043417Y1482803D02*
X2115390D01*
X2043418Y1482623D02*
X2115389D01*
X2043433Y1482983D02*
X2115374D01*
X2043436Y1482443D02*
X2115371D01*
X2043466Y1483163D02*
X2115341D01*
X2043472Y1482263D02*
X2115335D01*
X2043519Y1483343D02*
X2115289D01*
X2043527Y1482083D02*
X2115281D01*
X2043591Y1483523D02*
X2115216D01*
X2043602Y1481903D02*
X2115205D01*
X2043686Y1483703D02*
X2115121D01*
X2043700Y1481723D02*
X2115107D01*
X2043809Y1483883D02*
X2114998D01*
X2043827Y1481543D02*
X2114980D01*
X2043967Y1484063D02*
X2114840D01*
X2043990Y1481363D02*
X2114818D01*
X2044173Y1484243D02*
X2114634D01*
X2044204Y1481183D02*
X2114603D01*
X2044464Y1484423D02*
X2114343D01*
X2044511Y1481003D02*
X2114297D01*
X2045031Y1484603D02*
X2113776D01*
X2043326Y1476803D02*
X2115390D01*
X2043327Y1476623D02*
X2115389D01*
X2043342Y1476983D02*
X2115374D01*
X2043345Y1476443D02*
X2115371D01*
X2043376Y1477163D02*
X2115341D01*
X2043381Y1476263D02*
X2115335D01*
X2043428Y1477343D02*
X2115289D01*
X2043436Y1476083D02*
X2115281D01*
X2043500Y1477523D02*
X2115216D01*
X2043511Y1475903D02*
X2115205D01*
X2043596Y1477703D02*
X2115121D01*
X2043609Y1475723D02*
X2115107D01*
X2043718Y1477883D02*
X2114998D01*
X2043736Y1475543D02*
X2114980D01*
X2043876Y1478063D02*
X2114840D01*
X2043899Y1475363D02*
X2114818D01*
X2044082Y1478243D02*
X2114634D01*
X2044113Y1475183D02*
X2114603D01*
X2044373Y1478423D02*
X2114343D01*
X2044420Y1475003D02*
X2114297D01*
X2044940Y1478603D02*
X2113776D01*
X2043417Y1470803D02*
X2115390D01*
X2043418Y1470623D02*
X2115389D01*
X2043433Y1470983D02*
X2115374D01*
X2043436Y1470443D02*
X2115371D01*
X2043466Y1471163D02*
X2115341D01*
X2043472Y1470263D02*
X2115335D01*
X2043519Y1471343D02*
X2115289D01*
X2043527Y1470083D02*
X2115281D01*
X2043591Y1471523D02*
X2115216D01*
X2043602Y1469903D02*
X2115205D01*
X2043686Y1471703D02*
X2115121D01*
X2043700Y1469723D02*
X2115107D01*
X2043809Y1471883D02*
X2114998D01*
X2043827Y1469543D02*
X2114980D01*
X2043967Y1472063D02*
X2114840D01*
X2043990Y1469363D02*
X2114818D01*
X2044173Y1472243D02*
X2114634D01*
X2044204Y1469183D02*
X2114603D01*
X2044464Y1472423D02*
X2114343D01*
X2044511Y1469003D02*
X2114297D01*
X2045031Y1472603D02*
X2113776D01*
X2043417Y1464803D02*
X2183390D01*
X2043418Y1464623D02*
X2183389D01*
X2043433Y1464983D02*
X2183374D01*
X2043436Y1464443D02*
X2183371D01*
X2043466Y1465163D02*
X2183341D01*
X2043472Y1464263D02*
X2183335D01*
X2043519Y1465343D02*
X2183289D01*
X2043527Y1464083D02*
X2183281D01*
X2043591Y1465523D02*
X2183216D01*
X2043602Y1463903D02*
X2183205D01*
X2043686Y1465703D02*
X2183121D01*
X2043700Y1463723D02*
X2183107D01*
X2043809Y1465883D02*
X2182998D01*
X2043827Y1463543D02*
X2182980D01*
X2043967Y1466063D02*
X2182840D01*
X2043990Y1463363D02*
X2182818D01*
X2044173Y1466243D02*
X2182634D01*
X2044204Y1463183D02*
X2182603D01*
X2044464Y1466423D02*
X2182343D01*
X2044511Y1463003D02*
X2182297D01*
X2045031Y1466603D02*
X2181776D01*
X2128594Y1506803D02*
X2166390D01*
X2128595Y1506623D02*
X2166389D01*
X2128610Y1506983D02*
X2166374D01*
X2128613Y1506443D02*
X2166371D01*
X2128643Y1507163D02*
X2166341D01*
X2128649Y1506263D02*
X2166335D01*
X2128696Y1507343D02*
X2166289D01*
X2128704Y1506083D02*
X2166281D01*
X2128768Y1507523D02*
X2166216D01*
X2128779Y1505903D02*
X2166205D01*
X2128864Y1507703D02*
X2166121D01*
X2128877Y1505723D02*
X2166107D01*
X2128986Y1507883D02*
X2165998D01*
X2129004Y1505543D02*
X2165980D01*
X2129144Y1508063D02*
X2165840D01*
X2129167Y1505363D02*
X2165818D01*
X2129350Y1508243D02*
X2165634D01*
X2129381Y1505183D02*
X2165603D01*
X2129641Y1508423D02*
X2165343D01*
X2129688Y1505003D02*
X2165297D01*
X2130208Y1508603D02*
X2164776D01*
X2128594Y1500803D02*
X2166390D01*
X2128595Y1500623D02*
X2166389D01*
X2128610Y1500983D02*
X2166374D01*
X2128613Y1500443D02*
X2166371D01*
X2128643Y1501163D02*
X2166341D01*
X2128649Y1500263D02*
X2166335D01*
X2128696Y1501343D02*
X2166289D01*
X2128704Y1500083D02*
X2166281D01*
X2128768Y1501523D02*
X2166216D01*
X2128779Y1499903D02*
X2166205D01*
X2128864Y1501703D02*
X2166121D01*
X2128877Y1499723D02*
X2166107D01*
X2128986Y1501883D02*
X2165998D01*
X2129004Y1499543D02*
X2165980D01*
X2129144Y1502063D02*
X2165840D01*
X2129167Y1499363D02*
X2165818D01*
X2129350Y1502243D02*
X2165634D01*
X2129381Y1499183D02*
X2165603D01*
X2129641Y1502423D02*
X2165343D01*
X2129688Y1499003D02*
X2165297D01*
X2130208Y1502603D02*
X2164776D01*
X2128594Y1494803D02*
X2166390D01*
X2128595Y1494623D02*
X2166389D01*
X2128610Y1494983D02*
X2166374D01*
X2128613Y1494443D02*
X2166371D01*
X2128643Y1495163D02*
X2166341D01*
X2128649Y1494263D02*
X2166335D01*
X2128696Y1495343D02*
X2166289D01*
X2128704Y1494083D02*
X2166281D01*
X2128768Y1495523D02*
X2166216D01*
X2128779Y1493903D02*
X2166205D01*
X2128864Y1495703D02*
X2166121D01*
X2128877Y1493723D02*
X2166107D01*
X2128986Y1495883D02*
X2165998D01*
X2129004Y1493543D02*
X2165980D01*
X2129144Y1496063D02*
X2165840D01*
X2129167Y1493363D02*
X2165818D01*
X2129350Y1496243D02*
X2165634D01*
X2129381Y1493183D02*
X2165603D01*
X2129641Y1496423D02*
X2165343D01*
X2129688Y1493003D02*
X2165297D01*
X2130208Y1496603D02*
X2164776D01*
X2128594Y1458803D02*
X2166390D01*
X2128595Y1458623D02*
X2166389D01*
X2128610Y1458983D02*
X2166374D01*
X2128613Y1458443D02*
X2166371D01*
X2128643Y1459163D02*
X2166341D01*
X2128649Y1458263D02*
X2166335D01*
X2128696Y1459343D02*
X2166289D01*
X2128704Y1458083D02*
X2166281D01*
X2128768Y1459523D02*
X2166216D01*
X2128779Y1457903D02*
X2166205D01*
X2128864Y1459703D02*
X2166121D01*
X2128877Y1457723D02*
X2166107D01*
X2128986Y1459883D02*
X2165998D01*
X2129004Y1457543D02*
X2165980D01*
X2129144Y1460063D02*
X2165840D01*
X2129167Y1457363D02*
X2165818D01*
X2129350Y1460243D02*
X2165634D01*
X2129381Y1457183D02*
X2165603D01*
X2129641Y1460423D02*
X2165343D01*
X2129688Y1457003D02*
X2165297D01*
X2130208Y1460603D02*
X2164776D01*
X2128594Y1452803D02*
X2166390D01*
X2128595Y1452623D02*
X2166389D01*
X2128610Y1452983D02*
X2166374D01*
X2128613Y1452443D02*
X2166371D01*
X2128643Y1453163D02*
X2166341D01*
X2128649Y1452263D02*
X2166335D01*
X2128696Y1453343D02*
X2166289D01*
X2128704Y1452083D02*
X2166281D01*
X2128768Y1453523D02*
X2166216D01*
X2128779Y1451903D02*
X2166205D01*
X2128864Y1453703D02*
X2166121D01*
X2128877Y1451723D02*
X2166107D01*
X2128986Y1453883D02*
X2165998D01*
X2129004Y1451543D02*
X2165980D01*
X2129144Y1454063D02*
X2165840D01*
X2129167Y1451363D02*
X2165818D01*
X2129350Y1454243D02*
X2165634D01*
X2129381Y1451183D02*
X2165603D01*
X2129641Y1454423D02*
X2165343D01*
X2129688Y1451003D02*
X2165297D01*
X2130208Y1454603D02*
X2164776D01*
X2128594Y1446803D02*
X2166390D01*
X2128595Y1446623D02*
X2166389D01*
X2128610Y1446983D02*
X2166374D01*
X2128613Y1446443D02*
X2166371D01*
X2128643Y1447163D02*
X2166341D01*
X2128649Y1446263D02*
X2166335D01*
X2128696Y1447343D02*
X2166289D01*
X2128704Y1446083D02*
X2166281D01*
X2128768Y1447523D02*
X2166216D01*
X2128779Y1445903D02*
X2166205D01*
X2128864Y1447703D02*
X2166121D01*
X2128877Y1445723D02*
X2166107D01*
X2128986Y1447883D02*
X2165998D01*
X2129004Y1445543D02*
X2165980D01*
X2129144Y1448063D02*
X2165840D01*
X2129167Y1445363D02*
X2165818D01*
X2129350Y1448243D02*
X2165634D01*
X2129381Y1445183D02*
X2165603D01*
X2129641Y1448423D02*
X2165343D01*
X2129688Y1445003D02*
X2165297D01*
X2130208Y1448603D02*
X2164776D01*
X2059094Y1458803D02*
X2115390D01*
X2059095Y1458623D02*
X2115389D01*
X2059110Y1458983D02*
X2115374D01*
X2059113Y1458443D02*
X2115371D01*
X2059143Y1459163D02*
X2115341D01*
X2059149Y1458263D02*
X2115335D01*
X2059196Y1459343D02*
X2115289D01*
X2059204Y1458083D02*
X2115281D01*
X2059268Y1459523D02*
X2115216D01*
X2059279Y1457903D02*
X2115205D01*
X2059364Y1459703D02*
X2115121D01*
X2059377Y1457723D02*
X2115107D01*
X2059486Y1459883D02*
X2114998D01*
X2059504Y1457543D02*
X2114980D01*
X2059644Y1460063D02*
X2114840D01*
X2059667Y1457363D02*
X2114818D01*
X2059850Y1460243D02*
X2114634D01*
X2059881Y1457183D02*
X2114603D01*
X2060141Y1460423D02*
X2114343D01*
X2060188Y1457003D02*
X2114297D01*
X2060708Y1460603D02*
X2113776D01*
X2059094Y1452803D02*
X2115390D01*
X2059095Y1452623D02*
X2115389D01*
X2059110Y1452983D02*
X2115374D01*
X2059113Y1452443D02*
X2115371D01*
X2059143Y1453163D02*
X2115341D01*
X2059149Y1452263D02*
X2115335D01*
X2059196Y1453343D02*
X2115289D01*
X2059204Y1452083D02*
X2115281D01*
X2059268Y1453523D02*
X2115216D01*
X2059279Y1451903D02*
X2115205D01*
X2059364Y1453703D02*
X2115121D01*
X2059377Y1451723D02*
X2115107D01*
X2059486Y1453883D02*
X2114998D01*
X2059504Y1451543D02*
X2114980D01*
X2059644Y1454063D02*
X2114840D01*
X2059667Y1451363D02*
X2114818D01*
X2059850Y1454243D02*
X2114634D01*
X2059881Y1451183D02*
X2114603D01*
X2060141Y1454423D02*
X2114343D01*
X2060188Y1451003D02*
X2114297D01*
X2060708Y1454603D02*
X2113776D01*
X2131092Y1483223D02*
X2134892D01*
X2131092Y1483043D02*
X2134892D01*
X2131092Y1482863D02*
X2134892D01*
X2131092Y1482683D02*
X2134892D01*
X2131092Y1482503D02*
X2134892D01*
X2131092Y1482323D02*
X2134892D01*
X2131092Y1482143D02*
X2134892D01*
X2131092Y1481963D02*
X2134892D01*
X2131092Y1481783D02*
X2134892D01*
X2131092Y1481603D02*
X2134892D01*
X2131092Y1481423D02*
X2134892D01*
X2131092Y1481243D02*
X2134892D01*
X2131092Y1481063D02*
X2134892D01*
X2131092Y1480883D02*
X2134892D01*
X2131092Y1480703D02*
X2134892D01*
X2131092Y1480523D02*
X2134892D01*
X2131092Y1480343D02*
X2134892D01*
X2131092Y1480163D02*
X2134892D01*
X2131092Y1479983D02*
X2134892D01*
X2131092Y1479803D02*
X2134892D01*
X2131092Y1479623D02*
X2134892D01*
X2131092Y1479443D02*
X2134892D01*
X2131092Y1479263D02*
X2134892D01*
X2131092Y1479083D02*
X2134892D01*
X2131092Y1478903D02*
X2134892D01*
X2131092Y1478723D02*
X2134892D01*
X2131092Y1478543D02*
X2134892D01*
X2131092Y1478363D02*
X2134892D01*
X2131092Y1478183D02*
X2134892D01*
X2131092Y1478003D02*
X2134892D01*
X2131092Y1477823D02*
X2134892D01*
X2131092Y1477643D02*
X2134892D01*
X2131092Y1477463D02*
X2134892D01*
X2131092Y1477283D02*
X2134892D01*
X2131092Y1477103D02*
X2134892D01*
X2131092Y1476923D02*
X2134892D01*
X2131092Y1476743D02*
X2134892D01*
X2131092Y1476563D02*
X2134892D01*
X2131092Y1476383D02*
X2134892D01*
X2131092Y1476203D02*
X2134892D01*
X2131092Y1476023D02*
X2134892D01*
X2131092Y1475843D02*
X2134892D01*
X2131092Y1475663D02*
X2134892D01*
X2131092Y1475483D02*
X2134892D01*
X2131092Y1475303D02*
X2134892D01*
X2131092Y1475123D02*
X2134892D01*
X2131092Y1474943D02*
X2134892D01*
X2131092Y1474763D02*
X2134892D01*
X2131092Y1474583D02*
X2134892D01*
X2131092Y1474403D02*
X2134892D01*
X2131092Y1474223D02*
X2134892D01*
X2131092Y1474043D02*
X2134892D01*
X2131092Y1473863D02*
X2134892D01*
X2131092Y1473683D02*
X2134892D01*
X2131092Y1473503D02*
X2134892D01*
X2131092Y1473323D02*
X2134892D01*
X2131092Y1473143D02*
X2134892D01*
X2131092Y1472963D02*
X2134892D01*
X2131092Y1472783D02*
X2134892D01*
X2131092Y1472603D02*
X2134892D01*
X2131092Y1472423D02*
X2134892D01*
X2131092Y1472243D02*
X2134892D01*
X2131092Y1472063D02*
X2134892D01*
X2131092Y1471883D02*
X2134892D01*
X2131092Y1471703D02*
X2134892D01*
X2131092Y1471523D02*
X2134892D01*
X2131092Y1471343D02*
X2134892D01*
X2131092Y1471163D02*
X2134892D01*
X2131092Y1470983D02*
X2134892D01*
X2131092Y1470803D02*
X2134892D01*
X2131095Y1470623D02*
X2134889D01*
X2131101Y1483403D02*
X2134884D01*
X2131113Y1470443D02*
X2134871D01*
X2131126Y1483583D02*
X2134858D01*
X2131149Y1470263D02*
X2134835D01*
X2131170Y1483763D02*
X2134814D01*
X2131204Y1470083D02*
X2134781D01*
X2131233Y1483943D02*
X2134751D01*
X2131279Y1469903D02*
X2134705D01*
X2131318Y1484123D02*
X2134666D01*
X2131377Y1469723D02*
X2134607D01*
X2131428Y1484303D02*
X2134556D01*
X2131504Y1469543D02*
X2134480D01*
X2131569Y1484483D02*
X2134415D01*
X2131667Y1469363D02*
X2134318D01*
X2131751Y1484663D02*
X2134233D01*
X2131881Y1469183D02*
X2134103D01*
X2131997Y1484843D02*
X2133987D01*
X2132188Y1469003D02*
X2133797D01*
X2132380Y1485023D02*
X2133604D01*
X2161092Y1483223D02*
X2164892D01*
X2161092Y1483043D02*
X2164892D01*
X2161092Y1482863D02*
X2164892D01*
X2161092Y1482683D02*
X2164892D01*
X2161092Y1482503D02*
X2164892D01*
X2161092Y1482323D02*
X2164892D01*
X2161092Y1482143D02*
X2164892D01*
X2161092Y1481963D02*
X2164892D01*
X2161092Y1481783D02*
X2164892D01*
X2161092Y1481603D02*
X2164892D01*
X2161092Y1481423D02*
X2164892D01*
X2161092Y1481243D02*
X2164892D01*
X2161092Y1481063D02*
X2164892D01*
X2161092Y1480883D02*
X2164892D01*
X2161092Y1480703D02*
X2164892D01*
X2161092Y1480523D02*
X2164892D01*
X2161092Y1480343D02*
X2164892D01*
X2161092Y1480163D02*
X2164892D01*
X2161092Y1479983D02*
X2164892D01*
X2161092Y1479803D02*
X2164892D01*
X2161092Y1479623D02*
X2164892D01*
X2161092Y1479443D02*
X2164892D01*
X2161092Y1479263D02*
X2164892D01*
X2161092Y1479083D02*
X2164892D01*
X2161092Y1478903D02*
X2164892D01*
X2161092Y1478723D02*
X2164892D01*
X2161092Y1478543D02*
X2164892D01*
X2161092Y1478363D02*
X2164892D01*
X2161092Y1478183D02*
X2164892D01*
X2161092Y1478003D02*
X2164892D01*
X2161092Y1477823D02*
X2164892D01*
X2161092Y1477643D02*
X2164892D01*
X2161092Y1477463D02*
X2164892D01*
X2161092Y1477283D02*
X2164892D01*
X2161092Y1477103D02*
X2164892D01*
X2161092Y1476923D02*
X2164892D01*
X2161092Y1476743D02*
X2164892D01*
X2161092Y1476563D02*
X2164892D01*
X2161092Y1476383D02*
X2164892D01*
X2161092Y1476203D02*
X2164892D01*
X2161092Y1476023D02*
X2164892D01*
X2161092Y1475843D02*
X2164892D01*
X2161092Y1475663D02*
X2164892D01*
X2161092Y1475483D02*
X2164892D01*
X2161092Y1475303D02*
X2164892D01*
X2161092Y1475123D02*
X2164892D01*
X2161092Y1474943D02*
X2164892D01*
X2161092Y1474763D02*
X2164892D01*
X2161092Y1474583D02*
X2164892D01*
X2161092Y1474403D02*
X2164892D01*
X2161092Y1474223D02*
X2164892D01*
X2161092Y1474043D02*
X2164892D01*
X2161092Y1473863D02*
X2164892D01*
X2161092Y1473683D02*
X2164892D01*
X2161092Y1473503D02*
X2164892D01*
X2161092Y1473323D02*
X2164892D01*
X2161092Y1473143D02*
X2164892D01*
X2161092Y1472963D02*
X2164892D01*
X2161092Y1472783D02*
X2164892D01*
X2161092Y1472603D02*
X2164892D01*
X2161092Y1472423D02*
X2164892D01*
X2161092Y1472243D02*
X2164892D01*
X2161092Y1472063D02*
X2164892D01*
X2161092Y1471883D02*
X2164892D01*
X2161092Y1471703D02*
X2164892D01*
X2161092Y1471523D02*
X2164892D01*
X2161092Y1471343D02*
X2164892D01*
X2161092Y1471163D02*
X2164892D01*
X2161092Y1470983D02*
X2164892D01*
X2161092Y1470803D02*
X2164892D01*
X2161095Y1470623D02*
X2164889D01*
X2161101Y1483403D02*
X2164884D01*
X2161113Y1470443D02*
X2164871D01*
X2161126Y1483583D02*
X2164858D01*
X2161149Y1470263D02*
X2164835D01*
X2161170Y1483763D02*
X2164814D01*
X2161204Y1470083D02*
X2164781D01*
X2161233Y1483943D02*
X2164751D01*
X2161279Y1469903D02*
X2164705D01*
X2161318Y1484123D02*
X2164666D01*
X2161377Y1469723D02*
X2164607D01*
X2161428Y1484303D02*
X2164556D01*
X2161504Y1469543D02*
X2164480D01*
X2161569Y1484483D02*
X2164415D01*
X2161667Y1469363D02*
X2164318D01*
X2161751Y1484663D02*
X2164233D01*
X2161881Y1469183D02*
X2164103D01*
X2161997Y1484843D02*
X2163987D01*
X2162188Y1469003D02*
X2163797D01*
X2162380Y1485023D02*
X2163604D01*
X2043530Y1446803D02*
X2115390D01*
X2043531Y1446623D02*
X2115389D01*
X2043546Y1446983D02*
X2115374D01*
X2043550Y1446443D02*
X2115371D01*
X2043580Y1447163D02*
X2115341D01*
X2043585Y1446263D02*
X2115335D01*
X2043632Y1447343D02*
X2115289D01*
X2043640Y1446083D02*
X2115281D01*
X2043705Y1447523D02*
X2115216D01*
X2043715Y1445903D02*
X2115205D01*
X2043800Y1447703D02*
X2115121D01*
X2043814Y1445723D02*
X2115107D01*
X2043923Y1447883D02*
X2114998D01*
X2043940Y1445543D02*
X2114980D01*
X2044080Y1448063D02*
X2114840D01*
X2044103Y1445363D02*
X2114818D01*
X2044287Y1448243D02*
X2114634D01*
X2044318Y1445183D02*
X2114603D01*
X2044577Y1448423D02*
X2114343D01*
X2044624Y1445003D02*
X2114297D01*
X2045145Y1448603D02*
X2113776D01*
X2083092Y1701163D02*
X2182892D01*
X2083092Y1700983D02*
X2182892D01*
X2083092Y1700803D02*
X2182892D01*
X2083095Y1700623D02*
X2182889D01*
X2083096Y1701343D02*
X2182888D01*
X2083113Y1700443D02*
X2182871D01*
X2083116Y1701523D02*
X2182869D01*
X2083149Y1700263D02*
X2182835D01*
X2083153Y1701703D02*
X2182831D01*
X2083204Y1700083D02*
X2182781D01*
X2083210Y1701883D02*
X2182774D01*
X2083279Y1699903D02*
X2182705D01*
X2083287Y1702063D02*
X2182697D01*
X2083377Y1699723D02*
X2182607D01*
X2083388Y1702243D02*
X2182596D01*
X2083504Y1699543D02*
X2182480D01*
X2083518Y1702423D02*
X2182466D01*
X2083667Y1699363D02*
X2182318D01*
X2083685Y1702603D02*
X2182299D01*
X2083881Y1699183D02*
X2182103D01*
X2083906Y1702783D02*
X2182079D01*
X2084188Y1699003D02*
X2181797D01*
X2084226Y1702963D02*
X2181758D01*
X2128594Y1594803D02*
X2166390D01*
X2128595Y1594623D02*
X2166389D01*
X2128610Y1594983D02*
X2166374D01*
X2128613Y1594443D02*
X2166371D01*
X2128643Y1595163D02*
X2166341D01*
X2128649Y1594263D02*
X2166335D01*
X2128696Y1595343D02*
X2166289D01*
X2128704Y1594083D02*
X2166281D01*
X2128768Y1595523D02*
X2166216D01*
X2128779Y1593903D02*
X2166205D01*
X2128864Y1595703D02*
X2166121D01*
X2128877Y1593723D02*
X2166107D01*
X2128986Y1595883D02*
X2165998D01*
X2129004Y1593543D02*
X2165980D01*
X2129144Y1596063D02*
X2165840D01*
X2129167Y1593363D02*
X2165818D01*
X2129350Y1596243D02*
X2165634D01*
X2129381Y1593183D02*
X2165603D01*
X2129641Y1596423D02*
X2165343D01*
X2129688Y1593003D02*
X2165297D01*
X2130208Y1596603D02*
X2164776D01*
X2128594Y1588803D02*
X2166390D01*
X2128595Y1588623D02*
X2166389D01*
X2128610Y1588983D02*
X2166374D01*
X2128613Y1588443D02*
X2166371D01*
X2128643Y1589163D02*
X2166341D01*
X2128649Y1588263D02*
X2166335D01*
X2128696Y1589343D02*
X2166289D01*
X2128704Y1588083D02*
X2166281D01*
X2128768Y1589523D02*
X2166216D01*
X2128779Y1587903D02*
X2166205D01*
X2128864Y1589703D02*
X2166121D01*
X2128877Y1587723D02*
X2166107D01*
X2128986Y1589883D02*
X2165998D01*
X2129004Y1587543D02*
X2165980D01*
X2129144Y1590063D02*
X2165840D01*
X2129167Y1587363D02*
X2165818D01*
X2129350Y1590243D02*
X2165634D01*
X2129381Y1587183D02*
X2165603D01*
X2129641Y1590423D02*
X2165343D01*
X2129688Y1587003D02*
X2165297D01*
X2130208Y1590603D02*
X2164776D01*
X2128594Y1600803D02*
X2166390D01*
X2128595Y1600623D02*
X2166389D01*
X2128610Y1600983D02*
X2166374D01*
X2128613Y1600443D02*
X2166371D01*
X2128643Y1601163D02*
X2166341D01*
X2128649Y1600263D02*
X2166335D01*
X2128696Y1601343D02*
X2166289D01*
X2128704Y1600083D02*
X2166281D01*
X2128768Y1601523D02*
X2166216D01*
X2128779Y1599903D02*
X2166205D01*
X2128864Y1601703D02*
X2166121D01*
X2128877Y1599723D02*
X2166107D01*
X2128986Y1601883D02*
X2165998D01*
X2129004Y1599543D02*
X2165980D01*
X2129144Y1602063D02*
X2165840D01*
X2129167Y1599363D02*
X2165818D01*
X2129350Y1602243D02*
X2165634D01*
X2129381Y1599183D02*
X2165603D01*
X2129641Y1602423D02*
X2165343D01*
X2129688Y1599003D02*
X2165297D01*
X2130208Y1602603D02*
X2164776D01*
X2128594Y1544803D02*
X2166390D01*
X2128595Y1544623D02*
X2166389D01*
X2128610Y1544983D02*
X2166374D01*
X2128613Y1544443D02*
X2166371D01*
X2128643Y1545163D02*
X2166341D01*
X2128649Y1544263D02*
X2166335D01*
X2128696Y1545343D02*
X2166289D01*
X2128704Y1544083D02*
X2166281D01*
X2128768Y1545523D02*
X2166216D01*
X2128779Y1543903D02*
X2166205D01*
X2128864Y1545703D02*
X2166121D01*
X2128877Y1543723D02*
X2166107D01*
X2128986Y1545883D02*
X2165998D01*
X2129004Y1543543D02*
X2165980D01*
X2129144Y1546063D02*
X2165840D01*
X2129167Y1543363D02*
X2165818D01*
X2129350Y1546243D02*
X2165634D01*
X2129381Y1543183D02*
X2165603D01*
X2129641Y1546423D02*
X2165343D01*
X2129688Y1543003D02*
X2165297D01*
X2130208Y1546603D02*
X2164776D01*
X2128594Y1538803D02*
X2166390D01*
X2128595Y1538623D02*
X2166389D01*
X2128610Y1538983D02*
X2166374D01*
X2128613Y1538443D02*
X2166371D01*
X2128643Y1539163D02*
X2166341D01*
X2128649Y1538263D02*
X2166335D01*
X2128696Y1539343D02*
X2166289D01*
X2128704Y1538083D02*
X2166281D01*
X2128768Y1539523D02*
X2166216D01*
X2128779Y1537903D02*
X2166205D01*
X2128864Y1539703D02*
X2166121D01*
X2128877Y1537723D02*
X2166107D01*
X2128986Y1539883D02*
X2165998D01*
X2129004Y1537543D02*
X2165980D01*
X2129144Y1540063D02*
X2165840D01*
X2129167Y1537363D02*
X2165818D01*
X2129350Y1540243D02*
X2165634D01*
X2129381Y1537183D02*
X2165603D01*
X2129641Y1540423D02*
X2165343D01*
X2129688Y1537003D02*
X2165297D01*
X2130208Y1540603D02*
X2164776D01*
X2128594Y1550803D02*
X2166390D01*
X2128595Y1550623D02*
X2166389D01*
X2128610Y1550983D02*
X2166374D01*
X2128613Y1550443D02*
X2166371D01*
X2128643Y1551163D02*
X2166341D01*
X2128649Y1550263D02*
X2166335D01*
X2128696Y1551343D02*
X2166289D01*
X2128704Y1550083D02*
X2166281D01*
X2128768Y1551523D02*
X2166216D01*
X2128779Y1549903D02*
X2166205D01*
X2128864Y1551703D02*
X2166121D01*
X2128877Y1549723D02*
X2166107D01*
X2128986Y1551883D02*
X2165998D01*
X2129004Y1549543D02*
X2165980D01*
X2129144Y1552063D02*
X2165840D01*
X2129167Y1549363D02*
X2165818D01*
X2129350Y1552243D02*
X2165634D01*
X2129381Y1549183D02*
X2165603D01*
X2129641Y1552423D02*
X2165343D01*
X2129688Y1549003D02*
X2165297D01*
X2130208Y1552603D02*
X2164776D01*
X2128594Y1682803D02*
X2166390D01*
X2128595Y1682623D02*
X2166389D01*
X2128610Y1682983D02*
X2166374D01*
X2128613Y1682443D02*
X2166371D01*
X2128643Y1683163D02*
X2166341D01*
X2128649Y1682263D02*
X2166335D01*
X2128696Y1683343D02*
X2166289D01*
X2128704Y1682083D02*
X2166281D01*
X2128768Y1683523D02*
X2166216D01*
X2128779Y1681903D02*
X2166205D01*
X2128864Y1683703D02*
X2166121D01*
X2128877Y1681723D02*
X2166107D01*
X2128986Y1683883D02*
X2165998D01*
X2129004Y1681543D02*
X2165980D01*
X2129144Y1684063D02*
X2165840D01*
X2129167Y1681363D02*
X2165818D01*
X2129350Y1684243D02*
X2165634D01*
X2129381Y1681183D02*
X2165603D01*
X2129641Y1684423D02*
X2165343D01*
X2129688Y1681003D02*
X2165297D01*
X2130208Y1684603D02*
X2164776D01*
X2128594Y1688803D02*
X2166390D01*
X2128595Y1688623D02*
X2166389D01*
X2128610Y1688983D02*
X2166374D01*
X2128613Y1688443D02*
X2166371D01*
X2128643Y1689163D02*
X2166341D01*
X2128649Y1688263D02*
X2166335D01*
X2128696Y1689343D02*
X2166289D01*
X2128704Y1688083D02*
X2166281D01*
X2128768Y1689523D02*
X2166216D01*
X2128779Y1687903D02*
X2166205D01*
X2128864Y1689703D02*
X2166121D01*
X2128877Y1687723D02*
X2166107D01*
X2128986Y1689883D02*
X2165998D01*
X2129004Y1687543D02*
X2165980D01*
X2129144Y1690063D02*
X2165840D01*
X2129167Y1687363D02*
X2165818D01*
X2129350Y1690243D02*
X2165634D01*
X2129381Y1687183D02*
X2165603D01*
X2129641Y1690423D02*
X2165343D01*
X2129688Y1687003D02*
X2165297D01*
X2130208Y1690603D02*
X2164776D01*
X2128594Y1694803D02*
X2166390D01*
X2128595Y1694623D02*
X2166389D01*
X2128610Y1694983D02*
X2166374D01*
X2128613Y1694443D02*
X2166371D01*
X2128643Y1695163D02*
X2166341D01*
X2128649Y1694263D02*
X2166335D01*
X2128696Y1695343D02*
X2166289D01*
X2128704Y1694083D02*
X2166281D01*
X2128768Y1695523D02*
X2166216D01*
X2128779Y1693903D02*
X2166205D01*
X2128864Y1695703D02*
X2166121D01*
X2128877Y1693723D02*
X2166107D01*
X2128986Y1695883D02*
X2165998D01*
X2129004Y1693543D02*
X2165980D01*
X2129144Y1696063D02*
X2165840D01*
X2129167Y1693363D02*
X2165818D01*
X2129350Y1696243D02*
X2165634D01*
X2129381Y1693183D02*
X2165603D01*
X2129641Y1696423D02*
X2165343D01*
X2129688Y1693003D02*
X2165297D01*
X2130208Y1696603D02*
X2164776D01*
X2128594Y1634803D02*
X2166390D01*
X2128595Y1634623D02*
X2166389D01*
X2128610Y1634983D02*
X2166374D01*
X2128613Y1634443D02*
X2166371D01*
X2128643Y1635163D02*
X2166341D01*
X2128649Y1634263D02*
X2166335D01*
X2128696Y1635343D02*
X2166289D01*
X2128704Y1634083D02*
X2166281D01*
X2128768Y1635523D02*
X2166216D01*
X2128779Y1633903D02*
X2166205D01*
X2128864Y1635703D02*
X2166121D01*
X2128877Y1633723D02*
X2166107D01*
X2128986Y1635883D02*
X2165998D01*
X2129004Y1633543D02*
X2165980D01*
X2129144Y1636063D02*
X2165840D01*
X2129167Y1633363D02*
X2165818D01*
X2129350Y1636243D02*
X2165634D01*
X2129381Y1633183D02*
X2165603D01*
X2129641Y1636423D02*
X2165343D01*
X2129688Y1633003D02*
X2165297D01*
X2130208Y1636603D02*
X2164776D01*
X2128594Y1640803D02*
X2166390D01*
X2128595Y1640623D02*
X2166389D01*
X2128610Y1640983D02*
X2166374D01*
X2128613Y1640443D02*
X2166371D01*
X2128643Y1641163D02*
X2166341D01*
X2128649Y1640263D02*
X2166335D01*
X2128696Y1641343D02*
X2166289D01*
X2128704Y1640083D02*
X2166281D01*
X2128768Y1641523D02*
X2166216D01*
X2128779Y1639903D02*
X2166205D01*
X2128864Y1641703D02*
X2166121D01*
X2128877Y1639723D02*
X2166107D01*
X2128986Y1641883D02*
X2165998D01*
X2129004Y1639543D02*
X2165980D01*
X2129144Y1642063D02*
X2165840D01*
X2129167Y1639363D02*
X2165818D01*
X2129350Y1642243D02*
X2165634D01*
X2129381Y1639183D02*
X2165603D01*
X2129641Y1642423D02*
X2165343D01*
X2129688Y1639003D02*
X2165297D01*
X2130208Y1642603D02*
X2164776D01*
X2128594Y1646803D02*
X2166390D01*
X2128595Y1646623D02*
X2166389D01*
X2128610Y1646983D02*
X2166374D01*
X2128613Y1646443D02*
X2166371D01*
X2128643Y1647163D02*
X2166341D01*
X2128649Y1646263D02*
X2166335D01*
X2128696Y1647343D02*
X2166289D01*
X2128704Y1646083D02*
X2166281D01*
X2128768Y1647523D02*
X2166216D01*
X2128779Y1645903D02*
X2166205D01*
X2128864Y1647703D02*
X2166121D01*
X2128877Y1645723D02*
X2166107D01*
X2128986Y1647883D02*
X2165998D01*
X2129004Y1645543D02*
X2165980D01*
X2129144Y1648063D02*
X2165840D01*
X2129167Y1645363D02*
X2165818D01*
X2129350Y1648243D02*
X2165634D01*
X2129381Y1645183D02*
X2165603D01*
X2129641Y1648423D02*
X2165343D01*
X2129688Y1645003D02*
X2165297D01*
X2130208Y1648603D02*
X2164776D01*
X2131092Y1576723D02*
X2134892D01*
X2131092Y1576543D02*
X2134892D01*
X2131092Y1576363D02*
X2134892D01*
X2131092Y1576183D02*
X2134892D01*
X2131092Y1576003D02*
X2134892D01*
X2131092Y1575823D02*
X2134892D01*
X2131092Y1575643D02*
X2134892D01*
X2131092Y1575463D02*
X2134892D01*
X2131092Y1575283D02*
X2134892D01*
X2131092Y1575103D02*
X2134892D01*
X2131092Y1574923D02*
X2134892D01*
X2131092Y1574743D02*
X2134892D01*
X2131092Y1574563D02*
X2134892D01*
X2131092Y1574383D02*
X2134892D01*
X2131092Y1574203D02*
X2134892D01*
X2131092Y1574023D02*
X2134892D01*
X2131092Y1573843D02*
X2134892D01*
X2131092Y1573663D02*
X2134892D01*
X2131092Y1573483D02*
X2134892D01*
X2131092Y1573303D02*
X2134892D01*
X2131092Y1573123D02*
X2134892D01*
X2131092Y1572943D02*
X2134892D01*
X2131092Y1572763D02*
X2134892D01*
X2131092Y1572583D02*
X2134892D01*
X2131092Y1572403D02*
X2134892D01*
X2131092Y1572223D02*
X2134892D01*
X2131092Y1572043D02*
X2134892D01*
X2131092Y1571863D02*
X2134892D01*
X2131092Y1571683D02*
X2134892D01*
X2131092Y1571503D02*
X2134892D01*
X2131092Y1571323D02*
X2134892D01*
X2131092Y1571143D02*
X2134892D01*
X2131092Y1570963D02*
X2134892D01*
X2131092Y1570783D02*
X2134892D01*
X2131092Y1570603D02*
X2134892D01*
X2131092Y1570423D02*
X2134892D01*
X2131092Y1570243D02*
X2134892D01*
X2131092Y1570063D02*
X2134892D01*
X2131092Y1569883D02*
X2134892D01*
X2131092Y1569703D02*
X2134892D01*
X2131092Y1569523D02*
X2134892D01*
X2131092Y1569343D02*
X2134892D01*
X2131092Y1569163D02*
X2134892D01*
X2131092Y1568983D02*
X2134892D01*
X2131092Y1568803D02*
X2134892D01*
X2131092Y1568623D02*
X2134892D01*
X2131092Y1568443D02*
X2134892D01*
X2131092Y1568263D02*
X2134892D01*
X2131092Y1568083D02*
X2134892D01*
X2131092Y1567903D02*
X2134892D01*
X2131092Y1567723D02*
X2134892D01*
X2131092Y1567543D02*
X2134892D01*
X2131092Y1567363D02*
X2134892D01*
X2131092Y1567183D02*
X2134892D01*
X2131092Y1567003D02*
X2134892D01*
X2131092Y1566823D02*
X2134892D01*
X2131092Y1566643D02*
X2134892D01*
X2131092Y1566463D02*
X2134892D01*
X2131092Y1566283D02*
X2134892D01*
X2131092Y1566103D02*
X2134892D01*
X2131092Y1565923D02*
X2134892D01*
X2131092Y1565743D02*
X2134892D01*
X2131092Y1565563D02*
X2134892D01*
X2131092Y1565383D02*
X2134892D01*
X2131092Y1565203D02*
X2134892D01*
X2131092Y1565023D02*
X2134892D01*
X2131092Y1564843D02*
X2134892D01*
X2131092Y1564663D02*
X2134892D01*
X2131092Y1564483D02*
X2134892D01*
X2131092Y1564303D02*
X2134892D01*
X2131095Y1564123D02*
X2134889D01*
X2131101Y1576903D02*
X2134884D01*
X2131113Y1563943D02*
X2134871D01*
X2131126Y1577083D02*
X2134858D01*
X2131149Y1563763D02*
X2134835D01*
X2131170Y1577263D02*
X2134814D01*
X2131204Y1563583D02*
X2134781D01*
X2131233Y1577443D02*
X2134751D01*
X2131279Y1563403D02*
X2134705D01*
X2131318Y1577623D02*
X2134666D01*
X2131377Y1563223D02*
X2134607D01*
X2131428Y1577803D02*
X2134556D01*
X2131504Y1563043D02*
X2134480D01*
X2131569Y1577983D02*
X2134415D01*
X2131667Y1562863D02*
X2134318D01*
X2131751Y1578163D02*
X2134233D01*
X2131881Y1562683D02*
X2134103D01*
X2131997Y1578343D02*
X2133987D01*
X2132188Y1562503D02*
X2133797D01*
X2132380Y1578523D02*
X2133604D01*
X2161092Y1576723D02*
X2164892D01*
X2161092Y1576543D02*
X2164892D01*
X2161092Y1576363D02*
X2164892D01*
X2161092Y1576183D02*
X2164892D01*
X2161092Y1576003D02*
X2164892D01*
X2161092Y1575823D02*
X2164892D01*
X2161092Y1575643D02*
X2164892D01*
X2161092Y1575463D02*
X2164892D01*
X2161092Y1575283D02*
X2164892D01*
X2161092Y1575103D02*
X2164892D01*
X2161092Y1574923D02*
X2164892D01*
X2161092Y1574743D02*
X2164892D01*
X2161092Y1574563D02*
X2164892D01*
X2161092Y1574383D02*
X2164892D01*
X2161092Y1574203D02*
X2164892D01*
X2161092Y1574023D02*
X2164892D01*
X2161092Y1573843D02*
X2164892D01*
X2161092Y1573663D02*
X2164892D01*
X2161092Y1573483D02*
X2164892D01*
X2161092Y1573303D02*
X2164892D01*
X2161092Y1573123D02*
X2164892D01*
X2161092Y1572943D02*
X2164892D01*
X2161092Y1572763D02*
X2164892D01*
X2161092Y1572583D02*
X2164892D01*
X2161092Y1572403D02*
X2164892D01*
X2161092Y1572223D02*
X2164892D01*
X2161092Y1572043D02*
X2164892D01*
X2161092Y1571863D02*
X2164892D01*
X2161092Y1571683D02*
X2164892D01*
X2161092Y1571503D02*
X2164892D01*
X2161092Y1571323D02*
X2164892D01*
X2161092Y1571143D02*
X2164892D01*
X2161092Y1570963D02*
X2164892D01*
X2161092Y1570783D02*
X2164892D01*
X2161092Y1570603D02*
X2164892D01*
X2161092Y1570423D02*
X2164892D01*
X2161092Y1570243D02*
X2164892D01*
X2161092Y1570063D02*
X2164892D01*
X2161092Y1569883D02*
X2164892D01*
X2161092Y1569703D02*
X2164892D01*
X2161092Y1569523D02*
X2164892D01*
X2161092Y1569343D02*
X2164892D01*
X2161092Y1569163D02*
X2164892D01*
X2161092Y1568983D02*
X2164892D01*
X2161092Y1568803D02*
X2164892D01*
X2161092Y1568623D02*
X2164892D01*
X2161092Y1568443D02*
X2164892D01*
X2161092Y1568263D02*
X2164892D01*
X2161092Y1568083D02*
X2164892D01*
X2161092Y1567903D02*
X2164892D01*
X2161092Y1567723D02*
X2164892D01*
X2161092Y1567543D02*
X2164892D01*
X2161092Y1567363D02*
X2164892D01*
X2161092Y1567183D02*
X2164892D01*
X2161092Y1567003D02*
X2164892D01*
X2161092Y1566823D02*
X2164892D01*
X2161092Y1566643D02*
X2164892D01*
X2161092Y1566463D02*
X2164892D01*
X2161092Y1566283D02*
X2164892D01*
X2161092Y1566103D02*
X2164892D01*
X2161092Y1565923D02*
X2164892D01*
X2161092Y1565743D02*
X2164892D01*
X2161092Y1565563D02*
X2164892D01*
X2161092Y1565383D02*
X2164892D01*
X2161092Y1565203D02*
X2164892D01*
X2161092Y1565023D02*
X2164892D01*
X2161092Y1564843D02*
X2164892D01*
X2161092Y1564663D02*
X2164892D01*
X2161092Y1564483D02*
X2164892D01*
X2161092Y1564303D02*
X2164892D01*
X2161095Y1564123D02*
X2164889D01*
X2161101Y1576903D02*
X2164884D01*
X2161113Y1563943D02*
X2164871D01*
X2161126Y1577083D02*
X2164858D01*
X2161149Y1563763D02*
X2164835D01*
X2161170Y1577263D02*
X2164814D01*
X2161204Y1563583D02*
X2164781D01*
X2161233Y1577443D02*
X2164751D01*
X2161279Y1563403D02*
X2164705D01*
X2161318Y1577623D02*
X2164666D01*
X2161377Y1563223D02*
X2164607D01*
X2161428Y1577803D02*
X2164556D01*
X2161504Y1563043D02*
X2164480D01*
X2161569Y1577983D02*
X2164415D01*
X2161667Y1562863D02*
X2164318D01*
X2161751Y1578163D02*
X2164233D01*
X2161881Y1562683D02*
X2164103D01*
X2161997Y1578343D02*
X2163987D01*
X2162188Y1562503D02*
X2163797D01*
X2162380Y1578523D02*
X2163604D01*
X2131092Y1671132D02*
X2134892D01*
X2131092Y1670952D02*
X2134892D01*
X2131092Y1670772D02*
X2134892D01*
X2131092Y1670592D02*
X2134892D01*
X2131092Y1670412D02*
X2134892D01*
X2131092Y1670232D02*
X2134892D01*
X2131092Y1670052D02*
X2134892D01*
X2131092Y1669872D02*
X2134892D01*
X2131092Y1669692D02*
X2134892D01*
X2131092Y1669512D02*
X2134892D01*
X2131092Y1669332D02*
X2134892D01*
X2131092Y1669152D02*
X2134892D01*
X2131092Y1668972D02*
X2134892D01*
X2131092Y1668792D02*
X2134892D01*
X2131092Y1668612D02*
X2134892D01*
X2131092Y1668432D02*
X2134892D01*
X2131092Y1668252D02*
X2134892D01*
X2131092Y1668072D02*
X2134892D01*
X2131092Y1667892D02*
X2134892D01*
X2131092Y1667712D02*
X2134892D01*
X2131092Y1667532D02*
X2134892D01*
X2131092Y1667352D02*
X2134892D01*
X2131092Y1667172D02*
X2134892D01*
X2131092Y1666992D02*
X2134892D01*
X2131092Y1666812D02*
X2134892D01*
X2131092Y1666632D02*
X2134892D01*
X2131092Y1666452D02*
X2134892D01*
X2131092Y1666272D02*
X2134892D01*
X2131092Y1666092D02*
X2134892D01*
X2131092Y1665912D02*
X2134892D01*
X2131092Y1665732D02*
X2134892D01*
X2131092Y1665552D02*
X2134892D01*
X2131092Y1665372D02*
X2134892D01*
X2131092Y1665192D02*
X2134892D01*
X2131092Y1665012D02*
X2134892D01*
X2131092Y1664832D02*
X2134892D01*
X2131092Y1664652D02*
X2134892D01*
X2131092Y1664472D02*
X2134892D01*
X2131092Y1664292D02*
X2134892D01*
X2131092Y1664112D02*
X2134892D01*
X2131092Y1663932D02*
X2134892D01*
X2131092Y1663752D02*
X2134892D01*
X2131092Y1663572D02*
X2134892D01*
X2131092Y1663392D02*
X2134892D01*
X2131092Y1663212D02*
X2134892D01*
X2131092Y1663032D02*
X2134892D01*
X2131092Y1662852D02*
X2134892D01*
X2131092Y1662672D02*
X2134892D01*
X2131092Y1662492D02*
X2134892D01*
X2131092Y1662312D02*
X2134892D01*
X2131092Y1662132D02*
X2134892D01*
X2131092Y1661952D02*
X2134892D01*
X2131092Y1661772D02*
X2134892D01*
X2131092Y1661592D02*
X2134892D01*
X2131092Y1661412D02*
X2134892D01*
X2131092Y1661232D02*
X2134892D01*
X2131092Y1661052D02*
X2134892D01*
X2131092Y1660872D02*
X2134892D01*
X2131092Y1660692D02*
X2134892D01*
X2131092Y1660512D02*
X2134892D01*
X2131092Y1660332D02*
X2134892D01*
X2131092Y1660152D02*
X2134892D01*
X2131092Y1659972D02*
X2134892D01*
X2131092Y1659792D02*
X2134892D01*
X2131092Y1659612D02*
X2134892D01*
X2131092Y1659432D02*
X2134892D01*
X2131092Y1659252D02*
X2134892D01*
X2131092Y1659072D02*
X2134892D01*
X2131092Y1658892D02*
X2134892D01*
X2131092Y1658712D02*
X2134892D01*
X2131092Y1658532D02*
X2134892D01*
X2131092Y1658352D02*
X2134892D01*
X2131092Y1658172D02*
X2134892D01*
X2131092Y1657992D02*
X2134892D01*
X2131092Y1657812D02*
X2134892D01*
X2131092Y1657632D02*
X2134892D01*
X2131092Y1657452D02*
X2134892D01*
X2131092Y1657272D02*
X2134892D01*
X2131092Y1657092D02*
X2134892D01*
X2131092Y1656912D02*
X2134892D01*
X2131092Y1656732D02*
X2134892D01*
X2131092Y1656552D02*
X2134892D01*
X2131092Y1656372D02*
X2134892D01*
X2131092Y1656192D02*
X2134892D01*
X2131092Y1656012D02*
X2134892D01*
X2131092Y1655832D02*
X2134892D01*
X2131092Y1655652D02*
X2134892D01*
X2131092Y1655472D02*
X2134892D01*
X2131092Y1655292D02*
X2134892D01*
X2131092Y1655112D02*
X2134892D01*
X2131092Y1654932D02*
X2134892D01*
X2131092Y1654752D02*
X2134892D01*
X2131092Y1654572D02*
X2134892D01*
X2131092Y1654392D02*
X2134892D01*
X2131092Y1654212D02*
X2134892D01*
X2131092Y1654032D02*
X2134892D01*
X2131092Y1653852D02*
X2134892D01*
X2131092Y1653672D02*
X2134892D01*
X2131092Y1653492D02*
X2134892D01*
X2131092Y1653312D02*
X2134892D01*
X2131092Y1653132D02*
X2134892D01*
X2131092Y1652952D02*
X2134892D01*
X2131092Y1652772D02*
X2134892D01*
X2131092Y1652592D02*
X2134892D01*
X2131094Y1671312D02*
X2134890D01*
X2131095Y1652412D02*
X2134889D01*
X2131111Y1671492D02*
X2134873D01*
X2131113Y1652232D02*
X2134871D01*
X2131146Y1671672D02*
X2134839D01*
X2131149Y1652052D02*
X2134835D01*
X2131199Y1671852D02*
X2134785D01*
X2131204Y1651872D02*
X2134781D01*
X2131272Y1672032D02*
X2134712D01*
X2131279Y1651692D02*
X2134705D01*
X2131369Y1672212D02*
X2134615D01*
X2131377Y1651512D02*
X2134607D01*
X2131493Y1672392D02*
X2134491D01*
X2131504Y1651332D02*
X2134480D01*
X2131653Y1672572D02*
X2134332D01*
X2131667Y1651152D02*
X2134318D01*
X2131862Y1672752D02*
X2134122D01*
X2131881Y1650972D02*
X2134103D01*
X2132159Y1672932D02*
X2133825D01*
X2132188Y1650792D02*
X2133797D01*
X2132775Y1673112D02*
X2133209D01*
X2161092Y1671143D02*
X2164892D01*
X2161092Y1670963D02*
X2164892D01*
X2161092Y1670783D02*
X2164892D01*
X2161092Y1670603D02*
X2164892D01*
X2161092Y1670423D02*
X2164892D01*
X2161092Y1670243D02*
X2164892D01*
X2161092Y1670063D02*
X2164892D01*
X2161092Y1669883D02*
X2164892D01*
X2161092Y1669703D02*
X2164892D01*
X2161092Y1669523D02*
X2164892D01*
X2161092Y1669343D02*
X2164892D01*
X2161092Y1669163D02*
X2164892D01*
X2161092Y1668983D02*
X2164892D01*
X2161092Y1668803D02*
X2164892D01*
X2161092Y1668623D02*
X2164892D01*
X2161092Y1668443D02*
X2164892D01*
X2161092Y1668263D02*
X2164892D01*
X2161092Y1668083D02*
X2164892D01*
X2161092Y1667903D02*
X2164892D01*
X2161092Y1667723D02*
X2164892D01*
X2161092Y1667543D02*
X2164892D01*
X2161092Y1667363D02*
X2164892D01*
X2161092Y1667183D02*
X2164892D01*
X2161092Y1667003D02*
X2164892D01*
X2161092Y1666823D02*
X2164892D01*
X2161092Y1666643D02*
X2164892D01*
X2161092Y1666463D02*
X2164892D01*
X2161092Y1666283D02*
X2164892D01*
X2161092Y1666103D02*
X2164892D01*
X2161092Y1665923D02*
X2164892D01*
X2161092Y1665743D02*
X2164892D01*
X2161092Y1665563D02*
X2164892D01*
X2161092Y1665383D02*
X2164892D01*
X2161092Y1665203D02*
X2164892D01*
X2161092Y1665023D02*
X2164892D01*
X2161092Y1664843D02*
X2164892D01*
X2161092Y1664663D02*
X2164892D01*
X2161092Y1664483D02*
X2164892D01*
X2161092Y1664303D02*
X2164892D01*
X2161092Y1664123D02*
X2164892D01*
X2161092Y1663943D02*
X2164892D01*
X2161092Y1663763D02*
X2164892D01*
X2161092Y1663583D02*
X2164892D01*
X2161092Y1663403D02*
X2164892D01*
X2161092Y1663223D02*
X2164892D01*
X2161092Y1663043D02*
X2164892D01*
X2161092Y1662863D02*
X2164892D01*
X2161092Y1662683D02*
X2164892D01*
X2161092Y1662503D02*
X2164892D01*
X2161092Y1662323D02*
X2164892D01*
X2161092Y1662143D02*
X2164892D01*
X2161092Y1661963D02*
X2164892D01*
X2161092Y1661783D02*
X2164892D01*
X2161092Y1661603D02*
X2164892D01*
X2161092Y1661423D02*
X2164892D01*
X2161092Y1661243D02*
X2164892D01*
X2161092Y1661063D02*
X2164892D01*
X2161092Y1660883D02*
X2164892D01*
X2161092Y1660703D02*
X2164892D01*
X2161092Y1660523D02*
X2164892D01*
X2161092Y1660343D02*
X2164892D01*
X2161092Y1660163D02*
X2164892D01*
X2161092Y1659983D02*
X2164892D01*
X2161092Y1659803D02*
X2164892D01*
X2161092Y1659623D02*
X2164892D01*
X2161092Y1659443D02*
X2164892D01*
X2161092Y1659263D02*
X2164892D01*
X2161092Y1659083D02*
X2164892D01*
X2161092Y1658903D02*
X2164892D01*
X2161092Y1658723D02*
X2164892D01*
X2161092Y1658543D02*
X2164892D01*
X2161092Y1658363D02*
X2164892D01*
X2161092Y1658183D02*
X2164892D01*
X2161092Y1658003D02*
X2164892D01*
X2161092Y1657823D02*
X2164892D01*
X2161092Y1657643D02*
X2164892D01*
X2161092Y1657463D02*
X2164892D01*
X2161092Y1657283D02*
X2164892D01*
X2161092Y1657103D02*
X2164892D01*
X2161092Y1656923D02*
X2164892D01*
X2161092Y1656743D02*
X2164892D01*
X2161092Y1656563D02*
X2164892D01*
X2161092Y1656383D02*
X2164892D01*
X2161092Y1656203D02*
X2164892D01*
X2161092Y1656023D02*
X2164892D01*
X2161092Y1655843D02*
X2164892D01*
X2161092Y1655663D02*
X2164892D01*
X2161092Y1655483D02*
X2164892D01*
X2161092Y1655303D02*
X2164892D01*
X2161092Y1655123D02*
X2164892D01*
X2161092Y1654943D02*
X2164892D01*
X2161092Y1654763D02*
X2164892D01*
X2161092Y1654583D02*
X2164892D01*
X2161092Y1654403D02*
X2164892D01*
X2161092Y1654223D02*
X2164892D01*
X2161092Y1654043D02*
X2164892D01*
X2161092Y1653863D02*
X2164892D01*
X2161092Y1653683D02*
X2164892D01*
X2161092Y1653503D02*
X2164892D01*
X2161092Y1653323D02*
X2164892D01*
X2161092Y1653143D02*
X2164892D01*
X2161092Y1652963D02*
X2164892D01*
X2161092Y1652783D02*
X2164892D01*
X2161092Y1652603D02*
X2164892D01*
X2161092Y1652423D02*
X2164892D01*
X2161092Y1652243D02*
X2164892D01*
X2161095Y1671323D02*
X2164890D01*
X2161095Y1652063D02*
X2164889D01*
X2161113Y1671503D02*
X2164872D01*
X2161113Y1651883D02*
X2164871D01*
X2161148Y1671683D02*
X2164836D01*
X2161149Y1651703D02*
X2164835D01*
X2161203Y1671863D02*
X2164781D01*
X2161204Y1651523D02*
X2164781D01*
X2161278Y1672043D02*
X2164707D01*
X2161279Y1651343D02*
X2164705D01*
X2161376Y1672223D02*
X2164608D01*
X2161377Y1651163D02*
X2164607D01*
X2161502Y1672403D02*
X2164482D01*
X2161504Y1650983D02*
X2164480D01*
X2161664Y1672583D02*
X2164320D01*
X2161667Y1650803D02*
X2164318D01*
X2161878Y1672763D02*
X2164106D01*
X2161881Y1650623D02*
X2164103D01*
X2162183Y1672943D02*
X2163802D01*
X2162188Y1650443D02*
X2163797D01*
X2162930Y1673123D02*
X2163054D01*
X2053594Y1600803D02*
X2115890D01*
X2053595Y1600623D02*
X2115889D01*
X2053610Y1600983D02*
X2115874D01*
X2053613Y1600443D02*
X2115871D01*
X2053643Y1601163D02*
X2115841D01*
X2053649Y1600263D02*
X2115835D01*
X2053696Y1601343D02*
X2115789D01*
X2053704Y1600083D02*
X2115781D01*
X2053768Y1601523D02*
X2115716D01*
X2053779Y1599903D02*
X2115705D01*
X2053864Y1601703D02*
X2115621D01*
X2053877Y1599723D02*
X2115607D01*
X2053986Y1601883D02*
X2115498D01*
X2054004Y1599543D02*
X2115480D01*
X2054144Y1602063D02*
X2115340D01*
X2054167Y1599363D02*
X2115318D01*
X2054350Y1602243D02*
X2115134D01*
X2054381Y1599183D02*
X2115103D01*
X2054641Y1602423D02*
X2114843D01*
X2054688Y1599003D02*
X2114797D01*
X2055208Y1602603D02*
X2114276D01*
X2053594Y1594803D02*
X2115890D01*
X2053595Y1594623D02*
X2115889D01*
X2053610Y1594983D02*
X2115874D01*
X2053613Y1594443D02*
X2115871D01*
X2053643Y1595163D02*
X2115841D01*
X2053649Y1594263D02*
X2115835D01*
X2053696Y1595343D02*
X2115789D01*
X2053704Y1594083D02*
X2115781D01*
X2053768Y1595523D02*
X2115716D01*
X2053779Y1593903D02*
X2115705D01*
X2053864Y1595703D02*
X2115621D01*
X2053877Y1593723D02*
X2115607D01*
X2053986Y1595883D02*
X2115498D01*
X2054004Y1593543D02*
X2115480D01*
X2054144Y1596063D02*
X2115340D01*
X2054167Y1593363D02*
X2115318D01*
X2054350Y1596243D02*
X2115134D01*
X2054381Y1593183D02*
X2115103D01*
X2054641Y1596423D02*
X2114843D01*
X2054688Y1593003D02*
X2114797D01*
X2055208Y1596603D02*
X2114276D01*
X2053594Y1588803D02*
X2115890D01*
X2053595Y1588623D02*
X2115889D01*
X2053610Y1588983D02*
X2115874D01*
X2053613Y1588443D02*
X2115871D01*
X2053643Y1589163D02*
X2115841D01*
X2053649Y1588263D02*
X2115835D01*
X2053696Y1589343D02*
X2115789D01*
X2053704Y1588083D02*
X2115781D01*
X2053768Y1589523D02*
X2115716D01*
X2053779Y1587903D02*
X2115705D01*
X2053864Y1589703D02*
X2115621D01*
X2053877Y1587723D02*
X2115607D01*
X2053986Y1589883D02*
X2115498D01*
X2054004Y1587543D02*
X2115480D01*
X2054144Y1590063D02*
X2115340D01*
X2054167Y1587363D02*
X2115318D01*
X2054350Y1590243D02*
X2115134D01*
X2054381Y1587183D02*
X2115103D01*
X2054641Y1590423D02*
X2114843D01*
X2054688Y1587003D02*
X2114797D01*
X2055208Y1590603D02*
X2114276D01*
X2053094Y1582803D02*
X2183390D01*
X2053095Y1582623D02*
X2183389D01*
X2053110Y1582983D02*
X2183374D01*
X2053113Y1582443D02*
X2183371D01*
X2053143Y1583163D02*
X2183341D01*
X2053149Y1582263D02*
X2183335D01*
X2053196Y1583343D02*
X2183289D01*
X2053204Y1582083D02*
X2183281D01*
X2053268Y1583523D02*
X2183216D01*
X2053279Y1581903D02*
X2183205D01*
X2053364Y1583703D02*
X2183121D01*
X2053377Y1581723D02*
X2183107D01*
X2053486Y1583883D02*
X2182998D01*
X2053504Y1581543D02*
X2182980D01*
X2053644Y1584063D02*
X2182840D01*
X2053667Y1581363D02*
X2182818D01*
X2053850Y1584243D02*
X2182634D01*
X2053881Y1581183D02*
X2182603D01*
X2054141Y1584423D02*
X2182343D01*
X2054188Y1581003D02*
X2182297D01*
X2054708Y1584603D02*
X2181776D01*
X2068594Y1570803D02*
X2115390D01*
X2068595Y1570623D02*
X2115389D01*
X2068610Y1570983D02*
X2115374D01*
X2068613Y1570443D02*
X2115371D01*
X2068643Y1571163D02*
X2115341D01*
X2068649Y1570263D02*
X2115335D01*
X2068696Y1571343D02*
X2115289D01*
X2068704Y1570083D02*
X2115281D01*
X2068768Y1571523D02*
X2115216D01*
X2068779Y1569903D02*
X2115205D01*
X2068864Y1571703D02*
X2115121D01*
X2068877Y1569723D02*
X2115107D01*
X2068986Y1571883D02*
X2114998D01*
X2069004Y1569543D02*
X2114980D01*
X2069144Y1572063D02*
X2114840D01*
X2069167Y1569363D02*
X2114818D01*
X2069350Y1572243D02*
X2114634D01*
X2069381Y1569183D02*
X2114603D01*
X2069641Y1572423D02*
X2114343D01*
X2069688Y1569003D02*
X2114297D01*
X2070208Y1572603D02*
X2113776D01*
X2068594Y1564803D02*
X2115390D01*
X2068595Y1564623D02*
X2115389D01*
X2068610Y1564983D02*
X2115374D01*
X2068613Y1564443D02*
X2115371D01*
X2068643Y1565163D02*
X2115341D01*
X2068649Y1564263D02*
X2115335D01*
X2068696Y1565343D02*
X2115289D01*
X2068704Y1564083D02*
X2115281D01*
X2068768Y1565523D02*
X2115216D01*
X2068779Y1563903D02*
X2115205D01*
X2068864Y1565703D02*
X2115121D01*
X2068877Y1563723D02*
X2115107D01*
X2068986Y1565883D02*
X2114998D01*
X2069004Y1563543D02*
X2114980D01*
X2069144Y1566063D02*
X2114840D01*
X2069167Y1563363D02*
X2114818D01*
X2069350Y1566243D02*
X2114634D01*
X2069381Y1563183D02*
X2114603D01*
X2069641Y1566423D02*
X2114343D01*
X2069688Y1563003D02*
X2114297D01*
X2070208Y1566603D02*
X2113776D01*
X2053094Y1576803D02*
X2115390D01*
X2053095Y1576623D02*
X2115389D01*
X2053110Y1576983D02*
X2115374D01*
X2053113Y1576443D02*
X2115371D01*
X2053143Y1577163D02*
X2115341D01*
X2053149Y1576263D02*
X2115335D01*
X2053196Y1577343D02*
X2115289D01*
X2053204Y1576083D02*
X2115281D01*
X2053268Y1577523D02*
X2115216D01*
X2053279Y1575903D02*
X2115205D01*
X2053364Y1577703D02*
X2115121D01*
X2053377Y1575723D02*
X2115107D01*
X2053486Y1577883D02*
X2114998D01*
X2053504Y1575543D02*
X2114980D01*
X2053644Y1578063D02*
X2114840D01*
X2053667Y1575363D02*
X2114818D01*
X2053850Y1578243D02*
X2114634D01*
X2053881Y1575183D02*
X2114603D01*
X2054141Y1578423D02*
X2114343D01*
X2054188Y1575003D02*
X2114297D01*
X2054708Y1578603D02*
X2113776D01*
X2053094Y1540803D02*
X2115390D01*
X2053095Y1540623D02*
X2115389D01*
X2053110Y1540983D02*
X2115374D01*
X2053113Y1540443D02*
X2115371D01*
X2053143Y1541163D02*
X2115341D01*
X2053149Y1540263D02*
X2115335D01*
X2053196Y1541343D02*
X2115289D01*
X2053204Y1540083D02*
X2115281D01*
X2053268Y1541523D02*
X2115216D01*
X2053279Y1539903D02*
X2115205D01*
X2053364Y1541703D02*
X2115121D01*
X2053377Y1539723D02*
X2115107D01*
X2053486Y1541883D02*
X2114998D01*
X2053504Y1539543D02*
X2114980D01*
X2053644Y1542063D02*
X2114840D01*
X2053667Y1539363D02*
X2114818D01*
X2053850Y1542243D02*
X2114634D01*
X2053881Y1539183D02*
X2114603D01*
X2054141Y1542423D02*
X2114343D01*
X2054188Y1539003D02*
X2114297D01*
X2054708Y1542603D02*
X2113776D01*
X2053094Y1546803D02*
X2115390D01*
X2053095Y1546623D02*
X2115389D01*
X2053110Y1546983D02*
X2115374D01*
X2053113Y1546443D02*
X2115371D01*
X2053143Y1547163D02*
X2115341D01*
X2053149Y1546263D02*
X2115335D01*
X2053196Y1547343D02*
X2115289D01*
X2053204Y1546083D02*
X2115281D01*
X2053268Y1547523D02*
X2115216D01*
X2053279Y1545903D02*
X2115205D01*
X2053364Y1547703D02*
X2115121D01*
X2053377Y1545723D02*
X2115107D01*
X2053486Y1547883D02*
X2114998D01*
X2053504Y1545543D02*
X2114980D01*
X2053644Y1548063D02*
X2114840D01*
X2053667Y1545363D02*
X2114818D01*
X2053850Y1548243D02*
X2114634D01*
X2053881Y1545183D02*
X2114603D01*
X2054141Y1548423D02*
X2114343D01*
X2054188Y1545003D02*
X2114297D01*
X2054708Y1548603D02*
X2113776D01*
X2053094Y1552803D02*
X2115390D01*
X2053095Y1552623D02*
X2115389D01*
X2053110Y1552983D02*
X2115374D01*
X2053113Y1552443D02*
X2115371D01*
X2053143Y1553163D02*
X2115341D01*
X2053149Y1552263D02*
X2115335D01*
X2053196Y1553343D02*
X2115289D01*
X2053204Y1552083D02*
X2115281D01*
X2053268Y1553523D02*
X2115216D01*
X2053279Y1551903D02*
X2115205D01*
X2053364Y1553703D02*
X2115121D01*
X2053377Y1551723D02*
X2115107D01*
X2053486Y1553883D02*
X2114998D01*
X2053504Y1551543D02*
X2114980D01*
X2053644Y1554063D02*
X2114840D01*
X2053667Y1551363D02*
X2114818D01*
X2053850Y1554243D02*
X2114634D01*
X2053881Y1551183D02*
X2114603D01*
X2054141Y1554423D02*
X2114343D01*
X2054188Y1551003D02*
X2114297D01*
X2054708Y1554603D02*
X2113776D01*
X2077092Y1695163D02*
X2115392D01*
X2077092Y1694983D02*
X2115392D01*
X2077092Y1694803D02*
X2115392D01*
X2077092Y1694623D02*
X2115392D01*
X2077092Y1694443D02*
X2115392D01*
X2077092Y1694263D02*
X2115392D01*
X2077097Y1695343D02*
X2115387D01*
X2077099Y1694083D02*
X2115385D01*
X2077124Y1695523D02*
X2115360D01*
X2077129Y1693903D02*
X2115355D01*
X2077177Y1695703D02*
X2115308D01*
X2077185Y1693723D02*
X2115299D01*
X2077257Y1695883D02*
X2115227D01*
X2077269Y1693543D02*
X2115215D01*
X2077371Y1696063D02*
X2115113D01*
X2077388Y1693363D02*
X2115096D01*
X2077532Y1696243D02*
X2114952D01*
X2077556Y1693183D02*
X2114928D01*
X2077769Y1696423D02*
X2114715D01*
X2077808Y1693003D02*
X2114677D01*
X2078249Y1696603D02*
X2114235D01*
X2071092Y1689163D02*
X2115392D01*
X2071092Y1688983D02*
X2115392D01*
X2071092Y1688803D02*
X2115392D01*
X2071092Y1688623D02*
X2115392D01*
X2071092Y1688443D02*
X2115392D01*
X2071092Y1688263D02*
X2115392D01*
X2071097Y1689343D02*
X2115387D01*
X2071099Y1688083D02*
X2115385D01*
X2071124Y1689523D02*
X2115360D01*
X2071129Y1687903D02*
X2115355D01*
X2071177Y1689703D02*
X2115308D01*
X2071185Y1687723D02*
X2115299D01*
X2071257Y1689883D02*
X2115227D01*
X2071269Y1687543D02*
X2115215D01*
X2071371Y1690063D02*
X2115113D01*
X2071388Y1687363D02*
X2115096D01*
X2071532Y1690243D02*
X2114952D01*
X2071556Y1687183D02*
X2114928D01*
X2071769Y1690423D02*
X2114715D01*
X2071808Y1687003D02*
X2114677D01*
X2072249Y1690603D02*
X2114235D01*
X2065092Y1683203D02*
X2115392D01*
X2065092Y1683023D02*
X2115392D01*
X2065092Y1682843D02*
X2115392D01*
X2065092Y1682663D02*
X2115392D01*
X2065092Y1682483D02*
X2115392D01*
X2065092Y1682303D02*
X2115392D01*
X2065092Y1682123D02*
X2115392D01*
X2065092Y1681943D02*
X2115392D01*
X2065092Y1681763D02*
X2115392D01*
X2065099Y1681583D02*
X2115385D01*
X2065101Y1683383D02*
X2115383D01*
X2065129Y1681403D02*
X2115355D01*
X2065134Y1683563D02*
X2115351D01*
X2065185Y1681223D02*
X2115299D01*
X2065192Y1683743D02*
X2115292D01*
X2065269Y1681043D02*
X2115215D01*
X2065279Y1683923D02*
X2115205D01*
X2065388Y1680863D02*
X2115096D01*
X2065402Y1684103D02*
X2115082D01*
X2065556Y1680683D02*
X2114928D01*
X2065576Y1684283D02*
X2114908D01*
X2065808Y1680503D02*
X2114677D01*
X2065840Y1684463D02*
X2114645D01*
X2059094Y1676803D02*
X2182890D01*
X2059095Y1676623D02*
X2182889D01*
X2059110Y1676983D02*
X2182874D01*
X2059113Y1676443D02*
X2182871D01*
X2059143Y1677163D02*
X2182841D01*
X2059149Y1676263D02*
X2182835D01*
X2059196Y1677343D02*
X2182789D01*
X2059204Y1676083D02*
X2182781D01*
X2059268Y1677523D02*
X2182716D01*
X2059279Y1675903D02*
X2182705D01*
X2059364Y1677703D02*
X2182621D01*
X2059377Y1675723D02*
X2182607D01*
X2059486Y1677883D02*
X2182498D01*
X2059504Y1675543D02*
X2182480D01*
X2059644Y1678063D02*
X2182340D01*
X2059667Y1675363D02*
X2182318D01*
X2059850Y1678243D02*
X2182134D01*
X2059881Y1675183D02*
X2182103D01*
X2060141Y1678423D02*
X2181843D01*
X2060188Y1675003D02*
X2181797D01*
X2060708Y1678603D02*
X2181276D01*
X2053092Y1671163D02*
X2115392D01*
X2053092Y1670983D02*
X2115392D01*
X2053092Y1670803D02*
X2115392D01*
X2053092Y1670623D02*
X2115392D01*
X2053092Y1670443D02*
X2115392D01*
X2053092Y1670263D02*
X2115392D01*
X2053097Y1671343D02*
X2115387D01*
X2053099Y1670083D02*
X2115385D01*
X2053124Y1671523D02*
X2115360D01*
X2053129Y1669903D02*
X2115355D01*
X2053177Y1671703D02*
X2115308D01*
X2053185Y1669723D02*
X2115299D01*
X2053257Y1671883D02*
X2115227D01*
X2053269Y1669543D02*
X2115215D01*
X2053371Y1672063D02*
X2115113D01*
X2053388Y1669363D02*
X2115096D01*
X2053532Y1672243D02*
X2114952D01*
X2053556Y1669183D02*
X2114928D01*
X2053769Y1672423D02*
X2114715D01*
X2053808Y1669003D02*
X2114677D01*
X2054249Y1672603D02*
X2114235D01*
X2047092Y1665163D02*
X2115392D01*
X2047092Y1664983D02*
X2115392D01*
X2047092Y1664803D02*
X2115392D01*
X2047092Y1664623D02*
X2115392D01*
X2047092Y1664443D02*
X2115392D01*
X2047092Y1664263D02*
X2115392D01*
X2047097Y1665343D02*
X2115387D01*
X2047099Y1664083D02*
X2115385D01*
X2047124Y1665523D02*
X2115360D01*
X2047129Y1663903D02*
X2115355D01*
X2047177Y1665703D02*
X2115308D01*
X2047185Y1663723D02*
X2115299D01*
X2047257Y1665883D02*
X2115227D01*
X2047269Y1663543D02*
X2115215D01*
X2047371Y1666063D02*
X2115113D01*
X2047388Y1663363D02*
X2115096D01*
X2047532Y1666243D02*
X2114952D01*
X2047556Y1663183D02*
X2114928D01*
X2047769Y1666423D02*
X2114715D01*
X2047808Y1663003D02*
X2114677D01*
X2048249Y1666603D02*
X2114235D01*
X2043094Y1658803D02*
X2115390D01*
X2043095Y1658623D02*
X2115389D01*
X2043110Y1658983D02*
X2115374D01*
X2043113Y1658443D02*
X2115371D01*
X2043143Y1659163D02*
X2115341D01*
X2043149Y1658263D02*
X2115335D01*
X2043196Y1659343D02*
X2115289D01*
X2043204Y1658083D02*
X2115281D01*
X2043268Y1659523D02*
X2115216D01*
X2043279Y1657903D02*
X2115205D01*
X2043364Y1659703D02*
X2115121D01*
X2043377Y1657723D02*
X2115107D01*
X2043486Y1659883D02*
X2114998D01*
X2043504Y1657543D02*
X2114980D01*
X2043644Y1660063D02*
X2114840D01*
X2043667Y1657363D02*
X2114818D01*
X2043850Y1660243D02*
X2114634D01*
X2043881Y1657183D02*
X2114603D01*
X2044141Y1660423D02*
X2114343D01*
X2044188Y1657003D02*
X2114297D01*
X2044708Y1660603D02*
X2113776D01*
X2043094Y1652803D02*
X2115390D01*
X2043095Y1652623D02*
X2115389D01*
X2043110Y1652983D02*
X2115374D01*
X2043113Y1652443D02*
X2115371D01*
X2043143Y1653163D02*
X2115341D01*
X2043149Y1652263D02*
X2115335D01*
X2043196Y1653343D02*
X2115289D01*
X2043204Y1652083D02*
X2115281D01*
X2043268Y1653523D02*
X2115216D01*
X2043279Y1651903D02*
X2115205D01*
X2043364Y1653703D02*
X2115121D01*
X2043377Y1651723D02*
X2115107D01*
X2043486Y1653883D02*
X2114998D01*
X2043504Y1651543D02*
X2114980D01*
X2043644Y1654063D02*
X2114840D01*
X2043667Y1651363D02*
X2114818D01*
X2043850Y1654243D02*
X2114634D01*
X2043881Y1651183D02*
X2114603D01*
X2044141Y1654423D02*
X2114343D01*
X2044188Y1651003D02*
X2114297D01*
X2044708Y1654603D02*
X2113776D01*
X2043094Y1646803D02*
X2115390D01*
X2043095Y1646623D02*
X2115389D01*
X2043110Y1646983D02*
X2115374D01*
X2043113Y1646443D02*
X2115371D01*
X2043143Y1647163D02*
X2115341D01*
X2043149Y1646263D02*
X2115335D01*
X2043196Y1647343D02*
X2115289D01*
X2043204Y1646083D02*
X2115281D01*
X2043268Y1647523D02*
X2115216D01*
X2043279Y1645903D02*
X2115205D01*
X2043364Y1647703D02*
X2115121D01*
X2043377Y1645723D02*
X2115107D01*
X2043486Y1647883D02*
X2114998D01*
X2043504Y1645543D02*
X2114980D01*
X2043644Y1648063D02*
X2114840D01*
X2043667Y1645363D02*
X2114818D01*
X2043850Y1648243D02*
X2114634D01*
X2043881Y1645183D02*
X2114603D01*
X2044141Y1648423D02*
X2114343D01*
X2044188Y1645003D02*
X2114297D01*
X2044708Y1648603D02*
X2113776D01*
X2116594Y1649803D02*
X2126890D01*
X2116595Y1649623D02*
X2126889D01*
X2116610Y1649983D02*
X2126874D01*
X2116613Y1649443D02*
X2126871D01*
X2116643Y1650163D02*
X2126841D01*
X2116649Y1649263D02*
X2126835D01*
X2116696Y1650343D02*
X2126789D01*
X2116704Y1649083D02*
X2126781D01*
X2116768Y1650523D02*
X2126716D01*
X2116779Y1648903D02*
X2126705D01*
X2116864Y1650703D02*
X2126621D01*
X2116877Y1648723D02*
X2126607D01*
X2116986Y1650883D02*
X2126498D01*
X2117004Y1648543D02*
X2126480D01*
X2117144Y1651063D02*
X2126340D01*
X2117167Y1648363D02*
X2126318D01*
X2117350Y1651243D02*
X2126134D01*
X2117381Y1648183D02*
X2126103D01*
X2117641Y1651423D02*
X2125843D01*
X2117688Y1648003D02*
X2125797D01*
X2118208Y1651603D02*
X2125276D01*
X2167094Y1650803D02*
X2182890D01*
X2167095Y1650623D02*
X2182889D01*
X2167110Y1650983D02*
X2182874D01*
X2167113Y1650443D02*
X2182871D01*
X2167143Y1651163D02*
X2182841D01*
X2167149Y1650263D02*
X2182835D01*
X2167196Y1651343D02*
X2182789D01*
X2167204Y1650083D02*
X2182781D01*
X2167268Y1651523D02*
X2182716D01*
X2167279Y1649903D02*
X2182705D01*
X2167364Y1651703D02*
X2182621D01*
X2167377Y1649723D02*
X2182607D01*
X2167486Y1651883D02*
X2182498D01*
X2167504Y1649543D02*
X2182480D01*
X2167644Y1652063D02*
X2182340D01*
X2167667Y1649363D02*
X2182318D01*
X2167850Y1652243D02*
X2182134D01*
X2167881Y1649183D02*
X2182103D01*
X2168141Y1652423D02*
X2181843D01*
X2168188Y1649003D02*
X2181797D01*
X2168708Y1652603D02*
X2181276D01*
X2059094Y1640803D02*
X2115390D01*
X2059095Y1640623D02*
X2115389D01*
X2059110Y1640983D02*
X2115374D01*
X2059113Y1640443D02*
X2115371D01*
X2059143Y1641163D02*
X2115341D01*
X2059149Y1640263D02*
X2115335D01*
X2059196Y1641343D02*
X2115289D01*
X2059204Y1640083D02*
X2115281D01*
X2059268Y1641523D02*
X2115216D01*
X2059279Y1639903D02*
X2115205D01*
X2059364Y1641703D02*
X2115121D01*
X2059377Y1639723D02*
X2115107D01*
X2059486Y1641883D02*
X2114998D01*
X2059504Y1639543D02*
X2114980D01*
X2059644Y1642063D02*
X2114840D01*
X2059667Y1639363D02*
X2114818D01*
X2059850Y1642243D02*
X2114634D01*
X2059881Y1639183D02*
X2114603D01*
X2060141Y1642423D02*
X2114343D01*
X2060188Y1639003D02*
X2114297D01*
X2060708Y1642603D02*
X2113776D01*
X2059094Y1634803D02*
X2115390D01*
X2059095Y1634623D02*
X2115389D01*
X2059110Y1634983D02*
X2115374D01*
X2059113Y1634443D02*
X2115371D01*
X2059143Y1635163D02*
X2115341D01*
X2059149Y1634263D02*
X2115335D01*
X2059196Y1635343D02*
X2115289D01*
X2059204Y1634083D02*
X2115281D01*
X2059268Y1635523D02*
X2115216D01*
X2059279Y1633903D02*
X2115205D01*
X2059364Y1635703D02*
X2115121D01*
X2059377Y1633723D02*
X2115107D01*
X2059486Y1635883D02*
X2114998D01*
X2059504Y1633543D02*
X2114980D01*
X2059644Y1636063D02*
X2114840D01*
X2059667Y1633363D02*
X2114818D01*
X2059850Y1636243D02*
X2114634D01*
X2059881Y1633183D02*
X2114603D01*
X2060141Y1636423D02*
X2114343D01*
X2060188Y1633003D02*
X2114297D01*
X2060708Y1636603D02*
X2113776D01*
X2179592Y1696123D02*
X2182892D01*
X2179592Y1695943D02*
X2182892D01*
X2179592Y1695763D02*
X2182892D01*
X2179592Y1695583D02*
X2182892D01*
X2179592Y1695403D02*
X2182892D01*
X2179592Y1695223D02*
X2182892D01*
X2179592Y1695043D02*
X2182892D01*
X2179592Y1694863D02*
X2182892D01*
X2179592Y1694683D02*
X2182892D01*
X2179592Y1694503D02*
X2182892D01*
X2179592Y1694323D02*
X2182892D01*
X2179592Y1694143D02*
X2182892D01*
X2179592Y1693963D02*
X2182892D01*
X2179592Y1693783D02*
X2182892D01*
X2179592Y1693603D02*
X2182892D01*
X2179592Y1693423D02*
X2182892D01*
X2179592Y1693243D02*
X2182892D01*
X2179592Y1693063D02*
X2182892D01*
X2179592Y1692883D02*
X2182892D01*
X2179592Y1692703D02*
X2182892D01*
X2179592Y1692523D02*
X2182892D01*
X2179592Y1692343D02*
X2182892D01*
X2179592Y1692163D02*
X2182892D01*
X2179592Y1691983D02*
X2182892D01*
X2179592Y1691803D02*
X2182892D01*
X2179592Y1691623D02*
X2182892D01*
X2179592Y1691443D02*
X2182892D01*
X2179592Y1691263D02*
X2182892D01*
X2179592Y1691083D02*
X2182892D01*
X2179592Y1690903D02*
X2182892D01*
X2179592Y1690723D02*
X2182892D01*
X2179592Y1690543D02*
X2182892D01*
X2179592Y1690363D02*
X2182892D01*
X2179592Y1690183D02*
X2182892D01*
X2179592Y1690003D02*
X2182892D01*
X2179592Y1689823D02*
X2182892D01*
X2179592Y1689643D02*
X2182892D01*
X2179592Y1689463D02*
X2182892D01*
X2179592Y1689283D02*
X2182892D01*
X2179592Y1689103D02*
X2182892D01*
X2179592Y1688923D02*
X2182892D01*
X2179592Y1688743D02*
X2182892D01*
X2179592Y1688563D02*
X2182892D01*
X2179592Y1688383D02*
X2182892D01*
X2179592Y1688203D02*
X2182892D01*
X2179592Y1688023D02*
X2182892D01*
X2179592Y1687843D02*
X2182892D01*
X2179592Y1687663D02*
X2182892D01*
X2179592Y1687483D02*
X2182892D01*
X2179592Y1687303D02*
X2182892D01*
X2179592Y1687123D02*
X2182892D01*
X2179592Y1686943D02*
X2182892D01*
X2179592Y1686763D02*
X2182892D01*
X2179592Y1686583D02*
X2182892D01*
X2179592Y1686403D02*
X2182892D01*
X2179592Y1686223D02*
X2182892D01*
X2179592Y1686043D02*
X2182892D01*
X2179592Y1685863D02*
X2182892D01*
X2179592Y1685683D02*
X2182892D01*
X2179592Y1685503D02*
X2182892D01*
X2179592Y1685323D02*
X2182892D01*
X2179592Y1685143D02*
X2182892D01*
X2179592Y1684963D02*
X2182892D01*
X2179592Y1684783D02*
X2182892D01*
X2179592Y1684603D02*
X2182892D01*
X2179592Y1684423D02*
X2182892D01*
X2179592Y1684243D02*
X2182892D01*
X2179592Y1684063D02*
X2182892D01*
X2179592Y1683883D02*
X2182892D01*
X2179592Y1683703D02*
X2182892D01*
X2179592Y1683523D02*
X2182892D01*
X2179592Y1683343D02*
X2182892D01*
X2179592Y1683163D02*
X2182892D01*
X2179592Y1682983D02*
X2182892D01*
X2179592Y1682803D02*
X2182892D01*
X2179592Y1682623D02*
X2182892D01*
X2179592Y1682443D02*
X2182892D01*
X2179592Y1682263D02*
X2182892D01*
X2179592Y1682083D02*
X2182892D01*
X2179592Y1681903D02*
X2182892D01*
X2179592Y1681723D02*
X2182892D01*
X2179596Y1696303D02*
X2182889D01*
X2179611Y1681543D02*
X2182874D01*
X2179630Y1696483D02*
X2182854D01*
X2179668Y1681363D02*
X2182816D01*
X2179706Y1696663D02*
X2182778D01*
X2179773Y1681183D02*
X2182711D01*
X2179839Y1696843D02*
X2182646D01*
X2179954Y1681003D02*
X2182530D01*
X2180077Y1697023D02*
X2182407D01*
X2179592Y1672143D02*
X2182392D01*
X2179592Y1671963D02*
X2182392D01*
X2179592Y1671783D02*
X2182392D01*
X2179592Y1671603D02*
X2182392D01*
X2179592Y1671423D02*
X2182392D01*
X2179592Y1671243D02*
X2182392D01*
X2179592Y1671063D02*
X2182392D01*
X2179592Y1670883D02*
X2182392D01*
X2179592Y1670703D02*
X2182392D01*
X2179592Y1670523D02*
X2182392D01*
X2179592Y1670343D02*
X2182392D01*
X2179592Y1670163D02*
X2182392D01*
X2179592Y1669983D02*
X2182392D01*
X2179592Y1669803D02*
X2182392D01*
X2179592Y1669623D02*
X2182392D01*
X2179592Y1669443D02*
X2182392D01*
X2179592Y1669263D02*
X2182392D01*
X2179592Y1669083D02*
X2182392D01*
X2179592Y1668903D02*
X2182392D01*
X2179592Y1668723D02*
X2182392D01*
X2179592Y1668543D02*
X2182392D01*
X2179592Y1668363D02*
X2182392D01*
X2179592Y1668183D02*
X2182392D01*
X2179592Y1668003D02*
X2182392D01*
X2179592Y1667823D02*
X2182392D01*
X2179592Y1667643D02*
X2182392D01*
X2179592Y1667463D02*
X2182392D01*
X2179592Y1667283D02*
X2182392D01*
X2179592Y1667103D02*
X2182392D01*
X2179592Y1666923D02*
X2182392D01*
X2179592Y1666743D02*
X2182392D01*
X2179592Y1666563D02*
X2182392D01*
X2179592Y1666383D02*
X2182392D01*
X2179592Y1666203D02*
X2182392D01*
X2179592Y1666023D02*
X2182392D01*
X2179592Y1665843D02*
X2182392D01*
X2179592Y1665663D02*
X2182392D01*
X2179592Y1665483D02*
X2182392D01*
X2179592Y1665303D02*
X2182392D01*
X2179592Y1665123D02*
X2182392D01*
X2179592Y1664943D02*
X2182392D01*
X2179592Y1664763D02*
X2182392D01*
X2179592Y1664583D02*
X2182392D01*
X2179592Y1664403D02*
X2182392D01*
X2179592Y1664223D02*
X2182392D01*
X2179592Y1664043D02*
X2182392D01*
X2179592Y1663863D02*
X2182392D01*
X2179592Y1663683D02*
X2182392D01*
X2179592Y1663503D02*
X2182392D01*
X2179592Y1663323D02*
X2182392D01*
X2179592Y1663143D02*
X2182392D01*
X2179592Y1662963D02*
X2182392D01*
X2179592Y1662783D02*
X2182392D01*
X2179592Y1662603D02*
X2182392D01*
X2179592Y1662423D02*
X2182392D01*
X2179592Y1662243D02*
X2182392D01*
X2179592Y1662063D02*
X2182392D01*
X2179592Y1661883D02*
X2182392D01*
X2179592Y1661703D02*
X2182392D01*
X2179592Y1661523D02*
X2182392D01*
X2179592Y1661343D02*
X2182392D01*
X2179592Y1661163D02*
X2182392D01*
X2179592Y1660983D02*
X2182392D01*
X2179592Y1660803D02*
X2182392D01*
X2179592Y1660623D02*
X2182392D01*
X2179592Y1660443D02*
X2182392D01*
X2179592Y1660263D02*
X2182392D01*
X2179592Y1660083D02*
X2182392D01*
X2179592Y1659903D02*
X2182392D01*
X2179592Y1659723D02*
X2182392D01*
X2179592Y1659543D02*
X2182392D01*
X2179592Y1659363D02*
X2182392D01*
X2179592Y1659183D02*
X2182392D01*
X2179592Y1659003D02*
X2182392D01*
X2179592Y1658823D02*
X2182392D01*
X2179592Y1658643D02*
X2182392D01*
X2179592Y1658463D02*
X2182392D01*
X2179592Y1658283D02*
X2182392D01*
X2179592Y1658103D02*
X2182392D01*
X2179592Y1657923D02*
X2182392D01*
X2179592Y1657743D02*
X2182392D01*
X2179592Y1657563D02*
X2182392D01*
X2179592Y1657383D02*
X2182392D01*
X2179592Y1657203D02*
X2182392D01*
X2179592Y1657023D02*
X2182392D01*
X2179592Y1656843D02*
X2182392D01*
X2179592Y1656663D02*
X2182392D01*
X2179592Y1656483D02*
X2182392D01*
X2179592Y1656303D02*
X2182392D01*
X2179592Y1656123D02*
X2182392D01*
X2179592Y1655943D02*
X2182392D01*
X2179592Y1655763D02*
X2182392D01*
X2179592Y1655583D02*
X2182392D01*
X2179592Y1655403D02*
X2182392D01*
X2179592Y1655223D02*
X2182392D01*
X2179598Y1672323D02*
X2182387D01*
X2179611Y1655043D02*
X2182374D01*
X2179636Y1672503D02*
X2182348D01*
X2179668Y1654863D02*
X2182316D01*
X2179718Y1672683D02*
X2182266D01*
X2179773Y1654683D02*
X2182211D01*
X2179858Y1672863D02*
X2182126D01*
X2179954Y1654503D02*
X2182030D01*
X2180118Y1673043D02*
X2181866D01*
X2179592Y1645583D02*
X2182392D01*
X2179592Y1645403D02*
X2182392D01*
X2179592Y1645223D02*
X2182392D01*
X2179592Y1645043D02*
X2182392D01*
X2179592Y1644863D02*
X2182392D01*
X2179592Y1644683D02*
X2182392D01*
X2179592Y1644503D02*
X2182392D01*
X2179592Y1644323D02*
X2182392D01*
X2179592Y1644143D02*
X2182392D01*
X2179592Y1643963D02*
X2182392D01*
X2179592Y1643783D02*
X2182392D01*
X2179592Y1643603D02*
X2182392D01*
X2179592Y1643423D02*
X2182392D01*
X2179592Y1643243D02*
X2182392D01*
X2179592Y1643063D02*
X2182392D01*
X2179592Y1642883D02*
X2182392D01*
X2179592Y1642703D02*
X2182392D01*
X2179592Y1642523D02*
X2182392D01*
X2179592Y1642343D02*
X2182392D01*
X2179592Y1642163D02*
X2182392D01*
X2179592Y1641983D02*
X2182392D01*
X2179592Y1641803D02*
X2182392D01*
X2179592Y1641623D02*
X2182392D01*
X2179592Y1641443D02*
X2182392D01*
X2179592Y1641263D02*
X2182392D01*
X2179592Y1641083D02*
X2182392D01*
X2179592Y1640903D02*
X2182392D01*
X2179592Y1640723D02*
X2182392D01*
X2179592Y1640543D02*
X2182392D01*
X2179592Y1640363D02*
X2182392D01*
X2179592Y1640183D02*
X2182392D01*
X2179592Y1640003D02*
X2182392D01*
X2179592Y1639823D02*
X2182392D01*
X2179592Y1639643D02*
X2182392D01*
X2179592Y1639463D02*
X2182392D01*
X2179592Y1639283D02*
X2182392D01*
X2179592Y1639103D02*
X2182392D01*
X2179592Y1638923D02*
X2182392D01*
X2179592Y1638743D02*
X2182392D01*
X2179592Y1638563D02*
X2182392D01*
X2179592Y1638383D02*
X2182392D01*
X2179592Y1638203D02*
X2182392D01*
X2179592Y1638023D02*
X2182392D01*
X2179592Y1637843D02*
X2182392D01*
X2179592Y1637663D02*
X2182392D01*
X2179592Y1637483D02*
X2182392D01*
X2179592Y1637303D02*
X2182392D01*
X2179592Y1637123D02*
X2182392D01*
X2179592Y1636943D02*
X2182392D01*
X2179592Y1636763D02*
X2182392D01*
X2179592Y1636583D02*
X2182392D01*
X2179592Y1636403D02*
X2182392D01*
X2179592Y1636223D02*
X2182392D01*
X2179592Y1636043D02*
X2182392D01*
X2179592Y1635863D02*
X2182392D01*
X2179592Y1635683D02*
X2182392D01*
X2179592Y1635503D02*
X2182392D01*
X2179592Y1635323D02*
X2182392D01*
X2179592Y1635143D02*
X2182392D01*
X2179592Y1634963D02*
X2182392D01*
X2179592Y1634783D02*
X2182392D01*
X2179592Y1634603D02*
X2182392D01*
X2179592Y1634423D02*
X2182392D01*
X2179592Y1634243D02*
X2182392D01*
X2179592Y1634063D02*
X2182392D01*
X2179592Y1633883D02*
X2182392D01*
X2179592Y1633703D02*
X2182392D01*
X2179592Y1633523D02*
X2182392D01*
X2179592Y1633343D02*
X2182392D01*
X2179592Y1633163D02*
X2182392D01*
X2179592Y1632983D02*
X2182392D01*
X2179592Y1632803D02*
X2182392D01*
X2179592Y1632623D02*
X2182392D01*
X2179592Y1632443D02*
X2182392D01*
X2179592Y1632263D02*
X2182392D01*
X2179592Y1632083D02*
X2182392D01*
X2179592Y1631903D02*
X2182392D01*
X2179592Y1631723D02*
X2182392D01*
X2179593Y1645763D02*
X2182391D01*
X2179611Y1631543D02*
X2182374D01*
X2179619Y1645943D02*
X2182365D01*
X2179668Y1631363D02*
X2182316D01*
X2179685Y1646123D02*
X2182299D01*
X2179773Y1631183D02*
X2182211D01*
X2179803Y1646303D02*
X2182181D01*
X2179954Y1631003D02*
X2182030D01*
X2180008Y1646483D02*
X2181976D01*
X2179592Y1600683D02*
X2182392D01*
X2179592Y1600503D02*
X2182392D01*
X2179592Y1600323D02*
X2182392D01*
X2179592Y1600143D02*
X2182392D01*
X2179592Y1599963D02*
X2182392D01*
X2179592Y1599783D02*
X2182392D01*
X2179592Y1599603D02*
X2182392D01*
X2179592Y1599423D02*
X2182392D01*
X2179592Y1599243D02*
X2182392D01*
X2179592Y1599063D02*
X2182392D01*
X2179592Y1598883D02*
X2182392D01*
X2179592Y1598703D02*
X2182392D01*
X2179592Y1598523D02*
X2182392D01*
X2179592Y1598343D02*
X2182392D01*
X2179592Y1598163D02*
X2182392D01*
X2179592Y1597983D02*
X2182392D01*
X2179592Y1597803D02*
X2182392D01*
X2179592Y1597623D02*
X2182392D01*
X2179592Y1597443D02*
X2182392D01*
X2179592Y1597263D02*
X2182392D01*
X2179592Y1597083D02*
X2182392D01*
X2179592Y1596903D02*
X2182392D01*
X2179592Y1596723D02*
X2182392D01*
X2179592Y1596543D02*
X2182392D01*
X2179592Y1596363D02*
X2182392D01*
X2179592Y1596183D02*
X2182392D01*
X2179592Y1596003D02*
X2182392D01*
X2179592Y1595823D02*
X2182392D01*
X2179592Y1595643D02*
X2182392D01*
X2179592Y1595463D02*
X2182392D01*
X2179592Y1595283D02*
X2182392D01*
X2179592Y1595103D02*
X2182392D01*
X2179592Y1594923D02*
X2182392D01*
X2179592Y1594743D02*
X2182392D01*
X2179592Y1594563D02*
X2182392D01*
X2179592Y1594383D02*
X2182392D01*
X2179592Y1594203D02*
X2182392D01*
X2179592Y1594023D02*
X2182392D01*
X2179592Y1593843D02*
X2182392D01*
X2179592Y1593663D02*
X2182392D01*
X2179592Y1593483D02*
X2182392D01*
X2179592Y1593303D02*
X2182392D01*
X2179592Y1593123D02*
X2182392D01*
X2179592Y1592943D02*
X2182392D01*
X2179592Y1592763D02*
X2182392D01*
X2179592Y1592583D02*
X2182392D01*
X2179592Y1592403D02*
X2182392D01*
X2179592Y1592223D02*
X2182392D01*
X2179592Y1592043D02*
X2182392D01*
X2179592Y1591863D02*
X2182392D01*
X2179592Y1591683D02*
X2182392D01*
X2179592Y1591503D02*
X2182392D01*
X2179592Y1591323D02*
X2182392D01*
X2179592Y1591143D02*
X2182392D01*
X2179592Y1590963D02*
X2182392D01*
X2179592Y1590783D02*
X2182392D01*
X2179592Y1590603D02*
X2182392D01*
X2179592Y1590423D02*
X2182392D01*
X2179592Y1590243D02*
X2182392D01*
X2179592Y1590063D02*
X2182392D01*
X2179592Y1589883D02*
X2182392D01*
X2179592Y1589703D02*
X2182392D01*
X2179592Y1589523D02*
X2182392D01*
X2179592Y1589343D02*
X2182392D01*
X2179592Y1589163D02*
X2182392D01*
X2179592Y1588983D02*
X2182392D01*
X2179592Y1588803D02*
X2182392D01*
X2179592Y1588623D02*
X2182392D01*
X2179592Y1588443D02*
X2182392D01*
X2179592Y1588263D02*
X2182392D01*
X2179599Y1600863D02*
X2182385D01*
X2179599Y1588083D02*
X2182385D01*
X2179629Y1601043D02*
X2182355D01*
X2179629Y1587903D02*
X2182355D01*
X2179684Y1601223D02*
X2182300D01*
X2179685Y1587723D02*
X2182299D01*
X2179768Y1601403D02*
X2182217D01*
X2179769Y1587543D02*
X2182215D01*
X2179886Y1601583D02*
X2182098D01*
X2179888Y1587363D02*
X2182096D01*
X2180053Y1601763D02*
X2181931D01*
X2180056Y1587183D02*
X2181928D01*
X2180303Y1601943D02*
X2181681D01*
X2180308Y1587003D02*
X2181677D01*
X2180932Y1602123D02*
X2181053D01*
X2179592Y1577083D02*
X2182392D01*
X2179592Y1576903D02*
X2182392D01*
X2179592Y1576723D02*
X2182392D01*
X2179592Y1576543D02*
X2182392D01*
X2179592Y1576363D02*
X2182392D01*
X2179592Y1576183D02*
X2182392D01*
X2179592Y1576003D02*
X2182392D01*
X2179592Y1575823D02*
X2182392D01*
X2179592Y1575643D02*
X2182392D01*
X2179592Y1575463D02*
X2182392D01*
X2179592Y1575283D02*
X2182392D01*
X2179592Y1575103D02*
X2182392D01*
X2179592Y1574923D02*
X2182392D01*
X2179592Y1574743D02*
X2182392D01*
X2179592Y1574563D02*
X2182392D01*
X2179592Y1574383D02*
X2182392D01*
X2179592Y1574203D02*
X2182392D01*
X2179592Y1574023D02*
X2182392D01*
X2179592Y1573843D02*
X2182392D01*
X2179592Y1573663D02*
X2182392D01*
X2179592Y1573483D02*
X2182392D01*
X2179592Y1573303D02*
X2182392D01*
X2179592Y1573123D02*
X2182392D01*
X2179592Y1572943D02*
X2182392D01*
X2179592Y1572763D02*
X2182392D01*
X2179592Y1572583D02*
X2182392D01*
X2179592Y1572403D02*
X2182392D01*
X2179592Y1572223D02*
X2182392D01*
X2179592Y1572043D02*
X2182392D01*
X2179592Y1571863D02*
X2182392D01*
X2179592Y1571683D02*
X2182392D01*
X2179592Y1571503D02*
X2182392D01*
X2179592Y1571323D02*
X2182392D01*
X2179592Y1571143D02*
X2182392D01*
X2179592Y1570963D02*
X2182392D01*
X2179592Y1570783D02*
X2182392D01*
X2179592Y1570603D02*
X2182392D01*
X2179592Y1570423D02*
X2182392D01*
X2179592Y1570243D02*
X2182392D01*
X2179592Y1570063D02*
X2182392D01*
X2179592Y1569883D02*
X2182392D01*
X2179592Y1569703D02*
X2182392D01*
X2179592Y1569523D02*
X2182392D01*
X2179592Y1569343D02*
X2182392D01*
X2179592Y1569163D02*
X2182392D01*
X2179592Y1568983D02*
X2182392D01*
X2179592Y1568803D02*
X2182392D01*
X2179592Y1568623D02*
X2182392D01*
X2179592Y1568443D02*
X2182392D01*
X2179592Y1568263D02*
X2182392D01*
X2179592Y1568083D02*
X2182392D01*
X2179592Y1567903D02*
X2182392D01*
X2179592Y1567723D02*
X2182392D01*
X2179592Y1567543D02*
X2182392D01*
X2179592Y1567363D02*
X2182392D01*
X2179592Y1567183D02*
X2182392D01*
X2179592Y1567003D02*
X2182392D01*
X2179592Y1566823D02*
X2182392D01*
X2179592Y1566643D02*
X2182392D01*
X2179592Y1566463D02*
X2182392D01*
X2179592Y1566283D02*
X2182392D01*
X2179592Y1566103D02*
X2182392D01*
X2179592Y1565923D02*
X2182392D01*
X2179592Y1565743D02*
X2182392D01*
X2179592Y1565563D02*
X2182392D01*
X2179592Y1565383D02*
X2182392D01*
X2179592Y1565203D02*
X2182392D01*
X2179592Y1565023D02*
X2182392D01*
X2179592Y1564843D02*
X2182392D01*
X2179592Y1564663D02*
X2182392D01*
X2179592Y1564483D02*
X2182392D01*
X2179592Y1564303D02*
X2182392D01*
X2179592Y1564123D02*
X2182392D01*
X2179592Y1563943D02*
X2182392D01*
X2179592Y1563763D02*
X2182392D01*
X2179593Y1577263D02*
X2182392D01*
X2179599Y1563583D02*
X2182385D01*
X2179609Y1577443D02*
X2182375D01*
X2179629Y1563403D02*
X2182355D01*
X2179650Y1577623D02*
X2182334D01*
X2179685Y1563223D02*
X2182299D01*
X2179717Y1577803D02*
X2182267D01*
X2179769Y1563043D02*
X2182215D01*
X2179816Y1577983D02*
X2182169D01*
X2179888Y1562863D02*
X2182096D01*
X2179953Y1578163D02*
X2182031D01*
X2180056Y1562683D02*
X2181928D01*
X2180150Y1578343D02*
X2181834D01*
X2180308Y1562503D02*
X2181677D01*
X2180469Y1578523D02*
X2181515D01*
X2179592Y1551183D02*
X2182392D01*
X2179592Y1551003D02*
X2182392D01*
X2179592Y1550823D02*
X2182392D01*
X2179592Y1550643D02*
X2182392D01*
X2179592Y1550463D02*
X2182392D01*
X2179592Y1550283D02*
X2182392D01*
X2179592Y1550103D02*
X2182392D01*
X2179592Y1549923D02*
X2182392D01*
X2179592Y1549743D02*
X2182392D01*
X2179592Y1549563D02*
X2182392D01*
X2179592Y1549383D02*
X2182392D01*
X2179592Y1549203D02*
X2182392D01*
X2179592Y1549023D02*
X2182392D01*
X2179592Y1548843D02*
X2182392D01*
X2179592Y1548663D02*
X2182392D01*
X2179592Y1548483D02*
X2182392D01*
X2179592Y1548303D02*
X2182392D01*
X2179592Y1548123D02*
X2182392D01*
X2179592Y1547943D02*
X2182392D01*
X2179592Y1547763D02*
X2182392D01*
X2179592Y1547583D02*
X2182392D01*
X2179592Y1547403D02*
X2182392D01*
X2179592Y1547223D02*
X2182392D01*
X2179592Y1547043D02*
X2182392D01*
X2179592Y1546863D02*
X2182392D01*
X2179592Y1546683D02*
X2182392D01*
X2179592Y1546503D02*
X2182392D01*
X2179592Y1546323D02*
X2182392D01*
X2179592Y1546143D02*
X2182392D01*
X2179592Y1545963D02*
X2182392D01*
X2179592Y1545783D02*
X2182392D01*
X2179592Y1545603D02*
X2182392D01*
X2179592Y1545423D02*
X2182392D01*
X2179592Y1545243D02*
X2182392D01*
X2179592Y1545063D02*
X2182392D01*
X2179592Y1544883D02*
X2182392D01*
X2179592Y1544703D02*
X2182392D01*
X2179592Y1544523D02*
X2182392D01*
X2179592Y1544343D02*
X2182392D01*
X2179592Y1544163D02*
X2182392D01*
X2179592Y1543983D02*
X2182392D01*
X2179592Y1543803D02*
X2182392D01*
X2179592Y1543623D02*
X2182392D01*
X2179592Y1543443D02*
X2182392D01*
X2179592Y1543263D02*
X2182392D01*
X2179592Y1543083D02*
X2182392D01*
X2179592Y1542903D02*
X2182392D01*
X2179592Y1542723D02*
X2182392D01*
X2179592Y1542543D02*
X2182392D01*
X2179592Y1542363D02*
X2182392D01*
X2179592Y1542183D02*
X2182392D01*
X2179592Y1542003D02*
X2182392D01*
X2179592Y1541823D02*
X2182392D01*
X2179592Y1541643D02*
X2182392D01*
X2179592Y1541463D02*
X2182392D01*
X2179592Y1541283D02*
X2182392D01*
X2179592Y1541103D02*
X2182392D01*
X2179592Y1540923D02*
X2182392D01*
X2179592Y1540743D02*
X2182392D01*
X2179592Y1540563D02*
X2182392D01*
X2179592Y1540383D02*
X2182392D01*
X2179592Y1540203D02*
X2182392D01*
X2179592Y1540023D02*
X2182392D01*
X2179592Y1539843D02*
X2182392D01*
X2179592Y1539663D02*
X2182392D01*
X2179592Y1539483D02*
X2182392D01*
X2179592Y1539303D02*
X2182392D01*
X2179592Y1539123D02*
X2182392D01*
X2179592Y1538943D02*
X2182392D01*
X2179592Y1538763D02*
X2182392D01*
X2179599Y1551363D02*
X2182385D01*
X2179599Y1538583D02*
X2182385D01*
X2179629Y1551543D02*
X2182355D01*
X2179629Y1538403D02*
X2182355D01*
X2179684Y1551723D02*
X2182300D01*
X2179685Y1538223D02*
X2182299D01*
X2179768Y1551903D02*
X2182217D01*
X2179769Y1538043D02*
X2182215D01*
X2179886Y1552083D02*
X2182098D01*
X2179888Y1537863D02*
X2182096D01*
X2180053Y1552263D02*
X2181931D01*
X2180056Y1537683D02*
X2181928D01*
X2180303Y1552443D02*
X2181681D01*
X2180308Y1537503D02*
X2181677D01*
X2180932Y1552623D02*
X2181053D01*
X2179592Y1459183D02*
X2182392D01*
X2179592Y1459003D02*
X2182392D01*
X2179592Y1458823D02*
X2182392D01*
X2179592Y1458643D02*
X2182392D01*
X2179592Y1458463D02*
X2182392D01*
X2179592Y1458283D02*
X2182392D01*
X2179592Y1458103D02*
X2182392D01*
X2179592Y1457923D02*
X2182392D01*
X2179592Y1457743D02*
X2182392D01*
X2179592Y1457563D02*
X2182392D01*
X2179592Y1457383D02*
X2182392D01*
X2179592Y1457203D02*
X2182392D01*
X2179592Y1457023D02*
X2182392D01*
X2179592Y1456843D02*
X2182392D01*
X2179592Y1456663D02*
X2182392D01*
X2179592Y1456483D02*
X2182392D01*
X2179592Y1456303D02*
X2182392D01*
X2179592Y1456123D02*
X2182392D01*
X2179592Y1455943D02*
X2182392D01*
X2179592Y1455763D02*
X2182392D01*
X2179592Y1455583D02*
X2182392D01*
X2179592Y1455403D02*
X2182392D01*
X2179592Y1455223D02*
X2182392D01*
X2179592Y1455043D02*
X2182392D01*
X2179592Y1454863D02*
X2182392D01*
X2179592Y1454683D02*
X2182392D01*
X2179592Y1454503D02*
X2182392D01*
X2179592Y1454323D02*
X2182392D01*
X2179592Y1454143D02*
X2182392D01*
X2179592Y1453963D02*
X2182392D01*
X2179592Y1453783D02*
X2182392D01*
X2179592Y1453603D02*
X2182392D01*
X2179592Y1453423D02*
X2182392D01*
X2179592Y1453243D02*
X2182392D01*
X2179592Y1453063D02*
X2182392D01*
X2179592Y1452883D02*
X2182392D01*
X2179592Y1452703D02*
X2182392D01*
X2179592Y1452523D02*
X2182392D01*
X2179592Y1452343D02*
X2182392D01*
X2179592Y1452163D02*
X2182392D01*
X2179592Y1451983D02*
X2182392D01*
X2179592Y1451803D02*
X2182392D01*
X2179592Y1451623D02*
X2182392D01*
X2179592Y1451443D02*
X2182392D01*
X2179592Y1451263D02*
X2182392D01*
X2179592Y1451083D02*
X2182392D01*
X2179592Y1450903D02*
X2182392D01*
X2179592Y1450723D02*
X2182392D01*
X2179592Y1450543D02*
X2182392D01*
X2179592Y1450363D02*
X2182392D01*
X2179592Y1450183D02*
X2182392D01*
X2179592Y1450003D02*
X2182392D01*
X2179592Y1449823D02*
X2182392D01*
X2179592Y1449643D02*
X2182392D01*
X2179592Y1449463D02*
X2182392D01*
X2179592Y1449283D02*
X2182392D01*
X2179592Y1449103D02*
X2182392D01*
X2179592Y1448923D02*
X2182392D01*
X2179592Y1448743D02*
X2182392D01*
X2179592Y1448563D02*
X2182392D01*
X2179592Y1448383D02*
X2182392D01*
X2179592Y1448203D02*
X2182392D01*
X2179592Y1448023D02*
X2182392D01*
X2179592Y1447843D02*
X2182392D01*
X2179592Y1447663D02*
X2182392D01*
X2179592Y1447483D02*
X2182392D01*
X2179592Y1447303D02*
X2182392D01*
X2179592Y1447123D02*
X2182392D01*
X2179592Y1446943D02*
X2182392D01*
X2179592Y1446763D02*
X2182392D01*
X2179599Y1459363D02*
X2182385D01*
X2179599Y1446583D02*
X2182385D01*
X2179629Y1459543D02*
X2182355D01*
X2179629Y1446403D02*
X2182355D01*
X2179684Y1459723D02*
X2182300D01*
X2179685Y1446223D02*
X2182299D01*
X2179768Y1459903D02*
X2182217D01*
X2179769Y1446043D02*
X2182215D01*
X2179886Y1460083D02*
X2182098D01*
X2179888Y1445863D02*
X2182096D01*
X2180053Y1460263D02*
X2181931D01*
X2180056Y1445683D02*
X2181928D01*
X2180303Y1460443D02*
X2181681D01*
X2180308Y1445503D02*
X2181677D01*
X2180932Y1460623D02*
X2181053D01*
X2179592Y1483083D02*
X2182392D01*
X2179592Y1482903D02*
X2182392D01*
X2179592Y1482723D02*
X2182392D01*
X2179592Y1482543D02*
X2182392D01*
X2179592Y1482363D02*
X2182392D01*
X2179592Y1482183D02*
X2182392D01*
X2179592Y1482003D02*
X2182392D01*
X2179592Y1481823D02*
X2182392D01*
X2179592Y1481643D02*
X2182392D01*
X2179592Y1481463D02*
X2182392D01*
X2179592Y1481283D02*
X2182392D01*
X2179592Y1481103D02*
X2182392D01*
X2179592Y1480923D02*
X2182392D01*
X2179592Y1480743D02*
X2182392D01*
X2179592Y1480563D02*
X2182392D01*
X2179592Y1480383D02*
X2182392D01*
X2179592Y1480203D02*
X2182392D01*
X2179592Y1480023D02*
X2182392D01*
X2179592Y1479843D02*
X2182392D01*
X2179592Y1479663D02*
X2182392D01*
X2179592Y1479483D02*
X2182392D01*
X2179592Y1479303D02*
X2182392D01*
X2179592Y1479123D02*
X2182392D01*
X2179592Y1478943D02*
X2182392D01*
X2179592Y1478763D02*
X2182392D01*
X2179592Y1478583D02*
X2182392D01*
X2179592Y1478403D02*
X2182392D01*
X2179592Y1478223D02*
X2182392D01*
X2179592Y1478043D02*
X2182392D01*
X2179592Y1477863D02*
X2182392D01*
X2179592Y1477683D02*
X2182392D01*
X2179592Y1477503D02*
X2182392D01*
X2179592Y1477323D02*
X2182392D01*
X2179592Y1477143D02*
X2182392D01*
X2179592Y1476963D02*
X2182392D01*
X2179592Y1476783D02*
X2182392D01*
X2179592Y1476603D02*
X2182392D01*
X2179592Y1476423D02*
X2182392D01*
X2179592Y1476243D02*
X2182392D01*
X2179592Y1476063D02*
X2182392D01*
X2179592Y1475883D02*
X2182392D01*
X2179592Y1475703D02*
X2182392D01*
X2179592Y1475523D02*
X2182392D01*
X2179592Y1475343D02*
X2182392D01*
X2179592Y1475163D02*
X2182392D01*
X2179592Y1474983D02*
X2182392D01*
X2179592Y1474803D02*
X2182392D01*
X2179592Y1474623D02*
X2182392D01*
X2179592Y1474443D02*
X2182392D01*
X2179592Y1474263D02*
X2182392D01*
X2179592Y1474083D02*
X2182392D01*
X2179592Y1473903D02*
X2182392D01*
X2179592Y1473723D02*
X2182392D01*
X2179592Y1473543D02*
X2182392D01*
X2179592Y1473363D02*
X2182392D01*
X2179592Y1473183D02*
X2182392D01*
X2179592Y1473003D02*
X2182392D01*
X2179592Y1472823D02*
X2182392D01*
X2179592Y1472643D02*
X2182392D01*
X2179592Y1472463D02*
X2182392D01*
X2179592Y1472283D02*
X2182392D01*
X2179592Y1472103D02*
X2182392D01*
X2179592Y1471923D02*
X2182392D01*
X2179592Y1471743D02*
X2182392D01*
X2179592Y1471563D02*
X2182392D01*
X2179592Y1471383D02*
X2182392D01*
X2179592Y1471203D02*
X2182392D01*
X2179592Y1471023D02*
X2182392D01*
X2179592Y1470843D02*
X2182392D01*
X2179592Y1470663D02*
X2182392D01*
X2179592Y1470483D02*
X2182392D01*
X2179592Y1470303D02*
X2182392D01*
X2179592Y1470123D02*
X2182392D01*
X2179592Y1469943D02*
X2182392D01*
X2179592Y1469763D02*
X2182392D01*
X2179593Y1483263D02*
X2182392D01*
X2179599Y1469583D02*
X2182385D01*
X2179609Y1483443D02*
X2182375D01*
X2179629Y1469403D02*
X2182355D01*
X2179650Y1483623D02*
X2182334D01*
X2179685Y1469223D02*
X2182299D01*
X2179717Y1483803D02*
X2182267D01*
X2179769Y1469043D02*
X2182215D01*
X2179816Y1483983D02*
X2182169D01*
X2179888Y1468863D02*
X2182096D01*
X2179953Y1484163D02*
X2182031D01*
X2180056Y1468683D02*
X2181928D01*
X2180150Y1484343D02*
X2181834D01*
X2180308Y1468503D02*
X2181677D01*
X2180469Y1484523D02*
X2181515D01*
X2179592Y1506683D02*
X2182392D01*
X2179592Y1506503D02*
X2182392D01*
X2179592Y1506323D02*
X2182392D01*
X2179592Y1506143D02*
X2182392D01*
X2179592Y1505963D02*
X2182392D01*
X2179592Y1505783D02*
X2182392D01*
X2179592Y1505603D02*
X2182392D01*
X2179592Y1505423D02*
X2182392D01*
X2179592Y1505243D02*
X2182392D01*
X2179592Y1505063D02*
X2182392D01*
X2179592Y1504883D02*
X2182392D01*
X2179592Y1504703D02*
X2182392D01*
X2179592Y1504523D02*
X2182392D01*
X2179592Y1504343D02*
X2182392D01*
X2179592Y1504163D02*
X2182392D01*
X2179592Y1503983D02*
X2182392D01*
X2179592Y1503803D02*
X2182392D01*
X2179592Y1503623D02*
X2182392D01*
X2179592Y1503443D02*
X2182392D01*
X2179592Y1503263D02*
X2182392D01*
X2179592Y1503083D02*
X2182392D01*
X2179592Y1502903D02*
X2182392D01*
X2179592Y1502723D02*
X2182392D01*
X2179592Y1502543D02*
X2182392D01*
X2179592Y1502363D02*
X2182392D01*
X2179592Y1502183D02*
X2182392D01*
X2179592Y1502003D02*
X2182392D01*
X2179592Y1501823D02*
X2182392D01*
X2179592Y1501643D02*
X2182392D01*
X2179592Y1501463D02*
X2182392D01*
X2179592Y1501283D02*
X2182392D01*
X2179592Y1501103D02*
X2182392D01*
X2179592Y1500923D02*
X2182392D01*
X2179592Y1500743D02*
X2182392D01*
X2179592Y1500563D02*
X2182392D01*
X2179592Y1500383D02*
X2182392D01*
X2179592Y1500203D02*
X2182392D01*
X2179592Y1500023D02*
X2182392D01*
X2179592Y1499843D02*
X2182392D01*
X2179592Y1499663D02*
X2182392D01*
X2179592Y1499483D02*
X2182392D01*
X2179592Y1499303D02*
X2182392D01*
X2179592Y1499123D02*
X2182392D01*
X2179592Y1498943D02*
X2182392D01*
X2179592Y1498763D02*
X2182392D01*
X2179592Y1498583D02*
X2182392D01*
X2179592Y1498403D02*
X2182392D01*
X2179592Y1498223D02*
X2182392D01*
X2179592Y1498043D02*
X2182392D01*
X2179592Y1497863D02*
X2182392D01*
X2179592Y1497683D02*
X2182392D01*
X2179592Y1497503D02*
X2182392D01*
X2179592Y1497323D02*
X2182392D01*
X2179592Y1497143D02*
X2182392D01*
X2179592Y1496963D02*
X2182392D01*
X2179592Y1496783D02*
X2182392D01*
X2179592Y1496603D02*
X2182392D01*
X2179592Y1496423D02*
X2182392D01*
X2179592Y1496243D02*
X2182392D01*
X2179592Y1496063D02*
X2182392D01*
X2179592Y1495883D02*
X2182392D01*
X2179592Y1495703D02*
X2182392D01*
X2179592Y1495523D02*
X2182392D01*
X2179592Y1495343D02*
X2182392D01*
X2179592Y1495163D02*
X2182392D01*
X2179592Y1494983D02*
X2182392D01*
X2179592Y1494803D02*
X2182392D01*
X2179592Y1494623D02*
X2182392D01*
X2179592Y1494443D02*
X2182392D01*
X2179592Y1494263D02*
X2182392D01*
X2179599Y1506863D02*
X2182385D01*
X2179599Y1494083D02*
X2182385D01*
X2179629Y1507043D02*
X2182355D01*
X2179629Y1493903D02*
X2182355D01*
X2179684Y1507223D02*
X2182300D01*
X2179685Y1493723D02*
X2182299D01*
X2179768Y1507403D02*
X2182217D01*
X2179769Y1493543D02*
X2182215D01*
X2179886Y1507583D02*
X2182098D01*
X2179888Y1493363D02*
X2182096D01*
X2180053Y1507763D02*
X2181931D01*
X2180056Y1493183D02*
X2181928D01*
X2180303Y1507943D02*
X2181681D01*
X2180308Y1493003D02*
X2181677D01*
X2180932Y1508123D02*
X2181053D01*
X2179592Y1367183D02*
X2182392D01*
X2179592Y1367003D02*
X2182392D01*
X2179592Y1366823D02*
X2182392D01*
X2179592Y1366643D02*
X2182392D01*
X2179592Y1366463D02*
X2182392D01*
X2179592Y1366283D02*
X2182392D01*
X2179592Y1366103D02*
X2182392D01*
X2179592Y1365923D02*
X2182392D01*
X2179592Y1365743D02*
X2182392D01*
X2179592Y1365563D02*
X2182392D01*
X2179592Y1365383D02*
X2182392D01*
X2179592Y1365203D02*
X2182392D01*
X2179592Y1365023D02*
X2182392D01*
X2179592Y1364843D02*
X2182392D01*
X2179592Y1364663D02*
X2182392D01*
X2179592Y1364483D02*
X2182392D01*
X2179592Y1364303D02*
X2182392D01*
X2179592Y1364123D02*
X2182392D01*
X2179592Y1363943D02*
X2182392D01*
X2179592Y1363763D02*
X2182392D01*
X2179592Y1363583D02*
X2182392D01*
X2179592Y1363403D02*
X2182392D01*
X2179592Y1363223D02*
X2182392D01*
X2179592Y1363043D02*
X2182392D01*
X2179592Y1362863D02*
X2182392D01*
X2179592Y1362683D02*
X2182392D01*
X2179592Y1362503D02*
X2182392D01*
X2179592Y1362323D02*
X2182392D01*
X2179592Y1362143D02*
X2182392D01*
X2179592Y1361963D02*
X2182392D01*
X2179592Y1361783D02*
X2182392D01*
X2179592Y1361603D02*
X2182392D01*
X2179592Y1361423D02*
X2182392D01*
X2179592Y1361243D02*
X2182392D01*
X2179592Y1361063D02*
X2182392D01*
X2179592Y1360883D02*
X2182392D01*
X2179592Y1360703D02*
X2182392D01*
X2179592Y1360523D02*
X2182392D01*
X2179592Y1360343D02*
X2182392D01*
X2179592Y1360163D02*
X2182392D01*
X2179592Y1359983D02*
X2182392D01*
X2179592Y1359803D02*
X2182392D01*
X2179592Y1359623D02*
X2182392D01*
X2179592Y1359443D02*
X2182392D01*
X2179592Y1359263D02*
X2182392D01*
X2179592Y1359083D02*
X2182392D01*
X2179592Y1358903D02*
X2182392D01*
X2179592Y1358723D02*
X2182392D01*
X2179592Y1358543D02*
X2182392D01*
X2179592Y1358363D02*
X2182392D01*
X2179592Y1358183D02*
X2182392D01*
X2179592Y1358003D02*
X2182392D01*
X2179592Y1357823D02*
X2182392D01*
X2179592Y1357643D02*
X2182392D01*
X2179592Y1357463D02*
X2182392D01*
X2179592Y1357283D02*
X2182392D01*
X2179592Y1357103D02*
X2182392D01*
X2179592Y1356923D02*
X2182392D01*
X2179592Y1356743D02*
X2182392D01*
X2179592Y1356563D02*
X2182392D01*
X2179592Y1356383D02*
X2182392D01*
X2179592Y1356203D02*
X2182392D01*
X2179592Y1356023D02*
X2182392D01*
X2179592Y1355843D02*
X2182392D01*
X2179592Y1355663D02*
X2182392D01*
X2179592Y1355483D02*
X2182392D01*
X2179592Y1355303D02*
X2182392D01*
X2179592Y1355123D02*
X2182392D01*
X2179592Y1354943D02*
X2182392D01*
X2179592Y1354763D02*
X2182392D01*
X2179599Y1367363D02*
X2182385D01*
X2179599Y1354583D02*
X2182385D01*
X2179629Y1367543D02*
X2182355D01*
X2179629Y1354403D02*
X2182355D01*
X2179684Y1367723D02*
X2182300D01*
X2179685Y1354223D02*
X2182299D01*
X2179768Y1367903D02*
X2182217D01*
X2179769Y1354043D02*
X2182215D01*
X2179886Y1368083D02*
X2182098D01*
X2179888Y1353863D02*
X2182096D01*
X2180053Y1368263D02*
X2181931D01*
X2180056Y1353683D02*
X2181928D01*
X2180303Y1368443D02*
X2181681D01*
X2180308Y1353503D02*
X2181677D01*
X2180932Y1368623D02*
X2181053D01*
X2179592Y1391083D02*
X2182392D01*
X2179592Y1390903D02*
X2182392D01*
X2179592Y1390723D02*
X2182392D01*
X2179592Y1390543D02*
X2182392D01*
X2179592Y1390363D02*
X2182392D01*
X2179592Y1390183D02*
X2182392D01*
X2179592Y1390003D02*
X2182392D01*
X2179592Y1389823D02*
X2182392D01*
X2179592Y1389643D02*
X2182392D01*
X2179592Y1389463D02*
X2182392D01*
X2179592Y1389283D02*
X2182392D01*
X2179592Y1389103D02*
X2182392D01*
X2179592Y1388923D02*
X2182392D01*
X2179592Y1388743D02*
X2182392D01*
X2179592Y1388563D02*
X2182392D01*
X2179592Y1388383D02*
X2182392D01*
X2179592Y1388203D02*
X2182392D01*
X2179592Y1388023D02*
X2182392D01*
X2179592Y1387843D02*
X2182392D01*
X2179592Y1387663D02*
X2182392D01*
X2179592Y1387483D02*
X2182392D01*
X2179592Y1387303D02*
X2182392D01*
X2179592Y1387123D02*
X2182392D01*
X2179592Y1386943D02*
X2182392D01*
X2179592Y1386763D02*
X2182392D01*
X2179592Y1386583D02*
X2182392D01*
X2179592Y1386403D02*
X2182392D01*
X2179592Y1386223D02*
X2182392D01*
X2179592Y1386043D02*
X2182392D01*
X2179592Y1385863D02*
X2182392D01*
X2179592Y1385683D02*
X2182392D01*
X2179592Y1385503D02*
X2182392D01*
X2179592Y1385323D02*
X2182392D01*
X2179592Y1385143D02*
X2182392D01*
X2179592Y1384963D02*
X2182392D01*
X2179592Y1384783D02*
X2182392D01*
X2179592Y1384603D02*
X2182392D01*
X2179592Y1384423D02*
X2182392D01*
X2179592Y1384243D02*
X2182392D01*
X2179592Y1384063D02*
X2182392D01*
X2179592Y1383883D02*
X2182392D01*
X2179592Y1383703D02*
X2182392D01*
X2179592Y1383523D02*
X2182392D01*
X2179592Y1383343D02*
X2182392D01*
X2179592Y1383163D02*
X2182392D01*
X2179592Y1382983D02*
X2182392D01*
X2179592Y1382803D02*
X2182392D01*
X2179592Y1382623D02*
X2182392D01*
X2179592Y1382443D02*
X2182392D01*
X2179592Y1382263D02*
X2182392D01*
X2179592Y1382083D02*
X2182392D01*
X2179592Y1381903D02*
X2182392D01*
X2179592Y1381723D02*
X2182392D01*
X2179592Y1381543D02*
X2182392D01*
X2179592Y1381363D02*
X2182392D01*
X2179592Y1381183D02*
X2182392D01*
X2179592Y1381003D02*
X2182392D01*
X2179592Y1380823D02*
X2182392D01*
X2179592Y1380643D02*
X2182392D01*
X2179592Y1380463D02*
X2182392D01*
X2179592Y1380283D02*
X2182392D01*
X2179592Y1380103D02*
X2182392D01*
X2179592Y1379923D02*
X2182392D01*
X2179592Y1379743D02*
X2182392D01*
X2179592Y1379563D02*
X2182392D01*
X2179592Y1379383D02*
X2182392D01*
X2179592Y1379203D02*
X2182392D01*
X2179592Y1379023D02*
X2182392D01*
X2179592Y1378843D02*
X2182392D01*
X2179592Y1378663D02*
X2182392D01*
X2179592Y1378483D02*
X2182392D01*
X2179592Y1378303D02*
X2182392D01*
X2179592Y1378123D02*
X2182392D01*
X2179592Y1377943D02*
X2182392D01*
X2179592Y1377763D02*
X2182392D01*
X2179593Y1391263D02*
X2182392D01*
X2179599Y1377583D02*
X2182385D01*
X2179609Y1391443D02*
X2182375D01*
X2179629Y1377403D02*
X2182355D01*
X2179650Y1391623D02*
X2182334D01*
X2179685Y1377223D02*
X2182299D01*
X2179717Y1391803D02*
X2182267D01*
X2179769Y1377043D02*
X2182215D01*
X2179816Y1391983D02*
X2182169D01*
X2179888Y1376863D02*
X2182096D01*
X2179953Y1392163D02*
X2182031D01*
X2180056Y1376683D02*
X2181928D01*
X2180150Y1392343D02*
X2181834D01*
X2180308Y1376503D02*
X2181677D01*
X2180469Y1392523D02*
X2181515D01*
X2179592Y1414683D02*
X2182392D01*
X2179592Y1414503D02*
X2182392D01*
X2179592Y1414323D02*
X2182392D01*
X2179592Y1414143D02*
X2182392D01*
X2179592Y1413963D02*
X2182392D01*
X2179592Y1413783D02*
X2182392D01*
X2179592Y1413603D02*
X2182392D01*
X2179592Y1413423D02*
X2182392D01*
X2179592Y1413243D02*
X2182392D01*
X2179592Y1413063D02*
X2182392D01*
X2179592Y1412883D02*
X2182392D01*
X2179592Y1412703D02*
X2182392D01*
X2179592Y1412523D02*
X2182392D01*
X2179592Y1412343D02*
X2182392D01*
X2179592Y1412163D02*
X2182392D01*
X2179592Y1411983D02*
X2182392D01*
X2179592Y1411803D02*
X2182392D01*
X2179592Y1411623D02*
X2182392D01*
X2179592Y1411443D02*
X2182392D01*
X2179592Y1411263D02*
X2182392D01*
X2179592Y1411083D02*
X2182392D01*
X2179592Y1410903D02*
X2182392D01*
X2179592Y1410723D02*
X2182392D01*
X2179592Y1410543D02*
X2182392D01*
X2179592Y1410363D02*
X2182392D01*
X2179592Y1410183D02*
X2182392D01*
X2179592Y1410003D02*
X2182392D01*
X2179592Y1409823D02*
X2182392D01*
X2179592Y1409643D02*
X2182392D01*
X2179592Y1409463D02*
X2182392D01*
X2179592Y1409283D02*
X2182392D01*
X2179592Y1409103D02*
X2182392D01*
X2179592Y1408923D02*
X2182392D01*
X2179592Y1408743D02*
X2182392D01*
X2179592Y1408563D02*
X2182392D01*
X2179592Y1408383D02*
X2182392D01*
X2179592Y1408203D02*
X2182392D01*
X2179592Y1408023D02*
X2182392D01*
X2179592Y1407843D02*
X2182392D01*
X2179592Y1407663D02*
X2182392D01*
X2179592Y1407483D02*
X2182392D01*
X2179592Y1407303D02*
X2182392D01*
X2179592Y1407123D02*
X2182392D01*
X2179592Y1406943D02*
X2182392D01*
X2179592Y1406763D02*
X2182392D01*
X2179592Y1406583D02*
X2182392D01*
X2179592Y1406403D02*
X2182392D01*
X2179592Y1406223D02*
X2182392D01*
X2179592Y1406043D02*
X2182392D01*
X2179592Y1405863D02*
X2182392D01*
X2179592Y1405683D02*
X2182392D01*
X2179592Y1405503D02*
X2182392D01*
X2179592Y1405323D02*
X2182392D01*
X2179592Y1405143D02*
X2182392D01*
X2179592Y1404963D02*
X2182392D01*
X2179592Y1404783D02*
X2182392D01*
X2179592Y1404603D02*
X2182392D01*
X2179592Y1404423D02*
X2182392D01*
X2179592Y1404243D02*
X2182392D01*
X2179592Y1404063D02*
X2182392D01*
X2179592Y1403883D02*
X2182392D01*
X2179592Y1403703D02*
X2182392D01*
X2179592Y1403523D02*
X2182392D01*
X2179592Y1403343D02*
X2182392D01*
X2179592Y1403163D02*
X2182392D01*
X2179592Y1402983D02*
X2182392D01*
X2179592Y1402803D02*
X2182392D01*
X2179592Y1402623D02*
X2182392D01*
X2179592Y1402443D02*
X2182392D01*
X2179592Y1402263D02*
X2182392D01*
X2179599Y1414863D02*
X2182385D01*
X2179599Y1402083D02*
X2182385D01*
X2179629Y1415043D02*
X2182355D01*
X2179629Y1401903D02*
X2182355D01*
X2179684Y1415223D02*
X2182300D01*
X2179685Y1401723D02*
X2182299D01*
X2179768Y1415403D02*
X2182217D01*
X2179769Y1401543D02*
X2182215D01*
X2179886Y1415583D02*
X2182098D01*
X2179888Y1401363D02*
X2182096D01*
X2180053Y1415763D02*
X2181931D01*
X2180056Y1401183D02*
X2181928D01*
X2180303Y1415943D02*
X2181681D01*
X2180308Y1401003D02*
X2181677D01*
X2180932Y1416123D02*
X2181053D01*
X2053094Y1558803D02*
X2114890D01*
X2053095Y1558623D02*
X2114889D01*
X2053110Y1558983D02*
X2114874D01*
X2053113Y1558443D02*
X2114871D01*
X2053143Y1559163D02*
X2114841D01*
X2053149Y1558263D02*
X2114835D01*
X2053196Y1559343D02*
X2114789D01*
X2053204Y1558083D02*
X2114781D01*
X2053268Y1559523D02*
X2114716D01*
X2053279Y1557903D02*
X2114705D01*
X2053364Y1559703D02*
X2114621D01*
X2053377Y1557723D02*
X2114607D01*
X2053486Y1559883D02*
X2114498D01*
X2053504Y1557543D02*
X2114480D01*
X2053644Y1560063D02*
X2114340D01*
X2053667Y1557363D02*
X2114318D01*
X2053850Y1560243D02*
X2114134D01*
X2053881Y1557183D02*
X2114103D01*
X2054141Y1560423D02*
X2113843D01*
X2054188Y1557003D02*
X2113797D01*
X2054708Y1560603D02*
X2113276D01*
X2117594Y1556803D02*
X2182568D01*
X2117595Y1556623D02*
X2182567D01*
X2117610Y1556983D02*
X2182552D01*
X2117613Y1556443D02*
X2182548D01*
X2117643Y1557163D02*
X2182518D01*
X2117649Y1556263D02*
X2182512D01*
X2117696Y1557343D02*
X2182466D01*
X2117704Y1556083D02*
X2182458D01*
X2117768Y1557523D02*
X2182393D01*
X2117779Y1555903D02*
X2182383D01*
X2117864Y1557703D02*
X2182298D01*
X2117877Y1555723D02*
X2182284D01*
X2117986Y1557883D02*
X2182175D01*
X2118004Y1555543D02*
X2182157D01*
X2118144Y1558063D02*
X2182018D01*
X2118167Y1555363D02*
X2181995D01*
X2118350Y1558243D02*
X2181811D01*
X2118381Y1555183D02*
X2181780D01*
X2118641Y1558423D02*
X2181520D01*
X2118688Y1555003D02*
X2181474D01*
X2119208Y1558603D02*
X2180953D01*
G54D66*
X1812992Y1312598D02*
G03X1820866Y1304724I7874J0D01*
G01X2179134*
G03X2187008Y1312598I-0J7874*
G01Y1887402*
G03X2179134Y1895276I-7874J-0*
G01X1820866*
G03X1812992Y1887402I0J-7874*
G01Y1312598*
X1841535Y1324409D02*
G03X1841535I-8858J0D01*
G01X2176181D02*
G03X2176181I-8858J0D01*
G01X1841535Y1875591D02*
G03X1841535I-8858J0D01*
G01X2176181D02*
G03X2176181I-8858J0D01*
G54D11*
G01X2089742Y1731724D03*
X2096242D03*
X2082242D03*
X2075742D03*
X1980992Y1756474D03*
Y1762974D03*
X1994992Y1748974D03*
Y1742474D03*
X1993492Y1874474D03*
Y1867974D03*
X1868492Y1748974D03*
Y1742474D03*
X1854992D03*
Y1748974D03*
X1993492Y1854974D03*
Y1861474D03*
X2086992Y1855474D03*
Y1861974D03*
X2078992Y1755474D03*
Y1761974D03*
Y1748974D03*
Y1742474D03*
X1847992Y1748974D03*
Y1742474D03*
Y1762974D03*
Y1756474D03*
X1819992Y1617474D03*
Y1623974D03*
X1840992Y1692974D03*
Y1686474D03*
X1826992Y1617474D03*
Y1623974D03*
X1847992Y1730974D03*
Y1724474D03*
X1833992Y1623974D03*
Y1617474D03*
X1847992Y1713974D03*
Y1707474D03*
X1840992Y1617474D03*
Y1623974D03*
X1847992Y1692974D03*
Y1686474D03*
X1973992Y1756474D03*
Y1762974D03*
X1861992Y1707474D03*
Y1713974D03*
X1889492Y1686474D03*
Y1692974D03*
X1980992Y1770474D03*
Y1776974D03*
X1973992Y1770474D03*
Y1776974D03*
X1994992D03*
Y1770474D03*
X1938992Y1794474D03*
Y1800974D03*
X1882492Y1686474D03*
Y1692974D03*
X1994992Y1721474D03*
Y1727974D03*
X1887992Y1853974D03*
Y1847474D03*
X1854992Y1724474D03*
Y1730974D03*
X1988992Y1727974D03*
Y1721474D03*
X1948742Y1700724D03*
X1955242D03*
X1938242D03*
X1931742D03*
X1892242Y1704724D03*
X1885742D03*
X1911742Y1700724D03*
X1918242D03*
X1840992Y1631474D03*
Y1637974D03*
X1899992Y1847474D03*
Y1853974D03*
X1905992Y1847474D03*
Y1853974D03*
X1931992Y1794474D03*
Y1800974D03*
X1862242Y1674724D03*
X1868742D03*
X1847992Y1631474D03*
Y1637974D03*
X2073992Y1876474D03*
Y1882974D03*
X1819992Y1637974D03*
Y1631474D03*
X1854992Y1692974D03*
Y1686474D03*
X2106992Y1756474D03*
Y1762974D03*
X1991492Y1517974D03*
Y1524474D03*
X1833992Y1692974D03*
Y1686474D03*
X1916992Y1811474D03*
Y1817974D03*
X1928992Y1811474D03*
Y1817974D03*
X1958992Y1811474D03*
Y1817974D03*
X1922992Y1811474D03*
Y1817974D03*
X1940992Y1811474D03*
Y1817974D03*
X1946992Y1811474D03*
Y1817974D03*
X1910992Y1811474D03*
Y1817974D03*
X1934992Y1811474D03*
Y1817974D03*
X1952992Y1811474D03*
Y1817974D03*
X1935242Y1612724D03*
X1941742D03*
X1873992Y1847474D03*
Y1853974D03*
X1882033Y1847474D03*
Y1853974D03*
X1910992Y1804974D03*
Y1798474D03*
X1865992Y1847474D03*
Y1853974D03*
X1859992D03*
Y1847474D03*
X1959242Y1636724D03*
X1952742D03*
X1978992Y1856474D03*
Y1862974D03*
X1847992Y1770474D03*
Y1776974D03*
X2067992Y1876474D03*
Y1882974D03*
X2078992Y1855474D03*
Y1861974D03*
X1999492Y1874474D03*
Y1867974D03*
Y1854974D03*
Y1861474D03*
X1994992Y1790974D03*
Y1784474D03*
X1987992Y1776974D03*
Y1770474D03*
Y1748974D03*
Y1742474D03*
X1833992Y1631474D03*
Y1637974D03*
X2078992Y1790974D03*
Y1784474D03*
X1826992Y1631474D03*
Y1637974D03*
X2078992Y1776974D03*
Y1770474D03*
X2099992Y1784474D03*
Y1790974D03*
X2144992Y1741974D03*
Y1735474D03*
X1854992Y1707474D03*
Y1713974D03*
X1826992Y1686474D03*
Y1692974D03*
X1987992Y1812474D03*
Y1818974D03*
X2093992Y1847974D03*
Y1841474D03*
X2078992Y1847974D03*
Y1841474D03*
Y1819974D03*
Y1813474D03*
Y1805974D03*
Y1799474D03*
X1954992Y1800974D03*
Y1794474D03*
X1947992Y1800974D03*
Y1794474D03*
X1964992Y1811474D03*
Y1817974D03*
X1970992Y1811474D03*
Y1817974D03*
X1994992Y1804974D03*
Y1798474D03*
X2093992Y1784474D03*
Y1790974D03*
X2171992Y1755974D03*
Y1749474D03*
Y1769974D03*
Y1763474D03*
X2093992Y1770474D03*
Y1776974D03*
X2162992Y1769974D03*
Y1763474D03*
X1966992Y1770474D03*
Y1776974D03*
X2093992Y1755474D03*
Y1761974D03*
X2155992Y1763474D03*
Y1769974D03*
X2086992Y1761974D03*
Y1755474D03*
Y1776974D03*
Y1770474D03*
X2148992Y1769974D03*
Y1763474D03*
X2086992Y1805974D03*
Y1799474D03*
X2093992Y1861974D03*
Y1855474D03*
X2086992Y1847974D03*
Y1841474D03*
Y1833974D03*
Y1827474D03*
Y1819974D03*
Y1813474D03*
X1994992Y1812474D03*
Y1818974D03*
X2078992Y1833974D03*
Y1827474D03*
X1987992Y1804974D03*
Y1798474D03*
X1962492Y1794474D03*
Y1800974D03*
X2086992Y1790974D03*
Y1784474D03*
X1858992Y1656474D03*
Y1662974D03*
X2134992Y1741974D03*
Y1735474D03*
X1893992Y1847474D03*
Y1853974D03*
X1876992Y1656474D03*
Y1662974D03*
X1919992Y1849724D03*
X1937992D03*
X1955992D03*
G54D12*
X1983742Y1525224D03*
X1976242D03*
X2086992Y1748474D03*
Y1740974D03*
X1981242Y1749724D03*
X1973742D03*
X1977242Y1783724D03*
X1984742D03*
X1989242Y1755724D03*
X1996742D03*
X2145992Y1846974D03*
Y1854474D03*
X2114742Y1792224D03*
X2107242D03*
X2159742Y1756724D03*
X2152242D03*
X2131742Y1773724D03*
X2124242D03*
X2103242Y1769724D03*
X2110742D03*
X1916242Y1824724D03*
X1923742D03*
X1934242D03*
X1941742D03*
X1952242D03*
X1959742D03*
X1919992Y1839724D03*
X1937992D03*
X1955992D03*
G54D13*
X1979942Y1517224D03*
X1977442Y1741724D03*
X1981042Y1791724D03*
X1993042Y1763724D03*
X2110992Y1784224D03*
X2155992Y1748724D03*
X2127942Y1765724D03*
X2107042Y1777724D03*
X1920042Y1832724D03*
X1938042D03*
X1956042D03*
G54D14*
X2094992Y1744674D03*
X2137992Y1850724D03*
G54D15*
X2141992Y1800724D03*
Y1786724D03*
X2120992Y1843724D03*
Y1857724D03*
X2127992Y1829724D03*
Y1815724D03*
X2127966Y1786724D03*
Y1800724D03*
X2107040Y1857717D03*
Y1844217D03*
X1939040Y1636717D03*
Y1623217D03*
X2155992Y1738724D03*
X2169992D03*
X1833491Y1573750D03*
X1847491D03*
G54D16*
X1989492Y1507724D03*
X1980492D03*
G54D17*
X1821992Y1844224D03*
Y1834224D03*
Y1824224D03*
Y1814224D03*
Y1804224D03*
Y1794224D03*
Y1771724D03*
Y1761724D03*
Y1751724D03*
Y1741724D03*
G54D18*
X1877492Y1748724D03*
Y1739724D03*
X1872992Y1684224D03*
Y1693224D03*
X2106992Y1747224D03*
Y1738224D03*
G54D19*
X1980228Y1320693D03*
X2009756Y1316756D03*
G54D20*
X2070992Y1332224D03*
Y1352224D03*
G54D21*
X2052992Y1852724D03*
Y1862724D03*
X2016992D03*
Y1852724D03*
X2018992Y1775224D03*
Y1765224D03*
X2054992D03*
Y1775224D03*
X2052992Y1874724D03*
Y1884724D03*
X2016992D03*
Y1874724D03*
X2018992Y1753724D03*
Y1743724D03*
X2054992D03*
Y1753724D03*
G54D22*
X2119992Y1731850D03*
Y1747598D03*
G54D23*
X1819242Y1718328D02*
Y1721121D01*
X1820596Y1722474*
X1823389*
X1824742Y1721121*
Y1718328*
X1823389Y1716974*
X1820596*
X1819242Y1718328*
X1819846Y1717724D02*
X1824139D01*
X1819242Y1718724D02*
X1824742D01*
X1819242Y1719724D02*
X1824742D01*
X1819242Y1720724D02*
X1824742D01*
X1819846Y1721724D02*
X1824139D01*
X1819992Y1717578D02*
Y1721871D01*
X1820992Y1716974D02*
Y1722474D01*
X1821992Y1716974D02*
Y1722474D01*
X1822992Y1716974D02*
Y1722474D01*
X1823992Y1717578D02*
Y1721871D01*
X1821992Y1709724D03*
X1851996Y1603974D02*
X1855789D01*
X1857642Y1602121*
Y1590328*
X1855789Y1588474*
X1851996*
X1850142Y1590328*
Y1602121*
X1851996Y1603974*
X1851746Y1588724D02*
X1856039D01*
X1850746Y1589724D02*
X1857039D01*
X1850142Y1590724D02*
X1857642D01*
X1850142Y1591724D02*
X1857642D01*
X1850142Y1592724D02*
X1857642D01*
X1850142Y1593724D02*
X1857642D01*
X1850142Y1594724D02*
X1857642D01*
X1850142Y1595724D02*
X1857642D01*
X1850142Y1596724D02*
X1857642D01*
X1850142Y1597724D02*
X1857642D01*
X1850142Y1598724D02*
X1857642D01*
X1850142Y1599724D02*
X1857642D01*
X1850142Y1600724D02*
X1857642D01*
X1850142Y1601724D02*
X1857642D01*
X1850746Y1602724D02*
X1857039D01*
X1851746Y1603724D02*
X1856039D01*
X1850992Y1589478D02*
Y1602971D01*
X1851992Y1588478D02*
Y1603971D01*
X1852992Y1588474D02*
Y1603974D01*
X1853992Y1588474D02*
Y1603974D01*
X1854992Y1588474D02*
Y1603974D01*
X1855992Y1588678D02*
Y1603771D01*
X1856992Y1589678D02*
Y1602771D01*
X1924242Y1575721D02*
Y1571928D01*
X1922389Y1570074*
X1910596*
X1908742Y1571928*
Y1575721*
X1910596Y1577574*
X1922389*
X1924242Y1575721*
X1909946Y1570724D02*
X1923039D01*
X1908946Y1571724D02*
X1924039D01*
X1908742Y1572724D02*
X1924242D01*
X1908742Y1573724D02*
X1924242D01*
X1908742Y1574724D02*
X1924242D01*
X1908746Y1575724D02*
X1924239D01*
X1909746Y1576724D02*
X1923239D01*
X1908992Y1571678D02*
Y1575971D01*
X1909992Y1570678D02*
Y1576971D01*
X1910992Y1570074D02*
Y1577574D01*
X1911992Y1570074D02*
Y1577574D01*
X1912992Y1570074D02*
Y1577574D01*
X1913992Y1570074D02*
Y1577574D01*
X1914992Y1570074D02*
Y1577574D01*
X1915992Y1570074D02*
Y1577574D01*
X1916992Y1570074D02*
Y1577574D01*
X1917992Y1570074D02*
Y1577574D01*
X1918992Y1570074D02*
Y1577574D01*
X1919992Y1570074D02*
Y1577574D01*
X1920992Y1570074D02*
Y1577574D01*
X1921992Y1570074D02*
Y1577574D01*
X1922992Y1570678D02*
Y1576971D01*
X1923992Y1571678D02*
Y1575971D01*
X1924242Y1613721D02*
Y1609928D01*
X1922389Y1608074*
X1910596*
X1908742Y1609928*
Y1613721*
X1910596Y1615574*
X1922389*
X1924242Y1613721*
X1909946Y1608724D02*
X1923039D01*
X1908946Y1609724D02*
X1924039D01*
X1908742Y1610724D02*
X1924242D01*
X1908742Y1611724D02*
X1924242D01*
X1908742Y1612724D02*
X1924242D01*
X1908746Y1613724D02*
X1924239D01*
X1909746Y1614724D02*
X1923239D01*
X1908992Y1609678D02*
Y1613971D01*
X1909992Y1608678D02*
Y1614971D01*
X1910992Y1608074D02*
Y1615574D01*
X1911992Y1608074D02*
Y1615574D01*
X1912992Y1608074D02*
Y1615574D01*
X1913992Y1608074D02*
Y1615574D01*
X1914992Y1608074D02*
Y1615574D01*
X1915992Y1608074D02*
Y1615574D01*
X1916992Y1608074D02*
Y1615574D01*
X1917992Y1608074D02*
Y1615574D01*
X1918992Y1608074D02*
Y1615574D01*
X1919992Y1608074D02*
Y1615574D01*
X1920992Y1608074D02*
Y1615574D01*
X1921992Y1608074D02*
Y1615574D01*
X1922992Y1608678D02*
Y1614971D01*
X1923992Y1609678D02*
Y1613971D01*
X1957742Y1575721D02*
Y1571928D01*
X1955889Y1570074*
X1944096*
X1942242Y1571928*
Y1575721*
X1944096Y1577574*
X1955889*
X1957742Y1575721*
X1943446Y1570724D02*
X1956539D01*
X1942446Y1571724D02*
X1957539D01*
X1942242Y1572724D02*
X1957742D01*
X1942242Y1573724D02*
X1957742D01*
X1942242Y1574724D02*
X1957742D01*
X1942246Y1575724D02*
X1957739D01*
X1943246Y1576724D02*
X1956739D01*
X1942992Y1571178D02*
Y1576471D01*
X1943992Y1570178D02*
Y1577471D01*
X1944992Y1570074D02*
Y1577574D01*
X1945992Y1570074D02*
Y1577574D01*
X1946992Y1570074D02*
Y1577574D01*
X1947992Y1570074D02*
Y1577574D01*
X1948992Y1570074D02*
Y1577574D01*
X1949992Y1570074D02*
Y1577574D01*
X1950992Y1570074D02*
Y1577574D01*
X1951992Y1570074D02*
Y1577574D01*
X1952992Y1570074D02*
Y1577574D01*
X1953992Y1570074D02*
Y1577574D01*
X1954992Y1570074D02*
Y1577574D01*
X1955992Y1570178D02*
Y1577471D01*
X1956992Y1571178D02*
Y1576471D01*
X2026992Y1345924D03*
X1948252D03*
G54D24*
X1864512Y1345898D03*
Y1317551D03*
X1929472Y1345898D03*
Y1317551D03*
G54D25*
X1993017Y1826700D03*
G54D26*
Y1831700D03*
Y1836700D03*
Y1841700D03*
X1973017D03*
Y1836700D03*
Y1831700D03*
Y1826700D03*
G54D27*
X2060592Y1807724D03*
Y1817724D03*
Y1827724D03*
Y1837724D03*
X2013392D03*
Y1827724D03*
Y1817724D03*
Y1807724D03*
G54D28*
X2015732Y1795224D03*
Y1790224D03*
Y1785224D03*
X2058252D03*
Y1790224D03*
Y1795224D03*
G54D29*
X1824468Y1651200D03*
X2098968Y1805700D03*
G54D30*
X1829468Y1651200D03*
X1834468D03*
X1839468D03*
Y1671200D03*
X1834468D03*
X1829468D03*
X1824468D03*
X2103968Y1805700D03*
X2108968D03*
X2113968D03*
Y1825700D03*
X2108968D03*
X2103968D03*
X2098968D03*
G54D31*
X1951017Y1624726D03*
Y1612937D03*
G54D32*
X1961568Y1618742D03*
G54D33*
X1952068Y1618842D03*
G54D34*
X1828092Y1596224D03*
G54D35*
X1916492Y1599624D03*
Y1637624D03*
X1949992Y1599624D03*
G54D36*
X1980118Y1493724D03*
X1995866D03*
X1903118Y1664724D03*
X1918866D03*
G54D37*
X1963858Y1686724D03*
X1922126D03*
G54D38*
X1848248Y1546449D03*
X1846280Y1387000D03*
X1895492D03*
X1944705D03*
X1863996Y1546449D03*
X1879744D03*
X1895492D03*
X1911240D03*
X1926988D03*
G54D39*
X1878047Y1636535D03*
X1868992D03*
X1859937D03*
G54D40*
X1868992Y1612913D03*
G54D41*
X1890462Y1829744D03*
X1885462D03*
X1880462D03*
X1875462D03*
X1870462D03*
X1865462D03*
X1860462D03*
X1855462D03*
Y1807744D03*
X1860462D03*
X1865462D03*
X1870462D03*
X1875462D03*
X1880462D03*
X1885462D03*
X1890462D03*
G54D42*
X1907112Y1726725D03*
X1909078D03*
X1911047D03*
X1913015D03*
X1914984D03*
X1916952D03*
X1918921D03*
X1920889D03*
X1922858D03*
X1924826D03*
X1926795D03*
X1928763D03*
X1930732D03*
X1932700D03*
X1934669D03*
X1936637D03*
X1938606D03*
X1940574D03*
X1942543D03*
X1944511D03*
X1944313Y1783953D03*
X1942344D03*
X1940376D03*
X1938407D03*
X1936439D03*
X1934470D03*
X1932502D03*
X1930533D03*
X1928565D03*
X1926596D03*
X1924628D03*
X1922659D03*
X1920691D03*
X1918722D03*
X1916754D03*
X1914785D03*
X1912817D03*
X1910848D03*
X1908880D03*
X1906911D03*
G54D43*
X1954246Y1736640D03*
Y1738609D03*
Y1740577D03*
Y1742546D03*
Y1744514D03*
Y1746483D03*
Y1748451D03*
Y1750420D03*
Y1752388D03*
Y1754357D03*
Y1756325D03*
Y1758294D03*
Y1760262D03*
Y1762231D03*
Y1764199D03*
Y1766168D03*
Y1768136D03*
Y1770105D03*
Y1772073D03*
Y1774042D03*
X1896964Y1774056D03*
Y1772087D03*
Y1770119D03*
Y1768150D03*
Y1766182D03*
Y1764213D03*
Y1762245D03*
Y1760276D03*
Y1758308D03*
Y1756339D03*
Y1754371D03*
Y1752402D03*
Y1750434D03*
Y1748465D03*
Y1746497D03*
Y1744528D03*
Y1742560D03*
Y1740591D03*
Y1738623D03*
Y1736654D03*
G54D44*
X1970992Y1885724D03*
X1960992D03*
X1950992D03*
X1940992D03*
G54D45*
X2141992Y1815724D03*
Y1829724D03*
G54D46*
X2061114Y1567685D03*
X2051114Y1637764D03*
X2061114Y1386685D03*
X2051114Y1456764D03*
G54D47*
X2001272Y1582646D03*
Y1622803D03*
Y1401646D03*
Y1441803D03*
G54D48*
X1898498Y1704703D03*
X1903698Y1704803D03*
G54D49*
X1901015Y1683069D03*
G54D50*
X2173083Y1409331D03*
Y1384724D03*
Y1360118D03*
X2121902Y1409331D03*
Y1384724D03*
Y1360118D03*
X2173083Y1501831D03*
Y1477224D03*
Y1452618D03*
X2121902Y1501831D03*
Y1477224D03*
Y1452618D03*
X2173083Y1594331D03*
Y1569724D03*
Y1545118D03*
X2121902Y1594331D03*
Y1569724D03*
Y1545118D03*
X2173083Y1686831D03*
Y1662224D03*
Y1637618D03*
X2121902Y1686831D03*
Y1662224D03*
Y1637618D03*
G54D51*
X1877992Y1765474D03*
Y1773974D03*
X1868492Y1765474D03*
Y1773974D03*
X1971992Y1728974D03*
Y1720474D03*
X1858992Y1765474D03*
Y1773974D03*
X1980992Y1728974D03*
Y1720474D03*
X1866992Y1655474D03*
Y1663974D03*
X1884992Y1655474D03*
Y1663974D03*
G54D52*
X1992242Y1479724D03*
X1983742D03*
X1917242Y1860724D03*
X1925742D03*
X1936742D03*
X1945242D03*
X1956742D03*
X1965242D03*
G54D53*
X2170992Y1794724D03*
X2135992Y1880724D03*
X1913492Y1881724D03*
G54D54*
X2170992Y1809724D03*
Y1824724D03*
Y1839724D03*
X2120992Y1880724D03*
X2105992D03*
X2090992D03*
X1898492Y1881724D03*
X1883492D03*
X1868492D03*
G54D55*
X1832677Y1324409D03*
G54D56*
X1832709Y1332816D03*
X1841109Y1324417D03*
X1832664Y1315926D03*
X1824219Y1324417D03*
X1838749Y1330243D03*
X1826581Y1330287D03*
X1826445Y1318801D03*
X1839073Y1318900D03*
G54D11*
X2089742Y1731724D03*
X2096242D03*
X2082242D03*
X2075742D03*
X1980992Y1756474D03*
Y1762974D03*
X1994992Y1748974D03*
Y1742474D03*
X1993492Y1874474D03*
Y1867974D03*
X1868492Y1748974D03*
Y1742474D03*
X1854992D03*
Y1748974D03*
X1993492Y1854974D03*
Y1861474D03*
X2086992Y1855474D03*
Y1861974D03*
X2078992Y1755474D03*
Y1761974D03*
Y1748974D03*
Y1742474D03*
X1847992Y1748974D03*
Y1742474D03*
Y1762974D03*
Y1756474D03*
X1819992Y1617474D03*
Y1623974D03*
X1840992Y1692974D03*
Y1686474D03*
X1826992Y1617474D03*
Y1623974D03*
X1847992Y1730974D03*
Y1724474D03*
X1833992Y1623974D03*
Y1617474D03*
X1847992Y1713974D03*
Y1707474D03*
X1840992Y1617474D03*
Y1623974D03*
X1847992Y1692974D03*
Y1686474D03*
X1973992Y1756474D03*
Y1762974D03*
X1861992Y1707474D03*
Y1713974D03*
X1889492Y1686474D03*
Y1692974D03*
X1980992Y1770474D03*
Y1776974D03*
X1973992Y1770474D03*
Y1776974D03*
X1994992D03*
Y1770474D03*
X1938992Y1794474D03*
Y1800974D03*
X1882492Y1686474D03*
Y1692974D03*
X1994992Y1721474D03*
Y1727974D03*
X1887992Y1853974D03*
Y1847474D03*
X1854992Y1724474D03*
Y1730974D03*
X1988992Y1727974D03*
Y1721474D03*
X1948742Y1700724D03*
X1955242D03*
X1938242D03*
X1931742D03*
X1892242Y1704724D03*
X1885742D03*
X1911742Y1700724D03*
X1918242D03*
X1840992Y1631474D03*
Y1637974D03*
X1899992Y1847474D03*
Y1853974D03*
X1905992Y1847474D03*
Y1853974D03*
X1931992Y1794474D03*
Y1800974D03*
X1862242Y1674724D03*
X1868742D03*
X1847992Y1631474D03*
Y1637974D03*
X2073992Y1876474D03*
Y1882974D03*
X1819992Y1637974D03*
Y1631474D03*
X1854992Y1692974D03*
Y1686474D03*
X2106992Y1756474D03*
Y1762974D03*
X1991492Y1517974D03*
Y1524474D03*
X1833992Y1692974D03*
Y1686474D03*
X1916992Y1811474D03*
Y1817974D03*
X1928992Y1811474D03*
Y1817974D03*
X1958992Y1811474D03*
Y1817974D03*
X1922992Y1811474D03*
Y1817974D03*
X1940992Y1811474D03*
Y1817974D03*
X1946992Y1811474D03*
Y1817974D03*
X1910992Y1811474D03*
Y1817974D03*
X1934992Y1811474D03*
Y1817974D03*
X1952992Y1811474D03*
Y1817974D03*
X1935242Y1612724D03*
X1941742D03*
X1873992Y1847474D03*
Y1853974D03*
X1882033Y1847474D03*
Y1853974D03*
X1910992Y1804974D03*
Y1798474D03*
X1865992Y1847474D03*
Y1853974D03*
X1859992D03*
Y1847474D03*
X1959242Y1636724D03*
X1952742D03*
X1978992Y1856474D03*
Y1862974D03*
X1847992Y1770474D03*
Y1776974D03*
X2067992Y1876474D03*
Y1882974D03*
X2078992Y1855474D03*
Y1861974D03*
X1999492Y1874474D03*
Y1867974D03*
Y1854974D03*
Y1861474D03*
X1994992Y1790974D03*
Y1784474D03*
X1987992Y1776974D03*
Y1770474D03*
Y1748974D03*
Y1742474D03*
X1833992Y1631474D03*
Y1637974D03*
X2078992Y1790974D03*
Y1784474D03*
X1826992Y1631474D03*
Y1637974D03*
X2078992Y1776974D03*
Y1770474D03*
X2099992Y1784474D03*
Y1790974D03*
X2144992Y1741974D03*
Y1735474D03*
X1854992Y1707474D03*
Y1713974D03*
X1826992Y1686474D03*
Y1692974D03*
X1987992Y1812474D03*
Y1818974D03*
X2093992Y1847974D03*
Y1841474D03*
X2078992Y1847974D03*
Y1841474D03*
Y1819974D03*
Y1813474D03*
Y1805974D03*
Y1799474D03*
X1954992Y1800974D03*
Y1794474D03*
X1947992Y1800974D03*
Y1794474D03*
X1964992Y1811474D03*
Y1817974D03*
X1970992Y1811474D03*
Y1817974D03*
X1994992Y1804974D03*
Y1798474D03*
X2093992Y1784474D03*
Y1790974D03*
X2171992Y1755974D03*
Y1749474D03*
Y1769974D03*
Y1763474D03*
X2093992Y1770474D03*
Y1776974D03*
X2162992Y1769974D03*
Y1763474D03*
X1966992Y1770474D03*
Y1776974D03*
X2093992Y1755474D03*
Y1761974D03*
X2155992Y1763474D03*
Y1769974D03*
X2086992Y1761974D03*
Y1755474D03*
Y1776974D03*
Y1770474D03*
X2148992Y1769974D03*
Y1763474D03*
X2086992Y1805974D03*
Y1799474D03*
X2093992Y1861974D03*
Y1855474D03*
X2086992Y1847974D03*
Y1841474D03*
Y1833974D03*
Y1827474D03*
Y1819974D03*
Y1813474D03*
X1994992Y1812474D03*
Y1818974D03*
X2078992Y1833974D03*
Y1827474D03*
X1987992Y1804974D03*
Y1798474D03*
X1962492Y1794474D03*
Y1800974D03*
X2086992Y1790974D03*
Y1784474D03*
X1858992Y1656474D03*
Y1662974D03*
X2134992Y1741974D03*
Y1735474D03*
X1893992Y1847474D03*
Y1853974D03*
X1876992Y1656474D03*
Y1662974D03*
X1919992Y1849724D03*
X1937992D03*
X1955992D03*
G54D12*
X1983742Y1525224D03*
X1976242D03*
X2086992Y1748474D03*
Y1740974D03*
X1981242Y1749724D03*
X1973742D03*
X1977242Y1783724D03*
X1984742D03*
X1989242Y1755724D03*
X1996742D03*
X2145992Y1846974D03*
Y1854474D03*
X2114742Y1792224D03*
X2107242D03*
X2159742Y1756724D03*
X2152242D03*
X2131742Y1773724D03*
X2124242D03*
X2103242Y1769724D03*
X2110742D03*
X1916242Y1824724D03*
X1923742D03*
X1934242D03*
X1941742D03*
X1952242D03*
X1959742D03*
X1919992Y1839724D03*
X1937992D03*
X1955992D03*
G74*
X0Y0D02*
M02*
