*
*
G04 PADS 9.5 Build Number: 522968 generated Gerber (RS-274-X) file*
G04 PC Version=2.1*
*
%IN "MT-SAMA5D2X -A (3).pcb"*%
*
%MOIN*%
*
%FSLAX35Y35*%
*
*
*
*
G04 PC Standard Apertures*
*
*
G04 Thermal Relief Aperture macro.*
%AMTER*
1,1,$1,0,0*
1,0,$1-$2,0,0*
21,0,$3,$4,0,0,45*
21,0,$3,$4,0,0,135*
%
*
*
G04 Annular Aperture macro.*
%AMANN*
1,1,$1,0,0*
1,0,$2,0,0*
%
*
*
G04 Odd Aperture macro.*
%AMODD*
1,1,$1,0,0*
1,0,$1-0.005,0,0*
%
*
*
G04 PC Custom Aperture Macros*
*
*
*
*
*
*
G04 PC Aperture Table*
*
%ADD010C,0.01*%
%ADD012C,0.001*%
%ADD058C,0.002*%
%ADD208C,0.00787*%
%ADD218C,0.004*%
*
*
*
*
G04 PC Circuitry*
G04 Layer Name MT-SAMA5D2X -A (3).pcb - circuitry*
%LPD*%
*
*
G04 PC Custom Flashes*
G04 Layer Name MT-SAMA5D2X -A (3).pcb - flashes*
%LPD*%
*
*
G04 PC Circuitry*
G04 Layer Name MT-SAMA5D2X -A (3).pcb - circuitry*
%LPD*%
*
G54D10*
G01X2132482Y1383717D02*
G75*
G03X2132482I-5118J0D01*
G01X2121482D02*
G03X2121482I-5118J0D01*
G01X1935482Y1494217D02*
G03X1935482I-5118J0D01*
G01X2426364Y1892032D02*
X2086287D01*
X2426364D02*
X2416364Y1894532D01*
Y1889532*
X2426364Y1892032*
X1705891D02*
X2045968D01*
X1705891D02*
X1715891Y1889532D01*
Y1894532*
X1705891Y1892032*
X2426364Y1798844D02*
Y1897032D01*
X1705891Y1798844D02*
Y1897032D01*
X2083287Y1893595D02*
X2082832Y1893907D01*
X2082150Y1894845*
Y1888282*
X2078968Y1894845D02*
X2079650Y1894532D01*
X2079877Y1893907*
Y1893282*
X2079650Y1892657*
X2079196Y1892345*
X2078287Y1892032*
X2077605Y1891720*
X2077150Y1891095*
X2076923Y1890470*
Y1889532*
X2077150Y1888907*
X2077377Y1888595*
X2078059Y1888282*
X2078968*
X2079650Y1888595*
X2079877Y1888907*
X2080105Y1889532*
Y1890470*
X2079877Y1891095*
X2079423Y1891720*
X2078741Y1892032*
X2077832Y1892345*
X2077377Y1892657*
X2077150Y1893282*
Y1893907*
X2077377Y1894532*
X2078059Y1894845*
X2078968*
X2074423D02*
X2071923D01*
X2073287Y1892345*
X2072605*
X2072150Y1892032*
X2071923Y1891720*
X2071696Y1890782*
Y1890157*
X2071923Y1889220*
X2072377Y1888595*
X2073059Y1888282*
X2073741*
X2074423Y1888595*
X2074650Y1888907*
X2074877Y1889532*
X2069423Y1888907D02*
X2069650Y1888595D01*
X2069423Y1888282*
X2069196Y1888595*
X2069423Y1888907*
X2065787Y1894845D02*
X2066468Y1894532D01*
X2066923Y1893595*
X2067150Y1892032*
Y1891095*
X2066923Y1889532*
X2066468Y1888595*
X2065787Y1888282*
X2065332*
X2064650Y1888595*
X2064196Y1889532*
X2063968Y1891095*
Y1892032*
X2064196Y1893595*
X2064650Y1894532*
X2065332Y1894845*
X2065787*
X2061923Y1892657D02*
Y1888282D01*
Y1891407D02*
X2061241Y1892345D01*
X2060787Y1892657*
X2060105*
X2059650Y1892345*
X2059423Y1891407*
Y1888282*
Y1891407D02*
X2058741Y1892345D01*
X2058287Y1892657*
X2057605*
X2057150Y1892345*
X2056923Y1891407*
Y1888282*
X2054877Y1892657D02*
Y1888282D01*
Y1891407D02*
X2054196Y1892345D01*
X2053741Y1892657*
X2053059*
X2052605Y1892345*
X2052377Y1891407*
Y1888282*
Y1891407D02*
X2051696Y1892345D01*
X2051241Y1892657*
X2050559*
X2050105Y1892345*
X2049877Y1891407*
Y1888282*
X1591364Y1301718D02*
Y1541031D01*
Y1301718D02*
X1593864Y1311718D01*
X1588864*
X1591364Y1301718*
Y1793844D02*
Y1554531D01*
Y1793844D02*
X1588864Y1783844D01*
X1593864*
X1591364Y1793844*
X1700891Y1301718D02*
X1586364D01*
X1700891Y1793844D02*
X1586364D01*
X1608636Y1549343D02*
X1608182Y1549656D01*
X1607500Y1550593*
Y1544031*
X1605227Y1549031D02*
Y1549343D01*
X1605000Y1549968*
X1604773Y1550281*
X1604318Y1550593*
X1603409*
X1602955Y1550281*
X1602727Y1549968*
X1602500Y1549343*
Y1548718*
X1602727Y1548093*
X1603182Y1547156*
X1605455Y1544031*
X1602273*
X1597273Y1550593D02*
X1599545D01*
X1599773Y1547781*
X1599545Y1548093*
X1598864Y1548406*
X1598182*
X1597500Y1548093*
X1597045Y1547468*
X1596818Y1546531*
X1597045Y1545906*
X1597273Y1544968*
X1597727Y1544343*
X1598409Y1544031*
X1599091*
X1599773Y1544343*
X1600000Y1544656*
X1600227Y1545281*
X1594545Y1544656D02*
X1594773Y1544343D01*
X1594545Y1544031*
X1594318Y1544343*
X1594545Y1544656*
X1590909Y1550593D02*
X1591591Y1550281D01*
X1592045Y1549343*
X1592273Y1547781*
Y1546843*
X1592045Y1545281*
X1591591Y1544343*
X1590909Y1544031*
X1590455*
X1589773Y1544343*
X1589318Y1545281*
X1589091Y1546843*
Y1547781*
X1589318Y1549343*
X1589773Y1550281*
X1590455Y1550593*
X1590909*
X1587045Y1548406D02*
Y1544031D01*
Y1547156D02*
X1586364Y1548093D01*
X1585909Y1548406*
X1585227*
X1584773Y1548093*
X1584545Y1547156*
Y1544031*
Y1547156D02*
X1583864Y1548093D01*
X1583409Y1548406*
X1582727*
X1582273Y1548093*
X1582045Y1547156*
Y1544031*
X1580000Y1548406D02*
Y1544031D01*
Y1547156D02*
X1579318Y1548093D01*
X1578864Y1548406*
X1578182*
X1577727Y1548093*
X1577500Y1547156*
Y1544031*
Y1547156D02*
X1576818Y1548093D01*
X1576364Y1548406*
X1575682*
X1575227Y1548093*
X1575000Y1547156*
Y1544031*
G54D12*
X2426364Y1793844D02*
X2426361D01*
X1705891D02*
X1705889D01*
X1705891Y1301718D02*
X1705889D01*
X1705891Y1793844D02*
X1705889D01*
G54D58*
X1910364Y1442717D02*
X1909864Y1443217D01*
X1902864*
X1902364Y1442717*
Y1424217*
X1902864Y1423717*
X1909864*
X1910364Y1424217*
Y1442717*
X1850364D02*
X1849864Y1443217D01*
X1842864*
X1842364Y1442717*
Y1424217*
X1842864Y1423717*
X1849864*
X1850364Y1424217*
Y1442717*
X1790364D02*
X1789864Y1443217D01*
X1782864*
X1782364Y1442717*
Y1424217*
X1782864Y1423717*
X1789864*
X1790364Y1424217*
Y1442717*
X1945364Y1694717D02*
X1945864Y1695217D01*
Y1702217*
X1945364Y1702717*
X1926864*
X1926364Y1702217*
Y1695217*
X1926864Y1694717*
X1945364*
G54D208*
X1705891Y1301718D02*
X2426364D01*
Y1793844*
X1705891*
Y1301718*
G54D218*
X2124974Y1393360D02*
Y1390538D01*
X2124226Y1393360D02*
X2125722D01*
X2126683D02*
Y1390538D01*
Y1393360D02*
X2127644D01*
X2127965Y1393225*
X2128072Y1393091*
X2128178Y1392822*
Y1392419*
X2128072Y1392150*
X2127965Y1392016*
X2127644Y1391882*
X2126683*
X2129140Y1392822D02*
X2129353Y1392957D01*
X2129674Y1393360*
Y1390538*
X2113993Y1393860D02*
Y1391038D01*
X2113245Y1393860D02*
X2114741D01*
X2115702D02*
Y1391038D01*
Y1393860D02*
X2116664D01*
X2116984Y1393725*
X2117091Y1393591*
X2117198Y1393322*
Y1392919*
X2117091Y1392650*
X2116984Y1392516*
X2116664Y1392382*
X2115702*
X2118266Y1393188D02*
Y1393322D01*
X2118373Y1393591*
X2118480Y1393725*
X2118693Y1393860*
X2119120*
X2119334Y1393725*
X2119441Y1393591*
X2119548Y1393322*
Y1393053*
X2119441Y1392785*
X2119227Y1392382*
X2118159Y1391038*
X2119655*
X1929147Y1505660D02*
Y1502838D01*
X1928399Y1505660D02*
X1929894D01*
X1930856D02*
Y1502838D01*
Y1505660D02*
X1931817D01*
X1932138Y1505525*
X1932138D02*
X1932244Y1505391D01*
X1932351Y1505122*
Y1504719*
X1932244Y1504450*
X1932138Y1504316*
X1932138D02*
X1931817Y1504182D01*
X1930856*
X1934701Y1504719D02*
X1934594Y1504316D01*
X1934381Y1504047*
X1934060Y1503913*
X1933953*
X1933633Y1504047*
X1933419Y1504316*
X1933313Y1504719*
X1933313D02*
Y1504853D01*
X1933313D02*
X1933419Y1505257D01*
X1933633Y1505525*
X1933953Y1505660*
X1934060*
X1934381Y1505525*
X1934594Y1505257*
X1934701Y1504719*
Y1504047*
X1934594Y1503375*
X1934381Y1502972*
X1934060Y1502838*
X1933847*
X1933526Y1502972*
X1933419Y1503241*
G74*
X0Y0D02*
M02*
